G04 (created by PCBNEW (2013-07-07 BZR 4022)-stable) date 5/2/2015 5:14:18 PM*
%MOIN*%
G04 Gerber Fmt 3.4, Leading zero omitted, Abs format*
%FSLAX34Y34*%
G01*
G70*
G90*
G04 APERTURE LIST*
%ADD10C,0.00590551*%
%ADD11C,0.0035*%
%ADD12C,0.0026*%
%ADD13C,0.0078*%
%ADD14C,4.72441e-006*%
%ADD15C,0.002*%
%ADD16C,0.015*%
%ADD17C,0.0019685*%
%ADD18C,0.012*%
%ADD19C,0.00393701*%
%ADD20C,0.00246063*%
G04 APERTURE END LIST*
G54D10*
G54D11*
X104280Y-43852D02*
X104280Y-44257D01*
X104257Y-44304D01*
X104233Y-44328D01*
X104185Y-44352D01*
X104090Y-44352D01*
X104042Y-44328D01*
X104019Y-44304D01*
X103995Y-44257D01*
X103995Y-43852D01*
X103495Y-44352D02*
X103780Y-44352D01*
X103638Y-44352D02*
X103638Y-43852D01*
X103685Y-43923D01*
X103733Y-43971D01*
X103780Y-43995D01*
X103066Y-44019D02*
X103066Y-44352D01*
X103185Y-43828D02*
X103304Y-44185D01*
X102995Y-44185D01*
X105428Y-42602D02*
X105095Y-43102D01*
X105095Y-42602D02*
X105428Y-43102D01*
X104619Y-43054D02*
X104642Y-43078D01*
X104714Y-43102D01*
X104761Y-43102D01*
X104833Y-43078D01*
X104880Y-43030D01*
X104904Y-42983D01*
X104928Y-42888D01*
X104928Y-42816D01*
X104904Y-42721D01*
X104880Y-42673D01*
X104833Y-42626D01*
X104761Y-42602D01*
X104714Y-42602D01*
X104642Y-42626D01*
X104619Y-42650D01*
X104380Y-43102D02*
X104285Y-43102D01*
X104238Y-43078D01*
X104214Y-43054D01*
X104166Y-42983D01*
X104142Y-42888D01*
X104142Y-42697D01*
X104166Y-42650D01*
X104190Y-42626D01*
X104238Y-42602D01*
X104333Y-42602D01*
X104380Y-42626D01*
X104404Y-42650D01*
X104428Y-42697D01*
X104428Y-42816D01*
X104404Y-42864D01*
X104380Y-42888D01*
X104333Y-42911D01*
X104238Y-42911D01*
X104190Y-42888D01*
X104166Y-42864D01*
X104142Y-42816D01*
X103690Y-42602D02*
X103928Y-42602D01*
X103952Y-42840D01*
X103928Y-42816D01*
X103880Y-42792D01*
X103761Y-42792D01*
X103714Y-42816D01*
X103690Y-42840D01*
X103666Y-42888D01*
X103666Y-43007D01*
X103690Y-43054D01*
X103714Y-43078D01*
X103761Y-43102D01*
X103880Y-43102D01*
X103928Y-43078D01*
X103952Y-43054D01*
X103499Y-42602D02*
X103166Y-42602D01*
X103380Y-43102D01*
X102999Y-42650D02*
X102976Y-42626D01*
X102928Y-42602D01*
X102809Y-42602D01*
X102761Y-42626D01*
X102738Y-42650D01*
X102714Y-42697D01*
X102714Y-42745D01*
X102738Y-42816D01*
X103023Y-43102D01*
X102714Y-43102D01*
X102547Y-42602D02*
X102214Y-43102D01*
X102214Y-42602D02*
X102547Y-43102D01*
X101785Y-43102D02*
X102023Y-43102D01*
X102023Y-42602D01*
G54D12*
X85464Y-42238D02*
X85464Y-42632D01*
X85464Y-42632D02*
X85287Y-42632D01*
X85287Y-42238D02*
X85287Y-42632D01*
X85464Y-42238D02*
X85287Y-42238D01*
X85779Y-42238D02*
X85779Y-42632D01*
X85779Y-42632D02*
X85602Y-42632D01*
X85602Y-42238D02*
X85602Y-42632D01*
X85779Y-42238D02*
X85602Y-42238D01*
X86094Y-42238D02*
X86094Y-42632D01*
X86094Y-42632D02*
X85917Y-42632D01*
X85917Y-42238D02*
X85917Y-42632D01*
X86094Y-42238D02*
X85917Y-42238D01*
X86409Y-42238D02*
X86409Y-42632D01*
X86409Y-42632D02*
X86232Y-42632D01*
X86232Y-42238D02*
X86232Y-42632D01*
X86409Y-42238D02*
X86232Y-42238D01*
X86724Y-42238D02*
X86724Y-42632D01*
X86724Y-42632D02*
X86547Y-42632D01*
X86547Y-42238D02*
X86547Y-42632D01*
X86724Y-42238D02*
X86547Y-42238D01*
X87038Y-42238D02*
X87038Y-42632D01*
X87038Y-42632D02*
X86862Y-42632D01*
X86862Y-42238D02*
X86862Y-42632D01*
X87038Y-42238D02*
X86862Y-42238D01*
X87353Y-42238D02*
X87353Y-42632D01*
X87353Y-42632D02*
X87176Y-42632D01*
X87176Y-42238D02*
X87176Y-42632D01*
X87353Y-42238D02*
X87176Y-42238D01*
X87668Y-42238D02*
X87668Y-42632D01*
X87668Y-42632D02*
X87491Y-42632D01*
X87491Y-42238D02*
X87491Y-42632D01*
X87668Y-42238D02*
X87491Y-42238D01*
X87983Y-42238D02*
X87983Y-42632D01*
X87983Y-42632D02*
X87806Y-42632D01*
X87806Y-42238D02*
X87806Y-42632D01*
X87983Y-42238D02*
X87806Y-42238D01*
X88298Y-42238D02*
X88298Y-42632D01*
X88298Y-42632D02*
X88121Y-42632D01*
X88121Y-42238D02*
X88121Y-42632D01*
X88298Y-42238D02*
X88121Y-42238D01*
X88613Y-42238D02*
X88613Y-42632D01*
X88613Y-42632D02*
X88436Y-42632D01*
X88436Y-42238D02*
X88436Y-42632D01*
X88613Y-42238D02*
X88436Y-42238D01*
X89312Y-42937D02*
X89312Y-43114D01*
X89312Y-43114D02*
X88918Y-43114D01*
X88918Y-42937D02*
X88918Y-43114D01*
X89312Y-42937D02*
X88918Y-42937D01*
X89312Y-43252D02*
X89312Y-43429D01*
X89312Y-43429D02*
X88918Y-43429D01*
X88918Y-43252D02*
X88918Y-43429D01*
X89312Y-43252D02*
X88918Y-43252D01*
X89312Y-43567D02*
X89312Y-43744D01*
X89312Y-43744D02*
X88918Y-43744D01*
X88918Y-43567D02*
X88918Y-43744D01*
X89312Y-43567D02*
X88918Y-43567D01*
X89312Y-43882D02*
X89312Y-44059D01*
X89312Y-44059D02*
X88918Y-44059D01*
X88918Y-43882D02*
X88918Y-44059D01*
X89312Y-43882D02*
X88918Y-43882D01*
X89312Y-44197D02*
X89312Y-44374D01*
X89312Y-44374D02*
X88918Y-44374D01*
X88918Y-44197D02*
X88918Y-44374D01*
X89312Y-44197D02*
X88918Y-44197D01*
X89312Y-44512D02*
X89312Y-44688D01*
X89312Y-44688D02*
X88918Y-44688D01*
X88918Y-44512D02*
X88918Y-44688D01*
X89312Y-44512D02*
X88918Y-44512D01*
X89312Y-44826D02*
X89312Y-45003D01*
X89312Y-45003D02*
X88918Y-45003D01*
X88918Y-44826D02*
X88918Y-45003D01*
X89312Y-44826D02*
X88918Y-44826D01*
X89312Y-45141D02*
X89312Y-45318D01*
X89312Y-45318D02*
X88918Y-45318D01*
X88918Y-45141D02*
X88918Y-45318D01*
X89312Y-45141D02*
X88918Y-45141D01*
X89312Y-45456D02*
X89312Y-45633D01*
X89312Y-45633D02*
X88918Y-45633D01*
X88918Y-45456D02*
X88918Y-45633D01*
X89312Y-45456D02*
X88918Y-45456D01*
X89312Y-45771D02*
X89312Y-45948D01*
X89312Y-45948D02*
X88918Y-45948D01*
X88918Y-45771D02*
X88918Y-45948D01*
X89312Y-45771D02*
X88918Y-45771D01*
X89312Y-46086D02*
X89312Y-46263D01*
X89312Y-46263D02*
X88918Y-46263D01*
X88918Y-46086D02*
X88918Y-46263D01*
X89312Y-46086D02*
X88918Y-46086D01*
X88613Y-46568D02*
X88613Y-46962D01*
X88613Y-46962D02*
X88436Y-46962D01*
X88436Y-46568D02*
X88436Y-46962D01*
X88613Y-46568D02*
X88436Y-46568D01*
X88298Y-46568D02*
X88298Y-46962D01*
X88298Y-46962D02*
X88121Y-46962D01*
X88121Y-46568D02*
X88121Y-46962D01*
X88298Y-46568D02*
X88121Y-46568D01*
X87983Y-46568D02*
X87983Y-46962D01*
X87983Y-46962D02*
X87806Y-46962D01*
X87806Y-46568D02*
X87806Y-46962D01*
X87983Y-46568D02*
X87806Y-46568D01*
X87668Y-46568D02*
X87668Y-46962D01*
X87668Y-46962D02*
X87491Y-46962D01*
X87491Y-46568D02*
X87491Y-46962D01*
X87668Y-46568D02*
X87491Y-46568D01*
X87353Y-46568D02*
X87353Y-46962D01*
X87353Y-46962D02*
X87176Y-46962D01*
X87176Y-46568D02*
X87176Y-46962D01*
X87353Y-46568D02*
X87176Y-46568D01*
X87038Y-46568D02*
X87038Y-46962D01*
X87038Y-46962D02*
X86862Y-46962D01*
X86862Y-46568D02*
X86862Y-46962D01*
X87038Y-46568D02*
X86862Y-46568D01*
X86724Y-46568D02*
X86724Y-46962D01*
X86724Y-46962D02*
X86547Y-46962D01*
X86547Y-46568D02*
X86547Y-46962D01*
X86724Y-46568D02*
X86547Y-46568D01*
X86409Y-46568D02*
X86409Y-46962D01*
X86409Y-46962D02*
X86232Y-46962D01*
X86232Y-46568D02*
X86232Y-46962D01*
X86409Y-46568D02*
X86232Y-46568D01*
X86094Y-46568D02*
X86094Y-46962D01*
X86094Y-46962D02*
X85917Y-46962D01*
X85917Y-46568D02*
X85917Y-46962D01*
X86094Y-46568D02*
X85917Y-46568D01*
X85779Y-46568D02*
X85779Y-46962D01*
X85779Y-46962D02*
X85602Y-46962D01*
X85602Y-46568D02*
X85602Y-46962D01*
X85779Y-46568D02*
X85602Y-46568D01*
X85464Y-46568D02*
X85464Y-46962D01*
X85464Y-46962D02*
X85287Y-46962D01*
X85287Y-46568D02*
X85287Y-46962D01*
X85464Y-46568D02*
X85287Y-46568D01*
X84982Y-46086D02*
X84982Y-46263D01*
X84982Y-46263D02*
X84588Y-46263D01*
X84588Y-46086D02*
X84588Y-46263D01*
X84982Y-46086D02*
X84588Y-46086D01*
X84982Y-45771D02*
X84982Y-45948D01*
X84982Y-45948D02*
X84588Y-45948D01*
X84588Y-45771D02*
X84588Y-45948D01*
X84982Y-45771D02*
X84588Y-45771D01*
X84982Y-45456D02*
X84982Y-45633D01*
X84982Y-45633D02*
X84588Y-45633D01*
X84588Y-45456D02*
X84588Y-45633D01*
X84982Y-45456D02*
X84588Y-45456D01*
X84982Y-45141D02*
X84982Y-45318D01*
X84982Y-45318D02*
X84588Y-45318D01*
X84588Y-45141D02*
X84588Y-45318D01*
X84982Y-45141D02*
X84588Y-45141D01*
X84982Y-44826D02*
X84982Y-45003D01*
X84982Y-45003D02*
X84588Y-45003D01*
X84588Y-44826D02*
X84588Y-45003D01*
X84982Y-44826D02*
X84588Y-44826D01*
X84982Y-44512D02*
X84982Y-44688D01*
X84982Y-44688D02*
X84588Y-44688D01*
X84588Y-44512D02*
X84588Y-44688D01*
X84982Y-44512D02*
X84588Y-44512D01*
X84982Y-44197D02*
X84982Y-44374D01*
X84982Y-44374D02*
X84588Y-44374D01*
X84588Y-44197D02*
X84588Y-44374D01*
X84982Y-44197D02*
X84588Y-44197D01*
X84982Y-43882D02*
X84982Y-44059D01*
X84982Y-44059D02*
X84588Y-44059D01*
X84588Y-43882D02*
X84588Y-44059D01*
X84982Y-43882D02*
X84588Y-43882D01*
X84982Y-43567D02*
X84982Y-43744D01*
X84982Y-43744D02*
X84588Y-43744D01*
X84588Y-43567D02*
X84588Y-43744D01*
X84982Y-43567D02*
X84588Y-43567D01*
X84982Y-43252D02*
X84982Y-43429D01*
X84982Y-43429D02*
X84588Y-43429D01*
X84588Y-43252D02*
X84588Y-43429D01*
X84982Y-43252D02*
X84588Y-43252D01*
X84982Y-42937D02*
X84982Y-43114D01*
X84982Y-43114D02*
X84588Y-43114D01*
X84588Y-42937D02*
X84588Y-43114D01*
X84982Y-42937D02*
X84588Y-42937D01*
G54D13*
X88879Y-42868D02*
X88682Y-42671D01*
X88682Y-42671D02*
X85218Y-42671D01*
X88682Y-46529D02*
X88879Y-46332D01*
X88879Y-46332D02*
X88879Y-42868D01*
X85021Y-46332D02*
X85218Y-46529D01*
X85218Y-46529D02*
X88682Y-46529D01*
X85218Y-42671D02*
X85021Y-42868D01*
X85021Y-42868D02*
X85021Y-46332D01*
G54D14*
X85533Y-43026D02*
G75*
G03X85533Y-43026I-138J0D01*
G74*
G01*
G54D15*
X84107Y-40226D02*
X84107Y-38674D01*
X84107Y-38674D02*
X83333Y-38674D01*
X83333Y-38674D02*
X83333Y-40226D01*
X83333Y-40226D02*
X84107Y-40226D01*
X61696Y-40226D02*
X61696Y-38674D01*
X61696Y-38674D02*
X60922Y-38674D01*
X60922Y-38674D02*
X60922Y-40226D01*
X60922Y-40226D02*
X61696Y-40226D01*
X72787Y-40136D02*
X72787Y-38584D01*
X72787Y-38584D02*
X72013Y-38584D01*
X72013Y-38584D02*
X72013Y-40136D01*
X72013Y-40136D02*
X72787Y-40136D01*
X96007Y-38656D02*
X96007Y-37104D01*
X96007Y-37104D02*
X95233Y-37104D01*
X95233Y-37104D02*
X95233Y-38656D01*
X95233Y-38656D02*
X96007Y-38656D01*
X84107Y-38576D02*
X84107Y-37024D01*
X84107Y-37024D02*
X83333Y-37024D01*
X83333Y-37024D02*
X83333Y-38576D01*
X83333Y-38576D02*
X84107Y-38576D01*
X61696Y-38576D02*
X61696Y-37024D01*
X61696Y-37024D02*
X60922Y-37024D01*
X60922Y-37024D02*
X60922Y-38576D01*
X60922Y-38576D02*
X61696Y-38576D01*
X72787Y-38486D02*
X72787Y-36934D01*
X72787Y-36934D02*
X72013Y-36934D01*
X72013Y-36934D02*
X72013Y-38486D01*
X72013Y-38486D02*
X72787Y-38486D01*
X79533Y-45574D02*
X79533Y-47126D01*
X79533Y-47126D02*
X80307Y-47126D01*
X80307Y-47126D02*
X80307Y-45574D01*
X80307Y-45574D02*
X79533Y-45574D01*
X91733Y-43753D02*
X91733Y-45305D01*
X91733Y-45305D02*
X92507Y-45305D01*
X92507Y-45305D02*
X92507Y-43753D01*
X92507Y-43753D02*
X91733Y-43753D01*
X99012Y-38451D02*
X99012Y-36899D01*
X99012Y-36899D02*
X98238Y-36899D01*
X98238Y-36899D02*
X98238Y-38451D01*
X98238Y-38451D02*
X99012Y-38451D01*
X98112Y-38451D02*
X98112Y-36899D01*
X98112Y-36899D02*
X97338Y-36899D01*
X97338Y-36899D02*
X97338Y-38451D01*
X97338Y-38451D02*
X98112Y-38451D01*
X96007Y-40355D02*
X96007Y-38803D01*
X96007Y-38803D02*
X95233Y-38803D01*
X95233Y-38803D02*
X95233Y-40355D01*
X95233Y-40355D02*
X96007Y-40355D01*
G54D16*
X42862Y-52122D02*
X42666Y-51925D01*
X41878Y-51925D02*
X42862Y-52909D01*
X42862Y-53696D02*
X41091Y-51925D01*
X40303Y-51925D02*
X42862Y-54484D01*
X42666Y-55074D02*
X39516Y-51925D01*
X41878Y-55074D02*
X38729Y-51925D01*
X41091Y-55074D02*
X38729Y-52712D01*
X38729Y-53500D02*
X40303Y-55074D01*
X39516Y-55074D02*
X38729Y-54287D01*
X42469Y-55074D02*
X41681Y-55074D01*
X42469Y-51925D02*
X41681Y-51925D01*
X42862Y-53106D02*
X42862Y-53893D01*
X40894Y-51925D02*
X40107Y-51925D01*
X100737Y-51925D02*
X103296Y-54484D01*
X103296Y-54484D02*
X103296Y-53696D01*
X103296Y-53696D02*
X101524Y-51925D01*
X101524Y-51925D02*
X102311Y-51925D01*
X102311Y-51925D02*
X103296Y-52909D01*
X103296Y-52909D02*
X103296Y-52122D01*
X103296Y-52122D02*
X103099Y-51925D01*
X102311Y-55074D02*
X99162Y-51925D01*
X99162Y-51925D02*
X99949Y-51925D01*
X99949Y-51925D02*
X103099Y-55074D01*
X99949Y-55074D02*
X99162Y-54287D01*
X99162Y-54287D02*
X99162Y-53893D01*
X100343Y-55074D02*
X100737Y-55074D01*
X100737Y-55074D02*
X99162Y-53500D01*
X99162Y-53500D02*
X99162Y-53106D01*
X101130Y-55074D02*
X101524Y-55074D01*
X101524Y-55074D02*
X99162Y-52712D01*
X99162Y-52712D02*
X99162Y-52318D01*
X99162Y-52318D02*
X99162Y-51925D01*
X99162Y-55074D02*
X99162Y-54681D01*
X42862Y-52318D02*
X42862Y-51925D01*
X42862Y-55074D02*
X42862Y-54681D01*
X42862Y-53500D02*
X42862Y-52318D01*
X42862Y-53500D02*
X42862Y-54681D01*
X99162Y-54681D02*
X99162Y-52318D01*
X38729Y-55074D02*
X61760Y-55074D01*
X61760Y-55074D02*
X87154Y-55074D01*
X87154Y-55074D02*
X98177Y-55074D01*
X98177Y-55074D02*
X103296Y-55074D01*
X103296Y-55074D02*
X103296Y-51925D01*
X103296Y-51925D02*
X38729Y-51925D01*
X38729Y-51925D02*
X38729Y-53500D01*
X38729Y-53500D02*
X38729Y-55074D01*
G54D11*
X90630Y-47272D02*
X90630Y-47717D01*
X90604Y-47770D01*
X90578Y-47796D01*
X90526Y-47822D01*
X90421Y-47822D01*
X90369Y-47796D01*
X90342Y-47770D01*
X90316Y-47717D01*
X90316Y-47272D01*
X89766Y-47822D02*
X90080Y-47822D01*
X89923Y-47822D02*
X89923Y-47272D01*
X89976Y-47351D01*
X90028Y-47403D01*
X90080Y-47429D01*
X89295Y-47455D02*
X89295Y-47822D01*
X89426Y-47246D02*
X89557Y-47639D01*
X89216Y-47639D01*
X90478Y-48172D02*
X90111Y-48722D01*
X90111Y-48172D02*
X90478Y-48722D01*
X89588Y-48670D02*
X89614Y-48696D01*
X89692Y-48722D01*
X89745Y-48722D01*
X89823Y-48696D01*
X89876Y-48644D01*
X89902Y-48591D01*
X89928Y-48486D01*
X89928Y-48408D01*
X89902Y-48303D01*
X89876Y-48251D01*
X89823Y-48198D01*
X89745Y-48172D01*
X89692Y-48172D01*
X89614Y-48198D01*
X89588Y-48225D01*
X89326Y-48722D02*
X89221Y-48722D01*
X89169Y-48696D01*
X89142Y-48670D01*
X89090Y-48591D01*
X89064Y-48486D01*
X89064Y-48277D01*
X89090Y-48225D01*
X89116Y-48198D01*
X89169Y-48172D01*
X89273Y-48172D01*
X89326Y-48198D01*
X89352Y-48225D01*
X89378Y-48277D01*
X89378Y-48408D01*
X89352Y-48460D01*
X89326Y-48486D01*
X89273Y-48513D01*
X89169Y-48513D01*
X89116Y-48486D01*
X89090Y-48460D01*
X89064Y-48408D01*
X88566Y-48172D02*
X88828Y-48172D01*
X88854Y-48434D01*
X88828Y-48408D01*
X88776Y-48382D01*
X88645Y-48382D01*
X88592Y-48408D01*
X88566Y-48434D01*
X88540Y-48486D01*
X88540Y-48617D01*
X88566Y-48670D01*
X88592Y-48696D01*
X88645Y-48722D01*
X88776Y-48722D01*
X88828Y-48696D01*
X88854Y-48670D01*
X88357Y-48172D02*
X88016Y-48172D01*
X88200Y-48382D01*
X88121Y-48382D01*
X88069Y-48408D01*
X88042Y-48434D01*
X88016Y-48486D01*
X88016Y-48617D01*
X88042Y-48670D01*
X88069Y-48696D01*
X88121Y-48722D01*
X88278Y-48722D01*
X88330Y-48696D01*
X88357Y-48670D01*
X87545Y-48172D02*
X87650Y-48172D01*
X87702Y-48198D01*
X87728Y-48225D01*
X87780Y-48303D01*
X87807Y-48408D01*
X87807Y-48617D01*
X87780Y-48670D01*
X87754Y-48696D01*
X87702Y-48722D01*
X87597Y-48722D01*
X87545Y-48696D01*
X87519Y-48670D01*
X87492Y-48617D01*
X87492Y-48486D01*
X87519Y-48434D01*
X87545Y-48408D01*
X87597Y-48382D01*
X87702Y-48382D01*
X87754Y-48408D01*
X87780Y-48434D01*
X87807Y-48486D01*
X87309Y-48172D02*
X86942Y-48722D01*
X86942Y-48172D02*
X87309Y-48722D01*
X86471Y-48722D02*
X86733Y-48722D01*
X86733Y-48172D01*
X86288Y-48513D02*
X85869Y-48513D01*
X85685Y-48172D02*
X85502Y-48722D01*
X85319Y-48172D01*
X84769Y-48775D02*
X84821Y-48748D01*
X84873Y-48696D01*
X84952Y-48617D01*
X85004Y-48591D01*
X85057Y-48591D01*
X85030Y-48722D02*
X85083Y-48696D01*
X85135Y-48644D01*
X85161Y-48539D01*
X85161Y-48355D01*
X85135Y-48251D01*
X85083Y-48198D01*
X85030Y-48172D01*
X84926Y-48172D01*
X84873Y-48198D01*
X84821Y-48251D01*
X84795Y-48355D01*
X84795Y-48539D01*
X84821Y-48644D01*
X84873Y-48696D01*
X84926Y-48722D01*
X85030Y-48722D01*
X84323Y-48355D02*
X84323Y-48722D01*
X84454Y-48146D02*
X84585Y-48539D01*
X84245Y-48539D01*
X83800Y-48355D02*
X83800Y-48722D01*
X83930Y-48146D02*
X84061Y-48539D01*
X83721Y-48539D01*
X83947Y-40681D02*
X83709Y-40515D01*
X83947Y-40395D02*
X83447Y-40395D01*
X83447Y-40586D01*
X83471Y-40634D01*
X83495Y-40657D01*
X83542Y-40681D01*
X83614Y-40681D01*
X83661Y-40657D01*
X83685Y-40634D01*
X83709Y-40586D01*
X83709Y-40395D01*
X83447Y-40848D02*
X83447Y-41157D01*
X83637Y-40991D01*
X83637Y-41062D01*
X83661Y-41110D01*
X83685Y-41134D01*
X83733Y-41157D01*
X83852Y-41157D01*
X83899Y-41134D01*
X83923Y-41110D01*
X83947Y-41062D01*
X83947Y-40919D01*
X83923Y-40872D01*
X83899Y-40848D01*
X84202Y-28942D02*
X84202Y-28657D01*
X84202Y-28800D02*
X83702Y-28800D01*
X83773Y-28752D01*
X83821Y-28704D01*
X83845Y-28657D01*
X84202Y-29157D02*
X83702Y-29157D01*
X84202Y-29442D02*
X83916Y-29228D01*
X83702Y-29442D02*
X83988Y-29157D01*
X61577Y-40681D02*
X61339Y-40515D01*
X61577Y-40395D02*
X61077Y-40395D01*
X61077Y-40586D01*
X61101Y-40634D01*
X61124Y-40657D01*
X61172Y-40681D01*
X61243Y-40681D01*
X61291Y-40657D01*
X61315Y-40634D01*
X61339Y-40586D01*
X61339Y-40395D01*
X61124Y-40872D02*
X61101Y-40895D01*
X61077Y-40943D01*
X61077Y-41062D01*
X61101Y-41110D01*
X61124Y-41134D01*
X61172Y-41157D01*
X61220Y-41157D01*
X61291Y-41134D01*
X61577Y-40848D01*
X61577Y-41157D01*
X61852Y-28442D02*
X61852Y-28157D01*
X61852Y-28300D02*
X61352Y-28300D01*
X61423Y-28252D01*
X61471Y-28204D01*
X61495Y-28157D01*
X61852Y-28657D02*
X61352Y-28657D01*
X61852Y-28942D02*
X61566Y-28728D01*
X61352Y-28942D02*
X61638Y-28657D01*
X72672Y-40581D02*
X72434Y-40415D01*
X72672Y-40295D02*
X72172Y-40295D01*
X72172Y-40486D01*
X72196Y-40534D01*
X72220Y-40557D01*
X72267Y-40581D01*
X72339Y-40581D01*
X72386Y-40557D01*
X72410Y-40534D01*
X72434Y-40486D01*
X72434Y-40295D01*
X72339Y-41010D02*
X72672Y-41010D01*
X72148Y-40891D02*
X72505Y-40772D01*
X72505Y-41081D01*
X72252Y-28592D02*
X72252Y-28307D01*
X72252Y-28450D02*
X71752Y-28450D01*
X71823Y-28402D01*
X71871Y-28354D01*
X71895Y-28307D01*
X72252Y-28807D02*
X71752Y-28807D01*
X72252Y-29092D02*
X71966Y-28878D01*
X71752Y-29092D02*
X72038Y-28807D01*
X94894Y-37786D02*
X94918Y-37762D01*
X94942Y-37691D01*
X94942Y-37643D01*
X94918Y-37572D01*
X94871Y-37524D01*
X94823Y-37500D01*
X94728Y-37477D01*
X94656Y-37477D01*
X94561Y-37500D01*
X94513Y-37524D01*
X94466Y-37572D01*
X94442Y-37643D01*
X94442Y-37691D01*
X94466Y-37762D01*
X94490Y-37786D01*
X94442Y-37953D02*
X94442Y-38262D01*
X94632Y-38096D01*
X94632Y-38167D01*
X94656Y-38215D01*
X94680Y-38239D01*
X94728Y-38262D01*
X94847Y-38262D01*
X94894Y-38239D01*
X94918Y-38215D01*
X94942Y-38167D01*
X94942Y-38024D01*
X94918Y-37977D01*
X94894Y-37953D01*
X102652Y-38038D02*
X102652Y-38085D01*
X102676Y-38133D01*
X102700Y-38157D01*
X102747Y-38180D01*
X102842Y-38204D01*
X102961Y-38204D01*
X103057Y-38180D01*
X103104Y-38157D01*
X103128Y-38133D01*
X103152Y-38085D01*
X103152Y-38038D01*
X103128Y-37990D01*
X103104Y-37966D01*
X103057Y-37942D01*
X102961Y-37919D01*
X102842Y-37919D01*
X102747Y-37942D01*
X102700Y-37966D01*
X102676Y-37990D01*
X102652Y-38038D01*
X103104Y-38419D02*
X103128Y-38442D01*
X103152Y-38419D01*
X103128Y-38395D01*
X103104Y-38419D01*
X103152Y-38419D01*
X103152Y-38919D02*
X103152Y-38633D01*
X103152Y-38776D02*
X102652Y-38776D01*
X102723Y-38728D01*
X102771Y-38680D01*
X102795Y-38633D01*
X102819Y-39728D02*
X103152Y-39728D01*
X102819Y-39514D02*
X103080Y-39514D01*
X103128Y-39538D01*
X103152Y-39585D01*
X103152Y-39657D01*
X103128Y-39704D01*
X103104Y-39728D01*
X102890Y-40133D02*
X102890Y-39966D01*
X103152Y-39966D02*
X102652Y-39966D01*
X102652Y-40204D01*
X83044Y-37746D02*
X83068Y-37722D01*
X83092Y-37651D01*
X83092Y-37603D01*
X83068Y-37532D01*
X83021Y-37484D01*
X82973Y-37460D01*
X82878Y-37437D01*
X82806Y-37437D01*
X82711Y-37460D01*
X82663Y-37484D01*
X82616Y-37532D01*
X82592Y-37603D01*
X82592Y-37651D01*
X82616Y-37722D01*
X82640Y-37746D01*
X82592Y-38175D02*
X82592Y-38080D01*
X82616Y-38032D01*
X82640Y-38008D01*
X82711Y-37960D01*
X82806Y-37937D01*
X82997Y-37937D01*
X83044Y-37960D01*
X83068Y-37984D01*
X83092Y-38032D01*
X83092Y-38127D01*
X83068Y-38175D01*
X83044Y-38199D01*
X82997Y-38222D01*
X82878Y-38222D01*
X82830Y-38199D01*
X82806Y-38175D01*
X82782Y-38127D01*
X82782Y-38032D01*
X82806Y-37984D01*
X82830Y-37960D01*
X82878Y-37937D01*
X56752Y-25888D02*
X56752Y-25935D01*
X56776Y-25983D01*
X56800Y-26007D01*
X56847Y-26030D01*
X56942Y-26054D01*
X57061Y-26054D01*
X57157Y-26030D01*
X57204Y-26007D01*
X57228Y-25983D01*
X57252Y-25935D01*
X57252Y-25888D01*
X57228Y-25840D01*
X57204Y-25816D01*
X57157Y-25792D01*
X57061Y-25769D01*
X56942Y-25769D01*
X56847Y-25792D01*
X56800Y-25816D01*
X56776Y-25840D01*
X56752Y-25888D01*
X57204Y-26269D02*
X57228Y-26292D01*
X57252Y-26269D01*
X57228Y-26245D01*
X57204Y-26269D01*
X57252Y-26269D01*
X57252Y-26769D02*
X57252Y-26483D01*
X57252Y-26626D02*
X56752Y-26626D01*
X56823Y-26578D01*
X56871Y-26530D01*
X56895Y-26483D01*
X56919Y-27578D02*
X57252Y-27578D01*
X56919Y-27364D02*
X57180Y-27364D01*
X57228Y-27388D01*
X57252Y-27435D01*
X57252Y-27507D01*
X57228Y-27554D01*
X57204Y-27578D01*
X56990Y-27983D02*
X56990Y-27816D01*
X57252Y-27816D02*
X56752Y-27816D01*
X56752Y-28054D01*
X60624Y-37731D02*
X60648Y-37707D01*
X60672Y-37636D01*
X60672Y-37588D01*
X60648Y-37517D01*
X60600Y-37469D01*
X60553Y-37445D01*
X60457Y-37422D01*
X60386Y-37422D01*
X60291Y-37445D01*
X60243Y-37469D01*
X60196Y-37517D01*
X60172Y-37588D01*
X60172Y-37636D01*
X60196Y-37707D01*
X60219Y-37731D01*
X60338Y-38160D02*
X60672Y-38160D01*
X60148Y-38041D02*
X60505Y-37922D01*
X60505Y-38231D01*
X29367Y-34913D02*
X29367Y-34960D01*
X29391Y-35008D01*
X29414Y-35032D01*
X29462Y-35055D01*
X29557Y-35079D01*
X29676Y-35079D01*
X29771Y-35055D01*
X29819Y-35032D01*
X29843Y-35008D01*
X29867Y-34960D01*
X29867Y-34913D01*
X29843Y-34865D01*
X29819Y-34841D01*
X29771Y-34817D01*
X29676Y-34794D01*
X29557Y-34794D01*
X29462Y-34817D01*
X29414Y-34841D01*
X29391Y-34865D01*
X29367Y-34913D01*
X29819Y-35294D02*
X29843Y-35317D01*
X29867Y-35294D01*
X29843Y-35270D01*
X29819Y-35294D01*
X29867Y-35294D01*
X29867Y-35794D02*
X29867Y-35508D01*
X29867Y-35651D02*
X29367Y-35651D01*
X29438Y-35603D01*
X29486Y-35555D01*
X29510Y-35508D01*
X29533Y-36603D02*
X29867Y-36603D01*
X29533Y-36389D02*
X29795Y-36389D01*
X29843Y-36413D01*
X29867Y-36460D01*
X29867Y-36532D01*
X29843Y-36579D01*
X29819Y-36603D01*
X29605Y-37008D02*
X29605Y-36841D01*
X29867Y-36841D02*
X29367Y-36841D01*
X29367Y-37079D01*
X71664Y-37358D02*
X71688Y-37334D01*
X71712Y-37263D01*
X71712Y-37215D01*
X71688Y-37144D01*
X71640Y-37096D01*
X71593Y-37072D01*
X71498Y-37049D01*
X71426Y-37049D01*
X71331Y-37072D01*
X71283Y-37096D01*
X71236Y-37144D01*
X71212Y-37215D01*
X71212Y-37263D01*
X71236Y-37334D01*
X71260Y-37358D01*
X71712Y-37834D02*
X71712Y-37549D01*
X71712Y-37691D02*
X71212Y-37691D01*
X71283Y-37644D01*
X71331Y-37596D01*
X71355Y-37549D01*
X71379Y-38263D02*
X71712Y-38263D01*
X71188Y-38144D02*
X71545Y-38025D01*
X71545Y-38334D01*
X71452Y-22998D02*
X71452Y-23045D01*
X71476Y-23093D01*
X71500Y-23117D01*
X71547Y-23140D01*
X71642Y-23164D01*
X71761Y-23164D01*
X71857Y-23140D01*
X71904Y-23117D01*
X71928Y-23093D01*
X71952Y-23045D01*
X71952Y-22998D01*
X71928Y-22950D01*
X71904Y-22926D01*
X71857Y-22902D01*
X71761Y-22879D01*
X71642Y-22879D01*
X71547Y-22902D01*
X71500Y-22926D01*
X71476Y-22950D01*
X71452Y-22998D01*
X71904Y-23379D02*
X71928Y-23402D01*
X71952Y-23379D01*
X71928Y-23355D01*
X71904Y-23379D01*
X71952Y-23379D01*
X71952Y-23879D02*
X71952Y-23593D01*
X71952Y-23736D02*
X71452Y-23736D01*
X71523Y-23688D01*
X71571Y-23640D01*
X71595Y-23593D01*
X71619Y-24688D02*
X71952Y-24688D01*
X71619Y-24474D02*
X71880Y-24474D01*
X71928Y-24498D01*
X71952Y-24545D01*
X71952Y-24617D01*
X71928Y-24664D01*
X71904Y-24688D01*
X71690Y-25093D02*
X71690Y-24926D01*
X71952Y-24926D02*
X71452Y-24926D01*
X71452Y-25164D01*
X80034Y-47553D02*
X80058Y-47529D01*
X80082Y-47458D01*
X80082Y-47410D01*
X80058Y-47339D01*
X80011Y-47291D01*
X79963Y-47267D01*
X79868Y-47244D01*
X79796Y-47244D01*
X79701Y-47267D01*
X79653Y-47291D01*
X79606Y-47339D01*
X79582Y-47410D01*
X79582Y-47458D01*
X79606Y-47529D01*
X79630Y-47553D01*
X79630Y-47744D02*
X79606Y-47767D01*
X79582Y-47815D01*
X79582Y-47934D01*
X79606Y-47982D01*
X79630Y-48005D01*
X79677Y-48029D01*
X79725Y-48029D01*
X79796Y-48005D01*
X80082Y-47720D01*
X80082Y-48029D01*
X79582Y-48196D02*
X79582Y-48529D01*
X80082Y-48315D01*
X58272Y-45098D02*
X58272Y-45145D01*
X58296Y-45193D01*
X58320Y-45217D01*
X58367Y-45240D01*
X58462Y-45264D01*
X58581Y-45264D01*
X58677Y-45240D01*
X58724Y-45217D01*
X58748Y-45193D01*
X58772Y-45145D01*
X58772Y-45098D01*
X58748Y-45050D01*
X58724Y-45026D01*
X58677Y-45002D01*
X58581Y-44979D01*
X58462Y-44979D01*
X58367Y-45002D01*
X58320Y-45026D01*
X58296Y-45050D01*
X58272Y-45098D01*
X58724Y-45479D02*
X58748Y-45502D01*
X58772Y-45479D01*
X58748Y-45455D01*
X58724Y-45479D01*
X58772Y-45479D01*
X58772Y-45979D02*
X58772Y-45693D01*
X58772Y-45836D02*
X58272Y-45836D01*
X58343Y-45788D01*
X58391Y-45740D01*
X58415Y-45693D01*
X58439Y-46788D02*
X58772Y-46788D01*
X58439Y-46574D02*
X58701Y-46574D01*
X58748Y-46598D01*
X58772Y-46645D01*
X58772Y-46717D01*
X58748Y-46764D01*
X58724Y-46788D01*
X58510Y-47193D02*
X58510Y-47026D01*
X58772Y-47026D02*
X58272Y-47026D01*
X58272Y-47264D01*
X92329Y-42688D02*
X92353Y-42664D01*
X92377Y-42593D01*
X92377Y-42545D01*
X92353Y-42474D01*
X92306Y-42426D01*
X92258Y-42402D01*
X92163Y-42378D01*
X92091Y-42378D01*
X91996Y-42402D01*
X91948Y-42426D01*
X91901Y-42474D01*
X91877Y-42545D01*
X91877Y-42593D01*
X91901Y-42664D01*
X91925Y-42688D01*
X91877Y-42855D02*
X91877Y-43164D01*
X92067Y-42998D01*
X92067Y-43069D01*
X92091Y-43117D01*
X92115Y-43140D01*
X92163Y-43164D01*
X92282Y-43164D01*
X92329Y-43140D01*
X92353Y-43117D01*
X92377Y-43069D01*
X92377Y-42926D01*
X92353Y-42878D01*
X92329Y-42855D01*
X91877Y-43474D02*
X91877Y-43521D01*
X91901Y-43569D01*
X91925Y-43593D01*
X91972Y-43617D01*
X92067Y-43640D01*
X92186Y-43640D01*
X92282Y-43617D01*
X92329Y-43593D01*
X92353Y-43569D01*
X92377Y-43521D01*
X92377Y-43474D01*
X92353Y-43426D01*
X92329Y-43402D01*
X92282Y-43378D01*
X92186Y-43355D01*
X92067Y-43355D01*
X91972Y-43378D01*
X91925Y-43402D01*
X91901Y-43426D01*
X91877Y-43474D01*
X89822Y-20718D02*
X89822Y-20765D01*
X89846Y-20813D01*
X89870Y-20837D01*
X89917Y-20860D01*
X90012Y-20884D01*
X90131Y-20884D01*
X90227Y-20860D01*
X90274Y-20837D01*
X90298Y-20813D01*
X90322Y-20765D01*
X90322Y-20718D01*
X90298Y-20670D01*
X90274Y-20646D01*
X90227Y-20622D01*
X90131Y-20598D01*
X90012Y-20598D01*
X89917Y-20622D01*
X89870Y-20646D01*
X89846Y-20670D01*
X89822Y-20718D01*
X90274Y-21098D02*
X90298Y-21122D01*
X90322Y-21098D01*
X90298Y-21075D01*
X90274Y-21098D01*
X90322Y-21098D01*
X90322Y-21598D02*
X90322Y-21313D01*
X90322Y-21456D02*
X89822Y-21456D01*
X89893Y-21408D01*
X89941Y-21360D01*
X89965Y-21313D01*
X89989Y-22408D02*
X90322Y-22408D01*
X89989Y-22194D02*
X90251Y-22194D01*
X90298Y-22218D01*
X90322Y-22265D01*
X90322Y-22337D01*
X90298Y-22384D01*
X90274Y-22408D01*
X90060Y-22813D02*
X90060Y-22646D01*
X90322Y-22646D02*
X89822Y-22646D01*
X89822Y-22884D01*
X99637Y-37511D02*
X99399Y-37345D01*
X99637Y-37225D02*
X99137Y-37225D01*
X99137Y-37416D01*
X99161Y-37464D01*
X99185Y-37487D01*
X99232Y-37511D01*
X99304Y-37511D01*
X99351Y-37487D01*
X99375Y-37464D01*
X99399Y-37416D01*
X99399Y-37225D01*
X99137Y-37964D02*
X99137Y-37725D01*
X99375Y-37702D01*
X99351Y-37725D01*
X99328Y-37773D01*
X99328Y-37892D01*
X99351Y-37940D01*
X99375Y-37964D01*
X99423Y-37987D01*
X99542Y-37987D01*
X99589Y-37964D01*
X99613Y-37940D01*
X99637Y-37892D01*
X99637Y-37773D01*
X99613Y-37725D01*
X99589Y-37702D01*
X101402Y-36207D02*
X101402Y-36516D01*
X101592Y-36350D01*
X101592Y-36421D01*
X101616Y-36469D01*
X101640Y-36492D01*
X101688Y-36516D01*
X101807Y-36516D01*
X101854Y-36492D01*
X101878Y-36469D01*
X101902Y-36421D01*
X101902Y-36278D01*
X101878Y-36230D01*
X101854Y-36207D01*
X101402Y-36683D02*
X101402Y-36992D01*
X101592Y-36826D01*
X101592Y-36897D01*
X101616Y-36945D01*
X101640Y-36969D01*
X101688Y-36992D01*
X101807Y-36992D01*
X101854Y-36969D01*
X101878Y-36945D01*
X101902Y-36897D01*
X101902Y-36754D01*
X101878Y-36707D01*
X101854Y-36683D01*
X101402Y-37302D02*
X101402Y-37350D01*
X101426Y-37397D01*
X101450Y-37421D01*
X101497Y-37445D01*
X101592Y-37469D01*
X101711Y-37469D01*
X101807Y-37445D01*
X101854Y-37421D01*
X101878Y-37397D01*
X101902Y-37350D01*
X101902Y-37302D01*
X101878Y-37254D01*
X101854Y-37230D01*
X101807Y-37207D01*
X101711Y-37183D01*
X101592Y-37183D01*
X101497Y-37207D01*
X101450Y-37230D01*
X101426Y-37254D01*
X101402Y-37302D01*
X97097Y-37556D02*
X96859Y-37390D01*
X97097Y-37270D02*
X96597Y-37270D01*
X96597Y-37461D01*
X96621Y-37509D01*
X96645Y-37532D01*
X96692Y-37556D01*
X96764Y-37556D01*
X96811Y-37532D01*
X96835Y-37509D01*
X96859Y-37461D01*
X96859Y-37270D01*
X96597Y-37985D02*
X96597Y-37890D01*
X96621Y-37842D01*
X96645Y-37818D01*
X96716Y-37770D01*
X96811Y-37747D01*
X97002Y-37747D01*
X97049Y-37770D01*
X97073Y-37794D01*
X97097Y-37842D01*
X97097Y-37937D01*
X97073Y-37985D01*
X97049Y-38009D01*
X97002Y-38032D01*
X96883Y-38032D01*
X96835Y-38009D01*
X96811Y-37985D01*
X96788Y-37937D01*
X96788Y-37842D01*
X96811Y-37794D01*
X96835Y-37770D01*
X96883Y-37747D01*
X101702Y-37307D02*
X101702Y-37616D01*
X101892Y-37450D01*
X101892Y-37521D01*
X101916Y-37569D01*
X101940Y-37592D01*
X101988Y-37616D01*
X102107Y-37616D01*
X102154Y-37592D01*
X102178Y-37569D01*
X102202Y-37521D01*
X102202Y-37378D01*
X102178Y-37330D01*
X102154Y-37307D01*
X101702Y-37783D02*
X101702Y-38092D01*
X101892Y-37926D01*
X101892Y-37997D01*
X101916Y-38045D01*
X101940Y-38069D01*
X101988Y-38092D01*
X102107Y-38092D01*
X102154Y-38069D01*
X102178Y-38045D01*
X102202Y-37997D01*
X102202Y-37854D01*
X102178Y-37807D01*
X102154Y-37783D01*
X101702Y-38402D02*
X101702Y-38450D01*
X101726Y-38497D01*
X101750Y-38521D01*
X101797Y-38545D01*
X101892Y-38569D01*
X102011Y-38569D01*
X102107Y-38545D01*
X102154Y-38521D01*
X102178Y-38497D01*
X102202Y-38450D01*
X102202Y-38402D01*
X102178Y-38354D01*
X102154Y-38330D01*
X102107Y-38307D01*
X102011Y-38283D01*
X101892Y-38283D01*
X101797Y-38307D01*
X101750Y-38330D01*
X101726Y-38354D01*
X101702Y-38402D01*
X95117Y-39486D02*
X94879Y-39319D01*
X95117Y-39200D02*
X94617Y-39200D01*
X94617Y-39391D01*
X94641Y-39438D01*
X94665Y-39462D01*
X94712Y-39486D01*
X94784Y-39486D01*
X94831Y-39462D01*
X94855Y-39438D01*
X94879Y-39391D01*
X94879Y-39200D01*
X94617Y-39653D02*
X94617Y-39986D01*
X95117Y-39772D01*
X86417Y-38957D02*
X86417Y-38672D01*
X86417Y-38814D02*
X85917Y-38814D01*
X85988Y-38767D01*
X86036Y-38719D01*
X86060Y-38672D01*
X86417Y-39172D02*
X85917Y-39172D01*
X86417Y-39457D02*
X86131Y-39243D01*
X85917Y-39457D02*
X86203Y-39172D01*
X39202Y-40580D02*
X39607Y-40580D01*
X39654Y-40557D01*
X39678Y-40533D01*
X39702Y-40485D01*
X39702Y-40390D01*
X39678Y-40342D01*
X39654Y-40319D01*
X39607Y-40295D01*
X39202Y-40295D01*
X39202Y-40104D02*
X39202Y-39795D01*
X39392Y-39961D01*
X39392Y-39890D01*
X39416Y-39842D01*
X39440Y-39819D01*
X39488Y-39795D01*
X39607Y-39795D01*
X39654Y-39819D01*
X39678Y-39842D01*
X39702Y-39890D01*
X39702Y-40033D01*
X39678Y-40080D01*
X39654Y-40104D01*
X37478Y-45397D02*
X37502Y-45326D01*
X37502Y-45207D01*
X37478Y-45159D01*
X37454Y-45135D01*
X37407Y-45111D01*
X37359Y-45111D01*
X37311Y-45135D01*
X37288Y-45159D01*
X37264Y-45207D01*
X37240Y-45302D01*
X37216Y-45350D01*
X37192Y-45373D01*
X37145Y-45397D01*
X37097Y-45397D01*
X37050Y-45373D01*
X37026Y-45350D01*
X37002Y-45302D01*
X37002Y-45183D01*
X37026Y-45111D01*
X37502Y-44611D02*
X37264Y-44778D01*
X37502Y-44897D02*
X37002Y-44897D01*
X37002Y-44707D01*
X37026Y-44659D01*
X37050Y-44635D01*
X37097Y-44611D01*
X37169Y-44611D01*
X37216Y-44635D01*
X37240Y-44659D01*
X37264Y-44707D01*
X37264Y-44897D01*
X37359Y-44421D02*
X37359Y-44183D01*
X37502Y-44469D02*
X37002Y-44302D01*
X37502Y-44135D01*
X37502Y-43969D02*
X37002Y-43969D01*
X37359Y-43802D01*
X37002Y-43635D01*
X37502Y-43635D01*
X37550Y-43516D02*
X37550Y-43135D01*
X37502Y-42754D02*
X37502Y-43040D01*
X37502Y-42897D02*
X37002Y-42897D01*
X37073Y-42945D01*
X37121Y-42992D01*
X37145Y-43040D01*
X37050Y-42564D02*
X37026Y-42540D01*
X37002Y-42492D01*
X37002Y-42373D01*
X37026Y-42326D01*
X37050Y-42302D01*
X37097Y-42278D01*
X37145Y-42278D01*
X37216Y-42302D01*
X37502Y-42588D01*
X37502Y-42278D01*
X37216Y-41992D02*
X37192Y-42040D01*
X37169Y-42064D01*
X37121Y-42088D01*
X37097Y-42088D01*
X37050Y-42064D01*
X37026Y-42040D01*
X37002Y-41992D01*
X37002Y-41897D01*
X37026Y-41849D01*
X37050Y-41826D01*
X37097Y-41802D01*
X37121Y-41802D01*
X37169Y-41826D01*
X37192Y-41849D01*
X37216Y-41897D01*
X37216Y-41992D01*
X37240Y-42040D01*
X37264Y-42064D01*
X37311Y-42088D01*
X37407Y-42088D01*
X37454Y-42064D01*
X37478Y-42040D01*
X37502Y-41992D01*
X37502Y-41897D01*
X37478Y-41849D01*
X37454Y-41826D01*
X37407Y-41802D01*
X37311Y-41802D01*
X37264Y-41826D01*
X37240Y-41849D01*
X37216Y-41897D01*
X37502Y-41588D02*
X37002Y-41588D01*
X37502Y-41302D02*
X37216Y-41516D01*
X37002Y-41302D02*
X37288Y-41588D01*
X37240Y-40921D02*
X37264Y-40849D01*
X37288Y-40826D01*
X37335Y-40802D01*
X37407Y-40802D01*
X37454Y-40826D01*
X37478Y-40849D01*
X37502Y-40897D01*
X37502Y-41088D01*
X37002Y-41088D01*
X37002Y-40921D01*
X37026Y-40873D01*
X37050Y-40849D01*
X37097Y-40826D01*
X37145Y-40826D01*
X37192Y-40849D01*
X37216Y-40873D01*
X37240Y-40921D01*
X37240Y-41088D01*
G54D17*
X38292Y-40002D02*
X38007Y-40002D01*
X38150Y-40002D02*
X38150Y-39502D01*
X38102Y-39573D01*
X38054Y-39621D01*
X38007Y-39645D01*
G54D11*
X37702Y-40130D02*
X38107Y-40130D01*
X38154Y-40107D01*
X38178Y-40083D01*
X38202Y-40035D01*
X38202Y-39940D01*
X38178Y-39892D01*
X38154Y-39869D01*
X38107Y-39845D01*
X37702Y-39845D01*
X38202Y-39345D02*
X38202Y-39630D01*
X38202Y-39488D02*
X37702Y-39488D01*
X37773Y-39535D01*
X37821Y-39583D01*
X37845Y-39630D01*
X36628Y-43247D02*
X36652Y-43176D01*
X36652Y-43057D01*
X36628Y-43009D01*
X36604Y-42985D01*
X36557Y-42961D01*
X36509Y-42961D01*
X36461Y-42985D01*
X36438Y-43009D01*
X36414Y-43057D01*
X36390Y-43152D01*
X36366Y-43200D01*
X36342Y-43223D01*
X36295Y-43247D01*
X36247Y-43247D01*
X36200Y-43223D01*
X36176Y-43200D01*
X36152Y-43152D01*
X36152Y-43033D01*
X36176Y-42961D01*
X36652Y-42461D02*
X36414Y-42628D01*
X36652Y-42747D02*
X36152Y-42747D01*
X36152Y-42557D01*
X36176Y-42509D01*
X36200Y-42485D01*
X36247Y-42461D01*
X36319Y-42461D01*
X36366Y-42485D01*
X36390Y-42509D01*
X36414Y-42557D01*
X36414Y-42747D01*
X36509Y-42271D02*
X36509Y-42033D01*
X36652Y-42319D02*
X36152Y-42152D01*
X36652Y-41985D01*
X36652Y-41819D02*
X36152Y-41819D01*
X36509Y-41652D01*
X36152Y-41485D01*
X36652Y-41485D01*
X36700Y-41366D02*
X36700Y-40985D01*
X36652Y-40604D02*
X36652Y-40890D01*
X36652Y-40747D02*
X36152Y-40747D01*
X36223Y-40795D01*
X36271Y-40842D01*
X36295Y-40890D01*
X36200Y-40414D02*
X36176Y-40390D01*
X36152Y-40342D01*
X36152Y-40223D01*
X36176Y-40176D01*
X36200Y-40152D01*
X36247Y-40128D01*
X36295Y-40128D01*
X36366Y-40152D01*
X36652Y-40438D01*
X36652Y-40128D01*
X36366Y-39842D02*
X36342Y-39890D01*
X36319Y-39914D01*
X36271Y-39938D01*
X36247Y-39938D01*
X36200Y-39914D01*
X36176Y-39890D01*
X36152Y-39842D01*
X36152Y-39747D01*
X36176Y-39699D01*
X36200Y-39676D01*
X36247Y-39652D01*
X36271Y-39652D01*
X36319Y-39676D01*
X36342Y-39699D01*
X36366Y-39747D01*
X36366Y-39842D01*
X36390Y-39890D01*
X36414Y-39914D01*
X36461Y-39938D01*
X36557Y-39938D01*
X36604Y-39914D01*
X36628Y-39890D01*
X36652Y-39842D01*
X36652Y-39747D01*
X36628Y-39699D01*
X36604Y-39676D01*
X36557Y-39652D01*
X36461Y-39652D01*
X36414Y-39676D01*
X36390Y-39699D01*
X36366Y-39747D01*
X36652Y-39438D02*
X36152Y-39438D01*
X36652Y-39152D02*
X36366Y-39366D01*
X36152Y-39152D02*
X36438Y-39438D01*
X36390Y-38771D02*
X36414Y-38699D01*
X36438Y-38676D01*
X36485Y-38652D01*
X36557Y-38652D01*
X36604Y-38676D01*
X36628Y-38699D01*
X36652Y-38747D01*
X36652Y-38938D01*
X36152Y-38938D01*
X36152Y-38771D01*
X36176Y-38723D01*
X36200Y-38699D01*
X36247Y-38676D01*
X36295Y-38676D01*
X36342Y-38699D01*
X36366Y-38723D01*
X36390Y-38771D01*
X36390Y-38938D01*
G54D17*
X40092Y-38502D02*
X39807Y-38502D01*
X39950Y-38502D02*
X39950Y-38002D01*
X39902Y-38073D01*
X39854Y-38121D01*
X39807Y-38145D01*
G54D11*
X38252Y-39880D02*
X38657Y-39880D01*
X38704Y-39857D01*
X38728Y-39833D01*
X38752Y-39785D01*
X38752Y-39690D01*
X38728Y-39642D01*
X38704Y-39619D01*
X38657Y-39595D01*
X38252Y-39595D01*
X38252Y-39404D02*
X38252Y-39071D01*
X38752Y-39285D01*
X39252Y-44333D02*
X39252Y-44571D01*
X38752Y-44571D01*
X39252Y-44166D02*
X38752Y-44166D01*
X39109Y-44000D01*
X38752Y-43833D01*
X39252Y-43833D01*
X39252Y-43333D02*
X39252Y-43619D01*
X39252Y-43476D02*
X38752Y-43476D01*
X38823Y-43523D01*
X38871Y-43571D01*
X38895Y-43619D01*
X38752Y-43023D02*
X38752Y-42976D01*
X38776Y-42928D01*
X38800Y-42904D01*
X38847Y-42880D01*
X38942Y-42857D01*
X39061Y-42857D01*
X39157Y-42880D01*
X39204Y-42904D01*
X39228Y-42928D01*
X39252Y-42976D01*
X39252Y-43023D01*
X39228Y-43071D01*
X39204Y-43095D01*
X39157Y-43119D01*
X39061Y-43142D01*
X38942Y-43142D01*
X38847Y-43119D01*
X38800Y-43095D01*
X38776Y-43071D01*
X38752Y-43023D01*
X38966Y-42571D02*
X38942Y-42619D01*
X38919Y-42642D01*
X38871Y-42666D01*
X38847Y-42666D01*
X38800Y-42642D01*
X38776Y-42619D01*
X38752Y-42571D01*
X38752Y-42476D01*
X38776Y-42428D01*
X38800Y-42404D01*
X38847Y-42380D01*
X38871Y-42380D01*
X38919Y-42404D01*
X38942Y-42428D01*
X38966Y-42476D01*
X38966Y-42571D01*
X38990Y-42619D01*
X39014Y-42642D01*
X39061Y-42666D01*
X39157Y-42666D01*
X39204Y-42642D01*
X39228Y-42619D01*
X39252Y-42571D01*
X39252Y-42476D01*
X39228Y-42428D01*
X39204Y-42404D01*
X39157Y-42380D01*
X39061Y-42380D01*
X39014Y-42404D01*
X38990Y-42428D01*
X38966Y-42476D01*
X38752Y-41952D02*
X38752Y-42047D01*
X38776Y-42095D01*
X38800Y-42119D01*
X38871Y-42166D01*
X38966Y-42190D01*
X39157Y-42190D01*
X39204Y-42166D01*
X39228Y-42142D01*
X39252Y-42095D01*
X39252Y-42000D01*
X39228Y-41952D01*
X39204Y-41928D01*
X39157Y-41904D01*
X39038Y-41904D01*
X38990Y-41928D01*
X38966Y-41952D01*
X38942Y-42000D01*
X38942Y-42095D01*
X38966Y-42142D01*
X38990Y-42166D01*
X39038Y-42190D01*
X39204Y-41404D02*
X39228Y-41428D01*
X39252Y-41500D01*
X39252Y-41547D01*
X39228Y-41619D01*
X39180Y-41666D01*
X39133Y-41690D01*
X39038Y-41714D01*
X38966Y-41714D01*
X38871Y-41690D01*
X38823Y-41666D01*
X38776Y-41619D01*
X38752Y-41547D01*
X38752Y-41500D01*
X38776Y-41428D01*
X38800Y-41404D01*
X39228Y-41214D02*
X39252Y-41142D01*
X39252Y-41023D01*
X39228Y-40976D01*
X39204Y-40952D01*
X39157Y-40928D01*
X39109Y-40928D01*
X39061Y-40952D01*
X39038Y-40976D01*
X39014Y-41023D01*
X38990Y-41119D01*
X38966Y-41166D01*
X38942Y-41190D01*
X38895Y-41214D01*
X38847Y-41214D01*
X38800Y-41190D01*
X38776Y-41166D01*
X38752Y-41119D01*
X38752Y-41000D01*
X38776Y-40928D01*
X39300Y-40833D02*
X39300Y-40452D01*
X38752Y-40404D02*
X38752Y-40119D01*
X39252Y-40261D02*
X38752Y-40261D01*
X38752Y-39857D02*
X38752Y-39761D01*
X38776Y-39714D01*
X38823Y-39666D01*
X38919Y-39642D01*
X39085Y-39642D01*
X39180Y-39666D01*
X39228Y-39714D01*
X39252Y-39761D01*
X39252Y-39857D01*
X39228Y-39904D01*
X39180Y-39952D01*
X39085Y-39976D01*
X38919Y-39976D01*
X38823Y-39952D01*
X38776Y-39904D01*
X38752Y-39857D01*
X38800Y-39452D02*
X38776Y-39428D01*
X38752Y-39380D01*
X38752Y-39261D01*
X38776Y-39214D01*
X38800Y-39190D01*
X38847Y-39166D01*
X38895Y-39166D01*
X38966Y-39190D01*
X39252Y-39476D01*
X39252Y-39166D01*
X38752Y-38714D02*
X38752Y-38952D01*
X38990Y-38976D01*
X38966Y-38952D01*
X38942Y-38904D01*
X38942Y-38785D01*
X38966Y-38738D01*
X38990Y-38714D01*
X39038Y-38690D01*
X39157Y-38690D01*
X39204Y-38714D01*
X39228Y-38738D01*
X39252Y-38785D01*
X39252Y-38904D01*
X39228Y-38952D01*
X39204Y-38976D01*
X38800Y-38499D02*
X38776Y-38476D01*
X38752Y-38428D01*
X38752Y-38309D01*
X38776Y-38261D01*
X38800Y-38238D01*
X38847Y-38214D01*
X38895Y-38214D01*
X38966Y-38238D01*
X39252Y-38523D01*
X39252Y-38214D01*
X39300Y-38119D02*
X39300Y-37738D01*
X39252Y-37619D02*
X38752Y-37619D01*
X38752Y-37499D01*
X38776Y-37428D01*
X38823Y-37380D01*
X38871Y-37357D01*
X38966Y-37333D01*
X39038Y-37333D01*
X39133Y-37357D01*
X39180Y-37380D01*
X39228Y-37428D01*
X39252Y-37499D01*
X39252Y-37619D01*
X39252Y-37119D02*
X38752Y-37119D01*
X38752Y-36928D01*
X38776Y-36880D01*
X38800Y-36857D01*
X38847Y-36833D01*
X38919Y-36833D01*
X38966Y-36857D01*
X38990Y-36880D01*
X39014Y-36928D01*
X39014Y-37119D01*
X39109Y-36642D02*
X39109Y-36404D01*
X39252Y-36690D02*
X38752Y-36523D01*
X39252Y-36357D01*
X39252Y-36190D02*
X38752Y-36190D01*
X39252Y-35904D02*
X38966Y-36119D01*
X38752Y-35904D02*
X39038Y-36190D01*
G54D18*
X62550Y-55700D02*
X62435Y-55614D01*
X62321Y-55700D01*
X62207Y-55700D02*
X62092Y-55614D01*
X61978Y-55700D01*
X61778Y-56242D02*
X61778Y-55642D01*
X61635Y-55642D01*
X61550Y-55671D01*
X61492Y-55728D01*
X61464Y-55785D01*
X61435Y-55900D01*
X61435Y-55985D01*
X61464Y-56100D01*
X61492Y-56157D01*
X61550Y-56214D01*
X61635Y-56242D01*
X61778Y-56242D01*
X61178Y-56242D02*
X61178Y-55642D01*
X61035Y-55642D01*
X60950Y-55671D01*
X60892Y-55728D01*
X60864Y-55785D01*
X60835Y-55900D01*
X60835Y-55985D01*
X60864Y-56100D01*
X60892Y-56157D01*
X60950Y-56214D01*
X61035Y-56242D01*
X61178Y-56242D01*
X60235Y-56242D02*
X60435Y-55957D01*
X60578Y-56242D02*
X60578Y-55642D01*
X60350Y-55642D01*
X60292Y-55671D01*
X60264Y-55700D01*
X60235Y-55757D01*
X60235Y-55842D01*
X60264Y-55900D01*
X60292Y-55928D01*
X60350Y-55957D01*
X60578Y-55957D01*
X60035Y-55642D02*
X59664Y-55642D01*
X59864Y-55871D01*
X59778Y-55871D01*
X59721Y-55900D01*
X59692Y-55928D01*
X59664Y-55985D01*
X59664Y-56128D01*
X59692Y-56185D01*
X59721Y-56214D01*
X59778Y-56242D01*
X59950Y-56242D01*
X60007Y-56214D01*
X60035Y-56185D01*
X59550Y-56300D02*
X59092Y-56300D01*
X58950Y-56242D02*
X58950Y-55642D01*
X58807Y-55642D01*
X58721Y-55671D01*
X58664Y-55728D01*
X58635Y-55785D01*
X58607Y-55900D01*
X58607Y-55985D01*
X58635Y-56100D01*
X58664Y-56157D01*
X58721Y-56214D01*
X58807Y-56242D01*
X58950Y-56242D01*
X58350Y-56242D02*
X58350Y-55642D01*
X58064Y-56242D02*
X58064Y-55642D01*
X57864Y-56071D01*
X57664Y-55642D01*
X57664Y-56242D01*
X57378Y-56242D02*
X57378Y-55642D01*
X57178Y-56071D01*
X56978Y-55642D01*
X56978Y-56242D01*
X56835Y-56300D02*
X56378Y-56300D01*
X56264Y-55700D02*
X56235Y-55671D01*
X56178Y-55642D01*
X56035Y-55642D01*
X55978Y-55671D01*
X55950Y-55700D01*
X55921Y-55757D01*
X55921Y-55814D01*
X55950Y-55900D01*
X56292Y-56242D01*
X55921Y-56242D01*
X55407Y-55842D02*
X55407Y-56242D01*
X55550Y-55614D02*
X55692Y-56042D01*
X55321Y-56042D01*
X54978Y-55642D02*
X54921Y-55642D01*
X54864Y-55671D01*
X54835Y-55700D01*
X54807Y-55757D01*
X54778Y-55871D01*
X54778Y-56014D01*
X54807Y-56128D01*
X54835Y-56185D01*
X54864Y-56214D01*
X54921Y-56242D01*
X54978Y-56242D01*
X55035Y-56214D01*
X55064Y-56185D01*
X55092Y-56128D01*
X55121Y-56014D01*
X55121Y-55871D01*
X55092Y-55757D01*
X55064Y-55700D01*
X55035Y-55671D01*
X54978Y-55642D01*
X54521Y-55842D02*
X54521Y-56442D01*
X54521Y-55871D02*
X54464Y-55842D01*
X54349Y-55842D01*
X54292Y-55871D01*
X54264Y-55900D01*
X54235Y-55957D01*
X54235Y-56128D01*
X54264Y-56185D01*
X54292Y-56214D01*
X54349Y-56242D01*
X54464Y-56242D01*
X54521Y-56214D01*
X53978Y-56242D02*
X53978Y-55842D01*
X53978Y-55642D02*
X54007Y-55671D01*
X53978Y-55700D01*
X53949Y-55671D01*
X53978Y-55642D01*
X53978Y-55700D01*
X53692Y-55842D02*
X53692Y-56242D01*
X53692Y-55900D02*
X53664Y-55871D01*
X53607Y-55842D01*
X53521Y-55842D01*
X53464Y-55871D01*
X53435Y-55928D01*
X53435Y-56242D01*
X55657Y-57092D02*
X55457Y-57692D01*
X55257Y-57092D01*
X55085Y-57521D02*
X54800Y-57521D01*
X55142Y-57692D02*
X54942Y-57092D01*
X54742Y-57692D01*
X54257Y-57692D02*
X54542Y-57692D01*
X54542Y-57092D01*
X53971Y-57092D02*
X53971Y-57235D01*
X54114Y-57178D02*
X53971Y-57235D01*
X53828Y-57178D01*
X54057Y-57350D02*
X53971Y-57235D01*
X53885Y-57350D01*
X53514Y-57092D02*
X53514Y-57235D01*
X53657Y-57178D02*
X53514Y-57235D01*
X53371Y-57178D01*
X53600Y-57350D02*
X53514Y-57235D01*
X53428Y-57350D01*
G54D19*
X95862Y-54523D02*
X95853Y-54508D01*
X95834Y-54493D01*
X95787Y-54493D01*
X95768Y-54508D01*
X95759Y-54523D01*
X95750Y-54553D01*
X95750Y-54583D01*
X95759Y-54628D01*
X95871Y-54808D01*
X95750Y-54808D01*
X95684Y-54493D02*
X95562Y-54493D01*
X95628Y-54613D01*
X95600Y-54613D01*
X95581Y-54628D01*
X95572Y-54643D01*
X95562Y-54673D01*
X95562Y-54748D01*
X95572Y-54778D01*
X95581Y-54793D01*
X95600Y-54808D01*
X95656Y-54808D01*
X95675Y-54793D01*
X95684Y-54778D01*
X95468Y-54808D02*
X95431Y-54808D01*
X95412Y-54793D01*
X95403Y-54778D01*
X95384Y-54733D01*
X95375Y-54673D01*
X95375Y-54553D01*
X95384Y-54523D01*
X95393Y-54508D01*
X95412Y-54493D01*
X95450Y-54493D01*
X95468Y-54508D01*
X95478Y-54523D01*
X95487Y-54553D01*
X95487Y-54628D01*
X95478Y-54658D01*
X95468Y-54673D01*
X95450Y-54688D01*
X95412Y-54688D01*
X95393Y-54673D01*
X95384Y-54658D01*
X95375Y-54628D01*
X96256Y-53736D02*
X96246Y-53721D01*
X96228Y-53706D01*
X96181Y-53706D01*
X96162Y-53721D01*
X96153Y-53736D01*
X96143Y-53766D01*
X96143Y-53796D01*
X96153Y-53841D01*
X96265Y-54021D01*
X96143Y-54021D01*
X95975Y-53811D02*
X95975Y-54021D01*
X96021Y-53691D02*
X96068Y-53916D01*
X95946Y-53916D01*
X95834Y-53706D02*
X95815Y-53706D01*
X95797Y-53721D01*
X95787Y-53736D01*
X95778Y-53766D01*
X95768Y-53826D01*
X95768Y-53901D01*
X95778Y-53961D01*
X95787Y-53991D01*
X95797Y-54006D01*
X95815Y-54021D01*
X95834Y-54021D01*
X95853Y-54006D01*
X95862Y-53991D01*
X95871Y-53961D01*
X95881Y-53901D01*
X95881Y-53826D01*
X95871Y-53766D01*
X95862Y-53736D01*
X95853Y-53721D01*
X95834Y-53706D01*
X95750Y-53233D02*
X95862Y-53233D01*
X95806Y-53233D02*
X95806Y-52918D01*
X95825Y-52963D01*
X95843Y-52993D01*
X95862Y-53008D01*
X95562Y-53233D02*
X95675Y-53233D01*
X95618Y-53233D02*
X95618Y-52918D01*
X95637Y-52963D01*
X95656Y-52993D01*
X95675Y-53008D01*
X95468Y-53233D02*
X95431Y-53233D01*
X95412Y-53218D01*
X95403Y-53203D01*
X95384Y-53158D01*
X95375Y-53098D01*
X95375Y-52978D01*
X95384Y-52948D01*
X95393Y-52933D01*
X95412Y-52918D01*
X95450Y-52918D01*
X95468Y-52933D01*
X95478Y-52948D01*
X95487Y-52978D01*
X95487Y-53053D01*
X95478Y-53083D01*
X95468Y-53098D01*
X95450Y-53113D01*
X95412Y-53113D01*
X95393Y-53098D01*
X95384Y-53083D01*
X95375Y-53053D01*
X96143Y-52446D02*
X96256Y-52446D01*
X96200Y-52446D02*
X96200Y-52131D01*
X96218Y-52176D01*
X96237Y-52206D01*
X96256Y-52221D01*
X96068Y-52161D02*
X96059Y-52146D01*
X96040Y-52131D01*
X95993Y-52131D01*
X95975Y-52146D01*
X95965Y-52161D01*
X95956Y-52191D01*
X95956Y-52221D01*
X95965Y-52266D01*
X96078Y-52446D01*
X95956Y-52446D01*
X95834Y-52131D02*
X95815Y-52131D01*
X95797Y-52146D01*
X95787Y-52161D01*
X95778Y-52191D01*
X95768Y-52251D01*
X95768Y-52326D01*
X95778Y-52386D01*
X95787Y-52416D01*
X95797Y-52431D01*
X95815Y-52446D01*
X95834Y-52446D01*
X95853Y-52431D01*
X95862Y-52416D01*
X95871Y-52386D01*
X95881Y-52326D01*
X95881Y-52251D01*
X95871Y-52191D01*
X95862Y-52161D01*
X95853Y-52146D01*
X95834Y-52131D01*
X46143Y-54808D02*
X46256Y-54808D01*
X46200Y-54808D02*
X46200Y-54493D01*
X46218Y-54538D01*
X46237Y-54568D01*
X46256Y-54583D01*
X46068Y-54523D02*
X46059Y-54508D01*
X46040Y-54493D01*
X45993Y-54493D01*
X45975Y-54508D01*
X45965Y-54523D01*
X45956Y-54553D01*
X45956Y-54583D01*
X45965Y-54628D01*
X46078Y-54808D01*
X45956Y-54808D01*
X45768Y-54808D02*
X45881Y-54808D01*
X45825Y-54808D02*
X45825Y-54493D01*
X45843Y-54538D01*
X45862Y-54568D01*
X45881Y-54583D01*
X46537Y-54021D02*
X46650Y-54021D01*
X46593Y-54021D02*
X46593Y-53706D01*
X46612Y-53751D01*
X46631Y-53781D01*
X46650Y-53796D01*
X46462Y-53736D02*
X46453Y-53721D01*
X46434Y-53706D01*
X46387Y-53706D01*
X46368Y-53721D01*
X46359Y-53736D01*
X46350Y-53766D01*
X46350Y-53796D01*
X46359Y-53841D01*
X46471Y-54021D01*
X46350Y-54021D01*
X46275Y-53736D02*
X46265Y-53721D01*
X46246Y-53706D01*
X46200Y-53706D01*
X46181Y-53721D01*
X46171Y-53736D01*
X46162Y-53766D01*
X46162Y-53796D01*
X46171Y-53841D01*
X46284Y-54021D01*
X46162Y-54021D01*
X46659Y-52161D02*
X46650Y-52146D01*
X46631Y-52131D01*
X46584Y-52131D01*
X46565Y-52146D01*
X46556Y-52161D01*
X46546Y-52191D01*
X46546Y-52221D01*
X46556Y-52266D01*
X46668Y-52446D01*
X46546Y-52446D01*
X46153Y-53233D02*
X46265Y-53233D01*
X46209Y-53233D02*
X46209Y-52918D01*
X46228Y-52963D01*
X46246Y-52993D01*
X46265Y-53008D01*
G54D20*
X67275Y-51465D02*
X67275Y-51540D01*
X67320Y-51503D02*
X67230Y-51503D01*
X67202Y-51634D02*
X67202Y-51587D01*
X67258Y-51583D01*
X67252Y-51587D01*
X67247Y-51597D01*
X67247Y-51620D01*
X67252Y-51629D01*
X67258Y-51634D01*
X67269Y-51639D01*
X67297Y-51639D01*
X67308Y-51634D01*
X67314Y-51629D01*
X67320Y-51620D01*
X67320Y-51597D01*
X67314Y-51587D01*
X67308Y-51583D01*
X67213Y-51676D02*
X67207Y-51681D01*
X67202Y-51690D01*
X67202Y-51714D01*
X67207Y-51723D01*
X67213Y-51728D01*
X67224Y-51733D01*
X67235Y-51733D01*
X67252Y-51728D01*
X67320Y-51672D01*
X67320Y-51733D01*
X67320Y-51775D02*
X67241Y-51775D01*
X67252Y-51775D02*
X67247Y-51779D01*
X67241Y-51789D01*
X67241Y-51803D01*
X67247Y-51812D01*
X67258Y-51817D01*
X67320Y-51817D01*
X67258Y-51817D02*
X67247Y-51822D01*
X67241Y-51831D01*
X67241Y-51845D01*
X67247Y-51854D01*
X67258Y-51859D01*
X67320Y-51859D01*
X67320Y-51906D02*
X67241Y-51906D01*
X67252Y-51906D02*
X67247Y-51911D01*
X67241Y-51920D01*
X67241Y-51934D01*
X67247Y-51943D01*
X67258Y-51948D01*
X67320Y-51948D01*
X67258Y-51948D02*
X67247Y-51953D01*
X67241Y-51962D01*
X67241Y-51976D01*
X67247Y-51986D01*
X67258Y-51990D01*
X67320Y-51990D01*
X65306Y-51465D02*
X65306Y-51540D01*
X65351Y-51503D02*
X65261Y-51503D01*
X65273Y-51629D02*
X65351Y-51629D01*
X65228Y-51606D02*
X65312Y-51583D01*
X65312Y-51643D01*
X65233Y-51672D02*
X65233Y-51737D01*
X65351Y-51695D01*
X65351Y-51775D02*
X65273Y-51775D01*
X65284Y-51775D02*
X65278Y-51779D01*
X65273Y-51789D01*
X65273Y-51803D01*
X65278Y-51812D01*
X65289Y-51817D01*
X65351Y-51817D01*
X65289Y-51817D02*
X65278Y-51822D01*
X65273Y-51831D01*
X65273Y-51845D01*
X65278Y-51854D01*
X65289Y-51859D01*
X65351Y-51859D01*
X65351Y-51906D02*
X65273Y-51906D01*
X65284Y-51906D02*
X65278Y-51911D01*
X65273Y-51920D01*
X65273Y-51934D01*
X65278Y-51943D01*
X65289Y-51948D01*
X65351Y-51948D01*
X65289Y-51948D02*
X65278Y-51953D01*
X65273Y-51962D01*
X65273Y-51976D01*
X65278Y-51986D01*
X65289Y-51990D01*
X65351Y-51990D01*
M02*
