M48
;DRILL file {Pcbnew (2013-07-07 BZR 4022)-stable} date 5/2/2015 5:14:19 PM
;FORMAT={-:-/ absolute / metric / decimal}
FMAT,2
METRIC,TZ
T1C0.425
T2C0.559
T3C0.750
T4C0.813
T5C1.016
T6C1.800
T7C2.650
T8C3.048
%
G90
G05
M71
T1
X134.777Y115.22
X136.941Y115.326
X137.255Y117.221
X138.008Y97.336
X140.56Y100.365
X140.615Y103.338
X140.865Y109.607
X142.923Y105.197
X148.317Y112.149
X149.137Y112.252
X149.316Y117.402
X153.368Y111.744
X154.036Y112.605
X154.267Y109.587
X155.476Y102.809
X162.545Y104.042
X165.326Y97.754
X165.481Y102.992
X167.396Y95.6
X168.86Y101.365
X169.151Y100.268
X170.451Y114.021
X171.271Y114.841
X171.851Y115.422
X177.4Y115.273
X178.152Y111.347
X178.329Y112.167
X183.399Y102.107
X186.388Y111.817
X188.968Y117.563
X190.473Y118.639
X190.955Y103.652
X191.274Y85.239
X191.481Y117.484
X191.725Y102.633
X196.875Y91.621
X197.187Y87.621
X197.62Y92.05
X197.737Y117.302
X198.983Y102.751
X199.065Y107.137
X199.12Y101.147
X200.371Y107.314
X200.573Y104.702
X200.975Y102.367
X206.802Y116.896
X207.004Y102.967
X207.237Y118.138
X209.136Y96.24
X209.403Y98.116
X210.534Y116.675
X210.592Y103.511
X210.888Y101.08
X210.897Y118.428
X211.067Y102.786
X211.211Y98.219
X211.258Y117.129
X212.004Y116.656
X212.937Y115.057
X212.979Y122.936
X213.264Y102.326
X213.534Y111.141
X213.772Y112.184
X214.567Y97.846
X216.051Y108.439
X216.34Y91.755
X216.399Y89.398
X216.518Y90.43
X216.529Y111.285
X216.636Y94.423
X218.606Y109.925
X219.471Y105.464
X220.345Y116.967
X220.886Y121.675
X220.975Y120.28
X221.703Y101.897
X221.765Y102.717
X222.361Y105.332
X222.405Y120.348
X223.006Y104.275
X223.038Y87.568
X225.012Y89.503
X225.676Y120.583
X225.97Y89.738
X226.874Y119.29
X227.763Y100.204
X227.843Y114.171
X227.884Y117.922
X228.141Y116.124
X230.562Y115.864
X231.087Y112.54
X231.101Y87.909
X231.434Y88.818
X232.203Y118.469
X234.789Y103.746
X235.077Y120.269
X235.47Y116.926
X235.78Y95.925
X236.418Y97.616
X238.643Y91.486
X239.566Y117.918
X239.676Y114.502
X240.131Y102.596
X240.534Y109.053
X240.919Y120.396
X243.332Y103.911
X244.682Y106.863
X246.278Y101.448
X247.034Y89.962
X249.992Y93.149
X250.112Y97.869
T2
X115.621Y86.766
X118.796Y94.691
X125.984Y96.444
X145.415Y88.9
X145.415Y102.616
X157.212Y97.336
X157.286Y110.938
X158.115Y92.583
X161.789Y115.441
X164.465Y87.63
X167.005Y90.805
X171.577Y92.583
X177.292Y81.534
X178.308Y84.836
X179.832Y97.282
X181.737Y80.645
X181.991Y96.139
X185.38Y99.339
X194.468Y118.649
X200.279Y105.791
X201.526Y118.964
X203.835Y109.601
X206.375Y79.883
X217.981Y123.839
X223.251Y117.038
X233.299Y120.015
X235.204Y80.391
X239.881Y100.132
X240.792Y87.249
X241.427Y118.618
X243.355Y105.354
T3
X118.872Y134.94
X118.872Y138.74
X119.872Y133.04
X119.872Y136.84
X120.872Y134.94
X120.872Y138.74
X121.872Y133.04
X121.872Y136.84
X122.872Y134.94
X122.872Y138.74
X123.872Y133.04
X123.872Y136.84
X124.872Y134.94
X124.872Y138.74
X125.872Y133.04
X125.872Y136.84
X126.872Y134.94
X126.872Y138.74
X127.872Y133.04
X127.872Y136.84
X128.872Y134.94
X128.872Y138.74
X129.872Y133.04
X129.872Y136.84
X130.872Y134.94
X130.872Y138.74
X131.872Y133.04
X131.872Y136.84
X132.872Y134.94
X132.872Y138.74
X133.872Y133.04
X133.872Y136.84
X134.872Y134.94
X134.872Y138.74
X135.872Y133.04
X135.872Y136.84
X136.872Y134.94
X136.872Y138.74
X137.872Y133.04
X137.872Y136.84
X138.872Y134.94
X138.872Y138.74
X139.872Y133.04
X139.872Y136.84
X140.872Y134.94
X140.872Y138.74
X141.872Y133.04
X141.872Y136.84
X142.872Y134.94
X142.872Y138.74
X143.872Y133.04
X143.872Y136.84
X144.872Y134.94
X144.872Y138.74
X145.872Y133.04
X145.872Y136.84
X146.872Y134.94
X146.872Y138.74
X147.872Y133.04
X147.872Y136.84
X148.872Y134.94
X148.872Y138.74
X149.872Y133.04
X149.872Y136.84
X150.872Y134.94
X150.872Y138.74
X151.872Y133.04
X151.872Y136.84
X152.872Y134.94
X152.872Y138.74
X153.872Y133.04
X153.872Y136.84
X154.872Y134.94
X154.872Y138.74
X155.872Y133.04
X155.872Y136.84
X156.872Y134.94
X156.872Y138.74
X157.872Y133.04
X157.872Y136.84
X158.872Y134.94
X158.872Y138.74
X159.872Y133.04
X159.872Y136.84
X160.872Y134.94
X160.872Y138.74
X161.872Y133.04
X161.872Y136.84
X162.872Y134.94
X162.872Y138.74
X163.872Y133.04
X163.872Y136.84
X164.872Y134.94
X164.872Y138.74
X165.872Y133.04
X165.872Y136.84
X170.872Y134.94
X170.872Y138.74
X171.872Y133.04
X171.872Y136.84
X172.872Y134.94
X172.872Y138.74
X173.872Y133.04
X173.872Y136.84
X174.872Y134.94
X174.872Y138.74
X175.872Y133.04
X175.872Y136.84
X176.872Y134.94
X176.872Y138.74
X177.872Y133.04
X177.872Y136.84
X178.872Y134.94
X178.872Y138.74
X179.872Y133.04
X179.872Y136.84
X180.872Y134.94
X180.872Y138.74
X181.872Y133.04
X181.872Y136.84
X182.872Y134.94
X182.872Y138.74
X183.872Y133.04
X183.872Y136.84
X184.872Y134.94
X184.872Y138.74
X185.872Y133.04
X185.872Y136.84
X186.872Y134.94
X186.872Y138.74
X187.872Y133.04
X187.872Y136.84
X188.872Y134.94
X188.872Y138.74
X189.872Y133.04
X189.872Y136.84
X190.872Y134.94
X190.872Y138.74
X191.872Y133.04
X191.872Y136.84
X192.872Y134.94
X192.872Y138.74
X193.872Y133.04
X193.872Y136.84
X194.872Y134.94
X194.872Y138.74
X195.872Y133.04
X195.872Y136.84
X196.872Y134.94
X196.872Y138.74
X197.872Y133.04
X197.872Y136.84
X198.872Y134.94
X198.872Y138.74
X199.872Y133.04
X199.872Y136.84
X200.872Y134.94
X200.872Y138.74
X201.872Y133.04
X201.872Y136.84
X202.872Y134.94
X202.872Y138.74
X203.872Y133.04
X203.872Y136.84
X204.872Y134.94
X204.872Y138.74
X205.872Y133.04
X205.872Y136.84
X206.872Y134.94
X206.872Y138.74
X207.872Y133.04
X207.872Y136.84
X208.872Y134.94
X208.872Y138.74
X209.872Y133.04
X209.872Y136.84
X210.872Y134.94
X210.872Y138.74
X211.872Y133.04
X211.872Y136.84
X212.872Y134.94
X212.872Y138.74
X213.872Y133.04
X213.872Y136.84
X214.872Y134.94
X214.872Y138.74
X215.872Y133.04
X215.872Y136.84
X216.872Y134.94
X216.872Y138.74
X217.872Y133.04
X217.872Y136.84
X218.872Y134.94
X218.872Y138.74
X219.872Y133.04
X219.872Y136.84
X220.872Y134.94
X220.872Y138.74
X221.872Y133.04
X221.872Y136.84
X222.872Y134.94
X222.872Y138.74
X223.872Y133.04
X223.872Y136.84
X224.872Y134.94
X224.872Y138.74
X225.872Y133.04
X225.872Y136.84
X226.872Y134.94
X226.872Y138.74
X227.872Y133.04
X227.872Y136.84
X228.872Y134.94
X228.872Y138.74
X229.872Y133.04
X229.872Y136.84
X230.872Y134.94
X230.872Y138.74
X231.872Y133.04
X231.872Y136.84
X232.872Y134.94
X232.872Y138.74
X233.872Y133.04
X233.872Y136.84
X234.872Y134.94
X234.872Y138.74
X235.872Y133.04
X235.872Y136.84
X236.872Y134.94
X236.872Y138.74
X237.872Y133.04
X237.872Y136.84
X238.872Y134.94
X238.872Y138.74
X239.872Y133.04
X239.872Y136.84
X240.872Y134.94
X240.872Y138.74
X241.872Y133.04
X241.872Y136.84
T4
X126.365Y83.82
X184.785Y83.82
X249.936Y101.6
X249.936Y104.14
X249.936Y106.68
T5
X126.365Y81.28
X128.905Y81.28
X128.905Y83.82
X131.445Y81.28
X131.445Y83.82
X133.985Y81.28
X133.985Y83.82
X136.525Y81.28
X136.525Y83.82
X139.065Y81.28
X139.065Y83.82
X141.605Y81.28
X141.605Y83.82
X144.145Y81.28
X144.145Y83.82
X146.685Y81.28
X146.685Y83.82
X149.225Y81.28
X149.225Y83.82
X151.765Y81.28
X151.765Y83.82
X154.305Y81.28
X154.305Y83.82
X156.845Y81.28
X156.845Y83.82
X159.385Y81.28
X159.385Y83.82
X161.925Y81.28
X161.925Y83.82
X164.465Y81.28
X164.465Y83.82
X167.005Y81.28
X167.005Y83.82
X169.545Y81.28
X169.545Y83.82
X172.085Y81.28
X172.085Y83.82
X174.625Y81.28
X174.625Y83.82
X184.785Y81.28
X187.325Y81.28
X187.325Y83.82
X189.865Y81.28
X189.865Y83.82
X192.405Y81.28
X192.405Y83.82
X194.945Y81.28
X194.945Y83.82
X197.485Y81.28
X197.485Y83.82
X200.025Y81.28
X200.025Y83.82
X202.565Y81.28
X202.565Y83.82
X205.105Y81.28
X205.105Y83.82
X207.645Y81.28
X207.645Y83.82
X210.185Y81.28
X210.185Y83.82
X212.725Y81.28
X212.725Y83.82
X215.265Y81.28
X215.265Y83.82
X217.805Y81.28
X217.805Y83.82
X220.345Y81.28
X220.345Y83.82
X222.885Y81.28
X222.885Y83.82
X225.425Y81.28
X225.425Y83.82
X227.965Y81.28
X227.965Y83.82
X230.505Y81.28
X230.505Y83.82
X233.045Y81.28
X233.045Y83.82
X238.125Y81.28
X238.125Y83.82
X240.665Y81.28
X240.665Y83.82
T7
X111.372Y135.89
X249.372Y135.89
T8
X109.601Y82.55
X109.601Y147.574
X249.809Y82.55
X249.809Y147.574
T6
X168.372Y135.565G85X168.372Y136.215
G05
T0
M30
