G04 (created by PCBNEW (2013-07-07 BZR 4022)-stable) date 5/2/2015 5:14:18 PM*
%MOIN*%
G04 Gerber Fmt 3.4, Leading zero omitted, Abs format*
%FSLAX34Y34*%
G01*
G70*
G90*
G04 APERTURE LIST*
%ADD10C,0.00590551*%
%ADD11C,0.0035*%
%ADD12C,0.00609449*%
%ADD13C,0.015*%
%ADD14C,0.00826772*%
%ADD15C,0.00472441*%
%ADD16C,0.008*%
%ADD17C,0.005*%
%ADD18C,0.012*%
%ADD19C,0.002*%
%ADD20C,0.0039*%
%ADD21C,0.0026*%
%ADD22C,0.0078*%
%ADD23C,0.007*%
%ADD24C,0.01*%
%ADD25C,0.0019685*%
%ADD26C,0.0106*%
G04 APERTURE END LIST*
G54D10*
G54D11*
X90919Y-37902D02*
X90919Y-38307D01*
X90942Y-38354D01*
X90966Y-38378D01*
X91014Y-38402D01*
X91109Y-38402D01*
X91157Y-38378D01*
X91180Y-38354D01*
X91204Y-38307D01*
X91204Y-37902D01*
X91657Y-38069D02*
X91657Y-38402D01*
X91538Y-37878D02*
X91419Y-38235D01*
X91728Y-38235D01*
X79319Y-37902D02*
X79319Y-38307D01*
X79342Y-38354D01*
X79366Y-38378D01*
X79414Y-38402D01*
X79509Y-38402D01*
X79557Y-38378D01*
X79580Y-38354D01*
X79604Y-38307D01*
X79604Y-37902D01*
X79819Y-37950D02*
X79842Y-37926D01*
X79890Y-37902D01*
X80009Y-37902D01*
X80057Y-37926D01*
X80080Y-37950D01*
X80104Y-37997D01*
X80104Y-38045D01*
X80080Y-38116D01*
X79795Y-38402D01*
X80104Y-38402D01*
X67919Y-37852D02*
X67919Y-38257D01*
X67942Y-38304D01*
X67966Y-38328D01*
X68014Y-38352D01*
X68109Y-38352D01*
X68157Y-38328D01*
X68180Y-38304D01*
X68204Y-38257D01*
X68204Y-37852D01*
X68395Y-37852D02*
X68704Y-37852D01*
X68538Y-38042D01*
X68609Y-38042D01*
X68657Y-38066D01*
X68680Y-38090D01*
X68704Y-38138D01*
X68704Y-38257D01*
X68680Y-38304D01*
X68657Y-38328D01*
X68609Y-38352D01*
X68466Y-38352D01*
X68419Y-38328D01*
X68395Y-38304D01*
G54D12*
X44179Y-42131D02*
X44355Y-42131D01*
X44260Y-42271D01*
X44301Y-42271D01*
X44328Y-42288D01*
X44342Y-42306D01*
X44355Y-42341D01*
X44355Y-42428D01*
X44342Y-42463D01*
X44328Y-42481D01*
X44301Y-42498D01*
X44219Y-42498D01*
X44192Y-42481D01*
X44179Y-42463D01*
X44477Y-42463D02*
X44491Y-42481D01*
X44477Y-42498D01*
X44464Y-42481D01*
X44477Y-42463D01*
X44477Y-42498D01*
X44586Y-42131D02*
X44762Y-42131D01*
X44667Y-42271D01*
X44708Y-42271D01*
X44735Y-42288D01*
X44749Y-42306D01*
X44762Y-42341D01*
X44762Y-42428D01*
X44749Y-42463D01*
X44735Y-42481D01*
X44708Y-42498D01*
X44627Y-42498D01*
X44600Y-42481D01*
X44586Y-42463D01*
X44844Y-42131D02*
X44939Y-42498D01*
X45034Y-42131D01*
X30317Y-48996D02*
X30181Y-48996D01*
X30167Y-49171D01*
X30181Y-49153D01*
X30208Y-49136D01*
X30276Y-49136D01*
X30303Y-49153D01*
X30317Y-49171D01*
X30330Y-49206D01*
X30330Y-49293D01*
X30317Y-49328D01*
X30303Y-49346D01*
X30276Y-49363D01*
X30208Y-49363D01*
X30181Y-49346D01*
X30167Y-49328D01*
X30452Y-49328D02*
X30466Y-49346D01*
X30452Y-49363D01*
X30439Y-49346D01*
X30452Y-49328D01*
X30452Y-49363D01*
X30642Y-48996D02*
X30670Y-48996D01*
X30697Y-49014D01*
X30710Y-49031D01*
X30724Y-49066D01*
X30737Y-49136D01*
X30737Y-49223D01*
X30724Y-49293D01*
X30710Y-49328D01*
X30697Y-49346D01*
X30670Y-49363D01*
X30642Y-49363D01*
X30615Y-49346D01*
X30602Y-49328D01*
X30588Y-49293D01*
X30575Y-49223D01*
X30575Y-49136D01*
X30588Y-49066D01*
X30602Y-49031D01*
X30615Y-49014D01*
X30642Y-48996D01*
X30819Y-48996D02*
X30914Y-49363D01*
X31009Y-48996D01*
G54D13*
X48700Y-33600D02*
X49100Y-33600D01*
X49100Y-34000D02*
X48700Y-33600D01*
X49100Y-33600D02*
X49100Y-34000D01*
X71700Y-33600D02*
X72100Y-33600D01*
X72100Y-34000D02*
X71700Y-33600D01*
X72100Y-33600D02*
X72100Y-34000D01*
X92700Y-33600D02*
X93100Y-33600D01*
X93100Y-34000D02*
X92700Y-33600D01*
X93100Y-33600D02*
X93100Y-34000D01*
G54D12*
X99167Y-40048D02*
X99167Y-39681D01*
X99276Y-39681D01*
X99303Y-39699D01*
X99317Y-39716D01*
X99330Y-39751D01*
X99330Y-39803D01*
X99317Y-39838D01*
X99303Y-39856D01*
X99276Y-39873D01*
X99167Y-39873D01*
X99602Y-40048D02*
X99439Y-40048D01*
X99520Y-40048D02*
X99520Y-39681D01*
X99493Y-39734D01*
X99466Y-39768D01*
X99439Y-39786D01*
X99167Y-41197D02*
X99167Y-40830D01*
X99276Y-40830D01*
X99303Y-40848D01*
X99317Y-40865D01*
X99330Y-40900D01*
X99330Y-40953D01*
X99317Y-40988D01*
X99303Y-41005D01*
X99276Y-41023D01*
X99167Y-41023D01*
X99425Y-40830D02*
X99602Y-40830D01*
X99507Y-40970D01*
X99547Y-40970D01*
X99575Y-40988D01*
X99588Y-41005D01*
X99602Y-41040D01*
X99602Y-41127D01*
X99588Y-41162D01*
X99575Y-41180D01*
X99547Y-41197D01*
X99466Y-41197D01*
X99439Y-41180D01*
X99425Y-41162D01*
X99846Y-40953D02*
X99846Y-41197D01*
X99778Y-40813D02*
X99710Y-41075D01*
X99887Y-41075D01*
X99167Y-42347D02*
X99167Y-41980D01*
X99276Y-41980D01*
X99303Y-41997D01*
X99317Y-42015D01*
X99330Y-42050D01*
X99330Y-42102D01*
X99317Y-42137D01*
X99303Y-42154D01*
X99276Y-42172D01*
X99167Y-42172D01*
X99425Y-41980D02*
X99602Y-41980D01*
X99507Y-42119D01*
X99547Y-42119D01*
X99575Y-42137D01*
X99588Y-42154D01*
X99602Y-42189D01*
X99602Y-42277D01*
X99588Y-42312D01*
X99575Y-42329D01*
X99547Y-42347D01*
X99466Y-42347D01*
X99439Y-42329D01*
X99425Y-42312D01*
X99846Y-41980D02*
X99792Y-41980D01*
X99765Y-41997D01*
X99751Y-42015D01*
X99724Y-42067D01*
X99710Y-42137D01*
X99710Y-42277D01*
X99724Y-42312D01*
X99737Y-42329D01*
X99765Y-42347D01*
X99819Y-42347D01*
X99846Y-42329D01*
X99860Y-42312D01*
X99873Y-42277D01*
X99873Y-42189D01*
X99860Y-42154D01*
X99846Y-42137D01*
X99819Y-42119D01*
X99765Y-42119D01*
X99737Y-42137D01*
X99724Y-42154D01*
X99710Y-42189D01*
G54D14*
X47128Y-35119D02*
X47128Y-34528D01*
X47308Y-34528D01*
X47353Y-34556D01*
X47376Y-34584D01*
X47398Y-34640D01*
X47398Y-34725D01*
X47376Y-34781D01*
X47353Y-34809D01*
X47308Y-34837D01*
X47128Y-34837D01*
X47691Y-34528D02*
X47781Y-34528D01*
X47826Y-34556D01*
X47871Y-34612D01*
X47893Y-34725D01*
X47893Y-34922D01*
X47871Y-35034D01*
X47826Y-35090D01*
X47781Y-35119D01*
X47691Y-35119D01*
X47646Y-35090D01*
X47601Y-35034D01*
X47578Y-34922D01*
X47578Y-34725D01*
X47601Y-34612D01*
X47646Y-34556D01*
X47691Y-34528D01*
X48051Y-34528D02*
X48163Y-35119D01*
X48253Y-34697D01*
X48343Y-35119D01*
X48456Y-34528D01*
X48636Y-34809D02*
X48793Y-34809D01*
X48861Y-35119D02*
X48636Y-35119D01*
X48636Y-34528D01*
X48861Y-34528D01*
X49333Y-35119D02*
X49176Y-34837D01*
X49063Y-35119D02*
X49063Y-34528D01*
X49243Y-34528D01*
X49288Y-34556D01*
X49311Y-34584D01*
X49333Y-34640D01*
X49333Y-34725D01*
X49311Y-34781D01*
X49288Y-34809D01*
X49243Y-34837D01*
X49063Y-34837D01*
G54D11*
X17630Y-53842D02*
X17630Y-54247D01*
X17654Y-54294D01*
X17678Y-54318D01*
X17726Y-54342D01*
X17821Y-54342D01*
X17869Y-54318D01*
X17892Y-54294D01*
X17916Y-54247D01*
X17916Y-53842D01*
X18130Y-53890D02*
X18154Y-53866D01*
X18202Y-53842D01*
X18321Y-53842D01*
X18369Y-53866D01*
X18392Y-53890D01*
X18416Y-53937D01*
X18416Y-53985D01*
X18392Y-54056D01*
X18107Y-54342D01*
X18416Y-54342D01*
X18726Y-53842D02*
X18773Y-53842D01*
X18821Y-53866D01*
X18845Y-53890D01*
X18869Y-53937D01*
X18892Y-54032D01*
X18892Y-54151D01*
X18869Y-54247D01*
X18845Y-54294D01*
X18821Y-54318D01*
X18773Y-54342D01*
X18726Y-54342D01*
X18678Y-54318D01*
X18654Y-54294D01*
X18630Y-54247D01*
X18607Y-54151D01*
X18607Y-54032D01*
X18630Y-53937D01*
X18654Y-53890D01*
X18678Y-53866D01*
X18726Y-53842D01*
X42569Y-42102D02*
X42569Y-42507D01*
X42592Y-42554D01*
X42616Y-42578D01*
X42664Y-42602D01*
X42759Y-42602D01*
X42807Y-42578D01*
X42830Y-42554D01*
X42854Y-42507D01*
X42854Y-42102D01*
X43045Y-42102D02*
X43378Y-42102D01*
X43164Y-42602D01*
X56919Y-37952D02*
X56919Y-38357D01*
X56942Y-38404D01*
X56966Y-38428D01*
X57014Y-38452D01*
X57109Y-38452D01*
X57157Y-38428D01*
X57180Y-38404D01*
X57204Y-38357D01*
X57204Y-37952D01*
X57704Y-38452D02*
X57419Y-38452D01*
X57561Y-38452D02*
X57561Y-37952D01*
X57514Y-38023D01*
X57466Y-38071D01*
X57419Y-38095D01*
G54D15*
X89259Y-36026D02*
X89259Y-36341D01*
X89165Y-35846D02*
X89072Y-36183D01*
X89315Y-36183D01*
X89465Y-36341D02*
X89465Y-35868D01*
X89597Y-36206D01*
X89728Y-35868D01*
X89728Y-36341D01*
X89915Y-36341D02*
X89915Y-35868D01*
X89915Y-36048D02*
X89953Y-36026D01*
X90028Y-36026D01*
X90065Y-36048D01*
X90084Y-36071D01*
X90103Y-36116D01*
X90103Y-36251D01*
X90084Y-36296D01*
X90065Y-36318D01*
X90028Y-36341D01*
X89953Y-36341D01*
X89915Y-36318D01*
X90272Y-36341D02*
X90272Y-36026D01*
X90272Y-35868D02*
X90253Y-35891D01*
X90272Y-35913D01*
X90290Y-35891D01*
X90272Y-35868D01*
X90272Y-35913D01*
X90403Y-36026D02*
X90553Y-36026D01*
X90459Y-35868D02*
X90459Y-36273D01*
X90478Y-36318D01*
X90515Y-36341D01*
X90553Y-36341D01*
X91096Y-36521D02*
X91078Y-36498D01*
X91040Y-36431D01*
X91021Y-36386D01*
X91003Y-36318D01*
X90984Y-36206D01*
X90984Y-36116D01*
X91003Y-36003D01*
X91021Y-35936D01*
X91040Y-35891D01*
X91078Y-35823D01*
X91096Y-35801D01*
X91453Y-36341D02*
X91228Y-36341D01*
X91340Y-36341D02*
X91340Y-35868D01*
X91303Y-35936D01*
X91265Y-35981D01*
X91228Y-36003D01*
X91603Y-35913D02*
X91621Y-35891D01*
X91659Y-35868D01*
X91753Y-35868D01*
X91790Y-35891D01*
X91809Y-35913D01*
X91828Y-35958D01*
X91828Y-36003D01*
X91809Y-36071D01*
X91584Y-36341D01*
X91828Y-36341D01*
X92053Y-36071D02*
X92015Y-36048D01*
X91996Y-36026D01*
X91978Y-35981D01*
X91978Y-35958D01*
X91996Y-35913D01*
X92015Y-35891D01*
X92053Y-35868D01*
X92128Y-35868D01*
X92165Y-35891D01*
X92184Y-35913D01*
X92203Y-35958D01*
X92203Y-35981D01*
X92184Y-36026D01*
X92165Y-36048D01*
X92128Y-36071D01*
X92053Y-36071D01*
X92015Y-36093D01*
X91996Y-36116D01*
X91978Y-36161D01*
X91978Y-36251D01*
X91996Y-36296D01*
X92015Y-36318D01*
X92053Y-36341D01*
X92128Y-36341D01*
X92165Y-36318D01*
X92184Y-36296D01*
X92203Y-36251D01*
X92203Y-36161D01*
X92184Y-36116D01*
X92165Y-36093D01*
X92128Y-36071D01*
X92371Y-36341D02*
X92371Y-35868D01*
X92596Y-36341D02*
X92428Y-36071D01*
X92596Y-35868D02*
X92371Y-36138D01*
X93027Y-36341D02*
X93234Y-36026D01*
X93027Y-36026D02*
X93234Y-36341D01*
X93646Y-35868D02*
X93890Y-35868D01*
X93759Y-36048D01*
X93815Y-36048D01*
X93852Y-36071D01*
X93871Y-36093D01*
X93890Y-36138D01*
X93890Y-36251D01*
X93871Y-36296D01*
X93852Y-36318D01*
X93815Y-36341D01*
X93702Y-36341D01*
X93665Y-36318D01*
X93646Y-36296D01*
X94040Y-35913D02*
X94059Y-35891D01*
X94096Y-35868D01*
X94190Y-35868D01*
X94227Y-35891D01*
X94246Y-35913D01*
X94265Y-35958D01*
X94265Y-36003D01*
X94246Y-36071D01*
X94021Y-36341D01*
X94265Y-36341D01*
X94396Y-36521D02*
X94415Y-36498D01*
X94452Y-36431D01*
X94471Y-36386D01*
X94490Y-36318D01*
X94509Y-36206D01*
X94509Y-36116D01*
X94490Y-36003D01*
X94471Y-35936D01*
X94452Y-35891D01*
X94415Y-35823D01*
X94396Y-35801D01*
G54D16*
X46140Y-36590D02*
G75*
G03X46140Y-36590I-70J0D01*
G74*
G01*
G54D17*
X45120Y-36490D02*
X45120Y-36590D01*
X45120Y-36590D02*
X46020Y-36590D01*
X46020Y-36590D02*
X46020Y-36490D01*
X45120Y-36490D02*
X46020Y-36490D01*
X46020Y-36490D02*
X46020Y-35840D01*
X45120Y-35140D02*
X45120Y-34490D01*
X45120Y-34490D02*
X46020Y-34490D01*
X46020Y-34490D02*
X46020Y-35140D01*
X45120Y-35840D02*
X45120Y-36490D01*
G54D18*
X92250Y-33500D02*
X72250Y-33500D01*
X92250Y-31500D02*
X72250Y-31500D01*
X92250Y-31500D02*
X92250Y-33500D01*
X72250Y-31500D02*
X72250Y-33500D01*
X69250Y-33500D02*
X49250Y-33500D01*
X69250Y-31500D02*
X49250Y-31500D01*
X69250Y-31500D02*
X69250Y-33500D01*
X49250Y-31500D02*
X49250Y-33500D01*
G54D19*
X49016Y-37317D02*
X47464Y-37317D01*
X47464Y-37317D02*
X47464Y-36543D01*
X47464Y-36543D02*
X49016Y-36543D01*
X49016Y-36543D02*
X49016Y-37317D01*
G54D20*
X47499Y-35420D02*
X49029Y-35420D01*
X49029Y-35420D02*
X49029Y-36100D01*
X49029Y-36100D02*
X47479Y-36100D01*
X47479Y-36100D02*
X47479Y-35420D01*
X96360Y-36360D02*
X96360Y-34830D01*
X96360Y-34830D02*
X97040Y-34830D01*
X97040Y-34830D02*
X97040Y-36380D01*
X97040Y-36380D02*
X96360Y-36380D01*
X97660Y-36360D02*
X97660Y-34830D01*
X97660Y-34830D02*
X98340Y-34830D01*
X98340Y-34830D02*
X98340Y-36380D01*
X98340Y-36380D02*
X97660Y-36380D01*
G54D13*
X99250Y-32500D02*
G75*
G03X99250Y-32500I-900J0D01*
G74*
G01*
X44050Y-32500D02*
G75*
G03X44050Y-32500I-900J0D01*
G74*
G01*
X44050Y-58100D02*
G75*
G03X44050Y-58100I-900J0D01*
G74*
G01*
X99250Y-58100D02*
G75*
G03X99250Y-58100I-900J0D01*
G74*
G01*
G54D16*
X47295Y-39964D02*
G75*
G03X47295Y-39964I-70J0D01*
G74*
G01*
G54D17*
X47325Y-39014D02*
X47225Y-39014D01*
X47225Y-39014D02*
X47225Y-39914D01*
X47225Y-39914D02*
X47325Y-39914D01*
X47325Y-39014D02*
X47325Y-39914D01*
X47325Y-39914D02*
X47975Y-39914D01*
X48675Y-39014D02*
X49325Y-39014D01*
X49325Y-39014D02*
X49325Y-39914D01*
X49325Y-39914D02*
X48675Y-39914D01*
X47975Y-39014D02*
X47325Y-39014D01*
G54D16*
X47295Y-41864D02*
G75*
G03X47295Y-41864I-70J0D01*
G74*
G01*
G54D17*
X47325Y-40914D02*
X47225Y-40914D01*
X47225Y-40914D02*
X47225Y-41814D01*
X47225Y-41814D02*
X47325Y-41814D01*
X47325Y-40914D02*
X47325Y-41814D01*
X47325Y-41814D02*
X47975Y-41814D01*
X48675Y-40914D02*
X49325Y-40914D01*
X49325Y-40914D02*
X49325Y-41814D01*
X49325Y-41814D02*
X48675Y-41814D01*
X47975Y-40914D02*
X47325Y-40914D01*
G54D16*
X47295Y-43814D02*
G75*
G03X47295Y-43814I-70J0D01*
G74*
G01*
G54D17*
X47325Y-42864D02*
X47225Y-42864D01*
X47225Y-42864D02*
X47225Y-43764D01*
X47225Y-43764D02*
X47325Y-43764D01*
X47325Y-42864D02*
X47325Y-43764D01*
X47325Y-43764D02*
X47975Y-43764D01*
X48675Y-42864D02*
X49325Y-42864D01*
X49325Y-42864D02*
X49325Y-43764D01*
X49325Y-43764D02*
X48675Y-43764D01*
X47975Y-42864D02*
X47325Y-42864D01*
G54D16*
X44190Y-36610D02*
G75*
G03X44190Y-36610I-70J0D01*
G74*
G01*
G54D17*
X43170Y-36510D02*
X43170Y-36610D01*
X43170Y-36610D02*
X44070Y-36610D01*
X44070Y-36610D02*
X44070Y-36510D01*
X43170Y-36510D02*
X44070Y-36510D01*
X44070Y-36510D02*
X44070Y-35860D01*
X43170Y-35160D02*
X43170Y-34510D01*
X43170Y-34510D02*
X44070Y-34510D01*
X44070Y-34510D02*
X44070Y-35160D01*
X43170Y-35860D02*
X43170Y-36510D01*
G54D18*
X93250Y-31500D02*
X95250Y-31500D01*
X95250Y-31500D02*
X95250Y-33500D01*
X95250Y-33500D02*
X93250Y-33500D01*
X93250Y-33500D02*
X93250Y-31500D01*
G54D21*
X88320Y-39081D02*
X88320Y-39278D01*
X88320Y-39278D02*
X88844Y-39278D01*
X88844Y-39081D02*
X88844Y-39278D01*
X88320Y-39081D02*
X88844Y-39081D01*
X88320Y-39581D02*
X88320Y-39778D01*
X88320Y-39778D02*
X88844Y-39778D01*
X88844Y-39581D02*
X88844Y-39778D01*
X88320Y-39581D02*
X88844Y-39581D01*
X88320Y-40081D02*
X88320Y-40278D01*
X88320Y-40278D02*
X88844Y-40278D01*
X88844Y-40081D02*
X88844Y-40278D01*
X88320Y-40081D02*
X88844Y-40081D01*
X88320Y-40581D02*
X88320Y-40778D01*
X88320Y-40778D02*
X88844Y-40778D01*
X88844Y-40581D02*
X88844Y-40778D01*
X88320Y-40581D02*
X88844Y-40581D01*
X88320Y-41081D02*
X88320Y-41278D01*
X88320Y-41278D02*
X88844Y-41278D01*
X88844Y-41081D02*
X88844Y-41278D01*
X88320Y-41081D02*
X88844Y-41081D01*
X88320Y-41581D02*
X88320Y-41778D01*
X88320Y-41778D02*
X88844Y-41778D01*
X88844Y-41581D02*
X88844Y-41778D01*
X88320Y-41581D02*
X88844Y-41581D01*
X88320Y-42081D02*
X88320Y-42278D01*
X88320Y-42278D02*
X88844Y-42278D01*
X88844Y-42081D02*
X88844Y-42278D01*
X88320Y-42081D02*
X88844Y-42081D01*
X88320Y-42581D02*
X88320Y-42778D01*
X88320Y-42778D02*
X88844Y-42778D01*
X88844Y-42581D02*
X88844Y-42778D01*
X88320Y-42581D02*
X88844Y-42581D01*
X88320Y-43080D02*
X88320Y-43277D01*
X88320Y-43277D02*
X88844Y-43277D01*
X88844Y-43080D02*
X88844Y-43277D01*
X88320Y-43080D02*
X88844Y-43080D01*
X88320Y-43580D02*
X88320Y-43777D01*
X88320Y-43777D02*
X88844Y-43777D01*
X88844Y-43580D02*
X88844Y-43777D01*
X88320Y-43580D02*
X88844Y-43580D01*
X88320Y-44080D02*
X88320Y-44277D01*
X88320Y-44277D02*
X88844Y-44277D01*
X88844Y-44080D02*
X88844Y-44277D01*
X88320Y-44080D02*
X88844Y-44080D01*
X88320Y-44580D02*
X88320Y-44777D01*
X88320Y-44777D02*
X88844Y-44777D01*
X88844Y-44580D02*
X88844Y-44777D01*
X88320Y-44580D02*
X88844Y-44580D01*
X88320Y-45080D02*
X88320Y-45277D01*
X88320Y-45277D02*
X88844Y-45277D01*
X88844Y-45080D02*
X88844Y-45277D01*
X88320Y-45080D02*
X88844Y-45080D01*
X88320Y-45580D02*
X88320Y-45777D01*
X88320Y-45777D02*
X88844Y-45777D01*
X88844Y-45580D02*
X88844Y-45777D01*
X88320Y-45580D02*
X88844Y-45580D01*
X88320Y-46080D02*
X88320Y-46277D01*
X88320Y-46277D02*
X88844Y-46277D01*
X88844Y-46080D02*
X88844Y-46277D01*
X88320Y-46080D02*
X88844Y-46080D01*
X88320Y-46580D02*
X88320Y-46777D01*
X88320Y-46777D02*
X88844Y-46777D01*
X88844Y-46580D02*
X88844Y-46777D01*
X88320Y-46580D02*
X88844Y-46580D01*
X93496Y-46580D02*
X93496Y-46777D01*
X93496Y-46777D02*
X94020Y-46777D01*
X94020Y-46580D02*
X94020Y-46777D01*
X93496Y-46580D02*
X94020Y-46580D01*
X93496Y-46080D02*
X93496Y-46277D01*
X93496Y-46277D02*
X94020Y-46277D01*
X94020Y-46080D02*
X94020Y-46277D01*
X93496Y-46080D02*
X94020Y-46080D01*
X93496Y-45580D02*
X93496Y-45777D01*
X93496Y-45777D02*
X94020Y-45777D01*
X94020Y-45580D02*
X94020Y-45777D01*
X93496Y-45580D02*
X94020Y-45580D01*
X93496Y-45080D02*
X93496Y-45277D01*
X93496Y-45277D02*
X94020Y-45277D01*
X94020Y-45080D02*
X94020Y-45277D01*
X93496Y-45080D02*
X94020Y-45080D01*
X93496Y-44580D02*
X93496Y-44777D01*
X93496Y-44777D02*
X94020Y-44777D01*
X94020Y-44580D02*
X94020Y-44777D01*
X93496Y-44580D02*
X94020Y-44580D01*
X93496Y-44080D02*
X93496Y-44277D01*
X93496Y-44277D02*
X94020Y-44277D01*
X94020Y-44080D02*
X94020Y-44277D01*
X93496Y-44080D02*
X94020Y-44080D01*
X93496Y-43580D02*
X93496Y-43777D01*
X93496Y-43777D02*
X94020Y-43777D01*
X94020Y-43580D02*
X94020Y-43777D01*
X93496Y-43580D02*
X94020Y-43580D01*
X93496Y-43080D02*
X93496Y-43277D01*
X93496Y-43277D02*
X94020Y-43277D01*
X94020Y-43080D02*
X94020Y-43277D01*
X93496Y-43080D02*
X94020Y-43080D01*
X93496Y-42581D02*
X93496Y-42778D01*
X93496Y-42778D02*
X94020Y-42778D01*
X94020Y-42581D02*
X94020Y-42778D01*
X93496Y-42581D02*
X94020Y-42581D01*
X93496Y-42081D02*
X93496Y-42278D01*
X93496Y-42278D02*
X94020Y-42278D01*
X94020Y-42081D02*
X94020Y-42278D01*
X93496Y-42081D02*
X94020Y-42081D01*
X93496Y-41581D02*
X93496Y-41778D01*
X93496Y-41778D02*
X94020Y-41778D01*
X94020Y-41581D02*
X94020Y-41778D01*
X93496Y-41581D02*
X94020Y-41581D01*
X93496Y-41081D02*
X93496Y-41278D01*
X93496Y-41278D02*
X94020Y-41278D01*
X94020Y-41081D02*
X94020Y-41278D01*
X93496Y-41081D02*
X94020Y-41081D01*
X93496Y-40581D02*
X93496Y-40778D01*
X93496Y-40778D02*
X94020Y-40778D01*
X94020Y-40581D02*
X94020Y-40778D01*
X93496Y-40581D02*
X94020Y-40581D01*
X93496Y-40081D02*
X93496Y-40278D01*
X93496Y-40278D02*
X94020Y-40278D01*
X94020Y-40081D02*
X94020Y-40278D01*
X93496Y-40081D02*
X94020Y-40081D01*
X93496Y-39581D02*
X93496Y-39778D01*
X93496Y-39778D02*
X94020Y-39778D01*
X94020Y-39581D02*
X94020Y-39778D01*
X93496Y-39581D02*
X94020Y-39581D01*
X93496Y-39081D02*
X93496Y-39278D01*
X93496Y-39278D02*
X94020Y-39278D01*
X94020Y-39081D02*
X94020Y-39278D01*
X93496Y-39081D02*
X94020Y-39081D01*
G54D16*
X93457Y-47141D02*
X88883Y-47141D01*
X88883Y-47141D02*
X88883Y-38717D01*
X88883Y-38717D02*
X93457Y-38717D01*
X93457Y-38717D02*
X93457Y-47141D01*
G54D21*
X65500Y-39011D02*
X65500Y-39208D01*
X65500Y-39208D02*
X66024Y-39208D01*
X66024Y-39011D02*
X66024Y-39208D01*
X65500Y-39011D02*
X66024Y-39011D01*
X65500Y-39511D02*
X65500Y-39708D01*
X65500Y-39708D02*
X66024Y-39708D01*
X66024Y-39511D02*
X66024Y-39708D01*
X65500Y-39511D02*
X66024Y-39511D01*
X65500Y-40011D02*
X65500Y-40208D01*
X65500Y-40208D02*
X66024Y-40208D01*
X66024Y-40011D02*
X66024Y-40208D01*
X65500Y-40011D02*
X66024Y-40011D01*
X65500Y-40511D02*
X65500Y-40708D01*
X65500Y-40708D02*
X66024Y-40708D01*
X66024Y-40511D02*
X66024Y-40708D01*
X65500Y-40511D02*
X66024Y-40511D01*
X65500Y-41011D02*
X65500Y-41208D01*
X65500Y-41208D02*
X66024Y-41208D01*
X66024Y-41011D02*
X66024Y-41208D01*
X65500Y-41011D02*
X66024Y-41011D01*
X65500Y-41511D02*
X65500Y-41708D01*
X65500Y-41708D02*
X66024Y-41708D01*
X66024Y-41511D02*
X66024Y-41708D01*
X65500Y-41511D02*
X66024Y-41511D01*
X65500Y-42011D02*
X65500Y-42208D01*
X65500Y-42208D02*
X66024Y-42208D01*
X66024Y-42011D02*
X66024Y-42208D01*
X65500Y-42011D02*
X66024Y-42011D01*
X65500Y-42511D02*
X65500Y-42708D01*
X65500Y-42708D02*
X66024Y-42708D01*
X66024Y-42511D02*
X66024Y-42708D01*
X65500Y-42511D02*
X66024Y-42511D01*
X65500Y-43010D02*
X65500Y-43207D01*
X65500Y-43207D02*
X66024Y-43207D01*
X66024Y-43010D02*
X66024Y-43207D01*
X65500Y-43010D02*
X66024Y-43010D01*
X65500Y-43510D02*
X65500Y-43707D01*
X65500Y-43707D02*
X66024Y-43707D01*
X66024Y-43510D02*
X66024Y-43707D01*
X65500Y-43510D02*
X66024Y-43510D01*
X65500Y-44010D02*
X65500Y-44207D01*
X65500Y-44207D02*
X66024Y-44207D01*
X66024Y-44010D02*
X66024Y-44207D01*
X65500Y-44010D02*
X66024Y-44010D01*
X65500Y-44510D02*
X65500Y-44707D01*
X65500Y-44707D02*
X66024Y-44707D01*
X66024Y-44510D02*
X66024Y-44707D01*
X65500Y-44510D02*
X66024Y-44510D01*
X65500Y-45010D02*
X65500Y-45207D01*
X65500Y-45207D02*
X66024Y-45207D01*
X66024Y-45010D02*
X66024Y-45207D01*
X65500Y-45010D02*
X66024Y-45010D01*
X65500Y-45510D02*
X65500Y-45707D01*
X65500Y-45707D02*
X66024Y-45707D01*
X66024Y-45510D02*
X66024Y-45707D01*
X65500Y-45510D02*
X66024Y-45510D01*
X65500Y-46010D02*
X65500Y-46207D01*
X65500Y-46207D02*
X66024Y-46207D01*
X66024Y-46010D02*
X66024Y-46207D01*
X65500Y-46010D02*
X66024Y-46010D01*
X65500Y-46510D02*
X65500Y-46707D01*
X65500Y-46707D02*
X66024Y-46707D01*
X66024Y-46510D02*
X66024Y-46707D01*
X65500Y-46510D02*
X66024Y-46510D01*
X70676Y-46510D02*
X70676Y-46707D01*
X70676Y-46707D02*
X71200Y-46707D01*
X71200Y-46510D02*
X71200Y-46707D01*
X70676Y-46510D02*
X71200Y-46510D01*
X70676Y-46010D02*
X70676Y-46207D01*
X70676Y-46207D02*
X71200Y-46207D01*
X71200Y-46010D02*
X71200Y-46207D01*
X70676Y-46010D02*
X71200Y-46010D01*
X70676Y-45510D02*
X70676Y-45707D01*
X70676Y-45707D02*
X71200Y-45707D01*
X71200Y-45510D02*
X71200Y-45707D01*
X70676Y-45510D02*
X71200Y-45510D01*
X70676Y-45010D02*
X70676Y-45207D01*
X70676Y-45207D02*
X71200Y-45207D01*
X71200Y-45010D02*
X71200Y-45207D01*
X70676Y-45010D02*
X71200Y-45010D01*
X70676Y-44510D02*
X70676Y-44707D01*
X70676Y-44707D02*
X71200Y-44707D01*
X71200Y-44510D02*
X71200Y-44707D01*
X70676Y-44510D02*
X71200Y-44510D01*
X70676Y-44010D02*
X70676Y-44207D01*
X70676Y-44207D02*
X71200Y-44207D01*
X71200Y-44010D02*
X71200Y-44207D01*
X70676Y-44010D02*
X71200Y-44010D01*
X70676Y-43510D02*
X70676Y-43707D01*
X70676Y-43707D02*
X71200Y-43707D01*
X71200Y-43510D02*
X71200Y-43707D01*
X70676Y-43510D02*
X71200Y-43510D01*
X70676Y-43010D02*
X70676Y-43207D01*
X70676Y-43207D02*
X71200Y-43207D01*
X71200Y-43010D02*
X71200Y-43207D01*
X70676Y-43010D02*
X71200Y-43010D01*
X70676Y-42511D02*
X70676Y-42708D01*
X70676Y-42708D02*
X71200Y-42708D01*
X71200Y-42511D02*
X71200Y-42708D01*
X70676Y-42511D02*
X71200Y-42511D01*
X70676Y-42011D02*
X70676Y-42208D01*
X70676Y-42208D02*
X71200Y-42208D01*
X71200Y-42011D02*
X71200Y-42208D01*
X70676Y-42011D02*
X71200Y-42011D01*
X70676Y-41511D02*
X70676Y-41708D01*
X70676Y-41708D02*
X71200Y-41708D01*
X71200Y-41511D02*
X71200Y-41708D01*
X70676Y-41511D02*
X71200Y-41511D01*
X70676Y-41011D02*
X70676Y-41208D01*
X70676Y-41208D02*
X71200Y-41208D01*
X71200Y-41011D02*
X71200Y-41208D01*
X70676Y-41011D02*
X71200Y-41011D01*
X70676Y-40511D02*
X70676Y-40708D01*
X70676Y-40708D02*
X71200Y-40708D01*
X71200Y-40511D02*
X71200Y-40708D01*
X70676Y-40511D02*
X71200Y-40511D01*
X70676Y-40011D02*
X70676Y-40208D01*
X70676Y-40208D02*
X71200Y-40208D01*
X71200Y-40011D02*
X71200Y-40208D01*
X70676Y-40011D02*
X71200Y-40011D01*
X70676Y-39511D02*
X70676Y-39708D01*
X70676Y-39708D02*
X71200Y-39708D01*
X71200Y-39511D02*
X71200Y-39708D01*
X70676Y-39511D02*
X71200Y-39511D01*
X70676Y-39011D02*
X70676Y-39208D01*
X70676Y-39208D02*
X71200Y-39208D01*
X71200Y-39011D02*
X71200Y-39208D01*
X70676Y-39011D02*
X71200Y-39011D01*
G54D16*
X70637Y-47071D02*
X66063Y-47071D01*
X66063Y-47071D02*
X66063Y-38647D01*
X66063Y-38647D02*
X70637Y-38647D01*
X70637Y-38647D02*
X70637Y-47071D01*
G54D21*
X76870Y-39052D02*
X76870Y-39249D01*
X76870Y-39249D02*
X77394Y-39249D01*
X77394Y-39052D02*
X77394Y-39249D01*
X76870Y-39052D02*
X77394Y-39052D01*
X76870Y-39552D02*
X76870Y-39749D01*
X76870Y-39749D02*
X77394Y-39749D01*
X77394Y-39552D02*
X77394Y-39749D01*
X76870Y-39552D02*
X77394Y-39552D01*
X76870Y-40052D02*
X76870Y-40249D01*
X76870Y-40249D02*
X77394Y-40249D01*
X77394Y-40052D02*
X77394Y-40249D01*
X76870Y-40052D02*
X77394Y-40052D01*
X76870Y-40552D02*
X76870Y-40749D01*
X76870Y-40749D02*
X77394Y-40749D01*
X77394Y-40552D02*
X77394Y-40749D01*
X76870Y-40552D02*
X77394Y-40552D01*
X76870Y-41052D02*
X76870Y-41249D01*
X76870Y-41249D02*
X77394Y-41249D01*
X77394Y-41052D02*
X77394Y-41249D01*
X76870Y-41052D02*
X77394Y-41052D01*
X76870Y-41552D02*
X76870Y-41749D01*
X76870Y-41749D02*
X77394Y-41749D01*
X77394Y-41552D02*
X77394Y-41749D01*
X76870Y-41552D02*
X77394Y-41552D01*
X76870Y-42052D02*
X76870Y-42249D01*
X76870Y-42249D02*
X77394Y-42249D01*
X77394Y-42052D02*
X77394Y-42249D01*
X76870Y-42052D02*
X77394Y-42052D01*
X76870Y-42552D02*
X76870Y-42749D01*
X76870Y-42749D02*
X77394Y-42749D01*
X77394Y-42552D02*
X77394Y-42749D01*
X76870Y-42552D02*
X77394Y-42552D01*
X76870Y-43051D02*
X76870Y-43248D01*
X76870Y-43248D02*
X77394Y-43248D01*
X77394Y-43051D02*
X77394Y-43248D01*
X76870Y-43051D02*
X77394Y-43051D01*
X76870Y-43551D02*
X76870Y-43748D01*
X76870Y-43748D02*
X77394Y-43748D01*
X77394Y-43551D02*
X77394Y-43748D01*
X76870Y-43551D02*
X77394Y-43551D01*
X76870Y-44051D02*
X76870Y-44248D01*
X76870Y-44248D02*
X77394Y-44248D01*
X77394Y-44051D02*
X77394Y-44248D01*
X76870Y-44051D02*
X77394Y-44051D01*
X76870Y-44551D02*
X76870Y-44748D01*
X76870Y-44748D02*
X77394Y-44748D01*
X77394Y-44551D02*
X77394Y-44748D01*
X76870Y-44551D02*
X77394Y-44551D01*
X76870Y-45051D02*
X76870Y-45248D01*
X76870Y-45248D02*
X77394Y-45248D01*
X77394Y-45051D02*
X77394Y-45248D01*
X76870Y-45051D02*
X77394Y-45051D01*
X76870Y-45551D02*
X76870Y-45748D01*
X76870Y-45748D02*
X77394Y-45748D01*
X77394Y-45551D02*
X77394Y-45748D01*
X76870Y-45551D02*
X77394Y-45551D01*
X76870Y-46051D02*
X76870Y-46248D01*
X76870Y-46248D02*
X77394Y-46248D01*
X77394Y-46051D02*
X77394Y-46248D01*
X76870Y-46051D02*
X77394Y-46051D01*
X76870Y-46551D02*
X76870Y-46748D01*
X76870Y-46748D02*
X77394Y-46748D01*
X77394Y-46551D02*
X77394Y-46748D01*
X76870Y-46551D02*
X77394Y-46551D01*
X82046Y-46551D02*
X82046Y-46748D01*
X82046Y-46748D02*
X82570Y-46748D01*
X82570Y-46551D02*
X82570Y-46748D01*
X82046Y-46551D02*
X82570Y-46551D01*
X82046Y-46051D02*
X82046Y-46248D01*
X82046Y-46248D02*
X82570Y-46248D01*
X82570Y-46051D02*
X82570Y-46248D01*
X82046Y-46051D02*
X82570Y-46051D01*
X82046Y-45551D02*
X82046Y-45748D01*
X82046Y-45748D02*
X82570Y-45748D01*
X82570Y-45551D02*
X82570Y-45748D01*
X82046Y-45551D02*
X82570Y-45551D01*
X82046Y-45051D02*
X82046Y-45248D01*
X82046Y-45248D02*
X82570Y-45248D01*
X82570Y-45051D02*
X82570Y-45248D01*
X82046Y-45051D02*
X82570Y-45051D01*
X82046Y-44551D02*
X82046Y-44748D01*
X82046Y-44748D02*
X82570Y-44748D01*
X82570Y-44551D02*
X82570Y-44748D01*
X82046Y-44551D02*
X82570Y-44551D01*
X82046Y-44051D02*
X82046Y-44248D01*
X82046Y-44248D02*
X82570Y-44248D01*
X82570Y-44051D02*
X82570Y-44248D01*
X82046Y-44051D02*
X82570Y-44051D01*
X82046Y-43551D02*
X82046Y-43748D01*
X82046Y-43748D02*
X82570Y-43748D01*
X82570Y-43551D02*
X82570Y-43748D01*
X82046Y-43551D02*
X82570Y-43551D01*
X82046Y-43051D02*
X82046Y-43248D01*
X82046Y-43248D02*
X82570Y-43248D01*
X82570Y-43051D02*
X82570Y-43248D01*
X82046Y-43051D02*
X82570Y-43051D01*
X82046Y-42552D02*
X82046Y-42749D01*
X82046Y-42749D02*
X82570Y-42749D01*
X82570Y-42552D02*
X82570Y-42749D01*
X82046Y-42552D02*
X82570Y-42552D01*
X82046Y-42052D02*
X82046Y-42249D01*
X82046Y-42249D02*
X82570Y-42249D01*
X82570Y-42052D02*
X82570Y-42249D01*
X82046Y-42052D02*
X82570Y-42052D01*
X82046Y-41552D02*
X82046Y-41749D01*
X82046Y-41749D02*
X82570Y-41749D01*
X82570Y-41552D02*
X82570Y-41749D01*
X82046Y-41552D02*
X82570Y-41552D01*
X82046Y-41052D02*
X82046Y-41249D01*
X82046Y-41249D02*
X82570Y-41249D01*
X82570Y-41052D02*
X82570Y-41249D01*
X82046Y-41052D02*
X82570Y-41052D01*
X82046Y-40552D02*
X82046Y-40749D01*
X82046Y-40749D02*
X82570Y-40749D01*
X82570Y-40552D02*
X82570Y-40749D01*
X82046Y-40552D02*
X82570Y-40552D01*
X82046Y-40052D02*
X82046Y-40249D01*
X82046Y-40249D02*
X82570Y-40249D01*
X82570Y-40052D02*
X82570Y-40249D01*
X82046Y-40052D02*
X82570Y-40052D01*
X82046Y-39552D02*
X82046Y-39749D01*
X82046Y-39749D02*
X82570Y-39749D01*
X82570Y-39552D02*
X82570Y-39749D01*
X82046Y-39552D02*
X82570Y-39552D01*
X82046Y-39052D02*
X82046Y-39249D01*
X82046Y-39249D02*
X82570Y-39249D01*
X82570Y-39052D02*
X82570Y-39249D01*
X82046Y-39052D02*
X82570Y-39052D01*
G54D16*
X82007Y-47112D02*
X77433Y-47112D01*
X77433Y-47112D02*
X77433Y-38688D01*
X77433Y-38688D02*
X82007Y-38688D01*
X82007Y-38688D02*
X82007Y-47112D01*
G54D21*
X54359Y-39052D02*
X54359Y-39249D01*
X54359Y-39249D02*
X54883Y-39249D01*
X54883Y-39052D02*
X54883Y-39249D01*
X54359Y-39052D02*
X54883Y-39052D01*
X54359Y-39552D02*
X54359Y-39749D01*
X54359Y-39749D02*
X54883Y-39749D01*
X54883Y-39552D02*
X54883Y-39749D01*
X54359Y-39552D02*
X54883Y-39552D01*
X54359Y-40052D02*
X54359Y-40249D01*
X54359Y-40249D02*
X54883Y-40249D01*
X54883Y-40052D02*
X54883Y-40249D01*
X54359Y-40052D02*
X54883Y-40052D01*
X54359Y-40552D02*
X54359Y-40749D01*
X54359Y-40749D02*
X54883Y-40749D01*
X54883Y-40552D02*
X54883Y-40749D01*
X54359Y-40552D02*
X54883Y-40552D01*
X54359Y-41052D02*
X54359Y-41249D01*
X54359Y-41249D02*
X54883Y-41249D01*
X54883Y-41052D02*
X54883Y-41249D01*
X54359Y-41052D02*
X54883Y-41052D01*
X54359Y-41552D02*
X54359Y-41749D01*
X54359Y-41749D02*
X54883Y-41749D01*
X54883Y-41552D02*
X54883Y-41749D01*
X54359Y-41552D02*
X54883Y-41552D01*
X54359Y-42052D02*
X54359Y-42249D01*
X54359Y-42249D02*
X54883Y-42249D01*
X54883Y-42052D02*
X54883Y-42249D01*
X54359Y-42052D02*
X54883Y-42052D01*
X54359Y-42552D02*
X54359Y-42749D01*
X54359Y-42749D02*
X54883Y-42749D01*
X54883Y-42552D02*
X54883Y-42749D01*
X54359Y-42552D02*
X54883Y-42552D01*
X54359Y-43051D02*
X54359Y-43248D01*
X54359Y-43248D02*
X54883Y-43248D01*
X54883Y-43051D02*
X54883Y-43248D01*
X54359Y-43051D02*
X54883Y-43051D01*
X54359Y-43551D02*
X54359Y-43748D01*
X54359Y-43748D02*
X54883Y-43748D01*
X54883Y-43551D02*
X54883Y-43748D01*
X54359Y-43551D02*
X54883Y-43551D01*
X54359Y-44051D02*
X54359Y-44248D01*
X54359Y-44248D02*
X54883Y-44248D01*
X54883Y-44051D02*
X54883Y-44248D01*
X54359Y-44051D02*
X54883Y-44051D01*
X54359Y-44551D02*
X54359Y-44748D01*
X54359Y-44748D02*
X54883Y-44748D01*
X54883Y-44551D02*
X54883Y-44748D01*
X54359Y-44551D02*
X54883Y-44551D01*
X54359Y-45051D02*
X54359Y-45248D01*
X54359Y-45248D02*
X54883Y-45248D01*
X54883Y-45051D02*
X54883Y-45248D01*
X54359Y-45051D02*
X54883Y-45051D01*
X54359Y-45551D02*
X54359Y-45748D01*
X54359Y-45748D02*
X54883Y-45748D01*
X54883Y-45551D02*
X54883Y-45748D01*
X54359Y-45551D02*
X54883Y-45551D01*
X54359Y-46051D02*
X54359Y-46248D01*
X54359Y-46248D02*
X54883Y-46248D01*
X54883Y-46051D02*
X54883Y-46248D01*
X54359Y-46051D02*
X54883Y-46051D01*
X54359Y-46551D02*
X54359Y-46748D01*
X54359Y-46748D02*
X54883Y-46748D01*
X54883Y-46551D02*
X54883Y-46748D01*
X54359Y-46551D02*
X54883Y-46551D01*
X59535Y-46551D02*
X59535Y-46748D01*
X59535Y-46748D02*
X60059Y-46748D01*
X60059Y-46551D02*
X60059Y-46748D01*
X59535Y-46551D02*
X60059Y-46551D01*
X59535Y-46051D02*
X59535Y-46248D01*
X59535Y-46248D02*
X60059Y-46248D01*
X60059Y-46051D02*
X60059Y-46248D01*
X59535Y-46051D02*
X60059Y-46051D01*
X59535Y-45551D02*
X59535Y-45748D01*
X59535Y-45748D02*
X60059Y-45748D01*
X60059Y-45551D02*
X60059Y-45748D01*
X59535Y-45551D02*
X60059Y-45551D01*
X59535Y-45051D02*
X59535Y-45248D01*
X59535Y-45248D02*
X60059Y-45248D01*
X60059Y-45051D02*
X60059Y-45248D01*
X59535Y-45051D02*
X60059Y-45051D01*
X59535Y-44551D02*
X59535Y-44748D01*
X59535Y-44748D02*
X60059Y-44748D01*
X60059Y-44551D02*
X60059Y-44748D01*
X59535Y-44551D02*
X60059Y-44551D01*
X59535Y-44051D02*
X59535Y-44248D01*
X59535Y-44248D02*
X60059Y-44248D01*
X60059Y-44051D02*
X60059Y-44248D01*
X59535Y-44051D02*
X60059Y-44051D01*
X59535Y-43551D02*
X59535Y-43748D01*
X59535Y-43748D02*
X60059Y-43748D01*
X60059Y-43551D02*
X60059Y-43748D01*
X59535Y-43551D02*
X60059Y-43551D01*
X59535Y-43051D02*
X59535Y-43248D01*
X59535Y-43248D02*
X60059Y-43248D01*
X60059Y-43051D02*
X60059Y-43248D01*
X59535Y-43051D02*
X60059Y-43051D01*
X59535Y-42552D02*
X59535Y-42749D01*
X59535Y-42749D02*
X60059Y-42749D01*
X60059Y-42552D02*
X60059Y-42749D01*
X59535Y-42552D02*
X60059Y-42552D01*
X59535Y-42052D02*
X59535Y-42249D01*
X59535Y-42249D02*
X60059Y-42249D01*
X60059Y-42052D02*
X60059Y-42249D01*
X59535Y-42052D02*
X60059Y-42052D01*
X59535Y-41552D02*
X59535Y-41749D01*
X59535Y-41749D02*
X60059Y-41749D01*
X60059Y-41552D02*
X60059Y-41749D01*
X59535Y-41552D02*
X60059Y-41552D01*
X59535Y-41052D02*
X59535Y-41249D01*
X59535Y-41249D02*
X60059Y-41249D01*
X60059Y-41052D02*
X60059Y-41249D01*
X59535Y-41052D02*
X60059Y-41052D01*
X59535Y-40552D02*
X59535Y-40749D01*
X59535Y-40749D02*
X60059Y-40749D01*
X60059Y-40552D02*
X60059Y-40749D01*
X59535Y-40552D02*
X60059Y-40552D01*
X59535Y-40052D02*
X59535Y-40249D01*
X59535Y-40249D02*
X60059Y-40249D01*
X60059Y-40052D02*
X60059Y-40249D01*
X59535Y-40052D02*
X60059Y-40052D01*
X59535Y-39552D02*
X59535Y-39749D01*
X59535Y-39749D02*
X60059Y-39749D01*
X60059Y-39552D02*
X60059Y-39749D01*
X59535Y-39552D02*
X60059Y-39552D01*
X59535Y-39052D02*
X59535Y-39249D01*
X59535Y-39249D02*
X60059Y-39249D01*
X60059Y-39052D02*
X60059Y-39249D01*
X59535Y-39052D02*
X60059Y-39052D01*
G54D16*
X59496Y-47112D02*
X54922Y-47112D01*
X54922Y-47112D02*
X54922Y-38688D01*
X54922Y-38688D02*
X59496Y-38688D01*
X59496Y-38688D02*
X59496Y-47112D01*
G54D21*
X45620Y-37499D02*
X45280Y-37499D01*
X45280Y-37499D02*
X45280Y-38639D01*
X45620Y-38639D02*
X45280Y-38639D01*
X45620Y-37499D02*
X45620Y-38639D01*
X43820Y-37499D02*
X43480Y-37499D01*
X43480Y-37499D02*
X43480Y-38639D01*
X43820Y-38639D02*
X43480Y-38639D01*
X43820Y-37499D02*
X43820Y-38639D01*
X44720Y-38339D02*
X44380Y-38339D01*
X44380Y-38339D02*
X44380Y-38639D01*
X44720Y-38639D02*
X44380Y-38639D01*
X44720Y-38339D02*
X44720Y-38639D01*
G54D16*
X43260Y-41039D02*
X43260Y-38679D01*
X43260Y-38679D02*
X45840Y-38679D01*
X45840Y-38679D02*
X45840Y-41039D01*
X45840Y-41038D02*
X43260Y-41038D01*
G54D19*
X46114Y-41884D02*
X42986Y-41884D01*
X42986Y-37174D02*
X46114Y-37174D01*
X46114Y-37174D02*
X46114Y-41884D01*
X42986Y-41884D02*
X42986Y-37174D01*
G54D16*
X45560Y-41079D02*
X45560Y-41359D01*
X45560Y-41359D02*
X45380Y-41539D01*
X45380Y-41539D02*
X43720Y-41539D01*
X43720Y-41539D02*
X43540Y-41359D01*
X43540Y-41359D02*
X43540Y-41079D01*
X43540Y-41079D02*
X45560Y-41079D01*
G54D22*
X45560Y-41079D02*
X45560Y-41359D01*
X45560Y-41359D02*
X45380Y-41539D01*
X45380Y-41539D02*
X43720Y-41539D01*
X43720Y-41539D02*
X43540Y-41359D01*
X43540Y-41359D02*
X43540Y-41079D01*
X43540Y-41079D02*
X45560Y-41079D01*
G54D18*
X97900Y-39500D02*
X98900Y-39500D01*
X98900Y-39500D02*
X98900Y-42500D01*
X98900Y-42500D02*
X97900Y-42500D01*
X97900Y-42500D02*
X97900Y-39500D01*
X98900Y-40500D02*
X97900Y-40500D01*
G54D23*
X45390Y-35589D02*
X45376Y-35604D01*
X45336Y-35619D01*
X45310Y-35619D01*
X45270Y-35604D01*
X45243Y-35573D01*
X45230Y-35543D01*
X45216Y-35482D01*
X45216Y-35436D01*
X45230Y-35375D01*
X45243Y-35345D01*
X45270Y-35314D01*
X45310Y-35299D01*
X45336Y-35299D01*
X45376Y-35314D01*
X45390Y-35330D01*
X45656Y-35619D02*
X45496Y-35619D01*
X45576Y-35619D02*
X45576Y-35299D01*
X45550Y-35345D01*
X45523Y-35375D01*
X45496Y-35390D01*
X45816Y-35436D02*
X45790Y-35421D01*
X45776Y-35406D01*
X45763Y-35375D01*
X45763Y-35360D01*
X45776Y-35330D01*
X45790Y-35314D01*
X45816Y-35299D01*
X45870Y-35299D01*
X45896Y-35314D01*
X45910Y-35330D01*
X45923Y-35360D01*
X45923Y-35375D01*
X45910Y-35406D01*
X45896Y-35421D01*
X45870Y-35436D01*
X45816Y-35436D01*
X45790Y-35451D01*
X45776Y-35467D01*
X45763Y-35497D01*
X45763Y-35558D01*
X45776Y-35589D01*
X45790Y-35604D01*
X45816Y-35619D01*
X45870Y-35619D01*
X45896Y-35604D01*
X45910Y-35589D01*
X45923Y-35558D01*
X45923Y-35497D01*
X45910Y-35467D01*
X45896Y-35451D01*
X45870Y-35436D01*
G54D16*
X81954Y-31211D02*
X81954Y-30811D01*
X82107Y-30811D01*
X82145Y-30830D01*
X82164Y-30850D01*
X82183Y-30888D01*
X82183Y-30945D01*
X82164Y-30983D01*
X82145Y-31002D01*
X82107Y-31021D01*
X81954Y-31021D01*
X82373Y-31211D02*
X82450Y-31211D01*
X82488Y-31192D01*
X82507Y-31173D01*
X82545Y-31116D01*
X82564Y-31040D01*
X82564Y-30888D01*
X82545Y-30850D01*
X82526Y-30830D01*
X82488Y-30811D01*
X82411Y-30811D01*
X82373Y-30830D01*
X82354Y-30850D01*
X82335Y-30888D01*
X82335Y-30983D01*
X82354Y-31021D01*
X82373Y-31040D01*
X82411Y-31059D01*
X82488Y-31059D01*
X82526Y-31040D01*
X82545Y-31021D01*
X82564Y-30983D01*
X110080Y-32923D02*
X110061Y-32942D01*
X110004Y-32961D01*
X109966Y-32961D01*
X109909Y-32942D01*
X109871Y-32904D01*
X109852Y-32866D01*
X109833Y-32790D01*
X109833Y-32733D01*
X109852Y-32657D01*
X109871Y-32619D01*
X109909Y-32580D01*
X109966Y-32561D01*
X110004Y-32561D01*
X110061Y-32580D01*
X110080Y-32600D01*
X110328Y-32561D02*
X110404Y-32561D01*
X110442Y-32580D01*
X110480Y-32619D01*
X110500Y-32695D01*
X110500Y-32828D01*
X110480Y-32904D01*
X110442Y-32942D01*
X110404Y-32961D01*
X110328Y-32961D01*
X110290Y-32942D01*
X110252Y-32904D01*
X110233Y-32828D01*
X110233Y-32695D01*
X110252Y-32619D01*
X110290Y-32580D01*
X110328Y-32561D01*
X110671Y-32961D02*
X110671Y-32561D01*
X110900Y-32961D01*
X110900Y-32561D01*
X111090Y-32961D02*
X111090Y-32561D01*
X111319Y-32961D01*
X111319Y-32561D01*
X111414Y-33000D02*
X111719Y-33000D01*
X111795Y-32600D02*
X111814Y-32580D01*
X111852Y-32561D01*
X111947Y-32561D01*
X111985Y-32580D01*
X112004Y-32600D01*
X112023Y-32638D01*
X112023Y-32676D01*
X112004Y-32733D01*
X111776Y-32961D01*
X112023Y-32961D01*
X112271Y-32561D02*
X112309Y-32561D01*
X112347Y-32580D01*
X112366Y-32600D01*
X112385Y-32638D01*
X112404Y-32714D01*
X112404Y-32809D01*
X112385Y-32885D01*
X112366Y-32923D01*
X112347Y-32942D01*
X112309Y-32961D01*
X112271Y-32961D01*
X112233Y-32942D01*
X112214Y-32923D01*
X112195Y-32885D01*
X112176Y-32809D01*
X112176Y-32714D01*
X112195Y-32638D01*
X112214Y-32600D01*
X112233Y-32580D01*
X112271Y-32561D01*
X112538Y-32561D02*
X112804Y-32961D01*
X112804Y-32561D02*
X112538Y-32961D01*
X112938Y-32600D02*
X112957Y-32580D01*
X112995Y-32561D01*
X113090Y-32561D01*
X113128Y-32580D01*
X113147Y-32600D01*
X113166Y-32638D01*
X113166Y-32676D01*
X113147Y-32733D01*
X112919Y-32961D01*
X113166Y-32961D01*
X58954Y-31161D02*
X58954Y-30761D01*
X59107Y-30761D01*
X59145Y-30780D01*
X59164Y-30800D01*
X59183Y-30838D01*
X59183Y-30895D01*
X59164Y-30933D01*
X59145Y-30952D01*
X59107Y-30971D01*
X58954Y-30971D01*
X59411Y-30933D02*
X59373Y-30914D01*
X59354Y-30895D01*
X59335Y-30857D01*
X59335Y-30838D01*
X59354Y-30800D01*
X59373Y-30780D01*
X59411Y-30761D01*
X59488Y-30761D01*
X59526Y-30780D01*
X59545Y-30800D01*
X59564Y-30838D01*
X59564Y-30857D01*
X59545Y-30895D01*
X59526Y-30914D01*
X59488Y-30933D01*
X59411Y-30933D01*
X59373Y-30952D01*
X59354Y-30971D01*
X59335Y-31009D01*
X59335Y-31085D01*
X59354Y-31123D01*
X59373Y-31142D01*
X59411Y-31161D01*
X59488Y-31161D01*
X59526Y-31142D01*
X59545Y-31123D01*
X59564Y-31085D01*
X59564Y-31009D01*
X59545Y-30971D01*
X59526Y-30952D01*
X59488Y-30933D01*
X109980Y-31923D02*
X109961Y-31942D01*
X109904Y-31961D01*
X109866Y-31961D01*
X109809Y-31942D01*
X109771Y-31904D01*
X109752Y-31866D01*
X109733Y-31790D01*
X109733Y-31733D01*
X109752Y-31657D01*
X109771Y-31619D01*
X109809Y-31580D01*
X109866Y-31561D01*
X109904Y-31561D01*
X109961Y-31580D01*
X109980Y-31600D01*
X110228Y-31561D02*
X110304Y-31561D01*
X110342Y-31580D01*
X110380Y-31619D01*
X110400Y-31695D01*
X110400Y-31828D01*
X110380Y-31904D01*
X110342Y-31942D01*
X110304Y-31961D01*
X110228Y-31961D01*
X110190Y-31942D01*
X110152Y-31904D01*
X110133Y-31828D01*
X110133Y-31695D01*
X110152Y-31619D01*
X110190Y-31580D01*
X110228Y-31561D01*
X110571Y-31961D02*
X110571Y-31561D01*
X110800Y-31961D01*
X110800Y-31561D01*
X110990Y-31961D02*
X110990Y-31561D01*
X111219Y-31961D01*
X111219Y-31561D01*
X111314Y-32000D02*
X111619Y-32000D01*
X111695Y-31600D02*
X111714Y-31580D01*
X111752Y-31561D01*
X111847Y-31561D01*
X111885Y-31580D01*
X111904Y-31600D01*
X111923Y-31638D01*
X111923Y-31676D01*
X111904Y-31733D01*
X111676Y-31961D01*
X111923Y-31961D01*
X112171Y-31561D02*
X112209Y-31561D01*
X112247Y-31580D01*
X112266Y-31600D01*
X112285Y-31638D01*
X112304Y-31714D01*
X112304Y-31809D01*
X112285Y-31885D01*
X112266Y-31923D01*
X112247Y-31942D01*
X112209Y-31961D01*
X112171Y-31961D01*
X112133Y-31942D01*
X112114Y-31923D01*
X112095Y-31885D01*
X112076Y-31809D01*
X112076Y-31714D01*
X112095Y-31638D01*
X112114Y-31600D01*
X112133Y-31580D01*
X112171Y-31561D01*
X112438Y-31561D02*
X112704Y-31961D01*
X112704Y-31561D02*
X112438Y-31961D01*
X112838Y-31600D02*
X112857Y-31580D01*
X112895Y-31561D01*
X112990Y-31561D01*
X113028Y-31580D01*
X113047Y-31600D01*
X113066Y-31638D01*
X113066Y-31676D01*
X113047Y-31733D01*
X112819Y-31961D01*
X113066Y-31961D01*
G54D11*
X49416Y-37202D02*
X49250Y-36964D01*
X49130Y-37202D02*
X49130Y-36702D01*
X49321Y-36702D01*
X49369Y-36726D01*
X49392Y-36750D01*
X49416Y-36797D01*
X49416Y-36869D01*
X49392Y-36916D01*
X49369Y-36940D01*
X49321Y-36964D01*
X49130Y-36964D01*
X49892Y-37202D02*
X49607Y-37202D01*
X49750Y-37202D02*
X49750Y-36702D01*
X49702Y-36773D01*
X49654Y-36821D01*
X49607Y-36845D01*
X29412Y-36417D02*
X29721Y-36417D01*
X29555Y-36607D01*
X29626Y-36607D01*
X29674Y-36631D01*
X29698Y-36655D01*
X29721Y-36703D01*
X29721Y-36822D01*
X29698Y-36869D01*
X29674Y-36893D01*
X29626Y-36917D01*
X29483Y-36917D01*
X29436Y-36893D01*
X29412Y-36869D01*
X29888Y-36417D02*
X30198Y-36417D01*
X30031Y-36607D01*
X30102Y-36607D01*
X30150Y-36631D01*
X30174Y-36655D01*
X30198Y-36703D01*
X30198Y-36822D01*
X30174Y-36869D01*
X30150Y-36893D01*
X30102Y-36917D01*
X29959Y-36917D01*
X29912Y-36893D01*
X29888Y-36869D01*
X30507Y-36417D02*
X30555Y-36417D01*
X30602Y-36441D01*
X30626Y-36465D01*
X30650Y-36512D01*
X30674Y-36607D01*
X30674Y-36726D01*
X30650Y-36822D01*
X30626Y-36869D01*
X30602Y-36893D01*
X30555Y-36917D01*
X30507Y-36917D01*
X30459Y-36893D01*
X30436Y-36869D01*
X30412Y-36822D01*
X30388Y-36726D01*
X30388Y-36607D01*
X30412Y-36512D01*
X30436Y-36465D01*
X30459Y-36441D01*
X30507Y-36417D01*
G54D17*
X46883Y-35896D02*
X46883Y-35596D01*
X46954Y-35596D01*
X46997Y-35610D01*
X47026Y-35639D01*
X47040Y-35667D01*
X47054Y-35725D01*
X47054Y-35767D01*
X47040Y-35825D01*
X47026Y-35853D01*
X46997Y-35882D01*
X46954Y-35896D01*
X46883Y-35896D01*
X47340Y-35896D02*
X47169Y-35896D01*
X47254Y-35896D02*
X47254Y-35596D01*
X47226Y-35639D01*
X47197Y-35667D01*
X47169Y-35682D01*
X27966Y-38141D02*
X27966Y-37841D01*
X28081Y-37841D01*
X28109Y-37855D01*
X28124Y-37870D01*
X28138Y-37898D01*
X28138Y-37941D01*
X28124Y-37970D01*
X28109Y-37984D01*
X28081Y-37998D01*
X27966Y-37998D01*
X28324Y-37841D02*
X28381Y-37841D01*
X28409Y-37855D01*
X28438Y-37884D01*
X28452Y-37941D01*
X28452Y-38041D01*
X28438Y-38098D01*
X28409Y-38127D01*
X28381Y-38141D01*
X28324Y-38141D01*
X28295Y-38127D01*
X28266Y-38098D01*
X28252Y-38041D01*
X28252Y-37941D01*
X28266Y-37884D01*
X28295Y-37855D01*
X28324Y-37841D01*
X28552Y-37841D02*
X28624Y-38141D01*
X28681Y-37927D01*
X28738Y-38141D01*
X28809Y-37841D01*
X28924Y-37984D02*
X29024Y-37984D01*
X29066Y-38141D02*
X28924Y-38141D01*
X28924Y-37841D01*
X29066Y-37841D01*
X29366Y-38141D02*
X29266Y-37998D01*
X29195Y-38141D02*
X29195Y-37841D01*
X29309Y-37841D01*
X29338Y-37855D01*
X29352Y-37870D01*
X29366Y-37898D01*
X29366Y-37941D01*
X29352Y-37970D01*
X29338Y-37984D01*
X29309Y-37998D01*
X29195Y-37998D01*
G54D19*
X49108Y-35889D02*
X49108Y-35692D01*
X49220Y-35889D02*
X49136Y-35777D01*
X49220Y-35692D02*
X49108Y-35805D01*
G54D17*
X96181Y-35771D02*
X95881Y-35771D01*
X95881Y-35700D01*
X95895Y-35657D01*
X95924Y-35628D01*
X95952Y-35614D01*
X96010Y-35600D01*
X96052Y-35600D01*
X96110Y-35614D01*
X96138Y-35628D01*
X96167Y-35657D01*
X96181Y-35700D01*
X96181Y-35771D01*
X95881Y-35328D02*
X95881Y-35471D01*
X96024Y-35485D01*
X96010Y-35471D01*
X95995Y-35442D01*
X95995Y-35371D01*
X96010Y-35342D01*
X96024Y-35328D01*
X96052Y-35314D01*
X96124Y-35314D01*
X96152Y-35328D01*
X96167Y-35342D01*
X96181Y-35371D01*
X96181Y-35442D01*
X96167Y-35471D01*
X96152Y-35485D01*
X96971Y-29492D02*
X96971Y-29635D01*
X96671Y-29635D01*
X96814Y-29392D02*
X96814Y-29292D01*
X96971Y-29250D02*
X96971Y-29392D01*
X96671Y-29392D01*
X96671Y-29250D01*
X96971Y-29121D02*
X96671Y-29121D01*
X96671Y-29050D01*
X96685Y-29007D01*
X96714Y-28978D01*
X96742Y-28964D01*
X96800Y-28950D01*
X96842Y-28950D01*
X96900Y-28964D01*
X96928Y-28978D01*
X96957Y-29007D01*
X96971Y-29050D01*
X96971Y-29121D01*
G54D19*
X96829Y-34751D02*
X96632Y-34751D01*
X96829Y-34639D02*
X96717Y-34723D01*
X96632Y-34639D02*
X96745Y-34751D01*
G54D17*
X98746Y-35801D02*
X98446Y-35801D01*
X98446Y-35730D01*
X98460Y-35687D01*
X98489Y-35658D01*
X98517Y-35644D01*
X98575Y-35630D01*
X98617Y-35630D01*
X98675Y-35644D01*
X98703Y-35658D01*
X98732Y-35687D01*
X98746Y-35730D01*
X98746Y-35801D01*
X98446Y-35372D02*
X98446Y-35430D01*
X98460Y-35458D01*
X98475Y-35472D01*
X98517Y-35501D01*
X98575Y-35515D01*
X98689Y-35515D01*
X98717Y-35501D01*
X98732Y-35487D01*
X98746Y-35458D01*
X98746Y-35401D01*
X98732Y-35372D01*
X98717Y-35358D01*
X98689Y-35344D01*
X98617Y-35344D01*
X98589Y-35358D01*
X98575Y-35372D01*
X98560Y-35401D01*
X98560Y-35458D01*
X98575Y-35487D01*
X98589Y-35501D01*
X98617Y-35515D01*
X98021Y-28792D02*
X98021Y-28935D01*
X97721Y-28935D01*
X97864Y-28692D02*
X97864Y-28592D01*
X98021Y-28550D02*
X98021Y-28692D01*
X97721Y-28692D01*
X97721Y-28550D01*
X98021Y-28421D02*
X97721Y-28421D01*
X97721Y-28350D01*
X97735Y-28307D01*
X97764Y-28278D01*
X97792Y-28264D01*
X97850Y-28250D01*
X97892Y-28250D01*
X97950Y-28264D01*
X97978Y-28278D01*
X98007Y-28307D01*
X98021Y-28350D01*
X98021Y-28421D01*
G54D19*
X98129Y-34751D02*
X97932Y-34751D01*
X98129Y-34639D02*
X98017Y-34723D01*
X97932Y-34639D02*
X98045Y-34751D01*
G54D24*
X110304Y-31061D02*
X110304Y-30661D01*
X110457Y-30661D01*
X110495Y-30680D01*
X110514Y-30700D01*
X110533Y-30738D01*
X110533Y-30795D01*
X110514Y-30833D01*
X110495Y-30852D01*
X110457Y-30871D01*
X110304Y-30871D01*
X110876Y-30795D02*
X110876Y-31061D01*
X110780Y-30642D02*
X110685Y-30928D01*
X110933Y-30928D01*
X110104Y-36361D02*
X110104Y-35961D01*
X110257Y-35961D01*
X110295Y-35980D01*
X110314Y-36000D01*
X110333Y-36038D01*
X110333Y-36095D01*
X110314Y-36133D01*
X110295Y-36152D01*
X110257Y-36171D01*
X110104Y-36171D01*
X110485Y-36000D02*
X110504Y-35980D01*
X110542Y-35961D01*
X110638Y-35961D01*
X110676Y-35980D01*
X110695Y-36000D01*
X110714Y-36038D01*
X110714Y-36076D01*
X110695Y-36133D01*
X110466Y-36361D01*
X110714Y-36361D01*
X42904Y-70161D02*
X42904Y-69761D01*
X43057Y-69761D01*
X43095Y-69780D01*
X43114Y-69800D01*
X43133Y-69838D01*
X43133Y-69895D01*
X43114Y-69933D01*
X43095Y-69952D01*
X43057Y-69971D01*
X42904Y-69971D01*
X43514Y-70161D02*
X43285Y-70161D01*
X43400Y-70161D02*
X43400Y-69761D01*
X43361Y-69819D01*
X43323Y-69857D01*
X43285Y-69876D01*
X109904Y-56661D02*
X109904Y-56261D01*
X110057Y-56261D01*
X110095Y-56280D01*
X110114Y-56300D01*
X110133Y-56338D01*
X110133Y-56395D01*
X110114Y-56433D01*
X110095Y-56452D01*
X110057Y-56471D01*
X109904Y-56471D01*
X110266Y-56261D02*
X110514Y-56261D01*
X110380Y-56414D01*
X110438Y-56414D01*
X110476Y-56433D01*
X110495Y-56452D01*
X110514Y-56490D01*
X110514Y-56585D01*
X110495Y-56623D01*
X110476Y-56642D01*
X110438Y-56661D01*
X110323Y-56661D01*
X110285Y-56642D01*
X110266Y-56623D01*
G54D23*
X48424Y-39644D02*
X48439Y-39658D01*
X48454Y-39698D01*
X48454Y-39724D01*
X48439Y-39764D01*
X48409Y-39791D01*
X48378Y-39804D01*
X48317Y-39818D01*
X48271Y-39818D01*
X48210Y-39804D01*
X48180Y-39791D01*
X48149Y-39764D01*
X48134Y-39724D01*
X48134Y-39698D01*
X48149Y-39658D01*
X48165Y-39644D01*
X48165Y-39538D02*
X48149Y-39524D01*
X48134Y-39498D01*
X48134Y-39431D01*
X48149Y-39404D01*
X48165Y-39391D01*
X48195Y-39378D01*
X48226Y-39378D01*
X48271Y-39391D01*
X48454Y-39551D01*
X48454Y-39378D01*
X48241Y-39138D02*
X48454Y-39138D01*
X48119Y-39204D02*
X48348Y-39271D01*
X48348Y-39098D01*
G54D16*
G54D23*
X48424Y-41544D02*
X48439Y-41558D01*
X48454Y-41598D01*
X48454Y-41624D01*
X48439Y-41664D01*
X48409Y-41691D01*
X48378Y-41704D01*
X48317Y-41718D01*
X48271Y-41718D01*
X48210Y-41704D01*
X48180Y-41691D01*
X48149Y-41664D01*
X48134Y-41624D01*
X48134Y-41598D01*
X48149Y-41558D01*
X48165Y-41544D01*
X48134Y-41451D02*
X48134Y-41278D01*
X48256Y-41371D01*
X48256Y-41331D01*
X48271Y-41304D01*
X48287Y-41291D01*
X48317Y-41278D01*
X48393Y-41278D01*
X48424Y-41291D01*
X48439Y-41304D01*
X48454Y-41331D01*
X48454Y-41411D01*
X48439Y-41438D01*
X48424Y-41451D01*
X48134Y-41038D02*
X48134Y-41091D01*
X48149Y-41118D01*
X48165Y-41131D01*
X48210Y-41158D01*
X48271Y-41171D01*
X48393Y-41171D01*
X48424Y-41158D01*
X48439Y-41144D01*
X48454Y-41118D01*
X48454Y-41064D01*
X48439Y-41038D01*
X48424Y-41024D01*
X48393Y-41011D01*
X48317Y-41011D01*
X48287Y-41024D01*
X48271Y-41038D01*
X48256Y-41064D01*
X48256Y-41118D01*
X48271Y-41144D01*
X48287Y-41158D01*
X48317Y-41171D01*
G54D16*
G54D23*
X48424Y-43494D02*
X48439Y-43508D01*
X48454Y-43548D01*
X48454Y-43574D01*
X48439Y-43614D01*
X48409Y-43641D01*
X48378Y-43654D01*
X48317Y-43668D01*
X48271Y-43668D01*
X48210Y-43654D01*
X48180Y-43641D01*
X48149Y-43614D01*
X48134Y-43574D01*
X48134Y-43548D01*
X48149Y-43508D01*
X48165Y-43494D01*
X48134Y-43401D02*
X48134Y-43228D01*
X48256Y-43321D01*
X48256Y-43281D01*
X48271Y-43254D01*
X48287Y-43241D01*
X48317Y-43228D01*
X48393Y-43228D01*
X48424Y-43241D01*
X48439Y-43254D01*
X48454Y-43281D01*
X48454Y-43361D01*
X48439Y-43388D01*
X48424Y-43401D01*
X48271Y-43068D02*
X48256Y-43094D01*
X48241Y-43108D01*
X48210Y-43121D01*
X48195Y-43121D01*
X48165Y-43108D01*
X48149Y-43094D01*
X48134Y-43068D01*
X48134Y-43014D01*
X48149Y-42988D01*
X48165Y-42974D01*
X48195Y-42961D01*
X48210Y-42961D01*
X48241Y-42974D01*
X48256Y-42988D01*
X48271Y-43014D01*
X48271Y-43068D01*
X48287Y-43094D01*
X48302Y-43108D01*
X48332Y-43121D01*
X48393Y-43121D01*
X48424Y-43108D01*
X48439Y-43094D01*
X48454Y-43068D01*
X48454Y-43014D01*
X48439Y-42988D01*
X48424Y-42974D01*
X48393Y-42961D01*
X48332Y-42961D01*
X48302Y-42974D01*
X48287Y-42988D01*
X48271Y-43014D01*
G54D16*
G54D23*
X43440Y-35609D02*
X43426Y-35624D01*
X43386Y-35639D01*
X43360Y-35639D01*
X43320Y-35624D01*
X43293Y-35593D01*
X43280Y-35563D01*
X43266Y-35502D01*
X43266Y-35456D01*
X43280Y-35395D01*
X43293Y-35365D01*
X43320Y-35334D01*
X43360Y-35319D01*
X43386Y-35319D01*
X43426Y-35334D01*
X43440Y-35350D01*
X43533Y-35319D02*
X43706Y-35319D01*
X43613Y-35441D01*
X43653Y-35441D01*
X43680Y-35456D01*
X43693Y-35471D01*
X43706Y-35502D01*
X43706Y-35578D01*
X43693Y-35609D01*
X43680Y-35624D01*
X43653Y-35639D01*
X43573Y-35639D01*
X43546Y-35624D01*
X43533Y-35609D01*
X43946Y-35426D02*
X43946Y-35639D01*
X43880Y-35304D02*
X43813Y-35532D01*
X43986Y-35532D01*
G54D16*
X93764Y-31261D02*
X93764Y-30861D01*
X93916Y-30861D01*
X93954Y-30880D01*
X93973Y-30900D01*
X93992Y-30938D01*
X93992Y-30995D01*
X93973Y-31033D01*
X93954Y-31052D01*
X93916Y-31071D01*
X93764Y-31071D01*
X94373Y-31261D02*
X94145Y-31261D01*
X94259Y-31261D02*
X94259Y-30861D01*
X94221Y-30919D01*
X94183Y-30957D01*
X94145Y-30976D01*
X94754Y-31261D02*
X94526Y-31261D01*
X94640Y-31261D02*
X94640Y-30861D01*
X94602Y-30919D01*
X94564Y-30957D01*
X94526Y-30976D01*
G54D11*
X102902Y-41180D02*
X103307Y-41180D01*
X103354Y-41157D01*
X103378Y-41133D01*
X103402Y-41085D01*
X103402Y-40990D01*
X103378Y-40942D01*
X103354Y-40919D01*
X103307Y-40895D01*
X102902Y-40895D01*
X103069Y-40442D02*
X103402Y-40442D01*
X102878Y-40561D02*
X103235Y-40680D01*
X103235Y-40371D01*
X103678Y-45047D02*
X103702Y-44976D01*
X103702Y-44857D01*
X103678Y-44809D01*
X103654Y-44785D01*
X103607Y-44761D01*
X103559Y-44761D01*
X103511Y-44785D01*
X103488Y-44809D01*
X103464Y-44857D01*
X103440Y-44952D01*
X103416Y-45000D01*
X103392Y-45023D01*
X103345Y-45047D01*
X103297Y-45047D01*
X103250Y-45023D01*
X103226Y-45000D01*
X103202Y-44952D01*
X103202Y-44833D01*
X103226Y-44761D01*
X103702Y-44261D02*
X103464Y-44428D01*
X103702Y-44547D02*
X103202Y-44547D01*
X103202Y-44357D01*
X103226Y-44309D01*
X103250Y-44285D01*
X103297Y-44261D01*
X103369Y-44261D01*
X103416Y-44285D01*
X103440Y-44309D01*
X103464Y-44357D01*
X103464Y-44547D01*
X103559Y-44071D02*
X103559Y-43833D01*
X103702Y-44119D02*
X103202Y-43952D01*
X103702Y-43785D01*
X103702Y-43619D02*
X103202Y-43619D01*
X103559Y-43452D01*
X103202Y-43285D01*
X103702Y-43285D01*
X103750Y-43166D02*
X103750Y-42785D01*
X103702Y-42404D02*
X103702Y-42690D01*
X103702Y-42547D02*
X103202Y-42547D01*
X103273Y-42595D01*
X103321Y-42642D01*
X103345Y-42690D01*
X103250Y-42214D02*
X103226Y-42190D01*
X103202Y-42142D01*
X103202Y-42023D01*
X103226Y-41976D01*
X103250Y-41952D01*
X103297Y-41928D01*
X103345Y-41928D01*
X103416Y-41952D01*
X103702Y-42238D01*
X103702Y-41928D01*
X103416Y-41642D02*
X103392Y-41690D01*
X103369Y-41714D01*
X103321Y-41738D01*
X103297Y-41738D01*
X103250Y-41714D01*
X103226Y-41690D01*
X103202Y-41642D01*
X103202Y-41547D01*
X103226Y-41499D01*
X103250Y-41476D01*
X103297Y-41452D01*
X103321Y-41452D01*
X103369Y-41476D01*
X103392Y-41499D01*
X103416Y-41547D01*
X103416Y-41642D01*
X103440Y-41690D01*
X103464Y-41714D01*
X103511Y-41738D01*
X103607Y-41738D01*
X103654Y-41714D01*
X103678Y-41690D01*
X103702Y-41642D01*
X103702Y-41547D01*
X103678Y-41499D01*
X103654Y-41476D01*
X103607Y-41452D01*
X103511Y-41452D01*
X103464Y-41476D01*
X103440Y-41499D01*
X103416Y-41547D01*
X103702Y-41238D02*
X103202Y-41238D01*
X103702Y-40952D02*
X103416Y-41166D01*
X103202Y-40952D02*
X103488Y-41238D01*
X103440Y-40571D02*
X103464Y-40499D01*
X103488Y-40476D01*
X103535Y-40452D01*
X103607Y-40452D01*
X103654Y-40476D01*
X103678Y-40499D01*
X103702Y-40547D01*
X103702Y-40738D01*
X103202Y-40738D01*
X103202Y-40571D01*
X103226Y-40523D01*
X103250Y-40499D01*
X103297Y-40476D01*
X103345Y-40476D01*
X103392Y-40499D01*
X103416Y-40523D01*
X103440Y-40571D01*
X103440Y-40738D01*
G54D25*
X101642Y-41102D02*
X101357Y-41102D01*
X101500Y-41102D02*
X101500Y-40602D01*
X101452Y-40673D01*
X101404Y-40721D01*
X101357Y-40745D01*
G54D11*
X101752Y-43130D02*
X102157Y-43130D01*
X102204Y-43107D01*
X102228Y-43083D01*
X102252Y-43035D01*
X102252Y-42940D01*
X102228Y-42892D01*
X102204Y-42869D01*
X102157Y-42845D01*
X101752Y-42845D01*
X101800Y-42630D02*
X101776Y-42607D01*
X101752Y-42559D01*
X101752Y-42440D01*
X101776Y-42392D01*
X101800Y-42369D01*
X101847Y-42345D01*
X101895Y-42345D01*
X101966Y-42369D01*
X102252Y-42654D01*
X102252Y-42345D01*
X102578Y-44697D02*
X102602Y-44626D01*
X102602Y-44507D01*
X102578Y-44459D01*
X102554Y-44435D01*
X102507Y-44411D01*
X102459Y-44411D01*
X102411Y-44435D01*
X102388Y-44459D01*
X102364Y-44507D01*
X102340Y-44602D01*
X102316Y-44650D01*
X102292Y-44673D01*
X102245Y-44697D01*
X102197Y-44697D01*
X102150Y-44673D01*
X102126Y-44650D01*
X102102Y-44602D01*
X102102Y-44483D01*
X102126Y-44411D01*
X102602Y-43911D02*
X102364Y-44078D01*
X102602Y-44197D02*
X102102Y-44197D01*
X102102Y-44007D01*
X102126Y-43959D01*
X102150Y-43935D01*
X102197Y-43911D01*
X102269Y-43911D01*
X102316Y-43935D01*
X102340Y-43959D01*
X102364Y-44007D01*
X102364Y-44197D01*
X102459Y-43721D02*
X102459Y-43483D01*
X102602Y-43769D02*
X102102Y-43602D01*
X102602Y-43435D01*
X102602Y-43269D02*
X102102Y-43269D01*
X102459Y-43102D01*
X102102Y-42935D01*
X102602Y-42935D01*
X102650Y-42816D02*
X102650Y-42435D01*
X102602Y-42054D02*
X102602Y-42340D01*
X102602Y-42197D02*
X102102Y-42197D01*
X102173Y-42245D01*
X102221Y-42292D01*
X102245Y-42340D01*
X102150Y-41864D02*
X102126Y-41840D01*
X102102Y-41792D01*
X102102Y-41673D01*
X102126Y-41626D01*
X102150Y-41602D01*
X102197Y-41578D01*
X102245Y-41578D01*
X102316Y-41602D01*
X102602Y-41888D01*
X102602Y-41578D01*
X102316Y-41292D02*
X102292Y-41340D01*
X102269Y-41364D01*
X102221Y-41388D01*
X102197Y-41388D01*
X102150Y-41364D01*
X102126Y-41340D01*
X102102Y-41292D01*
X102102Y-41197D01*
X102126Y-41149D01*
X102150Y-41126D01*
X102197Y-41102D01*
X102221Y-41102D01*
X102269Y-41126D01*
X102292Y-41149D01*
X102316Y-41197D01*
X102316Y-41292D01*
X102340Y-41340D01*
X102364Y-41364D01*
X102411Y-41388D01*
X102507Y-41388D01*
X102554Y-41364D01*
X102578Y-41340D01*
X102602Y-41292D01*
X102602Y-41197D01*
X102578Y-41149D01*
X102554Y-41126D01*
X102507Y-41102D01*
X102411Y-41102D01*
X102364Y-41126D01*
X102340Y-41149D01*
X102316Y-41197D01*
X102602Y-40888D02*
X102102Y-40888D01*
X102602Y-40602D02*
X102316Y-40816D01*
X102102Y-40602D02*
X102388Y-40888D01*
X102340Y-40221D02*
X102364Y-40149D01*
X102388Y-40126D01*
X102435Y-40102D01*
X102507Y-40102D01*
X102554Y-40126D01*
X102578Y-40149D01*
X102602Y-40197D01*
X102602Y-40388D01*
X102102Y-40388D01*
X102102Y-40221D01*
X102126Y-40173D01*
X102150Y-40149D01*
X102197Y-40126D01*
X102245Y-40126D01*
X102292Y-40149D01*
X102316Y-40173D01*
X102340Y-40221D01*
X102340Y-40388D01*
G54D25*
X37192Y-38302D02*
X36907Y-38302D01*
X37050Y-38302D02*
X37050Y-37802D01*
X37002Y-37873D01*
X36954Y-37921D01*
X36907Y-37945D01*
G54D26*
X102635Y-40762D02*
X101930Y-40762D01*
X102635Y-40520D02*
X102232Y-40702D01*
X101930Y-40520D02*
X102333Y-40762D01*
X102635Y-40116D02*
X102635Y-40359D01*
X102635Y-40238D02*
X101930Y-40238D01*
X102031Y-40278D01*
X102098Y-40318D01*
X102131Y-40359D01*
G54D18*
M02*
