G04 (created by PCBNEW (2013-07-07 BZR 4022)-stable) date 5/2/2015 5:14:18 PM*
%MOIN*%
G04 Gerber Fmt 3.4, Leading zero omitted, Abs format*
%FSLAX34Y34*%
G01*
G70*
G90*
G04 APERTURE LIST*
%ADD10C,0.00590551*%
%ADD11R,0.1X0.08*%
%ADD12R,0.08X0.08*%
%ADD13C,0.08*%
%ADD14R,0.0711X0.079*%
%ADD15R,0.0672X0.0672*%
%ADD16C,0.18*%
%ADD17R,0.08X0.1*%
%ADD18R,0.1066X0.0436*%
%ADD19R,0.0593X0.0829*%
%ADD20R,0.2325X0.264*%
%ADD21R,0.075X0.075*%
%ADD22C,0.075*%
%ADD23C,0.0672441*%
%ADD24O,0.118425X0.157795*%
%ADD25C,0.157795*%
G04 APERTURE END LIST*
G54D10*
G54D11*
X45570Y-36140D03*
X45570Y-34840D03*
G54D12*
X72750Y-33000D03*
G54D13*
X72750Y-32000D03*
X77750Y-33000D03*
X73750Y-32000D03*
X78750Y-33000D03*
X74750Y-32000D03*
X79750Y-33000D03*
X75750Y-32000D03*
X80750Y-33000D03*
X76750Y-32000D03*
X81750Y-33000D03*
X77750Y-32000D03*
X82750Y-33000D03*
X78750Y-32000D03*
X83750Y-33000D03*
X79750Y-32000D03*
X84750Y-33000D03*
X80750Y-32000D03*
X85750Y-33000D03*
X81750Y-32000D03*
X86750Y-33000D03*
X82750Y-32000D03*
X87750Y-33000D03*
X83750Y-32000D03*
X84750Y-32000D03*
X88750Y-33000D03*
X85750Y-32000D03*
X87750Y-32000D03*
X88750Y-32000D03*
X89750Y-32000D03*
X90750Y-32000D03*
X89750Y-33000D03*
X90750Y-33000D03*
X73750Y-33000D03*
X74750Y-33000D03*
X75750Y-33000D03*
X76750Y-33000D03*
X91750Y-33000D03*
X91750Y-32000D03*
X86750Y-32000D03*
G54D12*
X49750Y-33000D03*
G54D13*
X49750Y-32000D03*
X54750Y-33000D03*
X50750Y-32000D03*
X55750Y-33000D03*
X51750Y-32000D03*
X56750Y-33000D03*
X52750Y-32000D03*
X57750Y-33000D03*
X53750Y-32000D03*
X58750Y-33000D03*
X54750Y-32000D03*
X59750Y-33000D03*
X55750Y-32000D03*
X60750Y-33000D03*
X56750Y-32000D03*
X61750Y-33000D03*
X57750Y-32000D03*
X62750Y-33000D03*
X58750Y-32000D03*
X63750Y-33000D03*
X59750Y-32000D03*
X64750Y-33000D03*
X60750Y-32000D03*
X61750Y-32000D03*
X65750Y-33000D03*
X62750Y-32000D03*
X64750Y-32000D03*
X65750Y-32000D03*
X66750Y-32000D03*
X67750Y-32000D03*
X66750Y-33000D03*
X67750Y-33000D03*
X50750Y-33000D03*
X51750Y-33000D03*
X52750Y-33000D03*
X53750Y-33000D03*
X68750Y-33000D03*
X68750Y-32000D03*
X63750Y-32000D03*
G54D14*
X48614Y-36930D03*
X47866Y-36930D03*
G54D15*
X47846Y-35760D03*
X48672Y-35760D03*
X96700Y-36013D03*
X96700Y-35187D03*
X98000Y-36013D03*
X98000Y-35187D03*
G54D16*
X98350Y-32500D03*
X43150Y-32500D03*
X43150Y-58100D03*
X98350Y-58100D03*
G54D17*
X47675Y-39464D03*
X48975Y-39464D03*
X47675Y-41364D03*
X48975Y-41364D03*
X47675Y-43314D03*
X48975Y-43314D03*
G54D11*
X43620Y-36160D03*
X43620Y-34860D03*
G54D12*
X93750Y-33000D03*
G54D13*
X93750Y-32000D03*
X94750Y-33000D03*
X94750Y-32000D03*
G54D18*
X88651Y-39179D03*
X88651Y-39679D03*
X88651Y-40179D03*
X88651Y-40679D03*
X88651Y-41179D03*
X88651Y-41679D03*
X88651Y-42179D03*
X88651Y-42679D03*
X88651Y-43179D03*
X88651Y-43679D03*
X88651Y-44179D03*
X88651Y-44679D03*
X88651Y-45179D03*
X88651Y-45679D03*
X88651Y-46179D03*
X88651Y-46679D03*
X93689Y-46679D03*
X93689Y-46179D03*
X93689Y-45679D03*
X93689Y-45179D03*
X93689Y-44679D03*
X93689Y-44179D03*
X93689Y-43679D03*
X93689Y-43179D03*
X93689Y-42679D03*
X93689Y-42179D03*
X93689Y-41679D03*
X93689Y-41179D03*
X93689Y-40679D03*
X93689Y-40179D03*
X93689Y-39679D03*
X93689Y-39179D03*
X65831Y-39109D03*
X65831Y-39609D03*
X65831Y-40109D03*
X65831Y-40609D03*
X65831Y-41109D03*
X65831Y-41609D03*
X65831Y-42109D03*
X65831Y-42609D03*
X65831Y-43109D03*
X65831Y-43609D03*
X65831Y-44109D03*
X65831Y-44609D03*
X65831Y-45109D03*
X65831Y-45609D03*
X65831Y-46109D03*
X65831Y-46609D03*
X70869Y-46609D03*
X70869Y-46109D03*
X70869Y-45609D03*
X70869Y-45109D03*
X70869Y-44609D03*
X70869Y-44109D03*
X70869Y-43609D03*
X70869Y-43109D03*
X70869Y-42609D03*
X70869Y-42109D03*
X70869Y-41609D03*
X70869Y-41109D03*
X70869Y-40609D03*
X70869Y-40109D03*
X70869Y-39609D03*
X70869Y-39109D03*
X77201Y-39150D03*
X77201Y-39650D03*
X77201Y-40150D03*
X77201Y-40650D03*
X77201Y-41150D03*
X77201Y-41650D03*
X77201Y-42150D03*
X77201Y-42650D03*
X77201Y-43150D03*
X77201Y-43650D03*
X77201Y-44150D03*
X77201Y-44650D03*
X77201Y-45150D03*
X77201Y-45650D03*
X77201Y-46150D03*
X77201Y-46650D03*
X82239Y-46650D03*
X82239Y-46150D03*
X82239Y-45650D03*
X82239Y-45150D03*
X82239Y-44650D03*
X82239Y-44150D03*
X82239Y-43650D03*
X82239Y-43150D03*
X82239Y-42650D03*
X82239Y-42150D03*
X82239Y-41650D03*
X82239Y-41150D03*
X82239Y-40650D03*
X82239Y-40150D03*
X82239Y-39650D03*
X82239Y-39150D03*
X54690Y-39150D03*
X54690Y-39650D03*
X54690Y-40150D03*
X54690Y-40650D03*
X54690Y-41150D03*
X54690Y-41650D03*
X54690Y-42150D03*
X54690Y-42650D03*
X54690Y-43150D03*
X54690Y-43650D03*
X54690Y-44150D03*
X54690Y-44650D03*
X54690Y-45150D03*
X54690Y-45650D03*
X54690Y-46150D03*
X54690Y-46650D03*
X59728Y-46650D03*
X59728Y-46150D03*
X59728Y-45650D03*
X59728Y-45150D03*
X59728Y-44650D03*
X59728Y-44150D03*
X59728Y-43650D03*
X59728Y-43150D03*
X59728Y-42650D03*
X59728Y-42150D03*
X59728Y-41650D03*
X59728Y-41150D03*
X59728Y-40650D03*
X59728Y-40150D03*
X59728Y-39650D03*
X59728Y-39150D03*
G54D19*
X45447Y-37640D03*
X43653Y-37640D03*
G54D20*
X44550Y-40513D03*
G54D21*
X98400Y-40000D03*
G54D22*
X98400Y-41000D03*
X98400Y-42000D03*
G54D23*
X46800Y-53125D03*
X47587Y-53125D03*
X47193Y-52377D03*
X47981Y-52377D03*
X48374Y-53125D03*
X48768Y-52377D03*
X49162Y-53125D03*
X49555Y-52377D03*
X49949Y-53125D03*
X50343Y-52377D03*
X50737Y-53125D03*
X51130Y-52377D03*
X51524Y-53125D03*
X51918Y-52377D03*
X52311Y-53125D03*
X52705Y-52377D03*
X53099Y-53125D03*
X53492Y-52377D03*
X53886Y-53125D03*
X54280Y-52377D03*
X54674Y-53125D03*
X55067Y-52377D03*
X55461Y-53125D03*
X55855Y-52377D03*
X56248Y-53125D03*
X56642Y-52377D03*
X57036Y-53125D03*
X57429Y-52377D03*
X57823Y-53125D03*
X58217Y-52377D03*
X58611Y-53125D03*
X59004Y-52377D03*
X59398Y-53125D03*
X59792Y-52377D03*
X60185Y-53125D03*
X60579Y-52377D03*
X60973Y-53125D03*
X61366Y-52377D03*
X61760Y-53125D03*
X62154Y-52377D03*
X62548Y-53125D03*
X62941Y-52377D03*
X63335Y-53125D03*
X63729Y-52377D03*
X64122Y-53125D03*
X64516Y-52377D03*
X64910Y-53125D03*
X65303Y-52377D03*
X67272Y-53125D03*
X67666Y-52377D03*
X68059Y-53125D03*
X68453Y-52377D03*
X68847Y-53125D03*
X69240Y-52377D03*
X69634Y-53125D03*
X70028Y-52377D03*
X70422Y-53125D03*
X70815Y-52377D03*
X71209Y-53125D03*
X71603Y-52377D03*
X71996Y-53125D03*
X72390Y-52377D03*
X72784Y-53125D03*
X73177Y-52377D03*
X73571Y-53125D03*
X73965Y-52377D03*
X74359Y-53125D03*
X74752Y-52377D03*
X75146Y-53125D03*
X75540Y-52377D03*
X75933Y-53125D03*
X76327Y-52377D03*
X76721Y-53125D03*
X77114Y-52377D03*
X77508Y-53125D03*
X77902Y-52377D03*
X78296Y-53125D03*
X78689Y-52377D03*
X79083Y-53125D03*
X79477Y-52377D03*
X79870Y-53125D03*
X80264Y-52377D03*
X80658Y-53125D03*
X81051Y-52377D03*
X81445Y-53125D03*
X81839Y-52377D03*
X82233Y-53125D03*
X82626Y-52377D03*
X83020Y-53125D03*
X83414Y-52377D03*
X83807Y-53125D03*
X84201Y-52377D03*
X84595Y-53125D03*
X84988Y-52377D03*
X85382Y-53125D03*
X85776Y-52377D03*
X86170Y-53125D03*
X86563Y-52377D03*
X86957Y-53125D03*
X87351Y-52377D03*
X87744Y-53125D03*
X88138Y-52377D03*
X88532Y-53125D03*
X88925Y-52377D03*
X89319Y-53125D03*
X89713Y-52377D03*
X90107Y-53125D03*
X90500Y-52377D03*
X90894Y-53125D03*
X91288Y-52377D03*
X91681Y-53125D03*
X92075Y-52377D03*
X92469Y-53125D03*
X92862Y-52377D03*
X93256Y-53125D03*
X93650Y-52377D03*
X94044Y-53125D03*
X94437Y-52377D03*
X94831Y-53125D03*
X95225Y-52377D03*
X46800Y-54622D03*
X47193Y-53874D03*
X47587Y-54622D03*
X47981Y-53874D03*
X48374Y-54622D03*
X48768Y-53874D03*
X49162Y-54622D03*
X49555Y-53874D03*
X49949Y-54622D03*
X50343Y-53874D03*
X50737Y-54622D03*
X51130Y-53874D03*
X51524Y-54622D03*
X51918Y-53874D03*
X52311Y-54622D03*
X52705Y-53874D03*
X53099Y-54622D03*
X53492Y-53874D03*
X53886Y-54622D03*
X54280Y-53874D03*
X54674Y-54622D03*
X55067Y-53874D03*
X55461Y-54622D03*
X55855Y-53874D03*
X56248Y-54622D03*
X56642Y-53874D03*
X57036Y-54622D03*
X57429Y-53874D03*
X57823Y-54622D03*
X58217Y-53874D03*
X58611Y-54622D03*
X59004Y-53874D03*
X59398Y-54622D03*
X59792Y-53874D03*
X60185Y-54622D03*
X60579Y-53874D03*
X60973Y-54622D03*
X61366Y-53874D03*
X61760Y-54622D03*
X62154Y-53874D03*
X62548Y-54622D03*
X62941Y-53874D03*
X63335Y-54622D03*
X63729Y-53874D03*
X64122Y-54622D03*
X64516Y-53874D03*
X64910Y-54622D03*
X65303Y-53874D03*
X67272Y-54622D03*
X67666Y-53874D03*
X68059Y-54622D03*
X68453Y-53874D03*
X68847Y-54622D03*
X69240Y-53874D03*
X69634Y-54622D03*
X70028Y-53874D03*
X70422Y-54622D03*
X70815Y-53874D03*
X71209Y-54622D03*
X71603Y-53874D03*
X71996Y-54622D03*
X72390Y-53874D03*
X72784Y-54622D03*
X73177Y-53874D03*
X73571Y-54622D03*
X73965Y-53874D03*
X74359Y-54622D03*
X74752Y-53874D03*
X75146Y-54622D03*
X75540Y-53874D03*
X75933Y-54622D03*
X76327Y-53874D03*
X76721Y-54622D03*
X77114Y-53874D03*
X77508Y-54622D03*
X77902Y-53874D03*
X78296Y-54622D03*
X78689Y-53874D03*
X79083Y-54622D03*
X79477Y-53874D03*
X79870Y-54622D03*
X80264Y-53874D03*
X80658Y-54622D03*
X81051Y-53874D03*
X81445Y-54622D03*
X81839Y-53874D03*
X82233Y-54622D03*
X82626Y-53874D03*
X83020Y-54622D03*
X83414Y-53874D03*
X83807Y-54622D03*
X84201Y-53874D03*
X84595Y-54622D03*
X84988Y-53874D03*
X85382Y-54622D03*
X85776Y-53874D03*
X86170Y-54622D03*
X86563Y-53874D03*
X86957Y-54622D03*
X87351Y-53874D03*
X87744Y-54622D03*
X88138Y-53874D03*
X88532Y-54622D03*
X88925Y-53874D03*
X89319Y-54622D03*
X89713Y-53874D03*
X90107Y-54622D03*
X90500Y-53874D03*
X90894Y-54622D03*
X91288Y-53874D03*
X91681Y-54622D03*
X92075Y-53874D03*
X92469Y-54622D03*
X92862Y-53874D03*
X93256Y-54622D03*
X93650Y-53874D03*
X94044Y-54622D03*
X94437Y-53874D03*
X94831Y-54622D03*
X95225Y-53874D03*
G54D24*
X66288Y-53500D03*
G54D25*
X43847Y-53500D03*
X98177Y-53500D03*
M02*
