G04 (created by PCBNEW (2013-07-07 BZR 4022)-stable) date 4/25/2015 2:47:51 PM*
%MOIN*%
G04 Gerber Fmt 3.4, Leading zero omitted, Abs format*
%FSLAX34Y34*%
G01*
G70*
G90*
G04 APERTURE LIST*
%ADD10C,0.00590551*%
%ADD11C,0.00393701*%
%ADD12C,0.0026*%
%ADD13C,0.008*%
%ADD14C,0.006*%
%ADD15C,0.003*%
%ADD16C,0.002*%
%ADD17C,0.0035*%
G04 APERTURE END LIST*
G54D10*
G54D11*
X82300Y-26700D02*
G75*
G03X82300Y-26700I-150J0D01*
G74*
G01*
G54D12*
X81904Y-25780D02*
X82097Y-25780D01*
X82097Y-25780D02*
X82097Y-26213D01*
X81904Y-26213D02*
X82097Y-26213D01*
X81904Y-25780D02*
X81904Y-26213D01*
X82404Y-25780D02*
X82597Y-25780D01*
X82597Y-25780D02*
X82597Y-26213D01*
X82404Y-26213D02*
X82597Y-26213D01*
X82404Y-25780D02*
X82404Y-26213D01*
X82904Y-25780D02*
X83097Y-25780D01*
X83097Y-25780D02*
X83097Y-26213D01*
X82904Y-26213D02*
X83097Y-26213D01*
X82904Y-25780D02*
X82904Y-26213D01*
X83404Y-25780D02*
X83596Y-25780D01*
X83596Y-25780D02*
X83596Y-26213D01*
X83404Y-26213D02*
X83596Y-26213D01*
X83404Y-25780D02*
X83404Y-26213D01*
X83404Y-27787D02*
X83596Y-27787D01*
X83596Y-27787D02*
X83596Y-28220D01*
X83404Y-28220D02*
X83596Y-28220D01*
X83404Y-27787D02*
X83404Y-28220D01*
X82904Y-27787D02*
X83097Y-27787D01*
X83097Y-27787D02*
X83097Y-28220D01*
X82904Y-28220D02*
X83097Y-28220D01*
X82904Y-27787D02*
X82904Y-28220D01*
X82404Y-27787D02*
X82597Y-27787D01*
X82597Y-27787D02*
X82597Y-28220D01*
X82404Y-28220D02*
X82597Y-28220D01*
X82404Y-27787D02*
X82404Y-28220D01*
X81904Y-27787D02*
X82097Y-27787D01*
X82097Y-27787D02*
X82097Y-28220D01*
X81904Y-28220D02*
X82097Y-28220D01*
X81904Y-27787D02*
X81904Y-28220D01*
X83903Y-25780D02*
X84096Y-25780D01*
X84096Y-25780D02*
X84096Y-26213D01*
X83903Y-26213D02*
X84096Y-26213D01*
X83903Y-25780D02*
X83903Y-26213D01*
X84403Y-25780D02*
X84596Y-25780D01*
X84596Y-25780D02*
X84596Y-26213D01*
X84403Y-26213D02*
X84596Y-26213D01*
X84403Y-25780D02*
X84403Y-26213D01*
X84903Y-25780D02*
X85096Y-25780D01*
X85096Y-25780D02*
X85096Y-26213D01*
X84903Y-26213D02*
X85096Y-26213D01*
X84903Y-25780D02*
X84903Y-26213D01*
X84903Y-27787D02*
X85096Y-27787D01*
X85096Y-27787D02*
X85096Y-28220D01*
X84903Y-28220D02*
X85096Y-28220D01*
X84903Y-27787D02*
X84903Y-28220D01*
X84403Y-27787D02*
X84596Y-27787D01*
X84596Y-27787D02*
X84596Y-28220D01*
X84403Y-28220D02*
X84596Y-28220D01*
X84403Y-27787D02*
X84403Y-28220D01*
X83903Y-27787D02*
X84096Y-27787D01*
X84096Y-27787D02*
X84096Y-28220D01*
X83903Y-28220D02*
X84096Y-28220D01*
X83903Y-27787D02*
X83903Y-28220D01*
G54D13*
X85194Y-26252D02*
X81806Y-26252D01*
X81806Y-26252D02*
X81806Y-26449D01*
X81806Y-26449D02*
X81806Y-27748D01*
X85194Y-27748D02*
X85194Y-26449D01*
X85194Y-26449D02*
X85194Y-26252D01*
X81806Y-27748D02*
X85194Y-27748D01*
G54D12*
X60970Y-23460D02*
X61130Y-23460D01*
X61130Y-23460D02*
X61130Y-23980D01*
X60970Y-23980D02*
X61130Y-23980D01*
X60970Y-23460D02*
X60970Y-23980D01*
X60470Y-23460D02*
X60630Y-23460D01*
X60630Y-23460D02*
X60630Y-23980D01*
X60470Y-23980D02*
X60630Y-23980D01*
X60470Y-23460D02*
X60470Y-23980D01*
X59970Y-23460D02*
X60130Y-23460D01*
X60130Y-23460D02*
X60130Y-23980D01*
X59970Y-23980D02*
X60130Y-23980D01*
X59970Y-23460D02*
X59970Y-23980D01*
X59470Y-23460D02*
X59630Y-23460D01*
X59630Y-23460D02*
X59630Y-23980D01*
X59470Y-23980D02*
X59630Y-23980D01*
X59470Y-23460D02*
X59470Y-23980D01*
X58970Y-23460D02*
X59130Y-23460D01*
X59130Y-23460D02*
X59130Y-23980D01*
X58970Y-23980D02*
X59130Y-23980D01*
X58970Y-23460D02*
X58970Y-23980D01*
X58470Y-23460D02*
X58630Y-23460D01*
X58630Y-23460D02*
X58630Y-23980D01*
X58470Y-23980D02*
X58630Y-23980D01*
X58470Y-23460D02*
X58470Y-23980D01*
X57970Y-23460D02*
X58130Y-23460D01*
X58130Y-23460D02*
X58130Y-23980D01*
X57970Y-23980D02*
X58130Y-23980D01*
X57970Y-23460D02*
X57970Y-23980D01*
X57470Y-23460D02*
X57630Y-23460D01*
X57630Y-23460D02*
X57630Y-23980D01*
X57470Y-23980D02*
X57630Y-23980D01*
X57470Y-23460D02*
X57470Y-23980D01*
X56970Y-23460D02*
X57130Y-23460D01*
X57130Y-23460D02*
X57130Y-23980D01*
X56970Y-23980D02*
X57130Y-23980D01*
X56970Y-23460D02*
X56970Y-23980D01*
X56470Y-23460D02*
X56630Y-23460D01*
X56630Y-23460D02*
X56630Y-23980D01*
X56470Y-23980D02*
X56630Y-23980D01*
X56470Y-23460D02*
X56470Y-23980D01*
X60970Y-20010D02*
X61130Y-20010D01*
X61130Y-20010D02*
X61130Y-20530D01*
X60970Y-20530D02*
X61130Y-20530D01*
X60970Y-20010D02*
X60970Y-20530D01*
X60470Y-20010D02*
X60630Y-20010D01*
X60630Y-20010D02*
X60630Y-20530D01*
X60470Y-20530D02*
X60630Y-20530D01*
X60470Y-20010D02*
X60470Y-20530D01*
X59970Y-20010D02*
X60130Y-20010D01*
X60130Y-20010D02*
X60130Y-20530D01*
X59970Y-20530D02*
X60130Y-20530D01*
X59970Y-20010D02*
X59970Y-20530D01*
X59470Y-20010D02*
X59630Y-20010D01*
X59630Y-20010D02*
X59630Y-20530D01*
X59470Y-20530D02*
X59630Y-20530D01*
X59470Y-20010D02*
X59470Y-20530D01*
X58970Y-20010D02*
X59130Y-20010D01*
X59130Y-20010D02*
X59130Y-20530D01*
X58970Y-20530D02*
X59130Y-20530D01*
X58970Y-20010D02*
X58970Y-20530D01*
X58470Y-20010D02*
X58630Y-20010D01*
X58630Y-20010D02*
X58630Y-20530D01*
X58470Y-20530D02*
X58630Y-20530D01*
X58470Y-20010D02*
X58470Y-20530D01*
X57970Y-20010D02*
X58130Y-20010D01*
X58130Y-20010D02*
X58130Y-20530D01*
X57970Y-20530D02*
X58130Y-20530D01*
X57970Y-20010D02*
X57970Y-20530D01*
X57470Y-20010D02*
X57630Y-20010D01*
X57630Y-20010D02*
X57630Y-20530D01*
X57470Y-20530D02*
X57630Y-20530D01*
X57470Y-20010D02*
X57470Y-20530D01*
X56970Y-20010D02*
X57130Y-20010D01*
X57130Y-20010D02*
X57130Y-20530D01*
X56970Y-20530D02*
X57130Y-20530D01*
X56970Y-20010D02*
X56970Y-20530D01*
X56470Y-20010D02*
X56630Y-20010D01*
X56630Y-20010D02*
X56630Y-20530D01*
X56470Y-20530D02*
X56630Y-20530D01*
X56470Y-20010D02*
X56470Y-20530D01*
G54D14*
X56330Y-20550D02*
X61270Y-20550D01*
X61270Y-20550D02*
X61270Y-23440D01*
X61270Y-23440D02*
X56330Y-23440D01*
X56330Y-23440D02*
X56330Y-20550D01*
G54D15*
X56828Y-20910D02*
G75*
G03X56828Y-20910I-148J0D01*
G74*
G01*
G54D12*
X50070Y-23460D02*
X50230Y-23460D01*
X50230Y-23460D02*
X50230Y-23980D01*
X50070Y-23980D02*
X50230Y-23980D01*
X50070Y-23460D02*
X50070Y-23980D01*
X49570Y-23460D02*
X49730Y-23460D01*
X49730Y-23460D02*
X49730Y-23980D01*
X49570Y-23980D02*
X49730Y-23980D01*
X49570Y-23460D02*
X49570Y-23980D01*
X49070Y-23460D02*
X49230Y-23460D01*
X49230Y-23460D02*
X49230Y-23980D01*
X49070Y-23980D02*
X49230Y-23980D01*
X49070Y-23460D02*
X49070Y-23980D01*
X48570Y-23460D02*
X48730Y-23460D01*
X48730Y-23460D02*
X48730Y-23980D01*
X48570Y-23980D02*
X48730Y-23980D01*
X48570Y-23460D02*
X48570Y-23980D01*
X48070Y-23460D02*
X48230Y-23460D01*
X48230Y-23460D02*
X48230Y-23980D01*
X48070Y-23980D02*
X48230Y-23980D01*
X48070Y-23460D02*
X48070Y-23980D01*
X47570Y-23460D02*
X47730Y-23460D01*
X47730Y-23460D02*
X47730Y-23980D01*
X47570Y-23980D02*
X47730Y-23980D01*
X47570Y-23460D02*
X47570Y-23980D01*
X47070Y-23460D02*
X47230Y-23460D01*
X47230Y-23460D02*
X47230Y-23980D01*
X47070Y-23980D02*
X47230Y-23980D01*
X47070Y-23460D02*
X47070Y-23980D01*
X46570Y-23460D02*
X46730Y-23460D01*
X46730Y-23460D02*
X46730Y-23980D01*
X46570Y-23980D02*
X46730Y-23980D01*
X46570Y-23460D02*
X46570Y-23980D01*
X46070Y-23460D02*
X46230Y-23460D01*
X46230Y-23460D02*
X46230Y-23980D01*
X46070Y-23980D02*
X46230Y-23980D01*
X46070Y-23460D02*
X46070Y-23980D01*
X45570Y-23460D02*
X45730Y-23460D01*
X45730Y-23460D02*
X45730Y-23980D01*
X45570Y-23980D02*
X45730Y-23980D01*
X45570Y-23460D02*
X45570Y-23980D01*
X50070Y-20010D02*
X50230Y-20010D01*
X50230Y-20010D02*
X50230Y-20530D01*
X50070Y-20530D02*
X50230Y-20530D01*
X50070Y-20010D02*
X50070Y-20530D01*
X49570Y-20010D02*
X49730Y-20010D01*
X49730Y-20010D02*
X49730Y-20530D01*
X49570Y-20530D02*
X49730Y-20530D01*
X49570Y-20010D02*
X49570Y-20530D01*
X49070Y-20010D02*
X49230Y-20010D01*
X49230Y-20010D02*
X49230Y-20530D01*
X49070Y-20530D02*
X49230Y-20530D01*
X49070Y-20010D02*
X49070Y-20530D01*
X48570Y-20010D02*
X48730Y-20010D01*
X48730Y-20010D02*
X48730Y-20530D01*
X48570Y-20530D02*
X48730Y-20530D01*
X48570Y-20010D02*
X48570Y-20530D01*
X48070Y-20010D02*
X48230Y-20010D01*
X48230Y-20010D02*
X48230Y-20530D01*
X48070Y-20530D02*
X48230Y-20530D01*
X48070Y-20010D02*
X48070Y-20530D01*
X47570Y-20010D02*
X47730Y-20010D01*
X47730Y-20010D02*
X47730Y-20530D01*
X47570Y-20530D02*
X47730Y-20530D01*
X47570Y-20010D02*
X47570Y-20530D01*
X47070Y-20010D02*
X47230Y-20010D01*
X47230Y-20010D02*
X47230Y-20530D01*
X47070Y-20530D02*
X47230Y-20530D01*
X47070Y-20010D02*
X47070Y-20530D01*
X46570Y-20010D02*
X46730Y-20010D01*
X46730Y-20010D02*
X46730Y-20530D01*
X46570Y-20530D02*
X46730Y-20530D01*
X46570Y-20010D02*
X46570Y-20530D01*
X46070Y-20010D02*
X46230Y-20010D01*
X46230Y-20010D02*
X46230Y-20530D01*
X46070Y-20530D02*
X46230Y-20530D01*
X46070Y-20010D02*
X46070Y-20530D01*
X45570Y-20010D02*
X45730Y-20010D01*
X45730Y-20010D02*
X45730Y-20530D01*
X45570Y-20530D02*
X45730Y-20530D01*
X45570Y-20010D02*
X45570Y-20530D01*
G54D14*
X45430Y-20550D02*
X50370Y-20550D01*
X50370Y-20550D02*
X50370Y-23440D01*
X50370Y-23440D02*
X45430Y-23440D01*
X45430Y-23440D02*
X45430Y-20550D01*
G54D15*
X45928Y-20910D02*
G75*
G03X45928Y-20910I-148J0D01*
G74*
G01*
G54D16*
X96887Y-17876D02*
X96887Y-16324D01*
X96887Y-16324D02*
X96113Y-16324D01*
X96113Y-16324D02*
X96113Y-17876D01*
X96113Y-17876D02*
X96887Y-17876D01*
X98887Y-17876D02*
X98887Y-16324D01*
X98887Y-16324D02*
X98113Y-16324D01*
X98113Y-16324D02*
X98113Y-17876D01*
X98113Y-17876D02*
X98887Y-17876D01*
X81187Y-27776D02*
X81187Y-26224D01*
X81187Y-26224D02*
X80413Y-26224D01*
X80413Y-26224D02*
X80413Y-27776D01*
X80413Y-27776D02*
X81187Y-27776D01*
X99887Y-17876D02*
X99887Y-16324D01*
X99887Y-16324D02*
X99113Y-16324D01*
X99113Y-16324D02*
X99113Y-17876D01*
X99113Y-17876D02*
X99887Y-17876D01*
X55837Y-24276D02*
X55837Y-22724D01*
X55837Y-22724D02*
X55063Y-22724D01*
X55063Y-22724D02*
X55063Y-24276D01*
X55063Y-24276D02*
X55837Y-24276D01*
X88687Y-43126D02*
X88687Y-41574D01*
X88687Y-41574D02*
X87913Y-41574D01*
X87913Y-41574D02*
X87913Y-43126D01*
X87913Y-43126D02*
X88687Y-43126D01*
X44987Y-24176D02*
X44987Y-22624D01*
X44987Y-22624D02*
X44213Y-22624D01*
X44213Y-22624D02*
X44213Y-24176D01*
X44213Y-24176D02*
X44987Y-24176D01*
X90126Y-43463D02*
X88574Y-43463D01*
X88574Y-43463D02*
X88574Y-44237D01*
X88574Y-44237D02*
X90126Y-44237D01*
X90126Y-44237D02*
X90126Y-43463D01*
X21924Y-17287D02*
X23476Y-17287D01*
X23476Y-17287D02*
X23476Y-16513D01*
X23476Y-16513D02*
X21924Y-16513D01*
X21924Y-16513D02*
X21924Y-17287D01*
X21924Y-16387D02*
X23476Y-16387D01*
X23476Y-16387D02*
X23476Y-15613D01*
X23476Y-15613D02*
X21924Y-15613D01*
X21924Y-15613D02*
X21924Y-16387D01*
G54D17*
X111369Y-45122D02*
X111369Y-45567D01*
X111395Y-45620D01*
X111421Y-45646D01*
X111473Y-45672D01*
X111578Y-45672D01*
X111630Y-45646D01*
X111657Y-45620D01*
X111683Y-45567D01*
X111683Y-45122D01*
X112233Y-45672D02*
X111919Y-45672D01*
X112076Y-45672D02*
X112076Y-45122D01*
X112023Y-45201D01*
X111971Y-45253D01*
X111919Y-45279D01*
X112704Y-45305D02*
X112704Y-45672D01*
X112573Y-45096D02*
X112442Y-45489D01*
X112783Y-45489D01*
X109871Y-46422D02*
X110238Y-46972D01*
X110238Y-46422D02*
X109871Y-46972D01*
X110761Y-46920D02*
X110735Y-46946D01*
X110657Y-46972D01*
X110604Y-46972D01*
X110526Y-46946D01*
X110473Y-46894D01*
X110447Y-46841D01*
X110421Y-46736D01*
X110421Y-46658D01*
X110447Y-46553D01*
X110473Y-46501D01*
X110526Y-46448D01*
X110604Y-46422D01*
X110657Y-46422D01*
X110735Y-46448D01*
X110761Y-46475D01*
X111023Y-46972D02*
X111128Y-46972D01*
X111180Y-46946D01*
X111207Y-46920D01*
X111259Y-46841D01*
X111285Y-46736D01*
X111285Y-46527D01*
X111259Y-46475D01*
X111233Y-46448D01*
X111180Y-46422D01*
X111076Y-46422D01*
X111023Y-46448D01*
X110997Y-46475D01*
X110971Y-46527D01*
X110971Y-46658D01*
X110997Y-46710D01*
X111023Y-46736D01*
X111076Y-46763D01*
X111180Y-46763D01*
X111233Y-46736D01*
X111259Y-46710D01*
X111285Y-46658D01*
X111783Y-46422D02*
X111521Y-46422D01*
X111495Y-46684D01*
X111521Y-46658D01*
X111573Y-46632D01*
X111704Y-46632D01*
X111757Y-46658D01*
X111783Y-46684D01*
X111809Y-46736D01*
X111809Y-46867D01*
X111783Y-46920D01*
X111757Y-46946D01*
X111704Y-46972D01*
X111573Y-46972D01*
X111521Y-46946D01*
X111495Y-46920D01*
X111992Y-46422D02*
X112359Y-46422D01*
X112123Y-46972D01*
X112542Y-46475D02*
X112569Y-46448D01*
X112621Y-46422D01*
X112752Y-46422D01*
X112804Y-46448D01*
X112830Y-46475D01*
X112857Y-46527D01*
X112857Y-46579D01*
X112830Y-46658D01*
X112516Y-46972D01*
X112857Y-46972D01*
X113040Y-46422D02*
X113407Y-46972D01*
X113407Y-46422D02*
X113040Y-46972D01*
X113878Y-46972D02*
X113616Y-46972D01*
X113616Y-46422D01*
X114061Y-46763D02*
X114480Y-46763D01*
X114664Y-46422D02*
X114847Y-46972D01*
X115030Y-46422D01*
X115580Y-47025D02*
X115528Y-46998D01*
X115476Y-46946D01*
X115397Y-46867D01*
X115345Y-46841D01*
X115292Y-46841D01*
X115319Y-46972D02*
X115266Y-46946D01*
X115214Y-46894D01*
X115188Y-46789D01*
X115188Y-46605D01*
X115214Y-46501D01*
X115266Y-46448D01*
X115319Y-46422D01*
X115423Y-46422D01*
X115476Y-46448D01*
X115528Y-46501D01*
X115554Y-46605D01*
X115554Y-46789D01*
X115528Y-46894D01*
X115476Y-46946D01*
X115423Y-46972D01*
X115319Y-46972D01*
X116026Y-46605D02*
X116026Y-46972D01*
X115895Y-46396D02*
X115764Y-46789D01*
X116104Y-46789D01*
X116550Y-46605D02*
X116550Y-46972D01*
X116419Y-46396D02*
X116288Y-46789D01*
X116628Y-46789D01*
X92124Y-10937D02*
X92124Y-11342D01*
X92147Y-11389D01*
X92171Y-11413D01*
X92219Y-11437D01*
X92314Y-11437D01*
X92362Y-11413D01*
X92385Y-11389D01*
X92409Y-11342D01*
X92409Y-10937D01*
X92671Y-11437D02*
X92766Y-11437D01*
X92814Y-11413D01*
X92838Y-11389D01*
X92885Y-11318D01*
X92909Y-11223D01*
X92909Y-11032D01*
X92885Y-10985D01*
X92862Y-10961D01*
X92814Y-10937D01*
X92719Y-10937D01*
X92671Y-10961D01*
X92647Y-10985D01*
X92624Y-11032D01*
X92624Y-11151D01*
X92647Y-11199D01*
X92671Y-11223D01*
X92719Y-11246D01*
X92814Y-11246D01*
X92862Y-11223D01*
X92885Y-11199D01*
X92909Y-11151D01*
X90108Y-10237D02*
X90441Y-10237D01*
X90227Y-10737D01*
X90846Y-10404D02*
X90846Y-10737D01*
X90727Y-10213D02*
X90608Y-10570D01*
X90917Y-10570D01*
X91346Y-10737D02*
X91108Y-10737D01*
X91108Y-10237D01*
X91441Y-10237D02*
X91608Y-10737D01*
X91774Y-10237D01*
X91893Y-10237D02*
X92227Y-10737D01*
X92227Y-10237D02*
X91893Y-10737D01*
X92370Y-10237D02*
X92679Y-10237D01*
X92512Y-10427D01*
X92584Y-10427D01*
X92631Y-10451D01*
X92655Y-10475D01*
X92679Y-10523D01*
X92679Y-10642D01*
X92655Y-10689D01*
X92631Y-10713D01*
X92584Y-10737D01*
X92441Y-10737D01*
X92393Y-10713D01*
X92370Y-10689D01*
X92870Y-10285D02*
X92893Y-10261D01*
X92941Y-10237D01*
X93060Y-10237D01*
X93108Y-10261D01*
X93131Y-10285D01*
X93155Y-10332D01*
X93155Y-10380D01*
X93131Y-10451D01*
X92846Y-10737D01*
X93155Y-10737D01*
X93584Y-10404D02*
X93584Y-10737D01*
X93465Y-10213D02*
X93346Y-10570D01*
X93655Y-10570D01*
X94084Y-10237D02*
X93846Y-10237D01*
X93822Y-10475D01*
X93846Y-10451D01*
X93893Y-10427D01*
X94012Y-10427D01*
X94060Y-10451D01*
X94084Y-10475D01*
X94108Y-10523D01*
X94108Y-10642D01*
X94084Y-10689D01*
X94060Y-10713D01*
X94012Y-10737D01*
X93893Y-10737D01*
X93846Y-10713D01*
X93822Y-10689D01*
X64370Y-10792D02*
X64370Y-11197D01*
X64394Y-11244D01*
X64418Y-11268D01*
X64466Y-11292D01*
X64561Y-11292D01*
X64609Y-11268D01*
X64632Y-11244D01*
X64656Y-11197D01*
X64656Y-10792D01*
X65156Y-11292D02*
X64870Y-11292D01*
X65013Y-11292D02*
X65013Y-10792D01*
X64966Y-10863D01*
X64918Y-10911D01*
X64870Y-10935D01*
X65323Y-10792D02*
X65632Y-10792D01*
X65466Y-10982D01*
X65537Y-10982D01*
X65585Y-11006D01*
X65609Y-11030D01*
X65632Y-11078D01*
X65632Y-11197D01*
X65609Y-11244D01*
X65585Y-11268D01*
X65537Y-11292D01*
X65394Y-11292D01*
X65347Y-11268D01*
X65323Y-11244D01*
X62843Y-9782D02*
X63176Y-9782D01*
X62962Y-10282D01*
X63581Y-9949D02*
X63581Y-10282D01*
X63462Y-9758D02*
X63343Y-10115D01*
X63652Y-10115D01*
X64081Y-10282D02*
X63843Y-10282D01*
X63843Y-9782D01*
X64176Y-9782D02*
X64343Y-10282D01*
X64509Y-9782D01*
X64628Y-9782D02*
X64962Y-10282D01*
X64962Y-9782D02*
X64628Y-10282D01*
X65105Y-9782D02*
X65414Y-9782D01*
X65247Y-9972D01*
X65319Y-9972D01*
X65366Y-9996D01*
X65390Y-10020D01*
X65414Y-10068D01*
X65414Y-10187D01*
X65390Y-10234D01*
X65366Y-10258D01*
X65319Y-10282D01*
X65176Y-10282D01*
X65128Y-10258D01*
X65105Y-10234D01*
X65605Y-9830D02*
X65628Y-9806D01*
X65676Y-9782D01*
X65795Y-9782D01*
X65843Y-9806D01*
X65866Y-9830D01*
X65890Y-9877D01*
X65890Y-9925D01*
X65866Y-9996D01*
X65581Y-10282D01*
X65890Y-10282D01*
X66319Y-9949D02*
X66319Y-10282D01*
X66200Y-9758D02*
X66081Y-10115D01*
X66390Y-10115D01*
X66819Y-9782D02*
X66581Y-9782D01*
X66557Y-10020D01*
X66581Y-9996D01*
X66628Y-9972D01*
X66747Y-9972D01*
X66795Y-9996D01*
X66819Y-10020D01*
X66843Y-10068D01*
X66843Y-10187D01*
X66819Y-10234D01*
X66795Y-10258D01*
X66747Y-10282D01*
X66628Y-10282D01*
X66581Y-10258D01*
X66557Y-10234D01*
X83485Y-11042D02*
X83485Y-11447D01*
X83509Y-11494D01*
X83533Y-11518D01*
X83581Y-11542D01*
X83676Y-11542D01*
X83724Y-11518D01*
X83747Y-11494D01*
X83771Y-11447D01*
X83771Y-11042D01*
X84271Y-11542D02*
X83985Y-11542D01*
X84128Y-11542D02*
X84128Y-11042D01*
X84081Y-11113D01*
X84033Y-11161D01*
X83985Y-11185D01*
X84462Y-11090D02*
X84485Y-11066D01*
X84533Y-11042D01*
X84652Y-11042D01*
X84700Y-11066D01*
X84724Y-11090D01*
X84747Y-11137D01*
X84747Y-11185D01*
X84724Y-11256D01*
X84438Y-11542D01*
X84747Y-11542D01*
X81638Y-9802D02*
X81971Y-9802D01*
X81757Y-10302D01*
X82376Y-9969D02*
X82376Y-10302D01*
X82257Y-9778D02*
X82138Y-10135D01*
X82447Y-10135D01*
X82876Y-10302D02*
X82638Y-10302D01*
X82638Y-9802D01*
X82971Y-9802D02*
X83138Y-10302D01*
X83304Y-9802D01*
X83423Y-9802D02*
X83757Y-10302D01*
X83757Y-9802D02*
X83423Y-10302D01*
X83900Y-9802D02*
X84209Y-9802D01*
X84042Y-9992D01*
X84114Y-9992D01*
X84161Y-10016D01*
X84185Y-10040D01*
X84209Y-10088D01*
X84209Y-10207D01*
X84185Y-10254D01*
X84161Y-10278D01*
X84114Y-10302D01*
X83971Y-10302D01*
X83923Y-10278D01*
X83900Y-10254D01*
X84400Y-9850D02*
X84423Y-9826D01*
X84471Y-9802D01*
X84590Y-9802D01*
X84638Y-9826D01*
X84661Y-9850D01*
X84685Y-9897D01*
X84685Y-9945D01*
X84661Y-10016D01*
X84376Y-10302D01*
X84685Y-10302D01*
X85114Y-9969D02*
X85114Y-10302D01*
X84995Y-9778D02*
X84876Y-10135D01*
X85185Y-10135D01*
X85614Y-9802D02*
X85376Y-9802D01*
X85352Y-10040D01*
X85376Y-10016D01*
X85423Y-9992D01*
X85542Y-9992D01*
X85590Y-10016D01*
X85614Y-10040D01*
X85638Y-10088D01*
X85638Y-10207D01*
X85614Y-10254D01*
X85590Y-10278D01*
X85542Y-10302D01*
X85423Y-10302D01*
X85376Y-10278D01*
X85352Y-10254D01*
X49780Y-11042D02*
X49780Y-11447D01*
X49804Y-11494D01*
X49828Y-11518D01*
X49876Y-11542D01*
X49971Y-11542D01*
X50019Y-11518D01*
X50042Y-11494D01*
X50066Y-11447D01*
X50066Y-11042D01*
X50566Y-11542D02*
X50280Y-11542D01*
X50423Y-11542D02*
X50423Y-11042D01*
X50376Y-11113D01*
X50328Y-11161D01*
X50280Y-11185D01*
X51042Y-11542D02*
X50757Y-11542D01*
X50900Y-11542D02*
X50900Y-11042D01*
X50852Y-11113D01*
X50804Y-11161D01*
X50757Y-11185D01*
X48238Y-9852D02*
X48571Y-9852D01*
X48357Y-10352D01*
X48976Y-10019D02*
X48976Y-10352D01*
X48857Y-9828D02*
X48738Y-10185D01*
X49047Y-10185D01*
X49476Y-10352D02*
X49238Y-10352D01*
X49238Y-9852D01*
X49571Y-9852D02*
X49738Y-10352D01*
X49904Y-9852D01*
X50023Y-9852D02*
X50357Y-10352D01*
X50357Y-9852D02*
X50023Y-10352D01*
X50500Y-9852D02*
X50809Y-9852D01*
X50642Y-10042D01*
X50714Y-10042D01*
X50761Y-10066D01*
X50785Y-10090D01*
X50809Y-10138D01*
X50809Y-10257D01*
X50785Y-10304D01*
X50761Y-10328D01*
X50714Y-10352D01*
X50571Y-10352D01*
X50523Y-10328D01*
X50500Y-10304D01*
X51000Y-9900D02*
X51023Y-9876D01*
X51071Y-9852D01*
X51190Y-9852D01*
X51238Y-9876D01*
X51261Y-9900D01*
X51285Y-9947D01*
X51285Y-9995D01*
X51261Y-10066D01*
X50976Y-10352D01*
X51285Y-10352D01*
X51714Y-10019D02*
X51714Y-10352D01*
X51595Y-9828D02*
X51476Y-10185D01*
X51785Y-10185D01*
X52214Y-9852D02*
X51976Y-9852D01*
X51952Y-10090D01*
X51976Y-10066D01*
X52023Y-10042D01*
X52142Y-10042D01*
X52190Y-10066D01*
X52214Y-10090D01*
X52238Y-10138D01*
X52238Y-10257D01*
X52214Y-10304D01*
X52190Y-10328D01*
X52142Y-10352D01*
X52023Y-10352D01*
X51976Y-10328D01*
X51952Y-10304D01*
X73180Y-10847D02*
X73180Y-11252D01*
X73204Y-11299D01*
X73228Y-11323D01*
X73276Y-11347D01*
X73371Y-11347D01*
X73419Y-11323D01*
X73442Y-11299D01*
X73466Y-11252D01*
X73466Y-10847D01*
X73966Y-11347D02*
X73680Y-11347D01*
X73823Y-11347D02*
X73823Y-10847D01*
X73776Y-10918D01*
X73728Y-10966D01*
X73680Y-10990D01*
X74276Y-10847D02*
X74323Y-10847D01*
X74371Y-10871D01*
X74395Y-10895D01*
X74419Y-10942D01*
X74442Y-11037D01*
X74442Y-11156D01*
X74419Y-11252D01*
X74395Y-11299D01*
X74371Y-11323D01*
X74323Y-11347D01*
X74276Y-11347D01*
X74228Y-11323D01*
X74204Y-11299D01*
X74180Y-11252D01*
X74157Y-11156D01*
X74157Y-11037D01*
X74180Y-10942D01*
X74204Y-10895D01*
X74228Y-10871D01*
X74276Y-10847D01*
X71818Y-9802D02*
X72151Y-9802D01*
X71937Y-10302D01*
X72556Y-9969D02*
X72556Y-10302D01*
X72437Y-9778D02*
X72318Y-10135D01*
X72627Y-10135D01*
X73056Y-10302D02*
X72818Y-10302D01*
X72818Y-9802D01*
X73151Y-9802D02*
X73318Y-10302D01*
X73484Y-9802D01*
X73603Y-9802D02*
X73937Y-10302D01*
X73937Y-9802D02*
X73603Y-10302D01*
X74080Y-9802D02*
X74389Y-9802D01*
X74222Y-9992D01*
X74294Y-9992D01*
X74341Y-10016D01*
X74365Y-10040D01*
X74389Y-10088D01*
X74389Y-10207D01*
X74365Y-10254D01*
X74341Y-10278D01*
X74294Y-10302D01*
X74151Y-10302D01*
X74103Y-10278D01*
X74080Y-10254D01*
X74580Y-9850D02*
X74603Y-9826D01*
X74651Y-9802D01*
X74770Y-9802D01*
X74818Y-9826D01*
X74841Y-9850D01*
X74865Y-9897D01*
X74865Y-9945D01*
X74841Y-10016D01*
X74556Y-10302D01*
X74865Y-10302D01*
X75294Y-9969D02*
X75294Y-10302D01*
X75175Y-9778D02*
X75056Y-10135D01*
X75365Y-10135D01*
X75794Y-9802D02*
X75556Y-9802D01*
X75532Y-10040D01*
X75556Y-10016D01*
X75603Y-9992D01*
X75722Y-9992D01*
X75770Y-10016D01*
X75794Y-10040D01*
X75818Y-10088D01*
X75818Y-10207D01*
X75794Y-10254D01*
X75770Y-10278D01*
X75722Y-10302D01*
X75603Y-10302D01*
X75556Y-10278D01*
X75532Y-10254D01*
X81037Y-24825D02*
X81442Y-24825D01*
X81489Y-24849D01*
X81513Y-24873D01*
X81537Y-24921D01*
X81537Y-25016D01*
X81513Y-25064D01*
X81489Y-25087D01*
X81442Y-25111D01*
X81037Y-25111D01*
X81537Y-25611D02*
X81537Y-25325D01*
X81537Y-25468D02*
X81037Y-25468D01*
X81108Y-25421D01*
X81156Y-25373D01*
X81180Y-25325D01*
X81037Y-25778D02*
X81037Y-26111D01*
X81537Y-25897D01*
X84570Y-26752D02*
X84236Y-26752D01*
X84451Y-27252D01*
X83832Y-26919D02*
X83832Y-27252D01*
X83951Y-26728D02*
X84070Y-27085D01*
X83760Y-27085D01*
X83403Y-26990D02*
X83570Y-26990D01*
X83570Y-27252D02*
X83570Y-26752D01*
X83332Y-26752D01*
X83046Y-26752D02*
X82998Y-26752D01*
X82951Y-26776D01*
X82927Y-26800D01*
X82903Y-26847D01*
X82879Y-26942D01*
X82879Y-27061D01*
X82903Y-27157D01*
X82927Y-27204D01*
X82951Y-27228D01*
X82998Y-27252D01*
X83046Y-27252D01*
X83094Y-27228D01*
X83117Y-27204D01*
X83141Y-27157D01*
X83165Y-27061D01*
X83165Y-26942D01*
X83141Y-26847D01*
X83117Y-26800D01*
X83094Y-26776D01*
X83046Y-26752D01*
X82451Y-26919D02*
X82451Y-27252D01*
X82570Y-26728D02*
X82689Y-27085D01*
X82379Y-27085D01*
X111139Y-49062D02*
X111139Y-49467D01*
X111162Y-49514D01*
X111186Y-49538D01*
X111234Y-49562D01*
X111329Y-49562D01*
X111377Y-49538D01*
X111400Y-49514D01*
X111424Y-49467D01*
X111424Y-49062D01*
X111734Y-49276D02*
X111686Y-49252D01*
X111662Y-49229D01*
X111639Y-49181D01*
X111639Y-49157D01*
X111662Y-49110D01*
X111686Y-49086D01*
X111734Y-49062D01*
X111829Y-49062D01*
X111877Y-49086D01*
X111900Y-49110D01*
X111924Y-49157D01*
X111924Y-49181D01*
X111900Y-49229D01*
X111877Y-49252D01*
X111829Y-49276D01*
X111734Y-49276D01*
X111686Y-49300D01*
X111662Y-49324D01*
X111639Y-49371D01*
X111639Y-49467D01*
X111662Y-49514D01*
X111686Y-49538D01*
X111734Y-49562D01*
X111829Y-49562D01*
X111877Y-49538D01*
X111900Y-49514D01*
X111924Y-49467D01*
X111924Y-49371D01*
X111900Y-49324D01*
X111877Y-49300D01*
X111829Y-49276D01*
X110387Y-45990D02*
X110387Y-45656D01*
X110887Y-45871D01*
X110554Y-45252D02*
X110887Y-45252D01*
X110363Y-45371D02*
X110720Y-45490D01*
X110720Y-45180D01*
X110625Y-44823D02*
X110625Y-44990D01*
X110887Y-44990D02*
X110387Y-44990D01*
X110387Y-44752D01*
X110887Y-44299D02*
X110887Y-44585D01*
X110887Y-44442D02*
X110387Y-44442D01*
X110458Y-44490D01*
X110506Y-44537D01*
X110530Y-44585D01*
X110554Y-43871D02*
X110887Y-43871D01*
X110363Y-43990D02*
X110720Y-44109D01*
X110720Y-43799D01*
X55612Y-21619D02*
X56017Y-21619D01*
X56064Y-21642D01*
X56088Y-21666D01*
X56112Y-21714D01*
X56112Y-21809D01*
X56088Y-21857D01*
X56064Y-21880D01*
X56017Y-21904D01*
X55612Y-21904D01*
X55779Y-22357D02*
X56112Y-22357D01*
X55588Y-22238D02*
X55945Y-22119D01*
X55945Y-22428D01*
X60085Y-21592D02*
X59752Y-21592D01*
X59966Y-22092D01*
X59347Y-21759D02*
X59347Y-22092D01*
X59466Y-21568D02*
X59585Y-21925D01*
X59276Y-21925D01*
X58847Y-22092D02*
X59085Y-22092D01*
X59085Y-21592D01*
X58752Y-21592D02*
X58585Y-22092D01*
X58419Y-21592D01*
X57966Y-22044D02*
X57990Y-22068D01*
X58061Y-22092D01*
X58109Y-22092D01*
X58180Y-22068D01*
X58228Y-22020D01*
X58252Y-21973D01*
X58276Y-21878D01*
X58276Y-21806D01*
X58252Y-21711D01*
X58228Y-21663D01*
X58180Y-21616D01*
X58109Y-21592D01*
X58061Y-21592D01*
X57990Y-21616D01*
X57966Y-21640D01*
X57514Y-21592D02*
X57752Y-21592D01*
X57776Y-21830D01*
X57752Y-21806D01*
X57704Y-21782D01*
X57585Y-21782D01*
X57538Y-21806D01*
X57514Y-21830D01*
X57490Y-21878D01*
X57490Y-21997D01*
X57514Y-22044D01*
X57538Y-22068D01*
X57585Y-22092D01*
X57704Y-22092D01*
X57752Y-22068D01*
X57776Y-22044D01*
X57323Y-21592D02*
X56990Y-21592D01*
X57204Y-22092D01*
X56847Y-21592D02*
X56538Y-21592D01*
X56704Y-21782D01*
X56633Y-21782D01*
X56585Y-21806D01*
X56561Y-21830D01*
X56538Y-21878D01*
X56538Y-21997D01*
X56561Y-22044D01*
X56585Y-22068D01*
X56633Y-22092D01*
X56776Y-22092D01*
X56823Y-22068D01*
X56847Y-22044D01*
X44712Y-21619D02*
X45117Y-21619D01*
X45164Y-21642D01*
X45188Y-21666D01*
X45212Y-21714D01*
X45212Y-21809D01*
X45188Y-21857D01*
X45164Y-21880D01*
X45117Y-21904D01*
X44712Y-21904D01*
X44760Y-22119D02*
X44736Y-22142D01*
X44712Y-22190D01*
X44712Y-22309D01*
X44736Y-22357D01*
X44760Y-22380D01*
X44807Y-22404D01*
X44855Y-22404D01*
X44926Y-22380D01*
X45212Y-22095D01*
X45212Y-22404D01*
X49185Y-21592D02*
X48852Y-21592D01*
X49066Y-22092D01*
X48447Y-21759D02*
X48447Y-22092D01*
X48566Y-21568D02*
X48685Y-21925D01*
X48376Y-21925D01*
X47947Y-22092D02*
X48185Y-22092D01*
X48185Y-21592D01*
X47852Y-21592D02*
X47685Y-22092D01*
X47519Y-21592D01*
X47066Y-22044D02*
X47090Y-22068D01*
X47161Y-22092D01*
X47209Y-22092D01*
X47280Y-22068D01*
X47328Y-22020D01*
X47352Y-21973D01*
X47376Y-21878D01*
X47376Y-21806D01*
X47352Y-21711D01*
X47328Y-21663D01*
X47280Y-21616D01*
X47209Y-21592D01*
X47161Y-21592D01*
X47090Y-21616D01*
X47066Y-21640D01*
X46614Y-21592D02*
X46852Y-21592D01*
X46876Y-21830D01*
X46852Y-21806D01*
X46804Y-21782D01*
X46685Y-21782D01*
X46638Y-21806D01*
X46614Y-21830D01*
X46590Y-21878D01*
X46590Y-21997D01*
X46614Y-22044D01*
X46638Y-22068D01*
X46685Y-22092D01*
X46804Y-22092D01*
X46852Y-22068D01*
X46876Y-22044D01*
X46423Y-21592D02*
X46090Y-21592D01*
X46304Y-22092D01*
X45947Y-21592D02*
X45638Y-21592D01*
X45804Y-21782D01*
X45733Y-21782D01*
X45685Y-21806D01*
X45661Y-21830D01*
X45638Y-21878D01*
X45638Y-21997D01*
X45661Y-22044D01*
X45685Y-22068D01*
X45733Y-22092D01*
X45876Y-22092D01*
X45923Y-22068D01*
X45947Y-22044D01*
X96727Y-18331D02*
X96489Y-18165D01*
X96727Y-18045D02*
X96227Y-18045D01*
X96227Y-18236D01*
X96251Y-18284D01*
X96275Y-18307D01*
X96322Y-18331D01*
X96394Y-18331D01*
X96441Y-18307D01*
X96465Y-18284D01*
X96489Y-18236D01*
X96489Y-18045D01*
X96227Y-18498D02*
X96227Y-18807D01*
X96417Y-18641D01*
X96417Y-18712D01*
X96441Y-18760D01*
X96465Y-18784D01*
X96513Y-18807D01*
X96632Y-18807D01*
X96679Y-18784D01*
X96703Y-18760D01*
X96727Y-18712D01*
X96727Y-18569D01*
X96703Y-18522D01*
X96679Y-18498D01*
X99687Y-10271D02*
X99687Y-9985D01*
X99687Y-10128D02*
X99187Y-10128D01*
X99258Y-10081D01*
X99306Y-10033D01*
X99330Y-9985D01*
X99187Y-10581D02*
X99187Y-10628D01*
X99211Y-10676D01*
X99235Y-10700D01*
X99282Y-10724D01*
X99377Y-10747D01*
X99496Y-10747D01*
X99592Y-10724D01*
X99639Y-10700D01*
X99663Y-10676D01*
X99687Y-10628D01*
X99687Y-10581D01*
X99663Y-10533D01*
X99639Y-10509D01*
X99592Y-10485D01*
X99496Y-10462D01*
X99377Y-10462D01*
X99282Y-10485D01*
X99235Y-10509D01*
X99211Y-10533D01*
X99187Y-10581D01*
X99187Y-11057D02*
X99187Y-11105D01*
X99211Y-11152D01*
X99235Y-11176D01*
X99282Y-11200D01*
X99377Y-11224D01*
X99496Y-11224D01*
X99592Y-11200D01*
X99639Y-11176D01*
X99663Y-11152D01*
X99687Y-11105D01*
X99687Y-11057D01*
X99663Y-11009D01*
X99639Y-10985D01*
X99592Y-10962D01*
X99496Y-10938D01*
X99377Y-10938D01*
X99282Y-10962D01*
X99235Y-10985D01*
X99211Y-11009D01*
X99187Y-11057D01*
X98767Y-18331D02*
X98529Y-18165D01*
X98767Y-18045D02*
X98267Y-18045D01*
X98267Y-18236D01*
X98291Y-18284D01*
X98315Y-18307D01*
X98362Y-18331D01*
X98434Y-18331D01*
X98481Y-18307D01*
X98505Y-18284D01*
X98529Y-18236D01*
X98529Y-18045D01*
X98315Y-18522D02*
X98291Y-18545D01*
X98267Y-18593D01*
X98267Y-18712D01*
X98291Y-18760D01*
X98315Y-18784D01*
X98362Y-18807D01*
X98410Y-18807D01*
X98481Y-18784D01*
X98767Y-18498D01*
X98767Y-18807D01*
X101072Y-10201D02*
X101072Y-9915D01*
X101072Y-10058D02*
X100572Y-10058D01*
X100643Y-10011D01*
X100691Y-9963D01*
X100715Y-9915D01*
X100572Y-10511D02*
X100572Y-10558D01*
X100596Y-10606D01*
X100620Y-10630D01*
X100667Y-10654D01*
X100762Y-10677D01*
X100881Y-10677D01*
X100977Y-10654D01*
X101024Y-10630D01*
X101048Y-10606D01*
X101072Y-10558D01*
X101072Y-10511D01*
X101048Y-10463D01*
X101024Y-10439D01*
X100977Y-10415D01*
X100881Y-10392D01*
X100762Y-10392D01*
X100667Y-10415D01*
X100620Y-10439D01*
X100596Y-10463D01*
X100572Y-10511D01*
X100572Y-10987D02*
X100572Y-11035D01*
X100596Y-11082D01*
X100620Y-11106D01*
X100667Y-11130D01*
X100762Y-11154D01*
X100881Y-11154D01*
X100977Y-11130D01*
X101024Y-11106D01*
X101048Y-11082D01*
X101072Y-11035D01*
X101072Y-10987D01*
X101048Y-10939D01*
X101024Y-10915D01*
X100977Y-10892D01*
X100881Y-10868D01*
X100762Y-10868D01*
X100667Y-10892D01*
X100620Y-10915D01*
X100596Y-10939D01*
X100572Y-10987D01*
X80974Y-28148D02*
X80998Y-28124D01*
X81022Y-28053D01*
X81022Y-28005D01*
X80998Y-27934D01*
X80950Y-27886D01*
X80903Y-27862D01*
X80808Y-27839D01*
X80736Y-27839D01*
X80641Y-27862D01*
X80593Y-27886D01*
X80546Y-27934D01*
X80522Y-28005D01*
X80522Y-28053D01*
X80546Y-28124D01*
X80570Y-28148D01*
X80570Y-28339D02*
X80546Y-28362D01*
X80522Y-28410D01*
X80522Y-28529D01*
X80546Y-28577D01*
X80570Y-28600D01*
X80617Y-28624D01*
X80665Y-28624D01*
X80736Y-28600D01*
X81022Y-28315D01*
X81022Y-28624D01*
X80570Y-28815D02*
X80546Y-28839D01*
X80522Y-28886D01*
X80522Y-29005D01*
X80546Y-29053D01*
X80570Y-29077D01*
X80617Y-29100D01*
X80665Y-29100D01*
X80736Y-29077D01*
X81022Y-28791D01*
X81022Y-29100D01*
X110002Y-25638D02*
X110002Y-25685D01*
X110026Y-25733D01*
X110050Y-25757D01*
X110097Y-25780D01*
X110192Y-25804D01*
X110311Y-25804D01*
X110407Y-25780D01*
X110454Y-25757D01*
X110478Y-25733D01*
X110502Y-25685D01*
X110502Y-25638D01*
X110478Y-25590D01*
X110454Y-25566D01*
X110407Y-25542D01*
X110311Y-25519D01*
X110192Y-25519D01*
X110097Y-25542D01*
X110050Y-25566D01*
X110026Y-25590D01*
X110002Y-25638D01*
X110454Y-26019D02*
X110478Y-26042D01*
X110502Y-26019D01*
X110478Y-25995D01*
X110454Y-26019D01*
X110502Y-26019D01*
X110502Y-26519D02*
X110502Y-26233D01*
X110502Y-26376D02*
X110002Y-26376D01*
X110073Y-26328D01*
X110121Y-26280D01*
X110145Y-26233D01*
X110169Y-27328D02*
X110502Y-27328D01*
X110169Y-27114D02*
X110430Y-27114D01*
X110478Y-27138D01*
X110502Y-27185D01*
X110502Y-27257D01*
X110478Y-27304D01*
X110454Y-27328D01*
X110240Y-27733D02*
X110240Y-27566D01*
X110502Y-27566D02*
X110002Y-27566D01*
X110002Y-27804D01*
X99772Y-18321D02*
X99534Y-18155D01*
X99772Y-18035D02*
X99272Y-18035D01*
X99272Y-18226D01*
X99296Y-18274D01*
X99320Y-18297D01*
X99367Y-18321D01*
X99439Y-18321D01*
X99486Y-18297D01*
X99510Y-18274D01*
X99534Y-18226D01*
X99534Y-18035D01*
X99439Y-18750D02*
X99772Y-18750D01*
X99248Y-18631D02*
X99605Y-18512D01*
X99605Y-18821D01*
X100457Y-10136D02*
X100457Y-9850D01*
X100457Y-9993D02*
X99957Y-9993D01*
X100028Y-9946D01*
X100076Y-9898D01*
X100100Y-9850D01*
X99957Y-10446D02*
X99957Y-10493D01*
X99981Y-10541D01*
X100005Y-10565D01*
X100052Y-10589D01*
X100147Y-10612D01*
X100266Y-10612D01*
X100362Y-10589D01*
X100409Y-10565D01*
X100433Y-10541D01*
X100457Y-10493D01*
X100457Y-10446D01*
X100433Y-10398D01*
X100409Y-10374D01*
X100362Y-10350D01*
X100266Y-10327D01*
X100147Y-10327D01*
X100052Y-10350D01*
X100005Y-10374D01*
X99981Y-10398D01*
X99957Y-10446D01*
X99957Y-10922D02*
X99957Y-10970D01*
X99981Y-11017D01*
X100005Y-11041D01*
X100052Y-11065D01*
X100147Y-11089D01*
X100266Y-11089D01*
X100362Y-11065D01*
X100409Y-11041D01*
X100433Y-11017D01*
X100457Y-10970D01*
X100457Y-10922D01*
X100433Y-10874D01*
X100409Y-10850D01*
X100362Y-10827D01*
X100266Y-10803D01*
X100147Y-10803D01*
X100052Y-10827D01*
X100005Y-10850D01*
X99981Y-10874D01*
X99957Y-10922D01*
X54874Y-23513D02*
X54898Y-23489D01*
X54922Y-23418D01*
X54922Y-23370D01*
X54898Y-23299D01*
X54850Y-23251D01*
X54803Y-23227D01*
X54708Y-23204D01*
X54636Y-23204D01*
X54541Y-23227D01*
X54493Y-23251D01*
X54446Y-23299D01*
X54422Y-23370D01*
X54422Y-23418D01*
X54446Y-23489D01*
X54470Y-23513D01*
X54922Y-23989D02*
X54922Y-23704D01*
X54922Y-23846D02*
X54422Y-23846D01*
X54493Y-23799D01*
X54541Y-23751D01*
X54565Y-23704D01*
X54422Y-24156D02*
X54422Y-24465D01*
X54612Y-24299D01*
X54612Y-24370D01*
X54636Y-24418D01*
X54660Y-24442D01*
X54708Y-24465D01*
X54827Y-24465D01*
X54874Y-24442D01*
X54898Y-24418D01*
X54922Y-24370D01*
X54922Y-24227D01*
X54898Y-24180D01*
X54874Y-24156D01*
X56252Y-8698D02*
X56252Y-8745D01*
X56276Y-8793D01*
X56300Y-8817D01*
X56347Y-8840D01*
X56442Y-8864D01*
X56561Y-8864D01*
X56657Y-8840D01*
X56704Y-8817D01*
X56728Y-8793D01*
X56752Y-8745D01*
X56752Y-8698D01*
X56728Y-8650D01*
X56704Y-8626D01*
X56657Y-8602D01*
X56561Y-8579D01*
X56442Y-8579D01*
X56347Y-8602D01*
X56300Y-8626D01*
X56276Y-8650D01*
X56252Y-8698D01*
X56704Y-9079D02*
X56728Y-9102D01*
X56752Y-9079D01*
X56728Y-9055D01*
X56704Y-9079D01*
X56752Y-9079D01*
X56752Y-9579D02*
X56752Y-9293D01*
X56752Y-9436D02*
X56252Y-9436D01*
X56323Y-9388D01*
X56371Y-9340D01*
X56395Y-9293D01*
X56419Y-10388D02*
X56752Y-10388D01*
X56419Y-10174D02*
X56680Y-10174D01*
X56728Y-10198D01*
X56752Y-10245D01*
X56752Y-10317D01*
X56728Y-10364D01*
X56704Y-10388D01*
X56490Y-10793D02*
X56490Y-10626D01*
X56752Y-10626D02*
X56252Y-10626D01*
X56252Y-10864D01*
X88494Y-40503D02*
X88518Y-40479D01*
X88542Y-40408D01*
X88542Y-40360D01*
X88518Y-40289D01*
X88470Y-40241D01*
X88423Y-40217D01*
X88328Y-40194D01*
X88256Y-40194D01*
X88161Y-40217D01*
X88113Y-40241D01*
X88066Y-40289D01*
X88042Y-40360D01*
X88042Y-40408D01*
X88066Y-40479D01*
X88090Y-40503D01*
X88090Y-40694D02*
X88066Y-40717D01*
X88042Y-40765D01*
X88042Y-40884D01*
X88066Y-40932D01*
X88090Y-40955D01*
X88137Y-40979D01*
X88185Y-40979D01*
X88256Y-40955D01*
X88542Y-40670D01*
X88542Y-40979D01*
X88042Y-41146D02*
X88042Y-41479D01*
X88542Y-41265D01*
X109352Y-41578D02*
X109352Y-41625D01*
X109376Y-41673D01*
X109400Y-41697D01*
X109447Y-41720D01*
X109542Y-41744D01*
X109661Y-41744D01*
X109757Y-41720D01*
X109804Y-41697D01*
X109828Y-41673D01*
X109852Y-41625D01*
X109852Y-41578D01*
X109828Y-41530D01*
X109804Y-41506D01*
X109757Y-41482D01*
X109661Y-41459D01*
X109542Y-41459D01*
X109447Y-41482D01*
X109400Y-41506D01*
X109376Y-41530D01*
X109352Y-41578D01*
X109804Y-41959D02*
X109828Y-41982D01*
X109852Y-41959D01*
X109828Y-41935D01*
X109804Y-41959D01*
X109852Y-41959D01*
X109852Y-42459D02*
X109852Y-42173D01*
X109852Y-42316D02*
X109352Y-42316D01*
X109423Y-42268D01*
X109471Y-42220D01*
X109495Y-42173D01*
X109519Y-43268D02*
X109852Y-43268D01*
X109519Y-43054D02*
X109780Y-43054D01*
X109828Y-43078D01*
X109852Y-43125D01*
X109852Y-43197D01*
X109828Y-43244D01*
X109804Y-43268D01*
X109590Y-43673D02*
X109590Y-43506D01*
X109852Y-43506D02*
X109352Y-43506D01*
X109352Y-43744D01*
X43924Y-23063D02*
X43948Y-23039D01*
X43972Y-22968D01*
X43972Y-22920D01*
X43948Y-22849D01*
X43900Y-22801D01*
X43853Y-22777D01*
X43758Y-22754D01*
X43686Y-22754D01*
X43591Y-22777D01*
X43543Y-22801D01*
X43496Y-22849D01*
X43472Y-22920D01*
X43472Y-22968D01*
X43496Y-23039D01*
X43520Y-23063D01*
X43520Y-23254D02*
X43496Y-23277D01*
X43472Y-23325D01*
X43472Y-23444D01*
X43496Y-23492D01*
X43520Y-23515D01*
X43567Y-23539D01*
X43615Y-23539D01*
X43686Y-23515D01*
X43972Y-23230D01*
X43972Y-23539D01*
X43472Y-23968D02*
X43472Y-23873D01*
X43496Y-23825D01*
X43520Y-23801D01*
X43591Y-23754D01*
X43686Y-23730D01*
X43877Y-23730D01*
X43924Y-23754D01*
X43948Y-23777D01*
X43972Y-23825D01*
X43972Y-23920D01*
X43948Y-23968D01*
X43924Y-23992D01*
X43877Y-24015D01*
X43758Y-24015D01*
X43710Y-23992D01*
X43686Y-23968D01*
X43662Y-23920D01*
X43662Y-23825D01*
X43686Y-23777D01*
X43710Y-23754D01*
X43758Y-23730D01*
X45237Y-9453D02*
X45237Y-9500D01*
X45261Y-9548D01*
X45285Y-9572D01*
X45332Y-9595D01*
X45427Y-9619D01*
X45546Y-9619D01*
X45642Y-9595D01*
X45689Y-9572D01*
X45713Y-9548D01*
X45737Y-9500D01*
X45737Y-9453D01*
X45713Y-9405D01*
X45689Y-9381D01*
X45642Y-9357D01*
X45546Y-9334D01*
X45427Y-9334D01*
X45332Y-9357D01*
X45285Y-9381D01*
X45261Y-9405D01*
X45237Y-9453D01*
X45689Y-9834D02*
X45713Y-9857D01*
X45737Y-9834D01*
X45713Y-9810D01*
X45689Y-9834D01*
X45737Y-9834D01*
X45737Y-10334D02*
X45737Y-10048D01*
X45737Y-10191D02*
X45237Y-10191D01*
X45308Y-10143D01*
X45356Y-10095D01*
X45380Y-10048D01*
X45404Y-11143D02*
X45737Y-11143D01*
X45404Y-10929D02*
X45665Y-10929D01*
X45713Y-10953D01*
X45737Y-11000D01*
X45737Y-11072D01*
X45713Y-11119D01*
X45689Y-11143D01*
X45475Y-11548D02*
X45475Y-11381D01*
X45737Y-11381D02*
X45237Y-11381D01*
X45237Y-11619D01*
X91191Y-44059D02*
X91215Y-44083D01*
X91286Y-44107D01*
X91334Y-44107D01*
X91405Y-44083D01*
X91453Y-44035D01*
X91477Y-43988D01*
X91500Y-43893D01*
X91500Y-43821D01*
X91477Y-43726D01*
X91453Y-43678D01*
X91405Y-43631D01*
X91334Y-43607D01*
X91286Y-43607D01*
X91215Y-43631D01*
X91191Y-43655D01*
X91024Y-43607D02*
X90715Y-43607D01*
X90881Y-43797D01*
X90810Y-43797D01*
X90762Y-43821D01*
X90739Y-43845D01*
X90715Y-43893D01*
X90715Y-44012D01*
X90739Y-44059D01*
X90762Y-44083D01*
X90810Y-44107D01*
X90953Y-44107D01*
X91000Y-44083D01*
X91024Y-44059D01*
X90405Y-43607D02*
X90358Y-43607D01*
X90310Y-43631D01*
X90286Y-43655D01*
X90262Y-43702D01*
X90239Y-43797D01*
X90239Y-43916D01*
X90262Y-44012D01*
X90286Y-44059D01*
X90310Y-44083D01*
X90358Y-44107D01*
X90405Y-44107D01*
X90453Y-44083D01*
X90477Y-44059D01*
X90500Y-44012D01*
X90524Y-43916D01*
X90524Y-43797D01*
X90500Y-43702D01*
X90477Y-43655D01*
X90453Y-43631D01*
X90405Y-43607D01*
X113161Y-41552D02*
X113114Y-41552D01*
X113066Y-41576D01*
X113042Y-41600D01*
X113019Y-41647D01*
X112995Y-41742D01*
X112995Y-41861D01*
X113019Y-41957D01*
X113042Y-42004D01*
X113066Y-42028D01*
X113114Y-42052D01*
X113161Y-42052D01*
X113209Y-42028D01*
X113233Y-42004D01*
X113257Y-41957D01*
X113280Y-41861D01*
X113280Y-41742D01*
X113257Y-41647D01*
X113233Y-41600D01*
X113209Y-41576D01*
X113161Y-41552D01*
X112780Y-42004D02*
X112757Y-42028D01*
X112780Y-42052D01*
X112804Y-42028D01*
X112780Y-42004D01*
X112780Y-42052D01*
X112280Y-42052D02*
X112566Y-42052D01*
X112423Y-42052D02*
X112423Y-41552D01*
X112471Y-41623D01*
X112519Y-41671D01*
X112566Y-41695D01*
X111471Y-41719D02*
X111471Y-42052D01*
X111685Y-41719D02*
X111685Y-41980D01*
X111661Y-42028D01*
X111614Y-42052D01*
X111542Y-42052D01*
X111495Y-42028D01*
X111471Y-42004D01*
X111066Y-41790D02*
X111233Y-41790D01*
X111233Y-42052D02*
X111233Y-41552D01*
X110995Y-41552D01*
X4074Y-37047D02*
X4074Y-37452D01*
X4097Y-37499D01*
X4121Y-37523D01*
X4169Y-37547D01*
X4264Y-37547D01*
X4312Y-37523D01*
X4335Y-37499D01*
X4359Y-37452D01*
X4359Y-37047D01*
X4550Y-37047D02*
X4883Y-37047D01*
X4669Y-37547D01*
X-2588Y-38702D02*
X-2826Y-38702D01*
X-2826Y-38202D01*
X-2421Y-38702D02*
X-2421Y-38202D01*
X-2255Y-38559D01*
X-2088Y-38202D01*
X-2088Y-38702D01*
X-1588Y-38702D02*
X-1874Y-38702D01*
X-1731Y-38702D02*
X-1731Y-38202D01*
X-1778Y-38273D01*
X-1826Y-38321D01*
X-1874Y-38345D01*
X-1278Y-38202D02*
X-1231Y-38202D01*
X-1183Y-38226D01*
X-1159Y-38250D01*
X-1135Y-38297D01*
X-1112Y-38392D01*
X-1112Y-38511D01*
X-1135Y-38607D01*
X-1159Y-38654D01*
X-1183Y-38678D01*
X-1231Y-38702D01*
X-1278Y-38702D01*
X-1326Y-38678D01*
X-1350Y-38654D01*
X-1374Y-38607D01*
X-1397Y-38511D01*
X-1397Y-38392D01*
X-1374Y-38297D01*
X-1350Y-38250D01*
X-1326Y-38226D01*
X-1278Y-38202D01*
X-826Y-38416D02*
X-874Y-38392D01*
X-897Y-38369D01*
X-921Y-38321D01*
X-921Y-38297D01*
X-897Y-38250D01*
X-874Y-38226D01*
X-826Y-38202D01*
X-731Y-38202D01*
X-683Y-38226D01*
X-659Y-38250D01*
X-635Y-38297D01*
X-635Y-38321D01*
X-659Y-38369D01*
X-683Y-38392D01*
X-731Y-38416D01*
X-826Y-38416D01*
X-874Y-38440D01*
X-897Y-38464D01*
X-921Y-38511D01*
X-921Y-38607D01*
X-897Y-38654D01*
X-874Y-38678D01*
X-826Y-38702D01*
X-731Y-38702D01*
X-683Y-38678D01*
X-659Y-38654D01*
X-635Y-38607D01*
X-635Y-38511D01*
X-659Y-38464D01*
X-683Y-38440D01*
X-731Y-38416D01*
X-207Y-38202D02*
X-302Y-38202D01*
X-350Y-38226D01*
X-374Y-38250D01*
X-421Y-38321D01*
X-445Y-38416D01*
X-445Y-38607D01*
X-421Y-38654D01*
X-397Y-38678D01*
X-350Y-38702D01*
X-255Y-38702D01*
X-207Y-38678D01*
X-183Y-38654D01*
X-159Y-38607D01*
X-159Y-38488D01*
X-183Y-38440D01*
X-207Y-38416D01*
X-255Y-38392D01*
X-350Y-38392D01*
X-397Y-38416D01*
X-421Y-38440D01*
X-445Y-38488D01*
X340Y-38654D02*
X316Y-38678D01*
X245Y-38702D01*
X197Y-38702D01*
X125Y-38678D01*
X78Y-38630D01*
X54Y-38583D01*
X30Y-38488D01*
X30Y-38416D01*
X54Y-38321D01*
X78Y-38273D01*
X125Y-38226D01*
X197Y-38202D01*
X245Y-38202D01*
X316Y-38226D01*
X340Y-38250D01*
X530Y-38678D02*
X602Y-38702D01*
X721Y-38702D01*
X768Y-38678D01*
X792Y-38654D01*
X816Y-38607D01*
X816Y-38559D01*
X792Y-38511D01*
X768Y-38488D01*
X721Y-38464D01*
X625Y-38440D01*
X578Y-38416D01*
X554Y-38392D01*
X530Y-38345D01*
X530Y-38297D01*
X554Y-38250D01*
X578Y-38226D01*
X625Y-38202D01*
X745Y-38202D01*
X816Y-38226D01*
X911Y-38750D02*
X1292Y-38750D01*
X1340Y-38202D02*
X1625Y-38202D01*
X1483Y-38702D02*
X1483Y-38202D01*
X1887Y-38202D02*
X1983Y-38202D01*
X2030Y-38226D01*
X2078Y-38273D01*
X2102Y-38369D01*
X2102Y-38535D01*
X2078Y-38630D01*
X2030Y-38678D01*
X1983Y-38702D01*
X1887Y-38702D01*
X1840Y-38678D01*
X1792Y-38630D01*
X1768Y-38535D01*
X1768Y-38369D01*
X1792Y-38273D01*
X1840Y-38226D01*
X1887Y-38202D01*
X2292Y-38250D02*
X2316Y-38226D01*
X2364Y-38202D01*
X2483Y-38202D01*
X2530Y-38226D01*
X2554Y-38250D01*
X2578Y-38297D01*
X2578Y-38345D01*
X2554Y-38416D01*
X2268Y-38702D01*
X2578Y-38702D01*
X3030Y-38202D02*
X2792Y-38202D01*
X2768Y-38440D01*
X2792Y-38416D01*
X2840Y-38392D01*
X2959Y-38392D01*
X3006Y-38416D01*
X3030Y-38440D01*
X3054Y-38488D01*
X3054Y-38607D01*
X3030Y-38654D01*
X3006Y-38678D01*
X2959Y-38702D01*
X2840Y-38702D01*
X2792Y-38678D01*
X2768Y-38654D01*
X3245Y-38250D02*
X3268Y-38226D01*
X3316Y-38202D01*
X3435Y-38202D01*
X3483Y-38226D01*
X3506Y-38250D01*
X3530Y-38297D01*
X3530Y-38345D01*
X3506Y-38416D01*
X3221Y-38702D01*
X3530Y-38702D01*
X3625Y-38750D02*
X4006Y-38750D01*
X4125Y-38702D02*
X4125Y-38202D01*
X4245Y-38202D01*
X4316Y-38226D01*
X4364Y-38273D01*
X4387Y-38321D01*
X4411Y-38416D01*
X4411Y-38488D01*
X4387Y-38583D01*
X4364Y-38630D01*
X4316Y-38678D01*
X4245Y-38702D01*
X4125Y-38702D01*
X4625Y-38702D02*
X4625Y-38202D01*
X4816Y-38202D01*
X4864Y-38226D01*
X4887Y-38250D01*
X4911Y-38297D01*
X4911Y-38369D01*
X4887Y-38416D01*
X4864Y-38440D01*
X4816Y-38464D01*
X4625Y-38464D01*
X5102Y-38559D02*
X5340Y-38559D01*
X5054Y-38702D02*
X5221Y-38202D01*
X5387Y-38702D01*
X5554Y-38702D02*
X5554Y-38202D01*
X5840Y-38702D02*
X5625Y-38416D01*
X5840Y-38202D02*
X5554Y-38488D01*
X22863Y-17912D02*
X23030Y-17674D01*
X23149Y-17912D02*
X23149Y-17412D01*
X22958Y-17412D01*
X22910Y-17436D01*
X22887Y-17460D01*
X22863Y-17507D01*
X22863Y-17579D01*
X22887Y-17626D01*
X22910Y-17650D01*
X22958Y-17674D01*
X23149Y-17674D01*
X22410Y-17412D02*
X22649Y-17412D01*
X22672Y-17650D01*
X22649Y-17626D01*
X22601Y-17602D01*
X22482Y-17602D01*
X22434Y-17626D01*
X22410Y-17650D01*
X22387Y-17698D01*
X22387Y-17817D01*
X22410Y-17864D01*
X22434Y-17888D01*
X22482Y-17912D01*
X22601Y-17912D01*
X22649Y-17888D01*
X22672Y-17864D01*
X23727Y-11042D02*
X23418Y-11042D01*
X23585Y-11232D01*
X23513Y-11232D01*
X23465Y-11256D01*
X23442Y-11280D01*
X23418Y-11328D01*
X23418Y-11447D01*
X23442Y-11494D01*
X23465Y-11518D01*
X23513Y-11542D01*
X23656Y-11542D01*
X23704Y-11518D01*
X23727Y-11494D01*
X23251Y-11042D02*
X22942Y-11042D01*
X23108Y-11232D01*
X23037Y-11232D01*
X22989Y-11256D01*
X22965Y-11280D01*
X22942Y-11328D01*
X22942Y-11447D01*
X22965Y-11494D01*
X22989Y-11518D01*
X23037Y-11542D01*
X23180Y-11542D01*
X23227Y-11518D01*
X23251Y-11494D01*
X22632Y-11042D02*
X22585Y-11042D01*
X22537Y-11066D01*
X22513Y-11090D01*
X22489Y-11137D01*
X22465Y-11232D01*
X22465Y-11351D01*
X22489Y-11447D01*
X22513Y-11494D01*
X22537Y-11518D01*
X22585Y-11542D01*
X22632Y-11542D01*
X22680Y-11518D01*
X22704Y-11494D01*
X22727Y-11447D01*
X22751Y-11351D01*
X22751Y-11232D01*
X22727Y-11137D01*
X22704Y-11090D01*
X22680Y-11066D01*
X22632Y-11042D01*
X22818Y-15372D02*
X22985Y-15134D01*
X23104Y-15372D02*
X23104Y-14872D01*
X22913Y-14872D01*
X22865Y-14896D01*
X22842Y-14920D01*
X22818Y-14967D01*
X22818Y-15039D01*
X22842Y-15086D01*
X22865Y-15110D01*
X22913Y-15134D01*
X23104Y-15134D01*
X22389Y-14872D02*
X22485Y-14872D01*
X22532Y-14896D01*
X22556Y-14920D01*
X22604Y-14991D01*
X22627Y-15086D01*
X22627Y-15277D01*
X22604Y-15324D01*
X22580Y-15348D01*
X22532Y-15372D01*
X22437Y-15372D01*
X22389Y-15348D01*
X22365Y-15324D01*
X22342Y-15277D01*
X22342Y-15158D01*
X22365Y-15110D01*
X22389Y-15086D01*
X22437Y-15062D01*
X22532Y-15062D01*
X22580Y-15086D01*
X22604Y-15110D01*
X22627Y-15158D01*
X23592Y-11297D02*
X23283Y-11297D01*
X23450Y-11487D01*
X23378Y-11487D01*
X23330Y-11511D01*
X23307Y-11535D01*
X23283Y-11583D01*
X23283Y-11702D01*
X23307Y-11749D01*
X23330Y-11773D01*
X23378Y-11797D01*
X23521Y-11797D01*
X23569Y-11773D01*
X23592Y-11749D01*
X23116Y-11297D02*
X22807Y-11297D01*
X22973Y-11487D01*
X22902Y-11487D01*
X22854Y-11511D01*
X22830Y-11535D01*
X22807Y-11583D01*
X22807Y-11702D01*
X22830Y-11749D01*
X22854Y-11773D01*
X22902Y-11797D01*
X23045Y-11797D01*
X23092Y-11773D01*
X23116Y-11749D01*
X22497Y-11297D02*
X22450Y-11297D01*
X22402Y-11321D01*
X22378Y-11345D01*
X22354Y-11392D01*
X22330Y-11487D01*
X22330Y-11606D01*
X22354Y-11702D01*
X22378Y-11749D01*
X22402Y-11773D01*
X22450Y-11797D01*
X22497Y-11797D01*
X22545Y-11773D01*
X22569Y-11749D01*
X22592Y-11702D01*
X22616Y-11606D01*
X22616Y-11487D01*
X22592Y-11392D01*
X22569Y-11345D01*
X22545Y-11321D01*
X22497Y-11297D01*
X5909Y-53551D02*
X5909Y-53875D01*
X5928Y-53913D01*
X5947Y-53932D01*
X5985Y-53951D01*
X6062Y-53951D01*
X6100Y-53932D01*
X6119Y-53913D01*
X6138Y-53875D01*
X6138Y-53551D01*
X6309Y-53590D02*
X6328Y-53570D01*
X6366Y-53551D01*
X6462Y-53551D01*
X6500Y-53570D01*
X6519Y-53590D01*
X6538Y-53628D01*
X6538Y-53666D01*
X6519Y-53723D01*
X6290Y-53951D01*
X6538Y-53951D01*
X6785Y-53551D02*
X6824Y-53551D01*
X6862Y-53570D01*
X6881Y-53590D01*
X6900Y-53628D01*
X6919Y-53704D01*
X6919Y-53799D01*
X6900Y-53875D01*
X6881Y-53913D01*
X6862Y-53932D01*
X6824Y-53951D01*
X6785Y-53951D01*
X6747Y-53932D01*
X6728Y-53913D01*
X6709Y-53875D01*
X6690Y-53799D01*
X6690Y-53704D01*
X6709Y-53628D01*
X6728Y-53590D01*
X6747Y-53570D01*
X6785Y-53551D01*
X3634Y-53816D02*
X3444Y-53816D01*
X3444Y-53416D01*
X3710Y-53416D02*
X3939Y-53416D01*
X3825Y-53816D02*
X3825Y-53416D01*
X4034Y-53416D02*
X4282Y-53416D01*
X4148Y-53569D01*
X4205Y-53569D01*
X4244Y-53588D01*
X4263Y-53607D01*
X4282Y-53645D01*
X4282Y-53740D01*
X4263Y-53778D01*
X4244Y-53797D01*
X4205Y-53816D01*
X4091Y-53816D01*
X4053Y-53797D01*
X4034Y-53778D01*
X4529Y-53416D02*
X4567Y-53416D01*
X4605Y-53435D01*
X4625Y-53455D01*
X4644Y-53493D01*
X4663Y-53569D01*
X4663Y-53664D01*
X4644Y-53740D01*
X4625Y-53778D01*
X4605Y-53797D01*
X4567Y-53816D01*
X4529Y-53816D01*
X4491Y-53797D01*
X4472Y-53778D01*
X4453Y-53740D01*
X4434Y-53664D01*
X4434Y-53569D01*
X4453Y-53493D01*
X4472Y-53455D01*
X4491Y-53435D01*
X4529Y-53416D01*
X4891Y-53588D02*
X4853Y-53569D01*
X4834Y-53550D01*
X4815Y-53512D01*
X4815Y-53493D01*
X4834Y-53455D01*
X4853Y-53435D01*
X4891Y-53416D01*
X4967Y-53416D01*
X5005Y-53435D01*
X5025Y-53455D01*
X5044Y-53493D01*
X5044Y-53512D01*
X5025Y-53550D01*
X5005Y-53569D01*
X4967Y-53588D01*
X4891Y-53588D01*
X4853Y-53607D01*
X4834Y-53626D01*
X4815Y-53664D01*
X4815Y-53740D01*
X4834Y-53778D01*
X4853Y-53797D01*
X4891Y-53816D01*
X4967Y-53816D01*
X5005Y-53797D01*
X5025Y-53778D01*
X5044Y-53740D01*
X5044Y-53664D01*
X5025Y-53626D01*
X5005Y-53607D01*
X4967Y-53588D01*
X5425Y-53816D02*
X5196Y-53816D01*
X5310Y-53816D02*
X5310Y-53416D01*
X5272Y-53474D01*
X5234Y-53512D01*
X5196Y-53531D01*
M02*
