M48
;DRILL file {Pcbnew (2013-07-07 BZR 4022)-stable} date 4/25/2015 2:47:53 PM
;FORMAT={-:-/ absolute / metric / decimal}
FMAT,2
METRIC,TZ
T1C0.425
T2C0.559
T3C0.813
T4C1.016
T5C3.048
%
G90
G05
M71
T1
X32.385Y123.825
X42.926Y124.841
X50.038Y147.955
X54.343Y43.18
X57.658Y39.401
X59.809Y40.134
X61.023Y43.18
X61.595Y131.445
X62.192Y124.93
X69.863Y48.362
X71.374Y46.736
X78.966Y64.706
X84.442Y64.897
X86.601Y62.332
X87.909Y67.92
X88.191Y39.74
X90.84Y38.591
X91.431Y40.161
X93.49Y80.153
X93.521Y47.944
X95.738Y47.769
X101.803Y66.561
X104.Y63.386
X108.458Y69.85
X109.474Y69.85
X113.754Y45.987
X113.964Y43.094
X114.757Y88.29
X114.983Y41.09
X115.139Y43.764
X115.806Y41.426
X116.392Y48.516
X116.871Y38.549
X117.615Y41.636
X118.517Y89.559
X118.762Y39.061
X119.765Y52.816
X119.85Y41.189
X120.3Y47.898
X120.701Y87.897
X121.409Y49.795
X122.628Y52.409
X123.658Y49.121
X124.331Y36.042
X124.411Y42.442
X126.517Y67.579
X127.Y36.248
X127.263Y65.093
X128.647Y65.092
X129.032Y70.866
X129.794Y71.628
X130.025Y43.063
X130.158Y46.685
X130.495Y43.757
X131.155Y49.088
X131.331Y43.932
X131.782Y42.62
X132.08Y49.098
X132.866Y39.167
X133.531Y46.132
X134.5Y46.181
X141.825Y63.477
X144.33Y37.414
X146.01Y71.638
X147.44Y62.975
X148.617Y68.635
X148.797Y69.926
X149.046Y63.889
X149.621Y69.757
X150.912Y70.396
X151.615Y66.926
X151.921Y42.331
X152.069Y63.077
X152.169Y70.697
X153.017Y63.119
X153.598Y71.168
X155.753Y68.732
X155.975Y61.704
X156.122Y60.732
X157.099Y63.335
X157.267Y61.922
X157.436Y71.638
X160.833Y52.902
X162.473Y62.103
X162.52Y52.913
X163.185Y49.114
X164.439Y48.965
X165.429Y48.919
X166.256Y70.548
X166.726Y71.463
X167.439Y62.116
X167.538Y46.279
X167.988Y78.858
X168.123Y41.935
X168.697Y79.527
X169.596Y70.587
X169.934Y68.245
X170.087Y44.413
X170.133Y76.302
X170.258Y80.173
X170.434Y102.362
X170.434Y104.902
X170.493Y78.048
X170.548Y71.031
X170.973Y77.368
X171.186Y49.614
X171.983Y66.213
X172.974Y102.362
X172.974Y104.902
X173.429Y72.201
X173.702Y59.259
X174.244Y99.06
X176.047Y82.255
X176.225Y47.295
X177.153Y83.406
X177.749Y55.308
X177.879Y83.862
X178.719Y84.82
X178.943Y64.529
X181.2Y65.618
X182.252Y79.477
X182.453Y73.797
X183.036Y58.828
X184.02Y58.826
X185.217Y73.254
X186.537Y58.826
X187.273Y89.39
X188.921Y58.893
X189.009Y57.91
X189.542Y103.701
X190.468Y38.519
X192.9Y107.188
X193.383Y108.509
X193.452Y58.594
X193.597Y85.058
X193.669Y48.689
X193.942Y49.651
X194.288Y112.08
X194.564Y106.477
X194.751Y85.585
X194.957Y39.104
X195.507Y48.204
X195.747Y69.679
X195.885Y91.262
X196.003Y74.761
X196.372Y110.659
X196.629Y46.924
X196.748Y102.235
X196.916Y45.88
X197.722Y62.144
X197.942Y68.631
X198.366Y62.673
X198.371Y45.32
X198.588Y84.809
X198.755Y73.025
X198.792Y78.766
X199.01Y64.
X199.673Y111.072
X200.246Y62.378
X200.461Y79.281
X200.812Y91.262
X201.135Y62.405
X201.173Y70.612
X201.835Y71.13
X201.93Y106.832
X202.98Y71.208
X203.126Y75.781
X203.302Y68.275
X205.499Y108.674
X207.162Y113.233
X207.631Y40.782
X207.956Y62.377
X208.301Y67.685
X208.451Y109.568
X208.534Y91.262
X208.534Y99.06
X210.82Y57.912
X210.82Y63.96
X212.039Y107.848
X212.814Y90.576
X212.974Y67.977
X214.047Y62.23
X214.668Y106.82
X215.24Y89.078
X215.254Y62.121
X216.208Y64.328
X216.627Y76.955
X216.929Y65.186
X217.856Y90.767
X218.008Y88.773
X218.139Y110.272
X218.486Y113.491
X218.993Y49.04
X221.275Y112.561
X222.263Y110.922
X222.44Y113.5
X222.479Y117.386
X224.973Y116.454
X225.559Y113.76
X225.836Y116.447
X226.166Y107.053
X227.273Y108.629
X230.101Y108.626
X230.511Y102.583
X231.029Y98.664
X231.185Y101.955
X231.726Y101.335
X232.161Y79.624
X232.994Y47.968
X233.362Y112.674
X233.642Y114.325
X234.155Y58.842
X237.536Y58.848
X241.071Y89.637
X242.926Y87.986
X245.085Y67.666
X252.425Y75.286
X252.984Y57.912
X252.984Y65.024
T2
X61.087Y157.253
X68.326Y134.48
X68.326Y136.017
X81.153Y140.259
X83.566Y52.232
X85.636Y57.836
X100.901Y51.689
X102.8Y58.874
X114.097Y81.382
X115.214Y55.956
X139.344Y58.356
X143.885Y62.105
X144.247Y52.843
X153.246Y52.879
X170.503Y62.276
X178.537Y101.003
X178.613Y115.494
X180.112Y58.405
X180.893Y52.018
X192.027Y57.924
X204.47Y49.536
X205.359Y56.223
X226.107Y109.78
X228.163Y108.095
X228.572Y106.207
T3
X48.641Y91.821
X48.641Y98.552
X51.181Y91.821
X51.181Y98.552
X53.721Y91.821
X53.721Y98.552
X67.945Y153.289
X67.945Y155.829
X85.09Y36.83
X118.999Y153.162
X118.999Y155.702
X121.92Y153.162
X121.92Y155.702
X126.365Y83.82
X161.29Y36.83
X184.785Y83.82
T4
X37.465Y107.95
X37.465Y110.49
X37.465Y113.03
X37.465Y115.57
X37.465Y118.11
X37.465Y120.65
X40.005Y107.95
X40.005Y110.49
X40.005Y113.03
X40.005Y115.57
X40.005Y118.11
X40.005Y120.65
X85.09Y34.29
X87.63Y34.29
X87.63Y36.83
X90.17Y34.29
X90.17Y36.83
X92.71Y34.29
X92.71Y36.83
X95.25Y34.29
X95.25Y36.83
X97.79Y34.29
X97.79Y36.83
X100.33Y34.29
X100.33Y36.83
X102.87Y34.29
X102.87Y36.83
X105.41Y34.29
X105.41Y36.83
X107.95Y34.29
X107.95Y36.83
X110.49Y34.29
X110.49Y36.83
X113.03Y34.29
X113.03Y36.83
X115.57Y34.29
X115.57Y36.83
X118.11Y34.29
X118.11Y36.83
X120.65Y34.29
X120.65Y36.83
X123.19Y34.29
X123.19Y36.83
X125.73Y34.29
X125.73Y36.83
X126.365Y81.28
X128.27Y34.29
X128.27Y36.83
X128.905Y81.28
X128.905Y83.82
X130.81Y34.29
X130.81Y36.83
X131.445Y81.28
X131.445Y83.82
X133.35Y34.29
X133.35Y36.83
X133.985Y81.28
X133.985Y83.82
X136.525Y81.28
X136.525Y83.82
X139.065Y81.28
X139.065Y83.82
X141.605Y81.28
X141.605Y83.82
X144.145Y81.28
X144.145Y83.82
X146.685Y81.28
X146.685Y83.82
X149.225Y81.28
X149.225Y83.82
X151.765Y81.28
X151.765Y83.82
X154.305Y81.28
X154.305Y83.82
X156.845Y81.28
X156.845Y83.82
X159.385Y81.28
X159.385Y83.82
X161.29Y34.29
X161.925Y81.28
X161.925Y83.82
X163.83Y34.29
X163.83Y36.83
X164.465Y81.28
X164.465Y83.82
X166.37Y34.29
X166.37Y36.83
X167.005Y81.28
X167.005Y83.82
X168.91Y34.29
X168.91Y36.83
X169.545Y81.28
X169.545Y83.82
X171.45Y34.29
X171.45Y36.83
X172.085Y81.28
X172.085Y83.82
X173.99Y34.29
X173.99Y36.83
X174.625Y81.28
X174.625Y83.82
X176.53Y34.29
X176.53Y36.83
X179.07Y34.29
X179.07Y36.83
X181.61Y34.29
X181.61Y36.83
X184.15Y34.29
X184.15Y36.83
X184.785Y81.28
X186.69Y34.29
X186.69Y36.83
X187.325Y81.28
X187.325Y83.82
X189.23Y34.29
X189.23Y36.83
X189.865Y81.28
X189.865Y83.82
X191.77Y34.29
X191.77Y36.83
X192.405Y81.28
X192.405Y83.82
X194.31Y34.29
X194.31Y36.83
X194.945Y81.28
X194.945Y83.82
X196.85Y34.29
X196.85Y36.83
X197.485Y81.28
X197.485Y83.82
X199.39Y34.29
X199.39Y36.83
X200.025Y81.28
X200.025Y83.82
X201.93Y34.29
X201.93Y36.83
X202.565Y81.28
X202.565Y83.82
X204.47Y34.29
X204.47Y36.83
X205.105Y81.28
X205.105Y83.82
X207.01Y34.29
X207.01Y36.83
X207.645Y81.28
X207.645Y83.82
X209.55Y34.29
X209.55Y36.83
X210.185Y81.28
X210.185Y83.82
X212.09Y34.29
X212.09Y36.83
X212.725Y81.28
X212.725Y83.82
X214.63Y34.29
X214.63Y36.83
X215.265Y81.28
X215.265Y83.82
X217.17Y34.29
X217.17Y36.83
X217.805Y81.28
X217.805Y83.82
X219.71Y34.29
X219.71Y36.83
X220.345Y81.28
X220.345Y83.82
X222.25Y34.29
X222.25Y36.83
X222.885Y81.28
X222.885Y83.82
X225.425Y81.28
X225.425Y83.82
X227.965Y81.28
X227.965Y83.82
X230.505Y81.28
X230.505Y83.82
X233.045Y81.28
X233.045Y83.82
X233.68Y39.243
X236.22Y39.243
X238.125Y81.28
X238.125Y83.82
X240.665Y81.28
X240.665Y83.82
X245.11Y36.703
X245.11Y39.243
X247.65Y36.703
X247.65Y39.243
X250.19Y36.703
X250.19Y39.243
X252.73Y36.703
X252.73Y39.243
X252.73Y52.07
X252.73Y54.61
X255.27Y36.703
X255.27Y39.243
X255.27Y52.07
X255.27Y54.61
T5
X26.67Y39.37
X109.601Y82.55
X109.601Y147.574
X249.809Y82.55
X249.809Y147.574
X267.97Y39.37
T0
M30
