G04 (created by PCBNEW (2013-07-07 BZR 4022)-stable) date 4/25/2015 2:47:51 PM*
%MOIN*%
G04 Gerber Fmt 3.4, Leading zero omitted, Abs format*
%FSLAX34Y34*%
G01*
G70*
G90*
G04 APERTURE LIST*
%ADD10C,0.00590551*%
%ADD11R,0.08X0.08*%
%ADD12C,0.08*%
%ADD13R,0.075X0.075*%
%ADD14C,0.075*%
%ADD15R,0.13X0.35*%
%ADD16R,0.09X0.35*%
%ADD17C,0.18*%
%ADD18R,0.0436X0.1066*%
%ADD19R,0.05X0.08*%
%ADD20R,0.079X0.0711*%
%ADD21R,0.0711X0.079*%
G04 APERTURE END LIST*
G54D10*
G54D11*
X63500Y-14500D03*
G54D12*
X63500Y-13500D03*
X68500Y-14500D03*
X64500Y-13500D03*
X69500Y-14500D03*
X65500Y-13500D03*
X70500Y-14500D03*
X66500Y-13500D03*
X71500Y-14500D03*
X67500Y-13500D03*
X72500Y-14500D03*
X68500Y-13500D03*
X73500Y-14500D03*
X69500Y-13500D03*
X74500Y-14500D03*
X70500Y-13500D03*
X75500Y-14500D03*
X71500Y-13500D03*
X76500Y-14500D03*
X72500Y-13500D03*
X77500Y-14500D03*
X73500Y-13500D03*
X78500Y-14500D03*
X74500Y-13500D03*
X75500Y-13500D03*
X79500Y-14500D03*
X76500Y-13500D03*
X78500Y-13500D03*
X79500Y-13500D03*
X80500Y-13500D03*
X81500Y-13500D03*
X80500Y-14500D03*
X81500Y-14500D03*
X64500Y-14500D03*
X65500Y-14500D03*
X66500Y-14500D03*
X67500Y-14500D03*
X82500Y-14500D03*
X82500Y-13500D03*
X77500Y-13500D03*
X83500Y-14500D03*
X83500Y-13500D03*
X84500Y-14500D03*
X84500Y-13500D03*
X85500Y-14500D03*
X85500Y-13500D03*
X86500Y-14500D03*
X86500Y-13500D03*
X87500Y-14500D03*
X87500Y-13500D03*
G54D13*
X48000Y-60300D03*
G54D14*
X48000Y-61300D03*
G54D13*
X26750Y-60350D03*
G54D14*
X26750Y-61350D03*
G54D13*
X46850Y-60300D03*
G54D14*
X46850Y-61300D03*
G54D15*
X24050Y-64150D03*
G54D16*
X25500Y-64150D03*
X26750Y-64150D03*
X28000Y-64150D03*
X29250Y-64150D03*
X30500Y-64150D03*
X31750Y-64150D03*
X33000Y-64150D03*
X34250Y-64150D03*
X35500Y-64150D03*
X36750Y-64150D03*
X38000Y-64150D03*
X39250Y-64150D03*
X40500Y-64150D03*
X41750Y-64150D03*
X43000Y-64150D03*
X44250Y-64150D03*
X45500Y-64150D03*
X46750Y-64150D03*
X48000Y-64150D03*
X49250Y-64150D03*
X50500Y-64150D03*
X51750Y-64150D03*
X53000Y-64150D03*
X54250Y-64150D03*
X55500Y-64150D03*
X56750Y-64150D03*
X58000Y-64150D03*
X59250Y-64150D03*
X60500Y-64150D03*
X61750Y-64150D03*
X63000Y-64150D03*
X64250Y-64150D03*
X65500Y-64150D03*
X66750Y-64150D03*
X68000Y-64150D03*
X69250Y-64150D03*
X70500Y-64150D03*
X71750Y-64150D03*
X73000Y-64150D03*
X74250Y-64150D03*
X75500Y-64150D03*
X76750Y-64150D03*
X78000Y-64150D03*
X79250Y-64150D03*
X80500Y-64150D03*
X81750Y-64150D03*
X83000Y-64150D03*
X84250Y-64150D03*
G54D15*
X85700Y-64150D03*
G54D11*
X33500Y-14500D03*
G54D12*
X33500Y-13500D03*
X38500Y-14500D03*
X34500Y-13500D03*
X39500Y-14500D03*
X35500Y-13500D03*
X40500Y-14500D03*
X36500Y-13500D03*
X41500Y-14500D03*
X37500Y-13500D03*
X42500Y-14500D03*
X38500Y-13500D03*
X43500Y-14500D03*
X39500Y-13500D03*
X44500Y-14500D03*
X40500Y-13500D03*
X45500Y-14500D03*
X41500Y-13500D03*
X46500Y-14500D03*
X42500Y-13500D03*
X47500Y-14500D03*
X43500Y-13500D03*
X48500Y-14500D03*
X44500Y-13500D03*
X45500Y-13500D03*
X49500Y-14500D03*
X46500Y-13500D03*
X48500Y-13500D03*
X49500Y-13500D03*
X50500Y-13500D03*
X51500Y-13500D03*
X50500Y-14500D03*
X51500Y-14500D03*
X34500Y-14500D03*
X35500Y-14500D03*
X36500Y-14500D03*
X37500Y-14500D03*
X52500Y-14500D03*
X52500Y-13500D03*
X47500Y-13500D03*
G54D17*
X105500Y-15500D03*
X10500Y-15500D03*
G54D11*
X100500Y-14450D03*
G54D12*
X100500Y-15450D03*
X99500Y-14450D03*
X99500Y-15450D03*
X98500Y-14450D03*
X98500Y-15450D03*
X97500Y-14450D03*
X97500Y-15450D03*
X96500Y-14450D03*
X96500Y-15450D03*
G54D11*
X72750Y-33000D03*
G54D12*
X72750Y-32000D03*
X77750Y-33000D03*
X73750Y-32000D03*
X78750Y-33000D03*
X74750Y-32000D03*
X79750Y-33000D03*
X75750Y-32000D03*
X80750Y-33000D03*
X76750Y-32000D03*
X81750Y-33000D03*
X77750Y-32000D03*
X82750Y-33000D03*
X78750Y-32000D03*
X83750Y-33000D03*
X79750Y-32000D03*
X84750Y-33000D03*
X80750Y-32000D03*
X85750Y-33000D03*
X81750Y-32000D03*
X86750Y-33000D03*
X82750Y-32000D03*
X87750Y-33000D03*
X83750Y-32000D03*
X84750Y-32000D03*
X88750Y-33000D03*
X85750Y-32000D03*
X87750Y-32000D03*
X88750Y-32000D03*
X89750Y-32000D03*
X90750Y-32000D03*
X89750Y-33000D03*
X90750Y-33000D03*
X73750Y-33000D03*
X74750Y-33000D03*
X75750Y-33000D03*
X76750Y-33000D03*
X91750Y-33000D03*
X91750Y-32000D03*
X86750Y-32000D03*
G54D11*
X49750Y-33000D03*
G54D12*
X49750Y-32000D03*
X54750Y-33000D03*
X50750Y-32000D03*
X55750Y-33000D03*
X51750Y-32000D03*
X56750Y-33000D03*
X52750Y-32000D03*
X57750Y-33000D03*
X53750Y-32000D03*
X58750Y-33000D03*
X54750Y-32000D03*
X59750Y-33000D03*
X55750Y-32000D03*
X60750Y-33000D03*
X56750Y-32000D03*
X61750Y-33000D03*
X57750Y-32000D03*
X62750Y-33000D03*
X58750Y-32000D03*
X63750Y-33000D03*
X59750Y-32000D03*
X64750Y-33000D03*
X60750Y-32000D03*
X61750Y-32000D03*
X65750Y-33000D03*
X62750Y-32000D03*
X64750Y-32000D03*
X65750Y-32000D03*
X66750Y-32000D03*
X67750Y-32000D03*
X66750Y-33000D03*
X67750Y-33000D03*
X50750Y-33000D03*
X51750Y-33000D03*
X52750Y-33000D03*
X53750Y-33000D03*
X68750Y-33000D03*
X68750Y-32000D03*
X63750Y-32000D03*
G54D18*
X82000Y-25977D03*
X82500Y-25977D03*
X83000Y-25977D03*
X83500Y-25977D03*
X84000Y-25977D03*
X84500Y-25977D03*
X85000Y-25977D03*
X85000Y-28023D03*
X84500Y-28023D03*
X84000Y-28023D03*
X83500Y-28023D03*
X83000Y-28023D03*
X82500Y-28023D03*
X82000Y-28023D03*
G54D19*
X56550Y-20120D03*
X57050Y-20120D03*
X57550Y-20120D03*
X58050Y-20120D03*
X58550Y-20120D03*
X59050Y-20120D03*
X59550Y-20120D03*
X60050Y-20120D03*
X60550Y-20120D03*
X61050Y-20120D03*
X61050Y-23870D03*
X60550Y-23880D03*
X60050Y-23880D03*
X59550Y-23880D03*
X59050Y-23880D03*
X58550Y-23880D03*
X58050Y-23880D03*
X57550Y-23880D03*
X57050Y-23880D03*
X56550Y-23880D03*
X45650Y-20120D03*
X46150Y-20120D03*
X46650Y-20120D03*
X47150Y-20120D03*
X47650Y-20120D03*
X48150Y-20120D03*
X48650Y-20120D03*
X49150Y-20120D03*
X49650Y-20120D03*
X50150Y-20120D03*
X50150Y-23870D03*
X49650Y-23880D03*
X49150Y-23880D03*
X48650Y-23880D03*
X48150Y-23880D03*
X47650Y-23880D03*
X47150Y-23880D03*
X46650Y-23880D03*
X46150Y-23880D03*
X45650Y-23880D03*
G54D20*
X96500Y-17474D03*
X96500Y-16726D03*
X98500Y-17474D03*
X98500Y-16726D03*
X80800Y-27374D03*
X80800Y-26626D03*
X99500Y-17474D03*
X99500Y-16726D03*
X55450Y-23874D03*
X55450Y-23126D03*
X88300Y-42724D03*
X88300Y-41976D03*
X44600Y-23774D03*
X44600Y-23026D03*
G54D21*
X89724Y-43850D03*
X88976Y-43850D03*
G54D17*
X98350Y-32500D03*
X43150Y-32500D03*
X43150Y-58100D03*
X98350Y-58100D03*
G54D21*
X22326Y-16900D03*
X23074Y-16900D03*
X22326Y-16000D03*
X23074Y-16000D03*
G54D11*
X99500Y-21500D03*
G54D12*
X99500Y-20500D03*
X100500Y-21500D03*
X100500Y-20500D03*
G54D11*
X93750Y-33000D03*
G54D12*
X93750Y-32000D03*
X94750Y-33000D03*
X94750Y-32000D03*
G54D11*
X92000Y-15450D03*
G54D12*
X93000Y-15450D03*
G54D13*
X21150Y-36150D03*
G54D14*
X20150Y-36150D03*
X19150Y-36150D03*
G54D13*
X21150Y-38800D03*
G54D14*
X20150Y-38800D03*
X19150Y-38800D03*
G54D11*
X15750Y-47500D03*
G54D12*
X14750Y-47500D03*
X15750Y-46500D03*
X14750Y-46500D03*
X15750Y-45500D03*
X14750Y-45500D03*
X15750Y-44500D03*
X14750Y-44500D03*
X15750Y-43500D03*
X14750Y-43500D03*
X15750Y-42500D03*
X14750Y-42500D03*
M02*
