M48
INCH,TZ
T10C0.032
T11C0.040
T12C0.045
T13C0.080
T14C0.120
T15C0.128
%
T10
X050550Y046600
X050550Y061050
X050550Y078800
X050550Y093250
X185800Y047680
X185800Y048680
X185800Y049680
X185800Y050680
X185800Y051680
X185800Y052680
X185800Y053680
X185800Y054680
X185800Y055680
X185800Y056680
X185800Y058680
X185800Y059680
X185800Y060680
X185800Y061680
X185800Y062680
X185800Y063680
X185800Y064680
X185800Y065680
X185800Y066680
X185800Y067680
X185800Y069680
X185800Y070680
X185800Y071680
X185800Y072680
X185800Y073680
X185800Y074680
X185800Y075680
X185800Y076680
X185800Y077680
X185800Y078680
X185800Y080680
X185800Y081680
X185800Y082680
X185800Y083680
X185800Y084680
X185800Y085680
X185800Y086680
X185800Y087680
X185800Y088680
X185800Y089680
X185800Y091680
X185800Y092680
X185800Y093680
X185800Y094680
X185800Y095680
X185800Y096680
X185800Y097680
X185800Y098680
X185800Y099680
X185800Y100680
X185800Y102300
X185800Y103300
X185800Y104300
X185800Y105300
X186800Y047680
X186800Y048680
X186800Y049680
X186800Y050680
X186800Y051680
X186800Y052680
X186800Y053680
X186800Y054680
X186800Y055680
X186800Y056680
X186800Y058680
X186800Y059680
X186800Y060680
X186800Y061680
X186800Y062680
X186800Y063680
X186800Y064680
X186800Y065680
X186800Y066680
X186800Y067680
X186800Y069680
X186800Y070680
X186800Y071680
X186800Y072680
X186800Y073680
X186800Y074680
X186800Y075680
X186800Y076680
X186800Y077680
X186800Y078680
X186800Y080680
X186800Y081680
X186800Y082680
X186800Y083680
X186800Y084680
X186800Y085680
X186800Y086680
X186800Y087680
X186800Y088680
X186800Y089680
X186800Y091680
X186800Y092680
X186800Y093680
X186800Y094680
X186800Y095680
X186800Y096680
X186800Y097680
X186800Y098680
X186800Y099680
X186800Y100680
X188100Y066350
X188100Y068150
X188200Y049600
X188600Y046600
X188600Y057700
X188600Y070550
X188600Y079600
X188600Y090550
X188800Y102300
X188800Y103300
X188800Y104300
X188800Y105300
X189100Y066350
X189100Y068150
X189200Y049600
X189600Y046600
X189600Y057700
X189600Y070550
X189600Y079600
X189600Y090550
X189650Y052200
X189650Y055200
X190100Y085900
X190450Y097550
X190450Y098550
X191000Y103900
X191000Y104900
X191000Y105900
X191000Y106900
X191000Y107900
X191000Y108900
X191000Y109900
X191100Y085900
X191450Y102350
X191900Y087730
X191900Y088730
X191900Y089730
X191900Y090730
X191950Y098550
X191950Y099650
X191950Y100750
X192095Y080840
X192095Y082840
X192465Y076060
X192465Y079060
X193450Y102350
X193730Y057750
X193900Y068800
X193900Y070000
X194000Y093400
X194000Y103900
X194000Y104900
X194000Y105900
X194000Y106900
X194000Y107900
X194000Y108900
X194000Y109900
X194095Y081840
X194900Y087730
X194900Y088730
X194900Y089730
X194900Y090730
X194950Y098550
X194950Y099650
X194950Y100750
X195000Y093400
X195400Y052100
X195400Y053100
X195900Y065600
X195900Y066600
X195900Y067600
X195900Y071200
X195900Y072200
X195900Y073200
X196300Y106850
X196550Y082700
X196550Y085700
X196730Y057750
X196900Y068800
X196900Y070000
X197300Y106850
X197550Y082700
X197550Y085700
X198580Y082685
X198580Y085685
X199580Y082685
X199580Y085685
X199850Y102300
X199850Y105300
X200600Y082700
X200600Y085700
X201850Y102300
X201850Y105300
X203100Y084200
X204100Y084200
T11
X050550Y047600
X050550Y048600
X050550Y049600
X050550Y050600
X050550Y051600
X050550Y052600
X050550Y053600
X050550Y054600
X050550Y055600
X050550Y056600
X050550Y057600
X050550Y058600
X050550Y062050
X050550Y063050
X050550Y064050
X050550Y065050
X050550Y066050
X050550Y067050
X050550Y068050
X050550Y069050
X050550Y070050
X050550Y071050
X050550Y072050
X050550Y073050
X050550Y079800
X050550Y080800
X050550Y081800
X050550Y082800
X050550Y083800
X050550Y084800
X050550Y085800
X050550Y086800
X050550Y087800
X050550Y088800
X050550Y089800
X050550Y090800
X050550Y094250
X050550Y095250
X050550Y096250
X050550Y097250
X050550Y098250
X050550Y099250
X050550Y100250
X050550Y101250
X050550Y102250
X050550Y103250
X050550Y104250
X050550Y105250
X051550Y046600
X051550Y047600
X051550Y048600
X051550Y049600
X051550Y050600
X051550Y051600
X051550Y052600
X051550Y053600
X051550Y054600
X051550Y055600
X051550Y056600
X051550Y057600
X051550Y058600
X051550Y061050
X051550Y062050
X051550Y063050
X051550Y064050
X051550Y065050
X051550Y066050
X051550Y067050
X051550Y068050
X051550Y069050
X051550Y070050
X051550Y071050
X051550Y072050
X051550Y073050
X051550Y078800
X051550Y079800
X051550Y080800
X051550Y081800
X051550Y082800
X051550Y083800
X051550Y084800
X051550Y085800
X051550Y086800
X051550Y087800
X051550Y088800
X051550Y089800
X051550Y090800
X051550Y093250
X051550Y094250
X051550Y095250
X051550Y096250
X051550Y097250
X051550Y098250
X051550Y099250
X051550Y100250
X051550Y101250
X051550Y102250
X051550Y103250
X051550Y104250
X051550Y105250
X054048Y045353
X054048Y046603
X054048Y047853
X054048Y049103
X054048Y050353
X054048Y051603
X054048Y052853
X054048Y054103
X054048Y055353
X054048Y056603
X054048Y057853
X054048Y059103
X054048Y060353
X054048Y061603
X054048Y062853
X054048Y064103
X054048Y065353
X054048Y066603
X054048Y067853
X054048Y069103
X054048Y070353
X054048Y071603
X054048Y072853
X054048Y074103
X054048Y075353
X054048Y076603
X054048Y077853
X054048Y079103
X054048Y080353
X054048Y081603
X054048Y082853
X054048Y084103
X054048Y085353
X054048Y086603
X054048Y087853
X054048Y089103
X054048Y090353
X054048Y091603
X054048Y092853
X054048Y094103
X054048Y095353
X054048Y096603
X054048Y097853
X054048Y099103
X054048Y100353
X054048Y101603
X054048Y102853
X054048Y104103
X054048Y105353
X054048Y106603
X056548Y045353
X056548Y046603
X056548Y047853
X056548Y049103
X056548Y050353
X056548Y051603
X056548Y052853
X056548Y054103
X056548Y055353
X056548Y056603
X056548Y057853
X056548Y059103
X056548Y060353
X056548Y061603
X056548Y062853
X056548Y064103
X056548Y065353
X056548Y066603
X056548Y067853
X056548Y069103
X056548Y070353
X056548Y071603
X056548Y072853
X056548Y074103
X056548Y075353
X056548Y076603
X056548Y077853
X056548Y079103
X056548Y080353
X056548Y081603
X056548Y082853
X056548Y084103
X056548Y085353
X056548Y086603
X056548Y087853
X056548Y089103
X056548Y090353
X056548Y091603
X056548Y092853
X056548Y094103
X056548Y095353
X056548Y096603
X056548Y097853
X056548Y099103
X056548Y100353
X056548Y101603
X056548Y102853
X056548Y104103
X056548Y105353
X056548Y106603
X061548Y045353
X061548Y046603
X061548Y047853
X061548Y049103
X061548Y050353
X061548Y051603
X061548Y052853
X061548Y054103
X061548Y055353
X061548Y056603
X061548Y057853
X061548Y059103
X061548Y060353
X061548Y061603
X061548Y062853
X061548Y064103
X061548Y065353
X061548Y066603
X061548Y067853
X061548Y069103
X061548Y070353
X061548Y071603
X061548Y072853
X061548Y074103
X061548Y075353
X061548Y076603
X061548Y077853
X061548Y079103
X061548Y080353
X061548Y081603
X061548Y082853
X061548Y084103
X061548Y085353
X061548Y086603
X061548Y087853
X061548Y089103
X061548Y090353
X061548Y091603
X061548Y092853
X061548Y094103
X061548Y095353
X061548Y096603
X061548Y097853
X061548Y099103
X061548Y100353
X061548Y101603
X061548Y102853
X061548Y104103
X061548Y105353
X061548Y106603
X064048Y045353
X064048Y046603
X064048Y047853
X064048Y049103
X064048Y050353
X064048Y051603
X064048Y052853
X064048Y054103
X064048Y055353
X064048Y056603
X064048Y057853
X064048Y059103
X064048Y060353
X064048Y061603
X064048Y062853
X064048Y064103
X064048Y065353
X064048Y066603
X064048Y067853
X064048Y069103
X064048Y070353
X064048Y071603
X064048Y072853
X064048Y074103
X064048Y075353
X064048Y076603
X064048Y077853
X064048Y079103
X064048Y080353
X064048Y081603
X064048Y082853
X064048Y084103
X064048Y085353
X064048Y086603
X064048Y087853
X064048Y089103
X064048Y090353
X064048Y091603
X064048Y092853
X064048Y094103
X064048Y095353
X064048Y096603
X064048Y097853
X064048Y099103
X064048Y100353
X064048Y101603
X064048Y102853
X064048Y104103
X064048Y105353
X064048Y106603
X069048Y045353
X069048Y046603
X069048Y047853
X069048Y049103
X069048Y050353
X069048Y051603
X069048Y052853
X069048Y054103
X069048Y055353
X069048Y056603
X069048Y057853
X069048Y059103
X069048Y060353
X069048Y061603
X069048Y062853
X069048Y064103
X069048Y065353
X069048Y066603
X069048Y067853
X069048Y069103
X069048Y070353
X069048Y071603
X069048Y072853
X069048Y074103
X069048Y075353
X069048Y076603
X069048Y077853
X069048Y079103
X069048Y080353
X069048Y081603
X069048Y082853
X069048Y084103
X069048Y085353
X069048Y086603
X069048Y087853
X069048Y089103
X069048Y090353
X069048Y091603
X069048Y092853
X069048Y094103
X069048Y095353
X069048Y096603
X069048Y097853
X069048Y099103
X069048Y100353
X069048Y101603
X069048Y102853
X069048Y104103
X069048Y105353
X069048Y106603
X071548Y045353
X071548Y046603
X071548Y047853
X071548Y049103
X071548Y050353
X071548Y051603
X071548Y052853
X071548Y054103
X071548Y055353
X071548Y056603
X071548Y057853
X071548Y059103
X071548Y060353
X071548Y061603
X071548Y062853
X071548Y064103
X071548Y065353
X071548Y066603
X071548Y067853
X071548Y069103
X071548Y070353
X071548Y071603
X071548Y072853
X071548Y074103
X071548Y075353
X071548Y076603
X071548Y077853
X071548Y079103
X071548Y080353
X071548Y081603
X071548Y082853
X071548Y084103
X071548Y085353
X071548Y086603
X071548Y087853
X071548Y089103
X071548Y090353
X071548Y091603
X071548Y092853
X071548Y094103
X071548Y095353
X071548Y096603
X071548Y097853
X071548Y099103
X071548Y100353
X071548Y101603
X071548Y102853
X071548Y104103
X071548Y105353
X071548Y106603
X076548Y045353
X076548Y046603
X076548Y047853
X076548Y049103
X076548Y050353
X076548Y051603
X076548Y052853
X076548Y054103
X076548Y055353
X076548Y056603
X076548Y057853
X076548Y059103
X076548Y060353
X076548Y061603
X076548Y062853
X076548Y064103
X076548Y065353
X076548Y066603
X076548Y067853
X076548Y069103
X076548Y070353
X076548Y071603
X076548Y072853
X076548Y074103
X076548Y075353
X076548Y076603
X076548Y077853
X076548Y079103
X076548Y080353
X076548Y081603
X076548Y082853
X076548Y084103
X076548Y085353
X076548Y086603
X076548Y087853
X076548Y089103
X076548Y090353
X076548Y091603
X076548Y092853
X076548Y094103
X076548Y095353
X076548Y096603
X076548Y097853
X076548Y099103
X076548Y100353
X076548Y101603
X076548Y102853
X076548Y104103
X076548Y105353
X076548Y106603
X079048Y045353
X079048Y046603
X079048Y047853
X079048Y049103
X079048Y050353
X079048Y051603
X079048Y052853
X079048Y054103
X079048Y055353
X079048Y056603
X079048Y057853
X079048Y059103
X079048Y060353
X079048Y061603
X079048Y062853
X079048Y064103
X079048Y065353
X079048Y066603
X079048Y067853
X079048Y069103
X079048Y070353
X079048Y071603
X079048Y072853
X079048Y074103
X079048Y075353
X079048Y076603
X079048Y077853
X079048Y079103
X079048Y080353
X079048Y081603
X079048Y082853
X079048Y084103
X079048Y085353
X079048Y086603
X079048Y087853
X079048Y089103
X079048Y090353
X079048Y091603
X079048Y092853
X079048Y094103
X079048Y095353
X079048Y096603
X079048Y097853
X079048Y099103
X079048Y100353
X079048Y101603
X079048Y102853
X079048Y104103
X079048Y105353
X079048Y106603
X084048Y045353
X084048Y046603
X084048Y047853
X084048Y049103
X084048Y050353
X084048Y051603
X084048Y052853
X084048Y054103
X084048Y055353
X084048Y056603
X084048Y057853
X084048Y059103
X084048Y060353
X084048Y061603
X084048Y062853
X084048Y064103
X084048Y065353
X084048Y066603
X084048Y067853
X084048Y069103
X084048Y070353
X084048Y071603
X084048Y072853
X084048Y074103
X084048Y075353
X084048Y076603
X084048Y077853
X084048Y079103
X084048Y080353
X084048Y081603
X084048Y082853
X084048Y084103
X084048Y085353
X084048Y086603
X084048Y087853
X084048Y089103
X084048Y090353
X084048Y091603
X084048Y092853
X084048Y094103
X084048Y095353
X084048Y096603
X084048Y097853
X084048Y099103
X084048Y100353
X084048Y101603
X084048Y102853
X084048Y104103
X084048Y105353
X084048Y106603
X086548Y045353
X086548Y046603
X086548Y047853
X086548Y049103
X086548Y050353
X086548Y051603
X086548Y052853
X086548Y054103
X086548Y055353
X086548Y056603
X086548Y057853
X086548Y059103
X086548Y060353
X086548Y061603
X086548Y062853
X086548Y064103
X086548Y065353
X086548Y066603
X086548Y067853
X086548Y069103
X086548Y070353
X086548Y071603
X086548Y072853
X086548Y074103
X086548Y075353
X086548Y076603
X086548Y077853
X086548Y079103
X086548Y080353
X086548Y081603
X086548Y082853
X086548Y084103
X086548Y085353
X086548Y086603
X086548Y087853
X086548Y089103
X086548Y090353
X086548Y091603
X086548Y092853
X086548Y094103
X086548Y095353
X086548Y096603
X086548Y097853
X086548Y099103
X086548Y100353
X086548Y101603
X086548Y102853
X086548Y104103
X086548Y105353
X086548Y106603
X091548Y045353
X091548Y046603
X091548Y047853
X091548Y049103
X091548Y050353
X091548Y051603
X091548Y052853
X091548Y054103
X091548Y055353
X091548Y056603
X091548Y057853
X091548Y059103
X091548Y060353
X091548Y061603
X091548Y062853
X091548Y064103
X091548Y065353
X091548Y066603
X091548Y067853
X091548Y069103
X091548Y070353
X091548Y071603
X091548Y072853
X091548Y074103
X091548Y075353
X091548Y076603
X091548Y077853
X091548Y079103
X091548Y080353
X091548Y081603
X091548Y082853
X091548Y084103
X091548Y085353
X091548Y086603
X091548Y087853
X091548Y089103
X091548Y090353
X091548Y091603
X091548Y092853
X091548Y094103
X091548Y095353
X091548Y096603
X091548Y097853
X091548Y099103
X091548Y100353
X091548Y101603
X091548Y102853
X091548Y104103
X091548Y105353
X091548Y106603
X094048Y045353
X094048Y046603
X094048Y047853
X094048Y049103
X094048Y050353
X094048Y051603
X094048Y052853
X094048Y054103
X094048Y055353
X094048Y056603
X094048Y057853
X094048Y059103
X094048Y060353
X094048Y061603
X094048Y062853
X094048Y064103
X094048Y065353
X094048Y066603
X094048Y067853
X094048Y069103
X094048Y070353
X094048Y071603
X094048Y072853
X094048Y074103
X094048Y075353
X094048Y076603
X094048Y077853
X094048Y079103
X094048Y080353
X094048Y081603
X094048Y082853
X094048Y084103
X094048Y085353
X094048Y086603
X094048Y087853
X094048Y089103
X094048Y090353
X094048Y091603
X094048Y092853
X094048Y094103
X094048Y095353
X094048Y096603
X094048Y097853
X094048Y099103
X094048Y100353
X094048Y101603
X094048Y102853
X094048Y104103
X094048Y105353
X094048Y106603
X099048Y045353
X099048Y046603
X099048Y047853
X099048Y049103
X099048Y050353
X099048Y051603
X099048Y052853
X099048Y054103
X099048Y055353
X099048Y056603
X099048Y057853
X099048Y059103
X099048Y060353
X099048Y061603
X099048Y062853
X099048Y064103
X099048Y065353
X099048Y066603
X099048Y067853
X099048Y069103
X099048Y070353
X099048Y071603
X099048Y072853
X099048Y074103
X099048Y075353
X099048Y076603
X099048Y077853
X099048Y079103
X099048Y080353
X099048Y081603
X099048Y082853
X099048Y084103
X099048Y085353
X099048Y086603
X099048Y087853
X099048Y089103
X099048Y090353
X099048Y091603
X099048Y092853
X099048Y094103
X099048Y095353
X099048Y096603
X099048Y097853
X099048Y099103
X099048Y100353
X099048Y101603
X099048Y102853
X099048Y104103
X099048Y105353
X099048Y106603
X101548Y045353
X101548Y046603
X101548Y047853
X101548Y049103
X101548Y050353
X101548Y051603
X101548Y052853
X101548Y054103
X101548Y055353
X101548Y056603
X101548Y057853
X101548Y059103
X101548Y060353
X101548Y061603
X101548Y062853
X101548Y064103
X101548Y065353
X101548Y066603
X101548Y067853
X101548Y069103
X101548Y070353
X101548Y071603
X101548Y072853
X101548Y074103
X101548Y075353
X101548Y076603
X101548Y077853
X101548Y079103
X101548Y080353
X101548Y081603
X101548Y082853
X101548Y084103
X101548Y085353
X101548Y086603
X101548Y087853
X101548Y089103
X101548Y090353
X101548Y091603
X101548Y092853
X101548Y094103
X101548Y095353
X101548Y096603
X101548Y097853
X101548Y099103
X101548Y100353
X101548Y101603
X101548Y102853
X101548Y104103
X101548Y105353
X101548Y106603
X106548Y045353
X106548Y046603
X106548Y047853
X106548Y049103
X106548Y050353
X106548Y051603
X106548Y052853
X106548Y054103
X106548Y055353
X106548Y056603
X106548Y057853
X106548Y059103
X106548Y060353
X106548Y061603
X106548Y062853
X106548Y064103
X106548Y065353
X106548Y066603
X106548Y067853
X106548Y069103
X106548Y070353
X106548Y071603
X106548Y072853
X106548Y074103
X106548Y075353
X106548Y076603
X106548Y077853
X106548Y079103
X106548Y080353
X106548Y081603
X106548Y082853
X106548Y084103
X106548Y085353
X106548Y086603
X106548Y087853
X106548Y089103
X106548Y090353
X106548Y091603
X106548Y092853
X106548Y094103
X106548Y095353
X106548Y096603
X106548Y097853
X106548Y099103
X106548Y100353
X106548Y101603
X106548Y102853
X106548Y104103
X106548Y105353
X106548Y106603
X109048Y045353
X109048Y046603
X109048Y047853
X109048Y049103
X109048Y050353
X109048Y051603
X109048Y052853
X109048Y054103
X109048Y055353
X109048Y056603
X109048Y057853
X109048Y059103
X109048Y060353
X109048Y061603
X109048Y062853
X109048Y064103
X109048Y065353
X109048Y066603
X109048Y067853
X109048Y069103
X109048Y070353
X109048Y071603
X109048Y072853
X109048Y074103
X109048Y075353
X109048Y076603
X109048Y077853
X109048Y079103
X109048Y080353
X109048Y081603
X109048Y082853
X109048Y084103
X109048Y085353
X109048Y086603
X109048Y087853
X109048Y089103
X109048Y090353
X109048Y091603
X109048Y092853
X109048Y094103
X109048Y095353
X109048Y096603
X109048Y097853
X109048Y099103
X109048Y100353
X109048Y101603
X109048Y102853
X109048Y104103
X109048Y105353
X109048Y106603
X114048Y045353
X114048Y046603
X114048Y047853
X114048Y049103
X114048Y050353
X114048Y051603
X114048Y052853
X114048Y054103
X114048Y055353
X114048Y056603
X114048Y057853
X114048Y059103
X114048Y060353
X114048Y061603
X114048Y062853
X114048Y064103
X114048Y065353
X114048Y066603
X114048Y067853
X114048Y069103
X114048Y070353
X114048Y071603
X114048Y072853
X114048Y074103
X114048Y075353
X114048Y076603
X114048Y077853
X114048Y079103
X114048Y080353
X114048Y081603
X114048Y082853
X114048Y084103
X114048Y085353
X114048Y086603
X114048Y087853
X114048Y089103
X114048Y090353
X114048Y091603
X114048Y092853
X114048Y094103
X114048Y095353
X114048Y096603
X114048Y097853
X114048Y099103
X114048Y100353
X114048Y101603
X114048Y102853
X114048Y104103
X114048Y105353
X114048Y106603
X116548Y045353
X116548Y046603
X116548Y047853
X116548Y049103
X116548Y050353
X116548Y051603
X116548Y052853
X116548Y054103
X116548Y055353
X116548Y056603
X116548Y057853
X116548Y059103
X116548Y060353
X116548Y061603
X116548Y062853
X116548Y064103
X116548Y065353
X116548Y066603
X116548Y067853
X116548Y069103
X116548Y070353
X116548Y071603
X116548Y072853
X116548Y074103
X116548Y075353
X116548Y076603
X116548Y077853
X116548Y079103
X116548Y080353
X116548Y081603
X116548Y082853
X116548Y084103
X116548Y085353
X116548Y086603
X116548Y087853
X116548Y089103
X116548Y090353
X116548Y091603
X116548Y092853
X116548Y094103
X116548Y095353
X116548Y096603
X116548Y097853
X116548Y099103
X116548Y100353
X116548Y101603
X116548Y102853
X116548Y104103
X116548Y105353
X116548Y106603
X121548Y045353
X121548Y046603
X121548Y047853
X121548Y049103
X121548Y050353
X121548Y051603
X121548Y052853
X121548Y054103
X121548Y055353
X121548Y056603
X121548Y057853
X121548Y059103
X121548Y060353
X121548Y061603
X121548Y062853
X121548Y064103
X121548Y065353
X121548Y066603
X121548Y067853
X121548Y069103
X121548Y070353
X121548Y071603
X121548Y072853
X121548Y074103
X121548Y075353
X121548Y076603
X121548Y077853
X121548Y079103
X121548Y080353
X121548Y081603
X121548Y082853
X121548Y084103
X121548Y085353
X121548Y086603
X121548Y087853
X121548Y089103
X121548Y090353
X121548Y091603
X121548Y092853
X121548Y094103
X121548Y095353
X121548Y096603
X121548Y097853
X121548Y099103
X121548Y100353
X121548Y101603
X121548Y102853
X121548Y104103
X121548Y105353
X121548Y106603
X124048Y045353
X124048Y046603
X124048Y047853
X124048Y049103
X124048Y050353
X124048Y051603
X124048Y052853
X124048Y054103
X124048Y055353
X124048Y056603
X124048Y057853
X124048Y059103
X124048Y060353
X124048Y061603
X124048Y062853
X124048Y064103
X124048Y065353
X124048Y066603
X124048Y067853
X124048Y069103
X124048Y070353
X124048Y071603
X124048Y072853
X124048Y074103
X124048Y075353
X124048Y076603
X124048Y077853
X124048Y079103
X124048Y080353
X124048Y081603
X124048Y082853
X124048Y084103
X124048Y085353
X124048Y086603
X124048Y087853
X124048Y089103
X124048Y090353
X124048Y091603
X124048Y092853
X124048Y094103
X124048Y095353
X124048Y096603
X124048Y097853
X124048Y099103
X124048Y100353
X124048Y101603
X124048Y102853
X124048Y104103
X124048Y105353
X124048Y106603
X129048Y045353
X129048Y046603
X129048Y047853
X129048Y049103
X129048Y050353
X129048Y051603
X129048Y052853
X129048Y054103
X129048Y055353
X129048Y056603
X129048Y057853
X129048Y059103
X129048Y060353
X129048Y061603
X129048Y062853
X129048Y064103
X129048Y065353
X129048Y066603
X129048Y067853
X129048Y069103
X129048Y070353
X129048Y071603
X129048Y072853
X129048Y074103
X129048Y075353
X129048Y076603
X129048Y077853
X129048Y079103
X129048Y080353
X129048Y081603
X129048Y082853
X129048Y084103
X129048Y085353
X129048Y086603
X129048Y087853
X129048Y089103
X129048Y090353
X129048Y091603
X129048Y092853
X129048Y094103
X129048Y095353
X129048Y096603
X129048Y097853
X129048Y099103
X129048Y100353
X129048Y101603
X129048Y102853
X129048Y104103
X129048Y105353
X129048Y106603
X131548Y045353
X131548Y046603
X131548Y047853
X131548Y049103
X131548Y050353
X131548Y051603
X131548Y052853
X131548Y054103
X131548Y055353
X131548Y056603
X131548Y057853
X131548Y059103
X131548Y060353
X131548Y061603
X131548Y062853
X131548Y064103
X131548Y065353
X131548Y066603
X131548Y067853
X131548Y069103
X131548Y070353
X131548Y071603
X131548Y072853
X131548Y074103
X131548Y075353
X131548Y076603
X131548Y077853
X131548Y079103
X131548Y080353
X131548Y081603
X131548Y082853
X131548Y084103
X131548Y085353
X131548Y086603
X131548Y087853
X131548Y089103
X131548Y090353
X131548Y091603
X131548Y092853
X131548Y094103
X131548Y095353
X131548Y096603
X131548Y097853
X131548Y099103
X131548Y100353
X131548Y101603
X131548Y102853
X131548Y104103
X131548Y105353
X131548Y106603
X136548Y045353
X136548Y046603
X136548Y047853
X136548Y049103
X136548Y050353
X136548Y051603
X136548Y052853
X136548Y054103
X136548Y055353
X136548Y056603
X136548Y057853
X136548Y059103
X136548Y060353
X136548Y061603
X136548Y062853
X136548Y064103
X136548Y065353
X136548Y066603
X136548Y067853
X136548Y069103
X136548Y070353
X136548Y071603
X136548Y072853
X136548Y074103
X136548Y075353
X136548Y076603
X136548Y077853
X136548Y079103
X136548Y080353
X136548Y081603
X136548Y082853
X136548Y084103
X136548Y085353
X136548Y086603
X136548Y087853
X136548Y089103
X136548Y090353
X136548Y091603
X136548Y092853
X136548Y094103
X136548Y095353
X136548Y096603
X136548Y097853
X136548Y099103
X136548Y100353
X136548Y101603
X136548Y102853
X136548Y104103
X136548Y105353
X136548Y106603
X139048Y045353
X139048Y046603
X139048Y047853
X139048Y049103
X139048Y050353
X139048Y051603
X139048Y052853
X139048Y054103
X139048Y055353
X139048Y056603
X139048Y057853
X139048Y059103
X139048Y060353
X139048Y061603
X139048Y062853
X139048Y064103
X139048Y065353
X139048Y066603
X139048Y067853
X139048Y069103
X139048Y070353
X139048Y071603
X139048Y072853
X139048Y074103
X139048Y075353
X139048Y076603
X139048Y077853
X139048Y079103
X139048Y080353
X139048Y081603
X139048Y082853
X139048Y084103
X139048Y085353
X139048Y086603
X139048Y087853
X139048Y089103
X139048Y090353
X139048Y091603
X139048Y092853
X139048Y094103
X139048Y095353
X139048Y096603
X139048Y097853
X139048Y099103
X139048Y100353
X139048Y101603
X139048Y102853
X139048Y104103
X139048Y105353
X139048Y106603
X144048Y045353
X144048Y046603
X144048Y047853
X144048Y049103
X144048Y050353
X144048Y051603
X144048Y052853
X144048Y054103
X144048Y055353
X144048Y056603
X144048Y057853
X144048Y059103
X144048Y060353
X144048Y061603
X144048Y062853
X144048Y064103
X144048Y065353
X144048Y066603
X144048Y067853
X144048Y069103
X144048Y070353
X144048Y071603
X144048Y072853
X144048Y074103
X144048Y075353
X144048Y076603
X144048Y077853
X144048Y079103
X144048Y080353
X144048Y081603
X144048Y082853
X144048Y084103
X144048Y085353
X144048Y086603
X144048Y087853
X144048Y089103
X144048Y090353
X144048Y091603
X144048Y092853
X144048Y094103
X144048Y095353
X144048Y096603
X144048Y097853
X144048Y099103
X144048Y100353
X144048Y101603
X144048Y102853
X144048Y104103
X144048Y105353
X144048Y106603
X146548Y045353
X146548Y046603
X146548Y047853
X146548Y049103
X146548Y050353
X146548Y051603
X146548Y052853
X146548Y054103
X146548Y055353
X146548Y056603
X146548Y057853
X146548Y059103
X146548Y060353
X146548Y061603
X146548Y062853
X146548Y064103
X146548Y065353
X146548Y066603
X146548Y067853
X146548Y069103
X146548Y070353
X146548Y071603
X146548Y072853
X146548Y074103
X146548Y075353
X146548Y076603
X146548Y077853
X146548Y079103
X146548Y080353
X146548Y081603
X146548Y082853
X146548Y084103
X146548Y085353
X146548Y086603
X146548Y087853
X146548Y089103
X146548Y090353
X146548Y091603
X146548Y092853
X146548Y094103
X146548Y095353
X146548Y096603
X146548Y097853
X146548Y099103
X146548Y100353
X146548Y101603
X146548Y102853
X146548Y104103
X146548Y105353
X146548Y106603
X151548Y045353
X151548Y046603
X151548Y047853
X151548Y049103
X151548Y050353
X151548Y051603
X151548Y052853
X151548Y054103
X151548Y055353
X151548Y056603
X151548Y057853
X151548Y059103
X151548Y060353
X151548Y061603
X151548Y062853
X151548Y064103
X151548Y065353
X151548Y066603
X151548Y067853
X151548Y069103
X151548Y070353
X151548Y071603
X151548Y072853
X151548Y074103
X151548Y075353
X151548Y076603
X151548Y077853
X151548Y079103
X151548Y080353
X151548Y081603
X151548Y082853
X151548Y084103
X151548Y085353
X151548Y086603
X151548Y087853
X151548Y089103
X151548Y090353
X151548Y091603
X151548Y092853
X151548Y094103
X151548Y095353
X151548Y096603
X151548Y097853
X151548Y099103
X151548Y100353
X151548Y101603
X151548Y102853
X151548Y104103
X151548Y105353
X151548Y106603
X154048Y045353
X154048Y046603
X154048Y047853
X154048Y049103
X154048Y050353
X154048Y051603
X154048Y052853
X154048Y054103
X154048Y055353
X154048Y056603
X154048Y057853
X154048Y059103
X154048Y060353
X154048Y061603
X154048Y062853
X154048Y064103
X154048Y065353
X154048Y066603
X154048Y067853
X154048Y069103
X154048Y070353
X154048Y071603
X154048Y072853
X154048Y074103
X154048Y075353
X154048Y076603
X154048Y077853
X154048Y079103
X154048Y080353
X154048Y081603
X154048Y082853
X154048Y084103
X154048Y085353
X154048Y086603
X154048Y087853
X154048Y089103
X154048Y090353
X154048Y091603
X154048Y092853
X154048Y094103
X154048Y095353
X154048Y096603
X154048Y097853
X154048Y099103
X154048Y100353
X154048Y101603
X154048Y102853
X154048Y104103
X154048Y105353
X154048Y106603
X159048Y045353
X159048Y046603
X159048Y047853
X159048Y049103
X159048Y050353
X159048Y051603
X159048Y052853
X159048Y054103
X159048Y055353
X159048Y056603
X159048Y057853
X159048Y059103
X159048Y060353
X159048Y061603
X159048Y062853
X159048Y064103
X159048Y065353
X159048Y066603
X159048Y067853
X159048Y069103
X159048Y070353
X159048Y071603
X159048Y072853
X159048Y074103
X159048Y075353
X159048Y076603
X159048Y077853
X159048Y079103
X159048Y080353
X159048Y081603
X159048Y082853
X159048Y084103
X159048Y085353
X159048Y086603
X159048Y087853
X159048Y089103
X159048Y090353
X159048Y091603
X159048Y092853
X159048Y094103
X159048Y095353
X159048Y096603
X159048Y097853
X159048Y099103
X159048Y100353
X159048Y101603
X159048Y102853
X159048Y104103
X159048Y105353
X159048Y106603
X161548Y045353
X161548Y046603
X161548Y047853
X161548Y049103
X161548Y050353
X161548Y051603
X161548Y052853
X161548Y054103
X161548Y055353
X161548Y056603
X161548Y057853
X161548Y059103
X161548Y060353
X161548Y061603
X161548Y062853
X161548Y064103
X161548Y065353
X161548Y066603
X161548Y067853
X161548Y069103
X161548Y070353
X161548Y071603
X161548Y072853
X161548Y074103
X161548Y075353
X161548Y076603
X161548Y077853
X161548Y079103
X161548Y080353
X161548Y081603
X161548Y082853
X161548Y084103
X161548Y085353
X161548Y086603
X161548Y087853
X161548Y089103
X161548Y090353
X161548Y091603
X161548Y092853
X161548Y094103
X161548Y095353
X161548Y096603
X161548Y097853
X161548Y099103
X161548Y100353
X161548Y101603
X161548Y102853
X161548Y104103
X161548Y105353
X161548Y106603
X166548Y045353
X166548Y046603
X166548Y047853
X166548Y049103
X166548Y050353
X166548Y051603
X166548Y052853
X166548Y054103
X166548Y055353
X166548Y056603
X166548Y057853
X166548Y059103
X166548Y060353
X166548Y061603
X166548Y062853
X166548Y064103
X166548Y065353
X166548Y066603
X166548Y067853
X166548Y069103
X166548Y070353
X166548Y071603
X166548Y072853
X166548Y074103
X166548Y075353
X166548Y076603
X166548Y077853
X166548Y079103
X166548Y080353
X166548Y081603
X166548Y082853
X166548Y084103
X166548Y085353
X166548Y086603
X166548Y087853
X166548Y089103
X166548Y090353
X166548Y091603
X166548Y092853
X166548Y094103
X166548Y095353
X166548Y096603
X166548Y097853
X166548Y099103
X166548Y100353
X166548Y101603
X166548Y102853
X166548Y104103
X166548Y105353
X166548Y106603
X169048Y045353
X169048Y046603
X169048Y047853
X169048Y049103
X169048Y050353
X169048Y051603
X169048Y052853
X169048Y054103
X169048Y055353
X169048Y056603
X169048Y057853
X169048Y059103
X169048Y060353
X169048Y061603
X169048Y062853
X169048Y064103
X169048Y065353
X169048Y066603
X169048Y067853
X169048Y069103
X169048Y070353
X169048Y071603
X169048Y072853
X169048Y074103
X169048Y075353
X169048Y076603
X169048Y077853
X169048Y079103
X169048Y080353
X169048Y081603
X169048Y082853
X169048Y084103
X169048Y085353
X169048Y086603
X169048Y087853
X169048Y089103
X169048Y090353
X169048Y091603
X169048Y092853
X169048Y094103
X169048Y095353
X169048Y096603
X169048Y097853
X169048Y099103
X169048Y100353
X169048Y101603
X169048Y102853
X169048Y104103
X169048Y105353
X169048Y106603
X174048Y045353
X174048Y046603
X174048Y047853
X174048Y049103
X174048Y050353
X174048Y051603
X174048Y052853
X174048Y054103
X174048Y055353
X174048Y056603
X174048Y057853
X174048Y059103
X174048Y060353
X174048Y061603
X174048Y062853
X174048Y064103
X174048Y065353
X174048Y066603
X174048Y067853
X174048Y069103
X174048Y070353
X174048Y071603
X174048Y072853
X174048Y074103
X174048Y075353
X174048Y076603
X174048Y077853
X174048Y079103
X174048Y080353
X174048Y081603
X174048Y082853
X174048Y084103
X174048Y085353
X174048Y086603
X174048Y087853
X174048Y089103
X174048Y090353
X174048Y091603
X174048Y092853
X174048Y094103
X174048Y095353
X174048Y096603
X174048Y097853
X174048Y099103
X174048Y100353
X174048Y101603
X174048Y102853
X174048Y104103
X174048Y105353
X174048Y106603
X176548Y045353
X176548Y046603
X176548Y047853
X176548Y049103
X176548Y050353
X176548Y051603
X176548Y052853
X176548Y054103
X176548Y055353
X176548Y056603
X176548Y057853
X176548Y059103
X176548Y060353
X176548Y061603
X176548Y062853
X176548Y064103
X176548Y065353
X176548Y066603
X176548Y067853
X176548Y069103
X176548Y070353
X176548Y071603
X176548Y072853
X176548Y074103
X176548Y075353
X176548Y076603
X176548Y077853
X176548Y079103
X176548Y080353
X176548Y081603
X176548Y082853
X176548Y084103
X176548Y085353
X176548Y086603
X176548Y087853
X176548Y089103
X176548Y090353
X176548Y091603
X176548Y092853
X176548Y094103
X176548Y095353
X176548Y096603
X176548Y097853
X176548Y099103
X176548Y100353
X176548Y101603
X176548Y102853
X176548Y104103
X176548Y105353
X176548Y106603
X181548Y045353
X181548Y046603
X181548Y047853
X181548Y049103
X181548Y050353
X181548Y051603
X181548Y052853
X181548Y054103
X181548Y055353
X181548Y056603
X181548Y057853
X181548Y059103
X181548Y060353
X181548Y061603
X181548Y062853
X181548Y064103
X181548Y065353
X181548Y066603
X181548Y067853
X181548Y069103
X181548Y070353
X181548Y071603
X181548Y072853
X181548Y074103
X181548Y075353
X181548Y076603
X181548Y077853
X181548Y079103
X181548Y080353
X181548Y081603
X181548Y082853
X181548Y084103
X181548Y085353
X181548Y086603
X181548Y087853
X181548Y089103
X181548Y090353
X181548Y091603
X181548Y092853
X181548Y094103
X181548Y095353
X181548Y096603
X181548Y097853
X181548Y099103
X181548Y100353
X181548Y101603
X181548Y102853
X181548Y104103
X181548Y105353
X181548Y106603
X184048Y045353
X184048Y046603
X184048Y047853
X184048Y049103
X184048Y050353
X184048Y051603
X184048Y052853
X184048Y054103
X184048Y055353
X184048Y056603
X184048Y057853
X184048Y059103
X184048Y060353
X184048Y061603
X184048Y062853
X184048Y064103
X184048Y065353
X184048Y066603
X184048Y067853
X184048Y069103
X184048Y070353
X184048Y071603
X184048Y072853
X184048Y074103
X184048Y075353
X184048Y076603
X184048Y077853
X184048Y079103
X184048Y080353
X184048Y081603
X184048Y082853
X184048Y084103
X184048Y085353
X184048Y086603
X184048Y087853
X184048Y089103
X184048Y090353
X184048Y091603
X184048Y092853
X184048Y094103
X184048Y095353
X184048Y096603
X184048Y097853
X184048Y099103
X184048Y100353
X184048Y101603
X184048Y102853
X184048Y104103
X184048Y105353
X184048Y106603
X189815Y093950
X189815Y094950
X189815Y095950
T12
X196600Y093350
X196600Y094350
X196600Y095350
X196610Y061490
X196610Y062490
X196610Y063490
X196650Y074950
X196650Y075950
X196650Y076950
T13
X200400Y044450
X200400Y047700
X200400Y050950
X200400Y054200
T14
X051550Y042000
X051550Y109930
X066550Y042000
X066550Y109930
X081550Y042000
X081550Y109930
X096550Y042000
X096550Y109930
X111550Y042000
X111550Y109930
X126550Y042000
X126550Y109930
X141540Y109920
X141550Y042000
X156550Y042000
X156550Y109930
X171550Y042000
X171550Y109950
X186550Y042000
X186860Y109930
X196550Y042000
X196550Y109930
X203100Y094350
X203110Y062490
X203150Y075950
T15
X055298Y042003
X055298Y109953
X062798Y042003
X062798Y109953
X070298Y042003
X070298Y109953
X077798Y042003
X077798Y109953
X085298Y042003
X085298Y109953
X092798Y042003
X092798Y109953
X100298Y042003
X100298Y109953
X107798Y042003
X107798Y109953
X115298Y042003
X115298Y109953
X122798Y042003
X122798Y109953
X130298Y042003
X130298Y109953
X137798Y042003
X137798Y109953
X145298Y042003
X145298Y109953
X152798Y042003
X152798Y109953
X160298Y042003
X160298Y109953
X167798Y042003
X167798Y109953
X175298Y042003
X175298Y109953
X182798Y042003
X182798Y109953
M30

