G04 This is an RS-274x file exported by *
G04 gerbv version 2.6.1 *
G04 More information is available about gerbv at *
G04 http://gerbv.geda-project.org/ *
G04 --End of header info--*
%MOIN*%
%FSLAX34Y34*%
%IPPOS*%
G04 --Define apertures--*
%ADD10C,0.0059*%
%ADD11C,0.1800*%
%ADD12R,0.0750X0.0750*%
%ADD13C,0.0750*%
%ADD14R,0.0800X0.0800*%
%ADD15C,0.0800*%
%ADD16R,0.3700X0.3700*%
%ADD17C,0.0900*%
%ADD18R,0.0900X0.0900*%
%ADD19C,0.1880*%
%ADD20C,0.1400*%
%ADD21C,0.0720*%
%ADD22C,0.0860*%
G04 --Start main section--*
G54D11*
G01X0186550Y-042000D03*
G01X0156550Y-042000D03*
G01X0156550Y-109929D03*
G01X0126550Y-109929D03*
G01X0126550Y-042000D03*
G54D12*
G01X0191900Y-087729D03*
G54D13*
G01X0191900Y-088729D03*
G01X0191900Y-089729D03*
G01X0191900Y-090729D03*
G01X0194900Y-090729D03*
G01X0194900Y-089729D03*
G01X0194900Y-088729D03*
G01X0194900Y-087729D03*
G54D14*
G01X0188600Y-090550D03*
G54D15*
G01X0189600Y-090550D03*
G54D14*
G01X0190100Y-085900D03*
G54D15*
G01X0191100Y-085900D03*
G54D14*
G01X0195000Y-093400D03*
G54D15*
G01X0194000Y-093400D03*
G54D14*
G01X0188600Y-079600D03*
G54D15*
G01X0189600Y-079600D03*
G54D14*
G01X0188600Y-070550D03*
G54D15*
G01X0189600Y-070550D03*
G54D14*
G01X0188600Y-057700D03*
G54D15*
G01X0189600Y-057700D03*
G54D14*
G01X0188600Y-046600D03*
G54D15*
G01X0189600Y-046600D03*
G54D14*
G01X0203100Y-084200D03*
G54D15*
G01X0204100Y-084200D03*
G54D13*
G01X0192464Y-079059D03*
G01X0192464Y-076059D03*
G01X0200600Y-082700D03*
G01X0200600Y-085700D03*
G01X0189650Y-052200D03*
G01X0189650Y-055200D03*
G01X0193900Y-070000D03*
G01X0196900Y-070000D03*
G01X0196900Y-068800D03*
G01X0193900Y-068800D03*
G01X0196550Y-085700D03*
G01X0196550Y-082700D03*
G01X0197550Y-085700D03*
G01X0197550Y-082700D03*
G01X0198579Y-082685D03*
G01X0198579Y-085685D03*
G01X0199579Y-082685D03*
G01X0199579Y-085685D03*
G54D16*
G01X0203100Y-094350D03*
G54D17*
G01X0196600Y-093350D03*
G54D18*
G01X0196600Y-094350D03*
G54D17*
G01X0196600Y-095350D03*
G54D13*
G01X0185800Y-103300D03*
G01X0188800Y-103300D03*
G01X0185800Y-104300D03*
G01X0188800Y-104300D03*
G01X0185800Y-102300D03*
G01X0188800Y-102300D03*
G01X0185800Y-105300D03*
G01X0188800Y-105300D03*
G54D12*
G01X0186800Y-047679D03*
G54D13*
G01X0186800Y-048679D03*
G01X0186800Y-049679D03*
G01X0186800Y-050679D03*
G01X0186800Y-051679D03*
G01X0186800Y-052679D03*
G01X0186800Y-053679D03*
G01X0186800Y-054679D03*
G01X0186800Y-055679D03*
G01X0186800Y-056679D03*
G54D12*
G01X0186800Y-058679D03*
G54D13*
G01X0186800Y-059679D03*
G01X0186800Y-060679D03*
G01X0186800Y-061679D03*
G01X0186800Y-062679D03*
G01X0186800Y-063679D03*
G01X0186800Y-064679D03*
G01X0186800Y-065679D03*
G01X0186800Y-066679D03*
G01X0186800Y-067679D03*
G54D12*
G01X0186800Y-069679D03*
G54D13*
G01X0186800Y-070679D03*
G01X0186800Y-071679D03*
G01X0186800Y-072679D03*
G01X0186800Y-073679D03*
G01X0186800Y-074679D03*
G01X0186800Y-075679D03*
G01X0186800Y-076679D03*
G01X0186800Y-077679D03*
G01X0186800Y-078679D03*
G54D12*
G01X0186800Y-080679D03*
G54D13*
G01X0186800Y-081679D03*
G01X0186800Y-082679D03*
G01X0186800Y-083679D03*
G01X0186800Y-084679D03*
G01X0186800Y-085679D03*
G01X0186800Y-086679D03*
G01X0186800Y-087679D03*
G01X0186800Y-088679D03*
G01X0186800Y-089679D03*
G54D12*
G01X0186800Y-091679D03*
G54D13*
G01X0186800Y-092679D03*
G01X0186800Y-093679D03*
G01X0186800Y-094679D03*
G01X0186800Y-095679D03*
G01X0186800Y-096679D03*
G01X0186800Y-097679D03*
G01X0186800Y-098679D03*
G01X0186800Y-099679D03*
G01X0186800Y-100679D03*
G54D12*
G01X0185800Y-047679D03*
G54D13*
G01X0185800Y-048679D03*
G01X0185800Y-049679D03*
G01X0185800Y-050679D03*
G01X0185800Y-051679D03*
G01X0185800Y-052679D03*
G01X0185800Y-053679D03*
G01X0185800Y-054679D03*
G01X0185800Y-055679D03*
G01X0185800Y-056679D03*
G54D12*
G01X0185800Y-058679D03*
G54D13*
G01X0185800Y-059679D03*
G01X0185800Y-060679D03*
G01X0185800Y-061679D03*
G01X0185800Y-062679D03*
G01X0185800Y-063679D03*
G01X0185800Y-064679D03*
G01X0185800Y-065679D03*
G01X0185800Y-066679D03*
G01X0185800Y-067679D03*
G54D12*
G01X0185800Y-069679D03*
G54D13*
G01X0185800Y-070679D03*
G01X0185800Y-071679D03*
G01X0185800Y-072679D03*
G01X0185800Y-073679D03*
G01X0185800Y-074679D03*
G01X0185800Y-075679D03*
G01X0185800Y-076679D03*
G01X0185800Y-077679D03*
G01X0185800Y-078679D03*
G54D12*
G01X0185800Y-080679D03*
G54D13*
G01X0185800Y-081679D03*
G01X0185800Y-082679D03*
G01X0185800Y-083679D03*
G01X0185800Y-084679D03*
G01X0185800Y-085679D03*
G01X0185800Y-086679D03*
G01X0185800Y-087679D03*
G01X0185800Y-088679D03*
G01X0185800Y-089679D03*
G54D12*
G01X0185800Y-091679D03*
G54D13*
G01X0185800Y-092679D03*
G01X0185800Y-093679D03*
G01X0185800Y-094679D03*
G01X0185800Y-095679D03*
G01X0185800Y-096679D03*
G01X0185800Y-097679D03*
G01X0185800Y-098679D03*
G01X0185800Y-099679D03*
G01X0185800Y-100679D03*
G54D11*
G01X0186859Y-109929D03*
G54D14*
G01X0189815Y-095950D03*
G54D15*
G01X0189815Y-094950D03*
G01X0189815Y-093950D03*
G54D13*
G01X0194950Y-099650D03*
G01X0191950Y-099650D03*
G01X0191950Y-100750D03*
G01X0194950Y-100750D03*
G01X0199850Y-102300D03*
G01X0201850Y-102300D03*
G01X0199850Y-105300D03*
G01X0201850Y-105300D03*
G54D12*
G01X0197300Y-106850D03*
G54D13*
G01X0196300Y-106850D03*
G54D12*
G01X0189200Y-049600D03*
G54D13*
G01X0188200Y-049600D03*
G54D12*
G01X0189100Y-066350D03*
G54D13*
G01X0188100Y-066350D03*
G54D12*
G01X0189100Y-068150D03*
G54D13*
G01X0188100Y-068150D03*
G54D15*
G01X0071548Y-045352D03*
G54D14*
G01X0069048Y-045352D03*
G54D15*
G01X0071548Y-051602D03*
G01X0069048Y-046602D03*
G01X0071548Y-052852D03*
G01X0069048Y-047852D03*
G01X0071548Y-054102D03*
G01X0069048Y-049102D03*
G01X0071548Y-055352D03*
G01X0069048Y-050352D03*
G01X0071548Y-056602D03*
G01X0069048Y-051602D03*
G01X0071548Y-057852D03*
G01X0069048Y-052852D03*
G01X0071548Y-059102D03*
G01X0069048Y-054102D03*
G01X0071548Y-060352D03*
G01X0069048Y-055352D03*
G01X0071548Y-061602D03*
G01X0069048Y-056602D03*
G01X0071548Y-062852D03*
G01X0069048Y-057852D03*
G01X0071548Y-064102D03*
G01X0069048Y-059102D03*
G01X0069048Y-060352D03*
G01X0071548Y-065352D03*
G01X0069048Y-061602D03*
G01X0069048Y-064102D03*
G01X0069048Y-065352D03*
G01X0069048Y-066602D03*
G01X0069048Y-067852D03*
G01X0071548Y-066602D03*
G01X0071548Y-067852D03*
G01X0071548Y-046602D03*
G01X0071548Y-047852D03*
G01X0071548Y-049102D03*
G01X0071548Y-050352D03*
G01X0071548Y-069102D03*
G01X0069048Y-069102D03*
G01X0069048Y-062852D03*
G01X0069048Y-070352D03*
G01X0071548Y-070352D03*
G01X0069048Y-071602D03*
G01X0071548Y-071602D03*
G01X0069048Y-072852D03*
G01X0071548Y-072852D03*
G01X0069048Y-074102D03*
G01X0071548Y-074102D03*
G01X0069048Y-075352D03*
G01X0071548Y-075352D03*
G01X0069048Y-076602D03*
G01X0071548Y-076602D03*
G01X0069048Y-077852D03*
G01X0071548Y-077852D03*
G01X0069048Y-079102D03*
G01X0071548Y-079102D03*
G01X0069048Y-080352D03*
G01X0071548Y-080352D03*
G01X0069048Y-081602D03*
G01X0071548Y-081602D03*
G01X0069048Y-082852D03*
G01X0071548Y-082852D03*
G01X0069048Y-084102D03*
G01X0071548Y-084102D03*
G01X0069048Y-085352D03*
G01X0071548Y-085352D03*
G01X0069048Y-086602D03*
G01X0071548Y-086602D03*
G01X0069048Y-087852D03*
G01X0071548Y-087852D03*
G01X0069048Y-089102D03*
G01X0071548Y-089102D03*
G01X0069048Y-090352D03*
G01X0071548Y-090352D03*
G01X0069048Y-091602D03*
G01X0071548Y-091602D03*
G01X0069048Y-092852D03*
G01X0071548Y-092852D03*
G01X0069048Y-094102D03*
G01X0071548Y-094102D03*
G01X0069048Y-095352D03*
G01X0071548Y-095352D03*
G01X0069048Y-096602D03*
G01X0071548Y-096602D03*
G01X0069048Y-097852D03*
G01X0071548Y-097852D03*
G01X0069048Y-099102D03*
G01X0071548Y-099102D03*
G01X0069048Y-100352D03*
G01X0071548Y-100352D03*
G01X0069048Y-101602D03*
G01X0071548Y-101602D03*
G01X0069048Y-102852D03*
G01X0071548Y-102852D03*
G01X0069048Y-104102D03*
G01X0071548Y-104102D03*
G01X0069048Y-105352D03*
G01X0071548Y-105352D03*
G01X0069048Y-106602D03*
G01X0071548Y-106602D03*
G54D19*
G01X0070298Y-109952D03*
G01X0070298Y-042002D03*
G54D15*
G01X0079048Y-045352D03*
G54D14*
G01X0076548Y-045352D03*
G54D15*
G01X0079048Y-051602D03*
G01X0076548Y-046602D03*
G01X0079048Y-052852D03*
G01X0076548Y-047852D03*
G01X0079048Y-054102D03*
G01X0076548Y-049102D03*
G01X0079048Y-055352D03*
G01X0076548Y-050352D03*
G01X0079048Y-056602D03*
G01X0076548Y-051602D03*
G01X0079048Y-057852D03*
G01X0076548Y-052852D03*
G01X0079048Y-059102D03*
G01X0076548Y-054102D03*
G01X0079048Y-060352D03*
G01X0076548Y-055352D03*
G01X0079048Y-061602D03*
G01X0076548Y-056602D03*
G01X0079048Y-062852D03*
G01X0076548Y-057852D03*
G01X0079048Y-064102D03*
G01X0076548Y-059102D03*
G01X0076548Y-060352D03*
G01X0079048Y-065352D03*
G01X0076548Y-061602D03*
G01X0076548Y-064102D03*
G01X0076548Y-065352D03*
G01X0076548Y-066602D03*
G01X0076548Y-067852D03*
G01X0079048Y-066602D03*
G01X0079048Y-067852D03*
G01X0079048Y-046602D03*
G01X0079048Y-047852D03*
G01X0079048Y-049102D03*
G01X0079048Y-050352D03*
G01X0079048Y-069102D03*
G01X0076548Y-069102D03*
G01X0076548Y-062852D03*
G01X0076548Y-070352D03*
G01X0079048Y-070352D03*
G01X0076548Y-071602D03*
G01X0079048Y-071602D03*
G01X0076548Y-072852D03*
G01X0079048Y-072852D03*
G01X0076548Y-074102D03*
G01X0079048Y-074102D03*
G01X0076548Y-075352D03*
G01X0079048Y-075352D03*
G01X0076548Y-076602D03*
G01X0079048Y-076602D03*
G01X0076548Y-077852D03*
G01X0079048Y-077852D03*
G01X0076548Y-079102D03*
G01X0079048Y-079102D03*
G01X0076548Y-080352D03*
G01X0079048Y-080352D03*
G01X0076548Y-081602D03*
G01X0079048Y-081602D03*
G01X0076548Y-082852D03*
G01X0079048Y-082852D03*
G01X0076548Y-084102D03*
G01X0079048Y-084102D03*
G01X0076548Y-085352D03*
G01X0079048Y-085352D03*
G01X0076548Y-086602D03*
G01X0079048Y-086602D03*
G01X0076548Y-087852D03*
G01X0079048Y-087852D03*
G01X0076548Y-089102D03*
G01X0079048Y-089102D03*
G01X0076548Y-090352D03*
G01X0079048Y-090352D03*
G01X0076548Y-091602D03*
G01X0079048Y-091602D03*
G01X0076548Y-092852D03*
G01X0079048Y-092852D03*
G01X0076548Y-094102D03*
G01X0079048Y-094102D03*
G01X0076548Y-095352D03*
G01X0079048Y-095352D03*
G01X0076548Y-096602D03*
G01X0079048Y-096602D03*
G01X0076548Y-097852D03*
G01X0079048Y-097852D03*
G01X0076548Y-099102D03*
G01X0079048Y-099102D03*
G01X0076548Y-100352D03*
G01X0079048Y-100352D03*
G01X0076548Y-101602D03*
G01X0079048Y-101602D03*
G01X0076548Y-102852D03*
G01X0079048Y-102852D03*
G01X0076548Y-104102D03*
G01X0079048Y-104102D03*
G01X0076548Y-105352D03*
G01X0079048Y-105352D03*
G01X0076548Y-106602D03*
G01X0079048Y-106602D03*
G54D19*
G01X0077798Y-109952D03*
G01X0077798Y-042002D03*
G54D15*
G01X0086548Y-045352D03*
G54D14*
G01X0084048Y-045352D03*
G54D15*
G01X0086548Y-051602D03*
G01X0084048Y-046602D03*
G01X0086548Y-052852D03*
G01X0084048Y-047852D03*
G01X0086548Y-054102D03*
G01X0084048Y-049102D03*
G01X0086548Y-055352D03*
G01X0084048Y-050352D03*
G01X0086548Y-056602D03*
G01X0084048Y-051602D03*
G01X0086548Y-057852D03*
G01X0084048Y-052852D03*
G01X0086548Y-059102D03*
G01X0084048Y-054102D03*
G01X0086548Y-060352D03*
G01X0084048Y-055352D03*
G01X0086548Y-061602D03*
G01X0084048Y-056602D03*
G01X0086548Y-062852D03*
G01X0084048Y-057852D03*
G01X0086548Y-064102D03*
G01X0084048Y-059102D03*
G01X0084048Y-060352D03*
G01X0086548Y-065352D03*
G01X0084048Y-061602D03*
G01X0084048Y-064102D03*
G01X0084048Y-065352D03*
G01X0084048Y-066602D03*
G01X0084048Y-067852D03*
G01X0086548Y-066602D03*
G01X0086548Y-067852D03*
G01X0086548Y-046602D03*
G01X0086548Y-047852D03*
G01X0086548Y-049102D03*
G01X0086548Y-050352D03*
G01X0086548Y-069102D03*
G01X0084048Y-069102D03*
G01X0084048Y-062852D03*
G01X0084048Y-070352D03*
G01X0086548Y-070352D03*
G01X0084048Y-071602D03*
G01X0086548Y-071602D03*
G01X0084048Y-072852D03*
G01X0086548Y-072852D03*
G01X0084048Y-074102D03*
G01X0086548Y-074102D03*
G01X0084048Y-075352D03*
G01X0086548Y-075352D03*
G01X0084048Y-076602D03*
G01X0086548Y-076602D03*
G01X0084048Y-077852D03*
G01X0086548Y-077852D03*
G01X0084048Y-079102D03*
G01X0086548Y-079102D03*
G01X0084048Y-080352D03*
G01X0086548Y-080352D03*
G01X0084048Y-081602D03*
G01X0086548Y-081602D03*
G01X0084048Y-082852D03*
G01X0086548Y-082852D03*
G01X0084048Y-084102D03*
G01X0086548Y-084102D03*
G01X0084048Y-085352D03*
G01X0086548Y-085352D03*
G01X0084048Y-086602D03*
G01X0086548Y-086602D03*
G01X0084048Y-087852D03*
G01X0086548Y-087852D03*
G01X0084048Y-089102D03*
G01X0086548Y-089102D03*
G01X0084048Y-090352D03*
G01X0086548Y-090352D03*
G01X0084048Y-091602D03*
G01X0086548Y-091602D03*
G01X0084048Y-092852D03*
G01X0086548Y-092852D03*
G01X0084048Y-094102D03*
G01X0086548Y-094102D03*
G01X0084048Y-095352D03*
G01X0086548Y-095352D03*
G01X0084048Y-096602D03*
G01X0086548Y-096602D03*
G01X0084048Y-097852D03*
G01X0086548Y-097852D03*
G01X0084048Y-099102D03*
G01X0086548Y-099102D03*
G01X0084048Y-100352D03*
G01X0086548Y-100352D03*
G01X0084048Y-101602D03*
G01X0086548Y-101602D03*
G01X0084048Y-102852D03*
G01X0086548Y-102852D03*
G01X0084048Y-104102D03*
G01X0086548Y-104102D03*
G01X0084048Y-105352D03*
G01X0086548Y-105352D03*
G01X0084048Y-106602D03*
G01X0086548Y-106602D03*
G54D19*
G01X0085298Y-109952D03*
G01X0085298Y-042002D03*
G54D15*
G01X0094048Y-045352D03*
G54D14*
G01X0091548Y-045352D03*
G54D15*
G01X0094048Y-051602D03*
G01X0091548Y-046602D03*
G01X0094048Y-052852D03*
G01X0091548Y-047852D03*
G01X0094048Y-054102D03*
G01X0091548Y-049102D03*
G01X0094048Y-055352D03*
G01X0091548Y-050352D03*
G01X0094048Y-056602D03*
G01X0091548Y-051602D03*
G01X0094048Y-057852D03*
G01X0091548Y-052852D03*
G01X0094048Y-059102D03*
G01X0091548Y-054102D03*
G01X0094048Y-060352D03*
G01X0091548Y-055352D03*
G01X0094048Y-061602D03*
G01X0091548Y-056602D03*
G01X0094048Y-062852D03*
G01X0091548Y-057852D03*
G01X0094048Y-064102D03*
G01X0091548Y-059102D03*
G01X0091548Y-060352D03*
G01X0094048Y-065352D03*
G01X0091548Y-061602D03*
G01X0091548Y-064102D03*
G01X0091548Y-065352D03*
G01X0091548Y-066602D03*
G01X0091548Y-067852D03*
G01X0094048Y-066602D03*
G01X0094048Y-067852D03*
G01X0094048Y-046602D03*
G01X0094048Y-047852D03*
G01X0094048Y-049102D03*
G01X0094048Y-050352D03*
G01X0094048Y-069102D03*
G01X0091548Y-069102D03*
G01X0091548Y-062852D03*
G01X0091548Y-070352D03*
G01X0094048Y-070352D03*
G01X0091548Y-071602D03*
G01X0094048Y-071602D03*
G01X0091548Y-072852D03*
G01X0094048Y-072852D03*
G01X0091548Y-074102D03*
G01X0094048Y-074102D03*
G01X0091548Y-075352D03*
G01X0094048Y-075352D03*
G01X0091548Y-076602D03*
G01X0094048Y-076602D03*
G01X0091548Y-077852D03*
G01X0094048Y-077852D03*
G01X0091548Y-079102D03*
G01X0094048Y-079102D03*
G01X0091548Y-080352D03*
G01X0094048Y-080352D03*
G01X0091548Y-081602D03*
G01X0094048Y-081602D03*
G01X0091548Y-082852D03*
G01X0094048Y-082852D03*
G01X0091548Y-084102D03*
G01X0094048Y-084102D03*
G01X0091548Y-085352D03*
G01X0094048Y-085352D03*
G01X0091548Y-086602D03*
G01X0094048Y-086602D03*
G01X0091548Y-087852D03*
G01X0094048Y-087852D03*
G01X0091548Y-089102D03*
G01X0094048Y-089102D03*
G01X0091548Y-090352D03*
G01X0094048Y-090352D03*
G01X0091548Y-091602D03*
G01X0094048Y-091602D03*
G01X0091548Y-092852D03*
G01X0094048Y-092852D03*
G01X0091548Y-094102D03*
G01X0094048Y-094102D03*
G01X0091548Y-095352D03*
G01X0094048Y-095352D03*
G01X0091548Y-096602D03*
G01X0094048Y-096602D03*
G01X0091548Y-097852D03*
G01X0094048Y-097852D03*
G01X0091548Y-099102D03*
G01X0094048Y-099102D03*
G01X0091548Y-100352D03*
G01X0094048Y-100352D03*
G01X0091548Y-101602D03*
G01X0094048Y-101602D03*
G01X0091548Y-102852D03*
G01X0094048Y-102852D03*
G01X0091548Y-104102D03*
G01X0094048Y-104102D03*
G01X0091548Y-105352D03*
G01X0094048Y-105352D03*
G01X0091548Y-106602D03*
G01X0094048Y-106602D03*
G54D19*
G01X0092798Y-109952D03*
G01X0092798Y-042002D03*
G54D15*
G01X0101548Y-045352D03*
G54D14*
G01X0099048Y-045352D03*
G54D15*
G01X0101548Y-051602D03*
G01X0099048Y-046602D03*
G01X0101548Y-052852D03*
G01X0099048Y-047852D03*
G01X0101548Y-054102D03*
G01X0099048Y-049102D03*
G01X0101548Y-055352D03*
G01X0099048Y-050352D03*
G01X0101548Y-056602D03*
G01X0099048Y-051602D03*
G01X0101548Y-057852D03*
G01X0099048Y-052852D03*
G01X0101548Y-059102D03*
G01X0099048Y-054102D03*
G01X0101548Y-060352D03*
G01X0099048Y-055352D03*
G01X0101548Y-061602D03*
G01X0099048Y-056602D03*
G01X0101548Y-062852D03*
G01X0099048Y-057852D03*
G01X0101548Y-064102D03*
G01X0099048Y-059102D03*
G01X0099048Y-060352D03*
G01X0101548Y-065352D03*
G01X0099048Y-061602D03*
G01X0099048Y-064102D03*
G01X0099048Y-065352D03*
G01X0099048Y-066602D03*
G01X0099048Y-067852D03*
G01X0101548Y-066602D03*
G01X0101548Y-067852D03*
G01X0101548Y-046602D03*
G01X0101548Y-047852D03*
G01X0101548Y-049102D03*
G01X0101548Y-050352D03*
G01X0101548Y-069102D03*
G01X0099048Y-069102D03*
G01X0099048Y-062852D03*
G01X0099048Y-070352D03*
G01X0101548Y-070352D03*
G01X0099048Y-071602D03*
G01X0101548Y-071602D03*
G01X0099048Y-072852D03*
G01X0101548Y-072852D03*
G01X0099048Y-074102D03*
G01X0101548Y-074102D03*
G01X0099048Y-075352D03*
G01X0101548Y-075352D03*
G01X0099048Y-076602D03*
G01X0101548Y-076602D03*
G01X0099048Y-077852D03*
G01X0101548Y-077852D03*
G01X0099048Y-079102D03*
G01X0101548Y-079102D03*
G01X0099048Y-080352D03*
G01X0101548Y-080352D03*
G01X0099048Y-081602D03*
G01X0101548Y-081602D03*
G01X0099048Y-082852D03*
G01X0101548Y-082852D03*
G01X0099048Y-084102D03*
G01X0101548Y-084102D03*
G01X0099048Y-085352D03*
G01X0101548Y-085352D03*
G01X0099048Y-086602D03*
G01X0101548Y-086602D03*
G01X0099048Y-087852D03*
G01X0101548Y-087852D03*
G01X0099048Y-089102D03*
G01X0101548Y-089102D03*
G01X0099048Y-090352D03*
G01X0101548Y-090352D03*
G01X0099048Y-091602D03*
G01X0101548Y-091602D03*
G01X0099048Y-092852D03*
G01X0101548Y-092852D03*
G01X0099048Y-094102D03*
G01X0101548Y-094102D03*
G01X0099048Y-095352D03*
G01X0101548Y-095352D03*
G01X0099048Y-096602D03*
G01X0101548Y-096602D03*
G01X0099048Y-097852D03*
G01X0101548Y-097852D03*
G01X0099048Y-099102D03*
G01X0101548Y-099102D03*
G01X0099048Y-100352D03*
G01X0101548Y-100352D03*
G01X0099048Y-101602D03*
G01X0101548Y-101602D03*
G01X0099048Y-102852D03*
G01X0101548Y-102852D03*
G01X0099048Y-104102D03*
G01X0101548Y-104102D03*
G01X0099048Y-105352D03*
G01X0101548Y-105352D03*
G01X0099048Y-106602D03*
G01X0101548Y-106602D03*
G54D19*
G01X0100298Y-109952D03*
G01X0100298Y-042002D03*
G54D15*
G01X0109048Y-045352D03*
G54D14*
G01X0106548Y-045352D03*
G54D15*
G01X0109048Y-051602D03*
G01X0106548Y-046602D03*
G01X0109048Y-052852D03*
G01X0106548Y-047852D03*
G01X0109048Y-054102D03*
G01X0106548Y-049102D03*
G01X0109048Y-055352D03*
G01X0106548Y-050352D03*
G01X0109048Y-056602D03*
G01X0106548Y-051602D03*
G01X0109048Y-057852D03*
G01X0106548Y-052852D03*
G01X0109048Y-059102D03*
G01X0106548Y-054102D03*
G01X0109048Y-060352D03*
G01X0106548Y-055352D03*
G01X0109048Y-061602D03*
G01X0106548Y-056602D03*
G01X0109048Y-062852D03*
G01X0106548Y-057852D03*
G01X0109048Y-064102D03*
G01X0106548Y-059102D03*
G01X0106548Y-060352D03*
G01X0109048Y-065352D03*
G01X0106548Y-061602D03*
G01X0106548Y-064102D03*
G01X0106548Y-065352D03*
G01X0106548Y-066602D03*
G01X0106548Y-067852D03*
G01X0109048Y-066602D03*
G01X0109048Y-067852D03*
G01X0109048Y-046602D03*
G01X0109048Y-047852D03*
G01X0109048Y-049102D03*
G01X0109048Y-050352D03*
G01X0109048Y-069102D03*
G01X0106548Y-069102D03*
G01X0106548Y-062852D03*
G01X0106548Y-070352D03*
G01X0109048Y-070352D03*
G01X0106548Y-071602D03*
G01X0109048Y-071602D03*
G01X0106548Y-072852D03*
G01X0109048Y-072852D03*
G01X0106548Y-074102D03*
G01X0109048Y-074102D03*
G01X0106548Y-075352D03*
G01X0109048Y-075352D03*
G01X0106548Y-076602D03*
G01X0109048Y-076602D03*
G01X0106548Y-077852D03*
G01X0109048Y-077852D03*
G01X0106548Y-079102D03*
G01X0109048Y-079102D03*
G01X0106548Y-080352D03*
G01X0109048Y-080352D03*
G01X0106548Y-081602D03*
G01X0109048Y-081602D03*
G01X0106548Y-082852D03*
G01X0109048Y-082852D03*
G01X0106548Y-084102D03*
G01X0109048Y-084102D03*
G01X0106548Y-085352D03*
G01X0109048Y-085352D03*
G01X0106548Y-086602D03*
G01X0109048Y-086602D03*
G01X0106548Y-087852D03*
G01X0109048Y-087852D03*
G01X0106548Y-089102D03*
G01X0109048Y-089102D03*
G01X0106548Y-090352D03*
G01X0109048Y-090352D03*
G01X0106548Y-091602D03*
G01X0109048Y-091602D03*
G01X0106548Y-092852D03*
G01X0109048Y-092852D03*
G01X0106548Y-094102D03*
G01X0109048Y-094102D03*
G01X0106548Y-095352D03*
G01X0109048Y-095352D03*
G01X0106548Y-096602D03*
G01X0109048Y-096602D03*
G01X0106548Y-097852D03*
G01X0109048Y-097852D03*
G01X0106548Y-099102D03*
G01X0109048Y-099102D03*
G01X0106548Y-100352D03*
G01X0109048Y-100352D03*
G01X0106548Y-101602D03*
G01X0109048Y-101602D03*
G01X0106548Y-102852D03*
G01X0109048Y-102852D03*
G01X0106548Y-104102D03*
G01X0109048Y-104102D03*
G01X0106548Y-105352D03*
G01X0109048Y-105352D03*
G01X0106548Y-106602D03*
G01X0109048Y-106602D03*
G54D19*
G01X0107798Y-109952D03*
G01X0107798Y-042002D03*
G54D15*
G01X0116548Y-045352D03*
G54D14*
G01X0114048Y-045352D03*
G54D15*
G01X0116548Y-051602D03*
G01X0114048Y-046602D03*
G01X0116548Y-052852D03*
G01X0114048Y-047852D03*
G01X0116548Y-054102D03*
G01X0114048Y-049102D03*
G01X0116548Y-055352D03*
G01X0114048Y-050352D03*
G01X0116548Y-056602D03*
G01X0114048Y-051602D03*
G01X0116548Y-057852D03*
G01X0114048Y-052852D03*
G01X0116548Y-059102D03*
G01X0114048Y-054102D03*
G01X0116548Y-060352D03*
G01X0114048Y-055352D03*
G01X0116548Y-061602D03*
G01X0114048Y-056602D03*
G01X0116548Y-062852D03*
G01X0114048Y-057852D03*
G01X0116548Y-064102D03*
G01X0114048Y-059102D03*
G01X0114048Y-060352D03*
G01X0116548Y-065352D03*
G01X0114048Y-061602D03*
G01X0114048Y-064102D03*
G01X0114048Y-065352D03*
G01X0114048Y-066602D03*
G01X0114048Y-067852D03*
G01X0116548Y-066602D03*
G01X0116548Y-067852D03*
G01X0116548Y-046602D03*
G01X0116548Y-047852D03*
G01X0116548Y-049102D03*
G01X0116548Y-050352D03*
G01X0116548Y-069102D03*
G01X0114048Y-069102D03*
G01X0114048Y-062852D03*
G01X0114048Y-070352D03*
G01X0116548Y-070352D03*
G01X0114048Y-071602D03*
G01X0116548Y-071602D03*
G01X0114048Y-072852D03*
G01X0116548Y-072852D03*
G01X0114048Y-074102D03*
G01X0116548Y-074102D03*
G01X0114048Y-075352D03*
G01X0116548Y-075352D03*
G01X0114048Y-076602D03*
G01X0116548Y-076602D03*
G01X0114048Y-077852D03*
G01X0116548Y-077852D03*
G01X0114048Y-079102D03*
G01X0116548Y-079102D03*
G01X0114048Y-080352D03*
G01X0116548Y-080352D03*
G01X0114048Y-081602D03*
G01X0116548Y-081602D03*
G01X0114048Y-082852D03*
G01X0116548Y-082852D03*
G01X0114048Y-084102D03*
G01X0116548Y-084102D03*
G01X0114048Y-085352D03*
G01X0116548Y-085352D03*
G01X0114048Y-086602D03*
G01X0116548Y-086602D03*
G01X0114048Y-087852D03*
G01X0116548Y-087852D03*
G01X0114048Y-089102D03*
G01X0116548Y-089102D03*
G01X0114048Y-090352D03*
G01X0116548Y-090352D03*
G01X0114048Y-091602D03*
G01X0116548Y-091602D03*
G01X0114048Y-092852D03*
G01X0116548Y-092852D03*
G01X0114048Y-094102D03*
G01X0116548Y-094102D03*
G01X0114048Y-095352D03*
G01X0116548Y-095352D03*
G01X0114048Y-096602D03*
G01X0116548Y-096602D03*
G01X0114048Y-097852D03*
G01X0116548Y-097852D03*
G01X0114048Y-099102D03*
G01X0116548Y-099102D03*
G01X0114048Y-100352D03*
G01X0116548Y-100352D03*
G01X0114048Y-101602D03*
G01X0116548Y-101602D03*
G01X0114048Y-102852D03*
G01X0116548Y-102852D03*
G01X0114048Y-104102D03*
G01X0116548Y-104102D03*
G01X0114048Y-105352D03*
G01X0116548Y-105352D03*
G01X0114048Y-106602D03*
G01X0116548Y-106602D03*
G54D19*
G01X0115298Y-109952D03*
G01X0115298Y-042002D03*
G54D15*
G01X0124048Y-045352D03*
G54D14*
G01X0121548Y-045352D03*
G54D15*
G01X0124048Y-051602D03*
G01X0121548Y-046602D03*
G01X0124048Y-052852D03*
G01X0121548Y-047852D03*
G01X0124048Y-054102D03*
G01X0121548Y-049102D03*
G01X0124048Y-055352D03*
G01X0121548Y-050352D03*
G01X0124048Y-056602D03*
G01X0121548Y-051602D03*
G01X0124048Y-057852D03*
G01X0121548Y-052852D03*
G01X0124048Y-059102D03*
G01X0121548Y-054102D03*
G01X0124048Y-060352D03*
G01X0121548Y-055352D03*
G01X0124048Y-061602D03*
G01X0121548Y-056602D03*
G01X0124048Y-062852D03*
G01X0121548Y-057852D03*
G01X0124048Y-064102D03*
G01X0121548Y-059102D03*
G01X0121548Y-060352D03*
G01X0124048Y-065352D03*
G01X0121548Y-061602D03*
G01X0121548Y-064102D03*
G01X0121548Y-065352D03*
G01X0121548Y-066602D03*
G01X0121548Y-067852D03*
G01X0124048Y-066602D03*
G01X0124048Y-067852D03*
G01X0124048Y-046602D03*
G01X0124048Y-047852D03*
G01X0124048Y-049102D03*
G01X0124048Y-050352D03*
G01X0124048Y-069102D03*
G01X0121548Y-069102D03*
G01X0121548Y-062852D03*
G01X0121548Y-070352D03*
G01X0124048Y-070352D03*
G01X0121548Y-071602D03*
G01X0124048Y-071602D03*
G01X0121548Y-072852D03*
G01X0124048Y-072852D03*
G01X0121548Y-074102D03*
G01X0124048Y-074102D03*
G01X0121548Y-075352D03*
G01X0124048Y-075352D03*
G01X0121548Y-076602D03*
G01X0124048Y-076602D03*
G01X0121548Y-077852D03*
G01X0124048Y-077852D03*
G01X0121548Y-079102D03*
G01X0124048Y-079102D03*
G01X0121548Y-080352D03*
G01X0124048Y-080352D03*
G01X0121548Y-081602D03*
G01X0124048Y-081602D03*
G01X0121548Y-082852D03*
G01X0124048Y-082852D03*
G01X0121548Y-084102D03*
G01X0124048Y-084102D03*
G01X0121548Y-085352D03*
G01X0124048Y-085352D03*
G01X0121548Y-086602D03*
G01X0124048Y-086602D03*
G01X0121548Y-087852D03*
G01X0124048Y-087852D03*
G01X0121548Y-089102D03*
G01X0124048Y-089102D03*
G01X0121548Y-090352D03*
G01X0124048Y-090352D03*
G01X0121548Y-091602D03*
G01X0124048Y-091602D03*
G01X0121548Y-092852D03*
G01X0124048Y-092852D03*
G01X0121548Y-094102D03*
G01X0124048Y-094102D03*
G01X0121548Y-095352D03*
G01X0124048Y-095352D03*
G01X0121548Y-096602D03*
G01X0124048Y-096602D03*
G01X0121548Y-097852D03*
G01X0124048Y-097852D03*
G01X0121548Y-099102D03*
G01X0124048Y-099102D03*
G01X0121548Y-100352D03*
G01X0124048Y-100352D03*
G01X0121548Y-101602D03*
G01X0124048Y-101602D03*
G01X0121548Y-102852D03*
G01X0124048Y-102852D03*
G01X0121548Y-104102D03*
G01X0124048Y-104102D03*
G01X0121548Y-105352D03*
G01X0124048Y-105352D03*
G01X0121548Y-106602D03*
G01X0124048Y-106602D03*
G54D19*
G01X0122798Y-109952D03*
G01X0122798Y-042002D03*
G54D15*
G01X0131548Y-045352D03*
G54D14*
G01X0129048Y-045352D03*
G54D15*
G01X0131548Y-051602D03*
G01X0129048Y-046602D03*
G01X0131548Y-052852D03*
G01X0129048Y-047852D03*
G01X0131548Y-054102D03*
G01X0129048Y-049102D03*
G01X0131548Y-055352D03*
G01X0129048Y-050352D03*
G01X0131548Y-056602D03*
G01X0129048Y-051602D03*
G01X0131548Y-057852D03*
G01X0129048Y-052852D03*
G01X0131548Y-059102D03*
G01X0129048Y-054102D03*
G01X0131548Y-060352D03*
G01X0129048Y-055352D03*
G01X0131548Y-061602D03*
G01X0129048Y-056602D03*
G01X0131548Y-062852D03*
G01X0129048Y-057852D03*
G01X0131548Y-064102D03*
G01X0129048Y-059102D03*
G01X0129048Y-060352D03*
G01X0131548Y-065352D03*
G01X0129048Y-061602D03*
G01X0129048Y-064102D03*
G01X0129048Y-065352D03*
G01X0129048Y-066602D03*
G01X0129048Y-067852D03*
G01X0131548Y-066602D03*
G01X0131548Y-067852D03*
G01X0131548Y-046602D03*
G01X0131548Y-047852D03*
G01X0131548Y-049102D03*
G01X0131548Y-050352D03*
G01X0131548Y-069102D03*
G01X0129048Y-069102D03*
G01X0129048Y-062852D03*
G01X0129048Y-070352D03*
G01X0131548Y-070352D03*
G01X0129048Y-071602D03*
G01X0131548Y-071602D03*
G01X0129048Y-072852D03*
G01X0131548Y-072852D03*
G01X0129048Y-074102D03*
G01X0131548Y-074102D03*
G01X0129048Y-075352D03*
G01X0131548Y-075352D03*
G01X0129048Y-076602D03*
G01X0131548Y-076602D03*
G01X0129048Y-077852D03*
G01X0131548Y-077852D03*
G01X0129048Y-079102D03*
G01X0131548Y-079102D03*
G01X0129048Y-080352D03*
G01X0131548Y-080352D03*
G01X0129048Y-081602D03*
G01X0131548Y-081602D03*
G01X0129048Y-082852D03*
G01X0131548Y-082852D03*
G01X0129048Y-084102D03*
G01X0131548Y-084102D03*
G01X0129048Y-085352D03*
G01X0131548Y-085352D03*
G01X0129048Y-086602D03*
G01X0131548Y-086602D03*
G01X0129048Y-087852D03*
G01X0131548Y-087852D03*
G01X0129048Y-089102D03*
G01X0131548Y-089102D03*
G01X0129048Y-090352D03*
G01X0131548Y-090352D03*
G01X0129048Y-091602D03*
G01X0131548Y-091602D03*
G01X0129048Y-092852D03*
G01X0131548Y-092852D03*
G01X0129048Y-094102D03*
G01X0131548Y-094102D03*
G01X0129048Y-095352D03*
G01X0131548Y-095352D03*
G01X0129048Y-096602D03*
G01X0131548Y-096602D03*
G01X0129048Y-097852D03*
G01X0131548Y-097852D03*
G01X0129048Y-099102D03*
G01X0131548Y-099102D03*
G01X0129048Y-100352D03*
G01X0131548Y-100352D03*
G01X0129048Y-101602D03*
G01X0131548Y-101602D03*
G01X0129048Y-102852D03*
G01X0131548Y-102852D03*
G01X0129048Y-104102D03*
G01X0131548Y-104102D03*
G01X0129048Y-105352D03*
G01X0131548Y-105352D03*
G01X0129048Y-106602D03*
G01X0131548Y-106602D03*
G54D19*
G01X0130298Y-109952D03*
G01X0130298Y-042002D03*
G54D15*
G01X0139048Y-045352D03*
G54D14*
G01X0136548Y-045352D03*
G54D15*
G01X0139048Y-051602D03*
G01X0136548Y-046602D03*
G01X0139048Y-052852D03*
G01X0136548Y-047852D03*
G01X0139048Y-054102D03*
G01X0136548Y-049102D03*
G01X0139048Y-055352D03*
G01X0136548Y-050352D03*
G01X0139048Y-056602D03*
G01X0136548Y-051602D03*
G01X0139048Y-057852D03*
G01X0136548Y-052852D03*
G01X0139048Y-059102D03*
G01X0136548Y-054102D03*
G01X0139048Y-060352D03*
G01X0136548Y-055352D03*
G01X0139048Y-061602D03*
G01X0136548Y-056602D03*
G01X0139048Y-062852D03*
G01X0136548Y-057852D03*
G01X0139048Y-064102D03*
G01X0136548Y-059102D03*
G01X0136548Y-060352D03*
G01X0139048Y-065352D03*
G01X0136548Y-061602D03*
G01X0136548Y-064102D03*
G01X0136548Y-065352D03*
G01X0136548Y-066602D03*
G01X0136548Y-067852D03*
G01X0139048Y-066602D03*
G01X0139048Y-067852D03*
G01X0139048Y-046602D03*
G01X0139048Y-047852D03*
G01X0139048Y-049102D03*
G01X0139048Y-050352D03*
G01X0139048Y-069102D03*
G01X0136548Y-069102D03*
G01X0136548Y-062852D03*
G01X0136548Y-070352D03*
G01X0139048Y-070352D03*
G01X0136548Y-071602D03*
G01X0139048Y-071602D03*
G01X0136548Y-072852D03*
G01X0139048Y-072852D03*
G01X0136548Y-074102D03*
G01X0139048Y-074102D03*
G01X0136548Y-075352D03*
G01X0139048Y-075352D03*
G01X0136548Y-076602D03*
G01X0139048Y-076602D03*
G01X0136548Y-077852D03*
G01X0139048Y-077852D03*
G01X0136548Y-079102D03*
G01X0139048Y-079102D03*
G01X0136548Y-080352D03*
G01X0139048Y-080352D03*
G01X0136548Y-081602D03*
G01X0139048Y-081602D03*
G01X0136548Y-082852D03*
G01X0139048Y-082852D03*
G01X0136548Y-084102D03*
G01X0139048Y-084102D03*
G01X0136548Y-085352D03*
G01X0139048Y-085352D03*
G01X0136548Y-086602D03*
G01X0139048Y-086602D03*
G01X0136548Y-087852D03*
G01X0139048Y-087852D03*
G01X0136548Y-089102D03*
G01X0139048Y-089102D03*
G01X0136548Y-090352D03*
G01X0139048Y-090352D03*
G01X0136548Y-091602D03*
G01X0139048Y-091602D03*
G01X0136548Y-092852D03*
G01X0139048Y-092852D03*
G01X0136548Y-094102D03*
G01X0139048Y-094102D03*
G01X0136548Y-095352D03*
G01X0139048Y-095352D03*
G01X0136548Y-096602D03*
G01X0139048Y-096602D03*
G01X0136548Y-097852D03*
G01X0139048Y-097852D03*
G01X0136548Y-099102D03*
G01X0139048Y-099102D03*
G01X0136548Y-100352D03*
G01X0139048Y-100352D03*
G01X0136548Y-101602D03*
G01X0139048Y-101602D03*
G01X0136548Y-102852D03*
G01X0139048Y-102852D03*
G01X0136548Y-104102D03*
G01X0139048Y-104102D03*
G01X0136548Y-105352D03*
G01X0139048Y-105352D03*
G01X0136548Y-106602D03*
G01X0139048Y-106602D03*
G54D19*
G01X0137798Y-109952D03*
G01X0137798Y-042002D03*
G54D15*
G01X0146548Y-045352D03*
G54D14*
G01X0144048Y-045352D03*
G54D15*
G01X0146548Y-051602D03*
G01X0144048Y-046602D03*
G01X0146548Y-052852D03*
G01X0144048Y-047852D03*
G01X0146548Y-054102D03*
G01X0144048Y-049102D03*
G01X0146548Y-055352D03*
G01X0144048Y-050352D03*
G01X0146548Y-056602D03*
G01X0144048Y-051602D03*
G01X0146548Y-057852D03*
G01X0144048Y-052852D03*
G01X0146548Y-059102D03*
G01X0144048Y-054102D03*
G01X0146548Y-060352D03*
G01X0144048Y-055352D03*
G01X0146548Y-061602D03*
G01X0144048Y-056602D03*
G01X0146548Y-062852D03*
G01X0144048Y-057852D03*
G01X0146548Y-064102D03*
G01X0144048Y-059102D03*
G01X0144048Y-060352D03*
G01X0146548Y-065352D03*
G01X0144048Y-061602D03*
G01X0144048Y-064102D03*
G01X0144048Y-065352D03*
G01X0144048Y-066602D03*
G01X0144048Y-067852D03*
G01X0146548Y-066602D03*
G01X0146548Y-067852D03*
G01X0146548Y-046602D03*
G01X0146548Y-047852D03*
G01X0146548Y-049102D03*
G01X0146548Y-050352D03*
G01X0146548Y-069102D03*
G01X0144048Y-069102D03*
G01X0144048Y-062852D03*
G01X0144048Y-070352D03*
G01X0146548Y-070352D03*
G01X0144048Y-071602D03*
G01X0146548Y-071602D03*
G01X0144048Y-072852D03*
G01X0146548Y-072852D03*
G01X0144048Y-074102D03*
G01X0146548Y-074102D03*
G01X0144048Y-075352D03*
G01X0146548Y-075352D03*
G01X0144048Y-076602D03*
G01X0146548Y-076602D03*
G01X0144048Y-077852D03*
G01X0146548Y-077852D03*
G01X0144048Y-079102D03*
G01X0146548Y-079102D03*
G01X0144048Y-080352D03*
G01X0146548Y-080352D03*
G01X0144048Y-081602D03*
G01X0146548Y-081602D03*
G01X0144048Y-082852D03*
G01X0146548Y-082852D03*
G01X0144048Y-084102D03*
G01X0146548Y-084102D03*
G01X0144048Y-085352D03*
G01X0146548Y-085352D03*
G01X0144048Y-086602D03*
G01X0146548Y-086602D03*
G01X0144048Y-087852D03*
G01X0146548Y-087852D03*
G01X0144048Y-089102D03*
G01X0146548Y-089102D03*
G01X0144048Y-090352D03*
G01X0146548Y-090352D03*
G01X0144048Y-091602D03*
G01X0146548Y-091602D03*
G01X0144048Y-092852D03*
G01X0146548Y-092852D03*
G01X0144048Y-094102D03*
G01X0146548Y-094102D03*
G01X0144048Y-095352D03*
G01X0146548Y-095352D03*
G01X0144048Y-096602D03*
G01X0146548Y-096602D03*
G01X0144048Y-097852D03*
G01X0146548Y-097852D03*
G01X0144048Y-099102D03*
G01X0146548Y-099102D03*
G01X0144048Y-100352D03*
G01X0146548Y-100352D03*
G01X0144048Y-101602D03*
G01X0146548Y-101602D03*
G01X0144048Y-102852D03*
G01X0146548Y-102852D03*
G01X0144048Y-104102D03*
G01X0146548Y-104102D03*
G01X0144048Y-105352D03*
G01X0146548Y-105352D03*
G01X0144048Y-106602D03*
G01X0146548Y-106602D03*
G54D19*
G01X0145298Y-109952D03*
G01X0145298Y-042002D03*
G54D15*
G01X0154048Y-045352D03*
G54D14*
G01X0151548Y-045352D03*
G54D15*
G01X0154048Y-051602D03*
G01X0151548Y-046602D03*
G01X0154048Y-052852D03*
G01X0151548Y-047852D03*
G01X0154048Y-054102D03*
G01X0151548Y-049102D03*
G01X0154048Y-055352D03*
G01X0151548Y-050352D03*
G01X0154048Y-056602D03*
G01X0151548Y-051602D03*
G01X0154048Y-057852D03*
G01X0151548Y-052852D03*
G01X0154048Y-059102D03*
G01X0151548Y-054102D03*
G01X0154048Y-060352D03*
G01X0151548Y-055352D03*
G01X0154048Y-061602D03*
G01X0151548Y-056602D03*
G01X0154048Y-062852D03*
G01X0151548Y-057852D03*
G01X0154048Y-064102D03*
G01X0151548Y-059102D03*
G01X0151548Y-060352D03*
G01X0154048Y-065352D03*
G01X0151548Y-061602D03*
G01X0151548Y-064102D03*
G01X0151548Y-065352D03*
G01X0151548Y-066602D03*
G01X0151548Y-067852D03*
G01X0154048Y-066602D03*
G01X0154048Y-067852D03*
G01X0154048Y-046602D03*
G01X0154048Y-047852D03*
G01X0154048Y-049102D03*
G01X0154048Y-050352D03*
G01X0154048Y-069102D03*
G01X0151548Y-069102D03*
G01X0151548Y-062852D03*
G01X0151548Y-070352D03*
G01X0154048Y-070352D03*
G01X0151548Y-071602D03*
G01X0154048Y-071602D03*
G01X0151548Y-072852D03*
G01X0154048Y-072852D03*
G01X0151548Y-074102D03*
G01X0154048Y-074102D03*
G01X0151548Y-075352D03*
G01X0154048Y-075352D03*
G01X0151548Y-076602D03*
G01X0154048Y-076602D03*
G01X0151548Y-077852D03*
G01X0154048Y-077852D03*
G01X0151548Y-079102D03*
G01X0154048Y-079102D03*
G01X0151548Y-080352D03*
G01X0154048Y-080352D03*
G01X0151548Y-081602D03*
G01X0154048Y-081602D03*
G01X0151548Y-082852D03*
G01X0154048Y-082852D03*
G01X0151548Y-084102D03*
G01X0154048Y-084102D03*
G01X0151548Y-085352D03*
G01X0154048Y-085352D03*
G01X0151548Y-086602D03*
G01X0154048Y-086602D03*
G01X0151548Y-087852D03*
G01X0154048Y-087852D03*
G01X0151548Y-089102D03*
G01X0154048Y-089102D03*
G01X0151548Y-090352D03*
G01X0154048Y-090352D03*
G01X0151548Y-091602D03*
G01X0154048Y-091602D03*
G01X0151548Y-092852D03*
G01X0154048Y-092852D03*
G01X0151548Y-094102D03*
G01X0154048Y-094102D03*
G01X0151548Y-095352D03*
G01X0154048Y-095352D03*
G01X0151548Y-096602D03*
G01X0154048Y-096602D03*
G01X0151548Y-097852D03*
G01X0154048Y-097852D03*
G01X0151548Y-099102D03*
G01X0154048Y-099102D03*
G01X0151548Y-100352D03*
G01X0154048Y-100352D03*
G01X0151548Y-101602D03*
G01X0154048Y-101602D03*
G01X0151548Y-102852D03*
G01X0154048Y-102852D03*
G01X0151548Y-104102D03*
G01X0154048Y-104102D03*
G01X0151548Y-105352D03*
G01X0154048Y-105352D03*
G01X0151548Y-106602D03*
G01X0154048Y-106602D03*
G54D19*
G01X0152798Y-109952D03*
G01X0152798Y-042002D03*
G54D15*
G01X0161548Y-045352D03*
G54D14*
G01X0159048Y-045352D03*
G54D15*
G01X0161548Y-051602D03*
G01X0159048Y-046602D03*
G01X0161548Y-052852D03*
G01X0159048Y-047852D03*
G01X0161548Y-054102D03*
G01X0159048Y-049102D03*
G01X0161548Y-055352D03*
G01X0159048Y-050352D03*
G01X0161548Y-056602D03*
G01X0159048Y-051602D03*
G01X0161548Y-057852D03*
G01X0159048Y-052852D03*
G01X0161548Y-059102D03*
G01X0159048Y-054102D03*
G01X0161548Y-060352D03*
G01X0159048Y-055352D03*
G01X0161548Y-061602D03*
G01X0159048Y-056602D03*
G01X0161548Y-062852D03*
G01X0159048Y-057852D03*
G01X0161548Y-064102D03*
G01X0159048Y-059102D03*
G01X0159048Y-060352D03*
G01X0161548Y-065352D03*
G01X0159048Y-061602D03*
G01X0159048Y-064102D03*
G01X0159048Y-065352D03*
G01X0159048Y-066602D03*
G01X0159048Y-067852D03*
G01X0161548Y-066602D03*
G01X0161548Y-067852D03*
G01X0161548Y-046602D03*
G01X0161548Y-047852D03*
G01X0161548Y-049102D03*
G01X0161548Y-050352D03*
G01X0161548Y-069102D03*
G01X0159048Y-069102D03*
G01X0159048Y-062852D03*
G01X0159048Y-070352D03*
G01X0161548Y-070352D03*
G01X0159048Y-071602D03*
G01X0161548Y-071602D03*
G01X0159048Y-072852D03*
G01X0161548Y-072852D03*
G01X0159048Y-074102D03*
G01X0161548Y-074102D03*
G01X0159048Y-075352D03*
G01X0161548Y-075352D03*
G01X0159048Y-076602D03*
G01X0161548Y-076602D03*
G01X0159048Y-077852D03*
G01X0161548Y-077852D03*
G01X0159048Y-079102D03*
G01X0161548Y-079102D03*
G01X0159048Y-080352D03*
G01X0161548Y-080352D03*
G01X0159048Y-081602D03*
G01X0161548Y-081602D03*
G01X0159048Y-082852D03*
G01X0161548Y-082852D03*
G01X0159048Y-084102D03*
G01X0161548Y-084102D03*
G01X0159048Y-085352D03*
G01X0161548Y-085352D03*
G01X0159048Y-086602D03*
G01X0161548Y-086602D03*
G01X0159048Y-087852D03*
G01X0161548Y-087852D03*
G01X0159048Y-089102D03*
G01X0161548Y-089102D03*
G01X0159048Y-090352D03*
G01X0161548Y-090352D03*
G01X0159048Y-091602D03*
G01X0161548Y-091602D03*
G01X0159048Y-092852D03*
G01X0161548Y-092852D03*
G01X0159048Y-094102D03*
G01X0161548Y-094102D03*
G01X0159048Y-095352D03*
G01X0161548Y-095352D03*
G01X0159048Y-096602D03*
G01X0161548Y-096602D03*
G01X0159048Y-097852D03*
G01X0161548Y-097852D03*
G01X0159048Y-099102D03*
G01X0161548Y-099102D03*
G01X0159048Y-100352D03*
G01X0161548Y-100352D03*
G01X0159048Y-101602D03*
G01X0161548Y-101602D03*
G01X0159048Y-102852D03*
G01X0161548Y-102852D03*
G01X0159048Y-104102D03*
G01X0161548Y-104102D03*
G01X0159048Y-105352D03*
G01X0161548Y-105352D03*
G01X0159048Y-106602D03*
G01X0161548Y-106602D03*
G54D19*
G01X0160298Y-109952D03*
G01X0160298Y-042002D03*
G54D15*
G01X0169048Y-045352D03*
G54D14*
G01X0166548Y-045352D03*
G54D15*
G01X0169048Y-051602D03*
G01X0166548Y-046602D03*
G01X0169048Y-052852D03*
G01X0166548Y-047852D03*
G01X0169048Y-054102D03*
G01X0166548Y-049102D03*
G01X0169048Y-055352D03*
G01X0166548Y-050352D03*
G01X0169048Y-056602D03*
G01X0166548Y-051602D03*
G01X0169048Y-057852D03*
G01X0166548Y-052852D03*
G01X0169048Y-059102D03*
G01X0166548Y-054102D03*
G01X0169048Y-060352D03*
G01X0166548Y-055352D03*
G01X0169048Y-061602D03*
G01X0166548Y-056602D03*
G01X0169048Y-062852D03*
G01X0166548Y-057852D03*
G01X0169048Y-064102D03*
G01X0166548Y-059102D03*
G01X0166548Y-060352D03*
G01X0169048Y-065352D03*
G01X0166548Y-061602D03*
G01X0166548Y-064102D03*
G01X0166548Y-065352D03*
G01X0166548Y-066602D03*
G01X0166548Y-067852D03*
G01X0169048Y-066602D03*
G01X0169048Y-067852D03*
G01X0169048Y-046602D03*
G01X0169048Y-047852D03*
G01X0169048Y-049102D03*
G01X0169048Y-050352D03*
G01X0169048Y-069102D03*
G01X0166548Y-069102D03*
G01X0166548Y-062852D03*
G01X0166548Y-070352D03*
G01X0169048Y-070352D03*
G01X0166548Y-071602D03*
G01X0169048Y-071602D03*
G01X0166548Y-072852D03*
G01X0169048Y-072852D03*
G01X0166548Y-074102D03*
G01X0169048Y-074102D03*
G01X0166548Y-075352D03*
G01X0169048Y-075352D03*
G01X0166548Y-076602D03*
G01X0169048Y-076602D03*
G01X0166548Y-077852D03*
G01X0169048Y-077852D03*
G01X0166548Y-079102D03*
G01X0169048Y-079102D03*
G01X0166548Y-080352D03*
G01X0169048Y-080352D03*
G01X0166548Y-081602D03*
G01X0169048Y-081602D03*
G01X0166548Y-082852D03*
G01X0169048Y-082852D03*
G01X0166548Y-084102D03*
G01X0169048Y-084102D03*
G01X0166548Y-085352D03*
G01X0169048Y-085352D03*
G01X0166548Y-086602D03*
G01X0169048Y-086602D03*
G01X0166548Y-087852D03*
G01X0169048Y-087852D03*
G01X0166548Y-089102D03*
G01X0169048Y-089102D03*
G01X0166548Y-090352D03*
G01X0169048Y-090352D03*
G01X0166548Y-091602D03*
G01X0169048Y-091602D03*
G01X0166548Y-092852D03*
G01X0169048Y-092852D03*
G01X0166548Y-094102D03*
G01X0169048Y-094102D03*
G01X0166548Y-095352D03*
G01X0169048Y-095352D03*
G01X0166548Y-096602D03*
G01X0169048Y-096602D03*
G01X0166548Y-097852D03*
G01X0169048Y-097852D03*
G01X0166548Y-099102D03*
G01X0169048Y-099102D03*
G01X0166548Y-100352D03*
G01X0169048Y-100352D03*
G01X0166548Y-101602D03*
G01X0169048Y-101602D03*
G01X0166548Y-102852D03*
G01X0169048Y-102852D03*
G01X0166548Y-104102D03*
G01X0169048Y-104102D03*
G01X0166548Y-105352D03*
G01X0169048Y-105352D03*
G01X0166548Y-106602D03*
G01X0169048Y-106602D03*
G54D19*
G01X0167798Y-109952D03*
G01X0167798Y-042002D03*
G54D15*
G01X0176548Y-045352D03*
G54D14*
G01X0174048Y-045352D03*
G54D15*
G01X0176548Y-051602D03*
G01X0174048Y-046602D03*
G01X0176548Y-052852D03*
G01X0174048Y-047852D03*
G01X0176548Y-054102D03*
G01X0174048Y-049102D03*
G01X0176548Y-055352D03*
G01X0174048Y-050352D03*
G01X0176548Y-056602D03*
G01X0174048Y-051602D03*
G01X0176548Y-057852D03*
G01X0174048Y-052852D03*
G01X0176548Y-059102D03*
G01X0174048Y-054102D03*
G01X0176548Y-060352D03*
G01X0174048Y-055352D03*
G01X0176548Y-061602D03*
G01X0174048Y-056602D03*
G01X0176548Y-062852D03*
G01X0174048Y-057852D03*
G01X0176548Y-064102D03*
G01X0174048Y-059102D03*
G01X0174048Y-060352D03*
G01X0176548Y-065352D03*
G01X0174048Y-061602D03*
G01X0174048Y-064102D03*
G01X0174048Y-065352D03*
G01X0174048Y-066602D03*
G01X0174048Y-067852D03*
G01X0176548Y-066602D03*
G01X0176548Y-067852D03*
G01X0176548Y-046602D03*
G01X0176548Y-047852D03*
G01X0176548Y-049102D03*
G01X0176548Y-050352D03*
G01X0176548Y-069102D03*
G01X0174048Y-069102D03*
G01X0174048Y-062852D03*
G01X0174048Y-070352D03*
G01X0176548Y-070352D03*
G01X0174048Y-071602D03*
G01X0176548Y-071602D03*
G01X0174048Y-072852D03*
G01X0176548Y-072852D03*
G01X0174048Y-074102D03*
G01X0176548Y-074102D03*
G01X0174048Y-075352D03*
G01X0176548Y-075352D03*
G01X0174048Y-076602D03*
G01X0176548Y-076602D03*
G01X0174048Y-077852D03*
G01X0176548Y-077852D03*
G01X0174048Y-079102D03*
G01X0176548Y-079102D03*
G01X0174048Y-080352D03*
G01X0176548Y-080352D03*
G01X0174048Y-081602D03*
G01X0176548Y-081602D03*
G01X0174048Y-082852D03*
G01X0176548Y-082852D03*
G01X0174048Y-084102D03*
G01X0176548Y-084102D03*
G01X0174048Y-085352D03*
G01X0176548Y-085352D03*
G01X0174048Y-086602D03*
G01X0176548Y-086602D03*
G01X0174048Y-087852D03*
G01X0176548Y-087852D03*
G01X0174048Y-089102D03*
G01X0176548Y-089102D03*
G01X0174048Y-090352D03*
G01X0176548Y-090352D03*
G01X0174048Y-091602D03*
G01X0176548Y-091602D03*
G01X0174048Y-092852D03*
G01X0176548Y-092852D03*
G01X0174048Y-094102D03*
G01X0176548Y-094102D03*
G01X0174048Y-095352D03*
G01X0176548Y-095352D03*
G01X0174048Y-096602D03*
G01X0176548Y-096602D03*
G01X0174048Y-097852D03*
G01X0176548Y-097852D03*
G01X0174048Y-099102D03*
G01X0176548Y-099102D03*
G01X0174048Y-100352D03*
G01X0176548Y-100352D03*
G01X0174048Y-101602D03*
G01X0176548Y-101602D03*
G01X0174048Y-102852D03*
G01X0176548Y-102852D03*
G01X0174048Y-104102D03*
G01X0176548Y-104102D03*
G01X0174048Y-105352D03*
G01X0176548Y-105352D03*
G01X0174048Y-106602D03*
G01X0176548Y-106602D03*
G54D19*
G01X0175298Y-109952D03*
G01X0175298Y-042002D03*
G54D15*
G01X0184048Y-045352D03*
G54D14*
G01X0181548Y-045352D03*
G54D15*
G01X0184048Y-051602D03*
G01X0181548Y-046602D03*
G01X0184048Y-052852D03*
G01X0181548Y-047852D03*
G01X0184048Y-054102D03*
G01X0181548Y-049102D03*
G01X0184048Y-055352D03*
G01X0181548Y-050352D03*
G01X0184048Y-056602D03*
G01X0181548Y-051602D03*
G01X0184048Y-057852D03*
G01X0181548Y-052852D03*
G01X0184048Y-059102D03*
G01X0181548Y-054102D03*
G01X0184048Y-060352D03*
G01X0181548Y-055352D03*
G01X0184048Y-061602D03*
G01X0181548Y-056602D03*
G01X0184048Y-062852D03*
G01X0181548Y-057852D03*
G01X0184048Y-064102D03*
G01X0181548Y-059102D03*
G01X0181548Y-060352D03*
G01X0184048Y-065352D03*
G01X0181548Y-061602D03*
G01X0181548Y-064102D03*
G01X0181548Y-065352D03*
G01X0181548Y-066602D03*
G01X0181548Y-067852D03*
G01X0184048Y-066602D03*
G01X0184048Y-067852D03*
G01X0184048Y-046602D03*
G01X0184048Y-047852D03*
G01X0184048Y-049102D03*
G01X0184048Y-050352D03*
G01X0184048Y-069102D03*
G01X0181548Y-069102D03*
G01X0181548Y-062852D03*
G01X0181548Y-070352D03*
G01X0184048Y-070352D03*
G01X0181548Y-071602D03*
G01X0184048Y-071602D03*
G01X0181548Y-072852D03*
G01X0184048Y-072852D03*
G01X0181548Y-074102D03*
G01X0184048Y-074102D03*
G01X0181548Y-075352D03*
G01X0184048Y-075352D03*
G01X0181548Y-076602D03*
G01X0184048Y-076602D03*
G01X0181548Y-077852D03*
G01X0184048Y-077852D03*
G01X0181548Y-079102D03*
G01X0184048Y-079102D03*
G01X0181548Y-080352D03*
G01X0184048Y-080352D03*
G01X0181548Y-081602D03*
G01X0184048Y-081602D03*
G01X0181548Y-082852D03*
G01X0184048Y-082852D03*
G01X0181548Y-084102D03*
G01X0184048Y-084102D03*
G01X0181548Y-085352D03*
G01X0184048Y-085352D03*
G01X0181548Y-086602D03*
G01X0184048Y-086602D03*
G01X0181548Y-087852D03*
G01X0184048Y-087852D03*
G01X0181548Y-089102D03*
G01X0184048Y-089102D03*
G01X0181548Y-090352D03*
G01X0184048Y-090352D03*
G01X0181548Y-091602D03*
G01X0184048Y-091602D03*
G01X0181548Y-092852D03*
G01X0184048Y-092852D03*
G01X0181548Y-094102D03*
G01X0184048Y-094102D03*
G01X0181548Y-095352D03*
G01X0184048Y-095352D03*
G01X0181548Y-096602D03*
G01X0184048Y-096602D03*
G01X0181548Y-097852D03*
G01X0184048Y-097852D03*
G01X0181548Y-099102D03*
G01X0184048Y-099102D03*
G01X0181548Y-100352D03*
G01X0184048Y-100352D03*
G01X0181548Y-101602D03*
G01X0184048Y-101602D03*
G01X0181548Y-102852D03*
G01X0184048Y-102852D03*
G01X0181548Y-104102D03*
G01X0184048Y-104102D03*
G01X0181548Y-105352D03*
G01X0184048Y-105352D03*
G01X0181548Y-106602D03*
G01X0184048Y-106602D03*
G54D19*
G01X0182798Y-109952D03*
G01X0182798Y-042002D03*
G54D15*
G01X0056548Y-045352D03*
G54D14*
G01X0054048Y-045352D03*
G54D15*
G01X0056548Y-051602D03*
G01X0054048Y-046602D03*
G01X0056548Y-052852D03*
G01X0054048Y-047852D03*
G01X0056548Y-054102D03*
G01X0054048Y-049102D03*
G01X0056548Y-055352D03*
G01X0054048Y-050352D03*
G01X0056548Y-056602D03*
G01X0054048Y-051602D03*
G01X0056548Y-057852D03*
G01X0054048Y-052852D03*
G01X0056548Y-059102D03*
G01X0054048Y-054102D03*
G01X0056548Y-060352D03*
G01X0054048Y-055352D03*
G01X0056548Y-061602D03*
G01X0054048Y-056602D03*
G01X0056548Y-062852D03*
G01X0054048Y-057852D03*
G01X0056548Y-064102D03*
G01X0054048Y-059102D03*
G01X0054048Y-060352D03*
G01X0056548Y-065352D03*
G01X0054048Y-061602D03*
G01X0054048Y-064102D03*
G01X0054048Y-065352D03*
G01X0054048Y-066602D03*
G01X0054048Y-067852D03*
G01X0056548Y-066602D03*
G01X0056548Y-067852D03*
G01X0056548Y-046602D03*
G01X0056548Y-047852D03*
G01X0056548Y-049102D03*
G01X0056548Y-050352D03*
G01X0056548Y-069102D03*
G01X0054048Y-069102D03*
G01X0054048Y-062852D03*
G01X0054048Y-070352D03*
G01X0056548Y-070352D03*
G01X0054048Y-071602D03*
G01X0056548Y-071602D03*
G01X0054048Y-072852D03*
G01X0056548Y-072852D03*
G01X0054048Y-074102D03*
G01X0056548Y-074102D03*
G01X0054048Y-075352D03*
G01X0056548Y-075352D03*
G01X0054048Y-076602D03*
G01X0056548Y-076602D03*
G01X0054048Y-077852D03*
G01X0056548Y-077852D03*
G01X0054048Y-079102D03*
G01X0056548Y-079102D03*
G01X0054048Y-080352D03*
G01X0056548Y-080352D03*
G01X0054048Y-081602D03*
G01X0056548Y-081602D03*
G01X0054048Y-082852D03*
G01X0056548Y-082852D03*
G01X0054048Y-084102D03*
G01X0056548Y-084102D03*
G01X0054048Y-085352D03*
G01X0056548Y-085352D03*
G01X0054048Y-086602D03*
G01X0056548Y-086602D03*
G01X0054048Y-087852D03*
G01X0056548Y-087852D03*
G01X0054048Y-089102D03*
G01X0056548Y-089102D03*
G01X0054048Y-090352D03*
G01X0056548Y-090352D03*
G01X0054048Y-091602D03*
G01X0056548Y-091602D03*
G01X0054048Y-092852D03*
G01X0056548Y-092852D03*
G01X0054048Y-094102D03*
G01X0056548Y-094102D03*
G01X0054048Y-095352D03*
G01X0056548Y-095352D03*
G01X0054048Y-096602D03*
G01X0056548Y-096602D03*
G01X0054048Y-097852D03*
G01X0056548Y-097852D03*
G01X0054048Y-099102D03*
G01X0056548Y-099102D03*
G01X0054048Y-100352D03*
G01X0056548Y-100352D03*
G01X0054048Y-101602D03*
G01X0056548Y-101602D03*
G01X0054048Y-102852D03*
G01X0056548Y-102852D03*
G01X0054048Y-104102D03*
G01X0056548Y-104102D03*
G01X0054048Y-105352D03*
G01X0056548Y-105352D03*
G01X0054048Y-106602D03*
G01X0056548Y-106602D03*
G54D19*
G01X0055298Y-109952D03*
G01X0055298Y-042002D03*
G54D11*
G01X0066550Y-042000D03*
G01X0051550Y-109929D03*
G01X0051550Y-042000D03*
G01X0066550Y-109929D03*
G01X0096550Y-042000D03*
G01X0096550Y-109929D03*
G01X0196550Y-109929D03*
G01X0196550Y-042000D03*
G54D13*
G01X0193730Y-057750D03*
G01X0196730Y-057750D03*
G54D12*
G01X0191000Y-103900D03*
G54D13*
G01X0191000Y-104900D03*
G01X0191000Y-105900D03*
G01X0191000Y-106900D03*
G01X0191000Y-107900D03*
G01X0191000Y-108900D03*
G01X0191000Y-109900D03*
G01X0194000Y-109900D03*
G01X0194000Y-108900D03*
G01X0194000Y-107900D03*
G01X0194000Y-106900D03*
G01X0194000Y-105900D03*
G01X0194000Y-104900D03*
G01X0194000Y-103900D03*
G54D12*
G01X0194950Y-098550D03*
G54D13*
G01X0191950Y-098550D03*
G54D20*
G01X0200400Y-044450D03*
G01X0200400Y-047700D03*
G01X0200400Y-050950D03*
G01X0200400Y-054200D03*
G54D15*
G01X0192094Y-080840D03*
G01X0194094Y-081840D03*
G01X0192094Y-082840D03*
G01X0064048Y-045352D03*
G54D14*
G01X0061548Y-045352D03*
G54D15*
G01X0064048Y-051602D03*
G01X0061548Y-046602D03*
G01X0064048Y-052852D03*
G01X0061548Y-047852D03*
G01X0064048Y-054102D03*
G01X0061548Y-049102D03*
G01X0064048Y-055352D03*
G01X0061548Y-050352D03*
G01X0064048Y-056602D03*
G01X0061548Y-051602D03*
G01X0064048Y-057852D03*
G01X0061548Y-052852D03*
G01X0064048Y-059102D03*
G01X0061548Y-054102D03*
G01X0064048Y-060352D03*
G01X0061548Y-055352D03*
G01X0064048Y-061602D03*
G01X0061548Y-056602D03*
G01X0064048Y-062852D03*
G01X0061548Y-057852D03*
G01X0064048Y-064102D03*
G01X0061548Y-059102D03*
G01X0061548Y-060352D03*
G01X0064048Y-065352D03*
G01X0061548Y-061602D03*
G01X0061548Y-064102D03*
G01X0061548Y-065352D03*
G01X0061548Y-066602D03*
G01X0061548Y-067852D03*
G01X0064048Y-066602D03*
G01X0064048Y-067852D03*
G01X0064048Y-046602D03*
G01X0064048Y-047852D03*
G01X0064048Y-049102D03*
G01X0064048Y-050352D03*
G01X0064048Y-069102D03*
G01X0061548Y-069102D03*
G01X0061548Y-062852D03*
G01X0061548Y-070352D03*
G01X0064048Y-070352D03*
G01X0061548Y-071602D03*
G01X0064048Y-071602D03*
G01X0061548Y-072852D03*
G01X0064048Y-072852D03*
G01X0061548Y-074102D03*
G01X0064048Y-074102D03*
G01X0061548Y-075352D03*
G01X0064048Y-075352D03*
G01X0061548Y-076602D03*
G01X0064048Y-076602D03*
G01X0061548Y-077852D03*
G01X0064048Y-077852D03*
G01X0061548Y-079102D03*
G01X0064048Y-079102D03*
G01X0061548Y-080352D03*
G01X0064048Y-080352D03*
G01X0061548Y-081602D03*
G01X0064048Y-081602D03*
G01X0061548Y-082852D03*
G01X0064048Y-082852D03*
G01X0061548Y-084102D03*
G01X0064048Y-084102D03*
G01X0061548Y-085352D03*
G01X0064048Y-085352D03*
G01X0061548Y-086602D03*
G01X0064048Y-086602D03*
G01X0061548Y-087852D03*
G01X0064048Y-087852D03*
G01X0061548Y-089102D03*
G01X0064048Y-089102D03*
G01X0061548Y-090352D03*
G01X0064048Y-090352D03*
G01X0061548Y-091602D03*
G01X0064048Y-091602D03*
G01X0061548Y-092852D03*
G01X0064048Y-092852D03*
G01X0061548Y-094102D03*
G01X0064048Y-094102D03*
G01X0061548Y-095352D03*
G01X0064048Y-095352D03*
G01X0061548Y-096602D03*
G01X0064048Y-096602D03*
G01X0061548Y-097852D03*
G01X0064048Y-097852D03*
G01X0061548Y-099102D03*
G01X0064048Y-099102D03*
G01X0061548Y-100352D03*
G01X0064048Y-100352D03*
G01X0061548Y-101602D03*
G01X0064048Y-101602D03*
G01X0061548Y-102852D03*
G01X0064048Y-102852D03*
G01X0061548Y-104102D03*
G01X0064048Y-104102D03*
G01X0061548Y-105352D03*
G01X0064048Y-105352D03*
G01X0061548Y-106602D03*
G01X0064048Y-106602D03*
G54D19*
G01X0062798Y-109952D03*
G01X0062798Y-042002D03*
G54D17*
G01X0196650Y-076950D03*
G54D18*
G01X0196650Y-074950D03*
G54D17*
G01X0196650Y-075950D03*
G54D16*
G01X0203150Y-075950D03*
G54D17*
G01X0196609Y-063490D03*
G54D18*
G01X0196609Y-061490D03*
G54D17*
G01X0196609Y-062490D03*
G54D16*
G01X0203109Y-062490D03*
G54D21*
G01X0195900Y-071200D03*
G01X0195900Y-072200D03*
G01X0195900Y-073200D03*
G54D13*
G01X0193450Y-102350D03*
G01X0191450Y-102350D03*
G54D12*
G01X0190450Y-098550D03*
G54D13*
G01X0190450Y-097550D03*
G54D11*
G01X0171550Y-109950D03*
G01X0141540Y-109920D03*
G01X0111550Y-109929D03*
G01X0081550Y-109929D03*
G01X0171550Y-042000D03*
G01X0141550Y-042000D03*
G01X0111550Y-042000D03*
G01X0081550Y-042000D03*
G54D14*
G01X0050550Y-093250D03*
G54D15*
G01X0051550Y-093250D03*
G01X0050550Y-094250D03*
G01X0051550Y-094250D03*
G01X0050550Y-095250D03*
G01X0051550Y-095250D03*
G01X0050550Y-096250D03*
G01X0051550Y-096250D03*
G01X0050550Y-097250D03*
G01X0051550Y-097250D03*
G01X0050550Y-098250D03*
G01X0051550Y-098250D03*
G01X0050550Y-099250D03*
G01X0051550Y-099250D03*
G01X0050550Y-100250D03*
G01X0051550Y-100250D03*
G01X0050550Y-101250D03*
G01X0051550Y-101250D03*
G01X0050550Y-102250D03*
G01X0051550Y-102250D03*
G01X0050550Y-103250D03*
G01X0051550Y-103250D03*
G01X0050550Y-104250D03*
G01X0051550Y-104250D03*
G01X0050550Y-105250D03*
G01X0051550Y-105250D03*
G54D14*
G01X0050550Y-078800D03*
G54D15*
G01X0051550Y-078800D03*
G01X0050550Y-079800D03*
G01X0051550Y-079800D03*
G01X0050550Y-080800D03*
G01X0051550Y-080800D03*
G01X0050550Y-081800D03*
G01X0051550Y-081800D03*
G01X0050550Y-082800D03*
G01X0051550Y-082800D03*
G01X0050550Y-083800D03*
G01X0051550Y-083800D03*
G01X0050550Y-084800D03*
G01X0051550Y-084800D03*
G01X0050550Y-085800D03*
G01X0051550Y-085800D03*
G01X0050550Y-086800D03*
G01X0051550Y-086800D03*
G01X0050550Y-087800D03*
G01X0051550Y-087800D03*
G01X0050550Y-088800D03*
G01X0051550Y-088800D03*
G01X0050550Y-089800D03*
G01X0051550Y-089800D03*
G01X0050550Y-090800D03*
G01X0051550Y-090800D03*
G54D14*
G01X0050550Y-046600D03*
G54D15*
G01X0051550Y-046600D03*
G01X0050550Y-047600D03*
G01X0051550Y-047600D03*
G01X0050550Y-048600D03*
G01X0051550Y-048600D03*
G01X0050550Y-049600D03*
G01X0051550Y-049600D03*
G01X0050550Y-050600D03*
G01X0051550Y-050600D03*
G01X0050550Y-051600D03*
G01X0051550Y-051600D03*
G01X0050550Y-052600D03*
G01X0051550Y-052600D03*
G01X0050550Y-053600D03*
G01X0051550Y-053600D03*
G01X0050550Y-054600D03*
G01X0051550Y-054600D03*
G01X0050550Y-055600D03*
G01X0051550Y-055600D03*
G01X0050550Y-056600D03*
G01X0051550Y-056600D03*
G01X0050550Y-057600D03*
G01X0051550Y-057600D03*
G01X0050550Y-058600D03*
G01X0051550Y-058600D03*
G54D14*
G01X0050550Y-061050D03*
G54D15*
G01X0051550Y-061050D03*
G01X0050550Y-062050D03*
G01X0051550Y-062050D03*
G01X0050550Y-063050D03*
G01X0051550Y-063050D03*
G01X0050550Y-064050D03*
G01X0051550Y-064050D03*
G01X0050550Y-065050D03*
G01X0051550Y-065050D03*
G01X0050550Y-066050D03*
G01X0051550Y-066050D03*
G01X0050550Y-067050D03*
G01X0051550Y-067050D03*
G01X0050550Y-068050D03*
G01X0051550Y-068050D03*
G01X0050550Y-069050D03*
G01X0051550Y-069050D03*
G01X0050550Y-070050D03*
G01X0051550Y-070050D03*
G01X0050550Y-071050D03*
G01X0051550Y-071050D03*
G01X0050550Y-072050D03*
G01X0051550Y-072050D03*
G01X0050550Y-073050D03*
G01X0051550Y-073050D03*
G54D21*
G01X0195900Y-065600D03*
G01X0195900Y-066600D03*
G01X0195900Y-067600D03*
G54D22*
G01X0195400Y-053100D03*
G01X0195400Y-052100D03*
M02*
