G04 This is an RS-274x file exported by *
G04 gerbv version 2.6.1 *
G04 More information is available about gerbv at *
G04 http://gerbv.geda-project.org/ *
G04 --End of header info--*
%MOIN*%
%FSLAX34Y34*%
%IPPOS*%
%MIA0B1*%
G04 --Define apertures--*
%ADD10C,0.0138*%
%ADD11C,0.0230*%
%ADD12C,0.0320*%
%ADD13C,0.0400*%
%ADD14C,0.0450*%
%ADD15C,0.1200*%
G04 --Start main section--*
G54D10*
G01X0008570Y0036630D03*
G01X0009670Y0030180D03*
G01X0011700Y0025220D03*
G01X0015498Y0028039D03*
G01X0016014Y0025986D03*
G01X0016014Y0031986D03*
G01X0016290Y0025224D03*
G01X0017924Y0053187D03*
G01X0018069Y0036151D03*
G01X0018554Y0022959D03*
G01X0018765Y0044430D03*
G01X0018895Y0030970D03*
G01X0019183Y0026454D03*
G01X0019550Y0029000D03*
G01X0019550Y0030015D03*
G01X0019799Y0023015D03*
G01X0019859Y0023409D03*
G01X0019861Y0034882D03*
G01X0019906Y0026399D03*
G01X0020496Y0026683D03*
G01X0021144Y0020157D03*
G01X0021560Y0022730D03*
G01X0021758Y0042824D03*
G01X0021897Y0025385D03*
G01X0022701Y0041437D03*
G01X0022836Y0025511D03*
G01X0023155Y0030005D03*
G01X0023158Y0023270D03*
G01X0023250Y0024703D03*
G01X0023271Y0041393D03*
G01X0023320Y0038770D03*
G01X0023330Y0019938D03*
G01X0023950Y0018876D03*
G01X0024035Y0024665D03*
G01X0024205Y0020170D03*
G01X0024292Y0051222D03*
G01X0024476Y0045449D03*
G01X0024938Y0019709D03*
G01X0025783Y0028091D03*
G01X0025783Y0035152D03*
G01X0025971Y0041293D03*
G01X0026030Y0024983D03*
G01X0026075Y0023017D03*
G01X0026190Y0043874D03*
G01X0026434Y0040768D03*
G01X0026771Y0034271D03*
G01X0027018Y0018539D03*
G01X0027073Y0030957D03*
G01X0027175Y0041996D03*
G01X0027522Y0043936D03*
G01X0028050Y0032151D03*
G01X0028273Y0040769D03*
G01X0028734Y0024230D03*
G01X0028780Y0036941D03*
G01X0028790Y0038720D03*
G01X0028900Y0050440D03*
G01X0028900Y0052670D03*
G01X0028920Y0033715D03*
G01X0029009Y0024230D03*
G01X0029017Y0029156D03*
G01X0029135Y0019816D03*
G01X0029149Y0030052D03*
G01X0029273Y0035837D03*
G01X0029276Y0041813D03*
G01X0029278Y0027652D03*
G01X0029395Y0046935D03*
G01X0029656Y0022684D03*
G01X0029700Y0026920D03*
G01X0029826Y0032776D03*
G01X0029949Y0027147D03*
G01X0030020Y0031852D03*
G01X0030089Y0026649D03*
G01X0030244Y0057904D03*
G01X0030315Y0027388D03*
G01X0030431Y0024201D03*
G01X0030433Y0054195D03*
G01X0030498Y0037377D03*
G01X0030643Y0034981D03*
G01X0030701Y0053980D03*
G01X0030760Y0046660D03*
G01X0030798Y0020702D03*
G01X0030870Y0037037D03*
G01X0030920Y0032465D03*
G01X0031161Y0036313D03*
G01X0031189Y0044694D03*
G01X0031227Y0033814D03*
G01X0031235Y0032795D03*
G01X0031239Y0024230D03*
G01X0031240Y0037308D03*
G01X0031274Y0049066D03*
G01X0031284Y0034551D03*
G01X0031375Y0045205D03*
G01X0031400Y0056860D03*
G01X0031504Y0049981D03*
G01X0031509Y0034274D03*
G01X0031659Y0023998D03*
G01X0031660Y0030550D03*
G01X0031709Y0034767D03*
G01X0031885Y0033085D03*
G01X0031908Y0028828D03*
G01X0031909Y0042159D03*
G01X0031972Y0033833D03*
G01X0032041Y0050194D03*
G01X0032095Y0031075D03*
G01X0032137Y0020280D03*
G01X0032211Y0048994D03*
G01X0032219Y0050423D03*
G01X0032365Y0027744D03*
G01X0032511Y0020363D03*
G01X0032752Y0023183D03*
G01X0032811Y0031076D03*
G01X0032888Y0051310D03*
G01X0032917Y0045033D03*
G01X0033022Y0034417D03*
G01X0033075Y0012688D03*
G01X0033152Y0024452D03*
G01X0033315Y0018215D03*
G01X0033431Y0050313D03*
G01X0033750Y0046930D03*
G01X0033775Y0025101D03*
G01X0033842Y0055843D03*
G01X0033889Y0037116D03*
G01X0034098Y0057757D03*
G01X0034125Y0017410D03*
G01X0034654Y0035307D03*
G01X0034826Y0046743D03*
G01X0034990Y0012750D03*
G01X0035013Y0057259D03*
G01X0035175Y0020550D03*
G01X0035213Y0010535D03*
G01X0035213Y0058304D03*
G01X0035492Y0034747D03*
G01X0035516Y0042420D03*
G01X0035579Y0010535D03*
G01X0035634Y0035799D03*
G01X0035747Y0058044D03*
G01X0035846Y0035424D03*
G01X0036062Y0029460D03*
G01X0036129Y0058271D03*
G01X0036340Y0053295D03*
G01X0036365Y0012750D03*
G01X0036642Y0039046D03*
G01X0036751Y0013069D03*
G01X0036773Y0023851D03*
G01X0037222Y0023928D03*
G01X0037687Y0032491D03*
G01X0037825Y0010636D03*
G01X0038576Y0016242D03*
G01X0038652Y0038968D03*
G01X0038763Y0057753D03*
G01X0039124Y0010641D03*
G01X0039502Y0027373D03*
G01X0039555Y0024660D03*
G01X0039564Y0031775D03*
G01X0039633Y0034894D03*
G01X0039779Y0030061D03*
G01X0039940Y0044907D03*
G01X0040084Y0058271D03*
G01X0040191Y0034650D03*
G01X0040340Y0056530D03*
G01X0040393Y0035475D03*
G01X0040423Y0010641D03*
G01X0040561Y0012162D03*
G01X0040774Y0010663D03*
G01X0040815Y0056530D03*
G01X0041005Y0024255D03*
G01X0041054Y0030465D03*
G01X0041140Y0056280D03*
G01X0041254Y0031645D03*
G01X0041813Y0042478D03*
G01X0041857Y0024116D03*
G01X0041880Y0030347D03*
G01X0042100Y0010720D03*
G01X0042150Y0031596D03*
G01X0042348Y0057199D03*
G01X0042391Y0042232D03*
G01X0042517Y0049679D03*
G01X0042616Y0048891D03*
G01X0042655Y0030175D03*
G01X0042860Y0023795D03*
G01X0042993Y0040893D03*
G01X0043154Y0038765D03*
G01X0043348Y0032294D03*
G01X0043750Y0046510D03*
G01X0043880Y0030310D03*
G01X0044007Y0048920D03*
G01X0044060Y0014415D03*
G01X0044346Y0042777D03*
G01X0044464Y0027195D03*
G01X0044635Y0015076D03*
G01X0044687Y0057519D03*
G01X0044837Y0021148D03*
G01X0044863Y0024054D03*
G01X0045053Y0026387D03*
G01X0045102Y0024284D03*
G01X0045136Y0037498D03*
G01X0045157Y0027192D03*
G01X0045295Y0048995D03*
G01X0045393Y0026389D03*
G01X0045836Y0050912D03*
G01X0045931Y0036343D03*
G01X0046046Y0021198D03*
G01X0046046Y0037498D03*
G01X0046074Y0048595D03*
G01X0046119Y0037182D03*
G01X0046130Y0043955D03*
G01X0046188Y0050287D03*
G01X0046345Y0038524D03*
G01X0046361Y0027256D03*
G01X0046368Y0028784D03*
G01X0046374Y0032706D03*
G01X0046412Y0040263D03*
G01X0046420Y0042471D03*
G01X0046478Y0048731D03*
G01X0046596Y0031966D03*
G01X0046648Y0047742D03*
G01X0046862Y0057710D03*
G01X0046868Y0026559D03*
G01X0046968Y0052835D03*
G01X0046981Y0053394D03*
G01X0047004Y0039189D03*
G01X0047181Y0028562D03*
G01X0047704Y0053392D03*
G01X0047706Y0021119D03*
G01X0047915Y0057676D03*
G01X0047962Y0042707D03*
G01X0048041Y0037226D03*
G01X0048128Y0046646D03*
G01X0048232Y0035713D03*
G01X0048344Y0044395D03*
G01X0048346Y0057510D03*
G01X0048360Y0052600D03*
G01X0048497Y0039851D03*
G01X0048498Y0047450D03*
G01X0048634Y0050058D03*
G01X0048754Y0029147D03*
G01X0048853Y0031185D03*
G01X0048911Y0014655D03*
G01X0049127Y0039872D03*
G01X0049128Y0041704D03*
G01X0049260Y0042087D03*
G01X0049294Y0042809D03*
G01X0049550Y0041559D03*
G01X0049607Y0053371D03*
G01X0049681Y0052938D03*
G01X0049856Y0020585D03*
G01X0050035Y0044730D03*
G01X0050186Y0041467D03*
G01X0050310Y0029067D03*
G01X0050589Y0043924D03*
G01X0050821Y0044155D03*
G01X0051016Y0058162D03*
G01X0051248Y0030405D03*
G01X0051465Y0018060D03*
G01X0051483Y0055987D03*
G01X0051592Y0039544D03*
G01X0051736Y0052647D03*
G01X0051862Y0028781D03*
G01X0051941Y0037993D03*
G01X0052522Y0041298D03*
G01X0052548Y0019212D03*
G01X0053081Y0032029D03*
G01X0053241Y0028690D03*
G01X0053539Y0058304D03*
G01X0053670Y0018025D03*
G01X0053776Y0057563D03*
G01X0054670Y0026355D03*
G01X0054864Y0057374D03*
G01X0055064Y0035064D03*
G01X0055825Y0057829D03*
G01X0055883Y0035400D03*
G01X0056126Y0058303D03*
G01X0056176Y0057943D03*
G01X0056195Y0026580D03*
G01X0056393Y0035618D03*
G01X0056410Y0024160D03*
G01X0056623Y0016021D03*
G01X0056831Y0029263D03*
G01X0057106Y0027417D03*
G01X0057126Y0036253D03*
G01X0057194Y0033359D03*
G01X0057256Y0032252D03*
G01X0057346Y0044058D03*
G01X0057354Y0015711D03*
G01X0057527Y0052882D03*
G01X0057679Y0048329D03*
G01X0057689Y0026867D03*
G01X0057820Y0015847D03*
G01X0057928Y0025473D03*
G01X0058212Y0041413D03*
G01X0058276Y0020183D03*
G01X0058568Y0033721D03*
G01X0058655Y0047960D03*
G01X0058658Y0014810D03*
G01X0058867Y0019761D03*
G01X0059471Y0045057D03*
G01X0059675Y0024170D03*
G01X0059753Y0057531D03*
G01X0059791Y0022788D03*
G01X0060051Y0021519D03*
G01X0060120Y0033000D03*
G01X0060395Y0039830D03*
G01X0060571Y0052640D03*
G01X0060711Y0044570D03*
G01X0060723Y0052402D03*
G01X0060820Y0035350D03*
G01X0061044Y0058304D03*
G01X0061180Y0043100D03*
G01X0061270Y0014481D03*
G01X0061388Y0049372D03*
G01X0061423Y0022274D03*
G01X0061438Y0043696D03*
G01X0061899Y0045044D03*
G01X0061928Y0041236D03*
G01X0062068Y0043006D03*
G01X0062155Y0037947D03*
G01X0062160Y0057650D03*
G01X0062456Y0026154D03*
G01X0062459Y0025249D03*
G01X0062557Y0050050D03*
G01X0062906Y0026950D03*
G01X0062976Y0038833D03*
G01X0063167Y0031785D03*
G01X0063316Y0055534D03*
G01X0063554Y0043819D03*
G01X0063800Y0050344D03*
G01X0063807Y0017424D03*
G01X0064000Y0016615D03*
G01X0064022Y0017245D03*
G01X0064040Y0041181D03*
G01X0064140Y0014610D03*
G01X0064140Y0022858D03*
G01X0064335Y0017278D03*
G01X0064357Y0044141D03*
G01X0064477Y0030169D03*
G01X0064674Y0035409D03*
G01X0065070Y0019915D03*
G01X0065830Y0012689D03*
G01X0065894Y0024502D03*
G01X0065904Y0057931D03*
G01X0066381Y0039346D03*
G01X0066524Y0045533D03*
G01X0066872Y0028573D03*
G01X0067041Y0039166D03*
G01X0067128Y0035983D03*
G01X0067159Y0043907D03*
G01X0067352Y0039063D03*
G01X0067683Y0044112D03*
G01X0067887Y0018950D03*
G01X0067950Y0021000D03*
G01X0068043Y0041016D03*
G01X0068197Y0032814D03*
G01X0068248Y0032384D03*
G01X0068365Y0030350D03*
G01X0068438Y0044124D03*
G01X0068693Y0043643D03*
G01X0068830Y0047570D03*
G01X0068863Y0051235D03*
G01X0068883Y0057024D03*
G01X0069005Y0057619D03*
G01X0069056Y0057287D03*
G01X0069200Y0035006D03*
G01X0069589Y0043676D03*
G01X0069885Y0016610D03*
G01X0069889Y0057745D03*
G01X0069904Y0047748D03*
G01X0070049Y0042376D03*
G01X0070067Y0030275D03*
G01X0070102Y0038634D03*
G01X0070417Y0041413D03*
G01X0070448Y0042043D03*
G01X0070963Y0056885D03*
G01X0071062Y0039878D03*
G01X0071224Y0011338D03*
G01X0071344Y0039964D03*
G01X0071357Y0027190D03*
G01X0071375Y0016600D03*
G01X0071422Y0028269D03*
G01X0071431Y0031648D03*
G01X0071441Y0019198D03*
G01X0071583Y0043263D03*
G01X0071618Y0041918D03*
G01X0071623Y0045338D03*
G01X0071823Y0030533D03*
G01X0071838Y0030852D03*
G01X0071861Y0018231D03*
G01X0071968Y0026370D03*
G01X0072054Y0036641D03*
G01X0072113Y0040783D03*
G01X0072176Y0043093D03*
G01X0072307Y0017034D03*
G01X0072411Y0047337D03*
G01X0072744Y0037737D03*
G01X0072746Y0017531D03*
G01X0072911Y0044841D03*
G01X0072961Y0036060D03*
G01X0073309Y0040841D03*
G01X0073709Y0030945D03*
G01X0073770Y0016600D03*
G01X0074152Y0046409D03*
G01X0074579Y0052500D03*
G01X0074809Y0035340D03*
G01X0075009Y0012581D03*
G01X0075035Y0020805D03*
G01X0075311Y0057706D03*
G01X0075373Y0036746D03*
G01X0075446Y0044900D03*
G01X0075673Y0040518D03*
G01X0075766Y0036283D03*
G01X0075775Y0051008D03*
G01X0075988Y0028524D03*
G01X0076015Y0021805D03*
G01X0076038Y0049525D03*
G01X0076083Y0048735D03*
G01X0076099Y0045558D03*
G01X0076124Y0036247D03*
G01X0076277Y0046385D03*
G01X0076319Y0047175D03*
G01X0076506Y0028340D03*
G01X0076595Y0047131D03*
G01X0076982Y0045556D03*
G01X0077080Y0049396D03*
G01X0077505Y0019545D03*
G01X0077517Y0056676D03*
G01X0077556Y0031903D03*
G01X0077639Y0026514D03*
G01X0077688Y0046903D03*
G01X0077732Y0056159D03*
G01X0077850Y0030115D03*
G01X0077876Y0030598D03*
G01X0077940Y0036192D03*
G01X0077950Y0051051D03*
G01X0077963Y0056728D03*
G01X0078035Y0046923D03*
G01X0078040Y0016690D03*
G01X0078220Y0028383D03*
G01X0078317Y0056402D03*
G01X0078469Y0027097D03*
G01X0078666Y0057050D03*
G01X0078942Y0057048D03*
G01X0079080Y0051362D03*
G01X0079107Y0044966D03*
G01X0079168Y0058066D03*
G01X0079411Y0038397D03*
G01X0079461Y0035959D03*
G01X0079546Y0057940D03*
G01X0080052Y0036109D03*
G01X0080259Y0053344D03*
G01X0080280Y0046853D03*
G01X0080519Y0041057D03*
G01X0080720Y0019270D03*
G01X0081000Y0040729D03*
G01X0081196Y0058312D03*
G01X0081307Y0024470D03*
G01X0081669Y0048110D03*
G01X0081751Y0040969D03*
G01X0081804Y0049650D03*
G01X0081926Y0029302D03*
G01X0081929Y0052745D03*
G01X0082087Y0021300D03*
G01X0082125Y0020020D03*
G01X0082277Y0026056D03*
G01X0082463Y0050069D03*
G01X0082561Y0036109D03*
G01X0082702Y0018474D03*
G01X0082841Y0014189D03*
G01X0082957Y0048110D03*
G01X0083033Y0022996D03*
G01X0083250Y0050464D03*
G01X0083341Y0044137D03*
G01X0083478Y0032972D03*
G01X0083947Y0022913D03*
G01X0084015Y0018920D03*
G01X0084044Y0020935D03*
G01X0084120Y0017632D03*
G01X0084126Y0020416D03*
G01X0084181Y0016423D03*
G01X0084535Y0018430D03*
G01X0084680Y0012870D03*
G01X0084824Y0020643D03*
G01X0084863Y0013265D03*
G01X0085030Y0050507D03*
G01X0085085Y0041568D03*
G01X0085161Y0013717D03*
G01X0085172Y0023602D03*
G01X0085290Y0058124D03*
G01X0085424Y0015588D03*
G01X0085513Y0021961D03*
G01X0085684Y0037508D03*
G01X0085786Y0047093D03*
G01X0086025Y0019920D03*
G01X0086887Y0048137D03*
G01X0087115Y0045517D03*
G01X0087986Y0031777D03*
G01X0088081Y0032907D03*
G01X0088544Y0034555D03*
G01X0088656Y0056437D03*
G01X0088735Y0033718D03*
G01X0088888Y0048028D03*
G01X0089010Y0018970D03*
G01X0089036Y0048590D03*
G01X0089530Y0028150D03*
G01X0089630Y0053030D03*
G01X0089713Y0035017D03*
G01X0089839Y0026138D03*
G01X0089850Y0015300D03*
G01X0089910Y0038500D03*
G01X0090440Y0034057D03*
G01X0090670Y0040866D03*
G01X0090682Y0019247D03*
G01X0091140Y0013970D03*
G01X0091198Y0024956D03*
G01X0091375Y0038685D03*
G01X0091907Y0027560D03*
G01X0092144Y0047090D03*
G01X0092175Y0042491D03*
G01X0092217Y0012893D03*
G01X0092295Y0051425D03*
G01X0092693Y0023140D03*
G01X0092696Y0037096D03*
G01X0092809Y0030823D03*
G01X0093078Y0023963D03*
G01X0093498Y0038984D03*
G01X0093545Y0012227D03*
G01X0093675Y0040875D03*
G01X0093876Y0023785D03*
G01X0093940Y0044630D03*
G01X0094400Y0044485D03*
G01X0094946Y0046398D03*
G01X0095126Y0030288D03*
G01X0095255Y0045205D03*
G01X0095610Y0044400D03*
G01X0095615Y0048093D03*
G01X0096740Y0044550D03*
G01X0097390Y0023210D03*
G01X0097972Y0042160D03*
G01X0099061Y0041435D03*
G01X0100555Y0047885D03*
G01X0101480Y0047885D03*
G01X0102397Y0044429D03*
G54D11*
G01X0013660Y0033550D03*
G01X0026070Y0031502D03*
G01X0033214Y0023683D03*
G01X0069560Y0019670D03*
G01X0084550Y0058500D03*
G01X0086014Y0016859D03*
G01X0091511Y0031774D03*
G54D12*
G01X0008500Y0044400D03*
G01X0008600Y0013500D03*
G01X0008600Y0015500D03*
G01X0008600Y0019500D03*
G01X0008600Y0021500D03*
G01X0008600Y0040500D03*
G01X0008600Y0042500D03*
G01X0009500Y0044400D03*
G01X0010000Y0045900D03*
G01X0010000Y0048900D03*
G01X0010500Y0044400D03*
G01X0010550Y0013050D03*
G01X0010550Y0016050D03*
G01X0010550Y0019000D03*
G01X0010550Y0022000D03*
G01X0010600Y0040000D03*
G01X0010600Y0043000D03*
G01X0011000Y0045900D03*
G01X0011000Y0048900D03*
G01X0011500Y0044400D03*
G01X0011550Y0013050D03*
G01X0011550Y0016050D03*
G01X0011550Y0019000D03*
G01X0011550Y0022000D03*
G01X0011600Y0040000D03*
G01X0011600Y0043000D03*
G01X0012000Y0045900D03*
G01X0012000Y0048900D03*
G01X0012500Y0044400D03*
G01X0012550Y0013050D03*
G01X0012550Y0016050D03*
G01X0012550Y0019000D03*
G01X0012550Y0022000D03*
G01X0012600Y0040000D03*
G01X0012600Y0043000D03*
G01X0013000Y0045900D03*
G01X0013000Y0048900D03*
G01X0013500Y0044400D03*
G01X0013550Y0013050D03*
G01X0013550Y0016050D03*
G01X0013550Y0019000D03*
G01X0013550Y0022000D03*
G01X0013600Y0040000D03*
G01X0013600Y0043000D03*
G01X0014000Y0045900D03*
G01X0014000Y0048900D03*
G01X0014280Y0031095D03*
G01X0014280Y0033095D03*
G01X0014500Y0044400D03*
G01X0014550Y0013050D03*
G01X0014550Y0016050D03*
G01X0014550Y0019000D03*
G01X0014550Y0022000D03*
G01X0014600Y0040000D03*
G01X0014600Y0043000D03*
G01X0015000Y0045900D03*
G01X0015000Y0048900D03*
G01X0015500Y0044400D03*
G01X0015550Y0013050D03*
G01X0015550Y0016050D03*
G01X0015550Y0019000D03*
G01X0015550Y0022000D03*
G01X0015600Y0040000D03*
G01X0015600Y0043000D03*
G01X0016000Y0045900D03*
G01X0016000Y0048900D03*
G01X0016500Y0044400D03*
G01X0016550Y0013050D03*
G01X0016550Y0016050D03*
G01X0016550Y0019000D03*
G01X0016550Y0022000D03*
G01X0016550Y0026050D03*
G01X0016550Y0027050D03*
G01X0016550Y0028050D03*
G01X0016550Y0029050D03*
G01X0016550Y0030050D03*
G01X0016550Y0031050D03*
G01X0016550Y0032050D03*
G01X0016550Y0033050D03*
G01X0016550Y0034050D03*
G01X0016550Y0035050D03*
G01X0016550Y0036050D03*
G01X0016600Y0040000D03*
G01X0016600Y0043000D03*
G01X0017000Y0045900D03*
G01X0017000Y0048900D03*
G01X0017150Y0050850D03*
G01X0017150Y0051850D03*
G01X0017500Y0044400D03*
G01X0017550Y0019000D03*
G01X0017550Y0022000D03*
G01X0017550Y0025050D03*
G01X0017550Y0026050D03*
G01X0017550Y0027050D03*
G01X0017550Y0028050D03*
G01X0017550Y0029050D03*
G01X0017550Y0030050D03*
G01X0017550Y0031050D03*
G01X0017550Y0032050D03*
G01X0017550Y0033050D03*
G01X0017550Y0034050D03*
G01X0017550Y0035050D03*
G01X0017550Y0036050D03*
G01X0017550Y0037050D03*
G01X0017600Y0040000D03*
G01X0017600Y0043000D03*
G01X0018250Y0056950D03*
G01X0018550Y0025050D03*
G01X0018550Y0026050D03*
G01X0018550Y0036050D03*
G01X0018550Y0037050D03*
G01X0019150Y0050700D03*
G01X0019250Y0056950D03*
G01X0019550Y0025050D03*
G01X0019550Y0026050D03*
G01X0019550Y0036050D03*
G01X0019550Y0037050D03*
G01X0020150Y0050700D03*
G01X0020400Y0013400D03*
G01X0020400Y0015400D03*
G01X0020400Y0019500D03*
G01X0020400Y0021500D03*
G01X0020400Y0040500D03*
G01X0020400Y0042500D03*
G01X0020400Y0044450D03*
G01X0020550Y0025050D03*
G01X0020550Y0026050D03*
G01X0020550Y0036050D03*
G01X0020550Y0037050D03*
G01X0020650Y0052500D03*
G01X0020650Y0054500D03*
G01X0021400Y0044450D03*
G01X0021550Y0025050D03*
G01X0021550Y0026050D03*
G01X0021550Y0036050D03*
G01X0021550Y0037050D03*
G01X0021900Y0045900D03*
G01X0021900Y0048900D03*
G01X0022400Y0044450D03*
G01X0022400Y0052000D03*
G01X0022400Y0055000D03*
G01X0022450Y0013050D03*
G01X0022450Y0016050D03*
G01X0022450Y0019050D03*
G01X0022450Y0022050D03*
G01X0022500Y0040050D03*
G01X0022500Y0043050D03*
G01X0022550Y0025050D03*
G01X0022550Y0026050D03*
G01X0022550Y0036050D03*
G01X0022550Y0037050D03*
G01X0022900Y0045900D03*
G01X0022900Y0048900D03*
G01X0023400Y0044450D03*
G01X0023400Y0052000D03*
G01X0023400Y0055000D03*
G01X0023450Y0013050D03*
G01X0023450Y0016050D03*
G01X0023450Y0019050D03*
G01X0023450Y0022050D03*
G01X0023500Y0040050D03*
G01X0023500Y0043050D03*
G01X0023550Y0025050D03*
G01X0023550Y0026050D03*
G01X0023550Y0036050D03*
G01X0023550Y0037050D03*
G01X0023900Y0045900D03*
G01X0023900Y0048900D03*
G01X0024400Y0044450D03*
G01X0024400Y0052000D03*
G01X0024400Y0055000D03*
G01X0024450Y0013050D03*
G01X0024450Y0016050D03*
G01X0024450Y0019050D03*
G01X0024450Y0022050D03*
G01X0024500Y0040050D03*
G01X0024500Y0043050D03*
G01X0024550Y0025050D03*
G01X0024550Y0026050D03*
G01X0024550Y0036050D03*
G01X0024550Y0037050D03*
G01X0024900Y0045900D03*
G01X0024900Y0048900D03*
G01X0025400Y0044450D03*
G01X0025400Y0052000D03*
G01X0025400Y0055000D03*
G01X0025450Y0013050D03*
G01X0025450Y0016050D03*
G01X0025450Y0019050D03*
G01X0025450Y0022050D03*
G01X0025500Y0040050D03*
G01X0025500Y0043050D03*
G01X0025550Y0025050D03*
G01X0025550Y0026050D03*
G01X0025550Y0036050D03*
G01X0025550Y0037050D03*
G01X0025900Y0045900D03*
G01X0025900Y0048900D03*
G01X0026400Y0044450D03*
G01X0026400Y0052000D03*
G01X0026400Y0055000D03*
G01X0026450Y0013050D03*
G01X0026450Y0016050D03*
G01X0026450Y0019050D03*
G01X0026450Y0022050D03*
G01X0026500Y0040050D03*
G01X0026500Y0043050D03*
G01X0026550Y0025050D03*
G01X0026550Y0026050D03*
G01X0026550Y0036050D03*
G01X0026550Y0037050D03*
G01X0026900Y0045900D03*
G01X0026900Y0048900D03*
G01X0027400Y0044450D03*
G01X0027400Y0052000D03*
G01X0027400Y0055000D03*
G01X0027450Y0013050D03*
G01X0027450Y0016050D03*
G01X0027450Y0019050D03*
G01X0027450Y0022050D03*
G01X0027500Y0040050D03*
G01X0027500Y0043050D03*
G01X0027550Y0025050D03*
G01X0027550Y0026050D03*
G01X0027550Y0027050D03*
G01X0027550Y0028050D03*
G01X0027550Y0029050D03*
G01X0027550Y0030050D03*
G01X0027550Y0031050D03*
G01X0027550Y0032050D03*
G01X0027550Y0033050D03*
G01X0027550Y0034050D03*
G01X0027550Y0035050D03*
G01X0027550Y0036050D03*
G01X0027550Y0037050D03*
G01X0027900Y0045900D03*
G01X0027900Y0048900D03*
G01X0028400Y0044450D03*
G01X0028400Y0052000D03*
G01X0028400Y0055000D03*
G01X0028450Y0013050D03*
G01X0028450Y0016050D03*
G01X0028450Y0019050D03*
G01X0028450Y0022050D03*
G01X0028500Y0040050D03*
G01X0028500Y0043050D03*
G01X0028550Y0026050D03*
G01X0028550Y0027050D03*
G01X0028550Y0028050D03*
G01X0028550Y0029050D03*
G01X0028550Y0030050D03*
G01X0028550Y0031050D03*
G01X0028550Y0032050D03*
G01X0028550Y0033050D03*
G01X0028550Y0034050D03*
G01X0028550Y0035050D03*
G01X0028550Y0036050D03*
G01X0028900Y0045900D03*
G01X0028900Y0048900D03*
G01X0029400Y0044450D03*
G01X0029400Y0052000D03*
G01X0029400Y0055000D03*
G01X0029450Y0013050D03*
G01X0029450Y0016050D03*
G01X0029450Y0019050D03*
G01X0029450Y0022050D03*
G01X0029500Y0040050D03*
G01X0029500Y0043050D03*
G01X0030400Y0052000D03*
G01X0030400Y0055000D03*
G01X0030600Y0028950D03*
G01X0030600Y0030950D03*
G01X0031400Y0052000D03*
G01X0031400Y0055000D03*
G01X0033500Y0028500D03*
G01X0033500Y0030500D03*
G01X0033500Y0034500D03*
G01X0033500Y0036500D03*
G01X0033500Y0040500D03*
G01X0033500Y0042500D03*
G01X0033500Y0044450D03*
G01X0033500Y0052500D03*
G01X0033500Y0054500D03*
G01X0034000Y0050500D03*
G01X0034500Y0044450D03*
G01X0035000Y0045900D03*
G01X0035000Y0048900D03*
G01X0035000Y0050500D03*
G01X0035500Y0028050D03*
G01X0035500Y0031050D03*
G01X0035500Y0034050D03*
G01X0035500Y0037050D03*
G01X0035500Y0040050D03*
G01X0035500Y0043050D03*
G01X0035500Y0044450D03*
G01X0035500Y0052000D03*
G01X0035500Y0055000D03*
G01X0036000Y0045900D03*
G01X0036000Y0048900D03*
G01X0036000Y0050500D03*
G01X0036500Y0028050D03*
G01X0036500Y0031050D03*
G01X0036500Y0034050D03*
G01X0036500Y0037050D03*
G01X0036500Y0040050D03*
G01X0036500Y0043050D03*
G01X0036500Y0044450D03*
G01X0036500Y0052000D03*
G01X0036500Y0055000D03*
G01X0037000Y0045900D03*
G01X0037000Y0048900D03*
G01X0037000Y0050500D03*
G01X0037500Y0028050D03*
G01X0037500Y0031050D03*
G01X0037500Y0034050D03*
G01X0037500Y0037050D03*
G01X0037500Y0040050D03*
G01X0037500Y0043050D03*
G01X0037500Y0044450D03*
G01X0037500Y0052000D03*
G01X0037500Y0055000D03*
G01X0037600Y0018200D03*
G01X0037600Y0020200D03*
G01X0038000Y0045900D03*
G01X0038000Y0048900D03*
G01X0038000Y0050500D03*
G01X0038500Y0028050D03*
G01X0038500Y0031050D03*
G01X0038500Y0034050D03*
G01X0038500Y0037050D03*
G01X0038500Y0040050D03*
G01X0038500Y0043050D03*
G01X0038500Y0044450D03*
G01X0038500Y0052000D03*
G01X0038500Y0055000D03*
G01X0039000Y0045900D03*
G01X0039000Y0048900D03*
G01X0039000Y0050500D03*
G01X0039050Y0016100D03*
G01X0039050Y0022100D03*
G01X0039500Y0028050D03*
G01X0039500Y0031050D03*
G01X0039500Y0034050D03*
G01X0039500Y0037050D03*
G01X0039500Y0040050D03*
G01X0039500Y0043050D03*
G01X0039500Y0044450D03*
G01X0039500Y0052000D03*
G01X0039500Y0055000D03*
G01X0040000Y0045900D03*
G01X0040000Y0048900D03*
G01X0040000Y0050500D03*
G01X0040050Y0016100D03*
G01X0040050Y0022100D03*
G01X0040500Y0028050D03*
G01X0040500Y0031050D03*
G01X0040500Y0034050D03*
G01X0040500Y0037050D03*
G01X0040500Y0040050D03*
G01X0040500Y0043050D03*
G01X0040500Y0044450D03*
G01X0040500Y0052000D03*
G01X0040500Y0055000D03*
G01X0041000Y0045900D03*
G01X0041000Y0048900D03*
G01X0041000Y0050500D03*
G01X0041050Y0016100D03*
G01X0041050Y0022100D03*
G01X0041500Y0028050D03*
G01X0041500Y0031050D03*
G01X0041500Y0034050D03*
G01X0041500Y0037050D03*
G01X0041500Y0040050D03*
G01X0041500Y0043050D03*
G01X0041500Y0044450D03*
G01X0041500Y0052000D03*
G01X0041500Y0055000D03*
G01X0042000Y0045900D03*
G01X0042000Y0048900D03*
G01X0042000Y0050500D03*
G01X0042050Y0016100D03*
G01X0042050Y0022100D03*
G01X0042500Y0028050D03*
G01X0042500Y0031050D03*
G01X0042500Y0034050D03*
G01X0042500Y0037050D03*
G01X0042500Y0040050D03*
G01X0042500Y0043050D03*
G01X0042500Y0044450D03*
G01X0042500Y0052000D03*
G01X0042500Y0055000D03*
G01X0043000Y0050500D03*
G01X0043050Y0016100D03*
G01X0043050Y0022100D03*
G01X0043500Y0028050D03*
G01X0043500Y0031050D03*
G01X0043500Y0052000D03*
G01X0043500Y0055000D03*
G01X0044050Y0016100D03*
G01X0044050Y0022100D03*
G01X0044500Y0028050D03*
G01X0044500Y0031050D03*
G01X0044500Y0052000D03*
G01X0044500Y0055000D03*
G01X0045050Y0016100D03*
G01X0045050Y0022100D03*
G01X0046050Y0016100D03*
G01X0046050Y0022100D03*
G01X0047050Y0016100D03*
G01X0047050Y0022100D03*
G01X0048000Y0028500D03*
G01X0048000Y0030500D03*
G01X0048000Y0034500D03*
G01X0048000Y0036500D03*
G01X0048050Y0016100D03*
G01X0048050Y0022100D03*
G01X0048400Y0040500D03*
G01X0048400Y0042500D03*
G01X0048700Y0032600D03*
G01X0049050Y0016100D03*
G01X0049050Y0022100D03*
G01X0049200Y0046500D03*
G01X0049200Y0048500D03*
G01X0049200Y0052500D03*
G01X0049200Y0054500D03*
G01X0049700Y0032600D03*
G01X0050000Y0034000D03*
G01X0050000Y0037000D03*
G01X0050000Y0040100D03*
G01X0050000Y0043100D03*
G01X0050050Y0016100D03*
G01X0050050Y0022100D03*
G01X0050100Y0028050D03*
G01X0050100Y0031050D03*
G01X0050700Y0032600D03*
G01X0050800Y0052000D03*
G01X0050800Y0055000D03*
G01X0050850Y0046000D03*
G01X0050850Y0049000D03*
G01X0051000Y0034000D03*
G01X0051000Y0037000D03*
G01X0051000Y0040100D03*
G01X0051000Y0043100D03*
G01X0051100Y0028050D03*
G01X0051100Y0031050D03*
G01X0051700Y0032600D03*
G01X0051800Y0052000D03*
G01X0051800Y0055000D03*
G01X0051850Y0046000D03*
G01X0051850Y0049000D03*
G01X0052000Y0034000D03*
G01X0052000Y0037000D03*
G01X0052000Y0040100D03*
G01X0052000Y0043100D03*
G01X0052100Y0028050D03*
G01X0052100Y0031050D03*
G01X0052700Y0032600D03*
G01X0052800Y0052000D03*
G01X0052800Y0055000D03*
G01X0052850Y0046000D03*
G01X0052850Y0049000D03*
G01X0053000Y0034000D03*
G01X0053000Y0037000D03*
G01X0053000Y0040100D03*
G01X0053000Y0043100D03*
G01X0053100Y0028050D03*
G01X0053100Y0031050D03*
G01X0053700Y0032600D03*
G01X0053800Y0052000D03*
G01X0053800Y0055000D03*
G01X0053850Y0046000D03*
G01X0053850Y0049000D03*
G01X0054000Y0034000D03*
G01X0054000Y0037000D03*
G01X0054000Y0040100D03*
G01X0054000Y0043100D03*
G01X0054100Y0028050D03*
G01X0054100Y0031050D03*
G01X0054700Y0032600D03*
G01X0054800Y0052000D03*
G01X0054800Y0055000D03*
G01X0054850Y0046000D03*
G01X0054850Y0049000D03*
G01X0055000Y0034000D03*
G01X0055000Y0037000D03*
G01X0055000Y0040100D03*
G01X0055000Y0043100D03*
G01X0055100Y0028050D03*
G01X0055100Y0031050D03*
G01X0055700Y0032600D03*
G01X0055800Y0052000D03*
G01X0055800Y0055000D03*
G01X0055850Y0046000D03*
G01X0055850Y0049000D03*
G01X0056000Y0034000D03*
G01X0056000Y0037000D03*
G01X0056000Y0040100D03*
G01X0056000Y0043100D03*
G01X0056100Y0028050D03*
G01X0056100Y0031050D03*
G01X0056700Y0032600D03*
G01X0056800Y0052000D03*
G01X0056800Y0055000D03*
G01X0056850Y0046000D03*
G01X0056850Y0049000D03*
G01X0057000Y0040100D03*
G01X0057000Y0043100D03*
G01X0057700Y0032600D03*
G01X0057800Y0052000D03*
G01X0057800Y0055000D03*
G01X0057850Y0046000D03*
G01X0057850Y0049000D03*
G01X0057900Y0034450D03*
G01X0057900Y0035450D03*
G01X0057900Y0036450D03*
G01X0057950Y0028500D03*
G01X0057950Y0029500D03*
G01X0057950Y0030500D03*
G01X0058000Y0040100D03*
G01X0058000Y0043100D03*
G01X0058800Y0052000D03*
G01X0058800Y0055000D03*
G01X0059000Y0040100D03*
G01X0059000Y0043100D03*
G01X0059200Y0028200D03*
G01X0059200Y0031200D03*
G01X0059350Y0012050D03*
G01X0059350Y0018050D03*
G01X0059800Y0052000D03*
G01X0059800Y0055000D03*
G01X0060350Y0012050D03*
G01X0060350Y0018050D03*
G01X0061350Y0012050D03*
G01X0061350Y0018050D03*
G01X0062350Y0012050D03*
G01X0062350Y0018050D03*
G01X0062500Y0022500D03*
G01X0062500Y0024500D03*
G01X0062500Y0028500D03*
G01X0062500Y0030500D03*
G01X0062500Y0034500D03*
G01X0062500Y0036500D03*
G01X0062500Y0040500D03*
G01X0062500Y0042500D03*
G01X0062500Y0046500D03*
G01X0062500Y0048500D03*
G01X0062900Y0052500D03*
G01X0062900Y0054500D03*
G01X0063350Y0012050D03*
G01X0063350Y0018050D03*
G01X0064100Y0046050D03*
G01X0064100Y0049050D03*
G01X0064350Y0012050D03*
G01X0064350Y0018050D03*
G01X0064450Y0028000D03*
G01X0064450Y0031000D03*
G01X0064500Y0022000D03*
G01X0064500Y0025000D03*
G01X0064500Y0034000D03*
G01X0064500Y0037000D03*
G01X0064500Y0040000D03*
G01X0064500Y0043000D03*
G01X0064500Y0052000D03*
G01X0064500Y0055000D03*
G01X0065100Y0046050D03*
G01X0065100Y0049050D03*
G01X0065350Y0012050D03*
G01X0065350Y0018050D03*
G01X0065450Y0028000D03*
G01X0065450Y0031000D03*
G01X0065500Y0022000D03*
G01X0065500Y0025000D03*
G01X0065500Y0034000D03*
G01X0065500Y0037000D03*
G01X0065500Y0040000D03*
G01X0065500Y0043000D03*
G01X0065500Y0052000D03*
G01X0065500Y0055000D03*
G01X0066100Y0046050D03*
G01X0066100Y0049050D03*
G01X0066350Y0012050D03*
G01X0066350Y0018050D03*
G01X0066450Y0028000D03*
G01X0066450Y0031000D03*
G01X0066500Y0022000D03*
G01X0066500Y0025000D03*
G01X0066500Y0034000D03*
G01X0066500Y0037000D03*
G01X0066500Y0040000D03*
G01X0066500Y0043000D03*
G01X0066500Y0052000D03*
G01X0066500Y0055000D03*
G01X0067100Y0046050D03*
G01X0067100Y0049050D03*
G01X0067350Y0012050D03*
G01X0067350Y0018050D03*
G01X0067450Y0028000D03*
G01X0067450Y0031000D03*
G01X0067500Y0022000D03*
G01X0067500Y0025000D03*
G01X0067500Y0034000D03*
G01X0067500Y0037000D03*
G01X0067500Y0040000D03*
G01X0067500Y0043000D03*
G01X0067500Y0052000D03*
G01X0067500Y0055000D03*
G01X0068100Y0046050D03*
G01X0068100Y0049050D03*
G01X0068350Y0012050D03*
G01X0068350Y0018050D03*
G01X0068450Y0028000D03*
G01X0068450Y0031000D03*
G01X0068500Y0022000D03*
G01X0068500Y0025000D03*
G01X0068500Y0034000D03*
G01X0068500Y0037000D03*
G01X0068500Y0040000D03*
G01X0068500Y0043000D03*
G01X0068500Y0052000D03*
G01X0068500Y0055000D03*
G01X0069100Y0046050D03*
G01X0069100Y0049050D03*
G01X0069350Y0012050D03*
G01X0069350Y0018050D03*
G01X0069450Y0028000D03*
G01X0069450Y0031000D03*
G01X0069500Y0022000D03*
G01X0069500Y0025000D03*
G01X0069500Y0034000D03*
G01X0069500Y0037000D03*
G01X0069500Y0040000D03*
G01X0069500Y0043000D03*
G01X0069500Y0052000D03*
G01X0069500Y0055000D03*
G01X0070100Y0046050D03*
G01X0070100Y0049050D03*
G01X0070350Y0012050D03*
G01X0070350Y0018050D03*
G01X0070450Y0028000D03*
G01X0070450Y0031000D03*
G01X0070500Y0022000D03*
G01X0070500Y0025000D03*
G01X0070500Y0034000D03*
G01X0070500Y0037000D03*
G01X0070500Y0040000D03*
G01X0070500Y0043000D03*
G01X0070500Y0052000D03*
G01X0070500Y0055000D03*
G01X0071100Y0046050D03*
G01X0071100Y0049050D03*
G01X0071350Y0012050D03*
G01X0071350Y0018050D03*
G01X0071500Y0052000D03*
G01X0071500Y0055000D03*
G01X0072100Y0046050D03*
G01X0072100Y0049050D03*
G01X0072200Y0022500D03*
G01X0072200Y0024500D03*
G01X0072350Y0012050D03*
G01X0072350Y0018050D03*
G01X0072500Y0052000D03*
G01X0072500Y0055000D03*
G01X0073000Y0031400D03*
G01X0073000Y0032400D03*
G01X0073000Y0033400D03*
G01X0073100Y0046050D03*
G01X0073100Y0049050D03*
G01X0073250Y0022500D03*
G01X0073250Y0024500D03*
G01X0073350Y0012050D03*
G01X0073350Y0018050D03*
G01X0073500Y0052000D03*
G01X0073500Y0055000D03*
G01X0074350Y0012050D03*
G01X0074350Y0018050D03*
G01X0075350Y0012050D03*
G01X0075350Y0018050D03*
G01X0076350Y0012050D03*
G01X0076350Y0018050D03*
G01X0077000Y0022500D03*
G01X0077000Y0024500D03*
G01X0077000Y0028350D03*
G01X0077000Y0030350D03*
G01X0077000Y0032450D03*
G01X0077000Y0034500D03*
G01X0077000Y0036500D03*
G01X0077000Y0040500D03*
G01X0077000Y0042500D03*
G01X0077000Y0046500D03*
G01X0077000Y0048500D03*
G01X0077000Y0052500D03*
G01X0077000Y0054500D03*
G01X0077350Y0012050D03*
G01X0077350Y0018050D03*
G01X0078000Y0032450D03*
G01X0078350Y0012050D03*
G01X0078350Y0018050D03*
G01X0079000Y0022000D03*
G01X0079000Y0025000D03*
G01X0079000Y0028000D03*
G01X0079000Y0031000D03*
G01X0079000Y0032450D03*
G01X0079000Y0034000D03*
G01X0079000Y0037000D03*
G01X0079000Y0040000D03*
G01X0079000Y0043000D03*
G01X0079000Y0046000D03*
G01X0079000Y0049000D03*
G01X0079000Y0052000D03*
G01X0079000Y0055000D03*
G01X0080000Y0022000D03*
G01X0080000Y0025000D03*
G01X0080000Y0028000D03*
G01X0080000Y0031000D03*
G01X0080000Y0032450D03*
G01X0080000Y0034000D03*
G01X0080000Y0037000D03*
G01X0080000Y0040000D03*
G01X0080000Y0043000D03*
G01X0080000Y0046000D03*
G01X0080000Y0049000D03*
G01X0080000Y0052000D03*
G01X0080000Y0055000D03*
G01X0081000Y0022000D03*
G01X0081000Y0025000D03*
G01X0081000Y0028000D03*
G01X0081000Y0031000D03*
G01X0081000Y0032450D03*
G01X0081000Y0034000D03*
G01X0081000Y0037000D03*
G01X0081000Y0040000D03*
G01X0081000Y0043000D03*
G01X0081000Y0046000D03*
G01X0081000Y0049000D03*
G01X0081000Y0052000D03*
G01X0081000Y0055000D03*
G01X0082000Y0022000D03*
G01X0082000Y0025000D03*
G01X0082000Y0028000D03*
G01X0082000Y0031000D03*
G01X0082000Y0032450D03*
G01X0082000Y0034000D03*
G01X0082000Y0037000D03*
G01X0082000Y0040000D03*
G01X0082000Y0043000D03*
G01X0082000Y0046000D03*
G01X0082000Y0049000D03*
G01X0082000Y0052000D03*
G01X0082000Y0055000D03*
G01X0083000Y0022000D03*
G01X0083000Y0025000D03*
G01X0083000Y0028000D03*
G01X0083000Y0031000D03*
G01X0083000Y0032450D03*
G01X0083000Y0034000D03*
G01X0083000Y0037000D03*
G01X0083000Y0040000D03*
G01X0083000Y0043000D03*
G01X0083000Y0046000D03*
G01X0083000Y0049000D03*
G01X0083000Y0052000D03*
G01X0083000Y0055000D03*
G01X0084000Y0022000D03*
G01X0084000Y0025000D03*
G01X0084000Y0028000D03*
G01X0084000Y0031000D03*
G01X0084000Y0032450D03*
G01X0084000Y0034000D03*
G01X0084000Y0037000D03*
G01X0084000Y0040000D03*
G01X0084000Y0043000D03*
G01X0084000Y0046000D03*
G01X0084000Y0049000D03*
G01X0084000Y0052000D03*
G01X0084000Y0055000D03*
G01X0085000Y0022000D03*
G01X0085000Y0025000D03*
G01X0085000Y0028000D03*
G01X0085000Y0031000D03*
G01X0085000Y0032450D03*
G01X0085000Y0034000D03*
G01X0085000Y0037000D03*
G01X0085000Y0040000D03*
G01X0085000Y0043000D03*
G01X0085000Y0046000D03*
G01X0085000Y0049000D03*
G01X0085000Y0052000D03*
G01X0085000Y0055000D03*
G01X0086000Y0028000D03*
G01X0086000Y0031000D03*
G01X0086000Y0032450D03*
G01X0086000Y0040000D03*
G01X0086000Y0043000D03*
G01X0086000Y0046000D03*
G01X0086000Y0049000D03*
G01X0086000Y0052000D03*
G01X0086000Y0055000D03*
G01X0086750Y0034050D03*
G01X0086750Y0037050D03*
G01X0087000Y0028000D03*
G01X0087000Y0031000D03*
G01X0087000Y0040000D03*
G01X0087000Y0043000D03*
G01X0087000Y0052000D03*
G01X0087000Y0055000D03*
G01X0087550Y0046050D03*
G01X0087550Y0049050D03*
G01X0088000Y0028000D03*
G01X0088000Y0031000D03*
G01X0088000Y0040000D03*
G01X0088000Y0043000D03*
G01X0088000Y0052000D03*
G01X0088000Y0055000D03*
G01X0088550Y0046050D03*
G01X0088550Y0049050D03*
G01X0089550Y0046050D03*
G01X0089550Y0049050D03*
G01X0090550Y0046050D03*
G01X0090550Y0049050D03*
G01X0091500Y0017000D03*
G01X0091500Y0019000D03*
G01X0091500Y0022500D03*
G01X0091500Y0024500D03*
G01X0091500Y0028500D03*
G01X0091500Y0030500D03*
G01X0091500Y0034500D03*
G01X0091500Y0036500D03*
G01X0091500Y0040500D03*
G01X0091500Y0042500D03*
G01X0091500Y0046500D03*
G01X0091500Y0048500D03*
G01X0091500Y0052500D03*
G01X0091500Y0054500D03*
G01X0093500Y0016500D03*
G01X0093500Y0019500D03*
G01X0093500Y0022000D03*
G01X0093500Y0025000D03*
G01X0093500Y0040000D03*
G01X0093500Y0043000D03*
G01X0093500Y0046000D03*
G01X0093500Y0049000D03*
G01X0093500Y0052000D03*
G01X0093500Y0055000D03*
G01X0093550Y0028050D03*
G01X0093550Y0031050D03*
G01X0093550Y0034000D03*
G01X0093550Y0037000D03*
G01X0094500Y0016500D03*
G01X0094500Y0019500D03*
G01X0094500Y0022000D03*
G01X0094500Y0025000D03*
G01X0094500Y0040000D03*
G01X0094500Y0043000D03*
G01X0094500Y0046000D03*
G01X0094500Y0049000D03*
G01X0094500Y0052000D03*
G01X0094500Y0055000D03*
G01X0094550Y0028050D03*
G01X0094550Y0031050D03*
G01X0094550Y0034000D03*
G01X0094550Y0037000D03*
G01X0095500Y0016500D03*
G01X0095500Y0019500D03*
G01X0095500Y0022000D03*
G01X0095500Y0025000D03*
G01X0095500Y0040000D03*
G01X0095500Y0043000D03*
G01X0095500Y0046000D03*
G01X0095500Y0049000D03*
G01X0095500Y0052000D03*
G01X0095500Y0055000D03*
G01X0095550Y0028050D03*
G01X0095550Y0031050D03*
G01X0095550Y0034000D03*
G01X0095550Y0037000D03*
G01X0095725Y0012227D03*
G01X0095725Y0014227D03*
G01X0096500Y0016500D03*
G01X0096500Y0019500D03*
G01X0096500Y0020800D03*
G01X0096500Y0022000D03*
G01X0096500Y0025000D03*
G01X0096500Y0040000D03*
G01X0096500Y0043000D03*
G01X0096500Y0046000D03*
G01X0096500Y0049000D03*
G01X0096500Y0052000D03*
G01X0096500Y0055000D03*
G01X0096550Y0028050D03*
G01X0096550Y0031050D03*
G01X0096550Y0034000D03*
G01X0096550Y0037000D03*
G01X0097500Y0016500D03*
G01X0097500Y0019500D03*
G01X0097500Y0022000D03*
G01X0097500Y0025000D03*
G01X0097500Y0040000D03*
G01X0097500Y0043000D03*
G01X0097500Y0046000D03*
G01X0097500Y0049000D03*
G01X0097500Y0052000D03*
G01X0097500Y0055000D03*
G01X0097550Y0028050D03*
G01X0097550Y0031050D03*
G01X0097550Y0034000D03*
G01X0097550Y0037000D03*
G01X0098500Y0016500D03*
G01X0098500Y0019500D03*
G01X0098500Y0022000D03*
G01X0098500Y0025000D03*
G01X0098500Y0040000D03*
G01X0098500Y0043000D03*
G01X0098500Y0046000D03*
G01X0098500Y0049000D03*
G01X0098500Y0052000D03*
G01X0098500Y0055000D03*
G01X0098550Y0028050D03*
G01X0098550Y0031050D03*
G01X0098550Y0034000D03*
G01X0098550Y0037000D03*
G01X0098725Y0012227D03*
G01X0098725Y0014227D03*
G01X0099500Y0016500D03*
G01X0099500Y0019500D03*
G01X0099500Y0020800D03*
G01X0099500Y0022000D03*
G01X0099500Y0025000D03*
G01X0099500Y0040000D03*
G01X0099500Y0043000D03*
G01X0099500Y0046000D03*
G01X0099500Y0049000D03*
G01X0099500Y0052000D03*
G01X0099500Y0055000D03*
G01X0099550Y0028050D03*
G01X0099550Y0031050D03*
G01X0099550Y0034000D03*
G01X0099550Y0037000D03*
G01X0100500Y0046000D03*
G01X0100500Y0049000D03*
G01X0100500Y0052000D03*
G01X0100500Y0055000D03*
G01X0101500Y0046000D03*
G01X0101500Y0049000D03*
G01X0101500Y0052000D03*
G01X0101500Y0055000D03*
G01X0102500Y0046000D03*
G01X0102500Y0049000D03*
G01X0102500Y0052000D03*
G01X0102500Y0055000D03*
G54D13*
G01X0009650Y0024200D03*
G01X0009650Y0025200D03*
G01X0009650Y0026200D03*
G01X0009650Y0027200D03*
G01X0009650Y0028200D03*
G01X0009650Y0029200D03*
G01X0009650Y0032100D03*
G01X0009650Y0033100D03*
G01X0009650Y0034100D03*
G01X0009650Y0035100D03*
G01X0009650Y0036100D03*
G01X0010650Y0024200D03*
G01X0010650Y0025200D03*
G01X0010650Y0026200D03*
G01X0010650Y0027200D03*
G01X0010650Y0028200D03*
G01X0010650Y0029200D03*
G01X0010650Y0032100D03*
G01X0010650Y0033100D03*
G01X0010650Y0034100D03*
G01X0010650Y0035100D03*
G01X0010650Y0036100D03*
G01X0013200Y0024200D03*
G01X0013200Y0025200D03*
G01X0013200Y0026200D03*
G01X0013200Y0027200D03*
G01X0013200Y0028200D03*
G01X0013200Y0029200D03*
G01X0073000Y0026950D03*
G01X0073000Y0027950D03*
G01X0073000Y0028950D03*
G01X0073950Y0037000D03*
G01X0073950Y0038000D03*
G01X0073950Y0040750D03*
G01X0073950Y0041750D03*
G01X0073950Y0042750D03*
G01X0073950Y0043750D03*
G01X0074000Y0026950D03*
G01X0074000Y0027950D03*
G01X0074000Y0028950D03*
G01X0074950Y0037000D03*
G01X0074950Y0038000D03*
G01X0074950Y0040750D03*
G01X0074950Y0041750D03*
G01X0074950Y0042750D03*
G01X0074950Y0043750D03*
G01X0088350Y0023000D03*
G01X0088350Y0024000D03*
G01X0089350Y0023000D03*
G01X0089350Y0024000D03*
G01X0101800Y0041000D03*
G01X0101800Y0042000D03*
G54D14*
G01X0016650Y0053300D03*
G01X0016650Y0054300D03*
G01X0016650Y0055300D03*
G54D15*
G01X0007500Y0011500D03*
G01X0010150Y0054300D03*
G01X0102500Y0011500D03*
M02*
