G04 This is an RS-274x file exported by *
G04 gerbv version 2.6.1 *
G04 More information is available about gerbv at *
G04 http://gerbv.geda-project.org/ *
G04 --End of header info--*
%MOIN*%
%FSLAX34Y34*%
%IPPOS*%
G04 --Define apertures--*
%ADD10C,0.0059*%
%ADD11C,0.0035*%
%ADD12C,0.0020*%
%ADD13C,0.0026*%
%ADD14C,0.0060*%
%ADD15C,0.0080*%
G04 --Start main section--*
G54D11*
G01X0023233Y-031323D02*
G01X0023233Y-030623D01*
G01X0022500Y-031256D02*
G01X0022533Y-031290D01*
G01X0022533Y-031290D02*
G01X0022633Y-031323D01*
G01X0022633Y-031323D02*
G01X0022700Y-031323D01*
G01X0022700Y-031323D02*
G01X0022800Y-031290D01*
G01X0022800Y-031290D02*
G01X0022866Y-031223D01*
G01X0022866Y-031223D02*
G01X0022900Y-031156D01*
G01X0022900Y-031156D02*
G01X0022933Y-031023D01*
G01X0022933Y-031023D02*
G01X0022933Y-030923D01*
G01X0022933Y-030923D02*
G01X0022900Y-030790D01*
G01X0022900Y-030790D02*
G01X0022866Y-030723D01*
G01X0022866Y-030723D02*
G01X0022800Y-030656D01*
G01X0022800Y-030656D02*
G01X0022700Y-030623D01*
G01X0022700Y-030623D02*
G01X0022633Y-030623D01*
G01X0022633Y-030623D02*
G01X0022533Y-030656D01*
G01X0022533Y-030656D02*
G01X0022500Y-030690D01*
G01X0021833Y-031323D02*
G01X0022233Y-031323D01*
G01X0022033Y-031323D02*
G01X0022033Y-030623D01*
G01X0022033Y-030623D02*
G01X0022100Y-030723D01*
G01X0022100Y-030723D02*
G01X0022166Y-030790D01*
G01X0022166Y-030790D02*
G01X0022233Y-030823D01*
G54D10*
G01X0039018Y-016942D02*
G01X0039018Y-017292D01*
G01X0039018Y-017292D02*
G01X0039001Y-017334D01*
G01X0039001Y-017334D02*
G01X0038984Y-017354D01*
G01X0038984Y-017354D02*
G01X0038951Y-017375D01*
G01X0038951Y-017375D02*
G01X0038883Y-017375D01*
G01X0038883Y-017375D02*
G01X0038849Y-017354D01*
G01X0038849Y-017354D02*
G01X0038833Y-017334D01*
G01X0038833Y-017334D02*
G01X0038816Y-017292D01*
G01X0038816Y-017292D02*
G01X0038816Y-016942D01*
G01X0038461Y-017375D02*
G01X0038664Y-017375D01*
G01X0038563Y-017375D02*
G01X0038563Y-016942D01*
G01X0038563Y-016942D02*
G01X0038596Y-017004D01*
G01X0038596Y-017004D02*
G01X0038630Y-017045D01*
G01X0038630Y-017045D02*
G01X0038664Y-017065D01*
G01X0038343Y-016942D02*
G01X0038124Y-016942D01*
G01X0038124Y-016942D02*
G01X0038242Y-017107D01*
G01X0038242Y-017107D02*
G01X0038191Y-017107D01*
G01X0038191Y-017107D02*
G01X0038158Y-017127D01*
G01X0038158Y-017127D02*
G01X0038141Y-017148D01*
G01X0038141Y-017148D02*
G01X0038124Y-017189D01*
G01X0038124Y-017189D02*
G01X0038124Y-017292D01*
G01X0038124Y-017292D02*
G01X0038141Y-017334D01*
G01X0038141Y-017334D02*
G01X0038158Y-017354D01*
G01X0038158Y-017354D02*
G01X0038191Y-017375D01*
G01X0038191Y-017375D02*
G01X0038293Y-017375D01*
G01X0038293Y-017375D02*
G01X0038326Y-017354D01*
G01X0038326Y-017354D02*
G01X0038343Y-017334D01*
G01X0092998Y-022317D02*
G01X0092998Y-022667D01*
G01X0092998Y-022667D02*
G01X0092981Y-022709D01*
G01X0092981Y-022709D02*
G01X0092964Y-022729D01*
G01X0092964Y-022729D02*
G01X0092931Y-022750D01*
G01X0092931Y-022750D02*
G01X0092863Y-022750D01*
G01X0092863Y-022750D02*
G01X0092829Y-022729D01*
G01X0092829Y-022729D02*
G01X0092813Y-022709D01*
G01X0092813Y-022709D02*
G01X0092796Y-022667D01*
G01X0092796Y-022667D02*
G01X0092796Y-022317D01*
G01X0092661Y-022317D02*
G01X0092441Y-022317D01*
G01X0092441Y-022317D02*
G01X0092560Y-022482D01*
G01X0092560Y-022482D02*
G01X0092509Y-022482D01*
G01X0092509Y-022482D02*
G01X0092475Y-022502D01*
G01X0092475Y-022502D02*
G01X0092458Y-022523D01*
G01X0092458Y-022523D02*
G01X0092441Y-022564D01*
G01X0092441Y-022564D02*
G01X0092441Y-022667D01*
G01X0092441Y-022667D02*
G01X0092458Y-022709D01*
G01X0092458Y-022709D02*
G01X0092475Y-022729D01*
G01X0092475Y-022729D02*
G01X0092509Y-022750D01*
G01X0092509Y-022750D02*
G01X0092610Y-022750D01*
G01X0092610Y-022750D02*
G01X0092644Y-022729D01*
G01X0092644Y-022729D02*
G01X0092661Y-022709D01*
G01X0092138Y-022461D02*
G01X0092138Y-022750D01*
G01X0092222Y-022296D02*
G01X0092306Y-022605D01*
G01X0092306Y-022605D02*
G01X0092087Y-022605D01*
G01X0093003Y-028317D02*
G01X0093003Y-028667D01*
G01X0093003Y-028667D02*
G01X0092986Y-028709D01*
G01X0092986Y-028709D02*
G01X0092969Y-028729D01*
G01X0092969Y-028729D02*
G01X0092936Y-028750D01*
G01X0092936Y-028750D02*
G01X0092868Y-028750D01*
G01X0092868Y-028750D02*
G01X0092834Y-028729D01*
G01X0092834Y-028729D02*
G01X0092818Y-028709D01*
G01X0092818Y-028709D02*
G01X0092801Y-028667D01*
G01X0092801Y-028667D02*
G01X0092801Y-028317D01*
G01X0092446Y-028750D02*
G01X0092649Y-028750D01*
G01X0092548Y-028750D02*
G01X0092548Y-028317D01*
G01X0092548Y-028317D02*
G01X0092581Y-028379D01*
G01X0092581Y-028379D02*
G01X0092615Y-028420D01*
G01X0092615Y-028420D02*
G01X0092649Y-028440D01*
G01X0092244Y-028502D02*
G01X0092278Y-028482D01*
G01X0092278Y-028482D02*
G01X0092295Y-028461D01*
G01X0092295Y-028461D02*
G01X0092311Y-028420D01*
G01X0092311Y-028420D02*
G01X0092311Y-028399D01*
G01X0092311Y-028399D02*
G01X0092295Y-028358D01*
G01X0092295Y-028358D02*
G01X0092278Y-028337D01*
G01X0092278Y-028337D02*
G01X0092244Y-028317D01*
G01X0092244Y-028317D02*
G01X0092176Y-028317D01*
G01X0092176Y-028317D02*
G01X0092143Y-028337D01*
G01X0092143Y-028337D02*
G01X0092126Y-028358D01*
G01X0092126Y-028358D02*
G01X0092109Y-028399D01*
G01X0092109Y-028399D02*
G01X0092109Y-028420D01*
G01X0092109Y-028420D02*
G01X0092126Y-028461D01*
G01X0092126Y-028461D02*
G01X0092143Y-028482D01*
G01X0092143Y-028482D02*
G01X0092176Y-028502D01*
G01X0092176Y-028502D02*
G01X0092244Y-028502D01*
G01X0092244Y-028502D02*
G01X0092278Y-028523D01*
G01X0092278Y-028523D02*
G01X0092295Y-028544D01*
G01X0092295Y-028544D02*
G01X0092311Y-028585D01*
G01X0092311Y-028585D02*
G01X0092311Y-028667D01*
G01X0092311Y-028667D02*
G01X0092295Y-028709D01*
G01X0092295Y-028709D02*
G01X0092278Y-028729D01*
G01X0092278Y-028729D02*
G01X0092244Y-028750D01*
G01X0092244Y-028750D02*
G01X0092176Y-028750D01*
G01X0092176Y-028750D02*
G01X0092143Y-028729D01*
G01X0092143Y-028729D02*
G01X0092126Y-028709D01*
G01X0092126Y-028709D02*
G01X0092109Y-028667D01*
G01X0092109Y-028667D02*
G01X0092109Y-028585D01*
G01X0092109Y-028585D02*
G01X0092126Y-028544D01*
G01X0092126Y-028544D02*
G01X0092143Y-028523D01*
G01X0092143Y-028523D02*
G01X0092176Y-028502D01*
G01X0093018Y-034267D02*
G01X0093018Y-034617D01*
G01X0093018Y-034617D02*
G01X0093001Y-034659D01*
G01X0093001Y-034659D02*
G01X0092984Y-034679D01*
G01X0092984Y-034679D02*
G01X0092951Y-034700D01*
G01X0092951Y-034700D02*
G01X0092883Y-034700D01*
G01X0092883Y-034700D02*
G01X0092849Y-034679D01*
G01X0092849Y-034679D02*
G01X0092833Y-034659D01*
G01X0092833Y-034659D02*
G01X0092816Y-034617D01*
G01X0092816Y-034617D02*
G01X0092816Y-034267D01*
G01X0092461Y-034700D02*
G01X0092664Y-034700D01*
G01X0092563Y-034700D02*
G01X0092563Y-034267D01*
G01X0092563Y-034267D02*
G01X0092596Y-034329D01*
G01X0092596Y-034329D02*
G01X0092630Y-034370D01*
G01X0092630Y-034370D02*
G01X0092664Y-034390D01*
G01X0092259Y-034452D02*
G01X0092293Y-034432D01*
G01X0092293Y-034432D02*
G01X0092310Y-034411D01*
G01X0092310Y-034411D02*
G01X0092326Y-034370D01*
G01X0092326Y-034370D02*
G01X0092326Y-034349D01*
G01X0092326Y-034349D02*
G01X0092310Y-034308D01*
G01X0092310Y-034308D02*
G01X0092293Y-034287D01*
G01X0092293Y-034287D02*
G01X0092259Y-034267D01*
G01X0092259Y-034267D02*
G01X0092191Y-034267D01*
G01X0092191Y-034267D02*
G01X0092158Y-034287D01*
G01X0092158Y-034287D02*
G01X0092141Y-034308D01*
G01X0092141Y-034308D02*
G01X0092124Y-034349D01*
G01X0092124Y-034349D02*
G01X0092124Y-034370D01*
G01X0092124Y-034370D02*
G01X0092141Y-034411D01*
G01X0092141Y-034411D02*
G01X0092158Y-034432D01*
G01X0092158Y-034432D02*
G01X0092191Y-034452D01*
G01X0092191Y-034452D02*
G01X0092259Y-034452D01*
G01X0092259Y-034452D02*
G01X0092293Y-034473D01*
G01X0092293Y-034473D02*
G01X0092310Y-034494D01*
G01X0092310Y-034494D02*
G01X0092326Y-034535D01*
G01X0092326Y-034535D02*
G01X0092326Y-034617D01*
G01X0092326Y-034617D02*
G01X0092310Y-034659D01*
G01X0092310Y-034659D02*
G01X0092293Y-034679D01*
G01X0092293Y-034679D02*
G01X0092259Y-034700D01*
G01X0092259Y-034700D02*
G01X0092191Y-034700D01*
G01X0092191Y-034700D02*
G01X0092158Y-034679D01*
G01X0092158Y-034679D02*
G01X0092141Y-034659D01*
G01X0092141Y-034659D02*
G01X0092124Y-034617D01*
G01X0092124Y-034617D02*
G01X0092124Y-034535D01*
G01X0092124Y-034535D02*
G01X0092141Y-034494D01*
G01X0092141Y-034494D02*
G01X0092158Y-034473D01*
G01X0092158Y-034473D02*
G01X0092191Y-034452D01*
G01X0092973Y-040297D02*
G01X0092973Y-040647D01*
G01X0092973Y-040647D02*
G01X0092956Y-040689D01*
G01X0092956Y-040689D02*
G01X0092939Y-040709D01*
G01X0092939Y-040709D02*
G01X0092906Y-040730D01*
G01X0092906Y-040730D02*
G01X0092838Y-040730D01*
G01X0092838Y-040730D02*
G01X0092804Y-040709D01*
G01X0092804Y-040709D02*
G01X0092788Y-040689D01*
G01X0092788Y-040689D02*
G01X0092771Y-040647D01*
G01X0092771Y-040647D02*
G01X0092771Y-040297D01*
G01X0092636Y-040297D02*
G01X0092416Y-040297D01*
G01X0092416Y-040297D02*
G01X0092535Y-040462D01*
G01X0092535Y-040462D02*
G01X0092484Y-040462D01*
G01X0092484Y-040462D02*
G01X0092450Y-040482D01*
G01X0092450Y-040482D02*
G01X0092433Y-040503D01*
G01X0092433Y-040503D02*
G01X0092416Y-040544D01*
G01X0092416Y-040544D02*
G01X0092416Y-040647D01*
G01X0092416Y-040647D02*
G01X0092433Y-040689D01*
G01X0092433Y-040689D02*
G01X0092450Y-040709D01*
G01X0092450Y-040709D02*
G01X0092484Y-040730D01*
G01X0092484Y-040730D02*
G01X0092585Y-040730D01*
G01X0092585Y-040730D02*
G01X0092619Y-040709D01*
G01X0092619Y-040709D02*
G01X0092636Y-040689D01*
G01X0092298Y-040297D02*
G01X0092062Y-040297D01*
G01X0092062Y-040297D02*
G01X0092214Y-040730D01*
G01X0092948Y-046242D02*
G01X0092948Y-046592D01*
G01X0092948Y-046592D02*
G01X0092931Y-046634D01*
G01X0092931Y-046634D02*
G01X0092914Y-046654D01*
G01X0092914Y-046654D02*
G01X0092881Y-046675D01*
G01X0092881Y-046675D02*
G01X0092813Y-046675D01*
G01X0092813Y-046675D02*
G01X0092779Y-046654D01*
G01X0092779Y-046654D02*
G01X0092763Y-046634D01*
G01X0092763Y-046634D02*
G01X0092746Y-046592D01*
G01X0092746Y-046592D02*
G01X0092746Y-046242D01*
G01X0092391Y-046675D02*
G01X0092594Y-046675D01*
G01X0092493Y-046675D02*
G01X0092493Y-046242D01*
G01X0092493Y-046242D02*
G01X0092526Y-046304D01*
G01X0092526Y-046304D02*
G01X0092560Y-046345D01*
G01X0092560Y-046345D02*
G01X0092594Y-046365D01*
G01X0092088Y-046386D02*
G01X0092088Y-046675D01*
G01X0092172Y-046221D02*
G01X0092256Y-046530D01*
G01X0092256Y-046530D02*
G01X0092037Y-046530D01*
G01X0092928Y-052292D02*
G01X0092928Y-052642D01*
G01X0092928Y-052642D02*
G01X0092911Y-052684D01*
G01X0092911Y-052684D02*
G01X0092894Y-052704D01*
G01X0092894Y-052704D02*
G01X0092861Y-052725D01*
G01X0092861Y-052725D02*
G01X0092793Y-052725D01*
G01X0092793Y-052725D02*
G01X0092759Y-052704D01*
G01X0092759Y-052704D02*
G01X0092743Y-052684D01*
G01X0092743Y-052684D02*
G01X0092726Y-052642D01*
G01X0092726Y-052642D02*
G01X0092726Y-052292D01*
G01X0092574Y-052333D02*
G01X0092557Y-052312D01*
G01X0092557Y-052312D02*
G01X0092523Y-052292D01*
G01X0092523Y-052292D02*
G01X0092439Y-052292D01*
G01X0092439Y-052292D02*
G01X0092405Y-052312D01*
G01X0092405Y-052312D02*
G01X0092388Y-052333D01*
G01X0092388Y-052333D02*
G01X0092371Y-052374D01*
G01X0092371Y-052374D02*
G01X0092371Y-052415D01*
G01X0092371Y-052415D02*
G01X0092388Y-052477D01*
G01X0092388Y-052477D02*
G01X0092591Y-052725D01*
G01X0092591Y-052725D02*
G01X0092371Y-052725D01*
G01X0092236Y-052333D02*
G01X0092220Y-052312D01*
G01X0092220Y-052312D02*
G01X0092186Y-052292D01*
G01X0092186Y-052292D02*
G01X0092101Y-052292D01*
G01X0092101Y-052292D02*
G01X0092068Y-052312D01*
G01X0092068Y-052312D02*
G01X0092051Y-052333D01*
G01X0092051Y-052333D02*
G01X0092034Y-052374D01*
G01X0092034Y-052374D02*
G01X0092034Y-052415D01*
G01X0092034Y-052415D02*
G01X0092051Y-052477D01*
G01X0092051Y-052477D02*
G01X0092253Y-052725D01*
G01X0092253Y-052725D02*
G01X0092034Y-052725D01*
G01X0078443Y-052297D02*
G01X0078443Y-052647D01*
G01X0078443Y-052647D02*
G01X0078426Y-052689D01*
G01X0078426Y-052689D02*
G01X0078409Y-052709D01*
G01X0078409Y-052709D02*
G01X0078376Y-052730D01*
G01X0078376Y-052730D02*
G01X0078308Y-052730D01*
G01X0078308Y-052730D02*
G01X0078274Y-052709D01*
G01X0078274Y-052709D02*
G01X0078258Y-052689D01*
G01X0078258Y-052689D02*
G01X0078241Y-052647D01*
G01X0078241Y-052647D02*
G01X0078241Y-052297D01*
G01X0078089Y-052338D02*
G01X0078072Y-052317D01*
G01X0078072Y-052317D02*
G01X0078038Y-052297D01*
G01X0078038Y-052297D02*
G01X0077954Y-052297D01*
G01X0077954Y-052297D02*
G01X0077920Y-052317D01*
G01X0077920Y-052317D02*
G01X0077903Y-052338D01*
G01X0077903Y-052338D02*
G01X0077886Y-052379D01*
G01X0077886Y-052379D02*
G01X0077886Y-052420D01*
G01X0077886Y-052420D02*
G01X0077903Y-052482D01*
G01X0077903Y-052482D02*
G01X0078106Y-052730D01*
G01X0078106Y-052730D02*
G01X0077886Y-052730D01*
G01X0077667Y-052297D02*
G01X0077633Y-052297D01*
G01X0077633Y-052297D02*
G01X0077600Y-052317D01*
G01X0077600Y-052317D02*
G01X0077583Y-052338D01*
G01X0077583Y-052338D02*
G01X0077566Y-052379D01*
G01X0077566Y-052379D02*
G01X0077549Y-052462D01*
G01X0077549Y-052462D02*
G01X0077549Y-052565D01*
G01X0077549Y-052565D02*
G01X0077566Y-052647D01*
G01X0077566Y-052647D02*
G01X0077583Y-052689D01*
G01X0077583Y-052689D02*
G01X0077600Y-052709D01*
G01X0077600Y-052709D02*
G01X0077633Y-052730D01*
G01X0077633Y-052730D02*
G01X0077667Y-052730D01*
G01X0077667Y-052730D02*
G01X0077701Y-052709D01*
G01X0077701Y-052709D02*
G01X0077718Y-052689D01*
G01X0077718Y-052689D02*
G01X0077735Y-052647D01*
G01X0077735Y-052647D02*
G01X0077751Y-052565D01*
G01X0077751Y-052565D02*
G01X0077751Y-052462D01*
G01X0077751Y-052462D02*
G01X0077735Y-052379D01*
G01X0077735Y-052379D02*
G01X0077718Y-052338D01*
G01X0077718Y-052338D02*
G01X0077701Y-052317D01*
G01X0077701Y-052317D02*
G01X0077667Y-052297D01*
G01X0078264Y-046217D02*
G01X0078264Y-046567D01*
G01X0078264Y-046567D02*
G01X0078248Y-046609D01*
G01X0078248Y-046609D02*
G01X0078231Y-046629D01*
G01X0078231Y-046629D02*
G01X0078197Y-046650D01*
G01X0078197Y-046650D02*
G01X0078129Y-046650D01*
G01X0078129Y-046650D02*
G01X0078096Y-046629D01*
G01X0078096Y-046629D02*
G01X0078079Y-046609D01*
G01X0078079Y-046609D02*
G01X0078062Y-046567D01*
G01X0078062Y-046567D02*
G01X0078062Y-046217D01*
G01X0077843Y-046402D02*
G01X0077876Y-046382D01*
G01X0077876Y-046382D02*
G01X0077893Y-046361D01*
G01X0077893Y-046361D02*
G01X0077910Y-046320D01*
G01X0077910Y-046320D02*
G01X0077910Y-046299D01*
G01X0077910Y-046299D02*
G01X0077893Y-046258D01*
G01X0077893Y-046258D02*
G01X0077876Y-046237D01*
G01X0077876Y-046237D02*
G01X0077843Y-046217D01*
G01X0077843Y-046217D02*
G01X0077775Y-046217D01*
G01X0077775Y-046217D02*
G01X0077741Y-046237D01*
G01X0077741Y-046237D02*
G01X0077725Y-046258D01*
G01X0077725Y-046258D02*
G01X0077708Y-046299D01*
G01X0077708Y-046299D02*
G01X0077708Y-046320D01*
G01X0077708Y-046320D02*
G01X0077725Y-046361D01*
G01X0077725Y-046361D02*
G01X0077741Y-046382D01*
G01X0077741Y-046382D02*
G01X0077775Y-046402D01*
G01X0077775Y-046402D02*
G01X0077843Y-046402D01*
G01X0077843Y-046402D02*
G01X0077876Y-046423D01*
G01X0077876Y-046423D02*
G01X0077893Y-046444D01*
G01X0077893Y-046444D02*
G01X0077910Y-046485D01*
G01X0077910Y-046485D02*
G01X0077910Y-046567D01*
G01X0077910Y-046567D02*
G01X0077893Y-046609D01*
G01X0077893Y-046609D02*
G01X0077876Y-046629D01*
G01X0077876Y-046629D02*
G01X0077843Y-046650D01*
G01X0077843Y-046650D02*
G01X0077775Y-046650D01*
G01X0077775Y-046650D02*
G01X0077741Y-046629D01*
G01X0077741Y-046629D02*
G01X0077725Y-046609D01*
G01X0077725Y-046609D02*
G01X0077708Y-046567D01*
G01X0077708Y-046567D02*
G01X0077708Y-046485D01*
G01X0077708Y-046485D02*
G01X0077725Y-046444D01*
G01X0077725Y-046444D02*
G01X0077741Y-046423D01*
G01X0077741Y-046423D02*
G01X0077775Y-046402D01*
G01X0078428Y-040267D02*
G01X0078428Y-040617D01*
G01X0078428Y-040617D02*
G01X0078411Y-040659D01*
G01X0078411Y-040659D02*
G01X0078394Y-040679D01*
G01X0078394Y-040679D02*
G01X0078361Y-040700D01*
G01X0078361Y-040700D02*
G01X0078293Y-040700D01*
G01X0078293Y-040700D02*
G01X0078259Y-040679D01*
G01X0078259Y-040679D02*
G01X0078243Y-040659D01*
G01X0078243Y-040659D02*
G01X0078226Y-040617D01*
G01X0078226Y-040617D02*
G01X0078226Y-040267D01*
G01X0078074Y-040308D02*
G01X0078057Y-040287D01*
G01X0078057Y-040287D02*
G01X0078023Y-040267D01*
G01X0078023Y-040267D02*
G01X0077939Y-040267D01*
G01X0077939Y-040267D02*
G01X0077905Y-040287D01*
G01X0077905Y-040287D02*
G01X0077888Y-040308D01*
G01X0077888Y-040308D02*
G01X0077871Y-040349D01*
G01X0077871Y-040349D02*
G01X0077871Y-040390D01*
G01X0077871Y-040390D02*
G01X0077888Y-040452D01*
G01X0077888Y-040452D02*
G01X0078091Y-040700D01*
G01X0078091Y-040700D02*
G01X0077871Y-040700D01*
G01X0077534Y-040700D02*
G01X0077736Y-040700D01*
G01X0077635Y-040700D02*
G01X0077635Y-040267D01*
G01X0077635Y-040267D02*
G01X0077669Y-040329D01*
G01X0077669Y-040329D02*
G01X0077703Y-040370D01*
G01X0077703Y-040370D02*
G01X0077736Y-040390D01*
G01X0078433Y-034257D02*
G01X0078433Y-034607D01*
G01X0078433Y-034607D02*
G01X0078416Y-034649D01*
G01X0078416Y-034649D02*
G01X0078399Y-034669D01*
G01X0078399Y-034669D02*
G01X0078366Y-034690D01*
G01X0078366Y-034690D02*
G01X0078298Y-034690D01*
G01X0078298Y-034690D02*
G01X0078264Y-034669D01*
G01X0078264Y-034669D02*
G01X0078248Y-034649D01*
G01X0078248Y-034649D02*
G01X0078231Y-034607D01*
G01X0078231Y-034607D02*
G01X0078231Y-034257D01*
G01X0077910Y-034401D02*
G01X0077910Y-034690D01*
G01X0077995Y-034236D02*
G01X0078079Y-034545D01*
G01X0078079Y-034545D02*
G01X0077860Y-034545D01*
G01X0077657Y-034257D02*
G01X0077623Y-034257D01*
G01X0077623Y-034257D02*
G01X0077590Y-034277D01*
G01X0077590Y-034277D02*
G01X0077573Y-034298D01*
G01X0077573Y-034298D02*
G01X0077556Y-034339D01*
G01X0077556Y-034339D02*
G01X0077539Y-034422D01*
G01X0077539Y-034422D02*
G01X0077539Y-034525D01*
G01X0077539Y-034525D02*
G01X0077556Y-034607D01*
G01X0077556Y-034607D02*
G01X0077573Y-034649D01*
G01X0077573Y-034649D02*
G01X0077590Y-034669D01*
G01X0077590Y-034669D02*
G01X0077623Y-034690D01*
G01X0077623Y-034690D02*
G01X0077657Y-034690D01*
G01X0077657Y-034690D02*
G01X0077691Y-034669D01*
G01X0077691Y-034669D02*
G01X0077708Y-034649D01*
G01X0077708Y-034649D02*
G01X0077725Y-034607D01*
G01X0077725Y-034607D02*
G01X0077741Y-034525D01*
G01X0077741Y-034525D02*
G01X0077741Y-034422D01*
G01X0077741Y-034422D02*
G01X0077725Y-034339D01*
G01X0077725Y-034339D02*
G01X0077708Y-034298D01*
G01X0077708Y-034298D02*
G01X0077691Y-034277D01*
G01X0077691Y-034277D02*
G01X0077657Y-034257D01*
G01X0078463Y-028132D02*
G01X0078463Y-028482D01*
G01X0078463Y-028482D02*
G01X0078446Y-028524D01*
G01X0078446Y-028524D02*
G01X0078429Y-028544D01*
G01X0078429Y-028544D02*
G01X0078396Y-028565D01*
G01X0078396Y-028565D02*
G01X0078328Y-028565D01*
G01X0078328Y-028565D02*
G01X0078294Y-028544D01*
G01X0078294Y-028544D02*
G01X0078278Y-028524D01*
G01X0078278Y-028524D02*
G01X0078261Y-028482D01*
G01X0078261Y-028482D02*
G01X0078261Y-028132D01*
G01X0078126Y-028132D02*
G01X0077906Y-028132D01*
G01X0077906Y-028132D02*
G01X0078025Y-028297D01*
G01X0078025Y-028297D02*
G01X0077974Y-028297D01*
G01X0077974Y-028297D02*
G01X0077940Y-028317D01*
G01X0077940Y-028317D02*
G01X0077923Y-028338D01*
G01X0077923Y-028338D02*
G01X0077906Y-028379D01*
G01X0077906Y-028379D02*
G01X0077906Y-028482D01*
G01X0077906Y-028482D02*
G01X0077923Y-028524D01*
G01X0077923Y-028524D02*
G01X0077940Y-028544D01*
G01X0077940Y-028544D02*
G01X0077974Y-028565D01*
G01X0077974Y-028565D02*
G01X0078075Y-028565D01*
G01X0078075Y-028565D02*
G01X0078109Y-028544D01*
G01X0078109Y-028544D02*
G01X0078126Y-028524D01*
G01X0077738Y-028565D02*
G01X0077670Y-028565D01*
G01X0077670Y-028565D02*
G01X0077636Y-028544D01*
G01X0077636Y-028544D02*
G01X0077620Y-028524D01*
G01X0077620Y-028524D02*
G01X0077586Y-028462D01*
G01X0077586Y-028462D02*
G01X0077569Y-028379D01*
G01X0077569Y-028379D02*
G01X0077569Y-028214D01*
G01X0077569Y-028214D02*
G01X0077586Y-028173D01*
G01X0077586Y-028173D02*
G01X0077603Y-028152D01*
G01X0077603Y-028152D02*
G01X0077636Y-028132D01*
G01X0077636Y-028132D02*
G01X0077704Y-028132D01*
G01X0077704Y-028132D02*
G01X0077738Y-028152D01*
G01X0077738Y-028152D02*
G01X0077755Y-028173D01*
G01X0077755Y-028173D02*
G01X0077771Y-028214D01*
G01X0077771Y-028214D02*
G01X0077771Y-028317D01*
G01X0077771Y-028317D02*
G01X0077755Y-028359D01*
G01X0077755Y-028359D02*
G01X0077738Y-028379D01*
G01X0077738Y-028379D02*
G01X0077704Y-028400D01*
G01X0077704Y-028400D02*
G01X0077636Y-028400D01*
G01X0077636Y-028400D02*
G01X0077603Y-028379D01*
G01X0077603Y-028379D02*
G01X0077586Y-028359D01*
G01X0077586Y-028359D02*
G01X0077569Y-028317D01*
G01X0078463Y-022297D02*
G01X0078463Y-022647D01*
G01X0078463Y-022647D02*
G01X0078446Y-022689D01*
G01X0078446Y-022689D02*
G01X0078429Y-022709D01*
G01X0078429Y-022709D02*
G01X0078396Y-022730D01*
G01X0078396Y-022730D02*
G01X0078328Y-022730D01*
G01X0078328Y-022730D02*
G01X0078294Y-022709D01*
G01X0078294Y-022709D02*
G01X0078278Y-022689D01*
G01X0078278Y-022689D02*
G01X0078261Y-022647D01*
G01X0078261Y-022647D02*
G01X0078261Y-022297D01*
G01X0077940Y-022441D02*
G01X0077940Y-022730D01*
G01X0078025Y-022276D02*
G01X0078109Y-022585D01*
G01X0078109Y-022585D02*
G01X0077890Y-022585D01*
G01X0077586Y-022297D02*
G01X0077755Y-022297D01*
G01X0077755Y-022297D02*
G01X0077771Y-022503D01*
G01X0077771Y-022503D02*
G01X0077755Y-022482D01*
G01X0077755Y-022482D02*
G01X0077721Y-022462D01*
G01X0077721Y-022462D02*
G01X0077636Y-022462D01*
G01X0077636Y-022462D02*
G01X0077603Y-022482D01*
G01X0077603Y-022482D02*
G01X0077586Y-022503D01*
G01X0077586Y-022503D02*
G01X0077569Y-022544D01*
G01X0077569Y-022544D02*
G01X0077569Y-022647D01*
G01X0077569Y-022647D02*
G01X0077586Y-022689D01*
G01X0077586Y-022689D02*
G01X0077603Y-022709D01*
G01X0077603Y-022709D02*
G01X0077636Y-022730D01*
G01X0077636Y-022730D02*
G01X0077721Y-022730D01*
G01X0077721Y-022730D02*
G01X0077755Y-022709D01*
G01X0077755Y-022709D02*
G01X0077771Y-022689D01*
G01X0063968Y-022307D02*
G01X0063968Y-022657D01*
G01X0063968Y-022657D02*
G01X0063951Y-022699D01*
G01X0063951Y-022699D02*
G01X0063934Y-022719D01*
G01X0063934Y-022719D02*
G01X0063901Y-022740D01*
G01X0063901Y-022740D02*
G01X0063833Y-022740D01*
G01X0063833Y-022740D02*
G01X0063799Y-022719D01*
G01X0063799Y-022719D02*
G01X0063783Y-022699D01*
G01X0063783Y-022699D02*
G01X0063766Y-022657D01*
G01X0063766Y-022657D02*
G01X0063766Y-022307D01*
G01X0063631Y-022307D02*
G01X0063411Y-022307D01*
G01X0063411Y-022307D02*
G01X0063530Y-022472D01*
G01X0063530Y-022472D02*
G01X0063479Y-022472D01*
G01X0063479Y-022472D02*
G01X0063445Y-022492D01*
G01X0063445Y-022492D02*
G01X0063428Y-022513D01*
G01X0063428Y-022513D02*
G01X0063411Y-022554D01*
G01X0063411Y-022554D02*
G01X0063411Y-022657D01*
G01X0063411Y-022657D02*
G01X0063428Y-022699D01*
G01X0063428Y-022699D02*
G01X0063445Y-022719D01*
G01X0063445Y-022719D02*
G01X0063479Y-022740D01*
G01X0063479Y-022740D02*
G01X0063580Y-022740D01*
G01X0063580Y-022740D02*
G01X0063614Y-022719D01*
G01X0063614Y-022719D02*
G01X0063631Y-022699D01*
G01X0063108Y-022307D02*
G01X0063175Y-022307D01*
G01X0063175Y-022307D02*
G01X0063209Y-022327D01*
G01X0063209Y-022327D02*
G01X0063226Y-022348D01*
G01X0063226Y-022348D02*
G01X0063260Y-022410D01*
G01X0063260Y-022410D02*
G01X0063276Y-022492D01*
G01X0063276Y-022492D02*
G01X0063276Y-022657D01*
G01X0063276Y-022657D02*
G01X0063260Y-022699D01*
G01X0063260Y-022699D02*
G01X0063243Y-022719D01*
G01X0063243Y-022719D02*
G01X0063209Y-022740D01*
G01X0063209Y-022740D02*
G01X0063141Y-022740D01*
G01X0063141Y-022740D02*
G01X0063108Y-022719D01*
G01X0063108Y-022719D02*
G01X0063091Y-022699D01*
G01X0063091Y-022699D02*
G01X0063074Y-022657D01*
G01X0063074Y-022657D02*
G01X0063074Y-022554D01*
G01X0063074Y-022554D02*
G01X0063091Y-022513D01*
G01X0063091Y-022513D02*
G01X0063108Y-022492D01*
G01X0063108Y-022492D02*
G01X0063141Y-022472D01*
G01X0063141Y-022472D02*
G01X0063209Y-022472D01*
G01X0063209Y-022472D02*
G01X0063243Y-022492D01*
G01X0063243Y-022492D02*
G01X0063260Y-022513D01*
G01X0063260Y-022513D02*
G01X0063276Y-022554D01*
G01X0063958Y-028302D02*
G01X0063958Y-028652D01*
G01X0063958Y-028652D02*
G01X0063941Y-028694D01*
G01X0063941Y-028694D02*
G01X0063924Y-028714D01*
G01X0063924Y-028714D02*
G01X0063891Y-028735D01*
G01X0063891Y-028735D02*
G01X0063823Y-028735D01*
G01X0063823Y-028735D02*
G01X0063789Y-028714D01*
G01X0063789Y-028714D02*
G01X0063773Y-028694D01*
G01X0063773Y-028694D02*
G01X0063756Y-028652D01*
G01X0063756Y-028652D02*
G01X0063756Y-028302D01*
G01X0063621Y-028302D02*
G01X0063401Y-028302D01*
G01X0063401Y-028302D02*
G01X0063520Y-028467D01*
G01X0063520Y-028467D02*
G01X0063469Y-028467D01*
G01X0063469Y-028467D02*
G01X0063435Y-028487D01*
G01X0063435Y-028487D02*
G01X0063418Y-028508D01*
G01X0063418Y-028508D02*
G01X0063401Y-028549D01*
G01X0063401Y-028549D02*
G01X0063401Y-028652D01*
G01X0063401Y-028652D02*
G01X0063418Y-028694D01*
G01X0063418Y-028694D02*
G01X0063435Y-028714D01*
G01X0063435Y-028714D02*
G01X0063469Y-028735D01*
G01X0063469Y-028735D02*
G01X0063570Y-028735D01*
G01X0063570Y-028735D02*
G01X0063604Y-028714D01*
G01X0063604Y-028714D02*
G01X0063621Y-028694D01*
G01X0063283Y-028302D02*
G01X0063064Y-028302D01*
G01X0063064Y-028302D02*
G01X0063182Y-028467D01*
G01X0063182Y-028467D02*
G01X0063131Y-028467D01*
G01X0063131Y-028467D02*
G01X0063098Y-028487D01*
G01X0063098Y-028487D02*
G01X0063081Y-028508D01*
G01X0063081Y-028508D02*
G01X0063064Y-028549D01*
G01X0063064Y-028549D02*
G01X0063064Y-028652D01*
G01X0063064Y-028652D02*
G01X0063081Y-028694D01*
G01X0063081Y-028694D02*
G01X0063098Y-028714D01*
G01X0063098Y-028714D02*
G01X0063131Y-028735D01*
G01X0063131Y-028735D02*
G01X0063233Y-028735D01*
G01X0063233Y-028735D02*
G01X0063266Y-028714D01*
G01X0063266Y-028714D02*
G01X0063283Y-028694D01*
G01X0063938Y-034292D02*
G01X0063938Y-034642D01*
G01X0063938Y-034642D02*
G01X0063921Y-034684D01*
G01X0063921Y-034684D02*
G01X0063904Y-034704D01*
G01X0063904Y-034704D02*
G01X0063871Y-034725D01*
G01X0063871Y-034725D02*
G01X0063803Y-034725D01*
G01X0063803Y-034725D02*
G01X0063769Y-034704D01*
G01X0063769Y-034704D02*
G01X0063753Y-034684D01*
G01X0063753Y-034684D02*
G01X0063736Y-034642D01*
G01X0063736Y-034642D02*
G01X0063736Y-034292D01*
G01X0063601Y-034292D02*
G01X0063381Y-034292D01*
G01X0063381Y-034292D02*
G01X0063500Y-034457D01*
G01X0063500Y-034457D02*
G01X0063449Y-034457D01*
G01X0063449Y-034457D02*
G01X0063415Y-034477D01*
G01X0063415Y-034477D02*
G01X0063398Y-034498D01*
G01X0063398Y-034498D02*
G01X0063381Y-034539D01*
G01X0063381Y-034539D02*
G01X0063381Y-034642D01*
G01X0063381Y-034642D02*
G01X0063398Y-034684D01*
G01X0063398Y-034684D02*
G01X0063415Y-034704D01*
G01X0063415Y-034704D02*
G01X0063449Y-034725D01*
G01X0063449Y-034725D02*
G01X0063550Y-034725D01*
G01X0063550Y-034725D02*
G01X0063584Y-034704D01*
G01X0063584Y-034704D02*
G01X0063601Y-034684D01*
G01X0063044Y-034725D02*
G01X0063246Y-034725D01*
G01X0063145Y-034725D02*
G01X0063145Y-034292D01*
G01X0063145Y-034292D02*
G01X0063179Y-034354D01*
G01X0063179Y-034354D02*
G01X0063213Y-034395D01*
G01X0063213Y-034395D02*
G01X0063246Y-034415D01*
G01X0063973Y-040247D02*
G01X0063973Y-040597D01*
G01X0063973Y-040597D02*
G01X0063956Y-040639D01*
G01X0063956Y-040639D02*
G01X0063939Y-040659D01*
G01X0063939Y-040659D02*
G01X0063906Y-040680D01*
G01X0063906Y-040680D02*
G01X0063838Y-040680D01*
G01X0063838Y-040680D02*
G01X0063804Y-040659D01*
G01X0063804Y-040659D02*
G01X0063788Y-040639D01*
G01X0063788Y-040639D02*
G01X0063771Y-040597D01*
G01X0063771Y-040597D02*
G01X0063771Y-040247D01*
G01X0063619Y-040288D02*
G01X0063602Y-040267D01*
G01X0063602Y-040267D02*
G01X0063568Y-040247D01*
G01X0063568Y-040247D02*
G01X0063484Y-040247D01*
G01X0063484Y-040247D02*
G01X0063450Y-040267D01*
G01X0063450Y-040267D02*
G01X0063433Y-040288D01*
G01X0063433Y-040288D02*
G01X0063416Y-040329D01*
G01X0063416Y-040329D02*
G01X0063416Y-040370D01*
G01X0063416Y-040370D02*
G01X0063433Y-040432D01*
G01X0063433Y-040432D02*
G01X0063636Y-040680D01*
G01X0063636Y-040680D02*
G01X0063416Y-040680D01*
G01X0063214Y-040432D02*
G01X0063248Y-040412D01*
G01X0063248Y-040412D02*
G01X0063265Y-040391D01*
G01X0063265Y-040391D02*
G01X0063281Y-040350D01*
G01X0063281Y-040350D02*
G01X0063281Y-040329D01*
G01X0063281Y-040329D02*
G01X0063265Y-040288D01*
G01X0063265Y-040288D02*
G01X0063248Y-040267D01*
G01X0063248Y-040267D02*
G01X0063214Y-040247D01*
G01X0063214Y-040247D02*
G01X0063146Y-040247D01*
G01X0063146Y-040247D02*
G01X0063113Y-040267D01*
G01X0063113Y-040267D02*
G01X0063096Y-040288D01*
G01X0063096Y-040288D02*
G01X0063079Y-040329D01*
G01X0063079Y-040329D02*
G01X0063079Y-040350D01*
G01X0063079Y-040350D02*
G01X0063096Y-040391D01*
G01X0063096Y-040391D02*
G01X0063113Y-040412D01*
G01X0063113Y-040412D02*
G01X0063146Y-040432D01*
G01X0063146Y-040432D02*
G01X0063214Y-040432D01*
G01X0063214Y-040432D02*
G01X0063248Y-040453D01*
G01X0063248Y-040453D02*
G01X0063265Y-040474D01*
G01X0063265Y-040474D02*
G01X0063281Y-040515D01*
G01X0063281Y-040515D02*
G01X0063281Y-040597D01*
G01X0063281Y-040597D02*
G01X0063265Y-040639D01*
G01X0063265Y-040639D02*
G01X0063248Y-040659D01*
G01X0063248Y-040659D02*
G01X0063214Y-040680D01*
G01X0063214Y-040680D02*
G01X0063146Y-040680D01*
G01X0063146Y-040680D02*
G01X0063113Y-040659D01*
G01X0063113Y-040659D02*
G01X0063096Y-040639D01*
G01X0063096Y-040639D02*
G01X0063079Y-040597D01*
G01X0063079Y-040597D02*
G01X0063079Y-040515D01*
G01X0063079Y-040515D02*
G01X0063096Y-040474D01*
G01X0063096Y-040474D02*
G01X0063113Y-040453D01*
G01X0063113Y-040453D02*
G01X0063146Y-040432D01*
G01X0063923Y-046687D02*
G01X0063923Y-047037D01*
G01X0063923Y-047037D02*
G01X0063906Y-047079D01*
G01X0063906Y-047079D02*
G01X0063889Y-047099D01*
G01X0063889Y-047099D02*
G01X0063856Y-047120D01*
G01X0063856Y-047120D02*
G01X0063788Y-047120D01*
G01X0063788Y-047120D02*
G01X0063754Y-047099D01*
G01X0063754Y-047099D02*
G01X0063738Y-047079D01*
G01X0063738Y-047079D02*
G01X0063721Y-047037D01*
G01X0063721Y-047037D02*
G01X0063721Y-046687D01*
G01X0063569Y-046728D02*
G01X0063552Y-046707D01*
G01X0063552Y-046707D02*
G01X0063518Y-046687D01*
G01X0063518Y-046687D02*
G01X0063434Y-046687D01*
G01X0063434Y-046687D02*
G01X0063400Y-046707D01*
G01X0063400Y-046707D02*
G01X0063383Y-046728D01*
G01X0063383Y-046728D02*
G01X0063366Y-046769D01*
G01X0063366Y-046769D02*
G01X0063366Y-046810D01*
G01X0063366Y-046810D02*
G01X0063383Y-046872D01*
G01X0063383Y-046872D02*
G01X0063586Y-047120D01*
G01X0063586Y-047120D02*
G01X0063366Y-047120D01*
G01X0063198Y-047120D02*
G01X0063130Y-047120D01*
G01X0063130Y-047120D02*
G01X0063096Y-047099D01*
G01X0063096Y-047099D02*
G01X0063080Y-047079D01*
G01X0063080Y-047079D02*
G01X0063046Y-047017D01*
G01X0063046Y-047017D02*
G01X0063029Y-046934D01*
G01X0063029Y-046934D02*
G01X0063029Y-046769D01*
G01X0063029Y-046769D02*
G01X0063046Y-046728D01*
G01X0063046Y-046728D02*
G01X0063063Y-046707D01*
G01X0063063Y-046707D02*
G01X0063096Y-046687D01*
G01X0063096Y-046687D02*
G01X0063164Y-046687D01*
G01X0063164Y-046687D02*
G01X0063198Y-046707D01*
G01X0063198Y-046707D02*
G01X0063215Y-046728D01*
G01X0063215Y-046728D02*
G01X0063231Y-046769D01*
G01X0063231Y-046769D02*
G01X0063231Y-046872D01*
G01X0063231Y-046872D02*
G01X0063215Y-046914D01*
G01X0063215Y-046914D02*
G01X0063198Y-046934D01*
G01X0063198Y-046934D02*
G01X0063164Y-046955D01*
G01X0063164Y-046955D02*
G01X0063096Y-046955D01*
G01X0063096Y-046955D02*
G01X0063063Y-046934D01*
G01X0063063Y-046934D02*
G01X0063046Y-046914D01*
G01X0063046Y-046914D02*
G01X0063029Y-046872D01*
G01X0064293Y-052657D02*
G01X0064293Y-053007D01*
G01X0064293Y-053007D02*
G01X0064276Y-053049D01*
G01X0064276Y-053049D02*
G01X0064259Y-053069D01*
G01X0064259Y-053069D02*
G01X0064226Y-053090D01*
G01X0064226Y-053090D02*
G01X0064158Y-053090D01*
G01X0064158Y-053090D02*
G01X0064124Y-053069D01*
G01X0064124Y-053069D02*
G01X0064108Y-053049D01*
G01X0064108Y-053049D02*
G01X0064091Y-053007D01*
G01X0064091Y-053007D02*
G01X0064091Y-052657D01*
G01X0063736Y-053090D02*
G01X0063939Y-053090D01*
G01X0063838Y-053090D02*
G01X0063838Y-052657D01*
G01X0063838Y-052657D02*
G01X0063871Y-052719D01*
G01X0063871Y-052719D02*
G01X0063905Y-052760D01*
G01X0063905Y-052760D02*
G01X0063939Y-052780D01*
G01X0063568Y-053090D02*
G01X0063500Y-053090D01*
G01X0063500Y-053090D02*
G01X0063466Y-053069D01*
G01X0063466Y-053069D02*
G01X0063450Y-053049D01*
G01X0063450Y-053049D02*
G01X0063416Y-052987D01*
G01X0063416Y-052987D02*
G01X0063399Y-052904D01*
G01X0063399Y-052904D02*
G01X0063399Y-052739D01*
G01X0063399Y-052739D02*
G01X0063416Y-052698D01*
G01X0063416Y-052698D02*
G01X0063433Y-052677D01*
G01X0063433Y-052677D02*
G01X0063466Y-052657D01*
G01X0063466Y-052657D02*
G01X0063534Y-052657D01*
G01X0063534Y-052657D02*
G01X0063568Y-052677D01*
G01X0063568Y-052677D02*
G01X0063585Y-052698D01*
G01X0063585Y-052698D02*
G01X0063601Y-052739D01*
G01X0063601Y-052739D02*
G01X0063601Y-052842D01*
G01X0063601Y-052842D02*
G01X0063585Y-052884D01*
G01X0063585Y-052884D02*
G01X0063568Y-052904D01*
G01X0063568Y-052904D02*
G01X0063534Y-052925D01*
G01X0063534Y-052925D02*
G01X0063466Y-052925D01*
G01X0063466Y-052925D02*
G01X0063433Y-052904D01*
G01X0063433Y-052904D02*
G01X0063416Y-052884D01*
G01X0063416Y-052884D02*
G01X0063399Y-052842D01*
G01X0049723Y-040687D02*
G01X0049723Y-041037D01*
G01X0049723Y-041037D02*
G01X0049706Y-041079D01*
G01X0049706Y-041079D02*
G01X0049689Y-041099D01*
G01X0049689Y-041099D02*
G01X0049656Y-041120D01*
G01X0049656Y-041120D02*
G01X0049588Y-041120D01*
G01X0049588Y-041120D02*
G01X0049554Y-041099D01*
G01X0049554Y-041099D02*
G01X0049538Y-041079D01*
G01X0049538Y-041079D02*
G01X0049521Y-041037D01*
G01X0049521Y-041037D02*
G01X0049521Y-040687D01*
G01X0049386Y-040687D02*
G01X0049166Y-040687D01*
G01X0049166Y-040687D02*
G01X0049285Y-040852D01*
G01X0049285Y-040852D02*
G01X0049234Y-040852D01*
G01X0049234Y-040852D02*
G01X0049200Y-040872D01*
G01X0049200Y-040872D02*
G01X0049183Y-040893D01*
G01X0049183Y-040893D02*
G01X0049166Y-040934D01*
G01X0049166Y-040934D02*
G01X0049166Y-041037D01*
G01X0049166Y-041037D02*
G01X0049183Y-041079D01*
G01X0049183Y-041079D02*
G01X0049200Y-041099D01*
G01X0049200Y-041099D02*
G01X0049234Y-041120D01*
G01X0049234Y-041120D02*
G01X0049335Y-041120D01*
G01X0049335Y-041120D02*
G01X0049369Y-041099D01*
G01X0049369Y-041099D02*
G01X0049386Y-041079D01*
G01X0048947Y-040687D02*
G01X0048913Y-040687D01*
G01X0048913Y-040687D02*
G01X0048880Y-040707D01*
G01X0048880Y-040707D02*
G01X0048863Y-040728D01*
G01X0048863Y-040728D02*
G01X0048846Y-040769D01*
G01X0048846Y-040769D02*
G01X0048829Y-040852D01*
G01X0048829Y-040852D02*
G01X0048829Y-040955D01*
G01X0048829Y-040955D02*
G01X0048846Y-041037D01*
G01X0048846Y-041037D02*
G01X0048863Y-041079D01*
G01X0048863Y-041079D02*
G01X0048880Y-041099D01*
G01X0048880Y-041099D02*
G01X0048913Y-041120D01*
G01X0048913Y-041120D02*
G01X0048947Y-041120D01*
G01X0048947Y-041120D02*
G01X0048981Y-041099D01*
G01X0048981Y-041099D02*
G01X0048998Y-041079D01*
G01X0048998Y-041079D02*
G01X0049015Y-041037D01*
G01X0049015Y-041037D02*
G01X0049031Y-040955D01*
G01X0049031Y-040955D02*
G01X0049031Y-040852D01*
G01X0049031Y-040852D02*
G01X0049015Y-040769D01*
G01X0049015Y-040769D02*
G01X0048998Y-040728D01*
G01X0048998Y-040728D02*
G01X0048981Y-040707D01*
G01X0048981Y-040707D02*
G01X0048947Y-040687D01*
G01X0049274Y-034282D02*
G01X0049274Y-034632D01*
G01X0049274Y-034632D02*
G01X0049258Y-034674D01*
G01X0049258Y-034674D02*
G01X0049241Y-034694D01*
G01X0049241Y-034694D02*
G01X0049207Y-034715D01*
G01X0049207Y-034715D02*
G01X0049139Y-034715D01*
G01X0049139Y-034715D02*
G01X0049106Y-034694D01*
G01X0049106Y-034694D02*
G01X0049089Y-034674D01*
G01X0049089Y-034674D02*
G01X0049072Y-034632D01*
G01X0049072Y-034632D02*
G01X0049072Y-034282D01*
G01X0048751Y-034426D02*
G01X0048751Y-034715D01*
G01X0048836Y-034261D02*
G01X0048920Y-034570D01*
G01X0048920Y-034570D02*
G01X0048701Y-034570D01*
G01X0049339Y-028252D02*
G01X0049339Y-028602D01*
G01X0049339Y-028602D02*
G01X0049323Y-028644D01*
G01X0049323Y-028644D02*
G01X0049306Y-028664D01*
G01X0049306Y-028664D02*
G01X0049272Y-028685D01*
G01X0049272Y-028685D02*
G01X0049204Y-028685D01*
G01X0049204Y-028685D02*
G01X0049171Y-028664D01*
G01X0049171Y-028664D02*
G01X0049154Y-028644D01*
G01X0049154Y-028644D02*
G01X0049137Y-028602D01*
G01X0049137Y-028602D02*
G01X0049137Y-028252D01*
G01X0049002Y-028252D02*
G01X0048766Y-028252D01*
G01X0048766Y-028252D02*
G01X0048918Y-028685D01*
G01X0034794Y-034262D02*
G01X0034794Y-034612D01*
G01X0034794Y-034612D02*
G01X0034778Y-034654D01*
G01X0034778Y-034654D02*
G01X0034761Y-034674D01*
G01X0034761Y-034674D02*
G01X0034727Y-034695D01*
G01X0034727Y-034695D02*
G01X0034659Y-034695D01*
G01X0034659Y-034695D02*
G01X0034626Y-034674D01*
G01X0034626Y-034674D02*
G01X0034609Y-034654D01*
G01X0034609Y-034654D02*
G01X0034592Y-034612D01*
G01X0034592Y-034612D02*
G01X0034592Y-034262D01*
G01X0034271Y-034262D02*
G01X0034339Y-034262D01*
G01X0034339Y-034262D02*
G01X0034373Y-034282D01*
G01X0034373Y-034282D02*
G01X0034390Y-034303D01*
G01X0034390Y-034303D02*
G01X0034423Y-034365D01*
G01X0034423Y-034365D02*
G01X0034440Y-034447D01*
G01X0034440Y-034447D02*
G01X0034440Y-034612D01*
G01X0034440Y-034612D02*
G01X0034423Y-034654D01*
G01X0034423Y-034654D02*
G01X0034406Y-034674D01*
G01X0034406Y-034674D02*
G01X0034373Y-034695D01*
G01X0034373Y-034695D02*
G01X0034305Y-034695D01*
G01X0034305Y-034695D02*
G01X0034271Y-034674D01*
G01X0034271Y-034674D02*
G01X0034255Y-034654D01*
G01X0034255Y-034654D02*
G01X0034238Y-034612D01*
G01X0034238Y-034612D02*
G01X0034238Y-034509D01*
G01X0034238Y-034509D02*
G01X0034255Y-034468D01*
G01X0034255Y-034468D02*
G01X0034271Y-034447D01*
G01X0034271Y-034447D02*
G01X0034305Y-034427D01*
G01X0034305Y-034427D02*
G01X0034373Y-034427D01*
G01X0034373Y-034427D02*
G01X0034406Y-034447D01*
G01X0034406Y-034447D02*
G01X0034423Y-034468D01*
G01X0034423Y-034468D02*
G01X0034440Y-034509D01*
G01X0034963Y-040252D02*
G01X0034963Y-040602D01*
G01X0034963Y-040602D02*
G01X0034946Y-040644D01*
G01X0034946Y-040644D02*
G01X0034929Y-040664D01*
G01X0034929Y-040664D02*
G01X0034896Y-040685D01*
G01X0034896Y-040685D02*
G01X0034828Y-040685D01*
G01X0034828Y-040685D02*
G01X0034794Y-040664D01*
G01X0034794Y-040664D02*
G01X0034778Y-040644D01*
G01X0034778Y-040644D02*
G01X0034761Y-040602D01*
G01X0034761Y-040602D02*
G01X0034761Y-040252D01*
G01X0034406Y-040685D02*
G01X0034609Y-040685D01*
G01X0034508Y-040685D02*
G01X0034508Y-040252D01*
G01X0034508Y-040252D02*
G01X0034541Y-040314D01*
G01X0034541Y-040314D02*
G01X0034575Y-040355D01*
G01X0034575Y-040355D02*
G01X0034609Y-040375D01*
G01X0034069Y-040685D02*
G01X0034271Y-040685D01*
G01X0034170Y-040685D02*
G01X0034170Y-040252D01*
G01X0034170Y-040252D02*
G01X0034204Y-040314D01*
G01X0034204Y-040314D02*
G01X0034238Y-040355D01*
G01X0034238Y-040355D02*
G01X0034271Y-040375D01*
G01X0050448Y-046312D02*
G01X0050448Y-046662D01*
G01X0050448Y-046662D02*
G01X0050431Y-046704D01*
G01X0050431Y-046704D02*
G01X0050414Y-046724D01*
G01X0050414Y-046724D02*
G01X0050381Y-046745D01*
G01X0050381Y-046745D02*
G01X0050313Y-046745D01*
G01X0050313Y-046745D02*
G01X0050279Y-046724D01*
G01X0050279Y-046724D02*
G01X0050263Y-046704D01*
G01X0050263Y-046704D02*
G01X0050246Y-046662D01*
G01X0050246Y-046662D02*
G01X0050246Y-046312D01*
G01X0050094Y-046353D02*
G01X0050077Y-046332D01*
G01X0050077Y-046332D02*
G01X0050043Y-046312D01*
G01X0050043Y-046312D02*
G01X0049959Y-046312D01*
G01X0049959Y-046312D02*
G01X0049925Y-046332D01*
G01X0049925Y-046332D02*
G01X0049908Y-046353D01*
G01X0049908Y-046353D02*
G01X0049891Y-046394D01*
G01X0049891Y-046394D02*
G01X0049891Y-046435D01*
G01X0049891Y-046435D02*
G01X0049908Y-046497D01*
G01X0049908Y-046497D02*
G01X0050111Y-046745D01*
G01X0050111Y-046745D02*
G01X0049891Y-046745D01*
G01X0049773Y-046312D02*
G01X0049537Y-046312D01*
G01X0049537Y-046312D02*
G01X0049689Y-046745D01*
G01X0050299Y-052282D02*
G01X0050299Y-052632D01*
G01X0050299Y-052632D02*
G01X0050283Y-052674D01*
G01X0050283Y-052674D02*
G01X0050266Y-052694D01*
G01X0050266Y-052694D02*
G01X0050232Y-052715D01*
G01X0050232Y-052715D02*
G01X0050164Y-052715D01*
G01X0050164Y-052715D02*
G01X0050131Y-052694D01*
G01X0050131Y-052694D02*
G01X0050114Y-052674D01*
G01X0050114Y-052674D02*
G01X0050097Y-052632D01*
G01X0050097Y-052632D02*
G01X0050097Y-052282D01*
G01X0049962Y-052282D02*
G01X0049743Y-052282D01*
G01X0049743Y-052282D02*
G01X0049861Y-052447D01*
G01X0049861Y-052447D02*
G01X0049810Y-052447D01*
G01X0049810Y-052447D02*
G01X0049776Y-052467D01*
G01X0049776Y-052467D02*
G01X0049760Y-052488D01*
G01X0049760Y-052488D02*
G01X0049743Y-052529D01*
G01X0049743Y-052529D02*
G01X0049743Y-052632D01*
G01X0049743Y-052632D02*
G01X0049760Y-052674D01*
G01X0049760Y-052674D02*
G01X0049776Y-052694D01*
G01X0049776Y-052694D02*
G01X0049810Y-052715D01*
G01X0049810Y-052715D02*
G01X0049911Y-052715D01*
G01X0049911Y-052715D02*
G01X0049945Y-052694D01*
G01X0049945Y-052694D02*
G01X0049962Y-052674D01*
G01X0034794Y-052277D02*
G01X0034794Y-052627D01*
G01X0034794Y-052627D02*
G01X0034778Y-052669D01*
G01X0034778Y-052669D02*
G01X0034761Y-052689D01*
G01X0034761Y-052689D02*
G01X0034727Y-052710D01*
G01X0034727Y-052710D02*
G01X0034659Y-052710D01*
G01X0034659Y-052710D02*
G01X0034626Y-052689D01*
G01X0034626Y-052689D02*
G01X0034609Y-052669D01*
G01X0034609Y-052669D02*
G01X0034592Y-052627D01*
G01X0034592Y-052627D02*
G01X0034592Y-052277D01*
G01X0034440Y-052318D02*
G01X0034423Y-052297D01*
G01X0034423Y-052297D02*
G01X0034390Y-052277D01*
G01X0034390Y-052277D02*
G01X0034305Y-052277D01*
G01X0034305Y-052277D02*
G01X0034271Y-052297D01*
G01X0034271Y-052297D02*
G01X0034255Y-052318D01*
G01X0034255Y-052318D02*
G01X0034238Y-052359D01*
G01X0034238Y-052359D02*
G01X0034238Y-052400D01*
G01X0034238Y-052400D02*
G01X0034255Y-052462D01*
G01X0034255Y-052462D02*
G01X0034457Y-052710D01*
G01X0034457Y-052710D02*
G01X0034238Y-052710D01*
G01X0021963Y-052282D02*
G01X0021963Y-052632D01*
G01X0021963Y-052632D02*
G01X0021946Y-052674D01*
G01X0021946Y-052674D02*
G01X0021929Y-052694D01*
G01X0021929Y-052694D02*
G01X0021896Y-052715D01*
G01X0021896Y-052715D02*
G01X0021828Y-052715D01*
G01X0021828Y-052715D02*
G01X0021794Y-052694D01*
G01X0021794Y-052694D02*
G01X0021778Y-052674D01*
G01X0021778Y-052674D02*
G01X0021761Y-052632D01*
G01X0021761Y-052632D02*
G01X0021761Y-052282D01*
G01X0021406Y-052715D02*
G01X0021609Y-052715D01*
G01X0021508Y-052715D02*
G01X0021508Y-052282D01*
G01X0021508Y-052282D02*
G01X0021541Y-052344D01*
G01X0021541Y-052344D02*
G01X0021575Y-052385D01*
G01X0021575Y-052385D02*
G01X0021609Y-052405D01*
G01X0021271Y-052323D02*
G01X0021255Y-052302D01*
G01X0021255Y-052302D02*
G01X0021221Y-052282D01*
G01X0021221Y-052282D02*
G01X0021136Y-052282D01*
G01X0021136Y-052282D02*
G01X0021103Y-052302D01*
G01X0021103Y-052302D02*
G01X0021086Y-052323D01*
G01X0021086Y-052323D02*
G01X0021069Y-052364D01*
G01X0021069Y-052364D02*
G01X0021069Y-052405D01*
G01X0021069Y-052405D02*
G01X0021086Y-052467D01*
G01X0021086Y-052467D02*
G01X0021288Y-052715D01*
G01X0021288Y-052715D02*
G01X0021069Y-052715D01*
G01X0021908Y-040292D02*
G01X0021908Y-040642D01*
G01X0021908Y-040642D02*
G01X0021891Y-040684D01*
G01X0021891Y-040684D02*
G01X0021874Y-040704D01*
G01X0021874Y-040704D02*
G01X0021841Y-040725D01*
G01X0021841Y-040725D02*
G01X0021773Y-040725D01*
G01X0021773Y-040725D02*
G01X0021739Y-040704D01*
G01X0021739Y-040704D02*
G01X0021723Y-040684D01*
G01X0021723Y-040684D02*
G01X0021706Y-040642D01*
G01X0021706Y-040642D02*
G01X0021706Y-040292D01*
G01X0021351Y-040725D02*
G01X0021554Y-040725D01*
G01X0021453Y-040725D02*
G01X0021453Y-040292D01*
G01X0021453Y-040292D02*
G01X0021486Y-040354D01*
G01X0021486Y-040354D02*
G01X0021520Y-040395D01*
G01X0021520Y-040395D02*
G01X0021554Y-040415D01*
G01X0021132Y-040292D02*
G01X0021098Y-040292D01*
G01X0021098Y-040292D02*
G01X0021065Y-040312D01*
G01X0021065Y-040312D02*
G01X0021048Y-040333D01*
G01X0021048Y-040333D02*
G01X0021031Y-040374D01*
G01X0021031Y-040374D02*
G01X0021014Y-040457D01*
G01X0021014Y-040457D02*
G01X0021014Y-040560D01*
G01X0021014Y-040560D02*
G01X0021031Y-040642D01*
G01X0021031Y-040642D02*
G01X0021048Y-040684D01*
G01X0021048Y-040684D02*
G01X0021065Y-040704D01*
G01X0021065Y-040704D02*
G01X0021098Y-040725D01*
G01X0021098Y-040725D02*
G01X0021132Y-040725D01*
G01X0021132Y-040725D02*
G01X0021166Y-040704D01*
G01X0021166Y-040704D02*
G01X0021183Y-040684D01*
G01X0021183Y-040684D02*
G01X0021200Y-040642D01*
G01X0021200Y-040642D02*
G01X0021216Y-040560D01*
G01X0021216Y-040560D02*
G01X0021216Y-040457D01*
G01X0021216Y-040457D02*
G01X0021200Y-040374D01*
G01X0021200Y-040374D02*
G01X0021183Y-040333D01*
G01X0021183Y-040333D02*
G01X0021166Y-040312D01*
G01X0021166Y-040312D02*
G01X0021132Y-040292D01*
G01X0010029Y-040242D02*
G01X0010029Y-040592D01*
G01X0010029Y-040592D02*
G01X0010013Y-040634D01*
G01X0010013Y-040634D02*
G01X0009996Y-040654D01*
G01X0009996Y-040654D02*
G01X0009962Y-040675D01*
G01X0009962Y-040675D02*
G01X0009894Y-040675D01*
G01X0009894Y-040675D02*
G01X0009861Y-040654D01*
G01X0009861Y-040654D02*
G01X0009844Y-040634D01*
G01X0009844Y-040634D02*
G01X0009827Y-040592D01*
G01X0009827Y-040592D02*
G01X0009827Y-040242D01*
G01X0009641Y-040675D02*
G01X0009574Y-040675D01*
G01X0009574Y-040675D02*
G01X0009540Y-040654D01*
G01X0009540Y-040654D02*
G01X0009523Y-040634D01*
G01X0009523Y-040634D02*
G01X0009490Y-040572D01*
G01X0009490Y-040572D02*
G01X0009473Y-040489D01*
G01X0009473Y-040489D02*
G01X0009473Y-040324D01*
G01X0009473Y-040324D02*
G01X0009490Y-040283D01*
G01X0009490Y-040283D02*
G01X0009506Y-040262D01*
G01X0009506Y-040262D02*
G01X0009540Y-040242D01*
G01X0009540Y-040242D02*
G01X0009608Y-040242D01*
G01X0009608Y-040242D02*
G01X0009641Y-040262D01*
G01X0009641Y-040262D02*
G01X0009658Y-040283D01*
G01X0009658Y-040283D02*
G01X0009675Y-040324D01*
G01X0009675Y-040324D02*
G01X0009675Y-040427D01*
G01X0009675Y-040427D02*
G01X0009658Y-040469D01*
G01X0009658Y-040469D02*
G01X0009641Y-040489D01*
G01X0009641Y-040489D02*
G01X0009608Y-040510D01*
G01X0009608Y-040510D02*
G01X0009540Y-040510D01*
G01X0009540Y-040510D02*
G01X0009506Y-040489D01*
G01X0009506Y-040489D02*
G01X0009490Y-040469D01*
G01X0009490Y-040469D02*
G01X0009473Y-040427D01*
G01X0034938Y-028222D02*
G01X0034938Y-028572D01*
G01X0034938Y-028572D02*
G01X0034921Y-028614D01*
G01X0034921Y-028614D02*
G01X0034904Y-028634D01*
G01X0034904Y-028634D02*
G01X0034871Y-028655D01*
G01X0034871Y-028655D02*
G01X0034803Y-028655D01*
G01X0034803Y-028655D02*
G01X0034769Y-028634D01*
G01X0034769Y-028634D02*
G01X0034753Y-028614D01*
G01X0034753Y-028614D02*
G01X0034736Y-028572D01*
G01X0034736Y-028572D02*
G01X0034736Y-028222D01*
G01X0034601Y-028222D02*
G01X0034381Y-028222D01*
G01X0034381Y-028222D02*
G01X0034500Y-028387D01*
G01X0034500Y-028387D02*
G01X0034449Y-028387D01*
G01X0034449Y-028387D02*
G01X0034415Y-028407D01*
G01X0034415Y-028407D02*
G01X0034398Y-028428D01*
G01X0034398Y-028428D02*
G01X0034381Y-028469D01*
G01X0034381Y-028469D02*
G01X0034381Y-028572D01*
G01X0034381Y-028572D02*
G01X0034398Y-028614D01*
G01X0034398Y-028614D02*
G01X0034415Y-028634D01*
G01X0034415Y-028634D02*
G01X0034449Y-028655D01*
G01X0034449Y-028655D02*
G01X0034550Y-028655D01*
G01X0034550Y-028655D02*
G01X0034584Y-028634D01*
G01X0034584Y-028634D02*
G01X0034601Y-028614D01*
G01X0034246Y-028263D02*
G01X0034230Y-028242D01*
G01X0034230Y-028242D02*
G01X0034196Y-028222D01*
G01X0034196Y-028222D02*
G01X0034111Y-028222D01*
G01X0034111Y-028222D02*
G01X0034078Y-028242D01*
G01X0034078Y-028242D02*
G01X0034061Y-028263D01*
G01X0034061Y-028263D02*
G01X0034044Y-028304D01*
G01X0034044Y-028304D02*
G01X0034044Y-028345D01*
G01X0034044Y-028345D02*
G01X0034061Y-028407D01*
G01X0034061Y-028407D02*
G01X0034263Y-028655D01*
G01X0034263Y-028655D02*
G01X0034044Y-028655D01*
G01X0021754Y-019257D02*
G01X0021754Y-019607D01*
G01X0021754Y-019607D02*
G01X0021738Y-019649D01*
G01X0021738Y-019649D02*
G01X0021721Y-019669D01*
G01X0021721Y-019669D02*
G01X0021687Y-019690D01*
G01X0021687Y-019690D02*
G01X0021619Y-019690D01*
G01X0021619Y-019690D02*
G01X0021586Y-019669D01*
G01X0021586Y-019669D02*
G01X0021569Y-019649D01*
G01X0021569Y-019649D02*
G01X0021552Y-019607D01*
G01X0021552Y-019607D02*
G01X0021552Y-019257D01*
G01X0021215Y-019257D02*
G01X0021383Y-019257D01*
G01X0021383Y-019257D02*
G01X0021400Y-019463D01*
G01X0021400Y-019463D02*
G01X0021383Y-019442D01*
G01X0021383Y-019442D02*
G01X0021350Y-019422D01*
G01X0021350Y-019422D02*
G01X0021265Y-019422D01*
G01X0021265Y-019422D02*
G01X0021231Y-019442D01*
G01X0021231Y-019442D02*
G01X0021215Y-019463D01*
G01X0021215Y-019463D02*
G01X0021198Y-019504D01*
G01X0021198Y-019504D02*
G01X0021198Y-019607D01*
G01X0021198Y-019607D02*
G01X0021215Y-019649D01*
G01X0021215Y-019649D02*
G01X0021231Y-019669D01*
G01X0021231Y-019669D02*
G01X0021265Y-019690D01*
G01X0021265Y-019690D02*
G01X0021350Y-019690D01*
G01X0021350Y-019690D02*
G01X0021383Y-019669D01*
G01X0021383Y-019669D02*
G01X0021400Y-019649D01*
G01X0021918Y-013312D02*
G01X0021918Y-013662D01*
G01X0021918Y-013662D02*
G01X0021901Y-013704D01*
G01X0021901Y-013704D02*
G01X0021884Y-013724D01*
G01X0021884Y-013724D02*
G01X0021851Y-013745D01*
G01X0021851Y-013745D02*
G01X0021783Y-013745D01*
G01X0021783Y-013745D02*
G01X0021749Y-013724D01*
G01X0021749Y-013724D02*
G01X0021733Y-013704D01*
G01X0021733Y-013704D02*
G01X0021716Y-013662D01*
G01X0021716Y-013662D02*
G01X0021716Y-013312D01*
G01X0021361Y-013745D02*
G01X0021564Y-013745D01*
G01X0021463Y-013745D02*
G01X0021463Y-013312D01*
G01X0021463Y-013312D02*
G01X0021496Y-013374D01*
G01X0021496Y-013374D02*
G01X0021530Y-013415D01*
G01X0021530Y-013415D02*
G01X0021564Y-013435D01*
G01X0021058Y-013312D02*
G01X0021125Y-013312D01*
G01X0021125Y-013312D02*
G01X0021159Y-013332D01*
G01X0021159Y-013332D02*
G01X0021176Y-013353D01*
G01X0021176Y-013353D02*
G01X0021210Y-013415D01*
G01X0021210Y-013415D02*
G01X0021226Y-013497D01*
G01X0021226Y-013497D02*
G01X0021226Y-013662D01*
G01X0021226Y-013662D02*
G01X0021210Y-013704D01*
G01X0021210Y-013704D02*
G01X0021193Y-013724D01*
G01X0021193Y-013724D02*
G01X0021159Y-013745D01*
G01X0021159Y-013745D02*
G01X0021091Y-013745D01*
G01X0021091Y-013745D02*
G01X0021058Y-013724D01*
G01X0021058Y-013724D02*
G01X0021041Y-013704D01*
G01X0021041Y-013704D02*
G01X0021024Y-013662D01*
G01X0021024Y-013662D02*
G01X0021024Y-013559D01*
G01X0021024Y-013559D02*
G01X0021041Y-013518D01*
G01X0021041Y-013518D02*
G01X0021058Y-013497D01*
G01X0021058Y-013497D02*
G01X0021091Y-013477D01*
G01X0021091Y-013477D02*
G01X0021159Y-013477D01*
G01X0021159Y-013477D02*
G01X0021193Y-013497D01*
G01X0021193Y-013497D02*
G01X0021210Y-013518D01*
G01X0021210Y-013518D02*
G01X0021226Y-013559D01*
G01X0010058Y-019257D02*
G01X0010058Y-019607D01*
G01X0010058Y-019607D02*
G01X0010041Y-019649D01*
G01X0010041Y-019649D02*
G01X0010024Y-019669D01*
G01X0010024Y-019669D02*
G01X0009991Y-019690D01*
G01X0009991Y-019690D02*
G01X0009923Y-019690D01*
G01X0009923Y-019690D02*
G01X0009889Y-019669D01*
G01X0009889Y-019669D02*
G01X0009873Y-019649D01*
G01X0009873Y-019649D02*
G01X0009856Y-019607D01*
G01X0009856Y-019607D02*
G01X0009856Y-019257D01*
G01X0009501Y-019690D02*
G01X0009704Y-019690D01*
G01X0009603Y-019690D02*
G01X0009603Y-019257D01*
G01X0009603Y-019257D02*
G01X0009636Y-019319D01*
G01X0009636Y-019319D02*
G01X0009670Y-019360D01*
G01X0009670Y-019360D02*
G01X0009704Y-019380D01*
G01X0009181Y-019257D02*
G01X0009350Y-019257D01*
G01X0009350Y-019257D02*
G01X0009366Y-019463D01*
G01X0009366Y-019463D02*
G01X0009350Y-019442D01*
G01X0009350Y-019442D02*
G01X0009316Y-019422D01*
G01X0009316Y-019422D02*
G01X0009231Y-019422D01*
G01X0009231Y-019422D02*
G01X0009198Y-019442D01*
G01X0009198Y-019442D02*
G01X0009181Y-019463D01*
G01X0009181Y-019463D02*
G01X0009164Y-019504D01*
G01X0009164Y-019504D02*
G01X0009164Y-019607D01*
G01X0009164Y-019607D02*
G01X0009181Y-019649D01*
G01X0009181Y-019649D02*
G01X0009198Y-019669D01*
G01X0009198Y-019669D02*
G01X0009231Y-019690D01*
G01X0009231Y-019690D02*
G01X0009316Y-019690D01*
G01X0009316Y-019690D02*
G01X0009350Y-019669D01*
G01X0009350Y-019669D02*
G01X0009366Y-019649D01*
G01X0010063Y-013292D02*
G01X0010063Y-013642D01*
G01X0010063Y-013642D02*
G01X0010046Y-013684D01*
G01X0010046Y-013684D02*
G01X0010029Y-013704D01*
G01X0010029Y-013704D02*
G01X0009996Y-013725D01*
G01X0009996Y-013725D02*
G01X0009928Y-013725D01*
G01X0009928Y-013725D02*
G01X0009894Y-013704D01*
G01X0009894Y-013704D02*
G01X0009878Y-013684D01*
G01X0009878Y-013684D02*
G01X0009861Y-013642D01*
G01X0009861Y-013642D02*
G01X0009861Y-013292D01*
G01X0009709Y-013333D02*
G01X0009692Y-013312D01*
G01X0009692Y-013312D02*
G01X0009658Y-013292D01*
G01X0009658Y-013292D02*
G01X0009574Y-013292D01*
G01X0009574Y-013292D02*
G01X0009540Y-013312D01*
G01X0009540Y-013312D02*
G01X0009523Y-013333D01*
G01X0009523Y-013333D02*
G01X0009506Y-013374D01*
G01X0009506Y-013374D02*
G01X0009506Y-013415D01*
G01X0009506Y-013415D02*
G01X0009523Y-013477D01*
G01X0009523Y-013477D02*
G01X0009726Y-013725D01*
G01X0009726Y-013725D02*
G01X0009506Y-013725D01*
G01X0009388Y-013292D02*
G01X0009169Y-013292D01*
G01X0009169Y-013292D02*
G01X0009287Y-013457D01*
G01X0009287Y-013457D02*
G01X0009236Y-013457D01*
G01X0009236Y-013457D02*
G01X0009203Y-013477D01*
G01X0009203Y-013477D02*
G01X0009186Y-013498D01*
G01X0009186Y-013498D02*
G01X0009169Y-013539D01*
G01X0009169Y-013539D02*
G01X0009169Y-013642D01*
G01X0009169Y-013642D02*
G01X0009186Y-013684D01*
G01X0009186Y-013684D02*
G01X0009203Y-013704D01*
G01X0009203Y-013704D02*
G01X0009236Y-013725D01*
G01X0009236Y-013725D02*
G01X0009338Y-013725D01*
G01X0009338Y-013725D02*
G01X0009371Y-013704D01*
G01X0009371Y-013704D02*
G01X0009388Y-013684D01*
G54D12*
G01X0018637Y-053026D02*
G01X0018637Y-051474D01*
G01X0018637Y-051474D02*
G01X0017863Y-051474D01*
G01X0017863Y-051474D02*
G01X0017863Y-053026D01*
G01X0017863Y-053026D02*
G01X0018637Y-053026D01*
G54D13*
G01X0084180Y-013340D02*
G01X0084180Y-013160D01*
G01X0084180Y-013160D02*
G01X0084409Y-013160D01*
G01X0084409Y-013340D02*
G01X0084409Y-013160D01*
G01X0084180Y-013340D02*
G01X0084409Y-013340D01*
G01X0083391Y-012970D02*
G01X0083391Y-012790D01*
G01X0083391Y-012790D02*
G01X0083620Y-012790D01*
G01X0083620Y-012970D02*
G01X0083620Y-012790D01*
G01X0083391Y-012970D02*
G01X0083620Y-012970D01*
G01X0083391Y-013710D02*
G01X0083391Y-013530D01*
G01X0083391Y-013530D02*
G01X0083620Y-013530D01*
G01X0083620Y-013710D02*
G01X0083620Y-013530D01*
G01X0083391Y-013710D02*
G01X0083620Y-013710D01*
G54D14*
G01X0084159Y-012691D02*
G01X0083641Y-012691D01*
G01X0083641Y-012691D02*
G01X0083641Y-013809D01*
G01X0083641Y-013809D02*
G01X0084159Y-013809D01*
G01X0084159Y-013809D02*
G01X0084159Y-012691D01*
G54D13*
G01X0082770Y-014610D02*
G01X0082770Y-014790D01*
G01X0082770Y-014790D02*
G01X0082541Y-014790D01*
G01X0082541Y-014610D02*
G01X0082541Y-014790D01*
G01X0082770Y-014610D02*
G01X0082541Y-014610D01*
G01X0083559Y-014980D02*
G01X0083559Y-015160D01*
G01X0083559Y-015160D02*
G01X0083330Y-015160D01*
G01X0083330Y-014980D02*
G01X0083330Y-015160D01*
G01X0083559Y-014980D02*
G01X0083330Y-014980D01*
G01X0083559Y-014240D02*
G01X0083559Y-014420D01*
G01X0083559Y-014420D02*
G01X0083330Y-014420D01*
G01X0083330Y-014240D02*
G01X0083330Y-014420D01*
G01X0083559Y-014240D02*
G01X0083330Y-014240D01*
G54D14*
G01X0082791Y-015259D02*
G01X0083309Y-015259D01*
G01X0083309Y-015259D02*
G01X0083309Y-014141D01*
G01X0083309Y-014141D02*
G01X0082791Y-014141D01*
G01X0082791Y-014141D02*
G01X0082791Y-015259D01*
G54D12*
G01X0083876Y-015513D02*
G01X0082324Y-015513D01*
G01X0082324Y-015513D02*
G01X0082324Y-016287D01*
G01X0082324Y-016287D02*
G01X0083876Y-016287D01*
G01X0083876Y-016287D02*
G01X0083876Y-015513D01*
G01X0085826Y-013813D02*
G01X0084274Y-013813D01*
G01X0084274Y-013813D02*
G01X0084274Y-014587D01*
G01X0084274Y-014587D02*
G01X0085826Y-014587D01*
G01X0085826Y-014587D02*
G01X0085826Y-013813D01*
G01X0083024Y-012287D02*
G01X0084576Y-012287D01*
G01X0084576Y-012287D02*
G01X0084576Y-011513D01*
G01X0084576Y-011513D02*
G01X0083024Y-011513D01*
G01X0083024Y-011513D02*
G01X0083024Y-012287D01*
G01X0085826Y-014713D02*
G01X0084274Y-014713D01*
G01X0084274Y-014713D02*
G01X0084274Y-015487D01*
G01X0084274Y-015487D02*
G01X0085826Y-015487D01*
G01X0085826Y-015487D02*
G01X0085826Y-014713D01*
G54D13*
G01X0085460Y-012930D02*
G01X0085640Y-012930D01*
G01X0085640Y-012930D02*
G01X0085640Y-013159D01*
G01X0085460Y-013159D02*
G01X0085640Y-013159D01*
G01X0085460Y-012930D02*
G01X0085460Y-013159D01*
G01X0085830Y-012141D02*
G01X0086010Y-012141D01*
G01X0086010Y-012141D02*
G01X0086010Y-012370D01*
G01X0085830Y-012370D02*
G01X0086010Y-012370D01*
G01X0085830Y-012141D02*
G01X0085830Y-012370D01*
G01X0085090Y-012141D02*
G01X0085270Y-012141D01*
G01X0085270Y-012141D02*
G01X0085270Y-012370D01*
G01X0085090Y-012370D02*
G01X0085270Y-012370D01*
G01X0085090Y-012141D02*
G01X0085090Y-012370D01*
G54D14*
G01X0086109Y-012909D02*
G01X0086109Y-012391D01*
G01X0086109Y-012391D02*
G01X0084991Y-012391D01*
G01X0084991Y-012391D02*
G01X0084991Y-012909D01*
G01X0084991Y-012909D02*
G01X0086109Y-012909D01*
G54D12*
G01X0013076Y-035713D02*
G01X0011524Y-035713D01*
G01X0011524Y-035713D02*
G01X0011524Y-036487D01*
G01X0011524Y-036487D02*
G01X0013076Y-036487D01*
G01X0013076Y-036487D02*
G01X0013076Y-035713D01*
G01X0084224Y-016987D02*
G01X0085776Y-016987D01*
G01X0085776Y-016987D02*
G01X0085776Y-016213D01*
G01X0085776Y-016213D02*
G01X0084224Y-016213D01*
G01X0084224Y-016213D02*
G01X0084224Y-016987D01*
G01X0086613Y-011824D02*
G01X0086613Y-013376D01*
G01X0086613Y-013376D02*
G01X0087387Y-013376D01*
G01X0087387Y-013376D02*
G01X0087387Y-011824D01*
G01X0087387Y-011824D02*
G01X0086613Y-011824D01*
G01X0013076Y-033713D02*
G01X0011524Y-033713D01*
G01X0011524Y-033713D02*
G01X0011524Y-034487D01*
G01X0011524Y-034487D02*
G01X0013076Y-034487D01*
G01X0013076Y-034487D02*
G01X0013076Y-033713D01*
G01X0013076Y-032713D02*
G01X0011524Y-032713D01*
G01X0011524Y-032713D02*
G01X0011524Y-033487D01*
G01X0011524Y-033487D02*
G01X0013076Y-033487D01*
G01X0013076Y-033487D02*
G01X0013076Y-032713D01*
G01X0041637Y-012026D02*
G01X0041637Y-010474D01*
G01X0041637Y-010474D02*
G01X0040863Y-010474D01*
G01X0040863Y-010474D02*
G01X0040863Y-012026D01*
G01X0040863Y-012026D02*
G01X0041637Y-012026D01*
G01X0040337Y-012026D02*
G01X0040337Y-010474D01*
G01X0040337Y-010474D02*
G01X0039563Y-010474D01*
G01X0039563Y-010474D02*
G01X0039563Y-012026D01*
G01X0039563Y-012026D02*
G01X0040337Y-012026D01*
G01X0039037Y-012026D02*
G01X0039037Y-010474D01*
G01X0039037Y-010474D02*
G01X0038263Y-010474D01*
G01X0038263Y-010474D02*
G01X0038263Y-012026D01*
G01X0038263Y-012026D02*
G01X0039037Y-012026D01*
G01X0037737Y-012026D02*
G01X0037737Y-010474D01*
G01X0037737Y-010474D02*
G01X0036963Y-010474D01*
G01X0036963Y-010474D02*
G01X0036963Y-012026D01*
G01X0036963Y-012026D02*
G01X0037737Y-012026D01*
G01X0036437Y-012026D02*
G01X0036437Y-010474D01*
G01X0036437Y-010474D02*
G01X0035663Y-010474D01*
G01X0035663Y-010474D02*
G01X0035663Y-012026D01*
G01X0035663Y-012026D02*
G01X0036437Y-012026D01*
G01X0035137Y-012026D02*
G01X0035137Y-010474D01*
G01X0035137Y-010474D02*
G01X0034363Y-010474D01*
G01X0034363Y-010474D02*
G01X0034363Y-012026D01*
G01X0034363Y-012026D02*
G01X0035137Y-012026D01*
G01X0096838Y-012450D02*
G01X0096838Y-014002D01*
G01X0096838Y-014002D02*
G01X0097612Y-014002D01*
G01X0097612Y-014002D02*
G01X0097612Y-012450D01*
G01X0097612Y-012450D02*
G01X0096838Y-012450D01*
G54D13*
G01X0016741Y-038017D02*
G01X0016859Y-038017D01*
G01X0016859Y-038017D02*
G01X0016859Y-038195D01*
G01X0016741Y-038195D02*
G01X0016859Y-038195D01*
G01X0016741Y-038017D02*
G01X0016741Y-038195D01*
G01X0016486Y-038017D02*
G01X0016604Y-038017D01*
G01X0016604Y-038017D02*
G01X0016604Y-038195D01*
G01X0016486Y-038195D02*
G01X0016604Y-038195D01*
G01X0016486Y-038017D02*
G01X0016486Y-038195D01*
G01X0016996Y-038017D02*
G01X0017114Y-038017D01*
G01X0017114Y-038017D02*
G01X0017114Y-038195D01*
G01X0016996Y-038195D02*
G01X0017114Y-038195D01*
G01X0016996Y-038017D02*
G01X0016996Y-038195D01*
G01X0016996Y-038705D02*
G01X0017114Y-038705D01*
G01X0017114Y-038705D02*
G01X0017114Y-038883D01*
G01X0016996Y-038883D02*
G01X0017114Y-038883D01*
G01X0016996Y-038705D02*
G01X0016996Y-038883D01*
G01X0016486Y-038705D02*
G01X0016604Y-038705D01*
G01X0016604Y-038705D02*
G01X0016604Y-038883D01*
G01X0016486Y-038883D02*
G01X0016604Y-038883D01*
G01X0016486Y-038705D02*
G01X0016486Y-038883D01*
G54D15*
G01X0016407Y-038234D02*
G01X0017193Y-038234D01*
G01X0017193Y-038234D02*
G01X0017193Y-038666D01*
G01X0017193Y-038666D02*
G01X0016407Y-038666D01*
G01X0016407Y-038666D02*
G01X0016407Y-038234D01*
G54D11*
G01X0019202Y-052391D02*
G01X0018964Y-052225D01*
G01X0019202Y-052105D02*
G01X0018702Y-052105D01*
G01X0018702Y-052105D02*
G01X0018702Y-052296D01*
G01X0018702Y-052296D02*
G01X0018726Y-052344D01*
G01X0018726Y-052344D02*
G01X0018750Y-052367D01*
G01X0018750Y-052367D02*
G01X0018797Y-052391D01*
G01X0018797Y-052391D02*
G01X0018869Y-052391D01*
G01X0018869Y-052391D02*
G01X0018916Y-052367D01*
G01X0018916Y-052367D02*
G01X0018940Y-052344D01*
G01X0018940Y-052344D02*
G01X0018964Y-052296D01*
G01X0018964Y-052296D02*
G01X0018964Y-052105D01*
G01X0018869Y-052820D02*
G01X0019202Y-052820D01*
G01X0018678Y-052701D02*
G01X0019035Y-052582D01*
G01X0019035Y-052582D02*
G01X0019035Y-052891D01*
G01X0083120Y-013152D02*
G01X0083096Y-013104D01*
G01X0083096Y-013104D02*
G01X0083048Y-013057D01*
G01X0083048Y-013057D02*
G01X0082977Y-012985D01*
G01X0082977Y-012985D02*
G01X0082953Y-012938D01*
G01X0082953Y-012938D02*
G01X0082953Y-012890D01*
G01X0083072Y-012914D02*
G01X0083048Y-012866D01*
G01X0083048Y-012866D02*
G01X0083000Y-012819D01*
G01X0083000Y-012819D02*
G01X0082905Y-012795D01*
G01X0082905Y-012795D02*
G01X0082739Y-012795D01*
G01X0082739Y-012795D02*
G01X0082643Y-012819D01*
G01X0082643Y-012819D02*
G01X0082596Y-012866D01*
G01X0082596Y-012866D02*
G01X0082572Y-012914D01*
G01X0082572Y-012914D02*
G01X0082572Y-013009D01*
G01X0082572Y-013009D02*
G01X0082596Y-013057D01*
G01X0082596Y-013057D02*
G01X0082643Y-013104D01*
G01X0082643Y-013104D02*
G01X0082739Y-013128D01*
G01X0082739Y-013128D02*
G01X0082905Y-013128D01*
G01X0082905Y-013128D02*
G01X0083000Y-013104D01*
G01X0083000Y-013104D02*
G01X0083048Y-013057D01*
G01X0083048Y-013057D02*
G01X0083072Y-013009D01*
G01X0083072Y-013009D02*
G01X0083072Y-012914D01*
G01X0082620Y-013319D02*
G01X0082596Y-013342D01*
G01X0082596Y-013342D02*
G01X0082572Y-013390D01*
G01X0082572Y-013390D02*
G01X0082572Y-013509D01*
G01X0082572Y-013509D02*
G01X0082596Y-013557D01*
G01X0082596Y-013557D02*
G01X0082620Y-013580D01*
G01X0082620Y-013580D02*
G01X0082667Y-013604D01*
G01X0082667Y-013604D02*
G01X0082715Y-013604D01*
G01X0082715Y-013604D02*
G01X0082786Y-013580D01*
G01X0082786Y-013580D02*
G01X0083072Y-013295D01*
G01X0083072Y-013295D02*
G01X0083072Y-013604D01*
G01X0082270Y-014667D02*
G01X0082246Y-014619D01*
G01X0082246Y-014619D02*
G01X0082198Y-014572D01*
G01X0082198Y-014572D02*
G01X0082127Y-014500D01*
G01X0082127Y-014500D02*
G01X0082103Y-014453D01*
G01X0082103Y-014453D02*
G01X0082103Y-014405D01*
G01X0082222Y-014429D02*
G01X0082198Y-014381D01*
G01X0082198Y-014381D02*
G01X0082150Y-014334D01*
G01X0082150Y-014334D02*
G01X0082055Y-014310D01*
G01X0082055Y-014310D02*
G01X0081889Y-014310D01*
G01X0081889Y-014310D02*
G01X0081793Y-014334D01*
G01X0081793Y-014334D02*
G01X0081746Y-014381D01*
G01X0081746Y-014381D02*
G01X0081722Y-014429D01*
G01X0081722Y-014429D02*
G01X0081722Y-014524D01*
G01X0081722Y-014524D02*
G01X0081746Y-014572D01*
G01X0081746Y-014572D02*
G01X0081793Y-014619D01*
G01X0081793Y-014619D02*
G01X0081889Y-014643D01*
G01X0081889Y-014643D02*
G01X0082055Y-014643D01*
G01X0082055Y-014643D02*
G01X0082150Y-014619D01*
G01X0082150Y-014619D02*
G01X0082198Y-014572D01*
G01X0082198Y-014572D02*
G01X0082222Y-014524D01*
G01X0082222Y-014524D02*
G01X0082222Y-014429D01*
G01X0081722Y-014810D02*
G01X0081722Y-015119D01*
G01X0081722Y-015119D02*
G01X0081912Y-014953D01*
G01X0081912Y-014953D02*
G01X0081912Y-015024D01*
G01X0081912Y-015024D02*
G01X0081936Y-015072D01*
G01X0081936Y-015072D02*
G01X0081960Y-015095D01*
G01X0081960Y-015095D02*
G01X0082008Y-015119D01*
G01X0082008Y-015119D02*
G01X0082127Y-015119D01*
G01X0082127Y-015119D02*
G01X0082174Y-015095D01*
G01X0082174Y-015095D02*
G01X0082198Y-015072D01*
G01X0082198Y-015072D02*
G01X0082222Y-015024D01*
G01X0082222Y-015024D02*
G01X0082222Y-014881D01*
G01X0082222Y-014881D02*
G01X0082198Y-014834D01*
G01X0082198Y-014834D02*
G01X0082174Y-014810D01*
G01X0081793Y-016122D02*
G01X0081960Y-015884D01*
G01X0082079Y-016122D02*
G01X0082079Y-015622D01*
G01X0082079Y-015622D02*
G01X0081888Y-015622D01*
G01X0081888Y-015622D02*
G01X0081840Y-015646D01*
G01X0081840Y-015646D02*
G01X0081817Y-015670D01*
G01X0081817Y-015670D02*
G01X0081793Y-015717D01*
G01X0081793Y-015717D02*
G01X0081793Y-015789D01*
G01X0081793Y-015789D02*
G01X0081817Y-015836D01*
G01X0081817Y-015836D02*
G01X0081840Y-015860D01*
G01X0081840Y-015860D02*
G01X0081888Y-015884D01*
G01X0081888Y-015884D02*
G01X0082079Y-015884D01*
G01X0081364Y-015622D02*
G01X0081460Y-015622D01*
G01X0081460Y-015622D02*
G01X0081507Y-015646D01*
G01X0081507Y-015646D02*
G01X0081531Y-015670D01*
G01X0081531Y-015670D02*
G01X0081579Y-015741D01*
G01X0081579Y-015741D02*
G01X0081602Y-015836D01*
G01X0081602Y-015836D02*
G01X0081602Y-016027D01*
G01X0081602Y-016027D02*
G01X0081579Y-016074D01*
G01X0081579Y-016074D02*
G01X0081555Y-016098D01*
G01X0081555Y-016098D02*
G01X0081507Y-016122D01*
G01X0081507Y-016122D02*
G01X0081412Y-016122D01*
G01X0081412Y-016122D02*
G01X0081364Y-016098D01*
G01X0081364Y-016098D02*
G01X0081340Y-016074D01*
G01X0081340Y-016074D02*
G01X0081317Y-016027D01*
G01X0081317Y-016027D02*
G01X0081317Y-015908D01*
G01X0081317Y-015908D02*
G01X0081340Y-015860D01*
G01X0081340Y-015860D02*
G01X0081364Y-015836D01*
G01X0081364Y-015836D02*
G01X0081412Y-015812D01*
G01X0081412Y-015812D02*
G01X0081507Y-015812D01*
G01X0081507Y-015812D02*
G01X0081555Y-015836D01*
G01X0081555Y-015836D02*
G01X0081579Y-015860D01*
G01X0081579Y-015860D02*
G01X0081602Y-015908D01*
G01X0086503Y-014482D02*
G01X0086670Y-014244D01*
G01X0086789Y-014482D02*
G01X0086789Y-013982D01*
G01X0086789Y-013982D02*
G01X0086598Y-013982D01*
G01X0086598Y-013982D02*
G01X0086550Y-014006D01*
G01X0086550Y-014006D02*
G01X0086527Y-014030D01*
G01X0086527Y-014030D02*
G01X0086503Y-014077D01*
G01X0086503Y-014077D02*
G01X0086503Y-014149D01*
G01X0086503Y-014149D02*
G01X0086527Y-014196D01*
G01X0086527Y-014196D02*
G01X0086550Y-014220D01*
G01X0086550Y-014220D02*
G01X0086598Y-014244D01*
G01X0086598Y-014244D02*
G01X0086789Y-014244D01*
G01X0086027Y-014482D02*
G01X0086312Y-014482D01*
G01X0086170Y-014482D02*
G01X0086170Y-013982D01*
G01X0086170Y-013982D02*
G01X0086217Y-014053D01*
G01X0086217Y-014053D02*
G01X0086265Y-014101D01*
G01X0086265Y-014101D02*
G01X0086312Y-014125D01*
G01X0082513Y-012162D02*
G01X0082680Y-011924D01*
G01X0082799Y-012162D02*
G01X0082799Y-011662D01*
G01X0082799Y-011662D02*
G01X0082608Y-011662D01*
G01X0082608Y-011662D02*
G01X0082560Y-011686D01*
G01X0082560Y-011686D02*
G01X0082537Y-011710D01*
G01X0082537Y-011710D02*
G01X0082513Y-011757D01*
G01X0082513Y-011757D02*
G01X0082513Y-011829D01*
G01X0082513Y-011829D02*
G01X0082537Y-011876D01*
G01X0082537Y-011876D02*
G01X0082560Y-011900D01*
G01X0082560Y-011900D02*
G01X0082608Y-011924D01*
G01X0082608Y-011924D02*
G01X0082799Y-011924D01*
G01X0082322Y-011710D02*
G01X0082299Y-011686D01*
G01X0082299Y-011686D02*
G01X0082251Y-011662D01*
G01X0082251Y-011662D02*
G01X0082132Y-011662D01*
G01X0082132Y-011662D02*
G01X0082084Y-011686D01*
G01X0082084Y-011686D02*
G01X0082060Y-011710D01*
G01X0082060Y-011710D02*
G01X0082037Y-011757D01*
G01X0082037Y-011757D02*
G01X0082037Y-011805D01*
G01X0082037Y-011805D02*
G01X0082060Y-011876D01*
G01X0082060Y-011876D02*
G01X0082346Y-012162D01*
G01X0082346Y-012162D02*
G01X0082037Y-012162D01*
G01X0086513Y-015372D02*
G01X0086680Y-015134D01*
G01X0086799Y-015372D02*
G01X0086799Y-014872D01*
G01X0086799Y-014872D02*
G01X0086608Y-014872D01*
G01X0086608Y-014872D02*
G01X0086560Y-014896D01*
G01X0086560Y-014896D02*
G01X0086537Y-014920D01*
G01X0086537Y-014920D02*
G01X0086513Y-014967D01*
G01X0086513Y-014967D02*
G01X0086513Y-015039D01*
G01X0086513Y-015039D02*
G01X0086537Y-015086D01*
G01X0086537Y-015086D02*
G01X0086560Y-015110D01*
G01X0086560Y-015110D02*
G01X0086608Y-015134D01*
G01X0086608Y-015134D02*
G01X0086799Y-015134D01*
G01X0086346Y-014872D02*
G01X0086037Y-014872D01*
G01X0086037Y-014872D02*
G01X0086203Y-015062D01*
G01X0086203Y-015062D02*
G01X0086132Y-015062D01*
G01X0086132Y-015062D02*
G01X0086084Y-015086D01*
G01X0086084Y-015086D02*
G01X0086060Y-015110D01*
G01X0086060Y-015110D02*
G01X0086037Y-015158D01*
G01X0086037Y-015158D02*
G01X0086037Y-015277D01*
G01X0086037Y-015277D02*
G01X0086060Y-015324D01*
G01X0086060Y-015324D02*
G01X0086084Y-015348D01*
G01X0086084Y-015348D02*
G01X0086132Y-015372D01*
G01X0086132Y-015372D02*
G01X0086275Y-015372D01*
G01X0086275Y-015372D02*
G01X0086322Y-015348D01*
G01X0086322Y-015348D02*
G01X0086346Y-015324D01*
G01X0085652Y-011955D02*
G01X0085700Y-011931D01*
G01X0085700Y-011931D02*
G01X0085747Y-011883D01*
G01X0085747Y-011883D02*
G01X0085819Y-011812D01*
G01X0085819Y-011812D02*
G01X0085866Y-011788D01*
G01X0085866Y-011788D02*
G01X0085914Y-011788D01*
G01X0085890Y-011907D02*
G01X0085938Y-011883D01*
G01X0085938Y-011883D02*
G01X0085985Y-011835D01*
G01X0085985Y-011835D02*
G01X0086009Y-011740D01*
G01X0086009Y-011740D02*
G01X0086009Y-011574D01*
G01X0086009Y-011574D02*
G01X0085985Y-011478D01*
G01X0085985Y-011478D02*
G01X0085938Y-011431D01*
G01X0085938Y-011431D02*
G01X0085890Y-011407D01*
G01X0085890Y-011407D02*
G01X0085795Y-011407D01*
G01X0085795Y-011407D02*
G01X0085747Y-011431D01*
G01X0085747Y-011431D02*
G01X0085700Y-011478D01*
G01X0085700Y-011478D02*
G01X0085676Y-011574D01*
G01X0085676Y-011574D02*
G01X0085676Y-011740D01*
G01X0085676Y-011740D02*
G01X0085700Y-011835D01*
G01X0085700Y-011835D02*
G01X0085747Y-011883D01*
G01X0085747Y-011883D02*
G01X0085795Y-011907D01*
G01X0085795Y-011907D02*
G01X0085890Y-011907D01*
G01X0085200Y-011907D02*
G01X0085485Y-011907D01*
G01X0085343Y-011907D02*
G01X0085343Y-011407D01*
G01X0085343Y-011407D02*
G01X0085390Y-011478D01*
G01X0085390Y-011478D02*
G01X0085438Y-011526D01*
G01X0085438Y-011526D02*
G01X0085485Y-011550D01*
G01X0012646Y-037107D02*
G01X0012813Y-036869D01*
G01X0012932Y-037107D02*
G01X0012932Y-036607D01*
G01X0012932Y-036607D02*
G01X0012741Y-036607D01*
G01X0012741Y-036607D02*
G01X0012694Y-036631D01*
G01X0012694Y-036631D02*
G01X0012670Y-036655D01*
G01X0012670Y-036655D02*
G01X0012646Y-036702D01*
G01X0012646Y-036702D02*
G01X0012646Y-036774D01*
G01X0012646Y-036774D02*
G01X0012670Y-036821D01*
G01X0012670Y-036821D02*
G01X0012694Y-036845D01*
G01X0012694Y-036845D02*
G01X0012741Y-036869D01*
G01X0012741Y-036869D02*
G01X0012932Y-036869D01*
G01X0012170Y-037107D02*
G01X0012455Y-037107D01*
G01X0012313Y-037107D02*
G01X0012313Y-036607D01*
G01X0012313Y-036607D02*
G01X0012360Y-036678D01*
G01X0012360Y-036678D02*
G01X0012408Y-036726D01*
G01X0012408Y-036726D02*
G01X0012455Y-036750D01*
G01X0011694Y-037107D02*
G01X0011979Y-037107D01*
G01X0011836Y-037107D02*
G01X0011836Y-036607D01*
G01X0011836Y-036607D02*
G01X0011884Y-036678D01*
G01X0011884Y-036678D02*
G01X0011932Y-036726D01*
G01X0011932Y-036726D02*
G01X0011979Y-036750D01*
G01X0086753Y-016812D02*
G01X0086920Y-016574D01*
G01X0087039Y-016812D02*
G01X0087039Y-016312D01*
G01X0087039Y-016312D02*
G01X0086848Y-016312D01*
G01X0086848Y-016312D02*
G01X0086800Y-016336D01*
G01X0086800Y-016336D02*
G01X0086777Y-016360D01*
G01X0086777Y-016360D02*
G01X0086753Y-016407D01*
G01X0086753Y-016407D02*
G01X0086753Y-016479D01*
G01X0086753Y-016479D02*
G01X0086777Y-016526D01*
G01X0086777Y-016526D02*
G01X0086800Y-016550D01*
G01X0086800Y-016550D02*
G01X0086848Y-016574D01*
G01X0086848Y-016574D02*
G01X0087039Y-016574D01*
G01X0086467Y-016526D02*
G01X0086515Y-016502D01*
G01X0086515Y-016502D02*
G01X0086539Y-016479D01*
G01X0086539Y-016479D02*
G01X0086562Y-016431D01*
G01X0086562Y-016431D02*
G01X0086562Y-016407D01*
G01X0086562Y-016407D02*
G01X0086539Y-016360D01*
G01X0086539Y-016360D02*
G01X0086515Y-016336D01*
G01X0086515Y-016336D02*
G01X0086467Y-016312D01*
G01X0086467Y-016312D02*
G01X0086372Y-016312D01*
G01X0086372Y-016312D02*
G01X0086324Y-016336D01*
G01X0086324Y-016336D02*
G01X0086300Y-016360D01*
G01X0086300Y-016360D02*
G01X0086277Y-016407D01*
G01X0086277Y-016407D02*
G01X0086277Y-016431D01*
G01X0086277Y-016431D02*
G01X0086300Y-016479D01*
G01X0086300Y-016479D02*
G01X0086324Y-016502D01*
G01X0086324Y-016502D02*
G01X0086372Y-016526D01*
G01X0086372Y-016526D02*
G01X0086467Y-016526D01*
G01X0086467Y-016526D02*
G01X0086515Y-016550D01*
G01X0086515Y-016550D02*
G01X0086539Y-016574D01*
G01X0086539Y-016574D02*
G01X0086562Y-016621D01*
G01X0086562Y-016621D02*
G01X0086562Y-016717D01*
G01X0086562Y-016717D02*
G01X0086539Y-016764D01*
G01X0086539Y-016764D02*
G01X0086515Y-016788D01*
G01X0086515Y-016788D02*
G01X0086467Y-016812D01*
G01X0086467Y-016812D02*
G01X0086372Y-016812D01*
G01X0086372Y-016812D02*
G01X0086324Y-016788D01*
G01X0086324Y-016788D02*
G01X0086300Y-016764D01*
G01X0086300Y-016764D02*
G01X0086277Y-016717D01*
G01X0086277Y-016717D02*
G01X0086277Y-016621D01*
G01X0086277Y-016621D02*
G01X0086300Y-016574D01*
G01X0086300Y-016574D02*
G01X0086324Y-016550D01*
G01X0086324Y-016550D02*
G01X0086372Y-016526D01*
G01X0087207Y-011156D02*
G01X0086969Y-010990D01*
G01X0087207Y-010870D02*
G01X0086707Y-010870D01*
G01X0086707Y-010870D02*
G01X0086707Y-011061D01*
G01X0086707Y-011061D02*
G01X0086731Y-011109D01*
G01X0086731Y-011109D02*
G01X0086755Y-011132D01*
G01X0086755Y-011132D02*
G01X0086802Y-011156D01*
G01X0086802Y-011156D02*
G01X0086874Y-011156D01*
G01X0086874Y-011156D02*
G01X0086921Y-011132D01*
G01X0086921Y-011132D02*
G01X0086945Y-011109D01*
G01X0086945Y-011109D02*
G01X0086969Y-011061D01*
G01X0086969Y-011061D02*
G01X0086969Y-010870D01*
G01X0087207Y-011394D02*
G01X0087207Y-011490D01*
G01X0087207Y-011490D02*
G01X0087183Y-011537D01*
G01X0087183Y-011537D02*
G01X0087159Y-011561D01*
G01X0087159Y-011561D02*
G01X0087088Y-011609D01*
G01X0087088Y-011609D02*
G01X0086993Y-011632D01*
G01X0086993Y-011632D02*
G01X0086802Y-011632D01*
G01X0086802Y-011632D02*
G01X0086755Y-011609D01*
G01X0086755Y-011609D02*
G01X0086731Y-011585D01*
G01X0086731Y-011585D02*
G01X0086707Y-011537D01*
G01X0086707Y-011537D02*
G01X0086707Y-011442D01*
G01X0086707Y-011442D02*
G01X0086731Y-011394D01*
G01X0086731Y-011394D02*
G01X0086755Y-011370D01*
G01X0086755Y-011370D02*
G01X0086802Y-011347D01*
G01X0086802Y-011347D02*
G01X0086921Y-011347D01*
G01X0086921Y-011347D02*
G01X0086969Y-011370D01*
G01X0086969Y-011370D02*
G01X0086993Y-011394D01*
G01X0086993Y-011394D02*
G01X0087016Y-011442D01*
G01X0087016Y-011442D02*
G01X0087016Y-011537D01*
G01X0087016Y-011537D02*
G01X0086993Y-011585D01*
G01X0086993Y-011585D02*
G01X0086969Y-011609D01*
G01X0086969Y-011609D02*
G01X0086921Y-011632D01*
G01X0012601Y-035127D02*
G01X0012768Y-034889D01*
G01X0012887Y-035127D02*
G01X0012887Y-034627D01*
G01X0012887Y-034627D02*
G01X0012696Y-034627D01*
G01X0012696Y-034627D02*
G01X0012649Y-034651D01*
G01X0012649Y-034651D02*
G01X0012625Y-034675D01*
G01X0012625Y-034675D02*
G01X0012601Y-034722D01*
G01X0012601Y-034722D02*
G01X0012601Y-034794D01*
G01X0012601Y-034794D02*
G01X0012625Y-034841D01*
G01X0012625Y-034841D02*
G01X0012649Y-034865D01*
G01X0012649Y-034865D02*
G01X0012696Y-034889D01*
G01X0012696Y-034889D02*
G01X0012887Y-034889D01*
G01X0012125Y-035127D02*
G01X0012410Y-035127D01*
G01X0012268Y-035127D02*
G01X0012268Y-034627D01*
G01X0012268Y-034627D02*
G01X0012315Y-034698D01*
G01X0012315Y-034698D02*
G01X0012363Y-034746D01*
G01X0012363Y-034746D02*
G01X0012410Y-034770D01*
G01X0011815Y-034627D02*
G01X0011768Y-034627D01*
G01X0011768Y-034627D02*
G01X0011720Y-034651D01*
G01X0011720Y-034651D02*
G01X0011696Y-034675D01*
G01X0011696Y-034675D02*
G01X0011672Y-034722D01*
G01X0011672Y-034722D02*
G01X0011649Y-034817D01*
G01X0011649Y-034817D02*
G01X0011649Y-034936D01*
G01X0011649Y-034936D02*
G01X0011672Y-035032D01*
G01X0011672Y-035032D02*
G01X0011696Y-035079D01*
G01X0011696Y-035079D02*
G01X0011720Y-035103D01*
G01X0011720Y-035103D02*
G01X0011768Y-035127D01*
G01X0011768Y-035127D02*
G01X0011815Y-035127D01*
G01X0011815Y-035127D02*
G01X0011863Y-035103D01*
G01X0011863Y-035103D02*
G01X0011887Y-035079D01*
G01X0011887Y-035079D02*
G01X0011910Y-035032D01*
G01X0011910Y-035032D02*
G01X0011934Y-034936D01*
G01X0011934Y-034936D02*
G01X0011934Y-034817D01*
G01X0011934Y-034817D02*
G01X0011910Y-034722D01*
G01X0011910Y-034722D02*
G01X0011887Y-034675D01*
G01X0011887Y-034675D02*
G01X0011863Y-034651D01*
G01X0011863Y-034651D02*
G01X0011815Y-034627D01*
G01X0012626Y-032537D02*
G01X0012793Y-032299D01*
G01X0012912Y-032537D02*
G01X0012912Y-032037D01*
G01X0012912Y-032037D02*
G01X0012721Y-032037D01*
G01X0012721Y-032037D02*
G01X0012674Y-032061D01*
G01X0012674Y-032061D02*
G01X0012650Y-032085D01*
G01X0012650Y-032085D02*
G01X0012626Y-032132D01*
G01X0012626Y-032132D02*
G01X0012626Y-032204D01*
G01X0012626Y-032204D02*
G01X0012650Y-032251D01*
G01X0012650Y-032251D02*
G01X0012674Y-032275D01*
G01X0012674Y-032275D02*
G01X0012721Y-032299D01*
G01X0012721Y-032299D02*
G01X0012912Y-032299D01*
G01X0012150Y-032537D02*
G01X0012435Y-032537D01*
G01X0012293Y-032537D02*
G01X0012293Y-032037D01*
G01X0012293Y-032037D02*
G01X0012340Y-032108D01*
G01X0012340Y-032108D02*
G01X0012388Y-032156D01*
G01X0012388Y-032156D02*
G01X0012435Y-032180D01*
G01X0011959Y-032085D02*
G01X0011935Y-032061D01*
G01X0011935Y-032061D02*
G01X0011888Y-032037D01*
G01X0011888Y-032037D02*
G01X0011769Y-032037D01*
G01X0011769Y-032037D02*
G01X0011721Y-032061D01*
G01X0011721Y-032061D02*
G01X0011697Y-032085D01*
G01X0011697Y-032085D02*
G01X0011674Y-032132D01*
G01X0011674Y-032132D02*
G01X0011674Y-032180D01*
G01X0011674Y-032180D02*
G01X0011697Y-032251D01*
G01X0011697Y-032251D02*
G01X0011983Y-032537D01*
G01X0011983Y-032537D02*
G01X0011674Y-032537D01*
G01X0041497Y-012433D02*
G01X0041259Y-012266D01*
G01X0041497Y-012147D02*
G01X0040997Y-012147D01*
G01X0040997Y-012147D02*
G01X0040997Y-012338D01*
G01X0040997Y-012338D02*
G01X0041021Y-012385D01*
G01X0041021Y-012385D02*
G01X0041045Y-012409D01*
G01X0041045Y-012409D02*
G01X0041092Y-012433D01*
G01X0041092Y-012433D02*
G01X0041164Y-012433D01*
G01X0041164Y-012433D02*
G01X0041211Y-012409D01*
G01X0041211Y-012409D02*
G01X0041235Y-012385D01*
G01X0041235Y-012385D02*
G01X0041259Y-012338D01*
G01X0041259Y-012338D02*
G01X0041259Y-012147D01*
G01X0041497Y-012909D02*
G01X0041497Y-012624D01*
G01X0041497Y-012766D02*
G01X0040997Y-012766D01*
G01X0040997Y-012766D02*
G01X0041068Y-012719D01*
G01X0041068Y-012719D02*
G01X0041116Y-012671D01*
G01X0041116Y-012671D02*
G01X0041140Y-012624D01*
G01X0041211Y-013195D02*
G01X0041187Y-013147D01*
G01X0041187Y-013147D02*
G01X0041164Y-013124D01*
G01X0041164Y-013124D02*
G01X0041116Y-013100D01*
G01X0041116Y-013100D02*
G01X0041092Y-013100D01*
G01X0041092Y-013100D02*
G01X0041045Y-013124D01*
G01X0041045Y-013124D02*
G01X0041021Y-013147D01*
G01X0041021Y-013147D02*
G01X0040997Y-013195D01*
G01X0040997Y-013195D02*
G01X0040997Y-013290D01*
G01X0040997Y-013290D02*
G01X0041021Y-013338D01*
G01X0041021Y-013338D02*
G01X0041045Y-013362D01*
G01X0041045Y-013362D02*
G01X0041092Y-013385D01*
G01X0041092Y-013385D02*
G01X0041116Y-013385D01*
G01X0041116Y-013385D02*
G01X0041164Y-013362D01*
G01X0041164Y-013362D02*
G01X0041187Y-013338D01*
G01X0041187Y-013338D02*
G01X0041211Y-013290D01*
G01X0041211Y-013290D02*
G01X0041211Y-013195D01*
G01X0041211Y-013195D02*
G01X0041235Y-013147D01*
G01X0041235Y-013147D02*
G01X0041259Y-013124D01*
G01X0041259Y-013124D02*
G01X0041306Y-013100D01*
G01X0041306Y-013100D02*
G01X0041402Y-013100D01*
G01X0041402Y-013100D02*
G01X0041449Y-013124D01*
G01X0041449Y-013124D02*
G01X0041473Y-013147D01*
G01X0041473Y-013147D02*
G01X0041497Y-013195D01*
G01X0041497Y-013195D02*
G01X0041497Y-013290D01*
G01X0041497Y-013290D02*
G01X0041473Y-013338D01*
G01X0041473Y-013338D02*
G01X0041449Y-013362D01*
G01X0041449Y-013362D02*
G01X0041402Y-013385D01*
G01X0041402Y-013385D02*
G01X0041306Y-013385D01*
G01X0041306Y-013385D02*
G01X0041259Y-013362D01*
G01X0041259Y-013362D02*
G01X0041235Y-013338D01*
G01X0041235Y-013338D02*
G01X0041211Y-013290D01*
G01X0040147Y-012438D02*
G01X0039909Y-012271D01*
G01X0040147Y-012152D02*
G01X0039647Y-012152D01*
G01X0039647Y-012152D02*
G01X0039647Y-012343D01*
G01X0039647Y-012343D02*
G01X0039671Y-012390D01*
G01X0039671Y-012390D02*
G01X0039695Y-012414D01*
G01X0039695Y-012414D02*
G01X0039742Y-012438D01*
G01X0039742Y-012438D02*
G01X0039814Y-012438D01*
G01X0039814Y-012438D02*
G01X0039861Y-012414D01*
G01X0039861Y-012414D02*
G01X0039885Y-012390D01*
G01X0039885Y-012390D02*
G01X0039909Y-012343D01*
G01X0039909Y-012343D02*
G01X0039909Y-012152D01*
G01X0040147Y-012914D02*
G01X0040147Y-012629D01*
G01X0040147Y-012771D02*
G01X0039647Y-012771D01*
G01X0039647Y-012771D02*
G01X0039718Y-012724D01*
G01X0039718Y-012724D02*
G01X0039766Y-012676D01*
G01X0039766Y-012676D02*
G01X0039790Y-012629D01*
G01X0039647Y-013081D02*
G01X0039647Y-013414D01*
G01X0039647Y-013414D02*
G01X0040147Y-013200D01*
G01X0038892Y-012458D02*
G01X0038654Y-012291D01*
G01X0038892Y-012172D02*
G01X0038392Y-012172D01*
G01X0038392Y-012172D02*
G01X0038392Y-012363D01*
G01X0038392Y-012363D02*
G01X0038416Y-012410D01*
G01X0038416Y-012410D02*
G01X0038440Y-012434D01*
G01X0038440Y-012434D02*
G01X0038487Y-012458D01*
G01X0038487Y-012458D02*
G01X0038559Y-012458D01*
G01X0038559Y-012458D02*
G01X0038606Y-012434D01*
G01X0038606Y-012434D02*
G01X0038630Y-012410D01*
G01X0038630Y-012410D02*
G01X0038654Y-012363D01*
G01X0038654Y-012363D02*
G01X0038654Y-012172D01*
G01X0038892Y-012934D02*
G01X0038892Y-012649D01*
G01X0038892Y-012791D02*
G01X0038392Y-012791D01*
G01X0038392Y-012791D02*
G01X0038463Y-012744D01*
G01X0038463Y-012744D02*
G01X0038511Y-012696D01*
G01X0038511Y-012696D02*
G01X0038535Y-012649D01*
G01X0038392Y-013363D02*
G01X0038392Y-013268D01*
G01X0038392Y-013268D02*
G01X0038416Y-013220D01*
G01X0038416Y-013220D02*
G01X0038440Y-013196D01*
G01X0038440Y-013196D02*
G01X0038511Y-013149D01*
G01X0038511Y-013149D02*
G01X0038606Y-013125D01*
G01X0038606Y-013125D02*
G01X0038797Y-013125D01*
G01X0038797Y-013125D02*
G01X0038844Y-013149D01*
G01X0038844Y-013149D02*
G01X0038868Y-013172D01*
G01X0038868Y-013172D02*
G01X0038892Y-013220D01*
G01X0038892Y-013220D02*
G01X0038892Y-013315D01*
G01X0038892Y-013315D02*
G01X0038868Y-013363D01*
G01X0038868Y-013363D02*
G01X0038844Y-013387D01*
G01X0038844Y-013387D02*
G01X0038797Y-013410D01*
G01X0038797Y-013410D02*
G01X0038678Y-013410D01*
G01X0038678Y-013410D02*
G01X0038630Y-013387D01*
G01X0038630Y-013387D02*
G01X0038606Y-013363D01*
G01X0038606Y-013363D02*
G01X0038582Y-013315D01*
G01X0038582Y-013315D02*
G01X0038582Y-013220D01*
G01X0038582Y-013220D02*
G01X0038606Y-013172D01*
G01X0038606Y-013172D02*
G01X0038630Y-013149D01*
G01X0038630Y-013149D02*
G01X0038678Y-013125D01*
G01X0037597Y-012453D02*
G01X0037359Y-012286D01*
G01X0037597Y-012167D02*
G01X0037097Y-012167D01*
G01X0037097Y-012167D02*
G01X0037097Y-012358D01*
G01X0037097Y-012358D02*
G01X0037121Y-012405D01*
G01X0037121Y-012405D02*
G01X0037145Y-012429D01*
G01X0037145Y-012429D02*
G01X0037192Y-012453D01*
G01X0037192Y-012453D02*
G01X0037264Y-012453D01*
G01X0037264Y-012453D02*
G01X0037311Y-012429D01*
G01X0037311Y-012429D02*
G01X0037335Y-012405D01*
G01X0037335Y-012405D02*
G01X0037359Y-012358D01*
G01X0037359Y-012358D02*
G01X0037359Y-012167D01*
G01X0037597Y-012929D02*
G01X0037597Y-012644D01*
G01X0037597Y-012786D02*
G01X0037097Y-012786D01*
G01X0037097Y-012786D02*
G01X0037168Y-012739D01*
G01X0037168Y-012739D02*
G01X0037216Y-012691D01*
G01X0037216Y-012691D02*
G01X0037240Y-012644D01*
G01X0037097Y-013382D02*
G01X0037097Y-013144D01*
G01X0037097Y-013144D02*
G01X0037335Y-013120D01*
G01X0037335Y-013120D02*
G01X0037311Y-013144D01*
G01X0037311Y-013144D02*
G01X0037287Y-013191D01*
G01X0037287Y-013191D02*
G01X0037287Y-013310D01*
G01X0037287Y-013310D02*
G01X0037311Y-013358D01*
G01X0037311Y-013358D02*
G01X0037335Y-013382D01*
G01X0037335Y-013382D02*
G01X0037383Y-013405D01*
G01X0037383Y-013405D02*
G01X0037502Y-013405D01*
G01X0037502Y-013405D02*
G01X0037549Y-013382D01*
G01X0037549Y-013382D02*
G01X0037573Y-013358D01*
G01X0037573Y-013358D02*
G01X0037597Y-013310D01*
G01X0037597Y-013310D02*
G01X0037597Y-013191D01*
G01X0037597Y-013191D02*
G01X0037573Y-013144D01*
G01X0037573Y-013144D02*
G01X0037549Y-013120D01*
G01X0036257Y-012463D02*
G01X0036019Y-012296D01*
G01X0036257Y-012177D02*
G01X0035757Y-012177D01*
G01X0035757Y-012177D02*
G01X0035757Y-012368D01*
G01X0035757Y-012368D02*
G01X0035781Y-012415D01*
G01X0035781Y-012415D02*
G01X0035805Y-012439D01*
G01X0035805Y-012439D02*
G01X0035852Y-012463D01*
G01X0035852Y-012463D02*
G01X0035924Y-012463D01*
G01X0035924Y-012463D02*
G01X0035971Y-012439D01*
G01X0035971Y-012439D02*
G01X0035995Y-012415D01*
G01X0035995Y-012415D02*
G01X0036019Y-012368D01*
G01X0036019Y-012368D02*
G01X0036019Y-012177D01*
G01X0036257Y-012939D02*
G01X0036257Y-012654D01*
G01X0036257Y-012796D02*
G01X0035757Y-012796D01*
G01X0035757Y-012796D02*
G01X0035828Y-012749D01*
G01X0035828Y-012749D02*
G01X0035876Y-012701D01*
G01X0035876Y-012701D02*
G01X0035900Y-012654D01*
G01X0035924Y-013368D02*
G01X0036257Y-013368D01*
G01X0035733Y-013249D02*
G01X0036090Y-013130D01*
G01X0036090Y-013130D02*
G01X0036090Y-013439D01*
G01X0034987Y-012468D02*
G01X0034749Y-012301D01*
G01X0034987Y-012182D02*
G01X0034487Y-012182D01*
G01X0034487Y-012182D02*
G01X0034487Y-012373D01*
G01X0034487Y-012373D02*
G01X0034511Y-012420D01*
G01X0034511Y-012420D02*
G01X0034535Y-012444D01*
G01X0034535Y-012444D02*
G01X0034582Y-012468D01*
G01X0034582Y-012468D02*
G01X0034654Y-012468D01*
G01X0034654Y-012468D02*
G01X0034701Y-012444D01*
G01X0034701Y-012444D02*
G01X0034725Y-012420D01*
G01X0034725Y-012420D02*
G01X0034749Y-012373D01*
G01X0034749Y-012373D02*
G01X0034749Y-012182D01*
G01X0034987Y-012944D02*
G01X0034987Y-012659D01*
G01X0034987Y-012801D02*
G01X0034487Y-012801D01*
G01X0034487Y-012801D02*
G01X0034558Y-012754D01*
G01X0034558Y-012754D02*
G01X0034606Y-012706D01*
G01X0034606Y-012706D02*
G01X0034630Y-012659D01*
G01X0034487Y-013111D02*
G01X0034487Y-013420D01*
G01X0034487Y-013420D02*
G01X0034677Y-013254D01*
G01X0034677Y-013254D02*
G01X0034677Y-013325D01*
G01X0034677Y-013325D02*
G01X0034701Y-013373D01*
G01X0034701Y-013373D02*
G01X0034725Y-013397D01*
G01X0034725Y-013397D02*
G01X0034773Y-013420D01*
G01X0034773Y-013420D02*
G01X0034892Y-013420D01*
G01X0034892Y-013420D02*
G01X0034939Y-013397D01*
G01X0034939Y-013397D02*
G01X0034963Y-013373D01*
G01X0034963Y-013373D02*
G01X0034987Y-013325D01*
G01X0034987Y-013325D02*
G01X0034987Y-013182D01*
G01X0034987Y-013182D02*
G01X0034963Y-013135D01*
G01X0034963Y-013135D02*
G01X0034939Y-013111D01*
G01X0096572Y-012903D02*
G01X0096334Y-012736D01*
G01X0096572Y-012617D02*
G01X0096072Y-012617D01*
G01X0096072Y-012617D02*
G01X0096072Y-012808D01*
G01X0096072Y-012808D02*
G01X0096096Y-012855D01*
G01X0096096Y-012855D02*
G01X0096120Y-012879D01*
G01X0096120Y-012879D02*
G01X0096167Y-012903D01*
G01X0096167Y-012903D02*
G01X0096239Y-012903D01*
G01X0096239Y-012903D02*
G01X0096286Y-012879D01*
G01X0096286Y-012879D02*
G01X0096310Y-012855D01*
G01X0096310Y-012855D02*
G01X0096334Y-012808D01*
G01X0096334Y-012808D02*
G01X0096334Y-012617D01*
G01X0096572Y-013379D02*
G01X0096572Y-013094D01*
G01X0096572Y-013236D02*
G01X0096072Y-013236D01*
G01X0096072Y-013236D02*
G01X0096143Y-013189D01*
G01X0096143Y-013189D02*
G01X0096191Y-013141D01*
G01X0096191Y-013141D02*
G01X0096215Y-013094D01*
G01X0096572Y-013617D02*
G01X0096572Y-013713D01*
G01X0096572Y-013713D02*
G01X0096548Y-013760D01*
G01X0096548Y-013760D02*
G01X0096524Y-013784D01*
G01X0096524Y-013784D02*
G01X0096453Y-013832D01*
G01X0096453Y-013832D02*
G01X0096358Y-013855D01*
G01X0096358Y-013855D02*
G01X0096167Y-013855D01*
G01X0096167Y-013855D02*
G01X0096120Y-013832D01*
G01X0096120Y-013832D02*
G01X0096096Y-013808D01*
G01X0096096Y-013808D02*
G01X0096072Y-013760D01*
G01X0096072Y-013760D02*
G01X0096072Y-013665D01*
G01X0096072Y-013665D02*
G01X0096096Y-013617D01*
G01X0096096Y-013617D02*
G01X0096120Y-013594D01*
G01X0096120Y-013594D02*
G01X0096167Y-013570D01*
G01X0096167Y-013570D02*
G01X0096286Y-013570D01*
G01X0096286Y-013570D02*
G01X0096334Y-013594D01*
G01X0096334Y-013594D02*
G01X0096358Y-013617D01*
G01X0096358Y-013617D02*
G01X0096381Y-013665D01*
G01X0096381Y-013665D02*
G01X0096381Y-013760D01*
G01X0096381Y-013760D02*
G01X0096358Y-013808D01*
G01X0096358Y-013808D02*
G01X0096334Y-013832D01*
G01X0096334Y-013832D02*
G01X0096286Y-013855D01*
G01X0016009Y-038192D02*
G01X0016009Y-038597D01*
G01X0016009Y-038597D02*
G01X0015985Y-038644D01*
G01X0015985Y-038644D02*
G01X0015961Y-038668D01*
G01X0015961Y-038668D02*
G01X0015913Y-038692D01*
G01X0015913Y-038692D02*
G01X0015818Y-038692D01*
G01X0015818Y-038692D02*
G01X0015770Y-038668D01*
G01X0015770Y-038668D02*
G01X0015747Y-038644D01*
G01X0015747Y-038644D02*
G01X0015723Y-038597D01*
G01X0015723Y-038597D02*
G01X0015723Y-038192D01*
G01X0015223Y-038692D02*
G01X0015509Y-038692D01*
G01X0015366Y-038692D02*
G01X0015366Y-038192D01*
G01X0015366Y-038192D02*
G01X0015413Y-038263D01*
G01X0015413Y-038263D02*
G01X0015461Y-038311D01*
G01X0015461Y-038311D02*
G01X0015509Y-038335D01*
G01X0015056Y-038192D02*
G01X0014723Y-038192D01*
G01X0014723Y-038192D02*
G01X0014937Y-038692D01*
M02*
