M48
;DRILL file {Pcbnew (2013-07-07 BZR 4022)-stable} date 4/16/2014 8:28:11 PM
;FORMAT={-:-/ absolute / metric / decimal}
FMAT,2
METRIC,TZ
T1C0.350
T2C0.635
T3C0.813
T4C1.001
T5C1.016
T6C1.143
T7C2.301
T8C3.048
%
G90
G05
M71
T1
X94.839Y107.343
X96.901Y117.792
X97.676Y114.884
X106.926Y139.795
X107.342Y98.037
X109.366Y92.943
X110.387Y99.032
X111.339Y101.148
X113.603Y186.907
X114.567Y132.436
X117.269Y92.921
X120.074Y159.944
X120.548Y133.731
X122.784Y164.452
X130.845Y154.659
X132.222Y104.912
X133.593Y204.089
X135.636Y113.69
X137.253Y104.912
X140.263Y200.905
X141.506Y201.941
X142.191Y198.681
X143.643Y193.887
X143.764Y202.239
X145.488Y192.363
X147.034Y179.531
X149.027Y181.307
X149.152Y93.93
X149.59Y102.049
X150.393Y185.786
X152.2Y96.686
X153.614Y180.559
X154.024Y93.904
X154.561Y203.106
X154.568Y203.962
X154.652Y194.846
X156.936Y182.425
X157.144Y96.676
X157.598Y183.969
X157.858Y202.502
X159.144Y209.474
X159.636Y96.908
X161.887Y208.458
X162.129Y96.644
X162.789Y154.229
X163.104Y194.878
X163.153Y177.039
X164.096Y191.42
X164.313Y154.33
X164.621Y96.927
X165.303Y209.626
X165.43Y147.841
X165.456Y153.137
X165.633Y119.964
X165.964Y132.245
X165.989Y192.249
X166.586Y178.764
X167.113Y96.693
X167.534Y178.577
X168.135Y138.493
X168.975Y178.814
X170.038Y178.577
X170.155Y210.464
X170.828Y113.678
X171.88Y211.149
X173.136Y209.164
X174.59Y176.338
X174.942Y210.871
X175.743Y151.054
X176.213Y158.052
X176.213Y164.008
X177.19Y157.137
X177.444Y163.97
X178.486Y124.879
X179.459Y191.185
X179.574Y131.743
X179.603Y124.879
X180.581Y128.676
X180.594Y124.777
X181.574Y135.099
X182.664Y124.739
X183.404Y122.118
X183.413Y102.565
X183.782Y163.411
X183.876Y132.692
X183.947Y149.606
X183.998Y125.044
X184.061Y103.67
X184.346Y131.971
X184.772Y164.44
X184.816Y131.06
X185.535Y122.118
X186.336Y122.118
X186.53Y149.684
X187.02Y125.044
X187.117Y122.118
X187.15Y140.582
X187.913Y122.118
X188.35Y146.991
X188.481Y136.207
X188.823Y137.554
X188.946Y146.385
X189.244Y196.22
X189.481Y119.767
X190.048Y138.853
X190.195Y140.017
X190.777Y143.85
X191.267Y141.381
X191.481Y106.685
X191.821Y113.69
X192.051Y188.766
X192.24Y157.391
X192.648Y181.227
X194.183Y136.462
X194.996Y170.04
X196.285Y140.852
X196.384Y189.606
X196.93Y158.796
X196.961Y178.368
X197.019Y94.949
X197.383Y113.894
X197.904Y103.67
X198.691Y125.336
X198.697Y146.789
X198.752Y132.137
X198.777Y141.534
X198.846Y139.665
X198.93Y151.777
X199.149Y97.453
X199.166Y144.316
X199.213Y135.518
X199.305Y128.591
X199.673Y137.099
X199.751Y175.139
X199.827Y140.162
X200.095Y138.272
X200.823Y205.176
X201.33Y148.956
X201.404Y178.839
X201.543Y205.183
X201.565Y123.011
X201.572Y150.617
X201.714Y196.943
X202.283Y137.64
X202.452Y178.917
X202.972Y205.904
X203.003Y137.5
X203.066Y141.962
X203.431Y129.303
X203.534Y136.942
X203.724Y136.145
X203.868Y135.298
X203.945Y203.787
X204.446Y127.348
X204.573Y134.707
X205.087Y130.054
X205.341Y162.339
X205.422Y148.111
X205.505Y206.784
X205.68Y151.01
X205.833Y204.925
X206.222Y95.116
X206.591Y132.273
X207.259Y161.691
X207.951Y138.648
X208.051Y101.536
X208.834Y141.514
X209.292Y140.677
X209.66Y207.046
X209.722Y127.694
X209.763Y128.916
X209.844Y144.983
X210.032Y209.647
X210.202Y123.658
X210.677Y126.649
X210.934Y208.661
X211.023Y205.778
X211.061Y206.756
X211.287Y129.754
X211.432Y95.493
X211.598Y140.21
X211.89Y111.615
X212.043Y160.951
X212.077Y204.305
X212.531Y123.645
X212.633Y143.268
X212.7Y162.077
X212.72Y160.463
X212.794Y120.813
X212.916Y152.871
X212.966Y149.314
X213.068Y162.928
X213.182Y148.387
X213.246Y168.516
X213.305Y130.102
X213.937Y137.107
X214.046Y198.349
X214.29Y145.011
X214.338Y148.374
X214.558Y121.912
X214.663Y116.613
X214.762Y123.137
X214.96Y149.746
X215.13Y144.879
X215.633Y153.683
X215.837Y172.745
X216.103Y160.757
X216.224Y145.14
X216.236Y130.338
X216.439Y121.7
X216.626Y132.405
X216.687Y177.749
X216.814Y174.625
X216.871Y160.084
X217.061Y117.413
X217.154Y129.542
X217.24Y150.5
X217.24Y151.492
X217.588Y160.543
X217.595Y153.645
X217.703Y144.156
X217.859Y122.225
X217.876Y117.215
X218.135Y150.355
X218.258Y123.164
X218.982Y192.007
X219.461Y151.647
X219.507Y177.521
X219.727Y197.071
X219.925Y158.052
X220.014Y118.765
X220.142Y150.978
X220.143Y117.127
X220.229Y153.841
X220.51Y129.002
X220.557Y169.55
X220.929Y168.046
X221.167Y152.43
X221.235Y126.62
X221.36Y135.136
X221.423Y148.071
X221.689Y126.055
X221.755Y131.294
X222.114Y95.483
X222.152Y139.385
X222.341Y196.972
X222.749Y130.489
X223.373Y127.147
X223.734Y197.954
X223.893Y149.712
X224.09Y125.575
X224.178Y176.194
X224.19Y200.871
X224.721Y162.277
X225.202Y146.631
X225.387Y194.455
X225.421Y148.183
X225.599Y196.596
X226.07Y136.385
X227.453Y151.254
X227.798Y109.638
X228.105Y192.824
X228.309Y123.783
X228.458Y165.296
X228.492Y158.506
X228.905Y172.606
X229.07Y108.826
X229.418Y142.222
X229.434Y107.266
X230.59Y140.506
X230.71Y139.783
X230.734Y131.115
X230.833Y138.403
X231.91Y134.332
X232.41Y195.072
X233.223Y180.989
X233.477Y164.478
X233.482Y161.29
X234.17Y183.04
X234.245Y107.998
X234.315Y206.172
X234.403Y190.822
X234.552Y181.329
X236.421Y172.392
X236.895Y186.706
X236.914Y182.135
X237.134Y120.51
X237.343Y161.663
X237.697Y178.858
X237.786Y106.69
X238.005Y182.68
X238.239Y201.168
X238.857Y178.858
X239.238Y192.02
X239.387Y160.048
X240.062Y178.858
X241.846Y133.488
X241.879Y184.541
X241.944Y178.858
X242.06Y157.449
X243.108Y178.858
X244.371Y106.69
X244.371Y184.171
X244.54Y178.858
X245.18Y156.48
X245.529Y192.24
X245.669Y111.608
X245.73Y178.562
X245.938Y188.071
X246.24Y139.573
X246.253Y157.607
X246.494Y177.044
X246.545Y115.595
X247.611Y179.855
X247.701Y105.65
X247.735Y191.384
X247.95Y192.152
X248.707Y190.523
X249.264Y161.761
X249.86Y120.663
X249.899Y183.965
X249.922Y106.69
X250.215Y174.955
X251.155Y166.421
X251.539Y124.487
X252.781Y165.316
X254.015Y105.65
X254.849Y185.739
X254.981Y184.506
X255.275Y183.784
X255.347Y192.544
X255.448Y210.604
X256.008Y187.744
X256.902Y107.423
X257.236Y182.497
X257.327Y172.466
X257.664Y206.892
X257.721Y208.867
X257.792Y183.587
X258.206Y182.753
X258.538Y141.438
X258.589Y187.693
X258.6Y92.17
X259.507Y187.74
X259.613Y148.311
X260.171Y183.117
X260.434Y196.056
X260.947Y186.876
X261.468Y187.838
X263.36Y163.779
X264.309Y186.993
X266.796Y188.225
X268.745Y168.072
X269.176Y157.467
X269.444Y92.665
X272.374Y99.385
X272.542Y92.324
X273.273Y190.483
X274.002Y205.118
X274.811Y191.849
X275.957Y193.329
X276.239Y129.13
X276.77Y199.43
X277.183Y91.234
X277.63Y126.534
X278.308Y206.096
X278.35Y186.761
X278.414Y182.152
X278.587Y100.28
X278.916Y93.978
X279.262Y126.593
X280.213Y130.142
X280.87Y104.031
X281.488Y126.627
X281.856Y130.04
X282.1Y182.163
X282.667Y183.193
X283.377Y136.127
X283.67Y116.229
X283.791Y182.348
X284.107Y132.356
X284.177Y136.349
X284.615Y184.481
X285.009Y138.051
X285.532Y182.549
X287.132Y182.445
X288.534Y134.886
X288.615Y140.689
X288.943Y133.38
X289.143Y122.324
X291.081Y133.347
X291.172Y131.635
X291.401Y117.259
X292.499Y127.582
X292.554Y129.789
X293.861Y137.354
X294.183Y198.78
X294.479Y117.438
X295.186Y197.841
X295.681Y196.405
X296.292Y142.327
X297.053Y143.314
X297.065Y125.359
X297.294Y198.895
X298.323Y143.863
X298.947Y141.425
X300.342Y156.121
X300.469Y178.359
X300.66Y197.853
X301.692Y146.512
X302.957Y130.373
X303.403Y183.642
X303.492Y196.317
X303.537Y123.089
X304.982Y101.783
X305.892Y111.417
X306.527Y181.884
X307.671Y96.653
X308.61Y156.451
X309.205Y151.942
X311.036Y113.309
X312.603Y110.408
X313.258Y156.553
X314.742Y150.27
X314.982Y152.594
X316.255Y147.197
X316.255Y152.999
X317.17Y115.503
X317.696Y110.531
X318.483Y145.041
X319.735Y158.725
X321.085Y150.347
T2
X195.847Y126.225
X196.277Y142.939
X197.019Y111.69
X198.843Y126.681
X199.198Y136.39
X200.354Y142.14
X202.143Y147.848
X212.359Y141.318
X212.696Y139.575
X214.482Y139.826
X217.221Y128.211
X218.271Y124.16
X219.545Y124.866
X220.284Y135.275
X220.284Y144.291
T3
X85.788Y150.228
X85.788Y155.308
X91.059Y126.289
X91.059Y141.529
X91.249Y148.92
X91.249Y156.54
X93.599Y126.289
X93.599Y141.529
X93.789Y148.92
X93.789Y156.54
X96.139Y126.289
X96.139Y141.529
X96.329Y148.92
X96.329Y156.54
X98.679Y126.289
X98.679Y141.529
X98.87Y148.92
X98.87Y156.54
X101.219Y126.289
X101.219Y141.529
X101.409Y148.92
X101.409Y156.54
X103.759Y126.289
X103.759Y141.529
X103.95Y148.92
X103.95Y156.54
X106.299Y126.289
X106.299Y141.529
X106.489Y148.92
X106.489Y156.54
X108.839Y126.289
X108.839Y141.529
X110.998Y161.544
X110.998Y164.084
X111.379Y126.289
X111.379Y141.529
X113.665Y193.548
X113.665Y203.708
X113.919Y126.289
X113.919Y141.529
X115.964Y177.165
X116.205Y193.548
X116.205Y203.708
X116.459Y126.289
X116.459Y141.529
X117.729Y161.544
X117.729Y164.084
X118.504Y177.165
X118.999Y126.289
X118.999Y141.529
X121.539Y126.289
X121.539Y141.529
X124.079Y126.289
X124.079Y141.529
X124.333Y188.976
X124.333Y194.056
X126.619Y126.289
X126.619Y141.529
X129.159Y126.289
X129.159Y141.529
X129.413Y173.863
X129.413Y181.483
X129.438Y187.579
X129.438Y195.199
X131.699Y126.289
X131.699Y141.529
X131.953Y173.863
X131.953Y181.483
X131.978Y187.579
X131.978Y195.199
X134.239Y126.289
X134.239Y141.529
X134.493Y173.863
X134.493Y181.483
X134.518Y187.579
X134.518Y195.199
X136.779Y126.289
X136.779Y141.529
X137.033Y173.863
X137.033Y181.483
X137.058Y187.579
X137.058Y195.199
X139.319Y126.289
X139.319Y141.529
X139.573Y173.863
X139.573Y181.483
X139.598Y187.579
X139.598Y195.199
X142.113Y173.863
X142.113Y181.483
X142.138Y187.579
X142.138Y195.199
X144.653Y173.863
X144.653Y181.483
X144.678Y187.579
X144.678Y195.199
X147.193Y131.191
X147.193Y133.731
X147.193Y136.271
X147.193Y173.863
X147.193Y181.483
X147.218Y187.579
X147.218Y195.199
X149.758Y187.579
X149.758Y195.199
X152.298Y187.579
X152.298Y195.199
X170.828Y129.273
X170.84Y120.472
X173.368Y129.273
X173.38Y120.472
X174.841Y182.474
X174.841Y187.554
X175.908Y129.273
X175.92Y120.472
X177.419Y89.789
X177.419Y94.869
X178.448Y129.273
X178.46Y120.472
X185.039Y89.789
X185.039Y94.869
X194.183Y182.245
X194.183Y187.325
X211.938Y182.512
X211.938Y187.592
X231.775Y156.845
X231.775Y161.925
X231.775Y182.626
X231.775Y187.706
X234.188Y89.281
X234.188Y94.361
X241.808Y89.281
X241.808Y94.361
X248.793Y89.281
X248.793Y94.361
X251.511Y182.639
X251.511Y187.719
X256.413Y89.281
X256.413Y94.361
X263.017Y102.87
X263.652Y135.763
X265.557Y102.87
X266.192Y135.763
X268.732Y135.763
X271.272Y135.763
X273.812Y135.763
X274.546Y109.22
X279.428Y109.22
X288.798Y127.
X292.786Y182.499
X292.786Y187.579
X293.878Y127.
X299.593Y104.902
X302.044Y91.872
X302.133Y104.902
X302.641Y110.744
X302.641Y113.284
X304.584Y91.872
X305.562Y132.385
X305.562Y140.005
X307.124Y91.872
X308.102Y132.385
X308.102Y140.005
X309.664Y91.872
X310.642Y132.385
X310.642Y140.005
X312.204Y91.872
X313.182Y132.385
X313.182Y140.005
X313.652Y182.245
X313.652Y187.325
X314.744Y91.872
X315.595Y116.459
X315.595Y121.539
X323.215Y116.459
X323.215Y121.539
T4
X126.86Y100.19
X129.4Y100.19
X131.432Y100.19
X133.972Y100.19
X287.338Y99.898
X289.878Y99.898
X291.91Y99.898
X294.45Y99.898
T5
X86.627Y107.48
X86.627Y110.02
X86.627Y112.56
X86.627Y115.1
X86.627Y117.64
X89.167Y107.48
X89.167Y110.02
X89.167Y112.56
X89.167Y115.1
X89.167Y117.64
X132.334Y202.819
X132.334Y205.359
X134.874Y202.819
X134.874Y205.359
X137.414Y202.819
X137.414Y205.359
X139.954Y202.819
X139.954Y205.359
X142.494Y202.819
X142.494Y205.359
X145.034Y202.819
X145.034Y205.359
X147.574Y202.819
X147.574Y205.359
X150.114Y202.819
X150.114Y205.359
X178.511Y202.438
X181.051Y202.438
X194.615Y202.413
X197.155Y202.413
T6
X111.125Y170.307
X111.125Y172.847
X111.125Y175.387
X111.125Y196.088
X111.125Y198.628
X111.125Y201.168
T7
X123.812Y97.523
X137.528Y97.523
X284.29Y97.231
X298.006Y97.231
T8
X85.09Y92.71
X94.615Y172.847
X94.615Y198.628
X326.39Y92.71
T0
M30
