G04 (created by PCBNEW (2013-07-07 BZR 4022)-stable) date 4/16/2014 8:28:06 PM*
%MOIN*%
G04 Gerber Fmt 3.4, Leading zero omitted, Abs format*
%FSLAX34Y34*%
G01*
G70*
G90*
G04 APERTURE LIST*
%ADD10C,0.00590551*%
%ADD11R,0.06X0.06*%
%ADD12C,0.06*%
%ADD13C,0.16*%
%ADD14R,0.0472X0.0472*%
%ADD15C,0.055*%
%ADD16C,0.07*%
%ADD17R,0.07X0.07*%
%ADD18R,0.35X0.35*%
%ADD19R,0.059X0.0511*%
%ADD20C,0.0591*%
%ADD21C,0.1181*%
%ADD22R,0.055X0.055*%
%ADD23R,0.062X0.09*%
%ADD24O,0.062X0.09*%
%ADD25R,0.0511X0.059*%
%ADD26R,0.11X0.33*%
%ADD27R,0.07X0.33*%
%ADD28R,0.0106X0.059*%
%ADD29R,0.059X0.0106*%
%ADD30R,0.0393X0.0551*%
%ADD31R,0.0236X0.0866*%
%ADD32R,0.03X0.06*%
G04 APERTURE END LIST*
G54D10*
G54D11*
X34105Y-42314D03*
G54D12*
X35105Y-42314D03*
X34105Y-43314D03*
X35105Y-43314D03*
X34105Y-44314D03*
X35105Y-44314D03*
X34105Y-45314D03*
X35105Y-45314D03*
X34105Y-46314D03*
X35105Y-46314D03*
G54D13*
X33500Y-36500D03*
X128500Y-36500D03*
G54D14*
X105372Y-35870D03*
X104546Y-35870D03*
G54D15*
X100950Y-35150D03*
X100950Y-37150D03*
X97950Y-35150D03*
X97950Y-37150D03*
X123485Y-73750D03*
X123485Y-71750D03*
X99020Y-71905D03*
X99020Y-73905D03*
X115270Y-73850D03*
X115270Y-71850D03*
X76450Y-71750D03*
X76450Y-73750D03*
X91250Y-71900D03*
X91250Y-73900D03*
G54D14*
X108563Y-35870D03*
X107737Y-35870D03*
G54D15*
X91250Y-61750D03*
X91250Y-63750D03*
X48950Y-74400D03*
X48950Y-76400D03*
G54D16*
X43750Y-77200D03*
G54D17*
X43750Y-79200D03*
G54D16*
X43750Y-78200D03*
G54D18*
X37250Y-78200D03*
G54D19*
X108050Y-41124D03*
X108050Y-40376D03*
G54D15*
X83440Y-71855D03*
X83440Y-73855D03*
G54D14*
X78450Y-37643D03*
X78450Y-36817D03*
X43692Y-73029D03*
X44518Y-73029D03*
G54D20*
X49944Y-39444D03*
X50944Y-39444D03*
X51744Y-39444D03*
X52744Y-39444D03*
G54D21*
X48744Y-38394D03*
X54144Y-38394D03*
G54D22*
X57950Y-51650D03*
G54D15*
X57950Y-52650D03*
X57950Y-53650D03*
G54D11*
X52100Y-80850D03*
G54D12*
X52100Y-79850D03*
G54D23*
X35850Y-55720D03*
G54D24*
X36850Y-55720D03*
X37850Y-55720D03*
X38850Y-55720D03*
X39850Y-55720D03*
X40850Y-55720D03*
X41850Y-55720D03*
X42850Y-55720D03*
X43850Y-55720D03*
X44850Y-55720D03*
X45850Y-55720D03*
X46850Y-55720D03*
X47850Y-55720D03*
X48850Y-55720D03*
X49850Y-55720D03*
X50850Y-55720D03*
X51850Y-55720D03*
X52850Y-55720D03*
X53850Y-55720D03*
X54850Y-55720D03*
X54850Y-49720D03*
X53850Y-49720D03*
X52850Y-49720D03*
X51850Y-49720D03*
X50850Y-49720D03*
X49850Y-49720D03*
X48850Y-49720D03*
X47850Y-49720D03*
X46850Y-49720D03*
X45850Y-49720D03*
X44850Y-49720D03*
X43850Y-49720D03*
X42850Y-49720D03*
X41850Y-49720D03*
X40850Y-49720D03*
X39850Y-49720D03*
X38850Y-49720D03*
X37850Y-49720D03*
X36850Y-49720D03*
X35850Y-49720D03*
G54D23*
X35925Y-61629D03*
G54D24*
X36925Y-61629D03*
X37925Y-61629D03*
X38925Y-61629D03*
X39925Y-61629D03*
X40925Y-61629D03*
X41925Y-61629D03*
X41925Y-58629D03*
X40925Y-58629D03*
X39925Y-58629D03*
X38925Y-58629D03*
X37925Y-58629D03*
X36925Y-58629D03*
X35925Y-58629D03*
G54D15*
X68835Y-73840D03*
X68835Y-71840D03*
G54D14*
X45892Y-36105D03*
X45066Y-36105D03*
X42942Y-36105D03*
X42116Y-36105D03*
G54D22*
X103800Y-53450D03*
G54D15*
X104800Y-53450D03*
X105800Y-53450D03*
X106800Y-53450D03*
X107800Y-53450D03*
G54D22*
X50950Y-71450D03*
G54D15*
X51950Y-71450D03*
X52950Y-71450D03*
X53950Y-71450D03*
X54950Y-71450D03*
X55950Y-71450D03*
X56950Y-71450D03*
X57950Y-71450D03*
X57950Y-68450D03*
X56950Y-68450D03*
X55950Y-68450D03*
X54950Y-68450D03*
X53950Y-68450D03*
X52950Y-68450D03*
X51950Y-68450D03*
X50950Y-68450D03*
X127250Y-45850D03*
X127250Y-47850D03*
X124250Y-45850D03*
X124250Y-47850D03*
G54D11*
X53100Y-80850D03*
G54D12*
X53100Y-79850D03*
G54D11*
X54100Y-80850D03*
G54D12*
X54100Y-79850D03*
G54D11*
X55100Y-80850D03*
G54D12*
X55100Y-79850D03*
G54D11*
X56100Y-80850D03*
G54D12*
X56100Y-79850D03*
G54D11*
X57100Y-80850D03*
G54D12*
X57100Y-79850D03*
G54D11*
X58100Y-80850D03*
G54D12*
X58100Y-79850D03*
G54D11*
X59100Y-80850D03*
G54D12*
X59100Y-79850D03*
G54D14*
X87874Y-37648D03*
X87874Y-36822D03*
X83679Y-37588D03*
X83679Y-36762D03*
G54D22*
X118914Y-36170D03*
G54D15*
X119914Y-36170D03*
X120914Y-36170D03*
X121914Y-36170D03*
X122914Y-36170D03*
X123914Y-36170D03*
G54D14*
X81614Y-37608D03*
X81614Y-36782D03*
G54D20*
X113125Y-39330D03*
X114125Y-39330D03*
X114925Y-39330D03*
X115925Y-39330D03*
G54D21*
X111925Y-38280D03*
X117325Y-38280D03*
G54D15*
X95200Y-35150D03*
X95200Y-37150D03*
X92200Y-35150D03*
X92200Y-37150D03*
X108089Y-43000D03*
X110011Y-43000D03*
G54D11*
X117950Y-41300D03*
G54D12*
X118950Y-41300D03*
G54D25*
X108126Y-47850D03*
X108874Y-47850D03*
X108126Y-46800D03*
X108874Y-46800D03*
G54D19*
X110050Y-41174D03*
X110050Y-40426D03*
G54D14*
X52787Y-41300D03*
X53613Y-41300D03*
X92887Y-42450D03*
X93713Y-42450D03*
X113737Y-43650D03*
X114563Y-43650D03*
X95237Y-42450D03*
X96063Y-42450D03*
X97537Y-42450D03*
X98363Y-42450D03*
X99787Y-42450D03*
X100613Y-42450D03*
G54D19*
X118252Y-48016D03*
X118252Y-47268D03*
G54D11*
X46350Y-64600D03*
G54D12*
X46350Y-63600D03*
G54D11*
X45655Y-69750D03*
G54D12*
X46655Y-69750D03*
G54D11*
X44750Y-80200D03*
G54D12*
X45750Y-80200D03*
G54D11*
X44750Y-76200D03*
G54D12*
X45750Y-76200D03*
G54D16*
X43750Y-67050D03*
G54D17*
X43750Y-69050D03*
G54D16*
X43750Y-68050D03*
G54D18*
X37250Y-68050D03*
G54D11*
X119150Y-43600D03*
G54D12*
X119150Y-44600D03*
G54D22*
X104550Y-40500D03*
G54D15*
X103550Y-40500D03*
X113700Y-50000D03*
X115700Y-50000D03*
G54D19*
X117272Y-47238D03*
X117272Y-47986D03*
X119352Y-48016D03*
X119352Y-47268D03*
G54D26*
X47050Y-85150D03*
G54D27*
X48500Y-85150D03*
X49750Y-85150D03*
X51000Y-85150D03*
X52250Y-85150D03*
X53500Y-85150D03*
X54750Y-85150D03*
X56000Y-85150D03*
X57250Y-85150D03*
X58500Y-85150D03*
X59750Y-85150D03*
X61000Y-85150D03*
X62250Y-85150D03*
X63500Y-85150D03*
X64750Y-85150D03*
X66000Y-85150D03*
X67250Y-85150D03*
X68500Y-85150D03*
X69750Y-85150D03*
X71000Y-85150D03*
X72250Y-85150D03*
X73500Y-85150D03*
X74750Y-85150D03*
X76000Y-85150D03*
X77250Y-85150D03*
X78500Y-85150D03*
X79750Y-85150D03*
X81000Y-85150D03*
X82250Y-85150D03*
X83500Y-85150D03*
X84750Y-85150D03*
X86000Y-85150D03*
X87250Y-85150D03*
X88500Y-85150D03*
X89750Y-85150D03*
X91000Y-85150D03*
X92250Y-85150D03*
X93500Y-85150D03*
X94750Y-85150D03*
X96000Y-85150D03*
X97250Y-85150D03*
X98500Y-85150D03*
X99750Y-85150D03*
X101000Y-85150D03*
X102250Y-85150D03*
X103500Y-85150D03*
X104750Y-85150D03*
X106000Y-85150D03*
X107250Y-85150D03*
G54D26*
X108700Y-85150D03*
G54D19*
X116050Y-47226D03*
X116050Y-47974D03*
G54D25*
X116261Y-43644D03*
X117009Y-43644D03*
G54D11*
X43700Y-64600D03*
G54D12*
X43700Y-63600D03*
G54D19*
X120357Y-47258D03*
X120357Y-48006D03*
G54D28*
X78556Y-57632D03*
X78752Y-57632D03*
X78949Y-57632D03*
X79146Y-57632D03*
X79343Y-57632D03*
X79540Y-57632D03*
X79737Y-57632D03*
X79934Y-57632D03*
X80130Y-57632D03*
X80327Y-57632D03*
X80524Y-57632D03*
X80721Y-57632D03*
X80918Y-57632D03*
X81115Y-57632D03*
X81312Y-57632D03*
X81508Y-57632D03*
X81705Y-57632D03*
X81902Y-57632D03*
X82098Y-57632D03*
X82295Y-57632D03*
X82492Y-57632D03*
X82688Y-57632D03*
X82885Y-57632D03*
X83082Y-57632D03*
X83279Y-57632D03*
X83476Y-57632D03*
X83673Y-57632D03*
X83870Y-57632D03*
X84066Y-57632D03*
X84263Y-57632D03*
X84460Y-57632D03*
X84657Y-57632D03*
X84854Y-57632D03*
X85051Y-57632D03*
X85248Y-57632D03*
X85444Y-57632D03*
G54D29*
X86232Y-56844D03*
X86232Y-56648D03*
X86232Y-56451D03*
X86232Y-56254D03*
X86232Y-56057D03*
X86232Y-55860D03*
X86232Y-55663D03*
X86232Y-55466D03*
X86232Y-55270D03*
X86232Y-55073D03*
X86232Y-54876D03*
X86232Y-54679D03*
X86232Y-54482D03*
X86232Y-54285D03*
X86232Y-54088D03*
X86232Y-53892D03*
X86232Y-53695D03*
X86232Y-53498D03*
X86232Y-53302D03*
X86232Y-53105D03*
X86232Y-52908D03*
X86232Y-52712D03*
X86232Y-52515D03*
X86232Y-52318D03*
X86232Y-52121D03*
X86232Y-51924D03*
X86232Y-51727D03*
X86232Y-51530D03*
X86232Y-51334D03*
X86232Y-51137D03*
X86232Y-50940D03*
X86232Y-50743D03*
X86232Y-50546D03*
X86232Y-50349D03*
X86232Y-50152D03*
X86232Y-49956D03*
G54D28*
X85444Y-49168D03*
X85248Y-49168D03*
X85051Y-49168D03*
X84854Y-49168D03*
X84657Y-49168D03*
X84460Y-49168D03*
X84263Y-49168D03*
X84066Y-49168D03*
X83870Y-49168D03*
X83673Y-49168D03*
X83476Y-49168D03*
X83279Y-49168D03*
X83082Y-49168D03*
X82885Y-49168D03*
X82688Y-49168D03*
X82492Y-49168D03*
X82295Y-49168D03*
X82098Y-49168D03*
X81902Y-49168D03*
X81705Y-49168D03*
X81508Y-49168D03*
X81312Y-49168D03*
X81115Y-49168D03*
X80918Y-49168D03*
X80721Y-49168D03*
X80524Y-49168D03*
X80327Y-49168D03*
X80130Y-49168D03*
X79934Y-49168D03*
X79737Y-49168D03*
X79540Y-49168D03*
X79343Y-49168D03*
X79146Y-49168D03*
X78949Y-49168D03*
X78752Y-49168D03*
X78556Y-49168D03*
G54D29*
X77768Y-49956D03*
X77768Y-50152D03*
X77768Y-50349D03*
X77768Y-50546D03*
X77768Y-50743D03*
X77768Y-50940D03*
X77768Y-51137D03*
X77768Y-51334D03*
X77768Y-51530D03*
X77768Y-51727D03*
X77768Y-51924D03*
X77768Y-52121D03*
X77768Y-52318D03*
X77768Y-52515D03*
X77768Y-52712D03*
X77768Y-52908D03*
X77768Y-53105D03*
X77768Y-53302D03*
X77768Y-53498D03*
X77768Y-53695D03*
X77768Y-53892D03*
X77768Y-54088D03*
X77768Y-54285D03*
X77768Y-54482D03*
X77768Y-54679D03*
X77768Y-54876D03*
X77768Y-55073D03*
X77768Y-55270D03*
X77768Y-55466D03*
X77768Y-55663D03*
X77768Y-55860D03*
X77768Y-56057D03*
X77768Y-56254D03*
X77768Y-56451D03*
X77768Y-56648D03*
X77768Y-56844D03*
G54D23*
X120300Y-55120D03*
G54D24*
X121300Y-55120D03*
X122300Y-55120D03*
X123300Y-55120D03*
X123300Y-52120D03*
X122300Y-52120D03*
X121300Y-52120D03*
X120300Y-52120D03*
G54D11*
X70279Y-79700D03*
G54D12*
X71279Y-79700D03*
G54D11*
X77620Y-79690D03*
G54D12*
X76620Y-79690D03*
G54D25*
X72826Y-77920D03*
X73574Y-77920D03*
G54D19*
X70759Y-78424D03*
X70759Y-77676D03*
G54D25*
X74646Y-77914D03*
X75394Y-77914D03*
G54D19*
X76620Y-78648D03*
X76620Y-77900D03*
X64850Y-79294D03*
X64850Y-78546D03*
X63890Y-79283D03*
X63890Y-78535D03*
X62909Y-79283D03*
X62909Y-78535D03*
X61890Y-79283D03*
X61890Y-78535D03*
G54D14*
X61090Y-37633D03*
X61090Y-36807D03*
X62920Y-37648D03*
X62920Y-36822D03*
X64855Y-36832D03*
X64855Y-37658D03*
X59244Y-37653D03*
X59244Y-36827D03*
G54D30*
X73614Y-78967D03*
X72866Y-78967D03*
X73240Y-79833D03*
X75444Y-78967D03*
X74696Y-78967D03*
X75070Y-79833D03*
G54D31*
X100335Y-74725D03*
X100835Y-74725D03*
X101335Y-74725D03*
X101835Y-74725D03*
X102335Y-74725D03*
X102835Y-74725D03*
X103335Y-74725D03*
X103835Y-74725D03*
X104335Y-74725D03*
X104835Y-74725D03*
X104835Y-71103D03*
X104335Y-71103D03*
X103835Y-71103D03*
X103335Y-71103D03*
X102835Y-71103D03*
X102335Y-71103D03*
X101835Y-71103D03*
X101335Y-71103D03*
X100835Y-71103D03*
X100335Y-71103D03*
X92670Y-74696D03*
X93170Y-74696D03*
X93670Y-74696D03*
X94170Y-74696D03*
X94670Y-74696D03*
X95170Y-74696D03*
X95670Y-74696D03*
X96170Y-74696D03*
X96670Y-74696D03*
X97170Y-74696D03*
X97170Y-71074D03*
X96670Y-71074D03*
X96170Y-71074D03*
X95670Y-71074D03*
X95170Y-71074D03*
X94670Y-71074D03*
X94170Y-71074D03*
X93670Y-71074D03*
X93170Y-71074D03*
X92670Y-71074D03*
G54D23*
X50959Y-76850D03*
G54D24*
X51959Y-76850D03*
X52959Y-76850D03*
X53959Y-76850D03*
X54959Y-76850D03*
X55959Y-76850D03*
X56959Y-76850D03*
X57959Y-76850D03*
X58959Y-76850D03*
X59959Y-76850D03*
X59959Y-73850D03*
X58959Y-73850D03*
X57959Y-73850D03*
X56959Y-73850D03*
X55959Y-73850D03*
X54959Y-73850D03*
X53959Y-73850D03*
X52959Y-73850D03*
X51959Y-73850D03*
X50959Y-73850D03*
G54D32*
X121650Y-42980D03*
X122150Y-42980D03*
X122650Y-42980D03*
X123150Y-42980D03*
X123650Y-42980D03*
X124150Y-42980D03*
X124650Y-42980D03*
X125150Y-42980D03*
X125650Y-42980D03*
X125650Y-39220D03*
X125150Y-39220D03*
X124650Y-39220D03*
X124150Y-39220D03*
X123650Y-39220D03*
X123150Y-39220D03*
X122650Y-39220D03*
X122150Y-39220D03*
X121650Y-39220D03*
G54D31*
X67650Y-71039D03*
X67150Y-71039D03*
X66650Y-71039D03*
X66150Y-71039D03*
X65650Y-71039D03*
X65150Y-71039D03*
X64650Y-71039D03*
X64150Y-71039D03*
X63650Y-71039D03*
X63150Y-71039D03*
X63150Y-74661D03*
X63650Y-74661D03*
X64150Y-74661D03*
X64650Y-74661D03*
X65150Y-74661D03*
X65650Y-74661D03*
X66150Y-74661D03*
X66650Y-74661D03*
X67150Y-74661D03*
X67650Y-74661D03*
X122179Y-70979D03*
X121679Y-70979D03*
X121179Y-70979D03*
X120679Y-70979D03*
X120179Y-70979D03*
X119679Y-70979D03*
X119179Y-70979D03*
X118679Y-70979D03*
X118179Y-70979D03*
X117679Y-70979D03*
X117679Y-74601D03*
X118179Y-74601D03*
X118679Y-74601D03*
X119179Y-74601D03*
X119679Y-74601D03*
X120179Y-74601D03*
X120679Y-74601D03*
X121179Y-74601D03*
X121679Y-74601D03*
X122179Y-74601D03*
X109590Y-74696D03*
X110090Y-74696D03*
X110590Y-74696D03*
X111090Y-74696D03*
X111590Y-74696D03*
X112090Y-74696D03*
X112590Y-74696D03*
X113090Y-74696D03*
X113590Y-74696D03*
X114090Y-74696D03*
X114090Y-71074D03*
X113590Y-71074D03*
X113090Y-71074D03*
X112590Y-71074D03*
X112090Y-71074D03*
X111590Y-71074D03*
X111090Y-71074D03*
X110590Y-71074D03*
X110090Y-71074D03*
X109590Y-71074D03*
G54D15*
X72850Y-35350D03*
X72850Y-37350D03*
X69850Y-35350D03*
X69850Y-37350D03*
X33775Y-59145D03*
X33775Y-61145D03*
G54D22*
X67255Y-50895D03*
G54D15*
X68255Y-50895D03*
X69255Y-50895D03*
X70255Y-50895D03*
G54D22*
X67260Y-47430D03*
G54D15*
X68260Y-47430D03*
X69260Y-47430D03*
X70260Y-47430D03*
M02*
