M48
;DRILL file {Pcbnew (2013-07-07 BZR 4022)-stable} date 6/7/2014 7:32:57 PM
;FORMAT={-:-/ absolute / metric / decimal}
FMAT,2
METRIC,TZ
T1C0.350
T2C0.584
T3C0.813
T4C1.000
T5C1.016
T6C1.143
T7C3.048
%
G90
G05
M71
T1
X24.257Y118.059
X26.058Y114.138
X28.438Y118.105
X29.261Y118.834
X31.051Y114.947
X31.821Y117.43
X33.325Y118.186
X33.336Y98.793
X34.493Y123.431
X35.831Y117.782
X37.812Y117.791
X38.862Y114.751
X44.001Y116.964
X46.222Y102.282
X48.742Y51.222
X52.505Y59.74
X53.136Y126.772
X53.541Y76.789
X56.243Y126.934
X57.267Y111.069
X61.912Y148.06
X63.145Y137.813
X64.428Y57.936
X64.935Y81.885
X65.415Y95.611
X67.908Y135.05
X67.926Y29.49
X69.657Y122.926
X70.743Y129.459
X72.905Y126.947
X73.595Y119.656
X73.61Y129.178
X75.217Y113.558
X75.333Y118.845
X75.67Y126.793
X76.021Y105.359
X76.249Y43.102
X76.543Y133.289
X76.898Y80.236
X77.728Y138.634
X79.123Y134.707
X79.471Y75.167
X79.491Y82.917
X80.48Y132.554
X80.69Y107.182
X80.786Y43.458
X80.786Y47.394
X81.828Y58.645
X81.912Y46.045
X82.282Y138.466
X82.475Y107.964
X82.923Y126.544
X82.953Y130.282
X83.379Y109.885
X83.663Y130.798
X83.805Y127.296
X84.69Y131.323
X85.121Y145.225
X85.637Y146.936
X86.191Y128.796
X86.252Y110.16
X86.961Y75.708
X86.989Y147.093
X87.785Y138.423
X87.937Y145.003
X88.374Y78.539
X88.409Y74.832
X88.447Y137.283
X89.186Y126.805
X91.756Y43.208
X92.977Y141.351
X93.023Y56.999
X95.267Y103.979
X95.322Y145.712
X96.082Y136.879
X96.543Y46.338
X96.936Y148.101
X96.972Y143.887
X97.832Y51.222
X98.475Y106.184
X98.483Y65.658
X98.968Y68.801
X99.077Y144.045
X99.212Y135.656
X100.369Y120.464
X100.466Y143.259
X101.502Y120.139
X101.56Y138.004
X103.42Y103.902
X103.813Y83.257
X103.813Y147.583
X104.283Y135.139
X104.363Y142.567
X106.464Y128.121
X106.838Y142.567
X107.072Y137.501
X109.833Y148.001
X112.022Y89.625
X112.039Y47.265
X113.429Y143.787
X113.458Y98.574
X115.24Y136.435
X115.532Y140.37
X116.25Y141.94
X116.316Y46.153
X116.736Y138.135
X116.937Y139.07
X117.12Y39.718
X117.264Y134.895
X117.529Y76.979
X117.588Y124.693
X117.756Y71.242
X117.956Y73.494
X117.979Y119.896
X118.184Y69.913
X118.266Y144.172
X118.409Y71.955
X118.419Y89.114
X118.59Y123.066
X118.678Y45.424
X118.766Y147.093
X118.788Y121.326
X119.044Y99.101
X119.278Y126.177
X119.306Y82.88
X119.309Y117.587
X119.403Y107.061
X119.689Y116.101
X119.728Y119.68
X119.792Y72.449
X119.918Y122.029
X120.065Y42.8
X120.619Y45.801
X120.725Y79.045
X120.905Y73.085
X121.02Y108.773
X121.475Y80.461
X121.759Y37.388
X122.459Y61.942
X122.789Y104.634
X122.877Y119.925
X123.118Y146.676
X123.262Y123.291
X123.691Y144.531
X123.889Y133.932
X123.969Y91.714
X124.278Y102.778
X124.494Y138.321
X124.719Y74.816
X124.832Y75.691
X124.987Y125.131
X125.027Y70.567
X125.241Y139.886
X125.412Y148.417
X125.651Y131.196
X125.886Y134.288
X126.275Y38.694
X127.069Y120.13
X128.159Y148.049
X128.173Y75.868
X128.514Y135.514
X130.046Y72.947
X130.046Y75.386
X130.046Y90.217
X130.063Y137.189
X130.61Y138.062
X131.284Y145.873
X131.568Y92.322
X131.615Y147.64
X132.681Y146.385
X133.12Y50.944
X134.064Y142.416
X134.339Y92.322
X134.865Y137.779
X134.961Y142.435
X135.395Y113.343
X135.845Y142.43
X136.16Y145.844
X136.414Y114.959
X136.745Y146.396
X137.029Y113.691
X137.412Y144.235
X137.475Y81.093
X137.605Y55.372
X138.49Y29.96
X139.165Y118.701
X140.397Y135.882
X141.335Y136.343
X142.702Y137.096
X142.718Y89.255
X142.964Y43.034
X143.02Y81.231
X143.383Y44.333
X143.909Y99.317
X143.961Y129.054
X144.281Y148.668
X144.432Y86.701
X144.825Y127.334
X144.866Y35.236
X145.348Y137.138
X145.479Y42.234
X145.492Y143.908
X145.615Y92.037
X145.999Y122.228
X146.017Y99.619
X146.086Y93.09
X146.248Y59.806
X146.802Y143.37
X147.299Y40.413
X147.446Y148.596
X147.714Y144.323
X147.954Y96.091
X148.192Y125.03
X148.235Y88.64
X149.395Y91.686
X149.57Y144.266
X149.946Y92.452
X150.04Y100.188
X150.817Y136.092
X151.253Y72.124
X151.53Y135.249
X151.542Y118.794
X152.026Y60.098
X152.096Y143.006
X152.179Y135.75
X152.503Y109.23
X153.436Y138.177
X153.987Y148.591
X154.798Y61.456
X155.27Y59.046
X155.914Y147.115
X155.975Y60.326
X156.54Y92.316
X156.694Y87.014
X156.694Y88.765
X156.903Y84.205
X157.106Y112.955
X157.162Y148.79
X157.644Y100.229
X157.668Y58.639
X157.74Y61.883
X157.92Y129.169
X158.457Y46.046
X158.521Y88.849
X158.616Y131.515
X158.919Y84.484
X159.03Y82.751
X159.21Y144.507
X159.263Y66.139
X159.764Y140.578
X159.858Y131.519
X159.997Y148.027
X160.34Y41.939
X160.579Y58.279
X160.685Y113.165
X160.707Y32.284
X160.782Y70.4
X161.021Y57.042
X161.052Y74.509
X161.26Y62.853
X161.481Y68.459
X161.529Y82.339
X161.576Y112.116
X161.705Y72.579
X161.92Y133.334
X162.707Y69.719
X162.914Y96.889
X162.948Y57.769
X163.332Y56.698
X163.847Y74.93
X163.878Y146.637
X164.094Y60.047
X164.165Y63.219
X164.588Y68.023
X165.072Y112.141
X165.243Y34.513
X165.412Y68.155
X166.192Y56.866
X166.408Y147.097
X166.42Y130.426
X166.616Y96.643
X166.661Y60.464
X166.968Y105.994
X167.032Y99.887
X167.192Y64.86
X167.894Y26.924
X168.059Y113.789
X168.549Y46.393
X168.549Y60.464
X169.Y135.415
X169.8Y76.326
X169.847Y50.704
X170.347Y84.706
X170.687Y73.458
X170.916Y134.884
X170.953Y98.941
X171.067Y30.151
X172.051Y141.62
X172.181Y136.922
X172.372Y75.39
X172.597Y34.861
X173.037Y148.857
X173.087Y147.634
X173.089Y69.451
X173.477Y91.686
X173.834Y122.488
X174.675Y50.307
X174.696Y73.567
X174.875Y59.609
X175.484Y57.48
X175.526Y134.31
X175.774Y118.908
X176.118Y91.527
X176.221Y61.145
X176.389Y58.095
X176.486Y148.243
X176.507Y39.84
X176.976Y120.291
X177.074Y64.979
X177.326Y141.137
X177.391Y82.502
X177.645Y95.258
X177.738Y121.992
X178.031Y58.732
X178.434Y29.044
X178.604Y90.136
X178.693Y122.645
X179.121Y66.418
X179.659Y98.177
X181.08Y40.618
X181.093Y80.462
X181.116Y99.086
X181.678Y107.468
X181.712Y64.999
X182.265Y36.121
X182.548Y78.366
X182.662Y91.765
X183.825Y37.131
X183.862Y80.708
X183.883Y29.857
X183.935Y125.963
X184.099Y65.198
X184.191Y67.882
X184.826Y99.857
X184.898Y85.057
X185.153Y59.158
X185.42Y79.15
X186.125Y80.554
X186.201Y129.004
X186.535Y136.81
X186.869Y117.
X187.079Y111.889
X187.084Y82.812
X187.553Y97.371
X187.68Y50.451
X187.849Y82.434
X188.087Y78.884
X188.357Y107.477
X188.441Y123.718
X188.649Y114.32
X189.024Y32.405
X189.15Y147.475
X189.185Y66.929
X189.451Y54.477
X189.572Y146.662
X189.739Y40.368
X189.804Y81.559
X189.874Y123.753
X190.191Y134.736
X190.472Y54.27
X190.934Y126.13
X191.071Y111.759
X191.118Y130.62
X191.362Y33.093
X191.49Y38.372
X191.545Y46.237
X191.615Y43.114
X191.822Y56.301
X192.361Y99.12
X192.727Y87.981
X192.986Y120.159
X193.246Y146.132
X193.449Y124.582
X193.489Y107.477
X194.107Y35.869
X194.914Y50.697
X195.061Y146.291
X195.409Y144.326
X195.469Y74.278
X195.496Y52.251
X195.801Y57.049
X196.006Y50.474
X196.072Y97.371
X196.197Y61.33
X196.234Y129.607
X196.951Y87.756
X197.2Y51.668
X197.284Y50.59
X197.48Y45.748
X197.899Y80.031
X197.915Y148.082
X198.479Y76.959
X198.891Y34.444
X198.903Y55.128
X199.904Y40.139
X200.124Y52.615
X200.44Y92.304
X201.276Y111.507
X201.511Y69.195
X201.659Y148.808
X202.33Y81.552
X202.362Y40.723
X202.481Y113.963
X202.579Y60.278
X202.652Y77.098
X203.769Y134.036
X203.779Y75.269
X204.054Y74.465
X204.397Y29.71
X204.626Y56.344
X204.686Y137.697
X204.786Y111.113
X204.787Y150.09
X204.971Y57.966
X205.494Y106.81
X205.553Y75.576
X205.638Y89.429
X205.654Y98.864
X205.811Y133.927
X205.857Y104.2
X206.251Y45.796
X206.319Y27.045
X206.482Y89.437
X206.482Y91.876
X206.649Y81.831
X206.689Y73.85
X207.473Y134.012
X207.713Y111.533
X207.946Y99.817
X208.266Y44.93
X208.457Y73.483
X208.704Y54.283
X208.752Y112.334
X208.822Y50.415
X208.877Y106.663
X209.157Y92.477
X209.495Y83.856
X209.563Y98.988
X209.63Y50.483
X209.835Y45.954
X209.997Y52.674
X210.73Y106.028
X210.852Y90.766
X211.441Y104.204
X211.475Y29.676
X211.549Y53.656
X211.861Y107.185
X212.213Y149.625
X213.632Y74.296
X213.847Y89.788
X213.859Y107.422
X213.987Y91.355
X214.168Y135.884
X214.286Y68.096
X214.627Y117.756
X215.435Y89.896
X215.637Y142.276
X215.665Y54.099
X215.666Y90.701
X216.712Y105.059
X216.872Y76.257
X217.432Y41.044
X218.279Y96.075
X218.408Y134.714
X218.498Y98.921
X218.533Y126.441
X219.39Y107.96
X220.025Y128.488
X220.051Y28.026
X222.336Y102.926
X222.515Y115.466
X222.583Y122.067
X222.88Y63.755
X223.144Y104.653
X223.23Y127.86
X223.376Y81.282
X223.565Y87.394
X223.752Y44.912
X224.086Y62.099
X225.535Y48.45
X226.351Y132.988
X226.595Y121.084
X226.682Y98.079
X226.686Y63.548
X227.441Y67.593
X227.561Y57.216
X227.848Y66.352
X228.223Y68.969
X229.696Y107.303
X230.077Y108.897
X231.162Y100.455
X231.332Y72.943
X231.343Y96.136
X232.409Y148.489
X234.494Y80.348
X234.717Y104.792
X235.639Y97.777
X235.895Y91.94
X236.101Y81.815
X236.255Y43.599
X237.261Y38.813
X237.777Y81.977
X237.904Y91.313
X238.552Y38.613
X239.583Y97.963
X240.533Y99.183
X241.147Y126.611
X242.466Y43.322
X243.439Y97.153
X244.317Y104.932
X244.342Y107.158
X245.757Y105.072
X248.621Y148.286
X249.097Y140.792
X251.08Y137.616
X252.206Y73.931
X254.178Y57.099
X254.508Y118.283
X262.391Y126.14
T2
X42.672Y122.428
X46.228Y119.38
X110.236Y56.515
X111.506Y70.612
X116.205Y66.294
X118.872Y54.356
X125.349Y55.499
X134.62Y28.194
X140.081Y24.511
X141.224Y28.321
X162.179Y25.4
X188.468Y26.416
X191.389Y24.384
X228.727Y117.602
X229.108Y112.014
X229.235Y127.762
X233.531Y113.792
X255.397Y74.549
X255.905Y43.688
X259.715Y49.784
X259.969Y93.726
X260.35Y73.787
T3
X21.844Y72.39
X21.844Y77.47
X21.844Y87.63
X21.844Y92.71
X21.844Y102.87
X21.844Y107.95
X22.86Y67.31
X24.13Y55.88
X24.13Y63.5
X25.4Y67.31
X26.67Y55.88
X26.67Y63.5
X26.924Y71.12
X26.924Y78.74
X26.924Y86.36
X26.924Y93.98
X26.924Y101.6
X26.924Y109.22
X27.94Y67.31
X29.21Y55.88
X29.21Y63.5
X29.464Y71.12
X29.464Y78.74
X29.464Y86.36
X29.464Y93.98
X29.464Y101.6
X29.464Y109.22
X30.48Y67.31
X31.75Y55.88
X31.75Y63.5
X32.004Y71.12
X32.004Y78.74
X32.004Y86.36
X32.004Y93.98
X32.004Y101.6
X32.004Y109.22
X33.02Y26.924
X33.02Y32.004
X33.02Y42.164
X33.02Y47.244
X33.02Y67.31
X34.29Y55.88
X34.29Y63.5
X34.544Y71.12
X34.544Y78.74
X34.544Y86.36
X34.544Y93.98
X34.544Y101.6
X34.544Y109.22
X35.56Y67.31
X36.83Y55.88
X36.83Y63.5
X37.084Y71.12
X37.084Y78.74
X37.084Y86.36
X37.084Y93.98
X37.084Y101.6
X37.084Y109.22
X37.846Y25.4
X37.846Y33.02
X37.846Y40.64
X37.846Y48.26
X38.1Y67.31
X39.37Y55.88
X39.37Y63.5
X39.624Y71.12
X39.624Y78.74
X39.624Y86.36
X39.624Y93.98
X39.624Y101.6
X39.624Y109.22
X40.386Y25.4
X40.386Y33.02
X40.386Y40.64
X40.386Y48.26
X40.64Y67.31
X41.91Y55.88
X41.91Y63.5
X42.164Y71.12
X42.164Y78.74
X42.164Y86.36
X42.164Y93.98
X42.164Y101.6
X42.164Y109.22
X42.926Y25.4
X42.926Y33.02
X42.926Y40.64
X42.926Y48.26
X43.18Y67.31
X43.434Y144.018
X44.704Y71.12
X44.704Y78.74
X45.466Y25.4
X45.466Y33.02
X45.466Y40.64
X45.466Y48.26
X45.72Y67.31
X45.72Y125.984
X45.974Y144.018
X48.006Y25.4
X48.006Y33.02
X48.006Y40.64
X48.006Y48.26
X48.26Y102.87
X48.26Y107.95
X48.26Y125.984
X50.546Y25.4
X50.546Y33.02
X50.546Y40.64
X50.546Y48.26
X51.816Y72.136
X51.816Y77.216
X51.816Y87.63
X51.816Y92.71
X53.086Y25.4
X53.086Y33.02
X53.086Y40.64
X53.086Y48.26
X53.34Y101.6
X53.34Y109.22
X53.34Y116.84
X53.34Y124.46
X54.356Y67.31
X55.626Y55.88
X55.626Y63.5
X55.88Y101.6
X55.88Y109.22
X55.88Y116.84
X55.88Y124.46
X56.134Y71.12
X56.134Y78.74
X56.642Y86.36
X56.642Y93.98
X56.896Y67.31
X58.166Y55.88
X58.166Y63.5
X58.166Y130.81
X58.166Y136.398
X58.166Y141.732
X58.42Y26.924
X58.42Y32.004
X58.42Y42.164
X58.42Y47.244
X58.42Y101.6
X58.42Y109.22
X58.42Y116.84
X58.42Y124.46
X58.674Y71.12
X58.674Y78.74
X59.182Y86.36
X59.182Y93.98
X59.436Y67.31
X60.706Y55.88
X60.706Y63.5
X60.706Y130.81
X60.706Y136.398
X60.706Y141.732
X60.96Y101.6
X60.96Y109.22
X60.96Y116.84
X60.96Y124.46
X61.214Y71.12
X61.214Y78.74
X61.722Y86.36
X61.722Y93.98
X61.976Y67.31
X63.246Y40.64
X63.246Y48.26
X63.246Y55.88
X63.246Y63.5
X63.246Y130.81
X63.246Y136.398
X63.246Y141.732
X63.5Y25.654
X63.5Y33.274
X63.5Y101.6
X63.5Y109.22
X63.5Y116.84
X63.5Y124.46
X63.754Y71.12
X63.754Y78.74
X64.262Y86.36
X64.262Y93.98
X64.516Y67.31
X65.786Y40.64
X65.786Y48.26
X65.786Y55.88
X65.786Y63.5
X65.786Y130.81
X65.786Y136.398
X65.786Y141.732
X66.04Y25.654
X66.04Y33.274
X66.04Y101.6
X66.04Y109.22
X66.04Y116.84
X66.04Y124.46
X66.294Y71.12
X66.294Y78.74
X66.802Y86.36
X66.802Y93.98
X67.056Y67.31
X68.326Y40.64
X68.326Y48.26
X68.326Y55.88
X68.326Y63.5
X68.326Y130.81
X68.326Y136.398
X68.326Y141.732
X68.58Y25.654
X68.58Y33.274
X68.58Y101.6
X68.58Y109.22
X68.58Y116.84
X68.58Y124.46
X68.834Y71.12
X68.834Y78.74
X69.342Y86.36
X69.342Y93.98
X69.596Y67.31
X70.866Y40.64
X70.866Y48.26
X70.866Y55.88
X70.866Y63.5
X70.866Y130.81
X70.866Y136.398
X70.866Y141.732
X71.12Y25.654
X71.12Y33.274
X71.12Y101.6
X71.12Y109.22
X71.12Y116.84
X71.12Y124.46
X71.374Y71.12
X71.374Y78.74
X71.882Y86.36
X71.882Y93.98
X72.136Y67.31
X73.406Y40.64
X73.406Y48.26
X73.406Y55.88
X73.406Y63.5
X73.406Y130.81
X73.406Y136.398
X73.406Y141.732
X73.66Y25.654
X73.66Y33.274
X73.66Y101.6
X73.66Y109.22
X73.66Y116.84
X73.66Y124.46
X73.914Y71.12
X73.914Y78.74
X74.422Y86.36
X74.422Y93.98
X74.676Y67.31
X75.946Y40.64
X75.946Y48.26
X75.946Y130.81
X75.946Y136.398
X75.946Y141.732
X76.2Y25.654
X76.2Y33.274
X76.2Y101.6
X76.2Y109.22
X76.2Y116.84
X76.2Y124.46
X77.216Y67.31
X78.486Y40.64
X78.486Y48.26
X78.486Y130.81
X78.486Y136.398
X78.486Y141.732
X78.74Y25.654
X78.74Y33.274
X81.026Y130.81
X81.026Y136.398
X81.026Y141.732
X84.836Y67.31
X85.09Y26.67
X85.09Y31.75
X85.09Y72.39
X85.09Y77.47
X85.09Y87.63
X85.09Y92.71
X85.09Y102.87
X85.09Y107.95
X85.09Y118.11
X85.09Y123.19
X85.09Y133.35
X85.09Y138.43
X85.344Y42.164
X85.344Y47.244
X86.106Y55.88
X86.106Y63.5
X86.36Y144.018
X87.376Y67.31
X88.646Y55.88
X88.646Y63.5
X88.9Y144.018
X89.916Y67.31
X90.17Y71.12
X90.17Y78.74
X90.17Y86.36
X90.17Y93.98
X90.17Y101.6
X90.17Y109.22
X90.17Y132.08
X90.17Y139.7
X90.424Y116.84
X90.424Y124.46
X90.678Y25.4
X90.678Y33.02
X90.678Y40.64
X90.678Y48.26
X91.186Y55.88
X91.186Y63.5
X91.44Y144.018
X92.456Y67.31
X92.71Y71.12
X92.71Y78.74
X92.71Y86.36
X92.71Y93.98
X92.71Y101.6
X92.71Y109.22
X92.71Y132.08
X92.71Y139.7
X92.964Y116.84
X92.964Y124.46
X93.218Y25.4
X93.218Y33.02
X93.218Y40.64
X93.218Y48.26
X93.726Y55.88
X93.726Y63.5
X94.742Y37.084
X94.996Y67.31
X95.25Y71.12
X95.25Y78.74
X95.25Y86.36
X95.25Y93.98
X95.25Y101.6
X95.25Y109.22
X95.25Y132.08
X95.25Y139.7
X95.504Y116.84
X95.504Y124.46
X95.758Y25.4
X95.758Y33.02
X95.758Y40.64
X95.758Y48.26
X96.266Y55.88
X96.266Y63.5
X97.536Y67.31
X97.79Y71.12
X97.79Y78.74
X97.79Y86.36
X97.79Y93.98
X97.79Y101.6
X97.79Y109.22
X97.79Y132.08
X97.79Y139.7
X98.044Y116.84
X98.044Y124.46
X98.298Y25.4
X98.298Y33.02
X98.298Y40.64
X98.298Y48.26
X98.806Y55.88
X98.806Y63.5
X100.076Y67.31
X100.33Y71.12
X100.33Y78.74
X100.33Y86.36
X100.33Y93.98
X100.33Y101.6
X100.33Y109.22
X100.33Y132.08
X100.33Y139.7
X100.584Y116.84
X100.584Y124.46
X100.838Y25.4
X100.838Y33.02
X100.838Y40.64
X100.838Y48.26
X101.346Y55.88
X101.346Y63.5
X102.362Y37.084
X102.616Y67.31
X102.87Y71.12
X102.87Y78.74
X102.87Y86.36
X102.87Y93.98
X102.87Y101.6
X102.87Y109.22
X102.87Y132.08
X102.87Y139.7
X103.124Y116.84
X103.124Y124.46
X103.378Y25.4
X103.378Y33.02
X103.378Y40.64
X103.378Y48.26
X103.886Y55.88
X103.886Y63.5
X105.156Y67.31
X105.41Y71.12
X105.41Y78.74
X105.41Y86.36
X105.41Y93.98
X105.41Y101.6
X105.41Y109.22
X105.41Y132.08
X105.41Y139.7
X105.664Y116.84
X105.664Y124.46
X105.918Y25.4
X105.918Y33.02
X105.918Y37.084
X105.918Y40.64
X105.918Y48.26
X107.696Y67.31
X107.95Y71.12
X107.95Y78.74
X107.95Y101.6
X107.95Y109.22
X107.95Y132.08
X107.95Y139.7
X108.204Y116.84
X108.204Y124.46
X108.458Y37.084
X110.49Y101.6
X110.49Y109.22
X110.49Y132.08
X110.49Y139.7
X110.998Y37.084
X112.522Y26.67
X112.522Y31.75
X113.03Y101.6
X113.03Y109.22
X113.03Y132.08
X113.03Y139.7
X117.856Y25.4
X117.856Y33.02
X118.11Y101.6
X118.11Y109.22
X120.396Y25.4
X120.396Y33.02
X121.92Y72.39
X121.92Y77.47
X121.92Y82.804
X121.92Y87.63
X121.92Y92.71
X121.92Y102.87
X121.92Y107.95
X121.92Y118.11
X121.92Y123.19
X121.92Y133.35
X121.92Y138.43
X122.936Y25.4
X122.936Y33.02
X124.46Y82.804
X125.476Y25.4
X125.476Y33.02
X126.746Y116.84
X126.746Y124.46
X127.Y71.12
X127.Y78.74
X127.Y82.804
X127.Y86.36
X127.Y93.98
X127.Y101.6
X127.Y109.22
X127.Y132.08
X127.Y139.7
X128.016Y25.4
X128.016Y33.02
X129.286Y116.84
X129.286Y124.46
X129.54Y71.12
X129.54Y78.74
X129.54Y82.804
X129.54Y86.36
X129.54Y93.98
X129.54Y101.6
X129.54Y109.22
X129.54Y132.08
X129.54Y139.7
X130.556Y25.4
X130.556Y33.02
X131.826Y116.84
X131.826Y124.46
X132.08Y71.12
X132.08Y78.74
X132.08Y82.804
X132.08Y86.36
X132.08Y93.98
X132.08Y101.6
X132.08Y109.22
X132.08Y132.08
X132.08Y139.7
X133.096Y25.4
X133.096Y33.02
X134.366Y116.84
X134.366Y124.46
X134.62Y71.12
X134.62Y78.74
X134.62Y82.804
X134.62Y86.36
X134.62Y93.98
X134.62Y101.6
X134.62Y109.22
X134.62Y132.08
X134.62Y139.7
X136.906Y116.84
X136.906Y124.46
X137.16Y71.12
X137.16Y78.74
X137.16Y82.804
X137.16Y86.36
X137.16Y93.98
X137.16Y101.6
X137.16Y109.22
X137.16Y132.08
X137.16Y139.7
X138.176Y26.67
X138.176Y31.75
X139.446Y116.84
X139.446Y124.46
X139.7Y71.12
X139.7Y78.74
X139.7Y82.804
X139.7Y86.36
X139.7Y93.98
X139.7Y101.6
X139.7Y109.22
X139.7Y132.08
X139.7Y139.7
X141.986Y116.84
X141.986Y124.46
X142.24Y71.12
X142.24Y78.74
X142.24Y82.804
X142.24Y86.36
X142.24Y93.98
X142.24Y101.6
X142.24Y109.22
X142.24Y132.08
X142.24Y139.7
X143.256Y25.4
X143.256Y33.02
X144.526Y116.84
X144.526Y124.46
X144.78Y82.804
X144.78Y132.08
X144.78Y139.7
X145.796Y25.4
X145.796Y33.02
X147.32Y132.08
X147.32Y139.7
X148.336Y25.4
X148.336Y33.02
X148.59Y105.41
X148.59Y107.95
X149.86Y132.08
X149.86Y139.7
X150.876Y25.4
X150.876Y33.02
X151.13Y105.41
X151.384Y92.71
X151.384Y95.25
X151.892Y112.268
X153.416Y25.4
X153.416Y33.02
X153.924Y92.71
X153.924Y95.25
X154.432Y112.268
X155.956Y25.4
X155.956Y33.02
X158.496Y25.4
X158.496Y33.02
X158.75Y72.39
X158.75Y77.47
X158.75Y87.63
X158.75Y92.71
X158.75Y102.87
X158.75Y107.95
X158.75Y118.11
X158.75Y123.19
X158.75Y133.35
X158.75Y138.43
X162.56Y116.84
X162.56Y124.46
X163.576Y86.36
X163.576Y93.98
X163.83Y71.12
X163.83Y78.74
X163.83Y101.6
X163.83Y109.22
X163.83Y132.08
X163.83Y139.7
X165.1Y116.84
X165.1Y124.46
X165.354Y26.67
X165.354Y31.75
X166.116Y86.36
X166.116Y93.98
X166.37Y71.12
X166.37Y78.74
X166.37Y101.6
X166.37Y109.22
X166.37Y132.08
X166.37Y139.7
X167.386Y38.1
X167.386Y42.164
X167.64Y116.84
X167.64Y124.46
X168.656Y86.36
X168.656Y93.98
X168.91Y71.12
X168.91Y78.74
X168.91Y101.6
X168.91Y109.22
X168.91Y132.08
X168.91Y139.7
X169.926Y38.1
X169.926Y42.164
X170.18Y48.26
X170.18Y63.5
X170.18Y116.84
X170.18Y124.46
X170.688Y25.4
X170.688Y33.02
X171.196Y86.36
X171.196Y93.98
X171.45Y71.12
X171.45Y78.74
X171.45Y101.6
X171.45Y109.22
X171.45Y132.08
X171.45Y139.7
X172.466Y38.1
X172.466Y42.164
X172.72Y48.26
X172.72Y63.5
X172.72Y116.84
X172.72Y124.46
X173.228Y25.4
X173.228Y33.02
X173.736Y86.36
X173.736Y93.98
X173.99Y71.12
X173.99Y78.74
X173.99Y101.6
X173.99Y109.22
X173.99Y132.08
X173.99Y139.7
X175.006Y38.1
X175.006Y42.164
X175.26Y48.26
X175.26Y63.5
X175.26Y116.84
X175.26Y124.46
X175.768Y25.4
X175.768Y33.02
X176.276Y86.36
X176.276Y93.98
X176.53Y71.12
X176.53Y78.74
X176.53Y101.6
X176.53Y109.22
X176.53Y132.08
X176.53Y139.7
X177.546Y38.1
X177.546Y42.164
X177.8Y48.26
X177.8Y63.5
X177.8Y116.84
X177.8Y124.46
X178.308Y25.4
X178.308Y33.02
X178.816Y86.36
X178.816Y93.98
X179.07Y71.12
X179.07Y78.74
X179.07Y101.6
X179.07Y109.22
X179.07Y132.08
X179.07Y139.7
X180.086Y38.1
X180.086Y42.164
X180.34Y48.26
X180.34Y63.5
X180.34Y116.84
X180.34Y124.46
X180.848Y25.4
X180.848Y33.02
X181.61Y132.08
X181.61Y139.7
X182.626Y38.1
X182.626Y42.164
X182.88Y48.26
X182.88Y63.5
X183.388Y25.4
X183.388Y33.02
X184.15Y71.12
X184.15Y78.74
X184.15Y132.08
X184.15Y139.7
X185.166Y38.1
X185.166Y42.164
X185.42Y48.26
X185.42Y63.5
X185.928Y25.4
X185.928Y33.02
X186.69Y71.12
X186.69Y78.74
X186.69Y132.08
X186.69Y139.7
X187.706Y38.1
X187.706Y42.164
X187.96Y48.26
X187.96Y63.5
X188.468Y102.108
X188.468Y109.728
X190.246Y38.1
X190.246Y42.164
X190.5Y48.26
X190.5Y63.5
X191.008Y102.108
X191.008Y109.728
X191.262Y76.454
X191.262Y78.994
X191.262Y81.534
X191.77Y26.67
X191.77Y31.75
X192.786Y38.1
X192.786Y42.164
X193.04Y48.26
X193.04Y63.5
X195.326Y38.1
X195.326Y42.164
X195.58Y48.26
X195.58Y63.5
X195.58Y72.39
X195.58Y77.47
X195.58Y87.63
X195.58Y92.71
X195.58Y102.87
X195.58Y107.95
X195.58Y118.11
X195.58Y123.19
X195.58Y133.35
X195.58Y138.43
X197.358Y25.4
X197.358Y33.02
X197.866Y38.1
X197.866Y42.164
X198.12Y48.26
X198.12Y63.5
X199.898Y25.4
X199.898Y33.02
X200.406Y38.1
X200.406Y42.164
X200.66Y48.26
X200.66Y63.5
X200.66Y71.12
X200.66Y78.74
X200.66Y86.36
X200.66Y93.98
X200.66Y101.6
X200.66Y109.22
X200.66Y116.84
X200.66Y124.46
X200.66Y132.08
X200.66Y139.7
X202.438Y25.4
X202.438Y33.02
X202.946Y38.1
X202.946Y42.164
X203.2Y48.26
X203.2Y63.5
X203.2Y71.12
X203.2Y78.74
X203.2Y86.36
X203.2Y93.98
X203.2Y101.6
X203.2Y109.22
X203.2Y116.84
X203.2Y124.46
X203.2Y132.08
X203.2Y139.7
X204.978Y25.4
X204.978Y33.02
X205.486Y38.1
X205.486Y42.164
X205.74Y48.26
X205.74Y63.5
X205.74Y71.12
X205.74Y78.74
X205.74Y86.36
X205.74Y93.98
X205.74Y101.6
X205.74Y109.22
X205.74Y116.84
X205.74Y124.46
X205.74Y132.08
X205.74Y139.7
X207.518Y25.4
X207.518Y33.02
X208.026Y38.1
X208.28Y48.26
X208.28Y63.5
X208.28Y71.12
X208.28Y78.74
X208.28Y86.36
X208.28Y93.98
X208.28Y101.6
X208.28Y109.22
X208.28Y116.84
X208.28Y124.46
X208.28Y132.08
X208.28Y139.7
X210.058Y25.4
X210.058Y33.02
X210.566Y38.1
X210.82Y48.26
X210.82Y63.5
X210.82Y71.12
X210.82Y78.74
X210.82Y86.36
X210.82Y93.98
X210.82Y101.6
X210.82Y109.22
X210.82Y116.84
X210.82Y124.46
X210.82Y132.08
X210.82Y139.7
X212.598Y25.4
X212.598Y33.02
X213.106Y38.1
X213.36Y48.26
X213.36Y63.5
X213.36Y71.12
X213.36Y78.74
X213.36Y86.36
X213.36Y93.98
X213.36Y101.6
X213.36Y109.22
X213.36Y116.84
X213.36Y124.46
X213.36Y132.08
X213.36Y139.7
X213.614Y97.536
X215.646Y38.1
X215.9Y48.26
X215.9Y63.5
X215.9Y71.12
X215.9Y78.74
X215.9Y86.36
X215.9Y93.98
X215.9Y101.6
X215.9Y109.22
X215.9Y116.84
X215.9Y124.46
X215.9Y132.08
X215.9Y139.7
X216.154Y97.536
X218.186Y38.1
X218.44Y48.26
X218.44Y63.5
X218.44Y101.6
X218.44Y109.22
X218.44Y116.84
X218.44Y124.46
X218.44Y132.08
X218.44Y139.7
X219.456Y26.67
X219.456Y31.75
X220.726Y38.1
X220.98Y101.6
X220.98Y109.22
X220.98Y132.08
X220.98Y139.7
X221.234Y74.422
X221.234Y76.962
X221.234Y79.502
X221.234Y82.042
X221.234Y84.582
X221.234Y87.122
X221.234Y89.662
X221.234Y92.202
X221.234Y94.742
X221.234Y97.282
X223.266Y38.1
X223.52Y101.6
X223.52Y109.22
X223.52Y132.08
X223.52Y139.7
X224.79Y25.4
X224.79Y33.02
X225.298Y93.218
X225.298Y95.758
X225.552Y86.36
X225.552Y116.586
X225.552Y124.206
X225.806Y38.1
X227.33Y25.4
X227.33Y33.02
X228.092Y86.36
X228.6Y101.6
X228.6Y109.22
X228.6Y132.08
X228.6Y139.7
X228.854Y90.932
X228.854Y98.552
X229.87Y25.4
X229.87Y33.02
X232.41Y25.4
X232.41Y33.02
X232.41Y41.91
X232.41Y46.99
X232.41Y87.63
X232.41Y92.71
X232.41Y102.87
X232.41Y107.95
X232.41Y118.11
X232.41Y123.19
X232.41Y133.35
X232.41Y138.43
X232.664Y57.15
X232.664Y62.23
X232.664Y72.39
X232.664Y77.47
X234.95Y25.4
X234.95Y33.02
X237.49Y25.4
X237.49Y33.02
X237.49Y55.88
X237.49Y63.5
X237.49Y71.12
X237.49Y78.74
X237.49Y101.6
X237.49Y109.22
X237.49Y116.84
X237.49Y124.46
X237.49Y132.08
X237.49Y139.7
X237.744Y40.64
X237.744Y48.26
X237.744Y86.36
X237.744Y93.98
X240.03Y25.4
X240.03Y33.02
X240.03Y55.88
X240.03Y63.5
X240.03Y71.12
X240.03Y78.74
X240.03Y101.6
X240.03Y109.22
X240.03Y116.84
X240.03Y124.46
X240.03Y132.08
X240.03Y139.7
X240.284Y40.64
X240.284Y48.26
X240.284Y86.36
X240.284Y93.98
X242.57Y55.88
X242.57Y63.5
X242.57Y71.12
X242.57Y78.74
X242.57Y101.6
X242.57Y109.22
X242.57Y116.84
X242.57Y124.46
X242.57Y132.08
X242.57Y139.7
X242.824Y40.64
X242.824Y48.26
X242.824Y86.36
X242.824Y93.98
X245.11Y55.88
X245.11Y63.5
X245.11Y71.12
X245.11Y78.74
X245.11Y101.6
X245.11Y109.22
X245.11Y116.84
X245.11Y124.46
X245.11Y132.08
X245.11Y139.7
X245.364Y40.64
X245.364Y48.26
X245.364Y86.36
X245.364Y93.98
X247.65Y55.88
X247.65Y63.5
X247.65Y71.12
X247.65Y78.74
X247.65Y101.6
X247.65Y109.22
X247.65Y116.84
X247.65Y124.46
X247.65Y132.08
X247.65Y139.7
X247.904Y40.64
X247.904Y48.26
X247.904Y86.36
X247.904Y93.98
X250.19Y55.88
X250.19Y63.5
X250.19Y71.12
X250.19Y78.74
X250.19Y101.6
X250.19Y109.22
X250.19Y116.84
X250.19Y124.46
X250.19Y132.08
X250.19Y139.7
X250.444Y40.64
X250.444Y48.26
X250.444Y86.36
X250.444Y93.98
X252.73Y55.88
X252.73Y63.5
X252.73Y71.12
X252.73Y78.74
X252.73Y101.6
X252.73Y109.22
X252.73Y116.84
X252.73Y124.46
X252.73Y132.08
X252.73Y139.7
X252.984Y40.64
X252.984Y48.26
X252.984Y86.36
X252.984Y93.98
X255.27Y116.84
X255.27Y124.46
X255.27Y132.08
X255.27Y139.7
X257.81Y116.84
X257.81Y124.46
X257.81Y132.08
X257.81Y139.7
X260.35Y116.84
X260.35Y124.46
X260.35Y132.08
X260.35Y139.7
T5
X150.114Y73.66
X150.114Y76.2
X150.114Y78.74
X152.654Y73.66
X152.654Y76.2
X152.654Y78.74
X187.96Y119.126
X187.96Y121.666
X188.595Y87.63
X188.595Y90.17
X188.595Y92.71
X188.595Y95.25
X190.5Y119.126
X190.5Y121.666
X191.135Y87.63
X191.135Y90.17
X191.135Y92.71
X191.135Y95.25
X258.572Y63.754
X258.572Y66.294
X258.572Y68.834
X258.572Y104.394
X258.572Y106.934
X261.112Y63.754
X261.112Y66.294
X261.112Y68.834
X261.112Y104.394
X261.112Y106.934
T6
X42.418Y131.318
X42.418Y133.858
X42.418Y136.398
T7
X19.05Y29.21
X25.908Y133.858
X260.35Y29.21
T4
X125.222Y46.752G85X125.222Y48.752
G05
X125.222Y61.992G85X125.222Y63.992
G05
X127.762Y46.752G85X127.762Y48.752
G05
X127.762Y61.992G85X127.762Y63.992
G05
X130.302Y46.752G85X130.302Y48.752
G05
X130.302Y61.992G85X130.302Y63.992
G05
X132.842Y46.752G85X132.842Y48.752
G05
X132.842Y61.992G85X132.842Y63.992
G05
X135.382Y46.752G85X135.382Y48.752
G05
X135.382Y61.992G85X135.382Y63.992
G05
X137.922Y46.752G85X137.922Y48.752
G05
X137.922Y61.992G85X137.922Y63.992
G05
X140.462Y46.752G85X140.462Y48.752
G05
X140.462Y61.992G85X140.462Y63.992
G05
X143.002Y46.752G85X143.002Y48.752
G05
X143.002Y61.992G85X143.002Y63.992
G05
X145.542Y46.752G85X145.542Y48.752
G05
X145.542Y61.992G85X145.542Y63.992
G05
X148.082Y46.752G85X148.082Y48.752
G05
X148.082Y61.992G85X148.082Y63.992
G05
X150.622Y46.752G85X150.622Y48.752
G05
X150.622Y61.992G85X150.622Y63.992
G05
X153.162Y46.752G85X153.162Y48.752
G05
X153.162Y61.992G85X153.162Y63.992
G05
T0
M30
