M48
;DRILL file {Pcbnew (2013-07-07 BZR 4022)-stable} date 11/3/2014 10:36:47 PM
;FORMAT={-:-/ absolute / metric / decimal}
FMAT,2
METRIC,TZ
T1C0.584
T2C0.813
T3C1.000
T4C1.016
T5C1.200
T6C3.048
%
G90
G05
M71
T1
X204.064Y-123.406
X211.48Y-129.692
X221.028Y-162.43
X227.584Y-126.416
X228.968Y-126.962
X229.527Y-128.232
X230.683Y-140.056
X230.721Y-129.057
X231.521Y-103.391
X231.953Y-129.731
X233.553Y-77.203
X235.76Y-136.033
X237.109Y-150.114
X239.395Y-79.883
X240.24Y-131.401
X241.313Y-104.877
X242.443Y-148.463
X242.646Y-100.724
X242.837Y-119.126
X243.434Y-121.056
X243.712Y-134.777
X243.916Y-99.924
X244.234Y-120.053
X244.551Y-122.25
X244.983Y-143.764
X245.3Y-109.3
X250.162Y-112.518
X250.266Y-113.716
X250.94Y-126.429
X251.701Y-113.741
X252.476Y-47.549
X253.174Y-107.226
X253.276Y-99.441
X254.737Y-98.349
X254.889Y-149.86
X258.191Y-148.336
X259.08Y-147.32
X259.165Y-145.233
X259.994Y-85.598
X261.683Y-47.752
X266.421Y-98.387
X266.713Y-150.266
X267.906Y-104.8
X268.097Y-143.138
X268.097Y-146.177
X268.262Y-103.251
X268.796Y-138.674
X269.456Y-99.555
X271.272Y-147.815
X271.513Y-80.493
X273.05Y-81.877
X273.228Y-103.734
X274.269Y-106.007
X274.815Y-67.818
X275.184Y-106.921
X275.41Y-149.902
X275.412Y-158.483
X276.403Y-107.886
X276.809Y-68.682
X276.822Y-109.133
X277.241Y-161.671
X277.411Y-144.839
X277.708Y-46.008
X278.155Y-152.654
X278.511Y-150.749
X278.562Y-66.36
X279.674Y-89.055
X280.945Y-85.287
X281.483Y-112.522
X281.607Y-135.614
X282.524Y-88.252
X282.804Y-72.098
X282.804Y-110.236
X283.058Y-161.138
X283.515Y-46.03
X283.779Y-84.648
X283.896Y-74.219
X284.302Y-110.274
X284.48Y-111.62
X284.619Y-78.996
X284.683Y-153.543
X284.747Y-94.894
X284.765Y-151.875
X284.861Y-92.545
X284.954Y-77.629
X285.242Y-83.121
X285.353Y-75.644
X285.546Y-79.582
X285.585Y-69.812
X285.674Y-76.831
X285.864Y-72.25
X286.345Y-135.418
X286.714Y-64.525
X286.766Y-127.508
X286.918Y-80.362
X286.944Y-94.564
X287.084Y-96.152
X287.287Y-149.657
X287.304Y-45.971
X287.528Y-130.429
X288.089Y-66.822
X288.696Y-97.333
X288.963Y-87.211
X289.23Y-84.366
X289.344Y-65.951
X289.585Y-96.342
X289.687Y-85.725
X289.795Y-122.554
X290.415Y-63.386
X290.601Y-97.32
X290.632Y-107.031
X290.688Y-111.054
X290.982Y-150.622
X291.527Y-63.5
X291.572Y-107.97
X291.704Y-105.258
X291.706Y-84.88
X291.775Y-113.66
X292.49Y-86.919
X292.506Y-97.46
X292.555Y-53.841
X292.585Y-66.221
X292.65Y-45.828
X292.964Y-114.381
X293.01Y-145.397
X293.025Y-75.466
X293.086Y-105.242
X294.289Y-114.371
X294.589Y-96.075
X294.756Y-69.291
X294.797Y-71.955
X295.173Y-82.233
X295.288Y-91.618
X295.595Y-114.356
X295.783Y-81.064
X295.843Y-69.636
X295.897Y-98.946
X295.974Y-83.312
X296.226Y-95.199
X296.469Y-61.912
X297.155Y-96.101
X297.345Y-74.358
X297.396Y-105.258
X297.421Y-150.673
X297.51Y-118.415
X297.539Y-53.101
X297.663Y-79.318
X297.853Y-71.438
X298.237Y-106.247
X298.412Y-86.081
X298.513Y-152.552
X298.996Y-81.28
X299.022Y-103.48
X299.244Y-75.768
X299.249Y-107.228
X299.301Y-73.469
X300.6Y-100.5
X300.85Y-109.169
X300.873Y-46.126
X300.938Y-111.082
X302.209Y-150.876
X302.628Y-111.658
X302.781Y-59.931
X303.051Y-75.781
X304.089Y-51.067
X304.787Y-106.947
X305.003Y-110.934
X305.244Y-108.191
X305.404Y-92.863
X305.422Y-81.991
X305.888Y-86.896
X306.426Y-104.61
X306.654Y-108.204
X306.667Y-81.42
X306.692Y-75.933
X306.947Y-92.259
X307.01Y-133.02
X307.044Y-45.828
X308.551Y-85.816
X308.788Y-133.325
X308.966Y-59.703
X309.232Y-50.457
X309.27Y-42.647
X309.385Y-107.912
X309.947Y-68.954
X309.994Y-132.563
X310.173Y-74.354
X310.274Y-153.962
X310.388Y-49.06
X310.528Y-123.761
X311.569Y-152.921
X311.734Y-84.239
X312.276Y-75.641
X312.334Y-93.249
X312.966Y-152.337
X313.258Y-97.358
X314.985Y-71.501
X315.252Y-152.946
X315.355Y-90.271
X315.404Y-51.117
X315.646Y-102.768
X316.597Y-72.731
X316.597Y-80.789
X316.801Y-91.931
X316.828Y-57.174
X316.928Y-151.714
X317.477Y-94.947
X317.477Y-114.736
X317.489Y-50.884
X318.452Y-152.273
X318.464Y-57.932
X318.597Y-91.135
X318.808Y-66.573
X318.872Y-53.734
X319.189Y-58.743
X319.269Y-76.024
X319.536Y-115.902
X319.897Y-91.813
X319.947Y-114.794
X320.053Y-152.565
X320.218Y-131.978
X320.225Y-57.675
X321.061Y-75.528
X321.119Y-76.597
X322.531Y-115.304
X323.571Y-42.901
X323.698Y-144.678
X323.723Y-137.668
X323.939Y-53.835
X324.015Y-135.293
X324.091Y-136.563
X324.211Y-115.249
X324.53Y-76.202
X324.675Y-61.036
X325.018Y-59.957
X325.02Y-58.779
X325.059Y-162.803
X325.082Y-134.328
X325.272Y-96.723
X325.292Y-114.951
X325.99Y-76.489
X326.225Y-68.631
X326.251Y-72.409
X326.631Y-133.591
X326.729Y-116.929
X327.025Y-130.772
X327.446Y-75.843
X327.876Y-68.834
X328.257Y-61.519
X328.905Y-48.235
X329.032Y-135.56
X329.186Y-93.514
X329.34Y-60.065
X329.857Y-54.394
X331.14Y-148.327
X331.191Y-95.567
X332.346Y-153.34
X332.562Y-81.369
X332.702Y-139.37
X334.099Y-132.207
X334.137Y-134.874
X334.249Y-72.576
X334.736Y-149.415
X335.648Y-69.012
X335.747Y-135.052
X337.261Y-73.736
X337.693Y-134.928
X338.054Y-77.05
X339.124Y-76.685
X339.767Y-133.927
X340.191Y-85.341
X340.391Y-80.877
X341.771Y-82.89
X341.85Y-81.089
X341.904Y-86.148
X342.394Y-149.601
X343.941Y-132.283
X343.941Y-146.545
X344.83Y-134.696
X344.906Y-156.713
X345.243Y-154.707
X345.91Y-145.517
X345.935Y-136.001
X346.342Y-142.469
X346.964Y-126.022
X347.739Y-143.383
X349.578Y-137.386
X350.081Y-150.23
X351.526Y-149.109
X351.612Y-64.694
X352.438Y-63.906
X352.735Y-152.476
X352.869Y-133.071
X353.111Y-118.834
X353.289Y-63.094
X353.949Y-57.658
X354.051Y-151.219
X354.114Y-62.281
X354.357Y-161.955
X354.457Y-55.372
X354.47Y-132.956
X354.901Y-61.455
X354.965Y-56.642
X355.029Y-164.426
X355.74Y-60.617
X356.121Y-132.855
X356.527Y-59.792
X356.73Y-143.637
X357.403Y-58.953
X357.822Y-132.944
X358.062Y-144.501
X359.296Y-133.452
X359.994Y-142.634
X360.515Y-134.353
X361.125Y-149.06
X361.417Y-140.246
X363.093Y-67.285
X364.808Y-84.925
X366.662Y-97.803
X367.716Y-68.263
X369.418Y-147.904
X373.913Y-73.635
X376.149Y-69.621
X376.466Y-111.29
X377.126Y-78.816
X377.165Y-57.658
X377.29Y-70.356
X377.927Y-82.398
X378.32Y-76.81
X378.904Y-57.302
X379.146Y-55.397
X379.782Y-70.214
X380.327Y-99.187
X380.467Y-106.858
X380.492Y-95.898
X381.025Y-111.633
X383.451Y-75.705
X386.969Y-110.871
X387.655Y-101.956
X389.903Y-107.023
X390.258Y-79.515
X392.049Y-126.454
X393.217Y-82.575
X394.322Y-100.978
X395.021Y-88.963
X395.732Y-94.348
X397.286Y-89.86
X399.415Y-88.595
X406.413Y-87.871
X410.119Y-82.512
T2
X180.721Y-123.571
X180.975Y-78.232
X180.975Y-83.312
X181.229Y-62.357
X181.229Y-67.437
X183.261Y-123.571
X184.785Y-76.962
X184.785Y-84.582
X184.912Y-61.214
X184.912Y-68.834
X187.325Y-76.962
X187.325Y-84.582
X187.452Y-61.214
X187.452Y-68.834
X189.865Y-76.962
X189.865Y-84.582
X189.992Y-61.214
X189.992Y-68.834
X190.754Y-122.428
X190.754Y-124.968
X192.405Y-76.962
X192.405Y-84.582
X192.532Y-61.214
X192.532Y-68.834
X194.945Y-76.962
X194.945Y-84.582
X195.072Y-61.214
X195.072Y-68.834
X196.215Y-156.337
X196.215Y-158.877
X196.342Y-141.351
X196.342Y-143.891
X197.485Y-76.962
X197.485Y-84.582
X197.612Y-61.214
X197.612Y-68.834
X200.025Y-76.962
X200.025Y-84.582
X200.152Y-61.214
X200.152Y-68.834
X205.435Y-96.266
X205.435Y-98.806
X205.435Y-104.877
X205.435Y-107.417
X224.282Y-113.284
X226.822Y-95.631
X226.822Y-100.711
X226.822Y-113.284
X229.362Y-113.284
X231.902Y-113.284
X234.442Y-113.284
X236.982Y-113.284
X237.109Y-139.319
X237.109Y-144.399
X238.252Y-42.672
X238.252Y-47.752
X239.522Y-113.284
X241.427Y-139.319
X241.427Y-144.399
X242.062Y-113.284
X244.602Y-113.284
X245.872Y-42.672
X245.872Y-47.752
X247.142Y-113.284
X252.222Y-120.65
X252.222Y-125.73
X291.719Y-139.319
X291.719Y-144.399
X295.783Y-120.65
X295.783Y-125.73
X309.626Y-139.319
X309.626Y-144.399
X314.071Y-120.65
X314.071Y-125.73
X328.549Y-139.319
X328.549Y-144.399
X341.503Y-48.895
X364.744Y-139.319
X364.744Y-144.399
X368.224Y-90.805
X370.764Y-90.805
X373.304Y-90.805
X374.396Y-66.548
X374.396Y-71.628
X375.844Y-90.805
X378.384Y-90.805
X380.924Y-90.805
X383.464Y-90.805
X386.004Y-90.805
X388.544Y-90.805
X391.084Y-90.805
X392.938Y-66.548
X392.938Y-71.628
X403.86Y-71.882
X403.86Y-79.502
X403.86Y-94.742
X403.86Y-102.362
X406.4Y-71.882
X406.4Y-79.502
X406.4Y-94.742
X406.4Y-102.362
X408.94Y-71.882
X408.94Y-79.502
X408.94Y-94.742
X408.94Y-102.362
X411.48Y-71.882
X411.48Y-79.502
X411.48Y-94.742
X411.48Y-102.362
T3
X409.956Y-108.609
X409.956Y-111.609
T4
X134.061Y-83.464
X135.941Y-92.177
X135.941Y-94.717
X136.601Y-83.464
X138.582Y-85.7
X138.582Y-88.24
X141.173Y-92.05
X143.51Y-82.398
X143.51Y-84.938
X143.713Y-92.05
X151.486Y-88.062
X151.486Y-90.602
X202.311Y-44.069
X202.311Y-46.609
X204.851Y-44.069
X204.851Y-46.609
X207.391Y-44.069
X207.391Y-46.609
X209.931Y-44.069
X209.931Y-46.609
X210.947Y-72.136
X210.947Y-74.676
X210.947Y-77.216
X212.471Y-44.069
X212.471Y-46.609
X213.487Y-72.136
X213.487Y-74.676
X213.487Y-77.216
X341.503Y-46.355
X344.043Y-46.355
X344.043Y-48.895
X346.583Y-46.355
X346.583Y-48.895
X349.123Y-46.355
X349.123Y-48.895
X351.663Y-46.355
X351.663Y-48.895
X354.203Y-46.355
X354.203Y-48.895
X356.743Y-46.355
X356.743Y-48.895
X359.283Y-46.355
X359.283Y-48.895
X361.823Y-46.355
X361.823Y-48.895
X364.363Y-46.355
X364.363Y-48.895
X366.903Y-46.355
X366.903Y-48.895
X369.443Y-46.355
X369.443Y-48.895
X371.983Y-46.355
X371.983Y-48.895
X374.523Y-46.355
X374.523Y-48.895
X377.063Y-46.355
X377.063Y-48.895
X379.603Y-46.355
X379.603Y-48.895
X382.143Y-46.355
X382.143Y-48.895
X384.683Y-46.355
X384.683Y-48.895
X387.223Y-46.355
X387.223Y-48.895
X389.763Y-46.355
X389.763Y-48.895
T5
X398.653Y-123.063
X398.653Y-145.923
T6
X175.641Y-46.101
X416.941Y-46.101
T0
M30
