G04 (created by PCBNEW (2013-07-07 BZR 4022)-stable) date 11/3/2014 10:36:44 PM*
%MOIN*%
G04 Gerber Fmt 3.4, Leading zero omitted, Abs format*
%FSLAX34Y34*%
G01*
G70*
G90*
G04 APERTURE LIST*
%ADD10C,0.00590551*%
%ADD11R,0.0337X0.0672*%
%ADD12R,0.0672X0.0337*%
%ADD13R,0.0672X0.0325984*%
%ADD14R,0.0668504X0.0325984*%
%ADD15R,0.13X0.35*%
%ADD16R,0.09X0.35*%
%ADD17R,0.08X0.08*%
%ADD18C,0.08*%
%ADD19C,0.075*%
%ADD20R,0.075X0.075*%
%ADD21R,0.082X0.11*%
%ADD22O,0.082X0.11*%
%ADD23R,0.0711X0.079*%
%ADD24R,0.079X0.0711*%
%ADD25R,0.0987X0.0909*%
%ADD26R,0.0672X0.0672*%
%ADD27R,0.0829X0.0593*%
%ADD28R,0.264X0.2325*%
%ADD29R,0.0436X0.1066*%
%ADD30C,0.18*%
%ADD31R,0.04X0.065*%
%ADD32C,0.118425*%
%ADD33C,0.0908661*%
%ADD34R,0.0751X0.0593*%
%ADD35R,0.0679X0.1079*%
%ADD36R,0.1617X0.1066*%
G04 APERTURE END LIST*
G54D10*
G54D11*
X110830Y-35257D03*
X111027Y-35257D03*
X111223Y-35257D03*
X111420Y-35257D03*
X111617Y-35257D03*
X111814Y-35257D03*
X112011Y-35257D03*
X112208Y-35257D03*
X112404Y-35257D03*
X112601Y-35257D03*
X112798Y-35257D03*
X112995Y-35257D03*
X113192Y-35257D03*
X113389Y-35257D03*
X113585Y-35257D03*
X113782Y-35257D03*
X113979Y-35257D03*
X114176Y-35257D03*
X114372Y-35257D03*
X114569Y-35257D03*
X114766Y-35257D03*
X114963Y-35257D03*
X115159Y-35257D03*
X115356Y-35257D03*
X115553Y-35257D03*
X115750Y-35257D03*
X115947Y-35257D03*
X116144Y-35257D03*
X116340Y-35257D03*
X116537Y-35257D03*
X116734Y-35257D03*
X116931Y-35257D03*
X117128Y-35257D03*
X117325Y-35257D03*
X117521Y-35257D03*
X117718Y-35257D03*
G54D12*
X118506Y-34469D03*
X118506Y-34272D03*
X118506Y-34076D03*
X118506Y-33879D03*
X118506Y-33682D03*
X118506Y-33485D03*
X118506Y-33288D03*
X118506Y-33091D03*
X118506Y-32895D03*
X118506Y-32698D03*
X118506Y-32501D03*
X118506Y-32304D03*
X118506Y-32107D03*
X118506Y-31910D03*
X118506Y-31714D03*
X118506Y-31517D03*
X118506Y-31320D03*
X118506Y-31123D03*
X118506Y-30927D03*
X118506Y-30730D03*
X118506Y-30533D03*
X118506Y-30336D03*
X118506Y-30140D03*
X118506Y-29943D03*
X118506Y-29746D03*
X118506Y-29549D03*
X118506Y-29352D03*
X118506Y-29155D03*
X118506Y-28959D03*
X118506Y-28762D03*
X118506Y-28565D03*
X118506Y-28368D03*
X118506Y-28171D03*
X118506Y-27974D03*
X118506Y-27778D03*
X118506Y-27581D03*
G54D11*
X117718Y-26793D03*
X117521Y-26793D03*
X117325Y-26793D03*
X117128Y-26793D03*
X116931Y-26793D03*
X116734Y-26793D03*
X116537Y-26793D03*
X116340Y-26793D03*
X116144Y-26793D03*
X115947Y-26793D03*
X115750Y-26793D03*
X115553Y-26793D03*
X115356Y-26793D03*
X115159Y-26793D03*
X114963Y-26793D03*
X114766Y-26793D03*
X114569Y-26793D03*
X114372Y-26793D03*
X114176Y-26793D03*
X113979Y-26793D03*
X113782Y-26793D03*
X113585Y-26793D03*
X113389Y-26793D03*
X113192Y-26793D03*
X112995Y-26793D03*
X112798Y-26793D03*
X112601Y-26793D03*
X112404Y-26793D03*
X112208Y-26793D03*
X112011Y-26793D03*
X111814Y-26793D03*
X111617Y-26793D03*
X111420Y-26793D03*
X111223Y-26793D03*
X111027Y-26793D03*
X110830Y-26793D03*
G54D12*
X110042Y-27581D03*
X110042Y-27778D03*
X110042Y-27974D03*
X110042Y-28171D03*
X110042Y-28368D03*
X110042Y-28565D03*
X110042Y-28762D03*
X110042Y-28959D03*
X110042Y-29155D03*
X110042Y-29352D03*
X110042Y-29549D03*
X110042Y-29746D03*
X110042Y-29943D03*
X110042Y-30140D03*
X110042Y-30336D03*
X110042Y-30533D03*
X110042Y-30730D03*
X110042Y-30927D03*
X110042Y-31123D03*
X110042Y-31320D03*
X110042Y-31517D03*
X110042Y-31714D03*
X110042Y-31910D03*
X110042Y-32107D03*
X110042Y-32304D03*
X110042Y-32501D03*
X110042Y-32698D03*
X110042Y-32895D03*
X110042Y-33091D03*
X110042Y-33288D03*
X110042Y-33485D03*
X110042Y-33682D03*
X110042Y-33879D03*
G54D13*
X110042Y-34076D03*
G54D14*
X110042Y-34272D03*
G54D12*
X110042Y-34469D03*
G54D15*
X82700Y-67150D03*
G54D16*
X84150Y-67150D03*
X85400Y-67150D03*
X86650Y-67150D03*
X87900Y-67150D03*
X89150Y-67150D03*
X90400Y-67150D03*
X91650Y-67150D03*
X92900Y-67150D03*
X94150Y-67150D03*
X95400Y-67150D03*
X96650Y-67150D03*
X97900Y-67150D03*
X99150Y-67150D03*
X100400Y-67150D03*
X101650Y-67150D03*
X102900Y-67150D03*
X104150Y-67150D03*
X105400Y-67150D03*
X106650Y-67150D03*
X107900Y-67150D03*
X109150Y-67150D03*
X110400Y-67150D03*
X111650Y-67150D03*
X112900Y-67150D03*
X114150Y-67150D03*
X115400Y-67150D03*
X116650Y-67150D03*
X117900Y-67150D03*
X119150Y-67150D03*
X120400Y-67150D03*
X121650Y-67150D03*
X122900Y-67150D03*
X124150Y-67150D03*
X125400Y-67150D03*
X126650Y-67150D03*
X127900Y-67150D03*
X129150Y-67150D03*
X130400Y-67150D03*
X131650Y-67150D03*
X132900Y-67150D03*
X134150Y-67150D03*
X135400Y-67150D03*
X136650Y-67150D03*
X137900Y-67150D03*
X139150Y-67150D03*
X140400Y-67150D03*
X141650Y-67150D03*
X142900Y-67150D03*
G54D15*
X144350Y-67150D03*
G54D17*
X56500Y-33440D03*
G54D18*
X56500Y-32440D03*
G54D17*
X54560Y-33740D03*
G54D18*
X54560Y-34740D03*
G54D17*
X53520Y-36290D03*
G54D18*
X53520Y-37290D03*
G54D17*
X52780Y-32860D03*
G54D18*
X53780Y-32860D03*
G54D19*
X93800Y-18800D03*
X93800Y-16800D03*
X96800Y-18800D03*
X96800Y-16800D03*
G54D17*
X83650Y-17350D03*
G54D18*
X83650Y-18350D03*
X82650Y-17350D03*
X82650Y-18350D03*
X81650Y-17350D03*
X81650Y-18350D03*
X80650Y-17350D03*
X80650Y-18350D03*
X79650Y-17350D03*
X79650Y-18350D03*
G54D17*
X83050Y-28400D03*
G54D18*
X84050Y-28400D03*
X83050Y-29400D03*
X84050Y-29400D03*
X83050Y-30400D03*
X84050Y-30400D03*
G54D17*
X59640Y-34670D03*
G54D18*
X59640Y-35670D03*
G54D17*
X56580Y-36240D03*
G54D18*
X55580Y-36240D03*
G54D20*
X159000Y-31300D03*
G54D19*
X160000Y-31300D03*
X161000Y-31300D03*
X162000Y-31300D03*
X162000Y-28300D03*
X161000Y-28300D03*
X160000Y-28300D03*
X159000Y-28300D03*
G54D21*
X72800Y-27100D03*
G54D22*
X73800Y-27100D03*
X74800Y-27100D03*
X75800Y-27100D03*
X76800Y-27100D03*
X77800Y-27100D03*
X78800Y-27100D03*
X78800Y-24100D03*
X77800Y-24100D03*
X76800Y-24100D03*
X75800Y-24100D03*
X74800Y-24100D03*
X73800Y-24100D03*
X72800Y-24100D03*
G54D19*
X71350Y-26550D03*
X71350Y-24550D03*
G54D17*
X77250Y-61550D03*
G54D18*
X77250Y-62550D03*
G54D17*
X77300Y-56650D03*
G54D18*
X77300Y-55650D03*
G54D17*
X75100Y-49200D03*
G54D18*
X75100Y-48200D03*
G54D17*
X72150Y-48650D03*
G54D18*
X71150Y-48650D03*
G54D23*
X103024Y-19600D03*
X102276Y-19600D03*
G54D24*
X99200Y-19476D03*
X99200Y-20224D03*
G54D23*
X123424Y-35350D03*
X122676Y-35350D03*
G54D25*
X122300Y-31700D03*
X122300Y-33700D03*
X123954Y-31700D03*
X123954Y-33700D03*
G54D26*
X82475Y-51050D03*
X81649Y-51050D03*
G54D27*
X75139Y-59947D03*
X75139Y-58153D03*
G54D28*
X72266Y-59050D03*
G54D29*
X142500Y-54089D03*
X142000Y-54089D03*
X141500Y-54089D03*
X141000Y-54089D03*
X140500Y-54089D03*
X140000Y-54089D03*
X139500Y-54089D03*
X139000Y-54089D03*
X138500Y-54089D03*
X138000Y-54089D03*
X138000Y-57711D03*
X138500Y-57711D03*
X139000Y-57711D03*
X139500Y-57711D03*
X140000Y-57711D03*
X140500Y-57711D03*
X141000Y-57711D03*
X141500Y-57711D03*
X142000Y-57711D03*
X142500Y-57711D03*
X120750Y-54089D03*
X120250Y-54089D03*
X119750Y-54089D03*
X119250Y-54089D03*
X118750Y-54089D03*
X118250Y-54089D03*
X117750Y-54089D03*
X117250Y-54089D03*
X116750Y-54089D03*
X116250Y-54089D03*
X116250Y-57711D03*
X116750Y-57711D03*
X117250Y-57711D03*
X117750Y-57711D03*
X118250Y-57711D03*
X118750Y-57711D03*
X119250Y-57711D03*
X119750Y-57711D03*
X120250Y-57711D03*
X120750Y-57711D03*
X113750Y-54089D03*
X113250Y-54089D03*
X112750Y-54089D03*
X112250Y-54089D03*
X111750Y-54089D03*
X111250Y-54089D03*
X110750Y-54089D03*
X110250Y-54089D03*
X109750Y-54089D03*
X109250Y-54089D03*
X109250Y-57711D03*
X109750Y-57711D03*
X110250Y-57711D03*
X110750Y-57711D03*
X111250Y-57711D03*
X111750Y-57711D03*
X112250Y-57711D03*
X112750Y-57711D03*
X113250Y-57711D03*
X113750Y-57711D03*
G54D26*
X113500Y-17663D03*
X113500Y-16837D03*
X111250Y-17663D03*
X111250Y-16837D03*
X108950Y-17663D03*
X108950Y-16837D03*
X101450Y-17663D03*
X101450Y-16837D03*
G54D29*
X130450Y-57711D03*
X130950Y-57711D03*
X131450Y-57711D03*
X131950Y-57711D03*
X132450Y-57711D03*
X132950Y-57711D03*
X133450Y-57711D03*
X133950Y-57711D03*
X134450Y-57711D03*
X134950Y-57711D03*
X134950Y-54089D03*
X134450Y-54089D03*
X133950Y-54089D03*
X133450Y-54089D03*
X132950Y-54089D03*
X132450Y-54089D03*
X131950Y-54089D03*
X131450Y-54089D03*
X130950Y-54089D03*
X130450Y-54089D03*
G54D27*
X75114Y-52997D03*
X75114Y-51203D03*
G54D28*
X72241Y-52100D03*
G54D21*
X72750Y-33300D03*
G54D22*
X73750Y-33300D03*
X74750Y-33300D03*
X75750Y-33300D03*
X76750Y-33300D03*
X77750Y-33300D03*
X78750Y-33300D03*
X78750Y-30300D03*
X77750Y-30300D03*
X76750Y-30300D03*
X75750Y-30300D03*
X74750Y-30300D03*
X73750Y-30300D03*
X72750Y-30300D03*
G54D19*
X71250Y-32800D03*
X71250Y-30800D03*
G54D29*
X92200Y-54089D03*
X91700Y-54089D03*
X91200Y-54089D03*
X90700Y-54089D03*
X90200Y-54089D03*
X89700Y-54089D03*
X89200Y-54089D03*
X88700Y-54089D03*
X88200Y-54089D03*
X87700Y-54089D03*
X87700Y-57711D03*
X88200Y-57711D03*
X88700Y-57711D03*
X89200Y-57711D03*
X89700Y-57711D03*
X90200Y-57711D03*
X90700Y-57711D03*
X91200Y-57711D03*
X91700Y-57711D03*
X92200Y-57711D03*
X96250Y-57711D03*
X96750Y-57711D03*
X97250Y-57711D03*
X97750Y-57711D03*
X98250Y-57711D03*
X98750Y-57711D03*
X99250Y-57711D03*
X99750Y-57711D03*
X100250Y-57711D03*
X100750Y-57711D03*
X100750Y-54089D03*
X100250Y-54089D03*
X99750Y-54089D03*
X99250Y-54089D03*
X98750Y-54089D03*
X98250Y-54089D03*
X97750Y-54089D03*
X97250Y-54089D03*
X96750Y-54089D03*
X96250Y-54089D03*
G54D30*
X164150Y-18150D03*
X69150Y-18150D03*
G54D31*
X90650Y-39950D03*
X91150Y-39950D03*
X91650Y-39950D03*
X92150Y-39950D03*
X92650Y-39950D03*
X93150Y-39950D03*
X93650Y-39950D03*
X93650Y-37450D03*
X93150Y-37450D03*
X92150Y-37450D03*
X91650Y-37450D03*
X91150Y-37450D03*
X90650Y-37450D03*
X92650Y-37450D03*
G54D20*
X88300Y-44600D03*
G54D19*
X89300Y-44600D03*
X90300Y-44600D03*
X91300Y-44600D03*
X92300Y-44600D03*
X93300Y-44600D03*
X94300Y-44600D03*
X95300Y-44600D03*
X96300Y-44600D03*
X97300Y-44600D03*
G54D21*
X159000Y-40300D03*
G54D22*
X160000Y-40300D03*
X161000Y-40300D03*
X162000Y-40300D03*
X162000Y-37300D03*
X161000Y-37300D03*
X160000Y-37300D03*
X159000Y-37300D03*
G54D32*
X156950Y-57450D03*
X156950Y-48450D03*
G54D23*
X121574Y-28150D03*
X120826Y-28150D03*
G54D33*
X161400Y-43940D03*
X161400Y-42759D03*
G54D17*
X134450Y-19250D03*
G54D18*
X134450Y-18250D03*
X139450Y-19250D03*
X135450Y-18250D03*
X140450Y-19250D03*
X136450Y-18250D03*
X141450Y-19250D03*
X137450Y-18250D03*
X142450Y-19250D03*
X138450Y-18250D03*
X143450Y-19250D03*
X139450Y-18250D03*
X144450Y-19250D03*
X140450Y-18250D03*
X145450Y-19250D03*
X141450Y-18250D03*
X146450Y-19250D03*
X142450Y-18250D03*
X147450Y-19250D03*
X143450Y-18250D03*
X148450Y-19250D03*
X144450Y-18250D03*
X149450Y-19250D03*
X145450Y-18250D03*
X146450Y-18250D03*
X150450Y-19250D03*
X147450Y-18250D03*
X149450Y-18250D03*
X150450Y-18250D03*
X151450Y-18250D03*
X152450Y-18250D03*
X151450Y-19250D03*
X152450Y-19250D03*
X135450Y-19250D03*
X136450Y-19250D03*
X137450Y-19250D03*
X138450Y-19250D03*
X153450Y-19250D03*
X153450Y-18250D03*
X148450Y-18250D03*
G54D19*
X154700Y-28200D03*
X154700Y-26200D03*
G54D29*
X146250Y-25439D03*
X145750Y-25439D03*
X145250Y-25439D03*
X144750Y-25439D03*
X144250Y-25439D03*
X143750Y-25439D03*
X143250Y-25439D03*
X142750Y-25439D03*
X142250Y-25439D03*
X141750Y-25439D03*
X141750Y-29061D03*
X142250Y-29061D03*
X142750Y-29061D03*
X143250Y-29061D03*
X143750Y-29061D03*
X144250Y-29061D03*
X144750Y-29061D03*
X145250Y-29061D03*
X145750Y-29061D03*
X146250Y-29061D03*
X153500Y-25439D03*
X153000Y-25439D03*
X152500Y-25439D03*
X152000Y-25439D03*
X151500Y-25439D03*
X151000Y-25439D03*
X150500Y-25439D03*
X150000Y-25439D03*
X149500Y-25439D03*
X149000Y-25439D03*
X149000Y-29061D03*
X149500Y-29061D03*
X150000Y-29061D03*
X150500Y-29061D03*
X151000Y-29061D03*
X151500Y-29061D03*
X152000Y-29061D03*
X152500Y-29061D03*
X153000Y-29061D03*
X153500Y-29061D03*
G54D19*
X99300Y-49500D03*
X99300Y-47500D03*
X114850Y-56850D03*
X114850Y-54850D03*
X93350Y-56850D03*
X93350Y-54850D03*
X147400Y-28200D03*
X147400Y-26200D03*
X89300Y-37650D03*
X89300Y-39650D03*
X143600Y-56850D03*
X143600Y-54850D03*
X116450Y-49500D03*
X116450Y-47500D03*
X123650Y-49500D03*
X123650Y-47500D03*
X121900Y-56850D03*
X121900Y-54850D03*
X95050Y-54850D03*
X95050Y-56850D03*
X129350Y-54850D03*
X129350Y-56850D03*
G54D26*
X120300Y-17713D03*
X120300Y-16887D03*
X118000Y-17713D03*
X118000Y-16887D03*
X115800Y-17713D03*
X115800Y-16887D03*
G54D20*
X144970Y-35750D03*
G54D19*
X145970Y-35750D03*
X146970Y-35750D03*
X147970Y-35750D03*
X148970Y-35750D03*
X149970Y-35750D03*
X150970Y-35750D03*
X151970Y-35750D03*
X152970Y-35750D03*
X153970Y-35750D03*
G54D34*
X100317Y-19476D03*
X100317Y-20224D03*
X101183Y-19850D03*
G54D35*
X75891Y-41170D03*
X76800Y-41170D03*
X77709Y-41170D03*
G54D36*
X76800Y-38730D03*
G54D17*
X80880Y-42290D03*
G54D18*
X80880Y-41290D03*
G54D17*
X80880Y-37900D03*
G54D18*
X80880Y-38900D03*
G54D23*
X151354Y-45110D03*
X150606Y-45110D03*
X150546Y-39350D03*
X151294Y-39350D03*
X152746Y-40920D03*
X153494Y-40920D03*
X148946Y-45110D03*
X149694Y-45110D03*
G54D29*
X149540Y-43023D03*
X150040Y-43023D03*
X150540Y-43023D03*
X151040Y-43023D03*
X151040Y-40977D03*
X150540Y-40977D03*
X150040Y-40977D03*
X149540Y-40977D03*
M02*
