G04 (created by PCBNEW (2013-07-07 BZR 4022)-stable) date 11/3/2014 10:36:44 PM*
%MOIN*%
G04 Gerber Fmt 3.4, Leading zero omitted, Abs format*
%FSLAX34Y34*%
G01*
G70*
G90*
G04 APERTURE LIST*
%ADD10C,0.00590551*%
%ADD11C,0.0065*%
%ADD12C,0.006*%
%ADD13C,0.005*%
%ADD14C,0.002*%
%ADD15C,0.0026*%
%ADD16C,0.008*%
%ADD17C,0.0035*%
G04 APERTURE END LIST*
G54D10*
G54D11*
X127150Y-23600D02*
X124150Y-23600D01*
X124150Y-22200D02*
X127150Y-22200D01*
X127150Y-23600D02*
X127150Y-22200D01*
G54D12*
X124150Y-22200D02*
X124150Y-23600D01*
G54D13*
X124491Y-22400D02*
G75*
G03X124491Y-22400I-141J0D01*
G74*
G01*
X124150Y-23150D02*
X124450Y-23150D01*
X124450Y-23150D02*
X124450Y-22650D01*
X124450Y-22650D02*
X124150Y-22650D01*
G54D14*
X80037Y-20626D02*
X80037Y-19074D01*
X80037Y-19074D02*
X79263Y-19074D01*
X79263Y-19074D02*
X79263Y-20626D01*
X79263Y-20626D02*
X80037Y-20626D01*
X82037Y-20626D02*
X82037Y-19074D01*
X82037Y-19074D02*
X81263Y-19074D01*
X81263Y-19074D02*
X81263Y-20626D01*
X81263Y-20626D02*
X82037Y-20626D01*
X83037Y-20626D02*
X83037Y-19074D01*
X83037Y-19074D02*
X82263Y-19074D01*
X82263Y-19074D02*
X82263Y-20626D01*
X82263Y-20626D02*
X83037Y-20626D01*
X112126Y-33763D02*
X110574Y-33763D01*
X110574Y-33763D02*
X110574Y-34537D01*
X110574Y-34537D02*
X112126Y-34537D01*
X112126Y-34537D02*
X112126Y-33763D01*
X111587Y-19776D02*
X111587Y-18224D01*
X111587Y-18224D02*
X110813Y-18224D01*
X110813Y-18224D02*
X110813Y-19776D01*
X110813Y-19776D02*
X111587Y-19776D01*
X116013Y-28824D02*
X116013Y-30376D01*
X116013Y-30376D02*
X116787Y-30376D01*
X116787Y-30376D02*
X116787Y-28824D01*
X116787Y-28824D02*
X116013Y-28824D01*
X117276Y-33563D02*
X115724Y-33563D01*
X115724Y-33563D02*
X115724Y-34337D01*
X115724Y-34337D02*
X117276Y-34337D01*
X117276Y-34337D02*
X117276Y-33563D01*
X110663Y-28824D02*
X110663Y-30376D01*
X110663Y-30376D02*
X111437Y-30376D01*
X111437Y-30376D02*
X111437Y-28824D01*
X111437Y-28824D02*
X110663Y-28824D01*
X109287Y-19776D02*
X109287Y-18224D01*
X109287Y-18224D02*
X108513Y-18224D01*
X108513Y-18224D02*
X108513Y-19776D01*
X108513Y-19776D02*
X109287Y-19776D01*
X113887Y-19776D02*
X113887Y-18224D01*
X113887Y-18224D02*
X113113Y-18224D01*
X113113Y-18224D02*
X113113Y-19776D01*
X113113Y-19776D02*
X113887Y-19776D01*
X84976Y-50663D02*
X83424Y-50663D01*
X83424Y-50663D02*
X83424Y-51437D01*
X83424Y-51437D02*
X84976Y-51437D01*
X84976Y-51437D02*
X84976Y-50663D01*
X113587Y-34226D02*
X113587Y-32674D01*
X113587Y-32674D02*
X112813Y-32674D01*
X112813Y-32674D02*
X112813Y-34226D01*
X112813Y-34226D02*
X113587Y-34226D01*
X113113Y-28774D02*
X113113Y-30326D01*
X113113Y-30326D02*
X113887Y-30326D01*
X113887Y-30326D02*
X113887Y-28774D01*
X113887Y-28774D02*
X113113Y-28774D01*
G54D15*
X117454Y-46456D02*
X117647Y-46456D01*
X117647Y-46456D02*
X117647Y-47054D01*
X117454Y-47054D02*
X117647Y-47054D01*
X117454Y-46456D02*
X117454Y-47054D01*
X117954Y-46456D02*
X118147Y-46456D01*
X118147Y-46456D02*
X118147Y-47054D01*
X117954Y-47054D02*
X118147Y-47054D01*
X117954Y-46456D02*
X117954Y-47054D01*
X118454Y-46456D02*
X118647Y-46456D01*
X118647Y-46456D02*
X118647Y-47054D01*
X118454Y-47054D02*
X118647Y-47054D01*
X118454Y-46456D02*
X118454Y-47054D01*
X118954Y-46456D02*
X119147Y-46456D01*
X119147Y-46456D02*
X119147Y-47054D01*
X118954Y-47054D02*
X119147Y-47054D01*
X118954Y-46456D02*
X118954Y-47054D01*
X119454Y-46456D02*
X119647Y-46456D01*
X119647Y-46456D02*
X119647Y-47054D01*
X119454Y-47054D02*
X119647Y-47054D01*
X119454Y-46456D02*
X119454Y-47054D01*
X119953Y-46456D02*
X120146Y-46456D01*
X120146Y-46456D02*
X120146Y-47054D01*
X119953Y-47054D02*
X120146Y-47054D01*
X119953Y-46456D02*
X119953Y-47054D01*
X120453Y-46456D02*
X120646Y-46456D01*
X120646Y-46456D02*
X120646Y-47054D01*
X120453Y-47054D02*
X120646Y-47054D01*
X120453Y-46456D02*
X120453Y-47054D01*
X120953Y-46456D02*
X121146Y-46456D01*
X121146Y-46456D02*
X121146Y-47054D01*
X120953Y-47054D02*
X121146Y-47054D01*
X120953Y-46456D02*
X120953Y-47054D01*
X121453Y-46456D02*
X121646Y-46456D01*
X121646Y-46456D02*
X121646Y-47054D01*
X121453Y-47054D02*
X121646Y-47054D01*
X121453Y-46456D02*
X121453Y-47054D01*
X121953Y-46456D02*
X122146Y-46456D01*
X122146Y-46456D02*
X122146Y-47054D01*
X121953Y-47054D02*
X122146Y-47054D01*
X121953Y-46456D02*
X121953Y-47054D01*
X121953Y-50046D02*
X122146Y-50046D01*
X122146Y-50046D02*
X122146Y-50644D01*
X121953Y-50644D02*
X122146Y-50644D01*
X121953Y-50046D02*
X121953Y-50644D01*
X121453Y-50046D02*
X121646Y-50046D01*
X121646Y-50046D02*
X121646Y-50644D01*
X121453Y-50644D02*
X121646Y-50644D01*
X121453Y-50046D02*
X121453Y-50644D01*
X120953Y-50046D02*
X121146Y-50046D01*
X121146Y-50046D02*
X121146Y-50644D01*
X120953Y-50644D02*
X121146Y-50644D01*
X120953Y-50046D02*
X120953Y-50644D01*
X120453Y-50046D02*
X120646Y-50046D01*
X120646Y-50046D02*
X120646Y-50644D01*
X120453Y-50644D02*
X120646Y-50644D01*
X120453Y-50046D02*
X120453Y-50644D01*
X119953Y-50046D02*
X120146Y-50046D01*
X120146Y-50046D02*
X120146Y-50644D01*
X119953Y-50644D02*
X120146Y-50644D01*
X119953Y-50046D02*
X119953Y-50644D01*
X119454Y-50046D02*
X119647Y-50046D01*
X119647Y-50046D02*
X119647Y-50644D01*
X119454Y-50644D02*
X119647Y-50644D01*
X119454Y-50046D02*
X119454Y-50644D01*
X118954Y-50046D02*
X119147Y-50046D01*
X119147Y-50046D02*
X119147Y-50644D01*
X118954Y-50644D02*
X119147Y-50644D01*
X118954Y-50046D02*
X118954Y-50644D01*
X118454Y-50046D02*
X118647Y-50046D01*
X118647Y-50046D02*
X118647Y-50644D01*
X118454Y-50644D02*
X118647Y-50644D01*
X118454Y-50046D02*
X118454Y-50644D01*
X117954Y-50046D02*
X118147Y-50046D01*
X118147Y-50046D02*
X118147Y-50644D01*
X117954Y-50644D02*
X118147Y-50644D01*
X117954Y-50046D02*
X117954Y-50644D01*
X117454Y-50046D02*
X117647Y-50046D01*
X117647Y-50046D02*
X117647Y-50644D01*
X117454Y-50644D02*
X117647Y-50644D01*
X117454Y-50046D02*
X117454Y-50644D01*
G54D16*
X122343Y-47094D02*
X117257Y-47094D01*
X117257Y-47094D02*
X117257Y-47291D01*
X117257Y-47291D02*
X117257Y-50006D01*
X117257Y-50006D02*
X122343Y-50006D01*
X122343Y-47291D02*
X117257Y-47291D01*
X122343Y-50006D02*
X122343Y-47291D01*
X122343Y-47291D02*
X122343Y-47094D01*
G54D15*
X100304Y-46456D02*
X100497Y-46456D01*
X100497Y-46456D02*
X100497Y-47054D01*
X100304Y-47054D02*
X100497Y-47054D01*
X100304Y-46456D02*
X100304Y-47054D01*
X100804Y-46456D02*
X100997Y-46456D01*
X100997Y-46456D02*
X100997Y-47054D01*
X100804Y-47054D02*
X100997Y-47054D01*
X100804Y-46456D02*
X100804Y-47054D01*
X101304Y-46456D02*
X101497Y-46456D01*
X101497Y-46456D02*
X101497Y-47054D01*
X101304Y-47054D02*
X101497Y-47054D01*
X101304Y-46456D02*
X101304Y-47054D01*
X101804Y-46456D02*
X101997Y-46456D01*
X101997Y-46456D02*
X101997Y-47054D01*
X101804Y-47054D02*
X101997Y-47054D01*
X101804Y-46456D02*
X101804Y-47054D01*
X102304Y-46456D02*
X102497Y-46456D01*
X102497Y-46456D02*
X102497Y-47054D01*
X102304Y-47054D02*
X102497Y-47054D01*
X102304Y-46456D02*
X102304Y-47054D01*
X102803Y-46456D02*
X102996Y-46456D01*
X102996Y-46456D02*
X102996Y-47054D01*
X102803Y-47054D02*
X102996Y-47054D01*
X102803Y-46456D02*
X102803Y-47054D01*
X103303Y-46456D02*
X103496Y-46456D01*
X103496Y-46456D02*
X103496Y-47054D01*
X103303Y-47054D02*
X103496Y-47054D01*
X103303Y-46456D02*
X103303Y-47054D01*
X103803Y-46456D02*
X103996Y-46456D01*
X103996Y-46456D02*
X103996Y-47054D01*
X103803Y-47054D02*
X103996Y-47054D01*
X103803Y-46456D02*
X103803Y-47054D01*
X104303Y-46456D02*
X104496Y-46456D01*
X104496Y-46456D02*
X104496Y-47054D01*
X104303Y-47054D02*
X104496Y-47054D01*
X104303Y-46456D02*
X104303Y-47054D01*
X104803Y-46456D02*
X104996Y-46456D01*
X104996Y-46456D02*
X104996Y-47054D01*
X104803Y-47054D02*
X104996Y-47054D01*
X104803Y-46456D02*
X104803Y-47054D01*
X104803Y-50046D02*
X104996Y-50046D01*
X104996Y-50046D02*
X104996Y-50644D01*
X104803Y-50644D02*
X104996Y-50644D01*
X104803Y-50046D02*
X104803Y-50644D01*
X104303Y-50046D02*
X104496Y-50046D01*
X104496Y-50046D02*
X104496Y-50644D01*
X104303Y-50644D02*
X104496Y-50644D01*
X104303Y-50046D02*
X104303Y-50644D01*
X103803Y-50046D02*
X103996Y-50046D01*
X103996Y-50046D02*
X103996Y-50644D01*
X103803Y-50644D02*
X103996Y-50644D01*
X103803Y-50046D02*
X103803Y-50644D01*
X103303Y-50046D02*
X103496Y-50046D01*
X103496Y-50046D02*
X103496Y-50644D01*
X103303Y-50644D02*
X103496Y-50644D01*
X103303Y-50046D02*
X103303Y-50644D01*
X102803Y-50046D02*
X102996Y-50046D01*
X102996Y-50046D02*
X102996Y-50644D01*
X102803Y-50644D02*
X102996Y-50644D01*
X102803Y-50046D02*
X102803Y-50644D01*
X102304Y-50046D02*
X102497Y-50046D01*
X102497Y-50046D02*
X102497Y-50644D01*
X102304Y-50644D02*
X102497Y-50644D01*
X102304Y-50046D02*
X102304Y-50644D01*
X101804Y-50046D02*
X101997Y-50046D01*
X101997Y-50046D02*
X101997Y-50644D01*
X101804Y-50644D02*
X101997Y-50644D01*
X101804Y-50046D02*
X101804Y-50644D01*
X101304Y-50046D02*
X101497Y-50046D01*
X101497Y-50046D02*
X101497Y-50644D01*
X101304Y-50644D02*
X101497Y-50644D01*
X101304Y-50046D02*
X101304Y-50644D01*
X100804Y-50046D02*
X100997Y-50046D01*
X100997Y-50046D02*
X100997Y-50644D01*
X100804Y-50644D02*
X100997Y-50644D01*
X100804Y-50046D02*
X100804Y-50644D01*
X100304Y-50046D02*
X100497Y-50046D01*
X100497Y-50046D02*
X100497Y-50644D01*
X100304Y-50644D02*
X100497Y-50644D01*
X100304Y-50046D02*
X100304Y-50644D01*
G54D16*
X105193Y-47094D02*
X100107Y-47094D01*
X100107Y-47094D02*
X100107Y-47291D01*
X100107Y-47291D02*
X100107Y-50006D01*
X100107Y-50006D02*
X105193Y-50006D01*
X105193Y-47291D02*
X100107Y-47291D01*
X105193Y-50006D02*
X105193Y-47291D01*
X105193Y-47291D02*
X105193Y-47094D01*
G54D15*
X124654Y-46456D02*
X124847Y-46456D01*
X124847Y-46456D02*
X124847Y-47054D01*
X124654Y-47054D02*
X124847Y-47054D01*
X124654Y-46456D02*
X124654Y-47054D01*
X125154Y-46456D02*
X125347Y-46456D01*
X125347Y-46456D02*
X125347Y-47054D01*
X125154Y-47054D02*
X125347Y-47054D01*
X125154Y-46456D02*
X125154Y-47054D01*
X125654Y-46456D02*
X125847Y-46456D01*
X125847Y-46456D02*
X125847Y-47054D01*
X125654Y-47054D02*
X125847Y-47054D01*
X125654Y-46456D02*
X125654Y-47054D01*
X126154Y-46456D02*
X126347Y-46456D01*
X126347Y-46456D02*
X126347Y-47054D01*
X126154Y-47054D02*
X126347Y-47054D01*
X126154Y-46456D02*
X126154Y-47054D01*
X126654Y-46456D02*
X126847Y-46456D01*
X126847Y-46456D02*
X126847Y-47054D01*
X126654Y-47054D02*
X126847Y-47054D01*
X126654Y-46456D02*
X126654Y-47054D01*
X127153Y-46456D02*
X127346Y-46456D01*
X127346Y-46456D02*
X127346Y-47054D01*
X127153Y-47054D02*
X127346Y-47054D01*
X127153Y-46456D02*
X127153Y-47054D01*
X127653Y-46456D02*
X127846Y-46456D01*
X127846Y-46456D02*
X127846Y-47054D01*
X127653Y-47054D02*
X127846Y-47054D01*
X127653Y-46456D02*
X127653Y-47054D01*
X128153Y-46456D02*
X128346Y-46456D01*
X128346Y-46456D02*
X128346Y-47054D01*
X128153Y-47054D02*
X128346Y-47054D01*
X128153Y-46456D02*
X128153Y-47054D01*
X128653Y-46456D02*
X128846Y-46456D01*
X128846Y-46456D02*
X128846Y-47054D01*
X128653Y-47054D02*
X128846Y-47054D01*
X128653Y-46456D02*
X128653Y-47054D01*
X129153Y-46456D02*
X129346Y-46456D01*
X129346Y-46456D02*
X129346Y-47054D01*
X129153Y-47054D02*
X129346Y-47054D01*
X129153Y-46456D02*
X129153Y-47054D01*
X129153Y-50046D02*
X129346Y-50046D01*
X129346Y-50046D02*
X129346Y-50644D01*
X129153Y-50644D02*
X129346Y-50644D01*
X129153Y-50046D02*
X129153Y-50644D01*
X128653Y-50046D02*
X128846Y-50046D01*
X128846Y-50046D02*
X128846Y-50644D01*
X128653Y-50644D02*
X128846Y-50644D01*
X128653Y-50046D02*
X128653Y-50644D01*
X128153Y-50046D02*
X128346Y-50046D01*
X128346Y-50046D02*
X128346Y-50644D01*
X128153Y-50644D02*
X128346Y-50644D01*
X128153Y-50046D02*
X128153Y-50644D01*
X127653Y-50046D02*
X127846Y-50046D01*
X127846Y-50046D02*
X127846Y-50644D01*
X127653Y-50644D02*
X127846Y-50644D01*
X127653Y-50046D02*
X127653Y-50644D01*
X127153Y-50046D02*
X127346Y-50046D01*
X127346Y-50046D02*
X127346Y-50644D01*
X127153Y-50644D02*
X127346Y-50644D01*
X127153Y-50046D02*
X127153Y-50644D01*
X126654Y-50046D02*
X126847Y-50046D01*
X126847Y-50046D02*
X126847Y-50644D01*
X126654Y-50644D02*
X126847Y-50644D01*
X126654Y-50046D02*
X126654Y-50644D01*
X126154Y-50046D02*
X126347Y-50046D01*
X126347Y-50046D02*
X126347Y-50644D01*
X126154Y-50644D02*
X126347Y-50644D01*
X126154Y-50046D02*
X126154Y-50644D01*
X125654Y-50046D02*
X125847Y-50046D01*
X125847Y-50046D02*
X125847Y-50644D01*
X125654Y-50644D02*
X125847Y-50644D01*
X125654Y-50046D02*
X125654Y-50644D01*
X125154Y-50046D02*
X125347Y-50046D01*
X125347Y-50046D02*
X125347Y-50644D01*
X125154Y-50644D02*
X125347Y-50644D01*
X125154Y-50046D02*
X125154Y-50644D01*
X124654Y-50046D02*
X124847Y-50046D01*
X124847Y-50046D02*
X124847Y-50644D01*
X124654Y-50644D02*
X124847Y-50644D01*
X124654Y-50046D02*
X124654Y-50644D01*
G54D16*
X129543Y-47094D02*
X124457Y-47094D01*
X124457Y-47094D02*
X124457Y-47291D01*
X124457Y-47291D02*
X124457Y-50006D01*
X124457Y-50006D02*
X129543Y-50006D01*
X129543Y-47291D02*
X124457Y-47291D01*
X129543Y-50006D02*
X129543Y-47291D01*
X129543Y-47291D02*
X129543Y-47094D01*
G54D14*
X159449Y-33362D02*
X161001Y-33362D01*
X161001Y-33362D02*
X161001Y-32588D01*
X161001Y-32588D02*
X159449Y-32588D01*
X159449Y-32588D02*
X159449Y-33362D01*
X126063Y-18724D02*
X126063Y-20276D01*
X126063Y-20276D02*
X126837Y-20276D01*
X126837Y-20276D02*
X126837Y-18724D01*
X126837Y-18724D02*
X126063Y-18724D01*
X125163Y-18724D02*
X125163Y-20276D01*
X125163Y-20276D02*
X125937Y-20276D01*
X125937Y-20276D02*
X125937Y-18724D01*
X125937Y-18724D02*
X125163Y-18724D01*
X126963Y-18724D02*
X126963Y-20276D01*
X126963Y-20276D02*
X127737Y-20276D01*
X127737Y-20276D02*
X127737Y-18724D01*
X127737Y-18724D02*
X126963Y-18724D01*
X160674Y-35787D02*
X162226Y-35787D01*
X162226Y-35787D02*
X162226Y-35013D01*
X162226Y-35013D02*
X160674Y-35013D01*
X160674Y-35013D02*
X160674Y-35787D01*
X120687Y-19776D02*
X120687Y-18224D01*
X120687Y-18224D02*
X119913Y-18224D01*
X119913Y-18224D02*
X119913Y-19776D01*
X119913Y-19776D02*
X120687Y-19776D01*
X118387Y-19776D02*
X118387Y-18224D01*
X118387Y-18224D02*
X117613Y-18224D01*
X117613Y-18224D02*
X117613Y-19776D01*
X117613Y-19776D02*
X118387Y-19776D01*
X116187Y-19776D02*
X116187Y-18224D01*
X116187Y-18224D02*
X115413Y-18224D01*
X115413Y-18224D02*
X115413Y-19776D01*
X115413Y-19776D02*
X116187Y-19776D01*
G54D15*
X143826Y-45674D02*
X143633Y-45674D01*
X143633Y-45674D02*
X143633Y-45076D01*
X143826Y-45076D02*
X143633Y-45076D01*
X143826Y-45674D02*
X143826Y-45076D01*
X143326Y-45674D02*
X143133Y-45674D01*
X143133Y-45674D02*
X143133Y-45076D01*
X143326Y-45076D02*
X143133Y-45076D01*
X143326Y-45674D02*
X143326Y-45076D01*
X142826Y-45674D02*
X142633Y-45674D01*
X142633Y-45674D02*
X142633Y-45076D01*
X142826Y-45076D02*
X142633Y-45076D01*
X142826Y-45674D02*
X142826Y-45076D01*
X142326Y-45674D02*
X142133Y-45674D01*
X142133Y-45674D02*
X142133Y-45076D01*
X142326Y-45076D02*
X142133Y-45076D01*
X142326Y-45674D02*
X142326Y-45076D01*
X141826Y-45674D02*
X141633Y-45674D01*
X141633Y-45674D02*
X141633Y-45076D01*
X141826Y-45076D02*
X141633Y-45076D01*
X141826Y-45674D02*
X141826Y-45076D01*
X141327Y-45674D02*
X141134Y-45674D01*
X141134Y-45674D02*
X141134Y-45076D01*
X141327Y-45076D02*
X141134Y-45076D01*
X141327Y-45674D02*
X141327Y-45076D01*
X140827Y-45674D02*
X140634Y-45674D01*
X140634Y-45674D02*
X140634Y-45076D01*
X140827Y-45076D02*
X140634Y-45076D01*
X140827Y-45674D02*
X140827Y-45076D01*
X140327Y-45674D02*
X140134Y-45674D01*
X140134Y-45674D02*
X140134Y-45076D01*
X140327Y-45076D02*
X140134Y-45076D01*
X140327Y-45674D02*
X140327Y-45076D01*
X139827Y-45674D02*
X139634Y-45674D01*
X139634Y-45674D02*
X139634Y-45076D01*
X139827Y-45076D02*
X139634Y-45076D01*
X139827Y-45674D02*
X139827Y-45076D01*
X139327Y-45674D02*
X139134Y-45674D01*
X139134Y-45674D02*
X139134Y-45076D01*
X139327Y-45076D02*
X139134Y-45076D01*
X139327Y-45674D02*
X139327Y-45076D01*
X139327Y-42084D02*
X139134Y-42084D01*
X139134Y-42084D02*
X139134Y-41486D01*
X139327Y-41486D02*
X139134Y-41486D01*
X139327Y-42084D02*
X139327Y-41486D01*
X139827Y-42084D02*
X139634Y-42084D01*
X139634Y-42084D02*
X139634Y-41486D01*
X139827Y-41486D02*
X139634Y-41486D01*
X139827Y-42084D02*
X139827Y-41486D01*
X140327Y-42084D02*
X140134Y-42084D01*
X140134Y-42084D02*
X140134Y-41486D01*
X140327Y-41486D02*
X140134Y-41486D01*
X140327Y-42084D02*
X140327Y-41486D01*
X140827Y-42084D02*
X140634Y-42084D01*
X140634Y-42084D02*
X140634Y-41486D01*
X140827Y-41486D02*
X140634Y-41486D01*
X140827Y-42084D02*
X140827Y-41486D01*
X141327Y-42084D02*
X141134Y-42084D01*
X141134Y-42084D02*
X141134Y-41486D01*
X141327Y-41486D02*
X141134Y-41486D01*
X141327Y-42084D02*
X141327Y-41486D01*
X141826Y-42084D02*
X141633Y-42084D01*
X141633Y-42084D02*
X141633Y-41486D01*
X141826Y-41486D02*
X141633Y-41486D01*
X141826Y-42084D02*
X141826Y-41486D01*
X142326Y-42084D02*
X142133Y-42084D01*
X142133Y-42084D02*
X142133Y-41486D01*
X142326Y-41486D02*
X142133Y-41486D01*
X142326Y-42084D02*
X142326Y-41486D01*
X142826Y-42084D02*
X142633Y-42084D01*
X142633Y-42084D02*
X142633Y-41486D01*
X142826Y-41486D02*
X142633Y-41486D01*
X142826Y-42084D02*
X142826Y-41486D01*
X143326Y-42084D02*
X143133Y-42084D01*
X143133Y-42084D02*
X143133Y-41486D01*
X143326Y-41486D02*
X143133Y-41486D01*
X143326Y-42084D02*
X143326Y-41486D01*
X143826Y-42084D02*
X143633Y-42084D01*
X143633Y-42084D02*
X143633Y-41486D01*
X143826Y-41486D02*
X143633Y-41486D01*
X143826Y-42084D02*
X143826Y-41486D01*
G54D16*
X138937Y-45036D02*
X144023Y-45036D01*
X144023Y-45036D02*
X144023Y-44839D01*
X144023Y-44839D02*
X144023Y-42124D01*
X144023Y-42124D02*
X138937Y-42124D01*
X138937Y-44839D02*
X144023Y-44839D01*
X138937Y-42124D02*
X138937Y-44839D01*
X138937Y-44839D02*
X138937Y-45036D01*
G54D17*
X111460Y-11142D02*
X111460Y-11547D01*
X111484Y-11594D01*
X111508Y-11618D01*
X111556Y-11642D01*
X111651Y-11642D01*
X111699Y-11618D01*
X111722Y-11594D01*
X111746Y-11547D01*
X111746Y-11142D01*
X111937Y-11142D02*
X112246Y-11142D01*
X112080Y-11332D01*
X112151Y-11332D01*
X112199Y-11356D01*
X112222Y-11380D01*
X112246Y-11428D01*
X112246Y-11547D01*
X112222Y-11594D01*
X112199Y-11618D01*
X112151Y-11642D01*
X112008Y-11642D01*
X111960Y-11618D01*
X111937Y-11594D01*
X112556Y-11142D02*
X112603Y-11142D01*
X112651Y-11166D01*
X112675Y-11190D01*
X112699Y-11237D01*
X112722Y-11332D01*
X112722Y-11451D01*
X112699Y-11547D01*
X112675Y-11594D01*
X112651Y-11618D01*
X112603Y-11642D01*
X112556Y-11642D01*
X112508Y-11618D01*
X112484Y-11594D01*
X112460Y-11547D01*
X112437Y-11451D01*
X112437Y-11332D01*
X112460Y-11237D01*
X112484Y-11190D01*
X112508Y-11166D01*
X112556Y-11142D01*
X110152Y-8902D02*
X110485Y-9402D01*
X110485Y-8902D02*
X110152Y-9402D01*
X110961Y-9354D02*
X110938Y-9378D01*
X110866Y-9402D01*
X110819Y-9402D01*
X110747Y-9378D01*
X110700Y-9330D01*
X110676Y-9283D01*
X110652Y-9188D01*
X110652Y-9116D01*
X110676Y-9021D01*
X110700Y-8973D01*
X110747Y-8926D01*
X110819Y-8902D01*
X110866Y-8902D01*
X110938Y-8926D01*
X110961Y-8950D01*
X111390Y-8902D02*
X111295Y-8902D01*
X111247Y-8926D01*
X111223Y-8950D01*
X111176Y-9021D01*
X111152Y-9116D01*
X111152Y-9307D01*
X111176Y-9354D01*
X111200Y-9378D01*
X111247Y-9402D01*
X111342Y-9402D01*
X111390Y-9378D01*
X111414Y-9354D01*
X111438Y-9307D01*
X111438Y-9188D01*
X111414Y-9140D01*
X111390Y-9116D01*
X111342Y-9092D01*
X111247Y-9092D01*
X111200Y-9116D01*
X111176Y-9140D01*
X111152Y-9188D01*
X111628Y-9378D02*
X111700Y-9402D01*
X111819Y-9402D01*
X111866Y-9378D01*
X111890Y-9354D01*
X111914Y-9307D01*
X111914Y-9259D01*
X111890Y-9211D01*
X111866Y-9188D01*
X111819Y-9164D01*
X111723Y-9140D01*
X111676Y-9116D01*
X111652Y-9092D01*
X111628Y-9045D01*
X111628Y-8997D01*
X111652Y-8950D01*
X111676Y-8926D01*
X111723Y-8902D01*
X111842Y-8902D01*
X111914Y-8926D01*
X112366Y-9402D02*
X112128Y-9402D01*
X112128Y-8902D01*
X112485Y-8902D02*
X112819Y-9402D01*
X112819Y-8902D02*
X112485Y-9402D01*
X113033Y-9402D02*
X113128Y-9402D01*
X113176Y-9378D01*
X113200Y-9354D01*
X113247Y-9283D01*
X113271Y-9188D01*
X113271Y-8997D01*
X113247Y-8950D01*
X113223Y-8926D01*
X113176Y-8902D01*
X113080Y-8902D01*
X113033Y-8926D01*
X113009Y-8950D01*
X112985Y-8997D01*
X112985Y-9116D01*
X113009Y-9164D01*
X113033Y-9188D01*
X113080Y-9211D01*
X113176Y-9211D01*
X113223Y-9188D01*
X113247Y-9164D01*
X113271Y-9116D01*
X113485Y-9211D02*
X113866Y-9211D01*
X114033Y-8902D02*
X114319Y-8902D01*
X114176Y-9402D02*
X114176Y-8902D01*
X114819Y-9450D02*
X114771Y-9426D01*
X114723Y-9378D01*
X114652Y-9307D01*
X114604Y-9283D01*
X114557Y-9283D01*
X114580Y-9402D02*
X114533Y-9378D01*
X114485Y-9330D01*
X114461Y-9235D01*
X114461Y-9069D01*
X114485Y-8973D01*
X114533Y-8926D01*
X114580Y-8902D01*
X114676Y-8902D01*
X114723Y-8926D01*
X114771Y-8973D01*
X114795Y-9069D01*
X114795Y-9235D01*
X114771Y-9330D01*
X114723Y-9378D01*
X114676Y-9402D01*
X114580Y-9402D01*
X115271Y-9402D02*
X114985Y-9402D01*
X115128Y-9402D02*
X115128Y-8902D01*
X115080Y-8973D01*
X115033Y-9021D01*
X114985Y-9045D01*
X115700Y-9069D02*
X115700Y-9402D01*
X115580Y-8878D02*
X115461Y-9235D01*
X115771Y-9235D01*
X116176Y-9069D02*
X116176Y-9402D01*
X116057Y-8878D02*
X115938Y-9235D01*
X116247Y-9235D01*
G54D13*
X128521Y-22346D02*
X128521Y-22589D01*
X128507Y-22617D01*
X128492Y-22632D01*
X128464Y-22646D01*
X128407Y-22646D01*
X128378Y-22632D01*
X128364Y-22617D01*
X128350Y-22589D01*
X128350Y-22346D01*
X128235Y-22346D02*
X128050Y-22346D01*
X128150Y-22460D01*
X128107Y-22460D01*
X128078Y-22475D01*
X128064Y-22489D01*
X128050Y-22517D01*
X128050Y-22589D01*
X128064Y-22617D01*
X128078Y-22632D01*
X128107Y-22646D01*
X128192Y-22646D01*
X128221Y-22632D01*
X128235Y-22617D01*
X127935Y-22375D02*
X127921Y-22360D01*
X127892Y-22346D01*
X127821Y-22346D01*
X127792Y-22360D01*
X127778Y-22375D01*
X127764Y-22403D01*
X127764Y-22432D01*
X127778Y-22475D01*
X127950Y-22646D01*
X127764Y-22646D01*
X128957Y-21896D02*
X128757Y-22196D01*
X128757Y-21896D02*
X128957Y-22196D01*
X128471Y-22167D02*
X128485Y-22182D01*
X128528Y-22196D01*
X128557Y-22196D01*
X128599Y-22182D01*
X128628Y-22153D01*
X128642Y-22125D01*
X128657Y-22067D01*
X128657Y-22025D01*
X128642Y-21967D01*
X128628Y-21939D01*
X128599Y-21910D01*
X128557Y-21896D01*
X128528Y-21896D01*
X128485Y-21910D01*
X128471Y-21925D01*
X128242Y-22039D02*
X128342Y-22039D01*
X128342Y-22196D02*
X128342Y-21896D01*
X128199Y-21896D01*
X128028Y-21896D02*
X127999Y-21896D01*
X127971Y-21910D01*
X127957Y-21925D01*
X127942Y-21953D01*
X127928Y-22010D01*
X127928Y-22082D01*
X127942Y-22139D01*
X127957Y-22167D01*
X127971Y-22182D01*
X127999Y-22196D01*
X128028Y-22196D01*
X128057Y-22182D01*
X128071Y-22167D01*
X128085Y-22139D01*
X128099Y-22082D01*
X128099Y-22010D01*
X128085Y-21953D01*
X128071Y-21925D01*
X128057Y-21910D01*
X128028Y-21896D01*
X127814Y-21925D02*
X127799Y-21910D01*
X127771Y-21896D01*
X127699Y-21896D01*
X127671Y-21910D01*
X127657Y-21925D01*
X127642Y-21953D01*
X127642Y-21982D01*
X127657Y-22025D01*
X127828Y-22196D01*
X127642Y-22196D01*
X127528Y-22182D02*
X127485Y-22196D01*
X127414Y-22196D01*
X127385Y-22182D01*
X127371Y-22167D01*
X127357Y-22139D01*
X127357Y-22110D01*
X127371Y-22082D01*
X127385Y-22067D01*
X127414Y-22053D01*
X127471Y-22039D01*
X127500Y-22025D01*
X127514Y-22010D01*
X127528Y-21982D01*
X127528Y-21953D01*
X127514Y-21925D01*
X127500Y-21910D01*
X127471Y-21896D01*
X127400Y-21896D01*
X127357Y-21910D01*
G54D17*
X79932Y-21193D02*
X79694Y-21026D01*
X79932Y-20907D02*
X79432Y-20907D01*
X79432Y-21098D01*
X79456Y-21145D01*
X79480Y-21169D01*
X79527Y-21193D01*
X79599Y-21193D01*
X79646Y-21169D01*
X79670Y-21145D01*
X79694Y-21098D01*
X79694Y-20907D01*
X79480Y-21384D02*
X79456Y-21407D01*
X79432Y-21455D01*
X79432Y-21574D01*
X79456Y-21622D01*
X79480Y-21645D01*
X79527Y-21669D01*
X79575Y-21669D01*
X79646Y-21645D01*
X79932Y-21360D01*
X79932Y-21669D01*
X79480Y-21860D02*
X79456Y-21884D01*
X79432Y-21931D01*
X79432Y-22050D01*
X79456Y-22098D01*
X79480Y-22122D01*
X79527Y-22145D01*
X79575Y-22145D01*
X79646Y-22122D01*
X79932Y-21836D01*
X79932Y-22145D01*
X79227Y-13506D02*
X79227Y-13220D01*
X79227Y-13363D02*
X78727Y-13363D01*
X78798Y-13316D01*
X78846Y-13268D01*
X78870Y-13220D01*
X78727Y-13816D02*
X78727Y-13863D01*
X78751Y-13911D01*
X78775Y-13935D01*
X78822Y-13959D01*
X78917Y-13982D01*
X79036Y-13982D01*
X79132Y-13959D01*
X79179Y-13935D01*
X79203Y-13911D01*
X79227Y-13863D01*
X79227Y-13816D01*
X79203Y-13768D01*
X79179Y-13744D01*
X79132Y-13720D01*
X79036Y-13697D01*
X78917Y-13697D01*
X78822Y-13720D01*
X78775Y-13744D01*
X78751Y-13768D01*
X78727Y-13816D01*
X78727Y-14292D02*
X78727Y-14340D01*
X78751Y-14387D01*
X78775Y-14411D01*
X78822Y-14435D01*
X78917Y-14459D01*
X79036Y-14459D01*
X79132Y-14435D01*
X79179Y-14411D01*
X79203Y-14387D01*
X79227Y-14340D01*
X79227Y-14292D01*
X79203Y-14244D01*
X79179Y-14220D01*
X79132Y-14197D01*
X79036Y-14173D01*
X78917Y-14173D01*
X78822Y-14197D01*
X78775Y-14220D01*
X78751Y-14244D01*
X78727Y-14292D01*
X81887Y-21108D02*
X81649Y-20941D01*
X81887Y-20822D02*
X81387Y-20822D01*
X81387Y-21013D01*
X81411Y-21060D01*
X81435Y-21084D01*
X81482Y-21108D01*
X81554Y-21108D01*
X81601Y-21084D01*
X81625Y-21060D01*
X81649Y-21013D01*
X81649Y-20822D01*
X81435Y-21299D02*
X81411Y-21322D01*
X81387Y-21370D01*
X81387Y-21489D01*
X81411Y-21537D01*
X81435Y-21560D01*
X81482Y-21584D01*
X81530Y-21584D01*
X81601Y-21560D01*
X81887Y-21275D01*
X81887Y-21584D01*
X81887Y-22060D02*
X81887Y-21775D01*
X81887Y-21918D02*
X81387Y-21918D01*
X81458Y-21870D01*
X81506Y-21822D01*
X81530Y-21775D01*
X80522Y-13591D02*
X80522Y-13305D01*
X80522Y-13448D02*
X80022Y-13448D01*
X80093Y-13401D01*
X80141Y-13353D01*
X80165Y-13305D01*
X80022Y-13901D02*
X80022Y-13948D01*
X80046Y-13996D01*
X80070Y-14020D01*
X80117Y-14044D01*
X80212Y-14067D01*
X80331Y-14067D01*
X80427Y-14044D01*
X80474Y-14020D01*
X80498Y-13996D01*
X80522Y-13948D01*
X80522Y-13901D01*
X80498Y-13853D01*
X80474Y-13829D01*
X80427Y-13805D01*
X80331Y-13782D01*
X80212Y-13782D01*
X80117Y-13805D01*
X80070Y-13829D01*
X80046Y-13853D01*
X80022Y-13901D01*
X80022Y-14377D02*
X80022Y-14425D01*
X80046Y-14472D01*
X80070Y-14496D01*
X80117Y-14520D01*
X80212Y-14544D01*
X80331Y-14544D01*
X80427Y-14520D01*
X80474Y-14496D01*
X80498Y-14472D01*
X80522Y-14425D01*
X80522Y-14377D01*
X80498Y-14329D01*
X80474Y-14305D01*
X80427Y-14282D01*
X80331Y-14258D01*
X80212Y-14258D01*
X80117Y-14282D01*
X80070Y-14305D01*
X80046Y-14329D01*
X80022Y-14377D01*
X82922Y-21128D02*
X82684Y-20961D01*
X82922Y-20842D02*
X82422Y-20842D01*
X82422Y-21033D01*
X82446Y-21080D01*
X82470Y-21104D01*
X82517Y-21128D01*
X82589Y-21128D01*
X82636Y-21104D01*
X82660Y-21080D01*
X82684Y-21033D01*
X82684Y-20842D01*
X82470Y-21319D02*
X82446Y-21342D01*
X82422Y-21390D01*
X82422Y-21509D01*
X82446Y-21557D01*
X82470Y-21580D01*
X82517Y-21604D01*
X82565Y-21604D01*
X82636Y-21580D01*
X82922Y-21295D01*
X82922Y-21604D01*
X82422Y-21771D02*
X82422Y-22080D01*
X82612Y-21914D01*
X82612Y-21985D01*
X82636Y-22033D01*
X82660Y-22057D01*
X82708Y-22080D01*
X82827Y-22080D01*
X82874Y-22057D01*
X82898Y-22033D01*
X82922Y-21985D01*
X82922Y-21842D01*
X82898Y-21795D01*
X82874Y-21771D01*
X82722Y-12776D02*
X82722Y-12490D01*
X82722Y-12633D02*
X82222Y-12633D01*
X82293Y-12586D01*
X82341Y-12538D01*
X82365Y-12490D01*
X82222Y-13086D02*
X82222Y-13133D01*
X82246Y-13181D01*
X82270Y-13205D01*
X82317Y-13229D01*
X82412Y-13252D01*
X82531Y-13252D01*
X82627Y-13229D01*
X82674Y-13205D01*
X82698Y-13181D01*
X82722Y-13133D01*
X82722Y-13086D01*
X82698Y-13038D01*
X82674Y-13014D01*
X82627Y-12990D01*
X82531Y-12967D01*
X82412Y-12967D01*
X82317Y-12990D01*
X82270Y-13014D01*
X82246Y-13038D01*
X82222Y-13086D01*
X82222Y-13562D02*
X82222Y-13610D01*
X82246Y-13657D01*
X82270Y-13681D01*
X82317Y-13705D01*
X82412Y-13729D01*
X82531Y-13729D01*
X82627Y-13705D01*
X82674Y-13681D01*
X82698Y-13657D01*
X82722Y-13610D01*
X82722Y-13562D01*
X82698Y-13514D01*
X82674Y-13490D01*
X82627Y-13467D01*
X82531Y-13443D01*
X82412Y-13443D01*
X82317Y-13467D01*
X82270Y-13490D01*
X82246Y-13514D01*
X82222Y-13562D01*
X111121Y-33254D02*
X111145Y-33278D01*
X111216Y-33302D01*
X111264Y-33302D01*
X111335Y-33278D01*
X111383Y-33230D01*
X111407Y-33183D01*
X111430Y-33088D01*
X111430Y-33016D01*
X111407Y-32921D01*
X111383Y-32873D01*
X111335Y-32826D01*
X111264Y-32802D01*
X111216Y-32802D01*
X111145Y-32826D01*
X111121Y-32850D01*
X110645Y-33302D02*
X110930Y-33302D01*
X110788Y-33302D02*
X110788Y-32802D01*
X110835Y-32873D01*
X110883Y-32921D01*
X110930Y-32945D01*
X110169Y-33302D02*
X110454Y-33302D01*
X110311Y-33302D02*
X110311Y-32802D01*
X110359Y-32873D01*
X110407Y-32921D01*
X110454Y-32945D01*
X114461Y-10652D02*
X114414Y-10652D01*
X114366Y-10676D01*
X114342Y-10700D01*
X114319Y-10747D01*
X114295Y-10842D01*
X114295Y-10961D01*
X114319Y-11057D01*
X114342Y-11104D01*
X114366Y-11128D01*
X114414Y-11152D01*
X114461Y-11152D01*
X114509Y-11128D01*
X114533Y-11104D01*
X114557Y-11057D01*
X114580Y-10961D01*
X114580Y-10842D01*
X114557Y-10747D01*
X114533Y-10700D01*
X114509Y-10676D01*
X114461Y-10652D01*
X114080Y-11104D02*
X114057Y-11128D01*
X114080Y-11152D01*
X114104Y-11128D01*
X114080Y-11104D01*
X114080Y-11152D01*
X113580Y-11152D02*
X113866Y-11152D01*
X113723Y-11152D02*
X113723Y-10652D01*
X113771Y-10723D01*
X113819Y-10771D01*
X113866Y-10795D01*
X112771Y-10819D02*
X112771Y-11152D01*
X112985Y-10819D02*
X112985Y-11080D01*
X112961Y-11128D01*
X112914Y-11152D01*
X112842Y-11152D01*
X112795Y-11128D01*
X112771Y-11104D01*
X112366Y-10890D02*
X112533Y-10890D01*
X112533Y-11152D02*
X112533Y-10652D01*
X112295Y-10652D01*
X111432Y-20228D02*
X111194Y-20061D01*
X111432Y-19942D02*
X110932Y-19942D01*
X110932Y-20133D01*
X110956Y-20180D01*
X110980Y-20204D01*
X111027Y-20228D01*
X111099Y-20228D01*
X111146Y-20204D01*
X111170Y-20180D01*
X111194Y-20133D01*
X111194Y-19942D01*
X110980Y-20419D02*
X110956Y-20442D01*
X110932Y-20490D01*
X110932Y-20609D01*
X110956Y-20657D01*
X110980Y-20680D01*
X111027Y-20704D01*
X111075Y-20704D01*
X111146Y-20680D01*
X111432Y-20395D01*
X111432Y-20704D01*
X110932Y-21133D02*
X110932Y-21038D01*
X110956Y-20990D01*
X110980Y-20966D01*
X111051Y-20919D01*
X111146Y-20895D01*
X111337Y-20895D01*
X111384Y-20919D01*
X111408Y-20942D01*
X111432Y-20990D01*
X111432Y-21085D01*
X111408Y-21133D01*
X111384Y-21157D01*
X111337Y-21180D01*
X111218Y-21180D01*
X111170Y-21157D01*
X111146Y-21133D01*
X111122Y-21085D01*
X111122Y-20990D01*
X111146Y-20942D01*
X111170Y-20919D01*
X111218Y-20895D01*
X119402Y-12227D02*
X119402Y-12536D01*
X119592Y-12370D01*
X119592Y-12441D01*
X119616Y-12489D01*
X119640Y-12512D01*
X119688Y-12536D01*
X119807Y-12536D01*
X119854Y-12512D01*
X119878Y-12489D01*
X119902Y-12441D01*
X119902Y-12298D01*
X119878Y-12250D01*
X119854Y-12227D01*
X119402Y-12703D02*
X119402Y-13012D01*
X119592Y-12846D01*
X119592Y-12917D01*
X119616Y-12965D01*
X119640Y-12989D01*
X119688Y-13012D01*
X119807Y-13012D01*
X119854Y-12989D01*
X119878Y-12965D01*
X119902Y-12917D01*
X119902Y-12774D01*
X119878Y-12727D01*
X119854Y-12703D01*
X119402Y-13322D02*
X119402Y-13370D01*
X119426Y-13417D01*
X119450Y-13441D01*
X119497Y-13465D01*
X119592Y-13489D01*
X119711Y-13489D01*
X119807Y-13465D01*
X119854Y-13441D01*
X119878Y-13417D01*
X119902Y-13370D01*
X119902Y-13322D01*
X119878Y-13274D01*
X119854Y-13250D01*
X119807Y-13227D01*
X119711Y-13203D01*
X119592Y-13203D01*
X119497Y-13227D01*
X119450Y-13250D01*
X119426Y-13274D01*
X119402Y-13322D01*
X115854Y-30203D02*
X115878Y-30179D01*
X115902Y-30108D01*
X115902Y-30060D01*
X115878Y-29989D01*
X115830Y-29941D01*
X115783Y-29917D01*
X115688Y-29894D01*
X115616Y-29894D01*
X115521Y-29917D01*
X115473Y-29941D01*
X115426Y-29989D01*
X115402Y-30060D01*
X115402Y-30108D01*
X115426Y-30179D01*
X115450Y-30203D01*
X115902Y-30679D02*
X115902Y-30394D01*
X115902Y-30536D02*
X115402Y-30536D01*
X115473Y-30489D01*
X115521Y-30441D01*
X115545Y-30394D01*
X115402Y-31132D02*
X115402Y-30894D01*
X115640Y-30870D01*
X115616Y-30894D01*
X115592Y-30941D01*
X115592Y-31060D01*
X115616Y-31108D01*
X115640Y-31132D01*
X115688Y-31155D01*
X115807Y-31155D01*
X115854Y-31132D01*
X115878Y-31108D01*
X115902Y-31060D01*
X115902Y-30941D01*
X115878Y-30894D01*
X115854Y-30870D01*
X115852Y-10063D02*
X115852Y-10110D01*
X115876Y-10158D01*
X115900Y-10182D01*
X115947Y-10205D01*
X116042Y-10229D01*
X116161Y-10229D01*
X116257Y-10205D01*
X116304Y-10182D01*
X116328Y-10158D01*
X116352Y-10110D01*
X116352Y-10063D01*
X116328Y-10015D01*
X116304Y-9991D01*
X116257Y-9967D01*
X116161Y-9944D01*
X116042Y-9944D01*
X115947Y-9967D01*
X115900Y-9991D01*
X115876Y-10015D01*
X115852Y-10063D01*
X116304Y-10444D02*
X116328Y-10467D01*
X116352Y-10444D01*
X116328Y-10420D01*
X116304Y-10444D01*
X116352Y-10444D01*
X116352Y-10944D02*
X116352Y-10658D01*
X116352Y-10801D02*
X115852Y-10801D01*
X115923Y-10753D01*
X115971Y-10705D01*
X115995Y-10658D01*
X116019Y-11753D02*
X116352Y-11753D01*
X116019Y-11539D02*
X116280Y-11539D01*
X116328Y-11563D01*
X116352Y-11610D01*
X116352Y-11682D01*
X116328Y-11729D01*
X116304Y-11753D01*
X116090Y-12158D02*
X116090Y-11991D01*
X116352Y-11991D02*
X115852Y-11991D01*
X115852Y-12229D01*
X117071Y-33379D02*
X117095Y-33403D01*
X117166Y-33427D01*
X117214Y-33427D01*
X117285Y-33403D01*
X117333Y-33355D01*
X117357Y-33308D01*
X117380Y-33213D01*
X117380Y-33141D01*
X117357Y-33046D01*
X117333Y-32998D01*
X117285Y-32951D01*
X117214Y-32927D01*
X117166Y-32927D01*
X117095Y-32951D01*
X117071Y-32975D01*
X116595Y-33427D02*
X116880Y-33427D01*
X116738Y-33427D02*
X116738Y-32927D01*
X116785Y-32998D01*
X116833Y-33046D01*
X116880Y-33070D01*
X116166Y-33094D02*
X116166Y-33427D01*
X116285Y-32903D02*
X116404Y-33260D01*
X116095Y-33260D01*
X117161Y-6177D02*
X117114Y-6177D01*
X117066Y-6201D01*
X117042Y-6225D01*
X117019Y-6272D01*
X116995Y-6367D01*
X116995Y-6486D01*
X117019Y-6582D01*
X117042Y-6629D01*
X117066Y-6653D01*
X117114Y-6677D01*
X117161Y-6677D01*
X117209Y-6653D01*
X117233Y-6629D01*
X117257Y-6582D01*
X117280Y-6486D01*
X117280Y-6367D01*
X117257Y-6272D01*
X117233Y-6225D01*
X117209Y-6201D01*
X117161Y-6177D01*
X116780Y-6629D02*
X116757Y-6653D01*
X116780Y-6677D01*
X116804Y-6653D01*
X116780Y-6629D01*
X116780Y-6677D01*
X116280Y-6677D02*
X116566Y-6677D01*
X116423Y-6677D02*
X116423Y-6177D01*
X116471Y-6248D01*
X116519Y-6296D01*
X116566Y-6320D01*
X115471Y-6344D02*
X115471Y-6677D01*
X115685Y-6344D02*
X115685Y-6605D01*
X115661Y-6653D01*
X115614Y-6677D01*
X115542Y-6677D01*
X115495Y-6653D01*
X115471Y-6629D01*
X115066Y-6415D02*
X115233Y-6415D01*
X115233Y-6677D02*
X115233Y-6177D01*
X114995Y-6177D01*
X110454Y-29053D02*
X110478Y-29029D01*
X110502Y-28958D01*
X110502Y-28910D01*
X110478Y-28839D01*
X110430Y-28791D01*
X110383Y-28767D01*
X110288Y-28744D01*
X110216Y-28744D01*
X110121Y-28767D01*
X110073Y-28791D01*
X110026Y-28839D01*
X110002Y-28910D01*
X110002Y-28958D01*
X110026Y-29029D01*
X110050Y-29053D01*
X110502Y-29529D02*
X110502Y-29244D01*
X110502Y-29386D02*
X110002Y-29386D01*
X110073Y-29339D01*
X110121Y-29291D01*
X110145Y-29244D01*
X110502Y-29767D02*
X110502Y-29863D01*
X110478Y-29910D01*
X110454Y-29934D01*
X110383Y-29982D01*
X110288Y-30005D01*
X110097Y-30005D01*
X110050Y-29982D01*
X110026Y-29958D01*
X110002Y-29910D01*
X110002Y-29815D01*
X110026Y-29767D01*
X110050Y-29744D01*
X110097Y-29720D01*
X110216Y-29720D01*
X110264Y-29744D01*
X110288Y-29767D01*
X110311Y-29815D01*
X110311Y-29910D01*
X110288Y-29958D01*
X110264Y-29982D01*
X110216Y-30005D01*
X113902Y-10288D02*
X113902Y-10335D01*
X113926Y-10383D01*
X113950Y-10407D01*
X113997Y-10430D01*
X114092Y-10454D01*
X114211Y-10454D01*
X114307Y-10430D01*
X114354Y-10407D01*
X114378Y-10383D01*
X114402Y-10335D01*
X114402Y-10288D01*
X114378Y-10240D01*
X114354Y-10216D01*
X114307Y-10192D01*
X114211Y-10169D01*
X114092Y-10169D01*
X113997Y-10192D01*
X113950Y-10216D01*
X113926Y-10240D01*
X113902Y-10288D01*
X114354Y-10669D02*
X114378Y-10692D01*
X114402Y-10669D01*
X114378Y-10645D01*
X114354Y-10669D01*
X114402Y-10669D01*
X114402Y-11169D02*
X114402Y-10883D01*
X114402Y-11026D02*
X113902Y-11026D01*
X113973Y-10978D01*
X114021Y-10930D01*
X114045Y-10883D01*
X114069Y-11978D02*
X114402Y-11978D01*
X114069Y-11764D02*
X114330Y-11764D01*
X114378Y-11788D01*
X114402Y-11835D01*
X114402Y-11907D01*
X114378Y-11954D01*
X114354Y-11978D01*
X114140Y-12383D02*
X114140Y-12216D01*
X114402Y-12216D02*
X113902Y-12216D01*
X113902Y-12454D01*
X109082Y-20293D02*
X108844Y-20126D01*
X109082Y-20007D02*
X108582Y-20007D01*
X108582Y-20198D01*
X108606Y-20245D01*
X108630Y-20269D01*
X108677Y-20293D01*
X108749Y-20293D01*
X108796Y-20269D01*
X108820Y-20245D01*
X108844Y-20198D01*
X108844Y-20007D01*
X108630Y-20484D02*
X108606Y-20507D01*
X108582Y-20555D01*
X108582Y-20674D01*
X108606Y-20722D01*
X108630Y-20745D01*
X108677Y-20769D01*
X108725Y-20769D01*
X108796Y-20745D01*
X109082Y-20460D01*
X109082Y-20769D01*
X108582Y-21222D02*
X108582Y-20984D01*
X108820Y-20960D01*
X108796Y-20984D01*
X108772Y-21031D01*
X108772Y-21150D01*
X108796Y-21198D01*
X108820Y-21222D01*
X108868Y-21245D01*
X108987Y-21245D01*
X109034Y-21222D01*
X109058Y-21198D01*
X109082Y-21150D01*
X109082Y-21031D01*
X109058Y-20984D01*
X109034Y-20960D01*
X118457Y-12137D02*
X118457Y-12446D01*
X118647Y-12280D01*
X118647Y-12351D01*
X118671Y-12399D01*
X118695Y-12422D01*
X118743Y-12446D01*
X118862Y-12446D01*
X118909Y-12422D01*
X118933Y-12399D01*
X118957Y-12351D01*
X118957Y-12208D01*
X118933Y-12160D01*
X118909Y-12137D01*
X118457Y-12613D02*
X118457Y-12922D01*
X118647Y-12756D01*
X118647Y-12827D01*
X118671Y-12875D01*
X118695Y-12899D01*
X118743Y-12922D01*
X118862Y-12922D01*
X118909Y-12899D01*
X118933Y-12875D01*
X118957Y-12827D01*
X118957Y-12684D01*
X118933Y-12637D01*
X118909Y-12613D01*
X118457Y-13232D02*
X118457Y-13280D01*
X118481Y-13327D01*
X118505Y-13351D01*
X118552Y-13375D01*
X118647Y-13399D01*
X118766Y-13399D01*
X118862Y-13375D01*
X118909Y-13351D01*
X118933Y-13327D01*
X118957Y-13280D01*
X118957Y-13232D01*
X118933Y-13184D01*
X118909Y-13160D01*
X118862Y-13137D01*
X118766Y-13113D01*
X118647Y-13113D01*
X118552Y-13137D01*
X118505Y-13160D01*
X118481Y-13184D01*
X118457Y-13232D01*
X113722Y-20268D02*
X113484Y-20101D01*
X113722Y-19982D02*
X113222Y-19982D01*
X113222Y-20173D01*
X113246Y-20220D01*
X113270Y-20244D01*
X113317Y-20268D01*
X113389Y-20268D01*
X113436Y-20244D01*
X113460Y-20220D01*
X113484Y-20173D01*
X113484Y-19982D01*
X113270Y-20459D02*
X113246Y-20482D01*
X113222Y-20530D01*
X113222Y-20649D01*
X113246Y-20697D01*
X113270Y-20720D01*
X113317Y-20744D01*
X113365Y-20744D01*
X113436Y-20720D01*
X113722Y-20435D01*
X113722Y-20744D01*
X113389Y-21173D02*
X113722Y-21173D01*
X113198Y-21054D02*
X113555Y-20935D01*
X113555Y-21244D01*
X120282Y-12317D02*
X120282Y-12626D01*
X120472Y-12460D01*
X120472Y-12531D01*
X120496Y-12579D01*
X120520Y-12602D01*
X120568Y-12626D01*
X120687Y-12626D01*
X120734Y-12602D01*
X120758Y-12579D01*
X120782Y-12531D01*
X120782Y-12388D01*
X120758Y-12340D01*
X120734Y-12317D01*
X120282Y-12793D02*
X120282Y-13102D01*
X120472Y-12936D01*
X120472Y-13007D01*
X120496Y-13055D01*
X120520Y-13079D01*
X120568Y-13102D01*
X120687Y-13102D01*
X120734Y-13079D01*
X120758Y-13055D01*
X120782Y-13007D01*
X120782Y-12864D01*
X120758Y-12817D01*
X120734Y-12793D01*
X120282Y-13412D02*
X120282Y-13460D01*
X120306Y-13507D01*
X120330Y-13531D01*
X120377Y-13555D01*
X120472Y-13579D01*
X120591Y-13579D01*
X120687Y-13555D01*
X120734Y-13531D01*
X120758Y-13507D01*
X120782Y-13460D01*
X120782Y-13412D01*
X120758Y-13364D01*
X120734Y-13340D01*
X120687Y-13317D01*
X120591Y-13293D01*
X120472Y-13293D01*
X120377Y-13317D01*
X120330Y-13340D01*
X120306Y-13364D01*
X120282Y-13412D01*
X84746Y-50502D02*
X84913Y-50264D01*
X85032Y-50502D02*
X85032Y-50002D01*
X84841Y-50002D01*
X84794Y-50026D01*
X84770Y-50050D01*
X84746Y-50097D01*
X84746Y-50169D01*
X84770Y-50216D01*
X84794Y-50240D01*
X84841Y-50264D01*
X85032Y-50264D01*
X84270Y-50502D02*
X84555Y-50502D01*
X84413Y-50502D02*
X84413Y-50002D01*
X84460Y-50073D01*
X84508Y-50121D01*
X84555Y-50145D01*
X83984Y-50216D02*
X84032Y-50192D01*
X84055Y-50169D01*
X84079Y-50121D01*
X84079Y-50097D01*
X84055Y-50050D01*
X84032Y-50026D01*
X83984Y-50002D01*
X83889Y-50002D01*
X83841Y-50026D01*
X83817Y-50050D01*
X83794Y-50097D01*
X83794Y-50121D01*
X83817Y-50169D01*
X83841Y-50192D01*
X83889Y-50216D01*
X83984Y-50216D01*
X84032Y-50240D01*
X84055Y-50264D01*
X84079Y-50311D01*
X84079Y-50407D01*
X84055Y-50454D01*
X84032Y-50478D01*
X83984Y-50502D01*
X83889Y-50502D01*
X83841Y-50478D01*
X83817Y-50454D01*
X83794Y-50407D01*
X83794Y-50311D01*
X83817Y-50264D01*
X83841Y-50240D01*
X83889Y-50216D01*
X64342Y-48902D02*
X64033Y-48902D01*
X64200Y-49092D01*
X64128Y-49092D01*
X64080Y-49116D01*
X64057Y-49140D01*
X64033Y-49188D01*
X64033Y-49307D01*
X64057Y-49354D01*
X64080Y-49378D01*
X64128Y-49402D01*
X64271Y-49402D01*
X64319Y-49378D01*
X64342Y-49354D01*
X63866Y-48902D02*
X63557Y-48902D01*
X63723Y-49092D01*
X63652Y-49092D01*
X63604Y-49116D01*
X63580Y-49140D01*
X63557Y-49188D01*
X63557Y-49307D01*
X63580Y-49354D01*
X63604Y-49378D01*
X63652Y-49402D01*
X63795Y-49402D01*
X63842Y-49378D01*
X63866Y-49354D01*
X63247Y-48902D02*
X63200Y-48902D01*
X63152Y-48926D01*
X63128Y-48950D01*
X63104Y-48997D01*
X63080Y-49092D01*
X63080Y-49211D01*
X63104Y-49307D01*
X63128Y-49354D01*
X63152Y-49378D01*
X63200Y-49402D01*
X63247Y-49402D01*
X63295Y-49378D01*
X63319Y-49354D01*
X63342Y-49307D01*
X63366Y-49211D01*
X63366Y-49092D01*
X63342Y-48997D01*
X63319Y-48950D01*
X63295Y-48926D01*
X63247Y-48902D01*
X114154Y-31828D02*
X114178Y-31804D01*
X114202Y-31733D01*
X114202Y-31685D01*
X114178Y-31614D01*
X114130Y-31566D01*
X114083Y-31542D01*
X113988Y-31519D01*
X113916Y-31519D01*
X113821Y-31542D01*
X113773Y-31566D01*
X113726Y-31614D01*
X113702Y-31685D01*
X113702Y-31733D01*
X113726Y-31804D01*
X113750Y-31828D01*
X114202Y-32304D02*
X114202Y-32019D01*
X114202Y-32161D02*
X113702Y-32161D01*
X113773Y-32114D01*
X113821Y-32066D01*
X113845Y-32019D01*
X113702Y-32471D02*
X113702Y-32804D01*
X114202Y-32590D01*
X116577Y-9788D02*
X116577Y-9835D01*
X116601Y-9883D01*
X116625Y-9907D01*
X116672Y-9930D01*
X116767Y-9954D01*
X116886Y-9954D01*
X116982Y-9930D01*
X117029Y-9907D01*
X117053Y-9883D01*
X117077Y-9835D01*
X117077Y-9788D01*
X117053Y-9740D01*
X117029Y-9716D01*
X116982Y-9692D01*
X116886Y-9669D01*
X116767Y-9669D01*
X116672Y-9692D01*
X116625Y-9716D01*
X116601Y-9740D01*
X116577Y-9788D01*
X117029Y-10169D02*
X117053Y-10192D01*
X117077Y-10169D01*
X117053Y-10145D01*
X117029Y-10169D01*
X117077Y-10169D01*
X117077Y-10669D02*
X117077Y-10383D01*
X117077Y-10526D02*
X116577Y-10526D01*
X116648Y-10478D01*
X116696Y-10430D01*
X116720Y-10383D01*
X116744Y-11478D02*
X117077Y-11478D01*
X116744Y-11264D02*
X117005Y-11264D01*
X117053Y-11288D01*
X117077Y-11335D01*
X117077Y-11407D01*
X117053Y-11454D01*
X117029Y-11478D01*
X116815Y-11883D02*
X116815Y-11716D01*
X117077Y-11716D02*
X116577Y-11716D01*
X116577Y-11954D01*
X113679Y-27678D02*
X113703Y-27654D01*
X113727Y-27583D01*
X113727Y-27535D01*
X113703Y-27464D01*
X113655Y-27416D01*
X113608Y-27392D01*
X113513Y-27369D01*
X113441Y-27369D01*
X113346Y-27392D01*
X113298Y-27416D01*
X113251Y-27464D01*
X113227Y-27535D01*
X113227Y-27583D01*
X113251Y-27654D01*
X113275Y-27678D01*
X113275Y-27869D02*
X113251Y-27892D01*
X113227Y-27940D01*
X113227Y-28059D01*
X113251Y-28107D01*
X113275Y-28130D01*
X113322Y-28154D01*
X113370Y-28154D01*
X113441Y-28130D01*
X113727Y-27845D01*
X113727Y-28154D01*
X113227Y-28583D02*
X113227Y-28488D01*
X113251Y-28440D01*
X113275Y-28416D01*
X113346Y-28369D01*
X113441Y-28345D01*
X113632Y-28345D01*
X113679Y-28369D01*
X113703Y-28392D01*
X113727Y-28440D01*
X113727Y-28535D01*
X113703Y-28583D01*
X113679Y-28607D01*
X113632Y-28630D01*
X113513Y-28630D01*
X113465Y-28607D01*
X113441Y-28583D01*
X113417Y-28535D01*
X113417Y-28440D01*
X113441Y-28392D01*
X113465Y-28369D01*
X113513Y-28345D01*
X115152Y-10238D02*
X115152Y-10285D01*
X115176Y-10333D01*
X115200Y-10357D01*
X115247Y-10380D01*
X115342Y-10404D01*
X115461Y-10404D01*
X115557Y-10380D01*
X115604Y-10357D01*
X115628Y-10333D01*
X115652Y-10285D01*
X115652Y-10238D01*
X115628Y-10190D01*
X115604Y-10166D01*
X115557Y-10142D01*
X115461Y-10119D01*
X115342Y-10119D01*
X115247Y-10142D01*
X115200Y-10166D01*
X115176Y-10190D01*
X115152Y-10238D01*
X115604Y-10619D02*
X115628Y-10642D01*
X115652Y-10619D01*
X115628Y-10595D01*
X115604Y-10619D01*
X115652Y-10619D01*
X115652Y-11119D02*
X115652Y-10833D01*
X115652Y-10976D02*
X115152Y-10976D01*
X115223Y-10928D01*
X115271Y-10880D01*
X115295Y-10833D01*
X115319Y-11928D02*
X115652Y-11928D01*
X115319Y-11714D02*
X115580Y-11714D01*
X115628Y-11738D01*
X115652Y-11785D01*
X115652Y-11857D01*
X115628Y-11904D01*
X115604Y-11928D01*
X115390Y-12333D02*
X115390Y-12166D01*
X115652Y-12166D02*
X115152Y-12166D01*
X115152Y-12404D01*
X117419Y-45552D02*
X117419Y-45957D01*
X117395Y-46004D01*
X117371Y-46028D01*
X117323Y-46052D01*
X117228Y-46052D01*
X117180Y-46028D01*
X117157Y-46004D01*
X117133Y-45957D01*
X117133Y-45552D01*
X116919Y-45600D02*
X116895Y-45576D01*
X116847Y-45552D01*
X116728Y-45552D01*
X116680Y-45576D01*
X116657Y-45600D01*
X116633Y-45647D01*
X116633Y-45695D01*
X116657Y-45766D01*
X116942Y-46052D01*
X116633Y-46052D01*
X116204Y-45719D02*
X116204Y-46052D01*
X116323Y-45528D02*
X116442Y-45885D01*
X116133Y-45885D01*
X121235Y-48202D02*
X120902Y-48202D01*
X121116Y-48702D01*
X120497Y-48369D02*
X120497Y-48702D01*
X120616Y-48178D02*
X120735Y-48535D01*
X120426Y-48535D01*
X119997Y-48702D02*
X120235Y-48702D01*
X120235Y-48202D01*
X119902Y-48202D02*
X119735Y-48702D01*
X119569Y-48202D01*
X119116Y-48654D02*
X119140Y-48678D01*
X119211Y-48702D01*
X119259Y-48702D01*
X119330Y-48678D01*
X119378Y-48630D01*
X119402Y-48583D01*
X119426Y-48488D01*
X119426Y-48416D01*
X119402Y-48321D01*
X119378Y-48273D01*
X119330Y-48226D01*
X119259Y-48202D01*
X119211Y-48202D01*
X119140Y-48226D01*
X119116Y-48250D01*
X118926Y-48250D02*
X118902Y-48226D01*
X118854Y-48202D01*
X118735Y-48202D01*
X118688Y-48226D01*
X118664Y-48250D01*
X118640Y-48297D01*
X118640Y-48345D01*
X118664Y-48416D01*
X118950Y-48702D01*
X118640Y-48702D01*
X118211Y-48369D02*
X118211Y-48702D01*
X118330Y-48178D02*
X118450Y-48535D01*
X118140Y-48535D01*
X117711Y-48202D02*
X117950Y-48202D01*
X117973Y-48440D01*
X117950Y-48416D01*
X117902Y-48392D01*
X117783Y-48392D01*
X117735Y-48416D01*
X117711Y-48440D01*
X117688Y-48488D01*
X117688Y-48607D01*
X117711Y-48654D01*
X117735Y-48678D01*
X117783Y-48702D01*
X117902Y-48702D01*
X117950Y-48678D01*
X117973Y-48654D01*
X100169Y-45527D02*
X100169Y-45932D01*
X100145Y-45979D01*
X100121Y-46003D01*
X100073Y-46027D01*
X99978Y-46027D01*
X99930Y-46003D01*
X99907Y-45979D01*
X99883Y-45932D01*
X99883Y-45527D01*
X99669Y-45575D02*
X99645Y-45551D01*
X99597Y-45527D01*
X99478Y-45527D01*
X99430Y-45551D01*
X99407Y-45575D01*
X99383Y-45622D01*
X99383Y-45670D01*
X99407Y-45741D01*
X99692Y-46027D01*
X99383Y-46027D01*
X99216Y-45527D02*
X98883Y-45527D01*
X99097Y-46027D01*
X104335Y-48302D02*
X104002Y-48302D01*
X104216Y-48802D01*
X103597Y-48469D02*
X103597Y-48802D01*
X103716Y-48278D02*
X103835Y-48635D01*
X103526Y-48635D01*
X103097Y-48802D02*
X103335Y-48802D01*
X103335Y-48302D01*
X103002Y-48302D02*
X102835Y-48802D01*
X102669Y-48302D01*
X102216Y-48754D02*
X102240Y-48778D01*
X102311Y-48802D01*
X102359Y-48802D01*
X102430Y-48778D01*
X102478Y-48730D01*
X102502Y-48683D01*
X102526Y-48588D01*
X102526Y-48516D01*
X102502Y-48421D01*
X102478Y-48373D01*
X102430Y-48326D01*
X102359Y-48302D01*
X102311Y-48302D01*
X102240Y-48326D01*
X102216Y-48350D01*
X102026Y-48350D02*
X102002Y-48326D01*
X101954Y-48302D01*
X101835Y-48302D01*
X101788Y-48326D01*
X101764Y-48350D01*
X101740Y-48397D01*
X101740Y-48445D01*
X101764Y-48516D01*
X102050Y-48802D01*
X101740Y-48802D01*
X101311Y-48469D02*
X101311Y-48802D01*
X101430Y-48278D02*
X101550Y-48635D01*
X101240Y-48635D01*
X100811Y-48302D02*
X101050Y-48302D01*
X101073Y-48540D01*
X101050Y-48516D01*
X101002Y-48492D01*
X100883Y-48492D01*
X100835Y-48516D01*
X100811Y-48540D01*
X100788Y-48588D01*
X100788Y-48707D01*
X100811Y-48754D01*
X100835Y-48778D01*
X100883Y-48802D01*
X101002Y-48802D01*
X101050Y-48778D01*
X101073Y-48754D01*
X138330Y-73152D02*
X138330Y-73557D01*
X138354Y-73604D01*
X138378Y-73628D01*
X138426Y-73652D01*
X138521Y-73652D01*
X138569Y-73628D01*
X138592Y-73604D01*
X138616Y-73557D01*
X138616Y-73152D01*
X138830Y-73200D02*
X138854Y-73176D01*
X138902Y-73152D01*
X139021Y-73152D01*
X139069Y-73176D01*
X139092Y-73200D01*
X139116Y-73247D01*
X139116Y-73295D01*
X139092Y-73366D01*
X138807Y-73652D01*
X139116Y-73652D01*
X139426Y-73152D02*
X139473Y-73152D01*
X139521Y-73176D01*
X139545Y-73200D01*
X139569Y-73247D01*
X139592Y-73342D01*
X139592Y-73461D01*
X139569Y-73557D01*
X139545Y-73604D01*
X139521Y-73628D01*
X139473Y-73652D01*
X139426Y-73652D01*
X139378Y-73628D01*
X139354Y-73604D01*
X139330Y-73557D01*
X139307Y-73461D01*
X139307Y-73342D01*
X139330Y-73247D01*
X139354Y-73200D01*
X139378Y-73176D01*
X139426Y-73152D01*
X137089Y-71627D02*
X137422Y-71627D01*
X137208Y-72127D01*
X137827Y-71794D02*
X137827Y-72127D01*
X137708Y-71603D02*
X137589Y-71960D01*
X137898Y-71960D01*
X138327Y-72127D02*
X138089Y-72127D01*
X138089Y-71627D01*
X138422Y-71627D02*
X138589Y-72127D01*
X138755Y-71627D01*
X139208Y-72079D02*
X139184Y-72103D01*
X139113Y-72127D01*
X139065Y-72127D01*
X138994Y-72103D01*
X138946Y-72055D01*
X138922Y-72008D01*
X138898Y-71913D01*
X138898Y-71841D01*
X138922Y-71746D01*
X138946Y-71698D01*
X138994Y-71651D01*
X139065Y-71627D01*
X139113Y-71627D01*
X139184Y-71651D01*
X139208Y-71675D01*
X139398Y-71675D02*
X139422Y-71651D01*
X139470Y-71627D01*
X139589Y-71627D01*
X139636Y-71651D01*
X139660Y-71675D01*
X139684Y-71722D01*
X139684Y-71770D01*
X139660Y-71841D01*
X139375Y-72127D01*
X139684Y-72127D01*
X140113Y-71794D02*
X140113Y-72127D01*
X139994Y-71603D02*
X139875Y-71960D01*
X140184Y-71960D01*
X140613Y-71627D02*
X140375Y-71627D01*
X140351Y-71865D01*
X140375Y-71841D01*
X140422Y-71817D01*
X140541Y-71817D01*
X140589Y-71841D01*
X140613Y-71865D01*
X140636Y-71913D01*
X140636Y-72032D01*
X140613Y-72079D01*
X140589Y-72103D01*
X140541Y-72127D01*
X140422Y-72127D01*
X140375Y-72103D01*
X140351Y-72079D01*
X124519Y-45552D02*
X124519Y-45957D01*
X124495Y-46004D01*
X124471Y-46028D01*
X124423Y-46052D01*
X124328Y-46052D01*
X124280Y-46028D01*
X124257Y-46004D01*
X124233Y-45957D01*
X124233Y-45552D01*
X124019Y-45600D02*
X123995Y-45576D01*
X123947Y-45552D01*
X123828Y-45552D01*
X123780Y-45576D01*
X123757Y-45600D01*
X123733Y-45647D01*
X123733Y-45695D01*
X123757Y-45766D01*
X124042Y-46052D01*
X123733Y-46052D01*
X123542Y-45600D02*
X123519Y-45576D01*
X123471Y-45552D01*
X123352Y-45552D01*
X123304Y-45576D01*
X123280Y-45600D01*
X123257Y-45647D01*
X123257Y-45695D01*
X123280Y-45766D01*
X123566Y-46052D01*
X123257Y-46052D01*
X128685Y-48127D02*
X128352Y-48127D01*
X128566Y-48627D01*
X127947Y-48294D02*
X127947Y-48627D01*
X128066Y-48103D02*
X128185Y-48460D01*
X127876Y-48460D01*
X127447Y-48627D02*
X127685Y-48627D01*
X127685Y-48127D01*
X127352Y-48127D02*
X127185Y-48627D01*
X127019Y-48127D01*
X126566Y-48579D02*
X126590Y-48603D01*
X126661Y-48627D01*
X126709Y-48627D01*
X126780Y-48603D01*
X126828Y-48555D01*
X126852Y-48508D01*
X126876Y-48413D01*
X126876Y-48341D01*
X126852Y-48246D01*
X126828Y-48198D01*
X126780Y-48151D01*
X126709Y-48127D01*
X126661Y-48127D01*
X126590Y-48151D01*
X126566Y-48175D01*
X126376Y-48175D02*
X126352Y-48151D01*
X126304Y-48127D01*
X126185Y-48127D01*
X126138Y-48151D01*
X126114Y-48175D01*
X126090Y-48222D01*
X126090Y-48270D01*
X126114Y-48341D01*
X126400Y-48627D01*
X126090Y-48627D01*
X125661Y-48294D02*
X125661Y-48627D01*
X125780Y-48103D02*
X125900Y-48460D01*
X125590Y-48460D01*
X125161Y-48127D02*
X125400Y-48127D01*
X125423Y-48365D01*
X125400Y-48341D01*
X125352Y-48317D01*
X125233Y-48317D01*
X125185Y-48341D01*
X125161Y-48365D01*
X125138Y-48413D01*
X125138Y-48532D01*
X125161Y-48579D01*
X125185Y-48603D01*
X125233Y-48627D01*
X125352Y-48627D01*
X125400Y-48603D01*
X125423Y-48579D01*
X162141Y-33322D02*
X162308Y-33084D01*
X162427Y-33322D02*
X162427Y-32822D01*
X162236Y-32822D01*
X162189Y-32846D01*
X162165Y-32870D01*
X162141Y-32917D01*
X162141Y-32989D01*
X162165Y-33036D01*
X162189Y-33060D01*
X162236Y-33084D01*
X162427Y-33084D01*
X161950Y-32870D02*
X161927Y-32846D01*
X161879Y-32822D01*
X161760Y-32822D01*
X161712Y-32846D01*
X161689Y-32870D01*
X161665Y-32917D01*
X161665Y-32965D01*
X161689Y-33036D01*
X161974Y-33322D01*
X161665Y-33322D01*
X161498Y-32822D02*
X161165Y-32822D01*
X161379Y-33322D01*
X168085Y-32292D02*
X168370Y-32292D01*
X168228Y-32292D02*
X168228Y-31792D01*
X168275Y-31863D01*
X168323Y-31911D01*
X168370Y-31935D01*
X167775Y-31792D02*
X167728Y-31792D01*
X167680Y-31816D01*
X167656Y-31840D01*
X167632Y-31887D01*
X167609Y-31982D01*
X167609Y-32101D01*
X167632Y-32197D01*
X167656Y-32244D01*
X167680Y-32268D01*
X167728Y-32292D01*
X167775Y-32292D01*
X167823Y-32268D01*
X167847Y-32244D01*
X167870Y-32197D01*
X167894Y-32101D01*
X167894Y-31982D01*
X167870Y-31887D01*
X167847Y-31840D01*
X167823Y-31816D01*
X167775Y-31792D01*
X167394Y-32292D02*
X167394Y-31792D01*
X167109Y-32292D02*
X167323Y-32006D01*
X167109Y-31792D02*
X167394Y-32078D01*
X126742Y-17408D02*
X126504Y-17241D01*
X126742Y-17122D02*
X126242Y-17122D01*
X126242Y-17313D01*
X126266Y-17360D01*
X126290Y-17384D01*
X126337Y-17408D01*
X126409Y-17408D01*
X126456Y-17384D01*
X126480Y-17360D01*
X126504Y-17313D01*
X126504Y-17122D01*
X126242Y-17575D02*
X126242Y-17884D01*
X126432Y-17718D01*
X126432Y-17789D01*
X126456Y-17837D01*
X126480Y-17860D01*
X126528Y-17884D01*
X126647Y-17884D01*
X126694Y-17860D01*
X126718Y-17837D01*
X126742Y-17789D01*
X126742Y-17646D01*
X126718Y-17599D01*
X126694Y-17575D01*
X126242Y-18194D02*
X126242Y-18241D01*
X126266Y-18289D01*
X126290Y-18313D01*
X126337Y-18337D01*
X126432Y-18360D01*
X126551Y-18360D01*
X126647Y-18337D01*
X126694Y-18313D01*
X126718Y-18289D01*
X126742Y-18241D01*
X126742Y-18194D01*
X126718Y-18146D01*
X126694Y-18122D01*
X126647Y-18099D01*
X126551Y-18075D01*
X126432Y-18075D01*
X126337Y-18099D01*
X126290Y-18122D01*
X126266Y-18146D01*
X126242Y-18194D01*
X126844Y-14022D02*
X127177Y-14022D01*
X126653Y-13903D02*
X127010Y-13784D01*
X127010Y-14093D01*
X127177Y-14284D02*
X126677Y-14284D01*
X127177Y-14569D02*
X126891Y-14355D01*
X126677Y-14569D02*
X126963Y-14284D01*
X126677Y-14736D02*
X126677Y-15069D01*
X127177Y-14855D01*
X125797Y-17393D02*
X125559Y-17226D01*
X125797Y-17107D02*
X125297Y-17107D01*
X125297Y-17298D01*
X125321Y-17345D01*
X125345Y-17369D01*
X125392Y-17393D01*
X125464Y-17393D01*
X125511Y-17369D01*
X125535Y-17345D01*
X125559Y-17298D01*
X125559Y-17107D01*
X125345Y-17584D02*
X125321Y-17607D01*
X125297Y-17655D01*
X125297Y-17774D01*
X125321Y-17822D01*
X125345Y-17845D01*
X125392Y-17869D01*
X125440Y-17869D01*
X125511Y-17845D01*
X125797Y-17560D01*
X125797Y-17869D01*
X125511Y-18155D02*
X125487Y-18107D01*
X125464Y-18084D01*
X125416Y-18060D01*
X125392Y-18060D01*
X125345Y-18084D01*
X125321Y-18107D01*
X125297Y-18155D01*
X125297Y-18250D01*
X125321Y-18298D01*
X125345Y-18322D01*
X125392Y-18345D01*
X125416Y-18345D01*
X125464Y-18322D01*
X125487Y-18298D01*
X125511Y-18250D01*
X125511Y-18155D01*
X125535Y-18107D01*
X125559Y-18084D01*
X125606Y-18060D01*
X125702Y-18060D01*
X125749Y-18084D01*
X125773Y-18107D01*
X125797Y-18155D01*
X125797Y-18250D01*
X125773Y-18298D01*
X125749Y-18322D01*
X125702Y-18345D01*
X125606Y-18345D01*
X125559Y-18322D01*
X125535Y-18298D01*
X125511Y-18250D01*
X125794Y-14127D02*
X126127Y-14127D01*
X125603Y-14008D02*
X125960Y-13889D01*
X125960Y-14198D01*
X126127Y-14389D02*
X125627Y-14389D01*
X126127Y-14674D02*
X125841Y-14460D01*
X125627Y-14674D02*
X125913Y-14389D01*
X125627Y-14841D02*
X125627Y-15174D01*
X126127Y-14960D01*
X127652Y-17418D02*
X127414Y-17251D01*
X127652Y-17132D02*
X127152Y-17132D01*
X127152Y-17323D01*
X127176Y-17370D01*
X127200Y-17394D01*
X127247Y-17418D01*
X127319Y-17418D01*
X127366Y-17394D01*
X127390Y-17370D01*
X127414Y-17323D01*
X127414Y-17132D01*
X127200Y-17609D02*
X127176Y-17632D01*
X127152Y-17680D01*
X127152Y-17799D01*
X127176Y-17847D01*
X127200Y-17870D01*
X127247Y-17894D01*
X127295Y-17894D01*
X127366Y-17870D01*
X127652Y-17585D01*
X127652Y-17894D01*
X127652Y-18132D02*
X127652Y-18228D01*
X127628Y-18275D01*
X127604Y-18299D01*
X127533Y-18347D01*
X127438Y-18370D01*
X127247Y-18370D01*
X127200Y-18347D01*
X127176Y-18323D01*
X127152Y-18275D01*
X127152Y-18180D01*
X127176Y-18132D01*
X127200Y-18109D01*
X127247Y-18085D01*
X127366Y-18085D01*
X127414Y-18109D01*
X127438Y-18132D01*
X127461Y-18180D01*
X127461Y-18275D01*
X127438Y-18323D01*
X127414Y-18347D01*
X127366Y-18370D01*
X127567Y-13857D02*
X127567Y-14166D01*
X127757Y-14000D01*
X127757Y-14071D01*
X127781Y-14119D01*
X127805Y-14142D01*
X127853Y-14166D01*
X127972Y-14166D01*
X128019Y-14142D01*
X128043Y-14119D01*
X128067Y-14071D01*
X128067Y-13928D01*
X128043Y-13880D01*
X128019Y-13857D01*
X127567Y-14333D02*
X127567Y-14642D01*
X127757Y-14476D01*
X127757Y-14547D01*
X127781Y-14595D01*
X127805Y-14619D01*
X127853Y-14642D01*
X127972Y-14642D01*
X128019Y-14619D01*
X128043Y-14595D01*
X128067Y-14547D01*
X128067Y-14404D01*
X128043Y-14357D01*
X128019Y-14333D01*
X127567Y-14952D02*
X127567Y-15000D01*
X127591Y-15047D01*
X127615Y-15071D01*
X127662Y-15095D01*
X127757Y-15119D01*
X127876Y-15119D01*
X127972Y-15095D01*
X128019Y-15071D01*
X128043Y-15047D01*
X128067Y-15000D01*
X128067Y-14952D01*
X128043Y-14904D01*
X128019Y-14880D01*
X127972Y-14857D01*
X127876Y-14833D01*
X127757Y-14833D01*
X127662Y-14857D01*
X127615Y-14880D01*
X127591Y-14904D01*
X127567Y-14952D01*
X129705Y-71552D02*
X129705Y-71957D01*
X129729Y-72004D01*
X129753Y-72028D01*
X129801Y-72052D01*
X129896Y-72052D01*
X129944Y-72028D01*
X129967Y-72004D01*
X129991Y-71957D01*
X129991Y-71552D01*
X130491Y-72052D02*
X130205Y-72052D01*
X130348Y-72052D02*
X130348Y-71552D01*
X130301Y-71623D01*
X130253Y-71671D01*
X130205Y-71695D01*
X130777Y-71766D02*
X130729Y-71742D01*
X130705Y-71719D01*
X130682Y-71671D01*
X130682Y-71647D01*
X130705Y-71600D01*
X130729Y-71576D01*
X130777Y-71552D01*
X130872Y-71552D01*
X130920Y-71576D01*
X130944Y-71600D01*
X130967Y-71647D01*
X130967Y-71671D01*
X130944Y-71719D01*
X130920Y-71742D01*
X130872Y-71766D01*
X130777Y-71766D01*
X130729Y-71790D01*
X130705Y-71814D01*
X130682Y-71861D01*
X130682Y-71957D01*
X130705Y-72004D01*
X130729Y-72028D01*
X130777Y-72052D01*
X130872Y-72052D01*
X130920Y-72028D01*
X130944Y-72004D01*
X130967Y-71957D01*
X130967Y-71861D01*
X130944Y-71814D01*
X130920Y-71790D01*
X130872Y-71766D01*
X129319Y-72752D02*
X129652Y-72752D01*
X129438Y-73252D01*
X130057Y-72919D02*
X130057Y-73252D01*
X129938Y-72728D02*
X129819Y-73085D01*
X130128Y-73085D01*
X130319Y-73252D02*
X130319Y-72752D01*
X130319Y-72990D02*
X130604Y-72990D01*
X130604Y-73252D02*
X130604Y-72752D01*
X131128Y-73204D02*
X131104Y-73228D01*
X131033Y-73252D01*
X130985Y-73252D01*
X130914Y-73228D01*
X130866Y-73180D01*
X130842Y-73133D01*
X130819Y-73038D01*
X130819Y-72966D01*
X130842Y-72871D01*
X130866Y-72823D01*
X130914Y-72776D01*
X130985Y-72752D01*
X131033Y-72752D01*
X131104Y-72776D01*
X131128Y-72800D01*
X131319Y-72800D02*
X131342Y-72776D01*
X131390Y-72752D01*
X131509Y-72752D01*
X131557Y-72776D01*
X131580Y-72800D01*
X131604Y-72847D01*
X131604Y-72895D01*
X131580Y-72966D01*
X131295Y-73252D01*
X131604Y-73252D01*
X132033Y-72919D02*
X132033Y-73252D01*
X131914Y-72728D02*
X131795Y-73085D01*
X132104Y-73085D01*
X132533Y-72752D02*
X132295Y-72752D01*
X132271Y-72990D01*
X132295Y-72966D01*
X132342Y-72942D01*
X132461Y-72942D01*
X132509Y-72966D01*
X132533Y-72990D01*
X132557Y-73038D01*
X132557Y-73157D01*
X132533Y-73204D01*
X132509Y-73228D01*
X132461Y-73252D01*
X132342Y-73252D01*
X132295Y-73228D01*
X132271Y-73204D01*
X64090Y-53657D02*
X64090Y-54062D01*
X64114Y-54109D01*
X64138Y-54133D01*
X64186Y-54157D01*
X64281Y-54157D01*
X64329Y-54133D01*
X64352Y-54109D01*
X64376Y-54062D01*
X64376Y-53657D01*
X64567Y-53657D02*
X64876Y-53657D01*
X64710Y-53847D01*
X64781Y-53847D01*
X64829Y-53871D01*
X64852Y-53895D01*
X64876Y-53943D01*
X64876Y-54062D01*
X64852Y-54109D01*
X64829Y-54133D01*
X64781Y-54157D01*
X64638Y-54157D01*
X64590Y-54133D01*
X64567Y-54109D01*
X65329Y-53657D02*
X65090Y-53657D01*
X65067Y-53895D01*
X65090Y-53871D01*
X65138Y-53847D01*
X65257Y-53847D01*
X65305Y-53871D01*
X65329Y-53895D01*
X65352Y-53943D01*
X65352Y-54062D01*
X65329Y-54109D01*
X65305Y-54133D01*
X65257Y-54157D01*
X65138Y-54157D01*
X65090Y-54133D01*
X65067Y-54109D01*
X56741Y-52522D02*
X56503Y-52522D01*
X56503Y-52022D01*
X56908Y-52522D02*
X56908Y-52022D01*
X57074Y-52379D01*
X57241Y-52022D01*
X57241Y-52522D01*
X57741Y-52522D02*
X57455Y-52522D01*
X57598Y-52522D02*
X57598Y-52022D01*
X57551Y-52093D01*
X57503Y-52141D01*
X57455Y-52165D01*
X58051Y-52022D02*
X58098Y-52022D01*
X58146Y-52046D01*
X58170Y-52070D01*
X58194Y-52117D01*
X58217Y-52212D01*
X58217Y-52331D01*
X58194Y-52427D01*
X58170Y-52474D01*
X58146Y-52498D01*
X58098Y-52522D01*
X58051Y-52522D01*
X58003Y-52498D01*
X57979Y-52474D01*
X57955Y-52427D01*
X57932Y-52331D01*
X57932Y-52212D01*
X57955Y-52117D01*
X57979Y-52070D01*
X58003Y-52046D01*
X58051Y-52022D01*
X58503Y-52236D02*
X58455Y-52212D01*
X58432Y-52189D01*
X58408Y-52141D01*
X58408Y-52117D01*
X58432Y-52070D01*
X58455Y-52046D01*
X58503Y-52022D01*
X58598Y-52022D01*
X58646Y-52046D01*
X58670Y-52070D01*
X58694Y-52117D01*
X58694Y-52141D01*
X58670Y-52189D01*
X58646Y-52212D01*
X58598Y-52236D01*
X58503Y-52236D01*
X58455Y-52260D01*
X58432Y-52284D01*
X58408Y-52331D01*
X58408Y-52427D01*
X58432Y-52474D01*
X58455Y-52498D01*
X58503Y-52522D01*
X58598Y-52522D01*
X58646Y-52498D01*
X58670Y-52474D01*
X58694Y-52427D01*
X58694Y-52331D01*
X58670Y-52284D01*
X58646Y-52260D01*
X58598Y-52236D01*
X59122Y-52022D02*
X59027Y-52022D01*
X58979Y-52046D01*
X58955Y-52070D01*
X58908Y-52141D01*
X58884Y-52236D01*
X58884Y-52427D01*
X58908Y-52474D01*
X58932Y-52498D01*
X58979Y-52522D01*
X59075Y-52522D01*
X59122Y-52498D01*
X59146Y-52474D01*
X59170Y-52427D01*
X59170Y-52308D01*
X59146Y-52260D01*
X59122Y-52236D01*
X59075Y-52212D01*
X58979Y-52212D01*
X58932Y-52236D01*
X58908Y-52260D01*
X58884Y-52308D01*
X59670Y-52474D02*
X59646Y-52498D01*
X59575Y-52522D01*
X59527Y-52522D01*
X59455Y-52498D01*
X59408Y-52450D01*
X59384Y-52403D01*
X59360Y-52308D01*
X59360Y-52236D01*
X59384Y-52141D01*
X59408Y-52093D01*
X59455Y-52046D01*
X59527Y-52022D01*
X59575Y-52022D01*
X59646Y-52046D01*
X59670Y-52070D01*
X59860Y-52498D02*
X59932Y-52522D01*
X60051Y-52522D01*
X60098Y-52498D01*
X60122Y-52474D01*
X60146Y-52427D01*
X60146Y-52379D01*
X60122Y-52331D01*
X60098Y-52308D01*
X60051Y-52284D01*
X59955Y-52260D01*
X59908Y-52236D01*
X59884Y-52212D01*
X59860Y-52165D01*
X59860Y-52117D01*
X59884Y-52070D01*
X59908Y-52046D01*
X59955Y-52022D01*
X60075Y-52022D01*
X60146Y-52046D01*
X60241Y-52570D02*
X60622Y-52570D01*
X60670Y-52022D02*
X60955Y-52022D01*
X60813Y-52522D02*
X60813Y-52022D01*
X61217Y-52022D02*
X61313Y-52022D01*
X61360Y-52046D01*
X61408Y-52093D01*
X61432Y-52189D01*
X61432Y-52355D01*
X61408Y-52450D01*
X61360Y-52498D01*
X61313Y-52522D01*
X61217Y-52522D01*
X61170Y-52498D01*
X61122Y-52450D01*
X61098Y-52355D01*
X61098Y-52189D01*
X61122Y-52093D01*
X61170Y-52046D01*
X61217Y-52022D01*
X61622Y-52070D02*
X61646Y-52046D01*
X61694Y-52022D01*
X61813Y-52022D01*
X61860Y-52046D01*
X61884Y-52070D01*
X61908Y-52117D01*
X61908Y-52165D01*
X61884Y-52236D01*
X61598Y-52522D01*
X61908Y-52522D01*
X62360Y-52022D02*
X62122Y-52022D01*
X62098Y-52260D01*
X62122Y-52236D01*
X62170Y-52212D01*
X62289Y-52212D01*
X62336Y-52236D01*
X62360Y-52260D01*
X62384Y-52308D01*
X62384Y-52427D01*
X62360Y-52474D01*
X62336Y-52498D01*
X62289Y-52522D01*
X62170Y-52522D01*
X62122Y-52498D01*
X62098Y-52474D01*
X62575Y-52070D02*
X62598Y-52046D01*
X62646Y-52022D01*
X62765Y-52022D01*
X62813Y-52046D01*
X62836Y-52070D01*
X62860Y-52117D01*
X62860Y-52165D01*
X62836Y-52236D01*
X62551Y-52522D01*
X62860Y-52522D01*
X62955Y-52570D02*
X63336Y-52570D01*
X63455Y-52522D02*
X63455Y-52022D01*
X63575Y-52022D01*
X63646Y-52046D01*
X63694Y-52093D01*
X63717Y-52141D01*
X63741Y-52236D01*
X63741Y-52308D01*
X63717Y-52403D01*
X63694Y-52450D01*
X63646Y-52498D01*
X63575Y-52522D01*
X63455Y-52522D01*
X63955Y-52522D02*
X63955Y-52022D01*
X64146Y-52022D01*
X64194Y-52046D01*
X64217Y-52070D01*
X64241Y-52117D01*
X64241Y-52189D01*
X64217Y-52236D01*
X64194Y-52260D01*
X64146Y-52284D01*
X63955Y-52284D01*
X64432Y-52379D02*
X64670Y-52379D01*
X64384Y-52522D02*
X64551Y-52022D01*
X64717Y-52522D01*
X64884Y-52522D02*
X64884Y-52022D01*
X65170Y-52522D02*
X64955Y-52236D01*
X65170Y-52022D02*
X64884Y-52308D01*
X89469Y-71552D02*
X89469Y-71957D01*
X89492Y-72004D01*
X89516Y-72028D01*
X89564Y-72052D01*
X89659Y-72052D01*
X89707Y-72028D01*
X89730Y-72004D01*
X89754Y-71957D01*
X89754Y-71552D01*
X89969Y-71600D02*
X89992Y-71576D01*
X90040Y-71552D01*
X90159Y-71552D01*
X90207Y-71576D01*
X90230Y-71600D01*
X90254Y-71647D01*
X90254Y-71695D01*
X90230Y-71766D01*
X89945Y-72052D01*
X90254Y-72052D01*
X88214Y-70577D02*
X88547Y-70577D01*
X88333Y-71077D01*
X88952Y-70744D02*
X88952Y-71077D01*
X88833Y-70553D02*
X88714Y-70910D01*
X89023Y-70910D01*
X89452Y-71077D02*
X89214Y-71077D01*
X89214Y-70577D01*
X89547Y-70577D02*
X89714Y-71077D01*
X89880Y-70577D01*
X90333Y-71029D02*
X90309Y-71053D01*
X90238Y-71077D01*
X90190Y-71077D01*
X90119Y-71053D01*
X90071Y-71005D01*
X90047Y-70958D01*
X90023Y-70863D01*
X90023Y-70791D01*
X90047Y-70696D01*
X90071Y-70648D01*
X90119Y-70601D01*
X90190Y-70577D01*
X90238Y-70577D01*
X90309Y-70601D01*
X90333Y-70625D01*
X90523Y-70625D02*
X90547Y-70601D01*
X90595Y-70577D01*
X90714Y-70577D01*
X90761Y-70601D01*
X90785Y-70625D01*
X90809Y-70672D01*
X90809Y-70720D01*
X90785Y-70791D01*
X90500Y-71077D01*
X90809Y-71077D01*
X91238Y-70744D02*
X91238Y-71077D01*
X91119Y-70553D02*
X91000Y-70910D01*
X91309Y-70910D01*
X91738Y-70577D02*
X91500Y-70577D01*
X91476Y-70815D01*
X91500Y-70791D01*
X91547Y-70767D01*
X91666Y-70767D01*
X91714Y-70791D01*
X91738Y-70815D01*
X91761Y-70863D01*
X91761Y-70982D01*
X91738Y-71029D01*
X91714Y-71053D01*
X91666Y-71077D01*
X91547Y-71077D01*
X91500Y-71053D01*
X91476Y-71029D01*
X97544Y-70902D02*
X97544Y-71307D01*
X97567Y-71354D01*
X97591Y-71378D01*
X97639Y-71402D01*
X97734Y-71402D01*
X97782Y-71378D01*
X97805Y-71354D01*
X97829Y-71307D01*
X97829Y-70902D01*
X98020Y-70902D02*
X98329Y-70902D01*
X98163Y-71092D01*
X98234Y-71092D01*
X98282Y-71116D01*
X98305Y-71140D01*
X98329Y-71188D01*
X98329Y-71307D01*
X98305Y-71354D01*
X98282Y-71378D01*
X98234Y-71402D01*
X98091Y-71402D01*
X98044Y-71378D01*
X98020Y-71354D01*
X96844Y-71852D02*
X97177Y-71852D01*
X96963Y-72352D01*
X97582Y-72019D02*
X97582Y-72352D01*
X97463Y-71828D02*
X97344Y-72185D01*
X97653Y-72185D01*
X97844Y-72352D02*
X97844Y-71852D01*
X97844Y-72090D02*
X98129Y-72090D01*
X98129Y-72352D02*
X98129Y-71852D01*
X98653Y-72304D02*
X98629Y-72328D01*
X98558Y-72352D01*
X98510Y-72352D01*
X98439Y-72328D01*
X98391Y-72280D01*
X98367Y-72233D01*
X98344Y-72138D01*
X98344Y-72066D01*
X98367Y-71971D01*
X98391Y-71923D01*
X98439Y-71876D01*
X98510Y-71852D01*
X98558Y-71852D01*
X98629Y-71876D01*
X98653Y-71900D01*
X98844Y-71900D02*
X98867Y-71876D01*
X98915Y-71852D01*
X99034Y-71852D01*
X99082Y-71876D01*
X99105Y-71900D01*
X99129Y-71947D01*
X99129Y-71995D01*
X99105Y-72066D01*
X98820Y-72352D01*
X99129Y-72352D01*
X99558Y-72019D02*
X99558Y-72352D01*
X99439Y-71828D02*
X99320Y-72185D01*
X99629Y-72185D01*
X100058Y-71852D02*
X99820Y-71852D01*
X99796Y-72090D01*
X99820Y-72066D01*
X99867Y-72042D01*
X99986Y-72042D01*
X100034Y-72066D01*
X100058Y-72090D01*
X100082Y-72138D01*
X100082Y-72257D01*
X100058Y-72304D01*
X100034Y-72328D01*
X99986Y-72352D01*
X99867Y-72352D01*
X99820Y-72328D01*
X99796Y-72304D01*
X162953Y-35607D02*
X163120Y-35369D01*
X163239Y-35607D02*
X163239Y-35107D01*
X163048Y-35107D01*
X163000Y-35131D01*
X162977Y-35155D01*
X162953Y-35202D01*
X162953Y-35274D01*
X162977Y-35321D01*
X163000Y-35345D01*
X163048Y-35369D01*
X163239Y-35369D01*
X162500Y-35107D02*
X162739Y-35107D01*
X162762Y-35345D01*
X162739Y-35321D01*
X162691Y-35297D01*
X162572Y-35297D01*
X162524Y-35321D01*
X162500Y-35345D01*
X162477Y-35393D01*
X162477Y-35512D01*
X162500Y-35559D01*
X162524Y-35583D01*
X162572Y-35607D01*
X162691Y-35607D01*
X162739Y-35583D01*
X162762Y-35559D01*
X168255Y-34732D02*
X168540Y-34732D01*
X168398Y-34732D02*
X168398Y-34232D01*
X168445Y-34303D01*
X168493Y-34351D01*
X168540Y-34375D01*
X167945Y-34232D02*
X167898Y-34232D01*
X167850Y-34256D01*
X167826Y-34280D01*
X167802Y-34327D01*
X167779Y-34422D01*
X167779Y-34541D01*
X167802Y-34637D01*
X167826Y-34684D01*
X167850Y-34708D01*
X167898Y-34732D01*
X167945Y-34732D01*
X167993Y-34708D01*
X168017Y-34684D01*
X168040Y-34637D01*
X168064Y-34541D01*
X168064Y-34422D01*
X168040Y-34327D01*
X168017Y-34280D01*
X167993Y-34256D01*
X167945Y-34232D01*
X167564Y-34732D02*
X167564Y-34232D01*
X167279Y-34732D02*
X167493Y-34446D01*
X167279Y-34232D02*
X167564Y-34518D01*
X170319Y-28002D02*
X170319Y-28407D01*
X170342Y-28454D01*
X170366Y-28478D01*
X170414Y-28502D01*
X170509Y-28502D01*
X170557Y-28478D01*
X170580Y-28454D01*
X170604Y-28407D01*
X170604Y-28002D01*
X171057Y-28002D02*
X170961Y-28002D01*
X170914Y-28026D01*
X170890Y-28050D01*
X170842Y-28121D01*
X170819Y-28216D01*
X170819Y-28407D01*
X170842Y-28454D01*
X170866Y-28478D01*
X170914Y-28502D01*
X171009Y-28502D01*
X171057Y-28478D01*
X171080Y-28454D01*
X171104Y-28407D01*
X171104Y-28288D01*
X171080Y-28240D01*
X171057Y-28216D01*
X171009Y-28192D01*
X170914Y-28192D01*
X170866Y-28216D01*
X170842Y-28240D01*
X170819Y-28288D01*
X168864Y-26402D02*
X169197Y-26402D01*
X168983Y-26902D01*
X169602Y-26569D02*
X169602Y-26902D01*
X169483Y-26378D02*
X169364Y-26735D01*
X169673Y-26735D01*
X170102Y-26902D02*
X169864Y-26902D01*
X169864Y-26402D01*
X170197Y-26402D02*
X170364Y-26902D01*
X170530Y-26402D01*
X170983Y-26854D02*
X170959Y-26878D01*
X170888Y-26902D01*
X170840Y-26902D01*
X170769Y-26878D01*
X170721Y-26830D01*
X170697Y-26783D01*
X170673Y-26688D01*
X170673Y-26616D01*
X170697Y-26521D01*
X170721Y-26473D01*
X170769Y-26426D01*
X170840Y-26402D01*
X170888Y-26402D01*
X170959Y-26426D01*
X170983Y-26450D01*
X171173Y-26450D02*
X171197Y-26426D01*
X171245Y-26402D01*
X171364Y-26402D01*
X171411Y-26426D01*
X171435Y-26450D01*
X171459Y-26497D01*
X171459Y-26545D01*
X171435Y-26616D01*
X171150Y-26902D01*
X171459Y-26902D01*
X171888Y-26569D02*
X171888Y-26902D01*
X171769Y-26378D02*
X171650Y-26735D01*
X171959Y-26735D01*
X172388Y-26402D02*
X172150Y-26402D01*
X172126Y-26640D01*
X172150Y-26616D01*
X172197Y-26592D01*
X172316Y-26592D01*
X172364Y-26616D01*
X172388Y-26640D01*
X172411Y-26688D01*
X172411Y-26807D01*
X172388Y-26854D01*
X172364Y-26878D01*
X172316Y-26902D01*
X172197Y-26902D01*
X172150Y-26878D01*
X172126Y-26854D01*
X174569Y-27752D02*
X174569Y-28157D01*
X174592Y-28204D01*
X174616Y-28228D01*
X174664Y-28252D01*
X174759Y-28252D01*
X174807Y-28228D01*
X174830Y-28204D01*
X174854Y-28157D01*
X174854Y-27752D01*
X175045Y-27752D02*
X175378Y-27752D01*
X175164Y-28252D01*
X173114Y-26452D02*
X173447Y-26452D01*
X173233Y-26952D01*
X173852Y-26619D02*
X173852Y-26952D01*
X173733Y-26428D02*
X173614Y-26785D01*
X173923Y-26785D01*
X174352Y-26952D02*
X174114Y-26952D01*
X174114Y-26452D01*
X174447Y-26452D02*
X174614Y-26952D01*
X174780Y-26452D01*
X175233Y-26904D02*
X175209Y-26928D01*
X175138Y-26952D01*
X175090Y-26952D01*
X175019Y-26928D01*
X174971Y-26880D01*
X174947Y-26833D01*
X174923Y-26738D01*
X174923Y-26666D01*
X174947Y-26571D01*
X174971Y-26523D01*
X175019Y-26476D01*
X175090Y-26452D01*
X175138Y-26452D01*
X175209Y-26476D01*
X175233Y-26500D01*
X175423Y-26500D02*
X175447Y-26476D01*
X175495Y-26452D01*
X175614Y-26452D01*
X175661Y-26476D01*
X175685Y-26500D01*
X175709Y-26547D01*
X175709Y-26595D01*
X175685Y-26666D01*
X175400Y-26952D01*
X175709Y-26952D01*
X176138Y-26619D02*
X176138Y-26952D01*
X176019Y-26428D02*
X175900Y-26785D01*
X176209Y-26785D01*
X176638Y-26452D02*
X176400Y-26452D01*
X176376Y-26690D01*
X176400Y-26666D01*
X176447Y-26642D01*
X176566Y-26642D01*
X176614Y-26666D01*
X176638Y-26690D01*
X176661Y-26738D01*
X176661Y-26857D01*
X176638Y-26904D01*
X176614Y-26928D01*
X176566Y-26952D01*
X176447Y-26952D01*
X176400Y-26928D01*
X176376Y-26904D01*
X120537Y-20231D02*
X120299Y-20065D01*
X120537Y-19945D02*
X120037Y-19945D01*
X120037Y-20136D01*
X120061Y-20184D01*
X120085Y-20207D01*
X120132Y-20231D01*
X120204Y-20231D01*
X120251Y-20207D01*
X120275Y-20184D01*
X120299Y-20136D01*
X120299Y-19945D01*
X120037Y-20398D02*
X120037Y-20731D01*
X120537Y-20517D01*
X123112Y-12307D02*
X123112Y-12616D01*
X123302Y-12450D01*
X123302Y-12521D01*
X123326Y-12569D01*
X123350Y-12592D01*
X123398Y-12616D01*
X123517Y-12616D01*
X123564Y-12592D01*
X123588Y-12569D01*
X123612Y-12521D01*
X123612Y-12378D01*
X123588Y-12330D01*
X123564Y-12307D01*
X123112Y-12783D02*
X123112Y-13092D01*
X123302Y-12926D01*
X123302Y-12997D01*
X123326Y-13045D01*
X123350Y-13069D01*
X123398Y-13092D01*
X123517Y-13092D01*
X123564Y-13069D01*
X123588Y-13045D01*
X123612Y-12997D01*
X123612Y-12854D01*
X123588Y-12807D01*
X123564Y-12783D01*
X123112Y-13402D02*
X123112Y-13450D01*
X123136Y-13497D01*
X123160Y-13521D01*
X123207Y-13545D01*
X123302Y-13569D01*
X123421Y-13569D01*
X123517Y-13545D01*
X123564Y-13521D01*
X123588Y-13497D01*
X123612Y-13450D01*
X123612Y-13402D01*
X123588Y-13354D01*
X123564Y-13330D01*
X123517Y-13307D01*
X123421Y-13283D01*
X123302Y-13283D01*
X123207Y-13307D01*
X123160Y-13330D01*
X123136Y-13354D01*
X123112Y-13402D01*
X118252Y-20286D02*
X118014Y-20120D01*
X118252Y-20000D02*
X117752Y-20000D01*
X117752Y-20191D01*
X117776Y-20239D01*
X117800Y-20262D01*
X117847Y-20286D01*
X117919Y-20286D01*
X117966Y-20262D01*
X117990Y-20239D01*
X118014Y-20191D01*
X118014Y-20000D01*
X117966Y-20572D02*
X117942Y-20524D01*
X117919Y-20500D01*
X117871Y-20477D01*
X117847Y-20477D01*
X117800Y-20500D01*
X117776Y-20524D01*
X117752Y-20572D01*
X117752Y-20667D01*
X117776Y-20715D01*
X117800Y-20739D01*
X117847Y-20762D01*
X117871Y-20762D01*
X117919Y-20739D01*
X117942Y-20715D01*
X117966Y-20667D01*
X117966Y-20572D01*
X117990Y-20524D01*
X118014Y-20500D01*
X118061Y-20477D01*
X118157Y-20477D01*
X118204Y-20500D01*
X118228Y-20524D01*
X118252Y-20572D01*
X118252Y-20667D01*
X118228Y-20715D01*
X118204Y-20739D01*
X118157Y-20762D01*
X118061Y-20762D01*
X118014Y-20739D01*
X117990Y-20715D01*
X117966Y-20667D01*
X122067Y-12272D02*
X122067Y-12581D01*
X122257Y-12415D01*
X122257Y-12486D01*
X122281Y-12534D01*
X122305Y-12557D01*
X122353Y-12581D01*
X122472Y-12581D01*
X122519Y-12557D01*
X122543Y-12534D01*
X122567Y-12486D01*
X122567Y-12343D01*
X122543Y-12295D01*
X122519Y-12272D01*
X122067Y-12748D02*
X122067Y-13057D01*
X122257Y-12891D01*
X122257Y-12962D01*
X122281Y-13010D01*
X122305Y-13034D01*
X122353Y-13057D01*
X122472Y-13057D01*
X122519Y-13034D01*
X122543Y-13010D01*
X122567Y-12962D01*
X122567Y-12819D01*
X122543Y-12772D01*
X122519Y-12748D01*
X122067Y-13367D02*
X122067Y-13415D01*
X122091Y-13462D01*
X122115Y-13486D01*
X122162Y-13510D01*
X122257Y-13534D01*
X122376Y-13534D01*
X122472Y-13510D01*
X122519Y-13486D01*
X122543Y-13462D01*
X122567Y-13415D01*
X122567Y-13367D01*
X122543Y-13319D01*
X122519Y-13295D01*
X122472Y-13272D01*
X122376Y-13248D01*
X122257Y-13248D01*
X122162Y-13272D01*
X122115Y-13295D01*
X122091Y-13319D01*
X122067Y-13367D01*
X116052Y-20286D02*
X115814Y-20120D01*
X116052Y-20000D02*
X115552Y-20000D01*
X115552Y-20191D01*
X115576Y-20239D01*
X115600Y-20262D01*
X115647Y-20286D01*
X115719Y-20286D01*
X115766Y-20262D01*
X115790Y-20239D01*
X115814Y-20191D01*
X115814Y-20000D01*
X116052Y-20524D02*
X116052Y-20620D01*
X116028Y-20667D01*
X116004Y-20691D01*
X115933Y-20739D01*
X115838Y-20762D01*
X115647Y-20762D01*
X115600Y-20739D01*
X115576Y-20715D01*
X115552Y-20667D01*
X115552Y-20572D01*
X115576Y-20524D01*
X115600Y-20500D01*
X115647Y-20477D01*
X115766Y-20477D01*
X115814Y-20500D01*
X115838Y-20524D01*
X115861Y-20572D01*
X115861Y-20667D01*
X115838Y-20715D01*
X115814Y-20739D01*
X115766Y-20762D01*
X121077Y-12292D02*
X121077Y-12601D01*
X121267Y-12435D01*
X121267Y-12506D01*
X121291Y-12554D01*
X121315Y-12577D01*
X121363Y-12601D01*
X121482Y-12601D01*
X121529Y-12577D01*
X121553Y-12554D01*
X121577Y-12506D01*
X121577Y-12363D01*
X121553Y-12315D01*
X121529Y-12292D01*
X121077Y-12768D02*
X121077Y-13077D01*
X121267Y-12911D01*
X121267Y-12982D01*
X121291Y-13030D01*
X121315Y-13054D01*
X121363Y-13077D01*
X121482Y-13077D01*
X121529Y-13054D01*
X121553Y-13030D01*
X121577Y-12982D01*
X121577Y-12839D01*
X121553Y-12792D01*
X121529Y-12768D01*
X121077Y-13387D02*
X121077Y-13435D01*
X121101Y-13482D01*
X121125Y-13506D01*
X121172Y-13530D01*
X121267Y-13554D01*
X121386Y-13554D01*
X121482Y-13530D01*
X121529Y-13506D01*
X121553Y-13482D01*
X121577Y-13435D01*
X121577Y-13387D01*
X121553Y-13339D01*
X121529Y-13315D01*
X121482Y-13292D01*
X121386Y-13268D01*
X121267Y-13268D01*
X121172Y-13292D01*
X121125Y-13315D01*
X121101Y-13339D01*
X121077Y-13387D01*
X144855Y-46002D02*
X144855Y-46407D01*
X144832Y-46454D01*
X144808Y-46478D01*
X144760Y-46502D01*
X144665Y-46502D01*
X144617Y-46478D01*
X144594Y-46454D01*
X144570Y-46407D01*
X144570Y-46002D01*
X144260Y-46216D02*
X144308Y-46192D01*
X144332Y-46169D01*
X144355Y-46121D01*
X144355Y-46097D01*
X144332Y-46050D01*
X144308Y-46026D01*
X144260Y-46002D01*
X144165Y-46002D01*
X144117Y-46026D01*
X144094Y-46050D01*
X144070Y-46097D01*
X144070Y-46121D01*
X144094Y-46169D01*
X144117Y-46192D01*
X144165Y-46216D01*
X144260Y-46216D01*
X144308Y-46240D01*
X144332Y-46264D01*
X144355Y-46311D01*
X144355Y-46407D01*
X144332Y-46454D01*
X144308Y-46478D01*
X144260Y-46502D01*
X144165Y-46502D01*
X144117Y-46478D01*
X144094Y-46454D01*
X144070Y-46407D01*
X144070Y-46311D01*
X144094Y-46264D01*
X144117Y-46240D01*
X144165Y-46216D01*
X143260Y-43202D02*
X142927Y-43202D01*
X143141Y-43702D01*
X142522Y-43369D02*
X142522Y-43702D01*
X142641Y-43178D02*
X142760Y-43535D01*
X142451Y-43535D01*
X142022Y-43702D02*
X142260Y-43702D01*
X142260Y-43202D01*
X141927Y-43202D02*
X141760Y-43702D01*
X141594Y-43202D01*
X141141Y-43654D02*
X141165Y-43678D01*
X141236Y-43702D01*
X141284Y-43702D01*
X141355Y-43678D01*
X141403Y-43630D01*
X141427Y-43583D01*
X141451Y-43488D01*
X141451Y-43416D01*
X141427Y-43321D01*
X141403Y-43273D01*
X141355Y-43226D01*
X141284Y-43202D01*
X141236Y-43202D01*
X141165Y-43226D01*
X141141Y-43250D01*
X140951Y-43250D02*
X140927Y-43226D01*
X140879Y-43202D01*
X140760Y-43202D01*
X140713Y-43226D01*
X140689Y-43250D01*
X140665Y-43297D01*
X140665Y-43345D01*
X140689Y-43416D01*
X140975Y-43702D01*
X140665Y-43702D01*
X140236Y-43369D02*
X140236Y-43702D01*
X140355Y-43178D02*
X140475Y-43535D01*
X140165Y-43535D01*
X139736Y-43202D02*
X139975Y-43202D01*
X139998Y-43440D01*
X139975Y-43416D01*
X139927Y-43392D01*
X139808Y-43392D01*
X139760Y-43416D01*
X139736Y-43440D01*
X139713Y-43488D01*
X139713Y-43607D01*
X139736Y-43654D01*
X139760Y-43678D01*
X139808Y-43702D01*
X139927Y-43702D01*
X139975Y-43678D01*
X139998Y-43654D01*
X168739Y-47547D02*
X168739Y-47952D01*
X168762Y-47999D01*
X168786Y-48023D01*
X168834Y-48047D01*
X168929Y-48047D01*
X168977Y-48023D01*
X169000Y-47999D01*
X169024Y-47952D01*
X169024Y-47547D01*
X169286Y-48047D02*
X169381Y-48047D01*
X169429Y-48023D01*
X169453Y-47999D01*
X169500Y-47928D01*
X169524Y-47833D01*
X169524Y-47642D01*
X169500Y-47595D01*
X169477Y-47571D01*
X169429Y-47547D01*
X169334Y-47547D01*
X169286Y-47571D01*
X169262Y-47595D01*
X169239Y-47642D01*
X169239Y-47761D01*
X169262Y-47809D01*
X169286Y-47833D01*
X169334Y-47856D01*
X169429Y-47856D01*
X169477Y-47833D01*
X169500Y-47809D01*
X169524Y-47761D01*
X170380Y-47002D02*
X170380Y-46502D01*
X170547Y-46859D01*
X170714Y-46502D01*
X170714Y-47002D01*
X170928Y-46550D02*
X170952Y-46526D01*
X171000Y-46502D01*
X171119Y-46502D01*
X171166Y-46526D01*
X171190Y-46550D01*
X171214Y-46597D01*
X171214Y-46645D01*
X171190Y-46716D01*
X170904Y-47002D01*
X171214Y-47002D01*
X171666Y-46502D02*
X171428Y-46502D01*
X171404Y-46740D01*
X171428Y-46716D01*
X171476Y-46692D01*
X171595Y-46692D01*
X171642Y-46716D01*
X171666Y-46740D01*
X171690Y-46788D01*
X171690Y-46907D01*
X171666Y-46954D01*
X171642Y-46978D01*
X171595Y-47002D01*
X171476Y-47002D01*
X171428Y-46978D01*
X171404Y-46954D01*
X171904Y-47002D02*
X171904Y-46502D01*
X172095Y-46502D01*
X172142Y-46526D01*
X172166Y-46550D01*
X172190Y-46597D01*
X172190Y-46669D01*
X172166Y-46716D01*
X172142Y-46740D01*
X172095Y-46764D01*
X171904Y-46764D01*
X172476Y-46716D02*
X172428Y-46692D01*
X172404Y-46669D01*
X172380Y-46621D01*
X172380Y-46597D01*
X172404Y-46550D01*
X172428Y-46526D01*
X172476Y-46502D01*
X172571Y-46502D01*
X172619Y-46526D01*
X172642Y-46550D01*
X172666Y-46597D01*
X172666Y-46621D01*
X172642Y-46669D01*
X172619Y-46692D01*
X172571Y-46716D01*
X172476Y-46716D01*
X172428Y-46740D01*
X172404Y-46764D01*
X172380Y-46811D01*
X172380Y-46907D01*
X172404Y-46954D01*
X172428Y-46978D01*
X172476Y-47002D01*
X172571Y-47002D01*
X172619Y-46978D01*
X172642Y-46954D01*
X172666Y-46907D01*
X172666Y-46811D01*
X172642Y-46764D01*
X172619Y-46740D01*
X172571Y-46716D01*
X172976Y-46502D02*
X173023Y-46502D01*
X173071Y-46526D01*
X173095Y-46550D01*
X173119Y-46597D01*
X173142Y-46692D01*
X173142Y-46811D01*
X173119Y-46907D01*
X173095Y-46954D01*
X173071Y-46978D01*
X173023Y-47002D01*
X172976Y-47002D01*
X172928Y-46978D01*
X172904Y-46954D01*
X172880Y-46907D01*
X172857Y-46811D01*
X172857Y-46692D01*
X172880Y-46597D01*
X172904Y-46550D01*
X172928Y-46526D01*
X172976Y-46502D01*
M02*
