G04 (created by PCBNEW (2013-07-07 BZR 4022)-stable) date 11/3/2014 10:36:44 PM*
%MOIN*%
G04 Gerber Fmt 3.4, Leading zero omitted, Abs format*
%FSLAX34Y34*%
G01*
G70*
G90*
G04 APERTURE LIST*
%ADD10C,0.00590551*%
%ADD11R,0.13X0.35*%
%ADD12R,0.09X0.35*%
%ADD13R,0.08X0.08*%
%ADD14C,0.08*%
%ADD15C,0.075*%
%ADD16R,0.036X0.07*%
%ADD17R,0.075X0.075*%
%ADD18R,0.082X0.11*%
%ADD19O,0.082X0.11*%
%ADD20R,0.079X0.0711*%
%ADD21R,0.0711X0.079*%
%ADD22R,0.0436X0.1066*%
%ADD23C,0.18*%
%ADD24C,0.118425*%
%ADD25C,0.0908661*%
G04 APERTURE END LIST*
G54D10*
G54D11*
X82700Y-67150D03*
G54D12*
X84150Y-67150D03*
X85400Y-67150D03*
X86650Y-67150D03*
X87900Y-67150D03*
X89150Y-67150D03*
X90400Y-67150D03*
X91650Y-67150D03*
X92900Y-67150D03*
X94150Y-67150D03*
X95400Y-67150D03*
X96650Y-67150D03*
X97900Y-67150D03*
X99150Y-67150D03*
X100400Y-67150D03*
X101650Y-67150D03*
X102900Y-67150D03*
X104150Y-67150D03*
X105400Y-67150D03*
X106650Y-67150D03*
X107900Y-67150D03*
X109150Y-67150D03*
X110400Y-67150D03*
X111650Y-67150D03*
X112900Y-67150D03*
X114150Y-67150D03*
X115400Y-67150D03*
X116650Y-67150D03*
X117900Y-67150D03*
X119150Y-67150D03*
X120400Y-67150D03*
X121650Y-67150D03*
X122900Y-67150D03*
X124150Y-67150D03*
X125400Y-67150D03*
X126650Y-67150D03*
X127900Y-67150D03*
X129150Y-67150D03*
X130400Y-67150D03*
X131650Y-67150D03*
X132900Y-67150D03*
X134150Y-67150D03*
X135400Y-67150D03*
X136650Y-67150D03*
X137900Y-67150D03*
X139150Y-67150D03*
X140400Y-67150D03*
X141650Y-67150D03*
X142900Y-67150D03*
G54D11*
X144350Y-67150D03*
G54D13*
X56500Y-33440D03*
G54D14*
X56500Y-32440D03*
G54D13*
X54560Y-33740D03*
G54D14*
X54560Y-34740D03*
G54D13*
X53520Y-36290D03*
G54D14*
X53520Y-37290D03*
G54D13*
X52780Y-32860D03*
G54D14*
X53780Y-32860D03*
G54D15*
X93800Y-18800D03*
X93800Y-16800D03*
X96800Y-18800D03*
X96800Y-16800D03*
G54D16*
X124500Y-21850D03*
X124750Y-21850D03*
X125010Y-21850D03*
X125270Y-21850D03*
X125520Y-21850D03*
X125780Y-21850D03*
X126040Y-21850D03*
X126290Y-21850D03*
X126550Y-21850D03*
X126800Y-21850D03*
X126800Y-23950D03*
X126550Y-23950D03*
X126290Y-23950D03*
X126040Y-23950D03*
X125780Y-23950D03*
X125520Y-23950D03*
X125270Y-23950D03*
X125010Y-23950D03*
X124750Y-23950D03*
X124500Y-23950D03*
G54D13*
X83650Y-17350D03*
G54D14*
X83650Y-18350D03*
X82650Y-17350D03*
X82650Y-18350D03*
X81650Y-17350D03*
X81650Y-18350D03*
X80650Y-17350D03*
X80650Y-18350D03*
X79650Y-17350D03*
X79650Y-18350D03*
G54D13*
X83050Y-28400D03*
G54D14*
X84050Y-28400D03*
X83050Y-29400D03*
X84050Y-29400D03*
X83050Y-30400D03*
X84050Y-30400D03*
G54D13*
X59640Y-34670D03*
G54D14*
X59640Y-35670D03*
G54D13*
X56580Y-36240D03*
G54D14*
X55580Y-36240D03*
G54D17*
X159000Y-31300D03*
G54D15*
X160000Y-31300D03*
X161000Y-31300D03*
X162000Y-31300D03*
X162000Y-28300D03*
X161000Y-28300D03*
X160000Y-28300D03*
X159000Y-28300D03*
G54D18*
X72800Y-27100D03*
G54D19*
X73800Y-27100D03*
X74800Y-27100D03*
X75800Y-27100D03*
X76800Y-27100D03*
X77800Y-27100D03*
X78800Y-27100D03*
X78800Y-24100D03*
X77800Y-24100D03*
X76800Y-24100D03*
X75800Y-24100D03*
X74800Y-24100D03*
X73800Y-24100D03*
X72800Y-24100D03*
G54D15*
X71350Y-26550D03*
X71350Y-24550D03*
G54D13*
X77250Y-61550D03*
G54D14*
X77250Y-62550D03*
G54D13*
X77300Y-56650D03*
G54D14*
X77300Y-55650D03*
G54D13*
X75100Y-49200D03*
G54D14*
X75100Y-48200D03*
G54D13*
X72150Y-48650D03*
G54D14*
X71150Y-48650D03*
G54D20*
X79650Y-20224D03*
X79650Y-19476D03*
X81650Y-20224D03*
X81650Y-19476D03*
X82650Y-20224D03*
X82650Y-19476D03*
G54D21*
X111724Y-34150D03*
X110976Y-34150D03*
G54D20*
X111200Y-19374D03*
X111200Y-18626D03*
X116400Y-29226D03*
X116400Y-29974D03*
G54D21*
X116874Y-33950D03*
X116126Y-33950D03*
G54D20*
X111050Y-29226D03*
X111050Y-29974D03*
X108900Y-19374D03*
X108900Y-18626D03*
X113500Y-19374D03*
X113500Y-18626D03*
G54D21*
X84574Y-51050D03*
X83826Y-51050D03*
G54D20*
X113200Y-33824D03*
X113200Y-33076D03*
X113500Y-29176D03*
X113500Y-29924D03*
G54D22*
X117550Y-46739D03*
X118050Y-46739D03*
X118550Y-46739D03*
X119050Y-46739D03*
X119550Y-46739D03*
X120050Y-46739D03*
X120550Y-46739D03*
X121050Y-46739D03*
X121550Y-46739D03*
X122050Y-46739D03*
X122050Y-50361D03*
X121550Y-50361D03*
X121050Y-50361D03*
X120550Y-50361D03*
X120050Y-50361D03*
X119550Y-50361D03*
X119050Y-50361D03*
X118550Y-50361D03*
X118050Y-50361D03*
X117550Y-50361D03*
X100400Y-46739D03*
X100900Y-46739D03*
X101400Y-46739D03*
X101900Y-46739D03*
X102400Y-46739D03*
X102900Y-46739D03*
X103400Y-46739D03*
X103900Y-46739D03*
X104400Y-46739D03*
X104900Y-46739D03*
X104900Y-50361D03*
X104400Y-50361D03*
X103900Y-50361D03*
X103400Y-50361D03*
X102900Y-50361D03*
X102400Y-50361D03*
X101900Y-50361D03*
X101400Y-50361D03*
X100900Y-50361D03*
X100400Y-50361D03*
X124750Y-46739D03*
X125250Y-46739D03*
X125750Y-46739D03*
X126250Y-46739D03*
X126750Y-46739D03*
X127250Y-46739D03*
X127750Y-46739D03*
X128250Y-46739D03*
X128750Y-46739D03*
X129250Y-46739D03*
X129250Y-50361D03*
X128750Y-50361D03*
X128250Y-50361D03*
X127750Y-50361D03*
X127250Y-50361D03*
X126750Y-50361D03*
X126250Y-50361D03*
X125750Y-50361D03*
X125250Y-50361D03*
X124750Y-50361D03*
G54D21*
X159851Y-32975D03*
X160599Y-32975D03*
G54D20*
X126450Y-19126D03*
X126450Y-19874D03*
X125550Y-19126D03*
X125550Y-19874D03*
X127350Y-19126D03*
X127350Y-19874D03*
G54D18*
X72750Y-33300D03*
G54D19*
X73750Y-33300D03*
X74750Y-33300D03*
X75750Y-33300D03*
X76750Y-33300D03*
X77750Y-33300D03*
X78750Y-33300D03*
X78750Y-30300D03*
X77750Y-30300D03*
X76750Y-30300D03*
X75750Y-30300D03*
X74750Y-30300D03*
X73750Y-30300D03*
X72750Y-30300D03*
G54D15*
X71250Y-32800D03*
X71250Y-30800D03*
G54D23*
X164150Y-18150D03*
X69150Y-18150D03*
G54D17*
X88300Y-44600D03*
G54D15*
X89300Y-44600D03*
X90300Y-44600D03*
X91300Y-44600D03*
X92300Y-44600D03*
X93300Y-44600D03*
X94300Y-44600D03*
X95300Y-44600D03*
X96300Y-44600D03*
X97300Y-44600D03*
G54D18*
X159000Y-40300D03*
G54D19*
X160000Y-40300D03*
X161000Y-40300D03*
X162000Y-40300D03*
X162000Y-37300D03*
X161000Y-37300D03*
X160000Y-37300D03*
X159000Y-37300D03*
G54D24*
X156950Y-57450D03*
X156950Y-48450D03*
G54D21*
X161076Y-35400D03*
X161824Y-35400D03*
G54D25*
X161400Y-43940D03*
X161400Y-42759D03*
G54D13*
X134450Y-19250D03*
G54D14*
X134450Y-18250D03*
X139450Y-19250D03*
X135450Y-18250D03*
X140450Y-19250D03*
X136450Y-18250D03*
X141450Y-19250D03*
X137450Y-18250D03*
X142450Y-19250D03*
X138450Y-18250D03*
X143450Y-19250D03*
X139450Y-18250D03*
X144450Y-19250D03*
X140450Y-18250D03*
X145450Y-19250D03*
X141450Y-18250D03*
X146450Y-19250D03*
X142450Y-18250D03*
X147450Y-19250D03*
X143450Y-18250D03*
X148450Y-19250D03*
X144450Y-18250D03*
X149450Y-19250D03*
X145450Y-18250D03*
X146450Y-18250D03*
X150450Y-19250D03*
X147450Y-18250D03*
X149450Y-18250D03*
X150450Y-18250D03*
X151450Y-18250D03*
X152450Y-18250D03*
X151450Y-19250D03*
X152450Y-19250D03*
X135450Y-19250D03*
X136450Y-19250D03*
X137450Y-19250D03*
X138450Y-19250D03*
X153450Y-19250D03*
X153450Y-18250D03*
X148450Y-18250D03*
G54D15*
X154700Y-28200D03*
X154700Y-26200D03*
X99300Y-49500D03*
X99300Y-47500D03*
X114850Y-56850D03*
X114850Y-54850D03*
X93350Y-56850D03*
X93350Y-54850D03*
X147400Y-28200D03*
X147400Y-26200D03*
X89300Y-37650D03*
X89300Y-39650D03*
X143600Y-56850D03*
X143600Y-54850D03*
X116450Y-49500D03*
X116450Y-47500D03*
X123650Y-49500D03*
X123650Y-47500D03*
X121900Y-56850D03*
X121900Y-54850D03*
X95050Y-54850D03*
X95050Y-56850D03*
X129350Y-54850D03*
X129350Y-56850D03*
G54D20*
X120300Y-19374D03*
X120300Y-18626D03*
X118000Y-19374D03*
X118000Y-18626D03*
X115800Y-19374D03*
X115800Y-18626D03*
G54D17*
X144970Y-35750D03*
G54D15*
X145970Y-35750D03*
X146970Y-35750D03*
X147970Y-35750D03*
X148970Y-35750D03*
X149970Y-35750D03*
X150970Y-35750D03*
X151970Y-35750D03*
X152970Y-35750D03*
X153970Y-35750D03*
G54D22*
X143730Y-45391D03*
X143230Y-45391D03*
X142730Y-45391D03*
X142230Y-45391D03*
X141730Y-45391D03*
X141230Y-45391D03*
X140730Y-45391D03*
X140230Y-45391D03*
X139730Y-45391D03*
X139230Y-45391D03*
X139230Y-41769D03*
X139730Y-41769D03*
X140230Y-41769D03*
X140730Y-41769D03*
X141230Y-41769D03*
X141730Y-41769D03*
X142230Y-41769D03*
X142730Y-41769D03*
X143230Y-41769D03*
X143730Y-41769D03*
G54D13*
X80880Y-42290D03*
G54D14*
X80880Y-41290D03*
G54D13*
X80880Y-37900D03*
G54D14*
X80880Y-38900D03*
M02*
