M48
;DRILL file {Pcbnew (2013-07-07 BZR 4022)-stable} date 24/3/2014 1:01:01 AM
;FORMAT={-:-/ absolute / metric / decimal}
FMAT,2
METRIC,TZ
T1C0.350
T2C0.635
T3C0.813
T4C1.016
T5C1.143
T6C3.048
%
G90
G05
M71
T1
X28.321Y-41.656
X29.337Y-44.323
X32.596Y-107.593
X33.126Y-108.32
X36.276Y-26.436
X38.587Y-69.275
X40.333Y-63.553
X42.164Y-86.25
X42.378Y-58.088
X42.624Y-57.284
X43.752Y-26.235
X43.752Y-138.308
X44.577Y-137.16
X45.169Y-122.938
X45.447Y-48.244
X46.802Y-49.43
X47.53Y-57.961
X47.773Y-47.404
X48.737Y-26.739
X49.031Y-96.725
X49.22Y-52.191
X50.257Y-83.618
X50.292Y-32.512
X50.673Y-37.084
X51.345Y-45.611
X51.698Y-26.679
X51.844Y-58.787
X51.917Y-48.91
X52.993Y-46.761
X53.182Y-120.718
X53.418Y-57.213
X53.735Y-46.788
X56.29Y-67.872
X57.404Y-32.512
X57.732Y-41.392
X59.931Y-69.378
X61.198Y-91.093
X61.368Y-75.542
X61.595Y-35.179
X61.808Y-77.897
X62.559Y-77.242
X62.564Y-82.239
X62.975Y-65.35
X63.17Y-109.07
X63.461Y-56.928
X63.545Y-98.637
X64.257Y-121.92
X64.516Y-32.512
X66.791Y-27.389
X67.912Y-83.361
X67.92Y-119.164
X68.371Y-110.476
X68.931Y-101.428
X69.566Y-103.814
X70.157Y-121.885
X70.267Y-102.566
X70.315Y-48.394
X70.33Y-91.99
X70.362Y-126.84
X70.625Y-123.691
X70.814Y-61.116
X71.007Y-52.229
X72.91Y-26.615
X74.118Y-136.751
X75.159Y-115.164
X75.739Y-60.848
X75.824Y-30.762
X76.203Y-91.21
X76.58Y-120.024
X76.822Y-110.617
X76.872Y-123.968
X78.475Y-27.414
X78.643Y-129.466
X78.643Y-135.647
X78.856Y-57.589
X78.913Y-53.367
X79.003Y-47.271
X79.309Y-96.062
X79.507Y-52.109
X80.395Y-48.787
X80.685Y-69.599
X80.707Y-143.886
X80.968Y-131.773
X81.254Y-91.292
X81.269Y-120.831
X81.293Y-133.564
X81.661Y-41.402
X82.296Y-44.45
X82.499Y-120.459
X83.209Y-56.178
X83.259Y-110.946
X83.412Y-104.067
X83.781Y-111.498
X84.428Y-136.646
X84.478Y-97.565
X85.3Y-48.96
X85.727Y-63.905
X86.857Y-28.364
X87.851Y-147.367
X88.134Y-97.855
X88.364Y-111.17
X88.922Y-147.991
X89.303Y-132.388
X89.377Y-99.048
X89.51Y-83.74
X90.167Y-134.827
X90.379Y-71.212
X90.436Y-26.615
X90.527Y-98.309
X91.093Y-115.037
X91.321Y-101.456
X91.44Y-138.69
X91.474Y-87.72
X91.514Y-102.386
X91.611Y-86.271
X91.898Y-96.062
X92.063Y-141.765
X92.613Y-132.388
X92.93Y-48.979
X93.662Y-146.057
X93.706Y-54.692
X93.711Y-88.523
X94.15Y-140.479
X94.254Y-55.985
X94.267Y-78.546
X94.289Y-55.265
X94.301Y-48.663
X94.392Y-85.21
X95.Y-57.589
X95.17Y-91.538
X95.275Y-96.062
X95.623Y-26.708
X95.654Y-57.223
X95.932Y-98.12
X96.731Y-97.738
X96.834Y-102.638
X97.016Y-93.831
X97.135Y-90.883
X97.626Y-75.231
X97.717Y-81.589
X97.81Y-73.032
X97.817Y-147.753
X97.82Y-64.903
X97.976Y-68.727
X98.725Y-93.19
X98.791Y-98.463
X99.248Y-56.389
X99.645Y-73.111
X99.663Y-96.026
X100.177Y-98.436
X100.388Y-134.998
X100.847Y-26.435
X101.053Y-148.008
X101.099Y-132.949
X101.611Y-98.278
X101.631Y-73.747
X103.753Y-102.191
X103.901Y-109.342
X104.06Y-104.089
X104.324Y-30.781
X104.473Y-102.229
X106.057Y-126.619
X106.191Y-53.817
X106.974Y-28.575
X106.998Y-51.823
X107.042Y-102.569
X107.061Y-75.184
X107.823Y-69.215
X108.449Y-105.656
X108.458Y-55.753
X108.547Y-59.828
X108.55Y-41.392
X108.642Y-103.453
X108.938Y-104.173
X108.966Y-62.738
X111.76Y-48.895
X112.645Y-95.823
X112.649Y-46.863
X112.709Y-103.064
X113.632Y-140.792
X113.634Y-140.046
X113.919Y-62.611
X114.009Y-119.086
X115.435Y-73.697
X115.475Y-80.209
X115.809Y-53.408
X115.941Y-76.781
X116.363Y-90.881
X116.879Y-125.989
X117.024Y-130.236
X117.746Y-87.487
X118.073Y-75.871
X118.499Y-103.762
X118.562Y-108.151
X118.972Y-101.636
X118.992Y-41.862
X119.Y-90.374
X119.312Y-88.281
X119.341Y-98.667
X119.416Y-95.603
X119.763Y-147.988
X120.519Y-115.57
X121.865Y-86.97
X122.627Y-87.084
X122.872Y-86.121
X122.919Y-80.417
X123.044Y-146.217
X123.264Y-97.569
X123.365Y-103.09
X123.503Y-90.709
X124.135Y-41.392
X124.847Y-78.596
X124.928Y-75.315
X125.283Y-88.899
X125.897Y-55.566
X125.935Y-115.847
X125.995Y-148.466
X126.089Y-129.447
X126.146Y-96.365
X126.252Y-134.395
X126.706Y-101.701
X126.738Y-59.015
X126.929Y-117.541
X127.591Y-58.572
X128.015Y-76.927
X128.116Y-88.24
X128.423Y-36.327
X128.603Y-33.301
X129.051Y-38.081
X129.863Y-80.201
X129.979Y-57.622
X129.999Y-79.227
X130.011Y-30.899
X130.025Y-73.977
X130.209Y-96.898
X130.27Y-55.539
X130.434Y-68.96
X130.523Y-69.772
X130.552Y-75.479
X130.741Y-58.868
X130.741Y-61.161
X130.794Y-74.283
X130.98Y-88.06
X133.489Y-93.057
X133.603Y-28.88
X133.914Y-76.748
X133.968Y-145.207
X133.987Y-39.8
X134.001Y-78.241
X134.115Y-38.685
X134.16Y-75.519
X134.245Y-41.17
X134.245Y-43.669
X134.435Y-144.349
X134.715Y-45.114
X135.038Y-37.81
X135.186Y-48.735
X135.315Y-47.133
X135.485Y-58.856
X135.639Y-36.389
X135.7Y-78.644
X135.954Y-45.114
X135.97Y-81.146
X135.977Y-123.397
X136.035Y-85.689
X136.044Y-133.364
X136.271Y-28.767
X136.425Y-38.09
X136.689Y-71.43
X136.773Y-72.181
X136.779Y-68.045
X136.912Y-34.474
X137.028Y-37.27
X137.053Y-144.923
X137.285Y-68.983
X137.408Y-37.95
X137.639Y-42.545
X137.643Y-74.66
X137.662Y-76.102
X137.665Y-79.114
X137.668Y-73.503
X138.196Y-55.11
X138.274Y-84.163
X138.933Y-84.803
X139.338Y-82.296
X139.963Y-138.867
X140.255Y-82.22
X141.034Y-71.48
X141.103Y-70.712
X141.151Y-30.203
X141.285Y-57.428
X141.76Y-33.101
X141.99Y-42.609
X141.996Y-29.994
X142.555Y-37.81
X142.605Y-70.245
X142.634Y-134.705
X142.731Y-71.568
X142.796Y-79.226
X143.151Y-61.743
X143.245Y-70.644
X143.283Y-64.324
X143.294Y-77.813
X143.331Y-33.139
X143.631Y-55.749
X143.678Y-75.443
X143.862Y-61.371
X144.029Y-88.608
X144.327Y-98.547
X145.306Y-148.12
X145.717Y-53.775
X146.012Y-61.16
X146.654Y-74.168
X146.657Y-65.286
X146.811Y-33.498
X146.814Y-34.552
X146.909Y-56.083
X147.419Y-129.969
X147.757Y-148.782
X148.098Y-58.675
X148.497Y-61.086
X148.788Y-53.057
X149.013Y-66.617
X149.156Y-59.396
X149.197Y-128.317
X149.453Y-64.26
X149.493Y-72.939
X149.731Y-60.558
X150.026Y-67.288
X150.276Y-68.959
X150.296Y-51.549
X150.422Y-45.953
X150.749Y-148.844
X151.119Y-31.847
X151.496Y-68.005
X152.356Y-49.67
X152.365Y-46.782
X153.108Y-48.88
X153.627Y-49.421
X153.718Y-66.546
X153.728Y-55.133
X153.972Y-148.605
X154.078Y-27.543
X154.768Y-72.631
X155.22Y-144.932
X155.736Y-78.613
X155.901Y-46.142
X155.901Y-52.398
X156.017Y-103.608
X156.203Y-115.774
X156.729Y-148.004
X156.908Y-44.724
X157.433Y-47.273
X157.63Y-54.663
X157.655Y-37.776
X158.375Y-37.753
X158.394Y-77.859
X158.394Y-85.085
X158.405Y-43.161
X158.544Y-143.024
X158.574Y-44.203
X158.702Y-75.498
X158.777Y-41.24
X158.858Y-68.005
X158.885Y-38.927
X158.908Y-39.648
X158.933Y-34.704
X158.959Y-66.976
X159.101Y-142.429
X159.101Y-33.437
X159.109Y-42.015
X159.218Y-32.508
X159.358Y-71.212
X159.374Y-80.843
X159.381Y-73.697
X159.387Y-69.551
X159.399Y-78.504
X159.403Y-71.959
X159.404Y-75.824
X159.412Y-79.585
X159.417Y-143.619
X159.807Y-104.73
X160.174Y-143.84
X160.176Y-85.416
X161.418Y-141.268
X162.676Y-38.256
X162.696Y-85.782
X163.186Y-135.905
X163.187Y-74.23
X163.195Y-98.468
X163.202Y-62.218
X163.214Y-69.215
X163.367Y-88.608
X163.378Y-86.123
X163.484Y-58.799
X163.952Y-55.693
X163.97Y-70.461
X164.042Y-143.869
X164.695Y-66.599
X164.8Y-129.168
X165.215Y-59.821
X165.255Y-52.62
X165.597Y-74.385
X166.021Y-62.044
X166.553Y-148.48
X166.965Y-56.991
X167.679Y-58.794
X168.124Y-57.542
X169.037Y-76.711
X169.1Y-27.038
X169.182Y-72.112
X169.259Y-30.169
X169.34Y-74.28
X169.341Y-69.132
X169.629Y-24.939
X169.717Y-64.351
X169.737Y-101.905
X169.737Y-110.814
X169.95Y-44.47
X169.971Y-60.393
X170.078Y-67.975
X170.083Y-43.135
X170.097Y-93.186
X170.171Y-71.365
X170.353Y-58.616
X170.553Y-43.855
X170.6Y-34.33
X170.727Y-69.663
X170.772Y-36.276
X170.855Y-76.079
X170.869Y-70.587
X170.927Y-67.975
X171.023Y-46.31
X171.023Y-48.123
X171.023Y-48.86
X171.194Y-67.216
X171.218Y-73.566
X171.561Y-72.886
X171.596Y-34.626
X171.635Y-75.432
X171.888Y-78.633
X172.119Y-68.629
X172.189Y-38.977
X172.196Y-41.312
X172.234Y-79.324
X172.25Y-57.561
X172.277Y-38.137
X173.003Y-60.725
X173.512Y-54.298
X173.929Y-29.714
X174.354Y-96.062
X175.309Y-112.931
X175.427Y-49.714
X175.466Y-70.605
X175.633Y-38.256
X175.985Y-40.806
X176.Y-50.462
X176.149Y-110.236
X176.318Y-75.527
X176.417Y-42.106
X176.455Y-72.112
X176.631Y-67.499
X177.656Y-69.488
X177.749Y-40.421
X177.749Y-44.421
X177.853Y-49.846
X178.206Y-63.758
X178.235Y-62.096
X178.588Y-52.85
X178.697Y-75.561
X178.79Y-48.927
X179.088Y-54.511
X179.528Y-142.616
X179.809Y-54.618
X179.832Y-106.553
X180.249Y-52.401
X180.721Y-103.124
X181.356Y-83.566
X181.474Y-56.413
X181.833Y-40.65
X181.886Y-43.163
X181.964Y-79.362
X181.966Y-44.57
X181.984Y-42.076
X182.Y-81.209
X182.157Y-76.614
X182.212Y-74.381
X182.321Y-50.128
X182.625Y-37.122
X182.625Y-47.084
X182.78Y-94.969
X182.94Y-50.528
X182.941Y-32.15
X183.011Y-71.912
X183.047Y-147.882
X183.222Y-143.447
X183.316Y-36.422
X183.316Y-38.907
X183.316Y-41.392
X183.316Y-43.895
X183.316Y-46.407
X183.316Y-48.92
X183.316Y-73.697
X183.316Y-78.689
X183.482Y-71.212
X183.576Y-66.058
X183.717Y-50.382
X184.039Y-78.003
X184.045Y-51.772
X184.064Y-39.12
X184.064Y-44.45
X184.32Y-63.956
X185.656Y-128.368
X185.817Y-66.781
X185.928Y-83.185
X187.506Y-61.032
X188.264Y-140.756
X188.3Y-110.569
X188.348Y-113.627
X188.878Y-146.337
X189.284Y-54.863
X189.796Y-110.505
X190.792Y-129.423
X190.8Y-58.873
X191.232Y-31.479
X191.783Y-69.695
X192.354Y-68.995
X192.848Y-138.897
X193.272Y-53.103
X193.284Y-39.505
X193.342Y-68.905
X194.07Y-39.419
X194.394Y-114.214
X194.566Y-64.799
X194.584Y-76.182
X194.596Y-76.929
X195.378Y-139.965
X195.526Y-57.166
X196.977Y-146.558
X197.081Y-54.433
X198.232Y-85.42
X198.701Y-57.636
X198.744Y-38.413
X198.881Y-54.842
X199.439Y-145.243
X200.564Y-30.114
X200.816Y-38.985
X200.821Y-34.453
X200.873Y-147.5
X201.447Y-27.33
X202.705Y-27.292
X202.964Y-58.853
X203.128Y-51.522
X203.15Y-138.101
X203.408Y-60.626
X203.962Y-77.978
X204.073Y-67.933
X204.08Y-26.578
X204.109Y-75.444
X204.261Y-72.944
X204.265Y-35.625
X204.277Y-69.124
X204.278Y-76.782
X204.462Y-78.591
X204.555Y-141.01
X204.635Y-25.171
X204.8Y-71.169
X204.84Y-61.253
X205.297Y-79.324
X205.395Y-70.593
X205.429Y-80.324
X205.449Y-43.25
X205.557Y-36.992
X205.617Y-73.566
X205.677Y-69.519
X205.745Y-48.895
X205.745Y-76.182
X205.745Y-81.153
X205.831Y-44.408
X205.863Y-37.72
X205.89Y-62.468
X205.944Y-66.25
X206.397Y-68.18
X206.398Y-74.137
X206.522Y-54.544
X206.595Y-72.119
X206.902Y-141.01
X207.072Y-39.37
X207.095Y-55.071
X207.217Y-38.346
X207.246Y-45.82
X207.361Y-41.59
X207.393Y-66.029
X207.428Y-47.042
X207.428Y-71.628
X207.428Y-74.168
X207.476Y-87.972
X207.48Y-58.897
X207.717Y-53.398
X208.207Y-55.644
X208.238Y-146.484
X208.417Y-136.668
X208.592Y-26.782
X208.643Y-141.01
X209.855Y-85.251
X210.069Y-30.061
X210.574Y-32.843
X210.891Y-57.926
X211.156Y-30.868
X211.279Y-85.942
X211.785Y-29.975
X212.252Y-57.977
X212.36Y-55.22
X212.486Y-31.519
X212.539Y-35.537
X212.863Y-45.765
X212.911Y-81.751
X212.953Y-62.485
X212.953Y-66.029
X213.608Y-62.103
X213.742Y-34.062
X213.772Y-46.94
X215.256Y-57.53
X215.27Y-54.857
X216.893Y-48.184
X216.922Y-49.845
X216.954Y-57.059
X217.103Y-77.958
X217.109Y-65.563
X217.132Y-81.263
X217.327Y-79.73
X217.924Y-81.882
X218.103Y-31.748
X218.206Y-78.689
X218.364Y-76.182
X218.421Y-62.842
X218.468Y-40.775
X218.715Y-81.768
X218.9Y-76.874
X218.925Y-63.724
X218.955Y-49.19
X218.955Y-56.155
X219.027Y-104.864
X219.305Y-73.208
X219.54Y-74.803
X219.631Y-42.344
X219.775Y-71.927
X219.785Y-57.517
X219.824Y-60.753
X220.245Y-71.206
X220.715Y-69.427
X221.562Y-49.636
X221.702Y-39.907
X221.981Y-84.659
X222.155Y-120.749
X222.302Y-47.742
X222.322Y-127.853
X222.683Y-47.003
X222.824Y-121.527
X223.732Y-45.663
X225.683Y-43.895
X225.683Y-83.582
X226.253Y-43.13
X227.597Y-31.521
X228.166Y-117.924
X228.451Y-56.958
X228.479Y-63.241
X229.374Y-36.551
X229.683Y-64.812
X229.951Y-37.129
X230.001Y-66.849
X230.009Y-38.822
X230.009Y-68.541
X230.019Y-31.854
X230.093Y-41.852
X230.534Y-56.418
X231.351Y-59.024
X232.25Y-56.247
X232.569Y-85.712
X232.628Y-125.118
X232.731Y-61.102
X233.114Y-122.921
X233.16Y-144.157
X233.385Y-67.934
X234.528Y-60.546
X234.749Y-58.789
X234.788Y-70.69
X234.847Y-76.61
X234.903Y-35.514
X235.242Y-78.342
X235.304Y-80.055
X235.31Y-71.212
X235.368Y-60.556
X235.423Y-73.358
X235.49Y-85.802
X235.55Y-82.546
X235.764Y-78.838
X236.2Y-80.654
X236.287Y-73.931
X236.368Y-71.022
X237.273Y-56.054
X237.946Y-127.997
X237.993Y-55.584
X239.693Y-78.034
X240.022Y-35.625
X240.224Y-86.253
X240.525Y-57.12
X240.636Y-38.773
X240.636Y-140.719
X240.664Y-78.523
X240.705Y-47.249
X240.791Y-59.721
X240.894Y-73.526
X240.93Y-41.232
X240.988Y-44.054
X241.125Y-48.127
X241.165Y-48.847
X241.34Y-81.98
X241.415Y-64.737
X241.504Y-79.443
X241.684Y-76.109
X241.923Y-68.528
X242.033Y-57.12
X242.197Y-81.965
X242.247Y-37.692
X242.286Y-79.443
X242.354Y-67.906
X242.409Y-42.44
X242.409Y-44.953
X242.443Y-28.194
X242.589Y-74.722
X242.589Y-77.978
X242.783Y-72.209
X242.812Y-69.697
X243.086Y-60.823
X243.195Y-55.684
X244.945Y-88.385
X245.77Y-61.385
X246.321Y-59.466
X246.517Y-71.212
X246.567Y-68.761
X246.6Y-89.369
X246.785Y-86.044
X247.23Y-77.98
X247.389Y-59.666
X247.431Y-58.787
X247.671Y-65.51
X247.895Y-61.65
X248.05Y-32.456
X248.174Y-59.724
X248.183Y-60.629
X248.455Y-55.667
X248.601Y-63.54
X249.009Y-33.511
X249.049Y-65.273
X249.093Y-79.324
X250.263Y-55.917
X250.38Y-53.772
X250.605Y-108.487
X250.856Y-91.052
X251.154Y-88.608
X252.247Y-61.485
X252.593Y-71.402
X252.779Y-49.555
X252.842Y-68.708
X253.478Y-48.545
X253.962Y-47.944
X254.3Y-47.194
X254.839Y-83.614
X254.844Y-79.576
X255.547Y-43.773
X255.723Y-57.562
X255.775Y-123.583
X256.32Y-43.28
X256.384Y-68.632
X256.525Y-78.992
X258.269Y-113.457
X258.723Y-110.972
X259.193Y-81.153
T2
X53.962Y-94.412
X53.962Y-99.962
X75.73Y-95.529
X147.541Y-128.9
X171.887Y-80.429
X213.943Y-54.644
X240.94Y-80.374
T3
X25.4Y-55.88
X25.4Y-60.96
X25.4Y-68.58
X25.4Y-73.66
X25.4Y-93.98
X25.4Y-99.06
X25.4Y-106.68
X25.4Y-111.76
X30.48Y-50.419
X31.75Y-38.608
X31.75Y-46.228
X31.75Y-54.61
X31.75Y-62.23
X31.75Y-67.437
X31.75Y-75.057
X31.75Y-80.137
X31.75Y-87.757
X31.75Y-92.71
X31.75Y-100.33
X31.75Y-105.41
X31.75Y-113.03
X33.02Y-50.419
X34.29Y-38.608
X34.29Y-46.228
X34.29Y-54.61
X34.29Y-62.23
X34.29Y-67.437
X34.29Y-75.057
X34.29Y-80.137
X34.29Y-87.757
X34.29Y-92.71
X34.29Y-100.33
X34.29Y-105.41
X34.29Y-113.03
X35.56Y-50.419
X36.83Y-38.608
X36.83Y-46.228
X36.83Y-54.61
X36.83Y-62.23
X36.83Y-67.437
X36.83Y-75.057
X36.83Y-80.137
X36.83Y-87.757
X36.83Y-92.71
X36.83Y-100.33
X36.83Y-105.41
X36.83Y-113.03
X38.1Y-50.419
X39.37Y-38.608
X39.37Y-46.228
X39.37Y-54.61
X39.37Y-62.23
X39.37Y-67.437
X39.37Y-75.057
X39.37Y-80.137
X39.37Y-87.757
X39.37Y-92.71
X39.37Y-100.33
X39.37Y-105.41
X39.37Y-113.03
X40.64Y-50.419
X41.91Y-38.608
X41.91Y-46.228
X41.91Y-54.61
X41.91Y-62.23
X41.91Y-67.437
X41.91Y-75.057
X41.91Y-80.137
X41.91Y-87.757
X41.91Y-92.71
X41.91Y-100.33
X41.91Y-105.41
X41.91Y-113.03
X43.18Y-50.419
X44.45Y-38.608
X44.45Y-46.228
X44.45Y-54.61
X44.45Y-62.23
X44.45Y-67.437
X44.45Y-75.057
X44.45Y-80.137
X44.45Y-87.757
X44.45Y-92.71
X44.45Y-100.33
X44.45Y-105.41
X44.45Y-113.03
X45.72Y-50.419
X46.99Y-38.608
X46.99Y-46.228
X46.99Y-54.61
X46.99Y-62.23
X46.99Y-67.437
X46.99Y-75.057
X46.99Y-80.137
X46.99Y-87.757
X46.99Y-92.71
X46.99Y-100.33
X46.99Y-105.41
X46.99Y-113.03
X48.26Y-50.419
X49.022Y-139.319
X49.53Y-38.608
X49.53Y-46.228
X49.53Y-54.61
X49.53Y-62.23
X49.53Y-67.437
X49.53Y-75.057
X49.53Y-80.137
X49.53Y-87.757
X49.53Y-92.71
X49.53Y-100.33
X49.53Y-105.41
X49.53Y-113.03
X50.8Y-50.419
X51.562Y-139.319
X51.689Y-125.984
X52.07Y-105.41
X52.07Y-113.03
X53.34Y-50.419
X54.229Y-125.984
X54.61Y-105.41
X54.61Y-113.03
X57.023Y-38.608
X57.023Y-46.228
X57.023Y-50.419
X57.531Y-75.438
X57.531Y-77.978
X57.531Y-80.518
X57.531Y-83.058
X57.531Y-85.598
X57.531Y-88.138
X57.531Y-90.678
X57.531Y-93.218
X57.531Y-95.758
X57.531Y-98.298
X59.563Y-38.608
X59.563Y-46.228
X59.563Y-50.419
X62.103Y-38.608
X62.103Y-46.228
X62.103Y-50.419
X64.643Y-38.608
X64.643Y-46.228
X64.643Y-50.419
X66.04Y-56.007
X66.04Y-61.087
X66.04Y-68.58
X66.04Y-73.66
X66.04Y-81.28
X66.04Y-86.36
X66.04Y-93.98
X66.04Y-99.06
X66.04Y-106.68
X66.04Y-111.76
X66.04Y-119.38
X66.04Y-124.46
X66.04Y-132.08
X66.04Y-137.16
X67.183Y-38.608
X67.183Y-46.228
X67.183Y-50.419
X69.723Y-38.608
X69.723Y-46.228
X69.723Y-50.419
X72.263Y-38.608
X72.263Y-46.228
X72.263Y-50.419
X72.39Y-54.61
X72.39Y-62.23
X72.39Y-67.31
X72.39Y-74.93
X72.39Y-80.01
X72.39Y-87.63
X72.39Y-92.837
X72.39Y-100.457
X72.39Y-105.41
X72.39Y-113.03
X72.39Y-118.11
X72.39Y-125.73
X72.39Y-130.81
X72.39Y-138.43
X74.803Y-38.608
X74.803Y-46.228
X74.803Y-50.419
X74.93Y-54.61
X74.93Y-62.23
X74.93Y-67.31
X74.93Y-74.93
X74.93Y-80.01
X74.93Y-87.63
X74.93Y-92.837
X74.93Y-100.457
X74.93Y-105.41
X74.93Y-113.03
X74.93Y-118.11
X74.93Y-125.73
X74.93Y-130.81
X74.93Y-138.43
X77.343Y-50.419
X77.47Y-54.61
X77.47Y-62.23
X77.47Y-67.31
X77.47Y-74.93
X77.47Y-80.01
X77.47Y-87.63
X77.47Y-92.837
X77.47Y-100.457
X77.47Y-105.41
X77.47Y-113.03
X77.47Y-118.11
X77.47Y-125.73
X77.47Y-130.81
X77.47Y-138.43
X79.883Y-50.419
X80.01Y-54.61
X80.01Y-62.23
X80.01Y-67.31
X80.01Y-74.93
X80.01Y-80.01
X80.01Y-87.63
X80.01Y-92.837
X80.01Y-100.457
X80.01Y-105.41
X80.01Y-113.03
X80.01Y-118.11
X80.01Y-125.73
X80.01Y-130.81
X80.01Y-138.43
X82.042Y-38.608
X82.042Y-46.228
X82.55Y-54.61
X82.55Y-62.23
X82.55Y-67.31
X82.55Y-74.93
X82.55Y-80.01
X82.55Y-87.63
X82.55Y-92.837
X82.55Y-100.457
X82.55Y-105.41
X82.55Y-113.03
X82.55Y-118.11
X82.55Y-125.73
X82.55Y-130.81
X82.55Y-138.43
X83.566Y-50.419
X84.582Y-38.608
X84.582Y-46.228
X85.09Y-54.61
X85.09Y-62.23
X85.09Y-67.31
X85.09Y-74.93
X85.09Y-80.01
X85.09Y-87.63
X85.09Y-92.837
X85.09Y-100.457
X85.09Y-105.41
X85.09Y-113.03
X85.09Y-118.11
X85.09Y-125.73
X85.09Y-130.81
X85.09Y-138.43
X86.106Y-50.419
X87.122Y-38.608
X87.122Y-46.228
X87.63Y-54.61
X87.63Y-62.23
X87.63Y-67.31
X87.63Y-74.93
X87.63Y-80.01
X87.63Y-87.63
X87.63Y-92.837
X87.63Y-100.457
X87.63Y-105.41
X87.63Y-113.03
X87.63Y-118.11
X87.63Y-125.73
X87.63Y-130.81
X87.63Y-138.43
X88.646Y-50.419
X89.662Y-38.608
X89.662Y-46.228
X90.17Y-80.01
X90.17Y-87.63
X90.17Y-92.837
X90.17Y-100.457
X90.17Y-105.41
X90.17Y-113.03
X90.17Y-118.11
X90.17Y-125.73
X90.17Y-130.81
X90.17Y-138.43
X91.186Y-50.419
X92.202Y-38.608
X92.202Y-46.228
X92.71Y-130.81
X92.71Y-138.43
X93.726Y-50.419
X94.742Y-38.608
X94.742Y-46.228
X95.25Y-130.81
X95.25Y-138.43
X96.266Y-50.419
X97.282Y-38.608
X97.282Y-46.228
X98.806Y-50.419
X99.822Y-38.608
X99.822Y-46.228
X101.346Y-50.419
X103.886Y-50.419
X106.426Y-50.419
X106.68Y-93.98
X106.68Y-99.06
X106.68Y-106.68
X106.68Y-111.76
X106.68Y-119.38
X106.68Y-124.46
X106.68Y-132.08
X106.68Y-137.16
X113.03Y-92.71
X113.03Y-100.33
X113.03Y-105.41
X113.03Y-113.03
X113.03Y-118.11
X113.03Y-125.73
X113.03Y-130.81
X113.03Y-138.43
X115.57Y-92.71
X115.57Y-100.33
X115.57Y-105.41
X115.57Y-113.03
X115.57Y-118.11
X115.57Y-125.73
X115.57Y-130.81
X115.57Y-138.43
X118.11Y-92.71
X118.11Y-100.33
X118.11Y-105.41
X118.11Y-113.03
X118.11Y-118.11
X118.11Y-125.73
X118.11Y-130.81
X118.11Y-138.43
X120.65Y-92.71
X120.65Y-100.33
X120.65Y-105.41
X120.65Y-113.03
X120.65Y-118.11
X120.65Y-125.73
X120.65Y-130.81
X120.65Y-138.43
X123.19Y-92.71
X123.19Y-100.33
X123.19Y-105.41
X123.19Y-113.03
X123.19Y-118.11
X123.19Y-125.73
X123.19Y-130.81
X123.19Y-138.43
X125.73Y-92.71
X125.73Y-100.33
X125.73Y-105.41
X125.73Y-113.03
X125.73Y-118.11
X125.73Y-125.73
X125.73Y-130.81
X125.73Y-138.43
X128.27Y-92.71
X128.27Y-100.33
X128.27Y-105.41
X128.27Y-113.03
X128.27Y-118.11
X128.27Y-125.73
X128.27Y-130.81
X128.27Y-138.43
X130.81Y-92.71
X130.81Y-100.33
X130.81Y-105.41
X130.81Y-113.03
X130.81Y-118.11
X130.81Y-125.73
X130.81Y-130.81
X130.81Y-138.43
X133.35Y-118.11
X133.35Y-125.73
X133.35Y-130.81
X133.35Y-138.43
X135.89Y-118.11
X135.89Y-125.73
X135.89Y-130.81
X135.89Y-138.43
X136.144Y-53.34
X136.271Y-84.328
X141.224Y-53.34
X141.351Y-84.328
X147.32Y-93.98
X147.32Y-99.06
X147.32Y-106.68
X147.32Y-111.76
X147.32Y-119.38
X147.32Y-124.46
X147.32Y-132.08
X147.32Y-137.16
X153.67Y-92.71
X153.67Y-100.33
X153.67Y-105.41
X153.67Y-113.03
X153.67Y-118.11
X153.67Y-125.73
X153.67Y-130.81
X153.67Y-138.43
X156.21Y-92.71
X156.21Y-100.33
X156.21Y-105.41
X156.21Y-113.03
X156.21Y-118.11
X156.21Y-125.73
X156.21Y-130.81
X156.21Y-138.43
X158.75Y-92.71
X158.75Y-100.33
X158.75Y-105.41
X158.75Y-113.03
X158.75Y-118.11
X158.75Y-125.73
X158.75Y-130.81
X158.75Y-138.43
X161.29Y-92.71
X161.29Y-100.33
X161.29Y-105.41
X161.29Y-113.03
X161.29Y-118.11
X161.29Y-125.73
X161.29Y-130.81
X161.29Y-138.43
X163.83Y-92.71
X163.83Y-100.33
X163.83Y-105.41
X163.83Y-113.03
X163.83Y-118.11
X163.83Y-125.73
X163.83Y-130.81
X163.83Y-138.43
X166.37Y-92.71
X166.37Y-100.33
X166.37Y-105.41
X166.37Y-113.03
X166.37Y-118.11
X166.37Y-125.73
X166.37Y-130.81
X166.37Y-138.43
X168.91Y-92.71
X168.91Y-100.33
X168.91Y-105.41
X168.91Y-113.03
X168.91Y-118.11
X168.91Y-125.73
X168.91Y-130.81
X168.91Y-138.43
X171.323Y-53.34
X171.323Y-84.328
X171.45Y-130.81
X171.45Y-138.43
X173.99Y-130.81
X173.99Y-138.43
X176.403Y-53.34
X176.403Y-84.328
X176.53Y-130.81
X176.53Y-138.43
X187.96Y-93.98
X187.96Y-99.06
X187.96Y-106.68
X187.96Y-111.76
X187.96Y-119.38
X187.96Y-124.46
X187.96Y-132.08
X187.96Y-137.16
X194.31Y-92.71
X194.31Y-100.33
X194.31Y-105.41
X194.31Y-113.03
X194.31Y-118.11
X194.31Y-125.73
X194.31Y-130.81
X194.31Y-138.43
X196.85Y-92.71
X196.85Y-100.33
X196.85Y-105.41
X196.85Y-113.03
X196.85Y-118.11
X196.85Y-125.73
X196.85Y-130.81
X196.85Y-138.43
X199.39Y-92.71
X199.39Y-100.33
X199.39Y-105.41
X199.39Y-113.03
X199.39Y-118.11
X199.39Y-125.73
X199.39Y-130.81
X199.39Y-138.43
X201.93Y-92.71
X201.93Y-100.33
X201.93Y-105.41
X201.93Y-113.03
X201.93Y-118.11
X201.93Y-125.73
X201.93Y-130.81
X201.93Y-138.43
X204.47Y-92.71
X204.47Y-100.33
X204.47Y-105.41
X204.47Y-113.03
X204.47Y-118.11
X204.47Y-125.73
X204.47Y-130.81
X204.47Y-138.43
X206.121Y-53.34
X206.121Y-84.328
X207.01Y-92.71
X207.01Y-100.33
X207.01Y-105.41
X207.01Y-113.03
X207.01Y-118.11
X207.01Y-125.73
X207.01Y-130.81
X207.01Y-138.43
X209.55Y-92.71
X209.55Y-100.33
X209.55Y-105.41
X209.55Y-113.03
X209.55Y-118.11
X209.55Y-125.73
X209.55Y-130.81
X209.55Y-138.43
X211.201Y-53.34
X211.201Y-84.328
X212.09Y-130.81
X212.09Y-138.43
X214.63Y-130.81
X214.63Y-138.43
X217.17Y-130.81
X217.17Y-138.43
X228.6Y-93.98
X228.6Y-99.06
X228.6Y-106.68
X228.6Y-111.76
X228.6Y-119.38
X228.6Y-124.46
X228.6Y-132.08
X228.6Y-137.16
X234.95Y-92.71
X234.95Y-100.33
X234.95Y-105.41
X234.95Y-113.03
X234.95Y-118.11
X234.95Y-125.73
X234.95Y-130.81
X234.95Y-138.43
X237.49Y-92.71
X237.49Y-100.33
X237.49Y-105.41
X237.49Y-113.03
X237.49Y-118.11
X237.49Y-125.73
X237.49Y-130.81
X237.49Y-138.43
X240.03Y-92.71
X240.03Y-100.33
X240.03Y-105.41
X240.03Y-113.03
X240.03Y-118.11
X240.03Y-125.73
X240.03Y-130.81
X240.03Y-138.43
X241.554Y-84.328
X242.062Y-53.467
X242.57Y-92.71
X242.57Y-100.33
X242.57Y-105.41
X242.57Y-113.03
X242.57Y-118.11
X242.57Y-125.73
X242.57Y-130.81
X242.57Y-138.43
X245.11Y-92.71
X245.11Y-100.33
X245.11Y-105.41
X245.11Y-113.03
X245.11Y-118.11
X245.11Y-125.73
X245.11Y-130.81
X245.11Y-138.43
X246.634Y-84.328
X247.142Y-53.467
X247.65Y-92.71
X247.65Y-100.33
X247.65Y-105.41
X247.65Y-113.03
X247.65Y-118.11
X247.65Y-125.73
X247.65Y-130.81
X247.65Y-138.43
X250.19Y-92.71
X250.19Y-100.33
X250.19Y-105.41
X250.19Y-113.03
X250.19Y-118.11
X250.19Y-125.73
X250.19Y-130.81
X250.19Y-138.43
X252.73Y-118.11
X252.73Y-125.73
X252.73Y-130.81
X252.73Y-138.43
X255.27Y-118.11
X255.27Y-125.73
X255.27Y-130.81
X255.27Y-138.43
X257.81Y-118.11
X257.81Y-125.73
X257.81Y-130.81
X257.81Y-138.43
T4
X60.96Y-143.51
X60.96Y-146.05
X82.55Y-143.51
X82.55Y-146.05
X111.76Y-143.51
X111.76Y-146.05
X114.3Y-143.51
X114.3Y-146.05
T5
X48.006Y-128.905
X48.006Y-131.445
X48.006Y-133.985
T6
X19.05Y-29.21
X31.496Y-131.445
X260.35Y-29.21
T0
M30
