G04 (created by PCBNEW (2013-07-07 BZR 4022)-stable) date 24/3/2014 1:00:59 AM*
%MOIN*%
G04 Gerber Fmt 3.4, Leading zero omitted, Abs format*
%FSLAX34Y34*%
G01*
G70*
G90*
G04 APERTURE LIST*
%ADD10C,0.00393701*%
%ADD11C,0.0026*%
%ADD12C,0.008*%
%ADD13C,0.002*%
%ADD14C,0.0035*%
%ADD15C,0.0019685*%
G04 APERTURE END LIST*
G54D10*
G54D11*
X76900Y-19848D02*
X76900Y-19651D01*
X76900Y-19651D02*
X77424Y-19651D01*
X77424Y-19848D02*
X77424Y-19651D01*
X76900Y-19848D02*
X77424Y-19848D01*
X76900Y-19348D02*
X76900Y-19151D01*
X76900Y-19151D02*
X77424Y-19151D01*
X77424Y-19348D02*
X77424Y-19151D01*
X76900Y-19348D02*
X77424Y-19348D01*
X76900Y-18848D02*
X76900Y-18651D01*
X76900Y-18651D02*
X77424Y-18651D01*
X77424Y-18848D02*
X77424Y-18651D01*
X76900Y-18848D02*
X77424Y-18848D01*
X76900Y-18348D02*
X76900Y-18151D01*
X76900Y-18151D02*
X77424Y-18151D01*
X77424Y-18348D02*
X77424Y-18151D01*
X76900Y-18348D02*
X77424Y-18348D01*
X76900Y-17848D02*
X76900Y-17651D01*
X76900Y-17651D02*
X77424Y-17651D01*
X77424Y-17848D02*
X77424Y-17651D01*
X76900Y-17848D02*
X77424Y-17848D01*
X76900Y-17348D02*
X76900Y-17151D01*
X76900Y-17151D02*
X77424Y-17151D01*
X77424Y-17348D02*
X77424Y-17151D01*
X76900Y-17348D02*
X77424Y-17348D01*
X76900Y-16848D02*
X76900Y-16651D01*
X76900Y-16651D02*
X77424Y-16651D01*
X77424Y-16848D02*
X77424Y-16651D01*
X76900Y-16848D02*
X77424Y-16848D01*
X76900Y-16348D02*
X76900Y-16151D01*
X76900Y-16151D02*
X77424Y-16151D01*
X77424Y-16348D02*
X77424Y-16151D01*
X76900Y-16348D02*
X77424Y-16348D01*
X76900Y-15849D02*
X76900Y-15652D01*
X76900Y-15652D02*
X77424Y-15652D01*
X77424Y-15849D02*
X77424Y-15652D01*
X76900Y-15849D02*
X77424Y-15849D01*
X76900Y-15349D02*
X76900Y-15152D01*
X76900Y-15152D02*
X77424Y-15152D01*
X77424Y-15349D02*
X77424Y-15152D01*
X76900Y-15349D02*
X77424Y-15349D01*
X76900Y-14849D02*
X76900Y-14652D01*
X76900Y-14652D02*
X77424Y-14652D01*
X77424Y-14849D02*
X77424Y-14652D01*
X76900Y-14849D02*
X77424Y-14849D01*
X76900Y-14349D02*
X76900Y-14152D01*
X76900Y-14152D02*
X77424Y-14152D01*
X77424Y-14349D02*
X77424Y-14152D01*
X76900Y-14349D02*
X77424Y-14349D01*
X76900Y-13849D02*
X76900Y-13652D01*
X76900Y-13652D02*
X77424Y-13652D01*
X77424Y-13849D02*
X77424Y-13652D01*
X76900Y-13849D02*
X77424Y-13849D01*
X76900Y-13349D02*
X76900Y-13152D01*
X76900Y-13152D02*
X77424Y-13152D01*
X77424Y-13349D02*
X77424Y-13152D01*
X76900Y-13349D02*
X77424Y-13349D01*
X76900Y-12849D02*
X76900Y-12652D01*
X76900Y-12652D02*
X77424Y-12652D01*
X77424Y-12849D02*
X77424Y-12652D01*
X76900Y-12849D02*
X77424Y-12849D01*
X76900Y-12349D02*
X76900Y-12152D01*
X76900Y-12152D02*
X77424Y-12152D01*
X77424Y-12349D02*
X77424Y-12152D01*
X76900Y-12349D02*
X77424Y-12349D01*
X82076Y-12349D02*
X82076Y-12152D01*
X82076Y-12152D02*
X82600Y-12152D01*
X82600Y-12349D02*
X82600Y-12152D01*
X82076Y-12349D02*
X82600Y-12349D01*
X82076Y-12849D02*
X82076Y-12652D01*
X82076Y-12652D02*
X82600Y-12652D01*
X82600Y-12849D02*
X82600Y-12652D01*
X82076Y-12849D02*
X82600Y-12849D01*
X82076Y-13349D02*
X82076Y-13152D01*
X82076Y-13152D02*
X82600Y-13152D01*
X82600Y-13349D02*
X82600Y-13152D01*
X82076Y-13349D02*
X82600Y-13349D01*
X82076Y-13849D02*
X82076Y-13652D01*
X82076Y-13652D02*
X82600Y-13652D01*
X82600Y-13849D02*
X82600Y-13652D01*
X82076Y-13849D02*
X82600Y-13849D01*
X82076Y-14349D02*
X82076Y-14152D01*
X82076Y-14152D02*
X82600Y-14152D01*
X82600Y-14349D02*
X82600Y-14152D01*
X82076Y-14349D02*
X82600Y-14349D01*
X82076Y-14849D02*
X82076Y-14652D01*
X82076Y-14652D02*
X82600Y-14652D01*
X82600Y-14849D02*
X82600Y-14652D01*
X82076Y-14849D02*
X82600Y-14849D01*
X82076Y-15349D02*
X82076Y-15152D01*
X82076Y-15152D02*
X82600Y-15152D01*
X82600Y-15349D02*
X82600Y-15152D01*
X82076Y-15349D02*
X82600Y-15349D01*
X82076Y-15849D02*
X82076Y-15652D01*
X82076Y-15652D02*
X82600Y-15652D01*
X82600Y-15849D02*
X82600Y-15652D01*
X82076Y-15849D02*
X82600Y-15849D01*
X82076Y-16348D02*
X82076Y-16151D01*
X82076Y-16151D02*
X82600Y-16151D01*
X82600Y-16348D02*
X82600Y-16151D01*
X82076Y-16348D02*
X82600Y-16348D01*
X82076Y-16848D02*
X82076Y-16651D01*
X82076Y-16651D02*
X82600Y-16651D01*
X82600Y-16848D02*
X82600Y-16651D01*
X82076Y-16848D02*
X82600Y-16848D01*
X82076Y-17348D02*
X82076Y-17151D01*
X82076Y-17151D02*
X82600Y-17151D01*
X82600Y-17348D02*
X82600Y-17151D01*
X82076Y-17348D02*
X82600Y-17348D01*
X82076Y-17848D02*
X82076Y-17651D01*
X82076Y-17651D02*
X82600Y-17651D01*
X82600Y-17848D02*
X82600Y-17651D01*
X82076Y-17848D02*
X82600Y-17848D01*
X82076Y-18348D02*
X82076Y-18151D01*
X82076Y-18151D02*
X82600Y-18151D01*
X82600Y-18348D02*
X82600Y-18151D01*
X82076Y-18348D02*
X82600Y-18348D01*
X82076Y-18848D02*
X82076Y-18651D01*
X82076Y-18651D02*
X82600Y-18651D01*
X82600Y-18848D02*
X82600Y-18651D01*
X82076Y-18848D02*
X82600Y-18848D01*
X82076Y-19348D02*
X82076Y-19151D01*
X82076Y-19151D02*
X82600Y-19151D01*
X82600Y-19348D02*
X82600Y-19151D01*
X82076Y-19348D02*
X82600Y-19348D01*
X82076Y-19848D02*
X82076Y-19651D01*
X82076Y-19651D02*
X82600Y-19651D01*
X82600Y-19848D02*
X82600Y-19651D01*
X82076Y-19848D02*
X82600Y-19848D01*
G54D12*
X82037Y-11788D02*
X77463Y-11788D01*
X77463Y-11788D02*
X77463Y-20212D01*
X77463Y-20212D02*
X82037Y-20212D01*
X82037Y-20212D02*
X82037Y-11788D01*
G54D11*
X49450Y-31998D02*
X49450Y-31801D01*
X49450Y-31801D02*
X49974Y-31801D01*
X49974Y-31998D02*
X49974Y-31801D01*
X49450Y-31998D02*
X49974Y-31998D01*
X49450Y-31498D02*
X49450Y-31301D01*
X49450Y-31301D02*
X49974Y-31301D01*
X49974Y-31498D02*
X49974Y-31301D01*
X49450Y-31498D02*
X49974Y-31498D01*
X49450Y-30998D02*
X49450Y-30801D01*
X49450Y-30801D02*
X49974Y-30801D01*
X49974Y-30998D02*
X49974Y-30801D01*
X49450Y-30998D02*
X49974Y-30998D01*
X49450Y-30498D02*
X49450Y-30301D01*
X49450Y-30301D02*
X49974Y-30301D01*
X49974Y-30498D02*
X49974Y-30301D01*
X49450Y-30498D02*
X49974Y-30498D01*
X49450Y-29998D02*
X49450Y-29801D01*
X49450Y-29801D02*
X49974Y-29801D01*
X49974Y-29998D02*
X49974Y-29801D01*
X49450Y-29998D02*
X49974Y-29998D01*
X49450Y-29498D02*
X49450Y-29301D01*
X49450Y-29301D02*
X49974Y-29301D01*
X49974Y-29498D02*
X49974Y-29301D01*
X49450Y-29498D02*
X49974Y-29498D01*
X49450Y-28998D02*
X49450Y-28801D01*
X49450Y-28801D02*
X49974Y-28801D01*
X49974Y-28998D02*
X49974Y-28801D01*
X49450Y-28998D02*
X49974Y-28998D01*
X49450Y-28498D02*
X49450Y-28301D01*
X49450Y-28301D02*
X49974Y-28301D01*
X49974Y-28498D02*
X49974Y-28301D01*
X49450Y-28498D02*
X49974Y-28498D01*
X49450Y-27999D02*
X49450Y-27802D01*
X49450Y-27802D02*
X49974Y-27802D01*
X49974Y-27999D02*
X49974Y-27802D01*
X49450Y-27999D02*
X49974Y-27999D01*
X49450Y-27499D02*
X49450Y-27302D01*
X49450Y-27302D02*
X49974Y-27302D01*
X49974Y-27499D02*
X49974Y-27302D01*
X49450Y-27499D02*
X49974Y-27499D01*
X49450Y-26999D02*
X49450Y-26802D01*
X49450Y-26802D02*
X49974Y-26802D01*
X49974Y-26999D02*
X49974Y-26802D01*
X49450Y-26999D02*
X49974Y-26999D01*
X49450Y-26499D02*
X49450Y-26302D01*
X49450Y-26302D02*
X49974Y-26302D01*
X49974Y-26499D02*
X49974Y-26302D01*
X49450Y-26499D02*
X49974Y-26499D01*
X49450Y-25999D02*
X49450Y-25802D01*
X49450Y-25802D02*
X49974Y-25802D01*
X49974Y-25999D02*
X49974Y-25802D01*
X49450Y-25999D02*
X49974Y-25999D01*
X49450Y-25499D02*
X49450Y-25302D01*
X49450Y-25302D02*
X49974Y-25302D01*
X49974Y-25499D02*
X49974Y-25302D01*
X49450Y-25499D02*
X49974Y-25499D01*
X49450Y-24999D02*
X49450Y-24802D01*
X49450Y-24802D02*
X49974Y-24802D01*
X49974Y-24999D02*
X49974Y-24802D01*
X49450Y-24999D02*
X49974Y-24999D01*
X49450Y-24499D02*
X49450Y-24302D01*
X49450Y-24302D02*
X49974Y-24302D01*
X49974Y-24499D02*
X49974Y-24302D01*
X49450Y-24499D02*
X49974Y-24499D01*
X54626Y-24499D02*
X54626Y-24302D01*
X54626Y-24302D02*
X55150Y-24302D01*
X55150Y-24499D02*
X55150Y-24302D01*
X54626Y-24499D02*
X55150Y-24499D01*
X54626Y-24999D02*
X54626Y-24802D01*
X54626Y-24802D02*
X55150Y-24802D01*
X55150Y-24999D02*
X55150Y-24802D01*
X54626Y-24999D02*
X55150Y-24999D01*
X54626Y-25499D02*
X54626Y-25302D01*
X54626Y-25302D02*
X55150Y-25302D01*
X55150Y-25499D02*
X55150Y-25302D01*
X54626Y-25499D02*
X55150Y-25499D01*
X54626Y-25999D02*
X54626Y-25802D01*
X54626Y-25802D02*
X55150Y-25802D01*
X55150Y-25999D02*
X55150Y-25802D01*
X54626Y-25999D02*
X55150Y-25999D01*
X54626Y-26499D02*
X54626Y-26302D01*
X54626Y-26302D02*
X55150Y-26302D01*
X55150Y-26499D02*
X55150Y-26302D01*
X54626Y-26499D02*
X55150Y-26499D01*
X54626Y-26999D02*
X54626Y-26802D01*
X54626Y-26802D02*
X55150Y-26802D01*
X55150Y-26999D02*
X55150Y-26802D01*
X54626Y-26999D02*
X55150Y-26999D01*
X54626Y-27499D02*
X54626Y-27302D01*
X54626Y-27302D02*
X55150Y-27302D01*
X55150Y-27499D02*
X55150Y-27302D01*
X54626Y-27499D02*
X55150Y-27499D01*
X54626Y-27999D02*
X54626Y-27802D01*
X54626Y-27802D02*
X55150Y-27802D01*
X55150Y-27999D02*
X55150Y-27802D01*
X54626Y-27999D02*
X55150Y-27999D01*
X54626Y-28498D02*
X54626Y-28301D01*
X54626Y-28301D02*
X55150Y-28301D01*
X55150Y-28498D02*
X55150Y-28301D01*
X54626Y-28498D02*
X55150Y-28498D01*
X54626Y-28998D02*
X54626Y-28801D01*
X54626Y-28801D02*
X55150Y-28801D01*
X55150Y-28998D02*
X55150Y-28801D01*
X54626Y-28998D02*
X55150Y-28998D01*
X54626Y-29498D02*
X54626Y-29301D01*
X54626Y-29301D02*
X55150Y-29301D01*
X55150Y-29498D02*
X55150Y-29301D01*
X54626Y-29498D02*
X55150Y-29498D01*
X54626Y-29998D02*
X54626Y-29801D01*
X54626Y-29801D02*
X55150Y-29801D01*
X55150Y-29998D02*
X55150Y-29801D01*
X54626Y-29998D02*
X55150Y-29998D01*
X54626Y-30498D02*
X54626Y-30301D01*
X54626Y-30301D02*
X55150Y-30301D01*
X55150Y-30498D02*
X55150Y-30301D01*
X54626Y-30498D02*
X55150Y-30498D01*
X54626Y-30998D02*
X54626Y-30801D01*
X54626Y-30801D02*
X55150Y-30801D01*
X55150Y-30998D02*
X55150Y-30801D01*
X54626Y-30998D02*
X55150Y-30998D01*
X54626Y-31498D02*
X54626Y-31301D01*
X54626Y-31301D02*
X55150Y-31301D01*
X55150Y-31498D02*
X55150Y-31301D01*
X54626Y-31498D02*
X55150Y-31498D01*
X54626Y-31998D02*
X54626Y-31801D01*
X54626Y-31801D02*
X55150Y-31801D01*
X55150Y-31998D02*
X55150Y-31801D01*
X54626Y-31998D02*
X55150Y-31998D01*
G54D12*
X54587Y-23938D02*
X50013Y-23938D01*
X50013Y-23938D02*
X50013Y-32362D01*
X50013Y-32362D02*
X54587Y-32362D01*
X54587Y-32362D02*
X54587Y-23938D01*
G54D11*
X49450Y-19848D02*
X49450Y-19651D01*
X49450Y-19651D02*
X49974Y-19651D01*
X49974Y-19848D02*
X49974Y-19651D01*
X49450Y-19848D02*
X49974Y-19848D01*
X49450Y-19348D02*
X49450Y-19151D01*
X49450Y-19151D02*
X49974Y-19151D01*
X49974Y-19348D02*
X49974Y-19151D01*
X49450Y-19348D02*
X49974Y-19348D01*
X49450Y-18848D02*
X49450Y-18651D01*
X49450Y-18651D02*
X49974Y-18651D01*
X49974Y-18848D02*
X49974Y-18651D01*
X49450Y-18848D02*
X49974Y-18848D01*
X49450Y-18348D02*
X49450Y-18151D01*
X49450Y-18151D02*
X49974Y-18151D01*
X49974Y-18348D02*
X49974Y-18151D01*
X49450Y-18348D02*
X49974Y-18348D01*
X49450Y-17848D02*
X49450Y-17651D01*
X49450Y-17651D02*
X49974Y-17651D01*
X49974Y-17848D02*
X49974Y-17651D01*
X49450Y-17848D02*
X49974Y-17848D01*
X49450Y-17348D02*
X49450Y-17151D01*
X49450Y-17151D02*
X49974Y-17151D01*
X49974Y-17348D02*
X49974Y-17151D01*
X49450Y-17348D02*
X49974Y-17348D01*
X49450Y-16848D02*
X49450Y-16651D01*
X49450Y-16651D02*
X49974Y-16651D01*
X49974Y-16848D02*
X49974Y-16651D01*
X49450Y-16848D02*
X49974Y-16848D01*
X49450Y-16348D02*
X49450Y-16151D01*
X49450Y-16151D02*
X49974Y-16151D01*
X49974Y-16348D02*
X49974Y-16151D01*
X49450Y-16348D02*
X49974Y-16348D01*
X49450Y-15849D02*
X49450Y-15652D01*
X49450Y-15652D02*
X49974Y-15652D01*
X49974Y-15849D02*
X49974Y-15652D01*
X49450Y-15849D02*
X49974Y-15849D01*
X49450Y-15349D02*
X49450Y-15152D01*
X49450Y-15152D02*
X49974Y-15152D01*
X49974Y-15349D02*
X49974Y-15152D01*
X49450Y-15349D02*
X49974Y-15349D01*
X49450Y-14849D02*
X49450Y-14652D01*
X49450Y-14652D02*
X49974Y-14652D01*
X49974Y-14849D02*
X49974Y-14652D01*
X49450Y-14849D02*
X49974Y-14849D01*
X49450Y-14349D02*
X49450Y-14152D01*
X49450Y-14152D02*
X49974Y-14152D01*
X49974Y-14349D02*
X49974Y-14152D01*
X49450Y-14349D02*
X49974Y-14349D01*
X49450Y-13849D02*
X49450Y-13652D01*
X49450Y-13652D02*
X49974Y-13652D01*
X49974Y-13849D02*
X49974Y-13652D01*
X49450Y-13849D02*
X49974Y-13849D01*
X49450Y-13349D02*
X49450Y-13152D01*
X49450Y-13152D02*
X49974Y-13152D01*
X49974Y-13349D02*
X49974Y-13152D01*
X49450Y-13349D02*
X49974Y-13349D01*
X49450Y-12849D02*
X49450Y-12652D01*
X49450Y-12652D02*
X49974Y-12652D01*
X49974Y-12849D02*
X49974Y-12652D01*
X49450Y-12849D02*
X49974Y-12849D01*
X49450Y-12349D02*
X49450Y-12152D01*
X49450Y-12152D02*
X49974Y-12152D01*
X49974Y-12349D02*
X49974Y-12152D01*
X49450Y-12349D02*
X49974Y-12349D01*
X54626Y-12349D02*
X54626Y-12152D01*
X54626Y-12152D02*
X55150Y-12152D01*
X55150Y-12349D02*
X55150Y-12152D01*
X54626Y-12349D02*
X55150Y-12349D01*
X54626Y-12849D02*
X54626Y-12652D01*
X54626Y-12652D02*
X55150Y-12652D01*
X55150Y-12849D02*
X55150Y-12652D01*
X54626Y-12849D02*
X55150Y-12849D01*
X54626Y-13349D02*
X54626Y-13152D01*
X54626Y-13152D02*
X55150Y-13152D01*
X55150Y-13349D02*
X55150Y-13152D01*
X54626Y-13349D02*
X55150Y-13349D01*
X54626Y-13849D02*
X54626Y-13652D01*
X54626Y-13652D02*
X55150Y-13652D01*
X55150Y-13849D02*
X55150Y-13652D01*
X54626Y-13849D02*
X55150Y-13849D01*
X54626Y-14349D02*
X54626Y-14152D01*
X54626Y-14152D02*
X55150Y-14152D01*
X55150Y-14349D02*
X55150Y-14152D01*
X54626Y-14349D02*
X55150Y-14349D01*
X54626Y-14849D02*
X54626Y-14652D01*
X54626Y-14652D02*
X55150Y-14652D01*
X55150Y-14849D02*
X55150Y-14652D01*
X54626Y-14849D02*
X55150Y-14849D01*
X54626Y-15349D02*
X54626Y-15152D01*
X54626Y-15152D02*
X55150Y-15152D01*
X55150Y-15349D02*
X55150Y-15152D01*
X54626Y-15349D02*
X55150Y-15349D01*
X54626Y-15849D02*
X54626Y-15652D01*
X54626Y-15652D02*
X55150Y-15652D01*
X55150Y-15849D02*
X55150Y-15652D01*
X54626Y-15849D02*
X55150Y-15849D01*
X54626Y-16348D02*
X54626Y-16151D01*
X54626Y-16151D02*
X55150Y-16151D01*
X55150Y-16348D02*
X55150Y-16151D01*
X54626Y-16348D02*
X55150Y-16348D01*
X54626Y-16848D02*
X54626Y-16651D01*
X54626Y-16651D02*
X55150Y-16651D01*
X55150Y-16848D02*
X55150Y-16651D01*
X54626Y-16848D02*
X55150Y-16848D01*
X54626Y-17348D02*
X54626Y-17151D01*
X54626Y-17151D02*
X55150Y-17151D01*
X55150Y-17348D02*
X55150Y-17151D01*
X54626Y-17348D02*
X55150Y-17348D01*
X54626Y-17848D02*
X54626Y-17651D01*
X54626Y-17651D02*
X55150Y-17651D01*
X55150Y-17848D02*
X55150Y-17651D01*
X54626Y-17848D02*
X55150Y-17848D01*
X54626Y-18348D02*
X54626Y-18151D01*
X54626Y-18151D02*
X55150Y-18151D01*
X55150Y-18348D02*
X55150Y-18151D01*
X54626Y-18348D02*
X55150Y-18348D01*
X54626Y-18848D02*
X54626Y-18651D01*
X54626Y-18651D02*
X55150Y-18651D01*
X55150Y-18848D02*
X55150Y-18651D01*
X54626Y-18848D02*
X55150Y-18848D01*
X54626Y-19348D02*
X54626Y-19151D01*
X54626Y-19151D02*
X55150Y-19151D01*
X55150Y-19348D02*
X55150Y-19151D01*
X54626Y-19348D02*
X55150Y-19348D01*
X54626Y-19848D02*
X54626Y-19651D01*
X54626Y-19651D02*
X55150Y-19651D01*
X55150Y-19848D02*
X55150Y-19651D01*
X54626Y-19848D02*
X55150Y-19848D01*
G54D12*
X54587Y-11788D02*
X50013Y-11788D01*
X50013Y-11788D02*
X50013Y-20212D01*
X50013Y-20212D02*
X54587Y-20212D01*
X54587Y-20212D02*
X54587Y-11788D01*
G54D11*
X63050Y-32048D02*
X63050Y-31851D01*
X63050Y-31851D02*
X63574Y-31851D01*
X63574Y-32048D02*
X63574Y-31851D01*
X63050Y-32048D02*
X63574Y-32048D01*
X63050Y-31548D02*
X63050Y-31351D01*
X63050Y-31351D02*
X63574Y-31351D01*
X63574Y-31548D02*
X63574Y-31351D01*
X63050Y-31548D02*
X63574Y-31548D01*
X63050Y-31048D02*
X63050Y-30851D01*
X63050Y-30851D02*
X63574Y-30851D01*
X63574Y-31048D02*
X63574Y-30851D01*
X63050Y-31048D02*
X63574Y-31048D01*
X63050Y-30548D02*
X63050Y-30351D01*
X63050Y-30351D02*
X63574Y-30351D01*
X63574Y-30548D02*
X63574Y-30351D01*
X63050Y-30548D02*
X63574Y-30548D01*
X63050Y-30048D02*
X63050Y-29851D01*
X63050Y-29851D02*
X63574Y-29851D01*
X63574Y-30048D02*
X63574Y-29851D01*
X63050Y-30048D02*
X63574Y-30048D01*
X63050Y-29548D02*
X63050Y-29351D01*
X63050Y-29351D02*
X63574Y-29351D01*
X63574Y-29548D02*
X63574Y-29351D01*
X63050Y-29548D02*
X63574Y-29548D01*
X63050Y-29048D02*
X63050Y-28851D01*
X63050Y-28851D02*
X63574Y-28851D01*
X63574Y-29048D02*
X63574Y-28851D01*
X63050Y-29048D02*
X63574Y-29048D01*
X63050Y-28548D02*
X63050Y-28351D01*
X63050Y-28351D02*
X63574Y-28351D01*
X63574Y-28548D02*
X63574Y-28351D01*
X63050Y-28548D02*
X63574Y-28548D01*
X63050Y-28049D02*
X63050Y-27852D01*
X63050Y-27852D02*
X63574Y-27852D01*
X63574Y-28049D02*
X63574Y-27852D01*
X63050Y-28049D02*
X63574Y-28049D01*
X63050Y-27549D02*
X63050Y-27352D01*
X63050Y-27352D02*
X63574Y-27352D01*
X63574Y-27549D02*
X63574Y-27352D01*
X63050Y-27549D02*
X63574Y-27549D01*
X63050Y-27049D02*
X63050Y-26852D01*
X63050Y-26852D02*
X63574Y-26852D01*
X63574Y-27049D02*
X63574Y-26852D01*
X63050Y-27049D02*
X63574Y-27049D01*
X63050Y-26549D02*
X63050Y-26352D01*
X63050Y-26352D02*
X63574Y-26352D01*
X63574Y-26549D02*
X63574Y-26352D01*
X63050Y-26549D02*
X63574Y-26549D01*
X63050Y-26049D02*
X63050Y-25852D01*
X63050Y-25852D02*
X63574Y-25852D01*
X63574Y-26049D02*
X63574Y-25852D01*
X63050Y-26049D02*
X63574Y-26049D01*
X63050Y-25549D02*
X63050Y-25352D01*
X63050Y-25352D02*
X63574Y-25352D01*
X63574Y-25549D02*
X63574Y-25352D01*
X63050Y-25549D02*
X63574Y-25549D01*
X63050Y-25049D02*
X63050Y-24852D01*
X63050Y-24852D02*
X63574Y-24852D01*
X63574Y-25049D02*
X63574Y-24852D01*
X63050Y-25049D02*
X63574Y-25049D01*
X63050Y-24549D02*
X63050Y-24352D01*
X63050Y-24352D02*
X63574Y-24352D01*
X63574Y-24549D02*
X63574Y-24352D01*
X63050Y-24549D02*
X63574Y-24549D01*
X68226Y-24549D02*
X68226Y-24352D01*
X68226Y-24352D02*
X68750Y-24352D01*
X68750Y-24549D02*
X68750Y-24352D01*
X68226Y-24549D02*
X68750Y-24549D01*
X68226Y-25049D02*
X68226Y-24852D01*
X68226Y-24852D02*
X68750Y-24852D01*
X68750Y-25049D02*
X68750Y-24852D01*
X68226Y-25049D02*
X68750Y-25049D01*
X68226Y-25549D02*
X68226Y-25352D01*
X68226Y-25352D02*
X68750Y-25352D01*
X68750Y-25549D02*
X68750Y-25352D01*
X68226Y-25549D02*
X68750Y-25549D01*
X68226Y-26049D02*
X68226Y-25852D01*
X68226Y-25852D02*
X68750Y-25852D01*
X68750Y-26049D02*
X68750Y-25852D01*
X68226Y-26049D02*
X68750Y-26049D01*
X68226Y-26549D02*
X68226Y-26352D01*
X68226Y-26352D02*
X68750Y-26352D01*
X68750Y-26549D02*
X68750Y-26352D01*
X68226Y-26549D02*
X68750Y-26549D01*
X68226Y-27049D02*
X68226Y-26852D01*
X68226Y-26852D02*
X68750Y-26852D01*
X68750Y-27049D02*
X68750Y-26852D01*
X68226Y-27049D02*
X68750Y-27049D01*
X68226Y-27549D02*
X68226Y-27352D01*
X68226Y-27352D02*
X68750Y-27352D01*
X68750Y-27549D02*
X68750Y-27352D01*
X68226Y-27549D02*
X68750Y-27549D01*
X68226Y-28049D02*
X68226Y-27852D01*
X68226Y-27852D02*
X68750Y-27852D01*
X68750Y-28049D02*
X68750Y-27852D01*
X68226Y-28049D02*
X68750Y-28049D01*
X68226Y-28548D02*
X68226Y-28351D01*
X68226Y-28351D02*
X68750Y-28351D01*
X68750Y-28548D02*
X68750Y-28351D01*
X68226Y-28548D02*
X68750Y-28548D01*
X68226Y-29048D02*
X68226Y-28851D01*
X68226Y-28851D02*
X68750Y-28851D01*
X68750Y-29048D02*
X68750Y-28851D01*
X68226Y-29048D02*
X68750Y-29048D01*
X68226Y-29548D02*
X68226Y-29351D01*
X68226Y-29351D02*
X68750Y-29351D01*
X68750Y-29548D02*
X68750Y-29351D01*
X68226Y-29548D02*
X68750Y-29548D01*
X68226Y-30048D02*
X68226Y-29851D01*
X68226Y-29851D02*
X68750Y-29851D01*
X68750Y-30048D02*
X68750Y-29851D01*
X68226Y-30048D02*
X68750Y-30048D01*
X68226Y-30548D02*
X68226Y-30351D01*
X68226Y-30351D02*
X68750Y-30351D01*
X68750Y-30548D02*
X68750Y-30351D01*
X68226Y-30548D02*
X68750Y-30548D01*
X68226Y-31048D02*
X68226Y-30851D01*
X68226Y-30851D02*
X68750Y-30851D01*
X68750Y-31048D02*
X68750Y-30851D01*
X68226Y-31048D02*
X68750Y-31048D01*
X68226Y-31548D02*
X68226Y-31351D01*
X68226Y-31351D02*
X68750Y-31351D01*
X68750Y-31548D02*
X68750Y-31351D01*
X68226Y-31548D02*
X68750Y-31548D01*
X68226Y-32048D02*
X68226Y-31851D01*
X68226Y-31851D02*
X68750Y-31851D01*
X68750Y-32048D02*
X68750Y-31851D01*
X68226Y-32048D02*
X68750Y-32048D01*
G54D12*
X68187Y-23988D02*
X63613Y-23988D01*
X63613Y-23988D02*
X63613Y-32412D01*
X63613Y-32412D02*
X68187Y-32412D01*
X68187Y-32412D02*
X68187Y-23988D01*
G54D11*
X63050Y-19848D02*
X63050Y-19651D01*
X63050Y-19651D02*
X63574Y-19651D01*
X63574Y-19848D02*
X63574Y-19651D01*
X63050Y-19848D02*
X63574Y-19848D01*
X63050Y-19348D02*
X63050Y-19151D01*
X63050Y-19151D02*
X63574Y-19151D01*
X63574Y-19348D02*
X63574Y-19151D01*
X63050Y-19348D02*
X63574Y-19348D01*
X63050Y-18848D02*
X63050Y-18651D01*
X63050Y-18651D02*
X63574Y-18651D01*
X63574Y-18848D02*
X63574Y-18651D01*
X63050Y-18848D02*
X63574Y-18848D01*
X63050Y-18348D02*
X63050Y-18151D01*
X63050Y-18151D02*
X63574Y-18151D01*
X63574Y-18348D02*
X63574Y-18151D01*
X63050Y-18348D02*
X63574Y-18348D01*
X63050Y-17848D02*
X63050Y-17651D01*
X63050Y-17651D02*
X63574Y-17651D01*
X63574Y-17848D02*
X63574Y-17651D01*
X63050Y-17848D02*
X63574Y-17848D01*
X63050Y-17348D02*
X63050Y-17151D01*
X63050Y-17151D02*
X63574Y-17151D01*
X63574Y-17348D02*
X63574Y-17151D01*
X63050Y-17348D02*
X63574Y-17348D01*
X63050Y-16848D02*
X63050Y-16651D01*
X63050Y-16651D02*
X63574Y-16651D01*
X63574Y-16848D02*
X63574Y-16651D01*
X63050Y-16848D02*
X63574Y-16848D01*
X63050Y-16348D02*
X63050Y-16151D01*
X63050Y-16151D02*
X63574Y-16151D01*
X63574Y-16348D02*
X63574Y-16151D01*
X63050Y-16348D02*
X63574Y-16348D01*
X63050Y-15849D02*
X63050Y-15652D01*
X63050Y-15652D02*
X63574Y-15652D01*
X63574Y-15849D02*
X63574Y-15652D01*
X63050Y-15849D02*
X63574Y-15849D01*
X63050Y-15349D02*
X63050Y-15152D01*
X63050Y-15152D02*
X63574Y-15152D01*
X63574Y-15349D02*
X63574Y-15152D01*
X63050Y-15349D02*
X63574Y-15349D01*
X63050Y-14849D02*
X63050Y-14652D01*
X63050Y-14652D02*
X63574Y-14652D01*
X63574Y-14849D02*
X63574Y-14652D01*
X63050Y-14849D02*
X63574Y-14849D01*
X63050Y-14349D02*
X63050Y-14152D01*
X63050Y-14152D02*
X63574Y-14152D01*
X63574Y-14349D02*
X63574Y-14152D01*
X63050Y-14349D02*
X63574Y-14349D01*
X63050Y-13849D02*
X63050Y-13652D01*
X63050Y-13652D02*
X63574Y-13652D01*
X63574Y-13849D02*
X63574Y-13652D01*
X63050Y-13849D02*
X63574Y-13849D01*
X63050Y-13349D02*
X63050Y-13152D01*
X63050Y-13152D02*
X63574Y-13152D01*
X63574Y-13349D02*
X63574Y-13152D01*
X63050Y-13349D02*
X63574Y-13349D01*
X63050Y-12849D02*
X63050Y-12652D01*
X63050Y-12652D02*
X63574Y-12652D01*
X63574Y-12849D02*
X63574Y-12652D01*
X63050Y-12849D02*
X63574Y-12849D01*
X63050Y-12349D02*
X63050Y-12152D01*
X63050Y-12152D02*
X63574Y-12152D01*
X63574Y-12349D02*
X63574Y-12152D01*
X63050Y-12349D02*
X63574Y-12349D01*
X68226Y-12349D02*
X68226Y-12152D01*
X68226Y-12152D02*
X68750Y-12152D01*
X68750Y-12349D02*
X68750Y-12152D01*
X68226Y-12349D02*
X68750Y-12349D01*
X68226Y-12849D02*
X68226Y-12652D01*
X68226Y-12652D02*
X68750Y-12652D01*
X68750Y-12849D02*
X68750Y-12652D01*
X68226Y-12849D02*
X68750Y-12849D01*
X68226Y-13349D02*
X68226Y-13152D01*
X68226Y-13152D02*
X68750Y-13152D01*
X68750Y-13349D02*
X68750Y-13152D01*
X68226Y-13349D02*
X68750Y-13349D01*
X68226Y-13849D02*
X68226Y-13652D01*
X68226Y-13652D02*
X68750Y-13652D01*
X68750Y-13849D02*
X68750Y-13652D01*
X68226Y-13849D02*
X68750Y-13849D01*
X68226Y-14349D02*
X68226Y-14152D01*
X68226Y-14152D02*
X68750Y-14152D01*
X68750Y-14349D02*
X68750Y-14152D01*
X68226Y-14349D02*
X68750Y-14349D01*
X68226Y-14849D02*
X68226Y-14652D01*
X68226Y-14652D02*
X68750Y-14652D01*
X68750Y-14849D02*
X68750Y-14652D01*
X68226Y-14849D02*
X68750Y-14849D01*
X68226Y-15349D02*
X68226Y-15152D01*
X68226Y-15152D02*
X68750Y-15152D01*
X68750Y-15349D02*
X68750Y-15152D01*
X68226Y-15349D02*
X68750Y-15349D01*
X68226Y-15849D02*
X68226Y-15652D01*
X68226Y-15652D02*
X68750Y-15652D01*
X68750Y-15849D02*
X68750Y-15652D01*
X68226Y-15849D02*
X68750Y-15849D01*
X68226Y-16348D02*
X68226Y-16151D01*
X68226Y-16151D02*
X68750Y-16151D01*
X68750Y-16348D02*
X68750Y-16151D01*
X68226Y-16348D02*
X68750Y-16348D01*
X68226Y-16848D02*
X68226Y-16651D01*
X68226Y-16651D02*
X68750Y-16651D01*
X68750Y-16848D02*
X68750Y-16651D01*
X68226Y-16848D02*
X68750Y-16848D01*
X68226Y-17348D02*
X68226Y-17151D01*
X68226Y-17151D02*
X68750Y-17151D01*
X68750Y-17348D02*
X68750Y-17151D01*
X68226Y-17348D02*
X68750Y-17348D01*
X68226Y-17848D02*
X68226Y-17651D01*
X68226Y-17651D02*
X68750Y-17651D01*
X68750Y-17848D02*
X68750Y-17651D01*
X68226Y-17848D02*
X68750Y-17848D01*
X68226Y-18348D02*
X68226Y-18151D01*
X68226Y-18151D02*
X68750Y-18151D01*
X68750Y-18348D02*
X68750Y-18151D01*
X68226Y-18348D02*
X68750Y-18348D01*
X68226Y-18848D02*
X68226Y-18651D01*
X68226Y-18651D02*
X68750Y-18651D01*
X68750Y-18848D02*
X68750Y-18651D01*
X68226Y-18848D02*
X68750Y-18848D01*
X68226Y-19348D02*
X68226Y-19151D01*
X68226Y-19151D02*
X68750Y-19151D01*
X68750Y-19348D02*
X68750Y-19151D01*
X68226Y-19348D02*
X68750Y-19348D01*
X68226Y-19848D02*
X68226Y-19651D01*
X68226Y-19651D02*
X68750Y-19651D01*
X68750Y-19848D02*
X68750Y-19651D01*
X68226Y-19848D02*
X68750Y-19848D01*
G54D12*
X68187Y-11788D02*
X63613Y-11788D01*
X63613Y-11788D02*
X63613Y-20212D01*
X63613Y-20212D02*
X68187Y-20212D01*
X68187Y-20212D02*
X68187Y-11788D01*
G54D11*
X76900Y-32048D02*
X76900Y-31851D01*
X76900Y-31851D02*
X77424Y-31851D01*
X77424Y-32048D02*
X77424Y-31851D01*
X76900Y-32048D02*
X77424Y-32048D01*
X76900Y-31548D02*
X76900Y-31351D01*
X76900Y-31351D02*
X77424Y-31351D01*
X77424Y-31548D02*
X77424Y-31351D01*
X76900Y-31548D02*
X77424Y-31548D01*
X76900Y-31048D02*
X76900Y-30851D01*
X76900Y-30851D02*
X77424Y-30851D01*
X77424Y-31048D02*
X77424Y-30851D01*
X76900Y-31048D02*
X77424Y-31048D01*
X76900Y-30548D02*
X76900Y-30351D01*
X76900Y-30351D02*
X77424Y-30351D01*
X77424Y-30548D02*
X77424Y-30351D01*
X76900Y-30548D02*
X77424Y-30548D01*
X76900Y-30048D02*
X76900Y-29851D01*
X76900Y-29851D02*
X77424Y-29851D01*
X77424Y-30048D02*
X77424Y-29851D01*
X76900Y-30048D02*
X77424Y-30048D01*
X76900Y-29548D02*
X76900Y-29351D01*
X76900Y-29351D02*
X77424Y-29351D01*
X77424Y-29548D02*
X77424Y-29351D01*
X76900Y-29548D02*
X77424Y-29548D01*
X76900Y-29048D02*
X76900Y-28851D01*
X76900Y-28851D02*
X77424Y-28851D01*
X77424Y-29048D02*
X77424Y-28851D01*
X76900Y-29048D02*
X77424Y-29048D01*
X76900Y-28548D02*
X76900Y-28351D01*
X76900Y-28351D02*
X77424Y-28351D01*
X77424Y-28548D02*
X77424Y-28351D01*
X76900Y-28548D02*
X77424Y-28548D01*
X76900Y-28049D02*
X76900Y-27852D01*
X76900Y-27852D02*
X77424Y-27852D01*
X77424Y-28049D02*
X77424Y-27852D01*
X76900Y-28049D02*
X77424Y-28049D01*
X76900Y-27549D02*
X76900Y-27352D01*
X76900Y-27352D02*
X77424Y-27352D01*
X77424Y-27549D02*
X77424Y-27352D01*
X76900Y-27549D02*
X77424Y-27549D01*
X76900Y-27049D02*
X76900Y-26852D01*
X76900Y-26852D02*
X77424Y-26852D01*
X77424Y-27049D02*
X77424Y-26852D01*
X76900Y-27049D02*
X77424Y-27049D01*
X76900Y-26549D02*
X76900Y-26352D01*
X76900Y-26352D02*
X77424Y-26352D01*
X77424Y-26549D02*
X77424Y-26352D01*
X76900Y-26549D02*
X77424Y-26549D01*
X76900Y-26049D02*
X76900Y-25852D01*
X76900Y-25852D02*
X77424Y-25852D01*
X77424Y-26049D02*
X77424Y-25852D01*
X76900Y-26049D02*
X77424Y-26049D01*
X76900Y-25549D02*
X76900Y-25352D01*
X76900Y-25352D02*
X77424Y-25352D01*
X77424Y-25549D02*
X77424Y-25352D01*
X76900Y-25549D02*
X77424Y-25549D01*
X76900Y-25049D02*
X76900Y-24852D01*
X76900Y-24852D02*
X77424Y-24852D01*
X77424Y-25049D02*
X77424Y-24852D01*
X76900Y-25049D02*
X77424Y-25049D01*
X76900Y-24549D02*
X76900Y-24352D01*
X76900Y-24352D02*
X77424Y-24352D01*
X77424Y-24549D02*
X77424Y-24352D01*
X76900Y-24549D02*
X77424Y-24549D01*
X82076Y-24549D02*
X82076Y-24352D01*
X82076Y-24352D02*
X82600Y-24352D01*
X82600Y-24549D02*
X82600Y-24352D01*
X82076Y-24549D02*
X82600Y-24549D01*
X82076Y-25049D02*
X82076Y-24852D01*
X82076Y-24852D02*
X82600Y-24852D01*
X82600Y-25049D02*
X82600Y-24852D01*
X82076Y-25049D02*
X82600Y-25049D01*
X82076Y-25549D02*
X82076Y-25352D01*
X82076Y-25352D02*
X82600Y-25352D01*
X82600Y-25549D02*
X82600Y-25352D01*
X82076Y-25549D02*
X82600Y-25549D01*
X82076Y-26049D02*
X82076Y-25852D01*
X82076Y-25852D02*
X82600Y-25852D01*
X82600Y-26049D02*
X82600Y-25852D01*
X82076Y-26049D02*
X82600Y-26049D01*
X82076Y-26549D02*
X82076Y-26352D01*
X82076Y-26352D02*
X82600Y-26352D01*
X82600Y-26549D02*
X82600Y-26352D01*
X82076Y-26549D02*
X82600Y-26549D01*
X82076Y-27049D02*
X82076Y-26852D01*
X82076Y-26852D02*
X82600Y-26852D01*
X82600Y-27049D02*
X82600Y-26852D01*
X82076Y-27049D02*
X82600Y-27049D01*
X82076Y-27549D02*
X82076Y-27352D01*
X82076Y-27352D02*
X82600Y-27352D01*
X82600Y-27549D02*
X82600Y-27352D01*
X82076Y-27549D02*
X82600Y-27549D01*
X82076Y-28049D02*
X82076Y-27852D01*
X82076Y-27852D02*
X82600Y-27852D01*
X82600Y-28049D02*
X82600Y-27852D01*
X82076Y-28049D02*
X82600Y-28049D01*
X82076Y-28548D02*
X82076Y-28351D01*
X82076Y-28351D02*
X82600Y-28351D01*
X82600Y-28548D02*
X82600Y-28351D01*
X82076Y-28548D02*
X82600Y-28548D01*
X82076Y-29048D02*
X82076Y-28851D01*
X82076Y-28851D02*
X82600Y-28851D01*
X82600Y-29048D02*
X82600Y-28851D01*
X82076Y-29048D02*
X82600Y-29048D01*
X82076Y-29548D02*
X82076Y-29351D01*
X82076Y-29351D02*
X82600Y-29351D01*
X82600Y-29548D02*
X82600Y-29351D01*
X82076Y-29548D02*
X82600Y-29548D01*
X82076Y-30048D02*
X82076Y-29851D01*
X82076Y-29851D02*
X82600Y-29851D01*
X82600Y-30048D02*
X82600Y-29851D01*
X82076Y-30048D02*
X82600Y-30048D01*
X82076Y-30548D02*
X82076Y-30351D01*
X82076Y-30351D02*
X82600Y-30351D01*
X82600Y-30548D02*
X82600Y-30351D01*
X82076Y-30548D02*
X82600Y-30548D01*
X82076Y-31048D02*
X82076Y-30851D01*
X82076Y-30851D02*
X82600Y-30851D01*
X82600Y-31048D02*
X82600Y-30851D01*
X82076Y-31048D02*
X82600Y-31048D01*
X82076Y-31548D02*
X82076Y-31351D01*
X82076Y-31351D02*
X82600Y-31351D01*
X82600Y-31548D02*
X82600Y-31351D01*
X82076Y-31548D02*
X82600Y-31548D01*
X82076Y-32048D02*
X82076Y-31851D01*
X82076Y-31851D02*
X82600Y-31851D01*
X82600Y-32048D02*
X82600Y-31851D01*
X82076Y-32048D02*
X82600Y-32048D01*
G54D12*
X82037Y-23988D02*
X77463Y-23988D01*
X77463Y-23988D02*
X77463Y-32412D01*
X77463Y-32412D02*
X82037Y-32412D01*
X82037Y-32412D02*
X82037Y-23988D01*
G54D11*
X90850Y-19848D02*
X90850Y-19651D01*
X90850Y-19651D02*
X91374Y-19651D01*
X91374Y-19848D02*
X91374Y-19651D01*
X90850Y-19848D02*
X91374Y-19848D01*
X90850Y-19348D02*
X90850Y-19151D01*
X90850Y-19151D02*
X91374Y-19151D01*
X91374Y-19348D02*
X91374Y-19151D01*
X90850Y-19348D02*
X91374Y-19348D01*
X90850Y-18848D02*
X90850Y-18651D01*
X90850Y-18651D02*
X91374Y-18651D01*
X91374Y-18848D02*
X91374Y-18651D01*
X90850Y-18848D02*
X91374Y-18848D01*
X90850Y-18348D02*
X90850Y-18151D01*
X90850Y-18151D02*
X91374Y-18151D01*
X91374Y-18348D02*
X91374Y-18151D01*
X90850Y-18348D02*
X91374Y-18348D01*
X90850Y-17848D02*
X90850Y-17651D01*
X90850Y-17651D02*
X91374Y-17651D01*
X91374Y-17848D02*
X91374Y-17651D01*
X90850Y-17848D02*
X91374Y-17848D01*
X90850Y-17348D02*
X90850Y-17151D01*
X90850Y-17151D02*
X91374Y-17151D01*
X91374Y-17348D02*
X91374Y-17151D01*
X90850Y-17348D02*
X91374Y-17348D01*
X90850Y-16848D02*
X90850Y-16651D01*
X90850Y-16651D02*
X91374Y-16651D01*
X91374Y-16848D02*
X91374Y-16651D01*
X90850Y-16848D02*
X91374Y-16848D01*
X90850Y-16348D02*
X90850Y-16151D01*
X90850Y-16151D02*
X91374Y-16151D01*
X91374Y-16348D02*
X91374Y-16151D01*
X90850Y-16348D02*
X91374Y-16348D01*
X90850Y-15849D02*
X90850Y-15652D01*
X90850Y-15652D02*
X91374Y-15652D01*
X91374Y-15849D02*
X91374Y-15652D01*
X90850Y-15849D02*
X91374Y-15849D01*
X90850Y-15349D02*
X90850Y-15152D01*
X90850Y-15152D02*
X91374Y-15152D01*
X91374Y-15349D02*
X91374Y-15152D01*
X90850Y-15349D02*
X91374Y-15349D01*
X90850Y-14849D02*
X90850Y-14652D01*
X90850Y-14652D02*
X91374Y-14652D01*
X91374Y-14849D02*
X91374Y-14652D01*
X90850Y-14849D02*
X91374Y-14849D01*
X90850Y-14349D02*
X90850Y-14152D01*
X90850Y-14152D02*
X91374Y-14152D01*
X91374Y-14349D02*
X91374Y-14152D01*
X90850Y-14349D02*
X91374Y-14349D01*
X90850Y-13849D02*
X90850Y-13652D01*
X90850Y-13652D02*
X91374Y-13652D01*
X91374Y-13849D02*
X91374Y-13652D01*
X90850Y-13849D02*
X91374Y-13849D01*
X90850Y-13349D02*
X90850Y-13152D01*
X90850Y-13152D02*
X91374Y-13152D01*
X91374Y-13349D02*
X91374Y-13152D01*
X90850Y-13349D02*
X91374Y-13349D01*
X90850Y-12849D02*
X90850Y-12652D01*
X90850Y-12652D02*
X91374Y-12652D01*
X91374Y-12849D02*
X91374Y-12652D01*
X90850Y-12849D02*
X91374Y-12849D01*
X90850Y-12349D02*
X90850Y-12152D01*
X90850Y-12152D02*
X91374Y-12152D01*
X91374Y-12349D02*
X91374Y-12152D01*
X90850Y-12349D02*
X91374Y-12349D01*
X96026Y-12349D02*
X96026Y-12152D01*
X96026Y-12152D02*
X96550Y-12152D01*
X96550Y-12349D02*
X96550Y-12152D01*
X96026Y-12349D02*
X96550Y-12349D01*
X96026Y-12849D02*
X96026Y-12652D01*
X96026Y-12652D02*
X96550Y-12652D01*
X96550Y-12849D02*
X96550Y-12652D01*
X96026Y-12849D02*
X96550Y-12849D01*
X96026Y-13349D02*
X96026Y-13152D01*
X96026Y-13152D02*
X96550Y-13152D01*
X96550Y-13349D02*
X96550Y-13152D01*
X96026Y-13349D02*
X96550Y-13349D01*
X96026Y-13849D02*
X96026Y-13652D01*
X96026Y-13652D02*
X96550Y-13652D01*
X96550Y-13849D02*
X96550Y-13652D01*
X96026Y-13849D02*
X96550Y-13849D01*
X96026Y-14349D02*
X96026Y-14152D01*
X96026Y-14152D02*
X96550Y-14152D01*
X96550Y-14349D02*
X96550Y-14152D01*
X96026Y-14349D02*
X96550Y-14349D01*
X96026Y-14849D02*
X96026Y-14652D01*
X96026Y-14652D02*
X96550Y-14652D01*
X96550Y-14849D02*
X96550Y-14652D01*
X96026Y-14849D02*
X96550Y-14849D01*
X96026Y-15349D02*
X96026Y-15152D01*
X96026Y-15152D02*
X96550Y-15152D01*
X96550Y-15349D02*
X96550Y-15152D01*
X96026Y-15349D02*
X96550Y-15349D01*
X96026Y-15849D02*
X96026Y-15652D01*
X96026Y-15652D02*
X96550Y-15652D01*
X96550Y-15849D02*
X96550Y-15652D01*
X96026Y-15849D02*
X96550Y-15849D01*
X96026Y-16348D02*
X96026Y-16151D01*
X96026Y-16151D02*
X96550Y-16151D01*
X96550Y-16348D02*
X96550Y-16151D01*
X96026Y-16348D02*
X96550Y-16348D01*
X96026Y-16848D02*
X96026Y-16651D01*
X96026Y-16651D02*
X96550Y-16651D01*
X96550Y-16848D02*
X96550Y-16651D01*
X96026Y-16848D02*
X96550Y-16848D01*
X96026Y-17348D02*
X96026Y-17151D01*
X96026Y-17151D02*
X96550Y-17151D01*
X96550Y-17348D02*
X96550Y-17151D01*
X96026Y-17348D02*
X96550Y-17348D01*
X96026Y-17848D02*
X96026Y-17651D01*
X96026Y-17651D02*
X96550Y-17651D01*
X96550Y-17848D02*
X96550Y-17651D01*
X96026Y-17848D02*
X96550Y-17848D01*
X96026Y-18348D02*
X96026Y-18151D01*
X96026Y-18151D02*
X96550Y-18151D01*
X96550Y-18348D02*
X96550Y-18151D01*
X96026Y-18348D02*
X96550Y-18348D01*
X96026Y-18848D02*
X96026Y-18651D01*
X96026Y-18651D02*
X96550Y-18651D01*
X96550Y-18848D02*
X96550Y-18651D01*
X96026Y-18848D02*
X96550Y-18848D01*
X96026Y-19348D02*
X96026Y-19151D01*
X96026Y-19151D02*
X96550Y-19151D01*
X96550Y-19348D02*
X96550Y-19151D01*
X96026Y-19348D02*
X96550Y-19348D01*
X96026Y-19848D02*
X96026Y-19651D01*
X96026Y-19651D02*
X96550Y-19651D01*
X96550Y-19848D02*
X96550Y-19651D01*
X96026Y-19848D02*
X96550Y-19848D01*
G54D12*
X95987Y-11788D02*
X91413Y-11788D01*
X91413Y-11788D02*
X91413Y-20212D01*
X91413Y-20212D02*
X95987Y-20212D01*
X95987Y-20212D02*
X95987Y-11788D01*
G54D11*
X90850Y-32048D02*
X90850Y-31851D01*
X90850Y-31851D02*
X91374Y-31851D01*
X91374Y-32048D02*
X91374Y-31851D01*
X90850Y-32048D02*
X91374Y-32048D01*
X90850Y-31548D02*
X90850Y-31351D01*
X90850Y-31351D02*
X91374Y-31351D01*
X91374Y-31548D02*
X91374Y-31351D01*
X90850Y-31548D02*
X91374Y-31548D01*
X90850Y-31048D02*
X90850Y-30851D01*
X90850Y-30851D02*
X91374Y-30851D01*
X91374Y-31048D02*
X91374Y-30851D01*
X90850Y-31048D02*
X91374Y-31048D01*
X90850Y-30548D02*
X90850Y-30351D01*
X90850Y-30351D02*
X91374Y-30351D01*
X91374Y-30548D02*
X91374Y-30351D01*
X90850Y-30548D02*
X91374Y-30548D01*
X90850Y-30048D02*
X90850Y-29851D01*
X90850Y-29851D02*
X91374Y-29851D01*
X91374Y-30048D02*
X91374Y-29851D01*
X90850Y-30048D02*
X91374Y-30048D01*
X90850Y-29548D02*
X90850Y-29351D01*
X90850Y-29351D02*
X91374Y-29351D01*
X91374Y-29548D02*
X91374Y-29351D01*
X90850Y-29548D02*
X91374Y-29548D01*
X90850Y-29048D02*
X90850Y-28851D01*
X90850Y-28851D02*
X91374Y-28851D01*
X91374Y-29048D02*
X91374Y-28851D01*
X90850Y-29048D02*
X91374Y-29048D01*
X90850Y-28548D02*
X90850Y-28351D01*
X90850Y-28351D02*
X91374Y-28351D01*
X91374Y-28548D02*
X91374Y-28351D01*
X90850Y-28548D02*
X91374Y-28548D01*
X90850Y-28049D02*
X90850Y-27852D01*
X90850Y-27852D02*
X91374Y-27852D01*
X91374Y-28049D02*
X91374Y-27852D01*
X90850Y-28049D02*
X91374Y-28049D01*
X90850Y-27549D02*
X90850Y-27352D01*
X90850Y-27352D02*
X91374Y-27352D01*
X91374Y-27549D02*
X91374Y-27352D01*
X90850Y-27549D02*
X91374Y-27549D01*
X90850Y-27049D02*
X90850Y-26852D01*
X90850Y-26852D02*
X91374Y-26852D01*
X91374Y-27049D02*
X91374Y-26852D01*
X90850Y-27049D02*
X91374Y-27049D01*
X90850Y-26549D02*
X90850Y-26352D01*
X90850Y-26352D02*
X91374Y-26352D01*
X91374Y-26549D02*
X91374Y-26352D01*
X90850Y-26549D02*
X91374Y-26549D01*
X90850Y-26049D02*
X90850Y-25852D01*
X90850Y-25852D02*
X91374Y-25852D01*
X91374Y-26049D02*
X91374Y-25852D01*
X90850Y-26049D02*
X91374Y-26049D01*
X90850Y-25549D02*
X90850Y-25352D01*
X90850Y-25352D02*
X91374Y-25352D01*
X91374Y-25549D02*
X91374Y-25352D01*
X90850Y-25549D02*
X91374Y-25549D01*
X90850Y-25049D02*
X90850Y-24852D01*
X90850Y-24852D02*
X91374Y-24852D01*
X91374Y-25049D02*
X91374Y-24852D01*
X90850Y-25049D02*
X91374Y-25049D01*
X90850Y-24549D02*
X90850Y-24352D01*
X90850Y-24352D02*
X91374Y-24352D01*
X91374Y-24549D02*
X91374Y-24352D01*
X90850Y-24549D02*
X91374Y-24549D01*
X96026Y-24549D02*
X96026Y-24352D01*
X96026Y-24352D02*
X96550Y-24352D01*
X96550Y-24549D02*
X96550Y-24352D01*
X96026Y-24549D02*
X96550Y-24549D01*
X96026Y-25049D02*
X96026Y-24852D01*
X96026Y-24852D02*
X96550Y-24852D01*
X96550Y-25049D02*
X96550Y-24852D01*
X96026Y-25049D02*
X96550Y-25049D01*
X96026Y-25549D02*
X96026Y-25352D01*
X96026Y-25352D02*
X96550Y-25352D01*
X96550Y-25549D02*
X96550Y-25352D01*
X96026Y-25549D02*
X96550Y-25549D01*
X96026Y-26049D02*
X96026Y-25852D01*
X96026Y-25852D02*
X96550Y-25852D01*
X96550Y-26049D02*
X96550Y-25852D01*
X96026Y-26049D02*
X96550Y-26049D01*
X96026Y-26549D02*
X96026Y-26352D01*
X96026Y-26352D02*
X96550Y-26352D01*
X96550Y-26549D02*
X96550Y-26352D01*
X96026Y-26549D02*
X96550Y-26549D01*
X96026Y-27049D02*
X96026Y-26852D01*
X96026Y-26852D02*
X96550Y-26852D01*
X96550Y-27049D02*
X96550Y-26852D01*
X96026Y-27049D02*
X96550Y-27049D01*
X96026Y-27549D02*
X96026Y-27352D01*
X96026Y-27352D02*
X96550Y-27352D01*
X96550Y-27549D02*
X96550Y-27352D01*
X96026Y-27549D02*
X96550Y-27549D01*
X96026Y-28049D02*
X96026Y-27852D01*
X96026Y-27852D02*
X96550Y-27852D01*
X96550Y-28049D02*
X96550Y-27852D01*
X96026Y-28049D02*
X96550Y-28049D01*
X96026Y-28548D02*
X96026Y-28351D01*
X96026Y-28351D02*
X96550Y-28351D01*
X96550Y-28548D02*
X96550Y-28351D01*
X96026Y-28548D02*
X96550Y-28548D01*
X96026Y-29048D02*
X96026Y-28851D01*
X96026Y-28851D02*
X96550Y-28851D01*
X96550Y-29048D02*
X96550Y-28851D01*
X96026Y-29048D02*
X96550Y-29048D01*
X96026Y-29548D02*
X96026Y-29351D01*
X96026Y-29351D02*
X96550Y-29351D01*
X96550Y-29548D02*
X96550Y-29351D01*
X96026Y-29548D02*
X96550Y-29548D01*
X96026Y-30048D02*
X96026Y-29851D01*
X96026Y-29851D02*
X96550Y-29851D01*
X96550Y-30048D02*
X96550Y-29851D01*
X96026Y-30048D02*
X96550Y-30048D01*
X96026Y-30548D02*
X96026Y-30351D01*
X96026Y-30351D02*
X96550Y-30351D01*
X96550Y-30548D02*
X96550Y-30351D01*
X96026Y-30548D02*
X96550Y-30548D01*
X96026Y-31048D02*
X96026Y-30851D01*
X96026Y-30851D02*
X96550Y-30851D01*
X96550Y-31048D02*
X96550Y-30851D01*
X96026Y-31048D02*
X96550Y-31048D01*
X96026Y-31548D02*
X96026Y-31351D01*
X96026Y-31351D02*
X96550Y-31351D01*
X96550Y-31548D02*
X96550Y-31351D01*
X96026Y-31548D02*
X96550Y-31548D01*
X96026Y-32048D02*
X96026Y-31851D01*
X96026Y-31851D02*
X96550Y-31851D01*
X96550Y-32048D02*
X96550Y-31851D01*
X96026Y-32048D02*
X96550Y-32048D01*
G54D12*
X95987Y-23988D02*
X91413Y-23988D01*
X91413Y-23988D02*
X91413Y-32412D01*
X91413Y-32412D02*
X95987Y-32412D01*
X95987Y-32412D02*
X95987Y-23988D01*
G54D13*
X27187Y-12076D02*
X27187Y-10524D01*
X27187Y-10524D02*
X26413Y-10524D01*
X26413Y-10524D02*
X26413Y-12076D01*
X26413Y-12076D02*
X27187Y-12076D01*
X14413Y-10524D02*
X14413Y-12076D01*
X14413Y-12076D02*
X15187Y-12076D01*
X15187Y-12076D02*
X15187Y-10524D01*
X15187Y-10524D02*
X14413Y-10524D01*
X21063Y-10574D02*
X21063Y-12126D01*
X21063Y-12126D02*
X21837Y-12126D01*
X21837Y-12126D02*
X21837Y-10574D01*
X21837Y-10574D02*
X21063Y-10574D01*
X16613Y-10574D02*
X16613Y-12126D01*
X16613Y-12126D02*
X17387Y-12126D01*
X17387Y-12126D02*
X17387Y-10574D01*
X17387Y-10574D02*
X16613Y-10574D01*
X18813Y-10574D02*
X18813Y-12126D01*
X18813Y-12126D02*
X19587Y-12126D01*
X19587Y-12126D02*
X19587Y-10574D01*
X19587Y-10574D02*
X18813Y-10574D01*
X31787Y-12076D02*
X31787Y-10524D01*
X31787Y-10524D02*
X31013Y-10524D01*
X31013Y-10524D02*
X31013Y-12076D01*
X31013Y-12076D02*
X31787Y-12076D01*
X28613Y-10524D02*
X28613Y-12076D01*
X28613Y-12076D02*
X29387Y-12076D01*
X29387Y-12076D02*
X29387Y-10524D01*
X29387Y-10524D02*
X28613Y-10524D01*
X33313Y-10524D02*
X33313Y-12076D01*
X33313Y-12076D02*
X34087Y-12076D01*
X34087Y-12076D02*
X34087Y-10524D01*
X34087Y-10524D02*
X33313Y-10524D01*
X42463Y-10474D02*
X42463Y-12026D01*
X42463Y-12026D02*
X43237Y-12026D01*
X43237Y-12026D02*
X43237Y-10474D01*
X43237Y-10474D02*
X42463Y-10474D01*
X40013Y-10474D02*
X40013Y-12026D01*
X40013Y-12026D02*
X40787Y-12026D01*
X40787Y-12026D02*
X40787Y-10474D01*
X40787Y-10474D02*
X40013Y-10474D01*
X37713Y-10474D02*
X37713Y-12026D01*
X37713Y-12026D02*
X38487Y-12026D01*
X38487Y-12026D02*
X38487Y-10474D01*
X38487Y-10474D02*
X37713Y-10474D01*
X35513Y-10524D02*
X35513Y-12076D01*
X35513Y-12076D02*
X36287Y-12076D01*
X36287Y-12076D02*
X36287Y-10524D01*
X36287Y-10524D02*
X35513Y-10524D01*
G54D14*
X95452Y-7169D02*
X95857Y-7169D01*
X95904Y-7145D01*
X95928Y-7121D01*
X95952Y-7073D01*
X95952Y-6978D01*
X95928Y-6930D01*
X95904Y-6907D01*
X95857Y-6883D01*
X95452Y-6883D01*
X95619Y-6430D02*
X95952Y-6430D01*
X95428Y-6550D02*
X95785Y-6669D01*
X95785Y-6359D01*
X95500Y-6192D02*
X95476Y-6169D01*
X95452Y-6121D01*
X95452Y-6002D01*
X95476Y-5954D01*
X95500Y-5930D01*
X95547Y-5907D01*
X95595Y-5907D01*
X95666Y-5930D01*
X95952Y-6216D01*
X95952Y-5907D01*
X98428Y-3947D02*
X98452Y-3876D01*
X98452Y-3757D01*
X98428Y-3709D01*
X98404Y-3685D01*
X98357Y-3661D01*
X98309Y-3661D01*
X98261Y-3685D01*
X98238Y-3709D01*
X98214Y-3757D01*
X98190Y-3852D01*
X98166Y-3900D01*
X98142Y-3923D01*
X98095Y-3947D01*
X98047Y-3947D01*
X98000Y-3923D01*
X97976Y-3900D01*
X97952Y-3852D01*
X97952Y-3733D01*
X97976Y-3661D01*
X98452Y-3161D02*
X98214Y-3328D01*
X98452Y-3447D02*
X97952Y-3447D01*
X97952Y-3257D01*
X97976Y-3209D01*
X98000Y-3185D01*
X98047Y-3161D01*
X98119Y-3161D01*
X98166Y-3185D01*
X98190Y-3209D01*
X98214Y-3257D01*
X98214Y-3447D01*
X98309Y-2971D02*
X98309Y-2733D01*
X98452Y-3019D02*
X97952Y-2852D01*
X98452Y-2685D01*
X98452Y-2519D02*
X97952Y-2519D01*
X98309Y-2352D01*
X97952Y-2185D01*
X98452Y-2185D01*
X98500Y-2066D02*
X98500Y-1685D01*
X97952Y-1328D02*
X97952Y-1566D01*
X98190Y-1590D01*
X98166Y-1566D01*
X98142Y-1519D01*
X98142Y-1400D01*
X98166Y-1352D01*
X98190Y-1328D01*
X98238Y-1304D01*
X98357Y-1304D01*
X98404Y-1328D01*
X98428Y-1352D01*
X98452Y-1400D01*
X98452Y-1519D01*
X98428Y-1566D01*
X98404Y-1590D01*
X98452Y-828D02*
X98452Y-1114D01*
X98452Y-971D02*
X97952Y-971D01*
X98023Y-1019D01*
X98071Y-1066D01*
X98095Y-1114D01*
X98000Y-638D02*
X97976Y-614D01*
X97952Y-566D01*
X97952Y-447D01*
X97976Y-399D01*
X98000Y-376D01*
X98047Y-352D01*
X98095Y-352D01*
X98166Y-376D01*
X98452Y-661D01*
X98452Y-352D01*
X98452Y-138D02*
X97952Y-138D01*
X98452Y147D02*
X98166Y-66D01*
X97952Y147D02*
X98238Y-138D01*
X98190Y528D02*
X98214Y600D01*
X98238Y623D01*
X98285Y647D01*
X98357Y647D01*
X98404Y623D01*
X98428Y600D01*
X98452Y552D01*
X98452Y361D01*
X97952Y361D01*
X97952Y528D01*
X97976Y576D01*
X98000Y600D01*
X98047Y623D01*
X98095Y623D01*
X98142Y600D01*
X98166Y576D01*
X98190Y528D01*
X98190Y361D01*
G54D15*
X97437Y-7002D02*
X97152Y-7002D01*
X97295Y-7002D02*
X97295Y-6502D01*
X97247Y-6573D01*
X97199Y-6621D01*
X97152Y-6645D01*
G54D14*
X53852Y-5719D02*
X54257Y-5719D01*
X54304Y-5695D01*
X54328Y-5671D01*
X54352Y-5623D01*
X54352Y-5528D01*
X54328Y-5480D01*
X54304Y-5457D01*
X54257Y-5433D01*
X53852Y-5433D01*
X53852Y-5242D02*
X53852Y-4933D01*
X54042Y-5100D01*
X54042Y-5028D01*
X54066Y-4980D01*
X54090Y-4957D01*
X54138Y-4933D01*
X54257Y-4933D01*
X54304Y-4957D01*
X54328Y-4980D01*
X54352Y-5028D01*
X54352Y-5171D01*
X54328Y-5219D01*
X54304Y-5242D01*
X53900Y-4742D02*
X53876Y-4719D01*
X53852Y-4671D01*
X53852Y-4552D01*
X53876Y-4504D01*
X53900Y-4480D01*
X53947Y-4457D01*
X53995Y-4457D01*
X54066Y-4480D01*
X54352Y-4766D01*
X54352Y-4457D01*
X56928Y-6247D02*
X56952Y-6176D01*
X56952Y-6057D01*
X56928Y-6009D01*
X56904Y-5985D01*
X56857Y-5961D01*
X56809Y-5961D01*
X56761Y-5985D01*
X56738Y-6009D01*
X56714Y-6057D01*
X56690Y-6152D01*
X56666Y-6200D01*
X56642Y-6223D01*
X56595Y-6247D01*
X56547Y-6247D01*
X56500Y-6223D01*
X56476Y-6200D01*
X56452Y-6152D01*
X56452Y-6033D01*
X56476Y-5961D01*
X56952Y-5461D02*
X56714Y-5628D01*
X56952Y-5747D02*
X56452Y-5747D01*
X56452Y-5557D01*
X56476Y-5509D01*
X56500Y-5485D01*
X56547Y-5461D01*
X56619Y-5461D01*
X56666Y-5485D01*
X56690Y-5509D01*
X56714Y-5557D01*
X56714Y-5747D01*
X56809Y-5271D02*
X56809Y-5033D01*
X56952Y-5319D02*
X56452Y-5152D01*
X56952Y-4985D01*
X56952Y-4819D02*
X56452Y-4819D01*
X56809Y-4652D01*
X56452Y-4485D01*
X56952Y-4485D01*
X57000Y-4366D02*
X57000Y-3985D01*
X56452Y-3628D02*
X56452Y-3866D01*
X56690Y-3890D01*
X56666Y-3866D01*
X56642Y-3819D01*
X56642Y-3700D01*
X56666Y-3652D01*
X56690Y-3628D01*
X56738Y-3604D01*
X56857Y-3604D01*
X56904Y-3628D01*
X56928Y-3652D01*
X56952Y-3700D01*
X56952Y-3819D01*
X56928Y-3866D01*
X56904Y-3890D01*
X56952Y-3128D02*
X56952Y-3414D01*
X56952Y-3271D02*
X56452Y-3271D01*
X56523Y-3319D01*
X56571Y-3366D01*
X56595Y-3414D01*
X56500Y-2938D02*
X56476Y-2914D01*
X56452Y-2866D01*
X56452Y-2747D01*
X56476Y-2699D01*
X56500Y-2676D01*
X56547Y-2652D01*
X56595Y-2652D01*
X56666Y-2676D01*
X56952Y-2961D01*
X56952Y-2652D01*
X56952Y-2438D02*
X56452Y-2438D01*
X56952Y-2152D02*
X56666Y-2366D01*
X56452Y-2152D02*
X56738Y-2438D01*
X56690Y-1771D02*
X56714Y-1699D01*
X56738Y-1676D01*
X56785Y-1652D01*
X56857Y-1652D01*
X56904Y-1676D01*
X56928Y-1699D01*
X56952Y-1747D01*
X56952Y-1938D01*
X56452Y-1938D01*
X56452Y-1771D01*
X56476Y-1723D01*
X56500Y-1699D01*
X56547Y-1676D01*
X56595Y-1676D01*
X56642Y-1699D01*
X56666Y-1723D01*
X56690Y-1771D01*
X56690Y-1938D01*
G54D15*
X56892Y-7652D02*
X56607Y-7652D01*
X56750Y-7652D02*
X56750Y-7152D01*
X56702Y-7223D01*
X56654Y-7271D01*
X56607Y-7295D01*
G54D14*
X68752Y-8269D02*
X69157Y-8269D01*
X69204Y-8245D01*
X69228Y-8221D01*
X69252Y-8173D01*
X69252Y-8078D01*
X69228Y-8030D01*
X69204Y-8007D01*
X69157Y-7983D01*
X68752Y-7983D01*
X68752Y-7792D02*
X68752Y-7483D01*
X68942Y-7650D01*
X68942Y-7578D01*
X68966Y-7530D01*
X68990Y-7507D01*
X69038Y-7483D01*
X69157Y-7483D01*
X69204Y-7507D01*
X69228Y-7530D01*
X69252Y-7578D01*
X69252Y-7721D01*
X69228Y-7769D01*
X69204Y-7792D01*
X68919Y-7054D02*
X69252Y-7054D01*
X68728Y-7173D02*
X69085Y-7292D01*
X69085Y-6983D01*
X71528Y-3947D02*
X71552Y-3876D01*
X71552Y-3757D01*
X71528Y-3709D01*
X71504Y-3685D01*
X71457Y-3661D01*
X71409Y-3661D01*
X71361Y-3685D01*
X71338Y-3709D01*
X71314Y-3757D01*
X71290Y-3852D01*
X71266Y-3900D01*
X71242Y-3923D01*
X71195Y-3947D01*
X71147Y-3947D01*
X71100Y-3923D01*
X71076Y-3900D01*
X71052Y-3852D01*
X71052Y-3733D01*
X71076Y-3661D01*
X71552Y-3161D02*
X71314Y-3328D01*
X71552Y-3447D02*
X71052Y-3447D01*
X71052Y-3257D01*
X71076Y-3209D01*
X71100Y-3185D01*
X71147Y-3161D01*
X71219Y-3161D01*
X71266Y-3185D01*
X71290Y-3209D01*
X71314Y-3257D01*
X71314Y-3447D01*
X71409Y-2971D02*
X71409Y-2733D01*
X71552Y-3019D02*
X71052Y-2852D01*
X71552Y-2685D01*
X71552Y-2519D02*
X71052Y-2519D01*
X71409Y-2352D01*
X71052Y-2185D01*
X71552Y-2185D01*
X71600Y-2066D02*
X71600Y-1685D01*
X71052Y-1328D02*
X71052Y-1566D01*
X71290Y-1590D01*
X71266Y-1566D01*
X71242Y-1519D01*
X71242Y-1400D01*
X71266Y-1352D01*
X71290Y-1328D01*
X71338Y-1304D01*
X71457Y-1304D01*
X71504Y-1328D01*
X71528Y-1352D01*
X71552Y-1400D01*
X71552Y-1519D01*
X71528Y-1566D01*
X71504Y-1590D01*
X71552Y-828D02*
X71552Y-1114D01*
X71552Y-971D02*
X71052Y-971D01*
X71123Y-1019D01*
X71171Y-1066D01*
X71195Y-1114D01*
X71100Y-638D02*
X71076Y-614D01*
X71052Y-566D01*
X71052Y-447D01*
X71076Y-399D01*
X71100Y-376D01*
X71147Y-352D01*
X71195Y-352D01*
X71266Y-376D01*
X71552Y-661D01*
X71552Y-352D01*
X71552Y-138D02*
X71052Y-138D01*
X71552Y147D02*
X71266Y-66D01*
X71052Y147D02*
X71338Y-138D01*
X71290Y528D02*
X71314Y600D01*
X71338Y623D01*
X71385Y647D01*
X71457Y647D01*
X71504Y623D01*
X71528Y600D01*
X71552Y552D01*
X71552Y361D01*
X71052Y361D01*
X71052Y528D01*
X71076Y576D01*
X71100Y600D01*
X71147Y623D01*
X71195Y623D01*
X71242Y600D01*
X71266Y576D01*
X71290Y528D01*
X71290Y361D01*
G54D15*
X70792Y-7172D02*
X70507Y-7172D01*
X70650Y-7172D02*
X70650Y-6672D01*
X70602Y-6743D01*
X70554Y-6791D01*
X70507Y-6815D01*
G54D14*
X67952Y-7119D02*
X68357Y-7119D01*
X68404Y-7095D01*
X68428Y-7071D01*
X68452Y-7023D01*
X68452Y-6928D01*
X68428Y-6880D01*
X68404Y-6857D01*
X68357Y-6833D01*
X67952Y-6833D01*
X67952Y-6642D02*
X67952Y-6333D01*
X68142Y-6500D01*
X68142Y-6428D01*
X68166Y-6380D01*
X68190Y-6357D01*
X68238Y-6333D01*
X68357Y-6333D01*
X68404Y-6357D01*
X68428Y-6380D01*
X68452Y-6428D01*
X68452Y-6571D01*
X68428Y-6619D01*
X68404Y-6642D01*
X67952Y-5904D02*
X67952Y-6000D01*
X67976Y-6047D01*
X68000Y-6071D01*
X68071Y-6119D01*
X68166Y-6142D01*
X68357Y-6142D01*
X68404Y-6119D01*
X68428Y-6095D01*
X68452Y-6047D01*
X68452Y-5952D01*
X68428Y-5904D01*
X68404Y-5880D01*
X68357Y-5857D01*
X68238Y-5857D01*
X68190Y-5880D01*
X68166Y-5904D01*
X68142Y-5952D01*
X68142Y-6047D01*
X68166Y-6095D01*
X68190Y-6119D01*
X68238Y-6142D01*
X70328Y-3847D02*
X70352Y-3776D01*
X70352Y-3657D01*
X70328Y-3609D01*
X70304Y-3585D01*
X70257Y-3561D01*
X70209Y-3561D01*
X70161Y-3585D01*
X70138Y-3609D01*
X70114Y-3657D01*
X70090Y-3752D01*
X70066Y-3800D01*
X70042Y-3823D01*
X69995Y-3847D01*
X69947Y-3847D01*
X69900Y-3823D01*
X69876Y-3800D01*
X69852Y-3752D01*
X69852Y-3633D01*
X69876Y-3561D01*
X70352Y-3061D02*
X70114Y-3228D01*
X70352Y-3347D02*
X69852Y-3347D01*
X69852Y-3157D01*
X69876Y-3109D01*
X69900Y-3085D01*
X69947Y-3061D01*
X70019Y-3061D01*
X70066Y-3085D01*
X70090Y-3109D01*
X70114Y-3157D01*
X70114Y-3347D01*
X70209Y-2871D02*
X70209Y-2633D01*
X70352Y-2919D02*
X69852Y-2752D01*
X70352Y-2585D01*
X70352Y-2419D02*
X69852Y-2419D01*
X70209Y-2252D01*
X69852Y-2085D01*
X70352Y-2085D01*
X70400Y-1966D02*
X70400Y-1585D01*
X69852Y-1228D02*
X69852Y-1466D01*
X70090Y-1490D01*
X70066Y-1466D01*
X70042Y-1419D01*
X70042Y-1300D01*
X70066Y-1252D01*
X70090Y-1228D01*
X70138Y-1204D01*
X70257Y-1204D01*
X70304Y-1228D01*
X70328Y-1252D01*
X70352Y-1300D01*
X70352Y-1419D01*
X70328Y-1466D01*
X70304Y-1490D01*
X70352Y-728D02*
X70352Y-1014D01*
X70352Y-871D02*
X69852Y-871D01*
X69923Y-919D01*
X69971Y-966D01*
X69995Y-1014D01*
X69900Y-538D02*
X69876Y-514D01*
X69852Y-466D01*
X69852Y-347D01*
X69876Y-299D01*
X69900Y-276D01*
X69947Y-252D01*
X69995Y-252D01*
X70066Y-276D01*
X70352Y-561D01*
X70352Y-252D01*
X70352Y-38D02*
X69852Y-38D01*
X70352Y247D02*
X70066Y33D01*
X69852Y247D02*
X70138Y-38D01*
X70090Y628D02*
X70114Y700D01*
X70138Y723D01*
X70185Y747D01*
X70257Y747D01*
X70304Y723D01*
X70328Y700D01*
X70352Y652D01*
X70352Y461D01*
X69852Y461D01*
X69852Y628D01*
X69876Y676D01*
X69900Y700D01*
X69947Y723D01*
X69995Y723D01*
X70042Y700D01*
X70066Y676D01*
X70090Y628D01*
X70090Y461D01*
G54D15*
X70042Y-6762D02*
X69757Y-6762D01*
X69900Y-6762D02*
X69900Y-6262D01*
X69852Y-6333D01*
X69804Y-6381D01*
X69757Y-6405D01*
G54D14*
X81502Y-7319D02*
X81907Y-7319D01*
X81954Y-7295D01*
X81978Y-7271D01*
X82002Y-7223D01*
X82002Y-7128D01*
X81978Y-7080D01*
X81954Y-7057D01*
X81907Y-7033D01*
X81502Y-7033D01*
X81502Y-6842D02*
X81502Y-6533D01*
X81692Y-6700D01*
X81692Y-6628D01*
X81716Y-6580D01*
X81740Y-6557D01*
X81788Y-6533D01*
X81907Y-6533D01*
X81954Y-6557D01*
X81978Y-6580D01*
X82002Y-6628D01*
X82002Y-6771D01*
X81978Y-6819D01*
X81954Y-6842D01*
X81716Y-6247D02*
X81692Y-6295D01*
X81669Y-6319D01*
X81621Y-6342D01*
X81597Y-6342D01*
X81550Y-6319D01*
X81526Y-6295D01*
X81502Y-6247D01*
X81502Y-6152D01*
X81526Y-6104D01*
X81550Y-6080D01*
X81597Y-6057D01*
X81621Y-6057D01*
X81669Y-6080D01*
X81692Y-6104D01*
X81716Y-6152D01*
X81716Y-6247D01*
X81740Y-6295D01*
X81764Y-6319D01*
X81811Y-6342D01*
X81907Y-6342D01*
X81954Y-6319D01*
X81978Y-6295D01*
X82002Y-6247D01*
X82002Y-6152D01*
X81978Y-6104D01*
X81954Y-6080D01*
X81907Y-6057D01*
X81811Y-6057D01*
X81764Y-6080D01*
X81740Y-6104D01*
X81716Y-6152D01*
X84478Y-1997D02*
X84502Y-1926D01*
X84502Y-1807D01*
X84478Y-1759D01*
X84454Y-1735D01*
X84407Y-1711D01*
X84359Y-1711D01*
X84311Y-1735D01*
X84288Y-1759D01*
X84264Y-1807D01*
X84240Y-1902D01*
X84216Y-1950D01*
X84192Y-1973D01*
X84145Y-1997D01*
X84097Y-1997D01*
X84050Y-1973D01*
X84026Y-1950D01*
X84002Y-1902D01*
X84002Y-1783D01*
X84026Y-1711D01*
X84502Y-1211D02*
X84264Y-1378D01*
X84502Y-1497D02*
X84002Y-1497D01*
X84002Y-1307D01*
X84026Y-1259D01*
X84050Y-1235D01*
X84097Y-1211D01*
X84169Y-1211D01*
X84216Y-1235D01*
X84240Y-1259D01*
X84264Y-1307D01*
X84264Y-1497D01*
X84359Y-1021D02*
X84359Y-783D01*
X84502Y-1069D02*
X84002Y-902D01*
X84502Y-735D01*
X84502Y-569D02*
X84002Y-569D01*
X84359Y-402D01*
X84002Y-235D01*
X84502Y-235D01*
X84550Y-116D02*
X84550Y264D01*
X84002Y621D02*
X84002Y383D01*
X84240Y359D01*
X84216Y383D01*
X84192Y430D01*
X84192Y550D01*
X84216Y597D01*
X84240Y621D01*
X84288Y645D01*
X84407Y645D01*
X84454Y621D01*
X84478Y597D01*
X84502Y550D01*
X84502Y430D01*
X84478Y383D01*
X84454Y359D01*
X84502Y1121D02*
X84502Y835D01*
X84502Y978D02*
X84002Y978D01*
X84073Y930D01*
X84121Y883D01*
X84145Y835D01*
X84050Y1311D02*
X84026Y1335D01*
X84002Y1383D01*
X84002Y1502D01*
X84026Y1550D01*
X84050Y1573D01*
X84097Y1597D01*
X84145Y1597D01*
X84216Y1573D01*
X84502Y1288D01*
X84502Y1597D01*
X84502Y1811D02*
X84002Y1811D01*
X84502Y2097D02*
X84216Y1883D01*
X84002Y2097D02*
X84288Y1811D01*
X84240Y2478D02*
X84264Y2550D01*
X84288Y2573D01*
X84335Y2597D01*
X84407Y2597D01*
X84454Y2573D01*
X84478Y2550D01*
X84502Y2502D01*
X84502Y2311D01*
X84002Y2311D01*
X84002Y2478D01*
X84026Y2526D01*
X84050Y2550D01*
X84097Y2573D01*
X84145Y2573D01*
X84192Y2550D01*
X84216Y2526D01*
X84240Y2478D01*
X84240Y2311D01*
G54D15*
X83647Y-5482D02*
X83362Y-5482D01*
X83505Y-5482D02*
X83505Y-4982D01*
X83457Y-5053D01*
X83409Y-5101D01*
X83362Y-5125D01*
G54D14*
X81002Y-5219D02*
X81407Y-5219D01*
X81454Y-5195D01*
X81478Y-5171D01*
X81502Y-5123D01*
X81502Y-5028D01*
X81478Y-4980D01*
X81454Y-4957D01*
X81407Y-4933D01*
X81002Y-4933D01*
X81169Y-4480D02*
X81502Y-4480D01*
X80978Y-4600D02*
X81335Y-4719D01*
X81335Y-4409D01*
X81002Y-4123D02*
X81002Y-4076D01*
X81026Y-4028D01*
X81050Y-4004D01*
X81097Y-3980D01*
X81192Y-3957D01*
X81311Y-3957D01*
X81407Y-3980D01*
X81454Y-4004D01*
X81478Y-4028D01*
X81502Y-4076D01*
X81502Y-4123D01*
X81478Y-4171D01*
X81454Y-4195D01*
X81407Y-4219D01*
X81311Y-4242D01*
X81192Y-4242D01*
X81097Y-4219D01*
X81050Y-4195D01*
X81026Y-4171D01*
X81002Y-4123D01*
X83328Y-1997D02*
X83352Y-1926D01*
X83352Y-1807D01*
X83328Y-1759D01*
X83304Y-1735D01*
X83257Y-1711D01*
X83209Y-1711D01*
X83161Y-1735D01*
X83138Y-1759D01*
X83114Y-1807D01*
X83090Y-1902D01*
X83066Y-1950D01*
X83042Y-1973D01*
X82995Y-1997D01*
X82947Y-1997D01*
X82900Y-1973D01*
X82876Y-1950D01*
X82852Y-1902D01*
X82852Y-1783D01*
X82876Y-1711D01*
X83352Y-1211D02*
X83114Y-1378D01*
X83352Y-1497D02*
X82852Y-1497D01*
X82852Y-1307D01*
X82876Y-1259D01*
X82900Y-1235D01*
X82947Y-1211D01*
X83019Y-1211D01*
X83066Y-1235D01*
X83090Y-1259D01*
X83114Y-1307D01*
X83114Y-1497D01*
X83209Y-1021D02*
X83209Y-783D01*
X83352Y-1069D02*
X82852Y-902D01*
X83352Y-735D01*
X83352Y-569D02*
X82852Y-569D01*
X83209Y-402D01*
X82852Y-235D01*
X83352Y-235D01*
X83400Y-116D02*
X83400Y264D01*
X82852Y621D02*
X82852Y383D01*
X83090Y359D01*
X83066Y383D01*
X83042Y430D01*
X83042Y550D01*
X83066Y597D01*
X83090Y621D01*
X83138Y645D01*
X83257Y645D01*
X83304Y621D01*
X83328Y597D01*
X83352Y550D01*
X83352Y430D01*
X83328Y383D01*
X83304Y359D01*
X83352Y1121D02*
X83352Y835D01*
X83352Y978D02*
X82852Y978D01*
X82923Y930D01*
X82971Y883D01*
X82995Y835D01*
X82900Y1311D02*
X82876Y1335D01*
X82852Y1383D01*
X82852Y1502D01*
X82876Y1550D01*
X82900Y1573D01*
X82947Y1597D01*
X82995Y1597D01*
X83066Y1573D01*
X83352Y1288D01*
X83352Y1597D01*
X83352Y1811D02*
X82852Y1811D01*
X83352Y2097D02*
X83066Y1883D01*
X82852Y2097D02*
X83138Y1811D01*
X83090Y2478D02*
X83114Y2550D01*
X83138Y2573D01*
X83185Y2597D01*
X83257Y2597D01*
X83304Y2573D01*
X83328Y2550D01*
X83352Y2502D01*
X83352Y2311D01*
X82852Y2311D01*
X82852Y2478D01*
X82876Y2526D01*
X82900Y2550D01*
X82947Y2573D01*
X82995Y2573D01*
X83042Y2550D01*
X83066Y2526D01*
X83090Y2478D01*
X83090Y2311D01*
G54D15*
X83457Y-6482D02*
X83172Y-6482D01*
X83315Y-6482D02*
X83315Y-5982D01*
X83267Y-6053D01*
X83219Y-6101D01*
X83172Y-6125D01*
G54D14*
X80202Y-17880D02*
X80607Y-17880D01*
X80654Y-17904D01*
X80678Y-17928D01*
X80702Y-17976D01*
X80702Y-18071D01*
X80678Y-18119D01*
X80654Y-18142D01*
X80607Y-18166D01*
X80202Y-18166D01*
X80202Y-18357D02*
X80202Y-18666D01*
X80392Y-18500D01*
X80392Y-18571D01*
X80416Y-18619D01*
X80440Y-18642D01*
X80488Y-18666D01*
X80607Y-18666D01*
X80654Y-18642D01*
X80678Y-18619D01*
X80702Y-18571D01*
X80702Y-18428D01*
X80678Y-18380D01*
X80654Y-18357D01*
X80702Y-18904D02*
X80702Y-19000D01*
X80678Y-19047D01*
X80654Y-19071D01*
X80583Y-19119D01*
X80488Y-19142D01*
X80297Y-19142D01*
X80250Y-19119D01*
X80226Y-19095D01*
X80202Y-19047D01*
X80202Y-18952D01*
X80226Y-18904D01*
X80250Y-18880D01*
X80297Y-18857D01*
X80416Y-18857D01*
X80464Y-18880D01*
X80488Y-18904D01*
X80511Y-18952D01*
X80511Y-19047D01*
X80488Y-19095D01*
X80464Y-19119D01*
X80416Y-19142D01*
X79128Y-14052D02*
X79152Y-14123D01*
X79152Y-14242D01*
X79128Y-14290D01*
X79104Y-14314D01*
X79057Y-14338D01*
X79009Y-14338D01*
X78961Y-14314D01*
X78938Y-14290D01*
X78914Y-14242D01*
X78890Y-14147D01*
X78866Y-14100D01*
X78842Y-14076D01*
X78795Y-14052D01*
X78747Y-14052D01*
X78700Y-14076D01*
X78676Y-14100D01*
X78652Y-14147D01*
X78652Y-14266D01*
X78676Y-14338D01*
X79152Y-14838D02*
X78914Y-14671D01*
X79152Y-14552D02*
X78652Y-14552D01*
X78652Y-14742D01*
X78676Y-14790D01*
X78700Y-14814D01*
X78747Y-14838D01*
X78819Y-14838D01*
X78866Y-14814D01*
X78890Y-14790D01*
X78914Y-14742D01*
X78914Y-14552D01*
X79009Y-15028D02*
X79009Y-15266D01*
X79152Y-14980D02*
X78652Y-15147D01*
X79152Y-15314D01*
X79152Y-15480D02*
X78652Y-15480D01*
X79009Y-15647D01*
X78652Y-15814D01*
X79152Y-15814D01*
X79200Y-15933D02*
X79200Y-16314D01*
X78652Y-16671D02*
X78652Y-16433D01*
X78890Y-16409D01*
X78866Y-16433D01*
X78842Y-16480D01*
X78842Y-16600D01*
X78866Y-16647D01*
X78890Y-16671D01*
X78938Y-16695D01*
X79057Y-16695D01*
X79104Y-16671D01*
X79128Y-16647D01*
X79152Y-16600D01*
X79152Y-16480D01*
X79128Y-16433D01*
X79104Y-16409D01*
X79152Y-17171D02*
X79152Y-16885D01*
X79152Y-17028D02*
X78652Y-17028D01*
X78723Y-16980D01*
X78771Y-16933D01*
X78795Y-16885D01*
X78700Y-17361D02*
X78676Y-17385D01*
X78652Y-17433D01*
X78652Y-17552D01*
X78676Y-17600D01*
X78700Y-17623D01*
X78747Y-17647D01*
X78795Y-17647D01*
X78866Y-17623D01*
X79152Y-17338D01*
X79152Y-17647D01*
X79152Y-17861D02*
X78652Y-17861D01*
X79152Y-18147D02*
X78866Y-17933D01*
X78652Y-18147D02*
X78938Y-17861D01*
X78890Y-18528D02*
X78914Y-18600D01*
X78938Y-18623D01*
X78985Y-18647D01*
X79057Y-18647D01*
X79104Y-18623D01*
X79128Y-18600D01*
X79152Y-18552D01*
X79152Y-18361D01*
X78652Y-18361D01*
X78652Y-18528D01*
X78676Y-18576D01*
X78700Y-18600D01*
X78747Y-18623D01*
X78795Y-18623D01*
X78842Y-18600D01*
X78866Y-18576D01*
X78890Y-18528D01*
X78890Y-18361D01*
G54D15*
X78107Y-19802D02*
X78392Y-19802D01*
X78250Y-19802D02*
X78250Y-19302D01*
X78297Y-19373D01*
X78345Y-19421D01*
X78392Y-19445D01*
G54D14*
X95352Y-5269D02*
X95757Y-5269D01*
X95804Y-5245D01*
X95828Y-5221D01*
X95852Y-5173D01*
X95852Y-5078D01*
X95828Y-5030D01*
X95804Y-5007D01*
X95757Y-4983D01*
X95352Y-4983D01*
X95519Y-4530D02*
X95852Y-4530D01*
X95328Y-4650D02*
X95685Y-4769D01*
X95685Y-4459D01*
X95519Y-4054D02*
X95852Y-4054D01*
X95328Y-4173D02*
X95685Y-4292D01*
X95685Y-3983D01*
X97478Y-3947D02*
X97502Y-3876D01*
X97502Y-3757D01*
X97478Y-3709D01*
X97454Y-3685D01*
X97407Y-3661D01*
X97359Y-3661D01*
X97311Y-3685D01*
X97288Y-3709D01*
X97264Y-3757D01*
X97240Y-3852D01*
X97216Y-3900D01*
X97192Y-3923D01*
X97145Y-3947D01*
X97097Y-3947D01*
X97050Y-3923D01*
X97026Y-3900D01*
X97002Y-3852D01*
X97002Y-3733D01*
X97026Y-3661D01*
X97502Y-3161D02*
X97264Y-3328D01*
X97502Y-3447D02*
X97002Y-3447D01*
X97002Y-3257D01*
X97026Y-3209D01*
X97050Y-3185D01*
X97097Y-3161D01*
X97169Y-3161D01*
X97216Y-3185D01*
X97240Y-3209D01*
X97264Y-3257D01*
X97264Y-3447D01*
X97359Y-2971D02*
X97359Y-2733D01*
X97502Y-3019D02*
X97002Y-2852D01*
X97502Y-2685D01*
X97502Y-2519D02*
X97002Y-2519D01*
X97359Y-2352D01*
X97002Y-2185D01*
X97502Y-2185D01*
X97550Y-2066D02*
X97550Y-1685D01*
X97002Y-1328D02*
X97002Y-1566D01*
X97240Y-1590D01*
X97216Y-1566D01*
X97192Y-1519D01*
X97192Y-1400D01*
X97216Y-1352D01*
X97240Y-1328D01*
X97288Y-1304D01*
X97407Y-1304D01*
X97454Y-1328D01*
X97478Y-1352D01*
X97502Y-1400D01*
X97502Y-1519D01*
X97478Y-1566D01*
X97454Y-1590D01*
X97502Y-828D02*
X97502Y-1114D01*
X97502Y-971D02*
X97002Y-971D01*
X97073Y-1019D01*
X97121Y-1066D01*
X97145Y-1114D01*
X97050Y-638D02*
X97026Y-614D01*
X97002Y-566D01*
X97002Y-447D01*
X97026Y-399D01*
X97050Y-376D01*
X97097Y-352D01*
X97145Y-352D01*
X97216Y-376D01*
X97502Y-661D01*
X97502Y-352D01*
X97502Y-138D02*
X97002Y-138D01*
X97502Y147D02*
X97216Y-66D01*
X97002Y147D02*
X97288Y-138D01*
X97240Y528D02*
X97264Y600D01*
X97288Y623D01*
X97335Y647D01*
X97407Y647D01*
X97454Y623D01*
X97478Y600D01*
X97502Y552D01*
X97502Y361D01*
X97002Y361D01*
X97002Y528D01*
X97026Y576D01*
X97050Y600D01*
X97097Y623D01*
X97145Y623D01*
X97192Y600D01*
X97216Y576D01*
X97240Y528D01*
X97240Y361D01*
G54D15*
X98207Y-7002D02*
X97922Y-7002D01*
X98065Y-7002D02*
X98065Y-6502D01*
X98017Y-6573D01*
X97969Y-6621D01*
X97922Y-6645D01*
G54D14*
X52752Y-30030D02*
X53157Y-30030D01*
X53204Y-30054D01*
X53228Y-30078D01*
X53252Y-30126D01*
X53252Y-30221D01*
X53228Y-30269D01*
X53204Y-30292D01*
X53157Y-30316D01*
X52752Y-30316D01*
X52800Y-30530D02*
X52776Y-30554D01*
X52752Y-30602D01*
X52752Y-30721D01*
X52776Y-30769D01*
X52800Y-30792D01*
X52847Y-30816D01*
X52895Y-30816D01*
X52966Y-30792D01*
X53252Y-30507D01*
X53252Y-30816D01*
X53252Y-31292D02*
X53252Y-31007D01*
X53252Y-31150D02*
X52752Y-31150D01*
X52823Y-31102D01*
X52871Y-31054D01*
X52895Y-31007D01*
X51678Y-26202D02*
X51702Y-26273D01*
X51702Y-26392D01*
X51678Y-26440D01*
X51654Y-26464D01*
X51607Y-26488D01*
X51559Y-26488D01*
X51511Y-26464D01*
X51488Y-26440D01*
X51464Y-26392D01*
X51440Y-26297D01*
X51416Y-26250D01*
X51392Y-26226D01*
X51345Y-26202D01*
X51297Y-26202D01*
X51250Y-26226D01*
X51226Y-26250D01*
X51202Y-26297D01*
X51202Y-26416D01*
X51226Y-26488D01*
X51702Y-26988D02*
X51464Y-26821D01*
X51702Y-26702D02*
X51202Y-26702D01*
X51202Y-26892D01*
X51226Y-26940D01*
X51250Y-26964D01*
X51297Y-26988D01*
X51369Y-26988D01*
X51416Y-26964D01*
X51440Y-26940D01*
X51464Y-26892D01*
X51464Y-26702D01*
X51559Y-27178D02*
X51559Y-27416D01*
X51702Y-27130D02*
X51202Y-27297D01*
X51702Y-27464D01*
X51702Y-27630D02*
X51202Y-27630D01*
X51559Y-27797D01*
X51202Y-27964D01*
X51702Y-27964D01*
X51750Y-28083D02*
X51750Y-28464D01*
X51202Y-28821D02*
X51202Y-28583D01*
X51440Y-28559D01*
X51416Y-28583D01*
X51392Y-28630D01*
X51392Y-28750D01*
X51416Y-28797D01*
X51440Y-28821D01*
X51488Y-28845D01*
X51607Y-28845D01*
X51654Y-28821D01*
X51678Y-28797D01*
X51702Y-28750D01*
X51702Y-28630D01*
X51678Y-28583D01*
X51654Y-28559D01*
X51702Y-29321D02*
X51702Y-29035D01*
X51702Y-29178D02*
X51202Y-29178D01*
X51273Y-29130D01*
X51321Y-29083D01*
X51345Y-29035D01*
X51250Y-29511D02*
X51226Y-29535D01*
X51202Y-29583D01*
X51202Y-29702D01*
X51226Y-29750D01*
X51250Y-29773D01*
X51297Y-29797D01*
X51345Y-29797D01*
X51416Y-29773D01*
X51702Y-29488D01*
X51702Y-29797D01*
X51702Y-30011D02*
X51202Y-30011D01*
X51702Y-30297D02*
X51416Y-30083D01*
X51202Y-30297D02*
X51488Y-30011D01*
X51440Y-30678D02*
X51464Y-30750D01*
X51488Y-30773D01*
X51535Y-30797D01*
X51607Y-30797D01*
X51654Y-30773D01*
X51678Y-30750D01*
X51702Y-30702D01*
X51702Y-30511D01*
X51202Y-30511D01*
X51202Y-30678D01*
X51226Y-30726D01*
X51250Y-30750D01*
X51297Y-30773D01*
X51345Y-30773D01*
X51392Y-30750D01*
X51416Y-30726D01*
X51440Y-30678D01*
X51440Y-30511D01*
G54D15*
X50657Y-31952D02*
X50942Y-31952D01*
X50800Y-31952D02*
X50800Y-31452D01*
X50847Y-31523D01*
X50895Y-31571D01*
X50942Y-31595D01*
G54D14*
X52752Y-17880D02*
X53157Y-17880D01*
X53204Y-17904D01*
X53228Y-17928D01*
X53252Y-17976D01*
X53252Y-18071D01*
X53228Y-18119D01*
X53204Y-18142D01*
X53157Y-18166D01*
X52752Y-18166D01*
X52800Y-18380D02*
X52776Y-18404D01*
X52752Y-18452D01*
X52752Y-18571D01*
X52776Y-18619D01*
X52800Y-18642D01*
X52847Y-18666D01*
X52895Y-18666D01*
X52966Y-18642D01*
X53252Y-18357D01*
X53252Y-18666D01*
X53252Y-18904D02*
X53252Y-19000D01*
X53228Y-19047D01*
X53204Y-19071D01*
X53133Y-19119D01*
X53038Y-19142D01*
X52847Y-19142D01*
X52800Y-19119D01*
X52776Y-19095D01*
X52752Y-19047D01*
X52752Y-18952D01*
X52776Y-18904D01*
X52800Y-18880D01*
X52847Y-18857D01*
X52966Y-18857D01*
X53014Y-18880D01*
X53038Y-18904D01*
X53061Y-18952D01*
X53061Y-19047D01*
X53038Y-19095D01*
X53014Y-19119D01*
X52966Y-19142D01*
X51678Y-14052D02*
X51702Y-14123D01*
X51702Y-14242D01*
X51678Y-14290D01*
X51654Y-14314D01*
X51607Y-14338D01*
X51559Y-14338D01*
X51511Y-14314D01*
X51488Y-14290D01*
X51464Y-14242D01*
X51440Y-14147D01*
X51416Y-14100D01*
X51392Y-14076D01*
X51345Y-14052D01*
X51297Y-14052D01*
X51250Y-14076D01*
X51226Y-14100D01*
X51202Y-14147D01*
X51202Y-14266D01*
X51226Y-14338D01*
X51702Y-14838D02*
X51464Y-14671D01*
X51702Y-14552D02*
X51202Y-14552D01*
X51202Y-14742D01*
X51226Y-14790D01*
X51250Y-14814D01*
X51297Y-14838D01*
X51369Y-14838D01*
X51416Y-14814D01*
X51440Y-14790D01*
X51464Y-14742D01*
X51464Y-14552D01*
X51559Y-15028D02*
X51559Y-15266D01*
X51702Y-14980D02*
X51202Y-15147D01*
X51702Y-15314D01*
X51702Y-15480D02*
X51202Y-15480D01*
X51559Y-15647D01*
X51202Y-15814D01*
X51702Y-15814D01*
X51750Y-15933D02*
X51750Y-16314D01*
X51202Y-16671D02*
X51202Y-16433D01*
X51440Y-16409D01*
X51416Y-16433D01*
X51392Y-16480D01*
X51392Y-16600D01*
X51416Y-16647D01*
X51440Y-16671D01*
X51488Y-16695D01*
X51607Y-16695D01*
X51654Y-16671D01*
X51678Y-16647D01*
X51702Y-16600D01*
X51702Y-16480D01*
X51678Y-16433D01*
X51654Y-16409D01*
X51702Y-17171D02*
X51702Y-16885D01*
X51702Y-17028D02*
X51202Y-17028D01*
X51273Y-16980D01*
X51321Y-16933D01*
X51345Y-16885D01*
X51250Y-17361D02*
X51226Y-17385D01*
X51202Y-17433D01*
X51202Y-17552D01*
X51226Y-17600D01*
X51250Y-17623D01*
X51297Y-17647D01*
X51345Y-17647D01*
X51416Y-17623D01*
X51702Y-17338D01*
X51702Y-17647D01*
X51702Y-17861D02*
X51202Y-17861D01*
X51702Y-18147D02*
X51416Y-17933D01*
X51202Y-18147D02*
X51488Y-17861D01*
X51440Y-18528D02*
X51464Y-18600D01*
X51488Y-18623D01*
X51535Y-18647D01*
X51607Y-18647D01*
X51654Y-18623D01*
X51678Y-18600D01*
X51702Y-18552D01*
X51702Y-18361D01*
X51202Y-18361D01*
X51202Y-18528D01*
X51226Y-18576D01*
X51250Y-18600D01*
X51297Y-18623D01*
X51345Y-18623D01*
X51392Y-18600D01*
X51416Y-18576D01*
X51440Y-18528D01*
X51440Y-18361D01*
G54D15*
X50657Y-19802D02*
X50942Y-19802D01*
X50800Y-19802D02*
X50800Y-19302D01*
X50847Y-19373D01*
X50895Y-19421D01*
X50942Y-19445D01*
G54D14*
X66352Y-30080D02*
X66757Y-30080D01*
X66804Y-30104D01*
X66828Y-30128D01*
X66852Y-30176D01*
X66852Y-30271D01*
X66828Y-30319D01*
X66804Y-30342D01*
X66757Y-30366D01*
X66352Y-30366D01*
X66352Y-30557D02*
X66352Y-30866D01*
X66542Y-30700D01*
X66542Y-30771D01*
X66566Y-30819D01*
X66590Y-30842D01*
X66638Y-30866D01*
X66757Y-30866D01*
X66804Y-30842D01*
X66828Y-30819D01*
X66852Y-30771D01*
X66852Y-30628D01*
X66828Y-30580D01*
X66804Y-30557D01*
X66352Y-31033D02*
X66352Y-31342D01*
X66542Y-31176D01*
X66542Y-31247D01*
X66566Y-31295D01*
X66590Y-31319D01*
X66638Y-31342D01*
X66757Y-31342D01*
X66804Y-31319D01*
X66828Y-31295D01*
X66852Y-31247D01*
X66852Y-31104D01*
X66828Y-31057D01*
X66804Y-31033D01*
X65278Y-26252D02*
X65302Y-26323D01*
X65302Y-26442D01*
X65278Y-26490D01*
X65254Y-26514D01*
X65207Y-26538D01*
X65159Y-26538D01*
X65111Y-26514D01*
X65088Y-26490D01*
X65064Y-26442D01*
X65040Y-26347D01*
X65016Y-26300D01*
X64992Y-26276D01*
X64945Y-26252D01*
X64897Y-26252D01*
X64850Y-26276D01*
X64826Y-26300D01*
X64802Y-26347D01*
X64802Y-26466D01*
X64826Y-26538D01*
X65302Y-27038D02*
X65064Y-26871D01*
X65302Y-26752D02*
X64802Y-26752D01*
X64802Y-26942D01*
X64826Y-26990D01*
X64850Y-27014D01*
X64897Y-27038D01*
X64969Y-27038D01*
X65016Y-27014D01*
X65040Y-26990D01*
X65064Y-26942D01*
X65064Y-26752D01*
X65159Y-27228D02*
X65159Y-27466D01*
X65302Y-27180D02*
X64802Y-27347D01*
X65302Y-27514D01*
X65302Y-27680D02*
X64802Y-27680D01*
X65159Y-27847D01*
X64802Y-28014D01*
X65302Y-28014D01*
X65350Y-28133D02*
X65350Y-28514D01*
X64802Y-28871D02*
X64802Y-28633D01*
X65040Y-28609D01*
X65016Y-28633D01*
X64992Y-28680D01*
X64992Y-28800D01*
X65016Y-28847D01*
X65040Y-28871D01*
X65088Y-28895D01*
X65207Y-28895D01*
X65254Y-28871D01*
X65278Y-28847D01*
X65302Y-28800D01*
X65302Y-28680D01*
X65278Y-28633D01*
X65254Y-28609D01*
X65302Y-29371D02*
X65302Y-29085D01*
X65302Y-29228D02*
X64802Y-29228D01*
X64873Y-29180D01*
X64921Y-29133D01*
X64945Y-29085D01*
X64850Y-29561D02*
X64826Y-29585D01*
X64802Y-29633D01*
X64802Y-29752D01*
X64826Y-29800D01*
X64850Y-29823D01*
X64897Y-29847D01*
X64945Y-29847D01*
X65016Y-29823D01*
X65302Y-29538D01*
X65302Y-29847D01*
X65302Y-30061D02*
X64802Y-30061D01*
X65302Y-30347D02*
X65016Y-30133D01*
X64802Y-30347D02*
X65088Y-30061D01*
X65040Y-30728D02*
X65064Y-30800D01*
X65088Y-30823D01*
X65135Y-30847D01*
X65207Y-30847D01*
X65254Y-30823D01*
X65278Y-30800D01*
X65302Y-30752D01*
X65302Y-30561D01*
X64802Y-30561D01*
X64802Y-30728D01*
X64826Y-30776D01*
X64850Y-30800D01*
X64897Y-30823D01*
X64945Y-30823D01*
X64992Y-30800D01*
X65016Y-30776D01*
X65040Y-30728D01*
X65040Y-30561D01*
G54D15*
X64257Y-32002D02*
X64542Y-32002D01*
X64400Y-32002D02*
X64400Y-31502D01*
X64447Y-31573D01*
X64495Y-31621D01*
X64542Y-31645D01*
G54D14*
X66352Y-17880D02*
X66757Y-17880D01*
X66804Y-17904D01*
X66828Y-17928D01*
X66852Y-17976D01*
X66852Y-18071D01*
X66828Y-18119D01*
X66804Y-18142D01*
X66757Y-18166D01*
X66352Y-18166D01*
X66352Y-18357D02*
X66352Y-18666D01*
X66542Y-18500D01*
X66542Y-18571D01*
X66566Y-18619D01*
X66590Y-18642D01*
X66638Y-18666D01*
X66757Y-18666D01*
X66804Y-18642D01*
X66828Y-18619D01*
X66852Y-18571D01*
X66852Y-18428D01*
X66828Y-18380D01*
X66804Y-18357D01*
X66352Y-19119D02*
X66352Y-18880D01*
X66590Y-18857D01*
X66566Y-18880D01*
X66542Y-18928D01*
X66542Y-19047D01*
X66566Y-19095D01*
X66590Y-19119D01*
X66638Y-19142D01*
X66757Y-19142D01*
X66804Y-19119D01*
X66828Y-19095D01*
X66852Y-19047D01*
X66852Y-18928D01*
X66828Y-18880D01*
X66804Y-18857D01*
X65278Y-14052D02*
X65302Y-14123D01*
X65302Y-14242D01*
X65278Y-14290D01*
X65254Y-14314D01*
X65207Y-14338D01*
X65159Y-14338D01*
X65111Y-14314D01*
X65088Y-14290D01*
X65064Y-14242D01*
X65040Y-14147D01*
X65016Y-14100D01*
X64992Y-14076D01*
X64945Y-14052D01*
X64897Y-14052D01*
X64850Y-14076D01*
X64826Y-14100D01*
X64802Y-14147D01*
X64802Y-14266D01*
X64826Y-14338D01*
X65302Y-14838D02*
X65064Y-14671D01*
X65302Y-14552D02*
X64802Y-14552D01*
X64802Y-14742D01*
X64826Y-14790D01*
X64850Y-14814D01*
X64897Y-14838D01*
X64969Y-14838D01*
X65016Y-14814D01*
X65040Y-14790D01*
X65064Y-14742D01*
X65064Y-14552D01*
X65159Y-15028D02*
X65159Y-15266D01*
X65302Y-14980D02*
X64802Y-15147D01*
X65302Y-15314D01*
X65302Y-15480D02*
X64802Y-15480D01*
X65159Y-15647D01*
X64802Y-15814D01*
X65302Y-15814D01*
X65350Y-15933D02*
X65350Y-16314D01*
X64802Y-16671D02*
X64802Y-16433D01*
X65040Y-16409D01*
X65016Y-16433D01*
X64992Y-16480D01*
X64992Y-16600D01*
X65016Y-16647D01*
X65040Y-16671D01*
X65088Y-16695D01*
X65207Y-16695D01*
X65254Y-16671D01*
X65278Y-16647D01*
X65302Y-16600D01*
X65302Y-16480D01*
X65278Y-16433D01*
X65254Y-16409D01*
X65302Y-17171D02*
X65302Y-16885D01*
X65302Y-17028D02*
X64802Y-17028D01*
X64873Y-16980D01*
X64921Y-16933D01*
X64945Y-16885D01*
X64850Y-17361D02*
X64826Y-17385D01*
X64802Y-17433D01*
X64802Y-17552D01*
X64826Y-17600D01*
X64850Y-17623D01*
X64897Y-17647D01*
X64945Y-17647D01*
X65016Y-17623D01*
X65302Y-17338D01*
X65302Y-17647D01*
X65302Y-17861D02*
X64802Y-17861D01*
X65302Y-18147D02*
X65016Y-17933D01*
X64802Y-18147D02*
X65088Y-17861D01*
X65040Y-18528D02*
X65064Y-18600D01*
X65088Y-18623D01*
X65135Y-18647D01*
X65207Y-18647D01*
X65254Y-18623D01*
X65278Y-18600D01*
X65302Y-18552D01*
X65302Y-18361D01*
X64802Y-18361D01*
X64802Y-18528D01*
X64826Y-18576D01*
X64850Y-18600D01*
X64897Y-18623D01*
X64945Y-18623D01*
X64992Y-18600D01*
X65016Y-18576D01*
X65040Y-18528D01*
X65040Y-18361D01*
G54D15*
X64257Y-19802D02*
X64542Y-19802D01*
X64400Y-19802D02*
X64400Y-19302D01*
X64447Y-19373D01*
X64495Y-19421D01*
X64542Y-19445D01*
G54D14*
X80202Y-30080D02*
X80607Y-30080D01*
X80654Y-30104D01*
X80678Y-30128D01*
X80702Y-30176D01*
X80702Y-30271D01*
X80678Y-30319D01*
X80654Y-30342D01*
X80607Y-30366D01*
X80202Y-30366D01*
X80202Y-30557D02*
X80202Y-30866D01*
X80392Y-30700D01*
X80392Y-30771D01*
X80416Y-30819D01*
X80440Y-30842D01*
X80488Y-30866D01*
X80607Y-30866D01*
X80654Y-30842D01*
X80678Y-30819D01*
X80702Y-30771D01*
X80702Y-30628D01*
X80678Y-30580D01*
X80654Y-30557D01*
X80202Y-31033D02*
X80202Y-31366D01*
X80702Y-31152D01*
X79128Y-26252D02*
X79152Y-26323D01*
X79152Y-26442D01*
X79128Y-26490D01*
X79104Y-26514D01*
X79057Y-26538D01*
X79009Y-26538D01*
X78961Y-26514D01*
X78938Y-26490D01*
X78914Y-26442D01*
X78890Y-26347D01*
X78866Y-26300D01*
X78842Y-26276D01*
X78795Y-26252D01*
X78747Y-26252D01*
X78700Y-26276D01*
X78676Y-26300D01*
X78652Y-26347D01*
X78652Y-26466D01*
X78676Y-26538D01*
X79152Y-27038D02*
X78914Y-26871D01*
X79152Y-26752D02*
X78652Y-26752D01*
X78652Y-26942D01*
X78676Y-26990D01*
X78700Y-27014D01*
X78747Y-27038D01*
X78819Y-27038D01*
X78866Y-27014D01*
X78890Y-26990D01*
X78914Y-26942D01*
X78914Y-26752D01*
X79009Y-27228D02*
X79009Y-27466D01*
X79152Y-27180D02*
X78652Y-27347D01*
X79152Y-27514D01*
X79152Y-27680D02*
X78652Y-27680D01*
X79009Y-27847D01*
X78652Y-28014D01*
X79152Y-28014D01*
X79200Y-28133D02*
X79200Y-28514D01*
X78652Y-28871D02*
X78652Y-28633D01*
X78890Y-28609D01*
X78866Y-28633D01*
X78842Y-28680D01*
X78842Y-28800D01*
X78866Y-28847D01*
X78890Y-28871D01*
X78938Y-28895D01*
X79057Y-28895D01*
X79104Y-28871D01*
X79128Y-28847D01*
X79152Y-28800D01*
X79152Y-28680D01*
X79128Y-28633D01*
X79104Y-28609D01*
X79152Y-29371D02*
X79152Y-29085D01*
X79152Y-29228D02*
X78652Y-29228D01*
X78723Y-29180D01*
X78771Y-29133D01*
X78795Y-29085D01*
X78700Y-29561D02*
X78676Y-29585D01*
X78652Y-29633D01*
X78652Y-29752D01*
X78676Y-29800D01*
X78700Y-29823D01*
X78747Y-29847D01*
X78795Y-29847D01*
X78866Y-29823D01*
X79152Y-29538D01*
X79152Y-29847D01*
X79152Y-30061D02*
X78652Y-30061D01*
X79152Y-30347D02*
X78866Y-30133D01*
X78652Y-30347D02*
X78938Y-30061D01*
X78890Y-30728D02*
X78914Y-30800D01*
X78938Y-30823D01*
X78985Y-30847D01*
X79057Y-30847D01*
X79104Y-30823D01*
X79128Y-30800D01*
X79152Y-30752D01*
X79152Y-30561D01*
X78652Y-30561D01*
X78652Y-30728D01*
X78676Y-30776D01*
X78700Y-30800D01*
X78747Y-30823D01*
X78795Y-30823D01*
X78842Y-30800D01*
X78866Y-30776D01*
X78890Y-30728D01*
X78890Y-30561D01*
G54D15*
X78107Y-32002D02*
X78392Y-32002D01*
X78250Y-32002D02*
X78250Y-31502D01*
X78297Y-31573D01*
X78345Y-31621D01*
X78392Y-31645D01*
G54D14*
X94152Y-17880D02*
X94557Y-17880D01*
X94604Y-17904D01*
X94628Y-17928D01*
X94652Y-17976D01*
X94652Y-18071D01*
X94628Y-18119D01*
X94604Y-18142D01*
X94557Y-18166D01*
X94152Y-18166D01*
X94319Y-18619D02*
X94652Y-18619D01*
X94128Y-18500D02*
X94485Y-18380D01*
X94485Y-18690D01*
X94152Y-18833D02*
X94152Y-19142D01*
X94342Y-18976D01*
X94342Y-19047D01*
X94366Y-19095D01*
X94390Y-19119D01*
X94438Y-19142D01*
X94557Y-19142D01*
X94604Y-19119D01*
X94628Y-19095D01*
X94652Y-19047D01*
X94652Y-18904D01*
X94628Y-18857D01*
X94604Y-18833D01*
X93078Y-14052D02*
X93102Y-14123D01*
X93102Y-14242D01*
X93078Y-14290D01*
X93054Y-14314D01*
X93007Y-14338D01*
X92959Y-14338D01*
X92911Y-14314D01*
X92888Y-14290D01*
X92864Y-14242D01*
X92840Y-14147D01*
X92816Y-14100D01*
X92792Y-14076D01*
X92745Y-14052D01*
X92697Y-14052D01*
X92650Y-14076D01*
X92626Y-14100D01*
X92602Y-14147D01*
X92602Y-14266D01*
X92626Y-14338D01*
X93102Y-14838D02*
X92864Y-14671D01*
X93102Y-14552D02*
X92602Y-14552D01*
X92602Y-14742D01*
X92626Y-14790D01*
X92650Y-14814D01*
X92697Y-14838D01*
X92769Y-14838D01*
X92816Y-14814D01*
X92840Y-14790D01*
X92864Y-14742D01*
X92864Y-14552D01*
X92959Y-15028D02*
X92959Y-15266D01*
X93102Y-14980D02*
X92602Y-15147D01*
X93102Y-15314D01*
X93102Y-15480D02*
X92602Y-15480D01*
X92959Y-15647D01*
X92602Y-15814D01*
X93102Y-15814D01*
X93150Y-15933D02*
X93150Y-16314D01*
X92602Y-16671D02*
X92602Y-16433D01*
X92840Y-16409D01*
X92816Y-16433D01*
X92792Y-16480D01*
X92792Y-16600D01*
X92816Y-16647D01*
X92840Y-16671D01*
X92888Y-16695D01*
X93007Y-16695D01*
X93054Y-16671D01*
X93078Y-16647D01*
X93102Y-16600D01*
X93102Y-16480D01*
X93078Y-16433D01*
X93054Y-16409D01*
X93102Y-17171D02*
X93102Y-16885D01*
X93102Y-17028D02*
X92602Y-17028D01*
X92673Y-16980D01*
X92721Y-16933D01*
X92745Y-16885D01*
X92650Y-17361D02*
X92626Y-17385D01*
X92602Y-17433D01*
X92602Y-17552D01*
X92626Y-17600D01*
X92650Y-17623D01*
X92697Y-17647D01*
X92745Y-17647D01*
X92816Y-17623D01*
X93102Y-17338D01*
X93102Y-17647D01*
X93102Y-17861D02*
X92602Y-17861D01*
X93102Y-18147D02*
X92816Y-17933D01*
X92602Y-18147D02*
X92888Y-17861D01*
X92840Y-18528D02*
X92864Y-18600D01*
X92888Y-18623D01*
X92935Y-18647D01*
X93007Y-18647D01*
X93054Y-18623D01*
X93078Y-18600D01*
X93102Y-18552D01*
X93102Y-18361D01*
X92602Y-18361D01*
X92602Y-18528D01*
X92626Y-18576D01*
X92650Y-18600D01*
X92697Y-18623D01*
X92745Y-18623D01*
X92792Y-18600D01*
X92816Y-18576D01*
X92840Y-18528D01*
X92840Y-18361D01*
G54D15*
X92057Y-19802D02*
X92342Y-19802D01*
X92200Y-19802D02*
X92200Y-19302D01*
X92247Y-19373D01*
X92295Y-19421D01*
X92342Y-19445D01*
G54D14*
X94152Y-30080D02*
X94557Y-30080D01*
X94604Y-30104D01*
X94628Y-30128D01*
X94652Y-30176D01*
X94652Y-30271D01*
X94628Y-30319D01*
X94604Y-30342D01*
X94557Y-30366D01*
X94152Y-30366D01*
X94319Y-30819D02*
X94652Y-30819D01*
X94128Y-30700D02*
X94485Y-30580D01*
X94485Y-30890D01*
X94652Y-31342D02*
X94652Y-31057D01*
X94652Y-31200D02*
X94152Y-31200D01*
X94223Y-31152D01*
X94271Y-31104D01*
X94295Y-31057D01*
X93078Y-26252D02*
X93102Y-26323D01*
X93102Y-26442D01*
X93078Y-26490D01*
X93054Y-26514D01*
X93007Y-26538D01*
X92959Y-26538D01*
X92911Y-26514D01*
X92888Y-26490D01*
X92864Y-26442D01*
X92840Y-26347D01*
X92816Y-26300D01*
X92792Y-26276D01*
X92745Y-26252D01*
X92697Y-26252D01*
X92650Y-26276D01*
X92626Y-26300D01*
X92602Y-26347D01*
X92602Y-26466D01*
X92626Y-26538D01*
X93102Y-27038D02*
X92864Y-26871D01*
X93102Y-26752D02*
X92602Y-26752D01*
X92602Y-26942D01*
X92626Y-26990D01*
X92650Y-27014D01*
X92697Y-27038D01*
X92769Y-27038D01*
X92816Y-27014D01*
X92840Y-26990D01*
X92864Y-26942D01*
X92864Y-26752D01*
X92959Y-27228D02*
X92959Y-27466D01*
X93102Y-27180D02*
X92602Y-27347D01*
X93102Y-27514D01*
X93102Y-27680D02*
X92602Y-27680D01*
X92959Y-27847D01*
X92602Y-28014D01*
X93102Y-28014D01*
X93150Y-28133D02*
X93150Y-28514D01*
X92602Y-28871D02*
X92602Y-28633D01*
X92840Y-28609D01*
X92816Y-28633D01*
X92792Y-28680D01*
X92792Y-28800D01*
X92816Y-28847D01*
X92840Y-28871D01*
X92888Y-28895D01*
X93007Y-28895D01*
X93054Y-28871D01*
X93078Y-28847D01*
X93102Y-28800D01*
X93102Y-28680D01*
X93078Y-28633D01*
X93054Y-28609D01*
X93102Y-29371D02*
X93102Y-29085D01*
X93102Y-29228D02*
X92602Y-29228D01*
X92673Y-29180D01*
X92721Y-29133D01*
X92745Y-29085D01*
X92650Y-29561D02*
X92626Y-29585D01*
X92602Y-29633D01*
X92602Y-29752D01*
X92626Y-29800D01*
X92650Y-29823D01*
X92697Y-29847D01*
X92745Y-29847D01*
X92816Y-29823D01*
X93102Y-29538D01*
X93102Y-29847D01*
X93102Y-30061D02*
X92602Y-30061D01*
X93102Y-30347D02*
X92816Y-30133D01*
X92602Y-30347D02*
X92888Y-30061D01*
X92840Y-30728D02*
X92864Y-30800D01*
X92888Y-30823D01*
X92935Y-30847D01*
X93007Y-30847D01*
X93054Y-30823D01*
X93078Y-30800D01*
X93102Y-30752D01*
X93102Y-30561D01*
X92602Y-30561D01*
X92602Y-30728D01*
X92626Y-30776D01*
X92650Y-30800D01*
X92697Y-30823D01*
X92745Y-30823D01*
X92792Y-30800D01*
X92816Y-30776D01*
X92840Y-30728D01*
X92840Y-30561D01*
G54D15*
X92057Y-32002D02*
X92342Y-32002D01*
X92200Y-32002D02*
X92200Y-31502D01*
X92247Y-31573D01*
X92295Y-31621D01*
X92342Y-31645D01*
G54D14*
X54002Y-8169D02*
X54407Y-8169D01*
X54454Y-8145D01*
X54478Y-8121D01*
X54502Y-8073D01*
X54502Y-7978D01*
X54478Y-7930D01*
X54454Y-7907D01*
X54407Y-7883D01*
X54002Y-7883D01*
X54050Y-7669D02*
X54026Y-7645D01*
X54002Y-7597D01*
X54002Y-7478D01*
X54026Y-7430D01*
X54050Y-7407D01*
X54097Y-7383D01*
X54145Y-7383D01*
X54216Y-7407D01*
X54502Y-7692D01*
X54502Y-7383D01*
X54002Y-6954D02*
X54002Y-7050D01*
X54026Y-7097D01*
X54050Y-7121D01*
X54121Y-7169D01*
X54216Y-7192D01*
X54407Y-7192D01*
X54454Y-7169D01*
X54478Y-7145D01*
X54502Y-7097D01*
X54502Y-7002D01*
X54478Y-6954D01*
X54454Y-6930D01*
X54407Y-6907D01*
X54288Y-6907D01*
X54240Y-6930D01*
X54216Y-6954D01*
X54192Y-7002D01*
X54192Y-7097D01*
X54216Y-7145D01*
X54240Y-7169D01*
X54288Y-7192D01*
X56078Y-8197D02*
X56102Y-8126D01*
X56102Y-8007D01*
X56078Y-7959D01*
X56054Y-7935D01*
X56007Y-7911D01*
X55959Y-7911D01*
X55911Y-7935D01*
X55888Y-7959D01*
X55864Y-8007D01*
X55840Y-8102D01*
X55816Y-8150D01*
X55792Y-8173D01*
X55745Y-8197D01*
X55697Y-8197D01*
X55650Y-8173D01*
X55626Y-8150D01*
X55602Y-8102D01*
X55602Y-7983D01*
X55626Y-7911D01*
X56102Y-7411D02*
X55864Y-7578D01*
X56102Y-7697D02*
X55602Y-7697D01*
X55602Y-7507D01*
X55626Y-7459D01*
X55650Y-7435D01*
X55697Y-7411D01*
X55769Y-7411D01*
X55816Y-7435D01*
X55840Y-7459D01*
X55864Y-7507D01*
X55864Y-7697D01*
X55959Y-7221D02*
X55959Y-6983D01*
X56102Y-7269D02*
X55602Y-7102D01*
X56102Y-6935D01*
X56102Y-6769D02*
X55602Y-6769D01*
X55959Y-6602D01*
X55602Y-6435D01*
X56102Y-6435D01*
X56150Y-6316D02*
X56150Y-5935D01*
X55602Y-5578D02*
X55602Y-5816D01*
X55840Y-5840D01*
X55816Y-5816D01*
X55792Y-5769D01*
X55792Y-5650D01*
X55816Y-5602D01*
X55840Y-5578D01*
X55888Y-5554D01*
X56007Y-5554D01*
X56054Y-5578D01*
X56078Y-5602D01*
X56102Y-5650D01*
X56102Y-5769D01*
X56078Y-5816D01*
X56054Y-5840D01*
X56102Y-5078D02*
X56102Y-5364D01*
X56102Y-5221D02*
X55602Y-5221D01*
X55673Y-5269D01*
X55721Y-5316D01*
X55745Y-5364D01*
X55650Y-4888D02*
X55626Y-4864D01*
X55602Y-4816D01*
X55602Y-4697D01*
X55626Y-4649D01*
X55650Y-4626D01*
X55697Y-4602D01*
X55745Y-4602D01*
X55816Y-4626D01*
X56102Y-4911D01*
X56102Y-4602D01*
X56102Y-4388D02*
X55602Y-4388D01*
X56102Y-4102D02*
X55816Y-4316D01*
X55602Y-4102D02*
X55888Y-4388D01*
X55840Y-3721D02*
X55864Y-3649D01*
X55888Y-3626D01*
X55935Y-3602D01*
X56007Y-3602D01*
X56054Y-3626D01*
X56078Y-3649D01*
X56102Y-3697D01*
X56102Y-3888D01*
X55602Y-3888D01*
X55602Y-3721D01*
X55626Y-3673D01*
X55650Y-3649D01*
X55697Y-3626D01*
X55745Y-3626D01*
X55792Y-3649D01*
X55816Y-3673D01*
X55840Y-3721D01*
X55840Y-3888D01*
G54D15*
X57362Y-7442D02*
X57077Y-7442D01*
X57220Y-7442D02*
X57220Y-6942D01*
X57172Y-7013D01*
X57124Y-7061D01*
X57077Y-7085D01*
G54D14*
X26962Y-12526D02*
X26724Y-12360D01*
X26962Y-12240D02*
X26462Y-12240D01*
X26462Y-12431D01*
X26486Y-12479D01*
X26510Y-12502D01*
X26557Y-12526D01*
X26629Y-12526D01*
X26676Y-12502D01*
X26700Y-12479D01*
X26724Y-12431D01*
X26724Y-12240D01*
X26962Y-13002D02*
X26962Y-12717D01*
X26962Y-12860D02*
X26462Y-12860D01*
X26533Y-12812D01*
X26581Y-12764D01*
X26605Y-12717D01*
X26884Y-7164D02*
X27217Y-7164D01*
X26693Y-7045D02*
X27050Y-6925D01*
X27050Y-7235D01*
X26717Y-7378D02*
X26717Y-7711D01*
X27217Y-7497D01*
X26717Y-7997D02*
X26717Y-8045D01*
X26741Y-8092D01*
X26765Y-8116D01*
X26812Y-8140D01*
X26907Y-8164D01*
X27026Y-8164D01*
X27122Y-8140D01*
X27169Y-8116D01*
X27193Y-8092D01*
X27217Y-8045D01*
X27217Y-7997D01*
X27193Y-7949D01*
X27169Y-7925D01*
X27122Y-7902D01*
X27026Y-7878D01*
X26907Y-7878D01*
X26812Y-7902D01*
X26765Y-7925D01*
X26741Y-7949D01*
X26717Y-7997D01*
X15017Y-12541D02*
X14779Y-12375D01*
X15017Y-12255D02*
X14517Y-12255D01*
X14517Y-12446D01*
X14541Y-12494D01*
X14565Y-12517D01*
X14612Y-12541D01*
X14684Y-12541D01*
X14731Y-12517D01*
X14755Y-12494D01*
X14779Y-12446D01*
X14779Y-12255D01*
X14565Y-12732D02*
X14541Y-12755D01*
X14517Y-12803D01*
X14517Y-12922D01*
X14541Y-12970D01*
X14565Y-12994D01*
X14612Y-13017D01*
X14660Y-13017D01*
X14731Y-12994D01*
X15017Y-12708D01*
X15017Y-13017D01*
X14999Y-7274D02*
X15332Y-7274D01*
X14808Y-7155D02*
X15165Y-7035D01*
X15165Y-7345D01*
X14832Y-7488D02*
X14832Y-7821D01*
X15332Y-7607D01*
X14832Y-8107D02*
X14832Y-8155D01*
X14856Y-8202D01*
X14880Y-8226D01*
X14927Y-8250D01*
X15022Y-8274D01*
X15141Y-8274D01*
X15237Y-8250D01*
X15284Y-8226D01*
X15308Y-8202D01*
X15332Y-8155D01*
X15332Y-8107D01*
X15308Y-8059D01*
X15284Y-8035D01*
X15237Y-8012D01*
X15141Y-7988D01*
X15022Y-7988D01*
X14927Y-8012D01*
X14880Y-8035D01*
X14856Y-8059D01*
X14832Y-8107D01*
X21662Y-12571D02*
X21424Y-12405D01*
X21662Y-12285D02*
X21162Y-12285D01*
X21162Y-12476D01*
X21186Y-12524D01*
X21210Y-12547D01*
X21257Y-12571D01*
X21329Y-12571D01*
X21376Y-12547D01*
X21400Y-12524D01*
X21424Y-12476D01*
X21424Y-12285D01*
X21162Y-13024D02*
X21162Y-12785D01*
X21400Y-12762D01*
X21376Y-12785D01*
X21352Y-12833D01*
X21352Y-12952D01*
X21376Y-13000D01*
X21400Y-13024D01*
X21448Y-13047D01*
X21567Y-13047D01*
X21614Y-13024D01*
X21638Y-13000D01*
X21662Y-12952D01*
X21662Y-12833D01*
X21638Y-12785D01*
X21614Y-12762D01*
X21914Y-7299D02*
X22247Y-7299D01*
X21723Y-7180D02*
X22080Y-7060D01*
X22080Y-7370D01*
X21747Y-7513D02*
X21747Y-7846D01*
X22247Y-7632D01*
X21747Y-8132D02*
X21747Y-8180D01*
X21771Y-8227D01*
X21795Y-8251D01*
X21842Y-8275D01*
X21937Y-8299D01*
X22056Y-8299D01*
X22152Y-8275D01*
X22199Y-8251D01*
X22223Y-8227D01*
X22247Y-8180D01*
X22247Y-8132D01*
X22223Y-8084D01*
X22199Y-8060D01*
X22152Y-8037D01*
X22056Y-8013D01*
X21937Y-8013D01*
X21842Y-8037D01*
X21795Y-8060D01*
X21771Y-8084D01*
X21747Y-8132D01*
X17227Y-12556D02*
X16989Y-12390D01*
X17227Y-12270D02*
X16727Y-12270D01*
X16727Y-12461D01*
X16751Y-12509D01*
X16775Y-12532D01*
X16822Y-12556D01*
X16894Y-12556D01*
X16941Y-12532D01*
X16965Y-12509D01*
X16989Y-12461D01*
X16989Y-12270D01*
X16727Y-12723D02*
X16727Y-13032D01*
X16917Y-12866D01*
X16917Y-12937D01*
X16941Y-12985D01*
X16965Y-13009D01*
X17013Y-13032D01*
X17132Y-13032D01*
X17179Y-13009D01*
X17203Y-12985D01*
X17227Y-12937D01*
X17227Y-12794D01*
X17203Y-12747D01*
X17179Y-12723D01*
X17029Y-7254D02*
X17362Y-7254D01*
X16838Y-7135D02*
X17195Y-7015D01*
X17195Y-7325D01*
X16862Y-7468D02*
X16862Y-7801D01*
X17362Y-7587D01*
X16862Y-8087D02*
X16862Y-8135D01*
X16886Y-8182D01*
X16910Y-8206D01*
X16957Y-8230D01*
X17052Y-8254D01*
X17171Y-8254D01*
X17267Y-8230D01*
X17314Y-8206D01*
X17338Y-8182D01*
X17362Y-8135D01*
X17362Y-8087D01*
X17338Y-8039D01*
X17314Y-8015D01*
X17267Y-7992D01*
X17171Y-7968D01*
X17052Y-7968D01*
X16957Y-7992D01*
X16910Y-8015D01*
X16886Y-8039D01*
X16862Y-8087D01*
X19407Y-12586D02*
X19169Y-12420D01*
X19407Y-12300D02*
X18907Y-12300D01*
X18907Y-12491D01*
X18931Y-12539D01*
X18955Y-12562D01*
X19002Y-12586D01*
X19074Y-12586D01*
X19121Y-12562D01*
X19145Y-12539D01*
X19169Y-12491D01*
X19169Y-12300D01*
X19074Y-13015D02*
X19407Y-13015D01*
X18883Y-12896D02*
X19240Y-12777D01*
X19240Y-13086D01*
X19429Y-7119D02*
X19762Y-7119D01*
X19238Y-7000D02*
X19595Y-6880D01*
X19595Y-7190D01*
X19262Y-7333D02*
X19262Y-7666D01*
X19762Y-7452D01*
X19262Y-7952D02*
X19262Y-8000D01*
X19286Y-8047D01*
X19310Y-8071D01*
X19357Y-8095D01*
X19452Y-8119D01*
X19571Y-8119D01*
X19667Y-8095D01*
X19714Y-8071D01*
X19738Y-8047D01*
X19762Y-8000D01*
X19762Y-7952D01*
X19738Y-7904D01*
X19714Y-7880D01*
X19667Y-7857D01*
X19571Y-7833D01*
X19452Y-7833D01*
X19357Y-7857D01*
X19310Y-7880D01*
X19286Y-7904D01*
X19262Y-7952D01*
X31602Y-12616D02*
X31364Y-12450D01*
X31602Y-12330D02*
X31102Y-12330D01*
X31102Y-12521D01*
X31126Y-12569D01*
X31150Y-12592D01*
X31197Y-12616D01*
X31269Y-12616D01*
X31316Y-12592D01*
X31340Y-12569D01*
X31364Y-12521D01*
X31364Y-12330D01*
X31102Y-12783D02*
X31102Y-13116D01*
X31602Y-12902D01*
X31564Y-7674D02*
X31897Y-7674D01*
X31373Y-7555D02*
X31730Y-7435D01*
X31730Y-7745D01*
X31397Y-7888D02*
X31397Y-8221D01*
X31897Y-8007D01*
X31397Y-8507D02*
X31397Y-8555D01*
X31421Y-8602D01*
X31445Y-8626D01*
X31492Y-8650D01*
X31587Y-8674D01*
X31706Y-8674D01*
X31802Y-8650D01*
X31849Y-8626D01*
X31873Y-8602D01*
X31897Y-8555D01*
X31897Y-8507D01*
X31873Y-8459D01*
X31849Y-8435D01*
X31802Y-8412D01*
X31706Y-8388D01*
X31587Y-8388D01*
X31492Y-8412D01*
X31445Y-8435D01*
X31421Y-8459D01*
X31397Y-8507D01*
X29212Y-12501D02*
X28974Y-12335D01*
X29212Y-12215D02*
X28712Y-12215D01*
X28712Y-12406D01*
X28736Y-12454D01*
X28760Y-12477D01*
X28807Y-12501D01*
X28879Y-12501D01*
X28926Y-12477D01*
X28950Y-12454D01*
X28974Y-12406D01*
X28974Y-12215D01*
X28712Y-12930D02*
X28712Y-12835D01*
X28736Y-12787D01*
X28760Y-12763D01*
X28831Y-12715D01*
X28926Y-12692D01*
X29117Y-12692D01*
X29164Y-12715D01*
X29188Y-12739D01*
X29212Y-12787D01*
X29212Y-12882D01*
X29188Y-12930D01*
X29164Y-12954D01*
X29117Y-12977D01*
X28998Y-12977D01*
X28950Y-12954D01*
X28926Y-12930D01*
X28902Y-12882D01*
X28902Y-12787D01*
X28926Y-12739D01*
X28950Y-12715D01*
X28998Y-12692D01*
X29169Y-7439D02*
X29502Y-7439D01*
X28978Y-7320D02*
X29335Y-7200D01*
X29335Y-7510D01*
X29002Y-7653D02*
X29002Y-7986D01*
X29502Y-7772D01*
X29002Y-8272D02*
X29002Y-8320D01*
X29026Y-8367D01*
X29050Y-8391D01*
X29097Y-8415D01*
X29192Y-8439D01*
X29311Y-8439D01*
X29407Y-8415D01*
X29454Y-8391D01*
X29478Y-8367D01*
X29502Y-8320D01*
X29502Y-8272D01*
X29478Y-8224D01*
X29454Y-8200D01*
X29407Y-8177D01*
X29311Y-8153D01*
X29192Y-8153D01*
X29097Y-8177D01*
X29050Y-8200D01*
X29026Y-8224D01*
X29002Y-8272D01*
X33957Y-12546D02*
X33719Y-12380D01*
X33957Y-12260D02*
X33457Y-12260D01*
X33457Y-12451D01*
X33481Y-12499D01*
X33505Y-12522D01*
X33552Y-12546D01*
X33624Y-12546D01*
X33671Y-12522D01*
X33695Y-12499D01*
X33719Y-12451D01*
X33719Y-12260D01*
X33671Y-12832D02*
X33647Y-12784D01*
X33624Y-12760D01*
X33576Y-12737D01*
X33552Y-12737D01*
X33505Y-12760D01*
X33481Y-12784D01*
X33457Y-12832D01*
X33457Y-12927D01*
X33481Y-12975D01*
X33505Y-12999D01*
X33552Y-13022D01*
X33576Y-13022D01*
X33624Y-12999D01*
X33647Y-12975D01*
X33671Y-12927D01*
X33671Y-12832D01*
X33695Y-12784D01*
X33719Y-12760D01*
X33766Y-12737D01*
X33862Y-12737D01*
X33909Y-12760D01*
X33933Y-12784D01*
X33957Y-12832D01*
X33957Y-12927D01*
X33933Y-12975D01*
X33909Y-12999D01*
X33862Y-13022D01*
X33766Y-13022D01*
X33719Y-12999D01*
X33695Y-12975D01*
X33671Y-12927D01*
X34564Y-7719D02*
X34897Y-7719D01*
X34373Y-7600D02*
X34730Y-7480D01*
X34730Y-7790D01*
X34397Y-7933D02*
X34397Y-8266D01*
X34897Y-8052D01*
X34397Y-8552D02*
X34397Y-8600D01*
X34421Y-8647D01*
X34445Y-8671D01*
X34492Y-8695D01*
X34587Y-8719D01*
X34706Y-8719D01*
X34802Y-8695D01*
X34849Y-8671D01*
X34873Y-8647D01*
X34897Y-8600D01*
X34897Y-8552D01*
X34873Y-8504D01*
X34849Y-8480D01*
X34802Y-8457D01*
X34706Y-8433D01*
X34587Y-8433D01*
X34492Y-8457D01*
X34445Y-8480D01*
X34421Y-8504D01*
X34397Y-8552D01*
X43072Y-12418D02*
X42834Y-12251D01*
X43072Y-12132D02*
X42572Y-12132D01*
X42572Y-12323D01*
X42596Y-12370D01*
X42620Y-12394D01*
X42667Y-12418D01*
X42739Y-12418D01*
X42786Y-12394D01*
X42810Y-12370D01*
X42834Y-12323D01*
X42834Y-12132D01*
X43072Y-12894D02*
X43072Y-12609D01*
X43072Y-12751D02*
X42572Y-12751D01*
X42643Y-12704D01*
X42691Y-12656D01*
X42715Y-12609D01*
X42620Y-13085D02*
X42596Y-13109D01*
X42572Y-13156D01*
X42572Y-13275D01*
X42596Y-13323D01*
X42620Y-13347D01*
X42667Y-13370D01*
X42715Y-13370D01*
X42786Y-13347D01*
X43072Y-13061D01*
X43072Y-13370D01*
X43234Y-7149D02*
X43567Y-7149D01*
X43043Y-7030D02*
X43400Y-6910D01*
X43400Y-7220D01*
X43067Y-7363D02*
X43067Y-7696D01*
X43567Y-7482D01*
X43067Y-7982D02*
X43067Y-8030D01*
X43091Y-8077D01*
X43115Y-8101D01*
X43162Y-8125D01*
X43257Y-8149D01*
X43376Y-8149D01*
X43472Y-8125D01*
X43519Y-8101D01*
X43543Y-8077D01*
X43567Y-8030D01*
X43567Y-7982D01*
X43543Y-7934D01*
X43519Y-7910D01*
X43472Y-7887D01*
X43376Y-7863D01*
X43257Y-7863D01*
X43162Y-7887D01*
X43115Y-7910D01*
X43091Y-7934D01*
X43067Y-7982D01*
X40642Y-12448D02*
X40404Y-12281D01*
X40642Y-12162D02*
X40142Y-12162D01*
X40142Y-12353D01*
X40166Y-12400D01*
X40190Y-12424D01*
X40237Y-12448D01*
X40309Y-12448D01*
X40356Y-12424D01*
X40380Y-12400D01*
X40404Y-12353D01*
X40404Y-12162D01*
X40642Y-12924D02*
X40642Y-12639D01*
X40642Y-12781D02*
X40142Y-12781D01*
X40213Y-12734D01*
X40261Y-12686D01*
X40285Y-12639D01*
X40642Y-13400D02*
X40642Y-13115D01*
X40642Y-13258D02*
X40142Y-13258D01*
X40213Y-13210D01*
X40261Y-13162D01*
X40285Y-13115D01*
X39979Y-7144D02*
X40312Y-7144D01*
X39788Y-7025D02*
X40145Y-6905D01*
X40145Y-7215D01*
X39812Y-7358D02*
X39812Y-7691D01*
X40312Y-7477D01*
X39812Y-7977D02*
X39812Y-8025D01*
X39836Y-8072D01*
X39860Y-8096D01*
X39907Y-8120D01*
X40002Y-8144D01*
X40121Y-8144D01*
X40217Y-8120D01*
X40264Y-8096D01*
X40288Y-8072D01*
X40312Y-8025D01*
X40312Y-7977D01*
X40288Y-7929D01*
X40264Y-7905D01*
X40217Y-7882D01*
X40121Y-7858D01*
X40002Y-7858D01*
X39907Y-7882D01*
X39860Y-7905D01*
X39836Y-7929D01*
X39812Y-7977D01*
X38362Y-12473D02*
X38124Y-12306D01*
X38362Y-12187D02*
X37862Y-12187D01*
X37862Y-12378D01*
X37886Y-12425D01*
X37910Y-12449D01*
X37957Y-12473D01*
X38029Y-12473D01*
X38076Y-12449D01*
X38100Y-12425D01*
X38124Y-12378D01*
X38124Y-12187D01*
X38362Y-12949D02*
X38362Y-12664D01*
X38362Y-12806D02*
X37862Y-12806D01*
X37933Y-12759D01*
X37981Y-12711D01*
X38005Y-12664D01*
X37862Y-13259D02*
X37862Y-13306D01*
X37886Y-13354D01*
X37910Y-13378D01*
X37957Y-13402D01*
X38052Y-13425D01*
X38171Y-13425D01*
X38267Y-13402D01*
X38314Y-13378D01*
X38338Y-13354D01*
X38362Y-13306D01*
X38362Y-13259D01*
X38338Y-13211D01*
X38314Y-13187D01*
X38267Y-13164D01*
X38171Y-13140D01*
X38052Y-13140D01*
X37957Y-13164D01*
X37910Y-13187D01*
X37886Y-13211D01*
X37862Y-13259D01*
X38464Y-7794D02*
X38797Y-7794D01*
X38273Y-7675D02*
X38630Y-7555D01*
X38630Y-7865D01*
X38297Y-8008D02*
X38297Y-8341D01*
X38797Y-8127D01*
X38297Y-8627D02*
X38297Y-8675D01*
X38321Y-8722D01*
X38345Y-8746D01*
X38392Y-8770D01*
X38487Y-8794D01*
X38606Y-8794D01*
X38702Y-8770D01*
X38749Y-8746D01*
X38773Y-8722D01*
X38797Y-8675D01*
X38797Y-8627D01*
X38773Y-8579D01*
X38749Y-8555D01*
X38702Y-8532D01*
X38606Y-8508D01*
X38487Y-8508D01*
X38392Y-8532D01*
X38345Y-8555D01*
X38321Y-8579D01*
X38297Y-8627D01*
X36142Y-12636D02*
X35904Y-12470D01*
X36142Y-12350D02*
X35642Y-12350D01*
X35642Y-12541D01*
X35666Y-12589D01*
X35690Y-12612D01*
X35737Y-12636D01*
X35809Y-12636D01*
X35856Y-12612D01*
X35880Y-12589D01*
X35904Y-12541D01*
X35904Y-12350D01*
X36142Y-12874D02*
X36142Y-12970D01*
X36118Y-13017D01*
X36094Y-13041D01*
X36023Y-13089D01*
X35928Y-13112D01*
X35737Y-13112D01*
X35690Y-13089D01*
X35666Y-13065D01*
X35642Y-13017D01*
X35642Y-12922D01*
X35666Y-12874D01*
X35690Y-12850D01*
X35737Y-12827D01*
X35856Y-12827D01*
X35904Y-12850D01*
X35928Y-12874D01*
X35951Y-12922D01*
X35951Y-13017D01*
X35928Y-13065D01*
X35904Y-13089D01*
X35856Y-13112D01*
X36634Y-7509D02*
X36967Y-7509D01*
X36443Y-7390D02*
X36800Y-7270D01*
X36800Y-7580D01*
X36467Y-7723D02*
X36467Y-8056D01*
X36967Y-7842D01*
X36467Y-8342D02*
X36467Y-8390D01*
X36491Y-8437D01*
X36515Y-8461D01*
X36562Y-8485D01*
X36657Y-8509D01*
X36776Y-8509D01*
X36872Y-8485D01*
X36919Y-8461D01*
X36943Y-8437D01*
X36967Y-8390D01*
X36967Y-8342D01*
X36943Y-8294D01*
X36919Y-8270D01*
X36872Y-8247D01*
X36776Y-8223D01*
X36657Y-8223D01*
X36562Y-8247D01*
X36515Y-8270D01*
X36491Y-8294D01*
X36467Y-8342D01*
M02*
