G04 This is an RS-274x file exported by *
G04 gerbv version 2.6.1 *
G04 More information is available about gerbv at *
G04 http://gerbv.geda-project.org/ *
G04 --End of header info--*
%MOIN*%
%FSLAX34Y34*%
%IPPOS*%
%MIA0B1*%
G04 --Define apertures--*
%ADD10C,0.0220*%
%ADD11C,0.0320*%
%ADD12C,0.0400*%
%ADD13C,0.0450*%
%ADD14C,0.1200*%
G04 --Start main section--*
G54D10*
G01X0010500Y0037050D03*
G01X0011100Y0037880D03*
G01X0011650Y0025950D03*
G01X0012500Y0021350D03*
G01X0016045Y0021090D03*
G01X0016305Y0049515D03*
G01X0016600Y0015450D03*
G01X0017410Y0023185D03*
G01X0018100Y0015450D03*
G01X0018313Y0037593D03*
G01X0019600Y0015450D03*
G01X0020794Y0039458D03*
G01X0021050Y0015450D03*
G01X0022477Y0022609D03*
G01X0022550Y0015450D03*
G01X0022855Y0034930D03*
G01X0022881Y0021312D03*
G01X0023550Y0017600D03*
G01X0024247Y0043176D03*
G01X0024989Y0042878D03*
G01X0025112Y0041971D03*
G01X0026701Y0034959D03*
G01X0027200Y0020770D03*
G01X0027360Y0016500D03*
G01X0027385Y0048214D03*
G01X0028428Y0043660D03*
G01X0028780Y0030580D03*
G01X0030502Y0033276D03*
G01X0031242Y0042571D03*
G01X0031302Y0018864D03*
G01X0032284Y0047791D03*
G01X0032479Y0058026D03*
G01X0033324Y0035833D03*
G01X0034062Y0046682D03*
G01X0034800Y0015400D03*
G01X0035078Y0044517D03*
G01X0035331Y0043795D03*
G01X0035905Y0016630D03*
G01X0036033Y0033215D03*
G01X0036174Y0039943D03*
G01X0036299Y0043649D03*
G01X0036527Y0039062D03*
G01X0036596Y0038620D03*
G01X0036876Y0042571D03*
G01X0037006Y0032370D03*
G01X0037006Y0041180D03*
G01X0037166Y0031893D03*
G01X0037300Y0034038D03*
G01X0037375Y0037227D03*
G01X0037422Y0050284D03*
G01X0037441Y0050725D03*
G01X0037618Y0037727D03*
G01X0037922Y0044293D03*
G01X0037950Y0022500D03*
G01X0038281Y0030542D03*
G01X0038285Y0041162D03*
G01X0038455Y0040407D03*
G01X0038506Y0054101D03*
G01X0038543Y0037546D03*
G01X0038723Y0053639D03*
G01X0038728Y0033694D03*
G01X0038766Y0040710D03*
G01X0039192Y0025211D03*
G01X0039460Y0019930D03*
G01X0039470Y0021750D03*
G01X0039571Y0033399D03*
G01X0039839Y0051191D03*
G01X0039866Y0039332D03*
G01X0039999Y0058885D03*
G01X0040143Y0051512D03*
G01X0040350Y0034719D03*
G01X0040440Y0058679D03*
G01X0040663Y0038287D03*
G01X0041053Y0034567D03*
G01X0041155Y0058621D03*
G01X0041372Y0048033D03*
G01X0041485Y0037981D03*
G01X0041500Y0032053D03*
G01X0041639Y0058299D03*
G01X0041826Y0032813D03*
G01X0041841Y0042469D03*
G01X0041920Y0037861D03*
G01X0041972Y0037427D03*
G01X0042490Y0057843D03*
G01X0042548Y0052698D03*
G01X0042584Y0017990D03*
G01X0042737Y0037728D03*
G01X0042788Y0015774D03*
G01X0042822Y0016223D03*
G01X0042885Y0019069D03*
G01X0043014Y0015015D03*
G01X0043334Y0039180D03*
G01X0043345Y0032535D03*
G01X0043641Y0021590D03*
G01X0043690Y0022520D03*
G01X0043690Y0026300D03*
G01X0043805Y0052698D03*
G01X0044029Y0039611D03*
G01X0044103Y0053629D03*
G01X0044168Y0027094D03*
G01X0044373Y0033567D03*
G01X0044640Y0016706D03*
G01X0044960Y0040908D03*
G01X0045130Y0018823D03*
G01X0045311Y0060891D03*
G01X0045395Y0046315D03*
G01X0045400Y0052534D03*
G01X0045430Y0016425D03*
G01X0045658Y0022183D03*
G01X0045711Y0058669D03*
G01X0045923Y0038941D03*
G01X0046182Y0058700D03*
G01X0046475Y0022190D03*
G01X0046594Y0040933D03*
G01X0046712Y0058244D03*
G01X0047067Y0036517D03*
G01X0047325Y0058621D03*
G01X0047609Y0062239D03*
G01X0047610Y0015423D03*
G01X0047791Y0049524D03*
G01X0048095Y0025371D03*
G01X0048126Y0014039D03*
G01X0048183Y0044463D03*
G01X0048201Y0057939D03*
G01X0048360Y0048977D03*
G01X0048365Y0049421D03*
G01X0048372Y0028605D03*
G01X0048435Y0027895D03*
G01X0048549Y0020962D03*
G01X0048557Y0040430D03*
G01X0048650Y0032460D03*
G01X0049396Y0048947D03*
G01X0049842Y0062377D03*
G01X0049877Y0029259D03*
G01X0049917Y0046215D03*
G01X0050010Y0040797D03*
G01X0050501Y0050478D03*
G01X0050574Y0044206D03*
G01X0050750Y0028850D03*
G01X0051101Y0051455D03*
G01X0051150Y0030850D03*
G01X0051332Y0039638D03*
G01X0051375Y0043168D03*
G01X0051465Y0027700D03*
G01X0051497Y0022770D03*
G01X0051502Y0015668D03*
G01X0052128Y0015505D03*
G01X0052159Y0038890D03*
G01X0052295Y0040795D03*
G01X0052315Y0062334D03*
G01X0052538Y0043086D03*
G01X0052594Y0039211D03*
G01X0052714Y0040544D03*
G01X0052890Y0032820D03*
G01X0052964Y0036518D03*
G01X0053066Y0062233D03*
G01X0053185Y0026965D03*
G01X0053285Y0034130D03*
G01X0053415Y0013580D03*
G01X0053438Y0042918D03*
G01X0053506Y0040544D03*
G01X0053600Y0015100D03*
G01X0053639Y0057999D03*
G01X0053795Y0030625D03*
G01X0053944Y0048128D03*
G01X0054242Y0042607D03*
G01X0054690Y0032780D03*
G01X0054750Y0028570D03*
G01X0054843Y0036636D03*
G01X0055321Y0030622D03*
G01X0055394Y0020759D03*
G01X0055616Y0051029D03*
G01X0056081Y0039442D03*
G01X0056750Y0055665D03*
G01X0057578Y0044155D03*
G01X0057635Y0047713D03*
G01X0058366Y0046431D03*
G01X0058741Y0053877D03*
G01X0058866Y0018058D03*
G01X0058915Y0049578D03*
G01X0059065Y0029037D03*
G01X0059235Y0050511D03*
G01X0059245Y0042743D03*
G01X0059805Y0015211D03*
G01X0059890Y0052603D03*
G01X0060226Y0014369D03*
G01X0060332Y0015672D03*
G01X0060384Y0045590D03*
G01X0060410Y0033950D03*
G01X0060510Y0031970D03*
G01X0060840Y0036915D03*
G01X0060886Y0015350D03*
G01X0061083Y0032046D03*
G01X0061242Y0039343D03*
G01X0061306Y0043064D03*
G01X0061329Y0045537D03*
G01X0061369Y0015191D03*
G01X0061405Y0030766D03*
G01X0061568Y0026301D03*
G01X0061789Y0053910D03*
G01X0061795Y0016440D03*
G01X0061803Y0015114D03*
G01X0061840Y0048853D03*
G01X0061985Y0018084D03*
G01X0062245Y0014950D03*
G01X0062438Y0054252D03*
G01X0062589Y0043252D03*
G01X0062637Y0020054D03*
G01X0062656Y0016427D03*
G01X0062679Y0014772D03*
G01X0062690Y0017065D03*
G01X0062884Y0059165D03*
G01X0062995Y0016726D03*
G01X0063177Y0036393D03*
G01X0063272Y0034231D03*
G01X0063293Y0017077D03*
G01X0063304Y0021410D03*
G01X0063460Y0018399D03*
G01X0063480Y0025657D03*
G01X0063540Y0042726D03*
G01X0063730Y0029141D03*
G01X0063763Y0024802D03*
G01X0063874Y0056280D03*
G01X0064074Y0017527D03*
G01X0064134Y0025078D03*
G01X0064337Y0031069D03*
G01X0064384Y0042767D03*
G01X0064547Y0031878D03*
G01X0064564Y0024404D03*
G01X0064608Y0040787D03*
G01X0064636Y0053174D03*
G01X0064909Y0054408D03*
G01X0064934Y0031069D03*
G01X0065247Y0059183D03*
G01X0065378Y0052467D03*
G01X0065493Y0025156D03*
G01X0065514Y0054707D03*
G01X0065800Y0024373D03*
G01X0065840Y0055228D03*
G01X0065927Y0057353D03*
G01X0066112Y0023705D03*
G01X0066256Y0054940D03*
G01X0066285Y0051562D03*
G01X0066350Y0053580D03*
G01X0066389Y0049735D03*
G01X0066462Y0057962D03*
G01X0066548Y0047000D03*
G01X0066785Y0045797D03*
G01X0066859Y0031232D03*
G01X0066942Y0023894D03*
G01X0066975Y0050146D03*
G01X0067132Y0033702D03*
G01X0067411Y0024506D03*
G01X0067718Y0026609D03*
G01X0067831Y0052044D03*
G01X0067873Y0032911D03*
G01X0067933Y0047870D03*
G01X0068303Y0034284D03*
G01X0068314Y0033333D03*
G01X0068460Y0046117D03*
G01X0068490Y0015574D03*
G01X0068724Y0044800D03*
G01X0069081Y0040935D03*
G01X0069853Y0061363D03*
G01X0069950Y0062314D03*
G01X0070468Y0026304D03*
G01X0070481Y0053568D03*
G01X0070641Y0050961D03*
G01X0070751Y0057710D03*
G01X0070858Y0022433D03*
G01X0070873Y0033880D03*
G01X0071081Y0023242D03*
G01X0071184Y0057552D03*
G01X0071410Y0026140D03*
G01X0071617Y0050880D03*
G01X0071848Y0047874D03*
G01X0072557Y0026140D03*
G01X0072714Y0040554D03*
G01X0072914Y0021564D03*
G01X0073788Y0061912D03*
G01X0074061Y0051684D03*
G01X0074251Y0019081D03*
G01X0074604Y0027892D03*
G01X0075078Y0028048D03*
G01X0075396Y0060600D03*
G01X0075451Y0038285D03*
G01X0075594Y0047712D03*
G01X0075769Y0020841D03*
G01X0075770Y0025731D03*
G01X0075878Y0059404D03*
G01X0076019Y0018916D03*
G01X0076049Y0027958D03*
G01X0076077Y0053649D03*
G01X0076366Y0024398D03*
G01X0076370Y0040544D03*
G01X0077091Y0049419D03*
G01X0077153Y0023583D03*
G01X0077198Y0052831D03*
G01X0077365Y0027497D03*
G01X0077430Y0033526D03*
G01X0077637Y0025836D03*
G01X0078070Y0054003D03*
G01X0078132Y0062086D03*
G01X0078326Y0060805D03*
G01X0078352Y0018916D03*
G01X0079179Y0019139D03*
G01X0079189Y0043141D03*
G01X0079229Y0043880D03*
G01X0079336Y0041366D03*
G01X0079372Y0035620D03*
G01X0079446Y0016731D03*
G01X0079601Y0030186D03*
G01X0079798Y0053610D03*
G01X0079846Y0054349D03*
G01X0079920Y0024343D03*
G01X0080082Y0023257D03*
G01X0080277Y0039072D03*
G01X0080290Y0056283D03*
G01X0080304Y0059428D03*
G01X0080622Y0033037D03*
G01X0080646Y0015305D03*
G01X0080714Y0027500D03*
G01X0080714Y0032503D03*
G01X0080883Y0026905D03*
G01X0080920Y0029209D03*
G01X0080920Y0030875D03*
G01X0080920Y0031601D03*
G01X0080955Y0057528D03*
G01X0081020Y0025931D03*
G01X0081109Y0055350D03*
G01X0081249Y0059119D03*
G01X0081366Y0049601D03*
G01X0081428Y0057299D03*
G01X0081492Y0036784D03*
G01X0081518Y0028883D03*
G01X0081561Y0046405D03*
G01X0081680Y0033319D03*
G01X0081842Y0016080D03*
G01X0081878Y0060233D03*
G01X0082308Y0036885D03*
G01X0083117Y0031242D03*
G01X0083528Y0045696D03*
G01X0083942Y0029063D03*
G01X0084300Y0016080D03*
G01X0084321Y0045645D03*
G01X0084407Y0038321D03*
G01X0085183Y0048413D03*
G01X0085284Y0033934D03*
G01X0085422Y0050571D03*
G01X0085808Y0022626D03*
G01X0086057Y0025543D03*
G01X0086277Y0033242D03*
G01X0086301Y0038621D03*
G01X0086345Y0024237D03*
G01X0086423Y0023448D03*
G01X0087200Y0062250D03*
G01X0087301Y0043587D03*
G01X0087647Y0029277D03*
G01X0087656Y0039291D03*
G01X0087876Y0025975D03*
G01X0087940Y0062560D03*
G01X0088125Y0047727D03*
G01X0088256Y0029269D03*
G01X0088466Y0027629D03*
G01X0088913Y0045809D03*
G01X0089120Y0021074D03*
G01X0089441Y0040938D03*
G01X0089449Y0018821D03*
G01X0089830Y0050499D03*
G01X0089880Y0040944D03*
G01X0089889Y0027380D03*
G01X0089972Y0029176D03*
G01X0090124Y0025913D03*
G01X0090282Y0032784D03*
G01X0090380Y0016450D03*
G01X0090436Y0048064D03*
G01X0090773Y0023098D03*
G01X0090778Y0020613D03*
G01X0090882Y0027928D03*
G01X0090895Y0028911D03*
G01X0090949Y0026743D03*
G01X0090999Y0034301D03*
G01X0091390Y0044970D03*
G01X0091440Y0040000D03*
G01X0091470Y0038790D03*
G01X0091746Y0029121D03*
G01X0092206Y0050793D03*
G01X0092406Y0027376D03*
G01X0092410Y0020260D03*
G01X0092447Y0046856D03*
G01X0092541Y0044191D03*
G01X0092550Y0014750D03*
G01X0092694Y0032088D03*
G01X0092831Y0028626D03*
G01X0092880Y0021750D03*
G01X0092911Y0044706D03*
G01X0092947Y0046770D03*
G01X0093030Y0047532D03*
G01X0093050Y0016750D03*
G01X0093304Y0030558D03*
G01X0093397Y0034283D03*
G01X0093653Y0033301D03*
G01X0093668Y0037519D03*
G01X0093697Y0035590D03*
G01X0093706Y0043911D03*
G01X0093798Y0032851D03*
G01X0094004Y0019277D03*
G01X0094246Y0048730D03*
G01X0094298Y0031632D03*
G01X0094990Y0031171D03*
G01X0095005Y0028327D03*
G01X0095602Y0043104D03*
G01X0095635Y0033581D03*
G01X0096782Y0045966D03*
G01X0096907Y0029435D03*
G01X0096923Y0041427D03*
G01X0097844Y0046127D03*
G01X0097867Y0038591D03*
G01X0098000Y0032927D03*
G01X0098079Y0051543D03*
G01X0098100Y0024243D03*
G01X0098607Y0043911D03*
G01X0098678Y0037764D03*
G01X0098865Y0048602D03*
G01X0098950Y0060550D03*
G01X0099073Y0033381D03*
G01X0099411Y0025658D03*
G01X0100369Y0039307D03*
G01X0100811Y0018462D03*
G01X0101609Y0020915D03*
G01X0102529Y0053889D03*
G01X0103251Y0025395D03*
G01X0105799Y0047125D03*
G54D11*
G01X0011500Y0022500D03*
G01X0011500Y0024500D03*
G01X0011500Y0027500D03*
G01X0011500Y0029500D03*
G01X0011500Y0032500D03*
G01X0011500Y0034500D03*
G01X0011500Y0037000D03*
G01X0011500Y0040000D03*
G01X0012500Y0037500D03*
G01X0012500Y0039500D03*
G01X0013000Y0022000D03*
G01X0013000Y0025000D03*
G01X0013000Y0027000D03*
G01X0013000Y0030000D03*
G01X0013000Y0032000D03*
G01X0013000Y0035000D03*
G01X0014000Y0022000D03*
G01X0014000Y0025000D03*
G01X0014000Y0027000D03*
G01X0014000Y0030000D03*
G01X0014000Y0032000D03*
G01X0014000Y0035000D03*
G01X0014000Y0036000D03*
G01X0014000Y0037000D03*
G01X0014000Y0040000D03*
G01X0015000Y0022000D03*
G01X0015000Y0025000D03*
G01X0015000Y0027000D03*
G01X0015000Y0030000D03*
G01X0015000Y0032000D03*
G01X0015000Y0035000D03*
G01X0015000Y0036000D03*
G01X0015000Y0037000D03*
G01X0015000Y0040000D03*
G01X0016000Y0022000D03*
G01X0016000Y0025000D03*
G01X0016000Y0027000D03*
G01X0016000Y0030000D03*
G01X0016000Y0032000D03*
G01X0016000Y0035000D03*
G01X0016000Y0036000D03*
G01X0016000Y0037000D03*
G01X0016000Y0040000D03*
G01X0017000Y0022000D03*
G01X0017000Y0025000D03*
G01X0017000Y0027000D03*
G01X0017000Y0030000D03*
G01X0017000Y0031000D03*
G01X0017000Y0032000D03*
G01X0017000Y0035000D03*
G01X0017000Y0036000D03*
G01X0017000Y0037000D03*
G01X0017000Y0040000D03*
G01X0018000Y0022000D03*
G01X0018000Y0025000D03*
G01X0018000Y0027000D03*
G01X0018000Y0030000D03*
G01X0018000Y0031000D03*
G01X0018000Y0032000D03*
G01X0018000Y0035000D03*
G01X0018000Y0036000D03*
G01X0018000Y0037000D03*
G01X0018000Y0040000D03*
G01X0019000Y0022000D03*
G01X0019000Y0025000D03*
G01X0019000Y0027000D03*
G01X0019000Y0030000D03*
G01X0019000Y0032000D03*
G01X0019000Y0035000D03*
G01X0019000Y0036000D03*
G01X0019000Y0037000D03*
G01X0019000Y0040000D03*
G01X0020000Y0022000D03*
G01X0020000Y0025000D03*
G01X0020000Y0027000D03*
G01X0020000Y0030000D03*
G01X0020000Y0037000D03*
G01X0020000Y0040000D03*
G01X0021000Y0022000D03*
G01X0021000Y0025000D03*
G01X0021000Y0027000D03*
G01X0021000Y0030000D03*
G01X0021000Y0037000D03*
G01X0021000Y0040000D03*
G01X0022000Y0022000D03*
G01X0022000Y0025000D03*
G01X0022000Y0027000D03*
G01X0022000Y0030000D03*
G01X0022915Y0054495D03*
G01X0022920Y0051530D03*
G01X0022945Y0059100D03*
G01X0023000Y0037000D03*
G01X0023000Y0038000D03*
G01X0023000Y0039000D03*
G01X0023000Y0040000D03*
G01X0023000Y0042500D03*
G01X0023000Y0043500D03*
G01X0023000Y0045000D03*
G01X0023000Y0046000D03*
G01X0023915Y0054495D03*
G01X0023920Y0051530D03*
G01X0023945Y0059100D03*
G01X0024000Y0027000D03*
G01X0024000Y0028000D03*
G01X0024000Y0029000D03*
G01X0024000Y0030000D03*
G01X0024000Y0031000D03*
G01X0024000Y0032000D03*
G01X0024000Y0033000D03*
G01X0024000Y0034000D03*
G01X0024000Y0036000D03*
G01X0024500Y0042000D03*
G01X0024500Y0045000D03*
G01X0024500Y0047000D03*
G01X0024500Y0050000D03*
G01X0025000Y0027000D03*
G01X0025000Y0028000D03*
G01X0025000Y0029000D03*
G01X0025000Y0030000D03*
G01X0025000Y0031000D03*
G01X0025000Y0032000D03*
G01X0025000Y0033000D03*
G01X0025000Y0034000D03*
G01X0025000Y0036000D03*
G01X0026000Y0037500D03*
G01X0026000Y0039500D03*
G01X0026000Y0042500D03*
G01X0026000Y0044500D03*
G01X0026000Y0047500D03*
G01X0026000Y0049500D03*
G01X0026000Y0052500D03*
G01X0026000Y0054500D03*
G01X0026000Y0056000D03*
G01X0026000Y0059000D03*
G01X0026000Y0061500D03*
G01X0027000Y0017500D03*
G01X0027000Y0019500D03*
G01X0027000Y0022500D03*
G01X0027000Y0024500D03*
G01X0027000Y0027500D03*
G01X0027000Y0029500D03*
G01X0027000Y0032500D03*
G01X0027000Y0034500D03*
G01X0027000Y0061500D03*
G01X0027500Y0037000D03*
G01X0027500Y0040000D03*
G01X0027500Y0042000D03*
G01X0027500Y0045000D03*
G01X0027500Y0047000D03*
G01X0027500Y0050000D03*
G01X0027500Y0052000D03*
G01X0027500Y0055000D03*
G01X0027500Y0056000D03*
G01X0027500Y0057000D03*
G01X0028000Y0061500D03*
G01X0028500Y0017000D03*
G01X0028500Y0020000D03*
G01X0028500Y0021000D03*
G01X0028500Y0022000D03*
G01X0028500Y0025000D03*
G01X0028500Y0027000D03*
G01X0028500Y0030000D03*
G01X0028500Y0032000D03*
G01X0028500Y0035000D03*
G01X0028500Y0037000D03*
G01X0028500Y0040000D03*
G01X0028500Y0042000D03*
G01X0028500Y0045000D03*
G01X0028500Y0047000D03*
G01X0028500Y0050000D03*
G01X0028500Y0052000D03*
G01X0028500Y0055000D03*
G01X0028500Y0056000D03*
G01X0028500Y0057000D03*
G01X0029000Y0061500D03*
G01X0029500Y0017000D03*
G01X0029500Y0020000D03*
G01X0029500Y0021000D03*
G01X0029500Y0022000D03*
G01X0029500Y0025000D03*
G01X0029500Y0027000D03*
G01X0029500Y0030000D03*
G01X0029500Y0032000D03*
G01X0029500Y0035000D03*
G01X0029500Y0037000D03*
G01X0029500Y0040000D03*
G01X0029500Y0042000D03*
G01X0029500Y0045000D03*
G01X0029500Y0047000D03*
G01X0029500Y0050000D03*
G01X0029500Y0052000D03*
G01X0029500Y0055000D03*
G01X0029500Y0056000D03*
G01X0029500Y0057000D03*
G01X0030000Y0061500D03*
G01X0030500Y0017000D03*
G01X0030500Y0020000D03*
G01X0030500Y0021000D03*
G01X0030500Y0022000D03*
G01X0030500Y0025000D03*
G01X0030500Y0027000D03*
G01X0030500Y0030000D03*
G01X0030500Y0032000D03*
G01X0030500Y0035000D03*
G01X0030500Y0037000D03*
G01X0030500Y0040000D03*
G01X0030500Y0042000D03*
G01X0030500Y0045000D03*
G01X0030500Y0047000D03*
G01X0030500Y0050000D03*
G01X0030500Y0052000D03*
G01X0030500Y0055000D03*
G01X0030500Y0056000D03*
G01X0030500Y0057000D03*
G01X0031000Y0061500D03*
G01X0031500Y0017000D03*
G01X0031500Y0020000D03*
G01X0031500Y0022000D03*
G01X0031500Y0025000D03*
G01X0031500Y0027000D03*
G01X0031500Y0030000D03*
G01X0031500Y0032000D03*
G01X0031500Y0035000D03*
G01X0031500Y0037000D03*
G01X0031500Y0040000D03*
G01X0031500Y0042000D03*
G01X0031500Y0045000D03*
G01X0031500Y0047000D03*
G01X0031500Y0050000D03*
G01X0031500Y0052000D03*
G01X0031500Y0055000D03*
G01X0031500Y0056000D03*
G01X0031500Y0057000D03*
G01X0032000Y0061500D03*
G01X0032500Y0017000D03*
G01X0032500Y0020000D03*
G01X0032500Y0022000D03*
G01X0032500Y0025000D03*
G01X0032500Y0027000D03*
G01X0032500Y0030000D03*
G01X0032500Y0032000D03*
G01X0032500Y0035000D03*
G01X0032500Y0037000D03*
G01X0032500Y0040000D03*
G01X0032500Y0042000D03*
G01X0032500Y0045000D03*
G01X0032500Y0047000D03*
G01X0032500Y0050000D03*
G01X0032500Y0052000D03*
G01X0032500Y0055000D03*
G01X0032500Y0056000D03*
G01X0032500Y0057000D03*
G01X0033000Y0061500D03*
G01X0033500Y0014500D03*
G01X0033500Y0017000D03*
G01X0033500Y0020000D03*
G01X0033500Y0022000D03*
G01X0033500Y0025000D03*
G01X0033500Y0027000D03*
G01X0033500Y0030000D03*
G01X0033500Y0032000D03*
G01X0033500Y0035000D03*
G01X0033500Y0037000D03*
G01X0033500Y0040000D03*
G01X0033500Y0042000D03*
G01X0033500Y0045000D03*
G01X0033500Y0047000D03*
G01X0033500Y0050000D03*
G01X0033500Y0052000D03*
G01X0033500Y0055000D03*
G01X0034000Y0061500D03*
G01X0034500Y0017000D03*
G01X0034500Y0020000D03*
G01X0034500Y0022000D03*
G01X0034500Y0025000D03*
G01X0034500Y0027000D03*
G01X0034500Y0030000D03*
G01X0034500Y0032000D03*
G01X0034500Y0035000D03*
G01X0034500Y0037000D03*
G01X0034500Y0040000D03*
G01X0035000Y0061500D03*
G01X0035250Y0056250D03*
G01X0035500Y0027000D03*
G01X0035500Y0030000D03*
G01X0035500Y0032000D03*
G01X0035500Y0035000D03*
G01X0035500Y0047000D03*
G01X0035500Y0048000D03*
G01X0035500Y0049000D03*
G01X0035500Y0050000D03*
G01X0036000Y0061500D03*
G01X0036500Y0054000D03*
G01X0036500Y0055000D03*
G01X0036500Y0058000D03*
G01X0036500Y0059000D03*
G01X0037000Y0061500D03*
G01X0037500Y0054000D03*
G01X0037750Y0017000D03*
G01X0037750Y0020000D03*
G01X0038000Y0033000D03*
G01X0038000Y0034000D03*
G01X0038000Y0061500D03*
G01X0038250Y0056250D03*
G01X0039000Y0042500D03*
G01X0039000Y0044500D03*
G01X0039000Y0047500D03*
G01X0039000Y0049500D03*
G01X0039000Y0052500D03*
G01X0039000Y0054500D03*
G01X0039000Y0057500D03*
G01X0039000Y0059500D03*
G01X0039000Y0061500D03*
G01X0040500Y0042000D03*
G01X0040500Y0045000D03*
G01X0040500Y0047000D03*
G01X0040500Y0050000D03*
G01X0040500Y0052000D03*
G01X0040500Y0055000D03*
G01X0040500Y0057000D03*
G01X0040500Y0060000D03*
G01X0041000Y0061500D03*
G01X0041500Y0042000D03*
G01X0041500Y0045000D03*
G01X0041500Y0047000D03*
G01X0041500Y0050000D03*
G01X0041500Y0052000D03*
G01X0041500Y0055000D03*
G01X0041500Y0057000D03*
G01X0041500Y0060000D03*
G01X0042500Y0042000D03*
G01X0042500Y0045000D03*
G01X0042500Y0047000D03*
G01X0042500Y0050000D03*
G01X0042500Y0052000D03*
G01X0042500Y0055000D03*
G01X0042500Y0057000D03*
G01X0042500Y0060000D03*
G01X0043500Y0042000D03*
G01X0043500Y0045000D03*
G01X0043500Y0047000D03*
G01X0043500Y0050000D03*
G01X0043500Y0052000D03*
G01X0043500Y0055000D03*
G01X0043500Y0057000D03*
G01X0043500Y0060000D03*
G01X0044000Y0061500D03*
G01X0044500Y0042000D03*
G01X0044500Y0045000D03*
G01X0044500Y0047000D03*
G01X0044500Y0050000D03*
G01X0044500Y0052000D03*
G01X0044500Y0055000D03*
G01X0044500Y0057000D03*
G01X0044500Y0060000D03*
G01X0045481Y0024019D03*
G01X0045481Y0025019D03*
G01X0045481Y0026019D03*
G01X0045481Y0027019D03*
G01X0045481Y0028019D03*
G01X0045481Y0029019D03*
G01X0045481Y0030019D03*
G01X0045481Y0031019D03*
G01X0045481Y0032019D03*
G01X0045481Y0033019D03*
G01X0045481Y0034019D03*
G01X0045481Y0035019D03*
G01X0045481Y0036019D03*
G01X0045481Y0037019D03*
G01X0045500Y0042000D03*
G01X0045500Y0045000D03*
G01X0045500Y0047000D03*
G01X0045500Y0050000D03*
G01X0045500Y0052000D03*
G01X0045500Y0055000D03*
G01X0045500Y0057000D03*
G01X0045500Y0060000D03*
G01X0046481Y0024019D03*
G01X0046481Y0025019D03*
G01X0046481Y0026019D03*
G01X0046481Y0027019D03*
G01X0046481Y0028019D03*
G01X0046481Y0029019D03*
G01X0046481Y0030019D03*
G01X0046481Y0031019D03*
G01X0046481Y0032019D03*
G01X0046481Y0033019D03*
G01X0046481Y0034019D03*
G01X0046481Y0035019D03*
G01X0046481Y0036019D03*
G01X0046481Y0037019D03*
G01X0046500Y0042000D03*
G01X0046500Y0045000D03*
G01X0046500Y0047000D03*
G01X0046500Y0050000D03*
G01X0046500Y0052000D03*
G01X0046500Y0055000D03*
G01X0046500Y0057000D03*
G01X0046500Y0060000D03*
G01X0046750Y0061500D03*
G01X0047000Y0019500D03*
G01X0047000Y0021500D03*
G01X0047481Y0024019D03*
G01X0047481Y0025019D03*
G01X0047481Y0026019D03*
G01X0047481Y0027019D03*
G01X0047481Y0028019D03*
G01X0047481Y0029019D03*
G01X0047481Y0030019D03*
G01X0047481Y0031019D03*
G01X0047481Y0032019D03*
G01X0047481Y0033019D03*
G01X0047481Y0034019D03*
G01X0047481Y0035019D03*
G01X0047481Y0036019D03*
G01X0047481Y0037019D03*
G01X0047500Y0042000D03*
G01X0047500Y0045000D03*
G01X0047500Y0052000D03*
G01X0047500Y0055000D03*
G01X0047500Y0057000D03*
G01X0047500Y0060000D03*
G01X0047750Y0061500D03*
G01X0048000Y0019500D03*
G01X0048000Y0020500D03*
G01X0048000Y0021500D03*
G01X0048481Y0024019D03*
G01X0048481Y0025019D03*
G01X0048481Y0026019D03*
G01X0048481Y0035019D03*
G01X0048481Y0036019D03*
G01X0048481Y0037019D03*
G01X0048500Y0057000D03*
G01X0048500Y0060000D03*
G01X0048750Y0061500D03*
G01X0049000Y0019000D03*
G01X0049000Y0022000D03*
G01X0049481Y0024019D03*
G01X0049481Y0025019D03*
G01X0049481Y0026019D03*
G01X0049481Y0035019D03*
G01X0049481Y0036019D03*
G01X0049481Y0037019D03*
G01X0049500Y0018000D03*
G01X0049500Y0042000D03*
G01X0049500Y0043000D03*
G01X0049500Y0044000D03*
G01X0049500Y0045000D03*
G01X0049500Y0047000D03*
G01X0049500Y0050000D03*
G01X0049500Y0052000D03*
G01X0049500Y0053000D03*
G01X0049500Y0054000D03*
G01X0049500Y0055000D03*
G01X0049500Y0057000D03*
G01X0049500Y0060000D03*
G01X0049750Y0061500D03*
G01X0050000Y0019000D03*
G01X0050000Y0022000D03*
G01X0050481Y0024019D03*
G01X0050481Y0025019D03*
G01X0050481Y0026019D03*
G01X0050481Y0035019D03*
G01X0050481Y0036019D03*
G01X0050481Y0037019D03*
G01X0050750Y0061500D03*
G01X0051000Y0019500D03*
G01X0051000Y0021500D03*
G01X0051481Y0024019D03*
G01X0051481Y0025019D03*
G01X0051481Y0026019D03*
G01X0051481Y0035019D03*
G01X0051481Y0036019D03*
G01X0051481Y0037019D03*
G01X0051500Y0042000D03*
G01X0051500Y0045000D03*
G01X0051500Y0052000D03*
G01X0051500Y0053000D03*
G01X0051500Y0054000D03*
G01X0051500Y0055000D03*
G01X0051500Y0056500D03*
G01X0051500Y0059500D03*
G01X0051750Y0061500D03*
G01X0052481Y0024019D03*
G01X0052481Y0025019D03*
G01X0052481Y0026019D03*
G01X0052481Y0035019D03*
G01X0052481Y0036019D03*
G01X0052481Y0037019D03*
G01X0052500Y0018000D03*
G01X0052500Y0019000D03*
G01X0052500Y0022000D03*
G01X0053481Y0024019D03*
G01X0053481Y0025019D03*
G01X0053481Y0026019D03*
G01X0053481Y0035019D03*
G01X0053481Y0036019D03*
G01X0053481Y0037019D03*
G01X0053500Y0019000D03*
G01X0053500Y0022000D03*
G01X0054481Y0024019D03*
G01X0054481Y0025019D03*
G01X0054481Y0026019D03*
G01X0054481Y0035019D03*
G01X0054481Y0036019D03*
G01X0054481Y0037019D03*
G01X0054500Y0019000D03*
G01X0054500Y0022000D03*
G01X0054750Y0061500D03*
G01X0055000Y0042500D03*
G01X0055000Y0044500D03*
G01X0055000Y0047000D03*
G01X0055000Y0050000D03*
G01X0055000Y0052000D03*
G01X0055000Y0055000D03*
G01X0055000Y0056500D03*
G01X0055000Y0059500D03*
G01X0055481Y0024019D03*
G01X0055481Y0025019D03*
G01X0055481Y0026019D03*
G01X0055481Y0035019D03*
G01X0055481Y0036019D03*
G01X0055481Y0037019D03*
G01X0055500Y0019000D03*
G01X0055500Y0022000D03*
G01X0055750Y0061500D03*
G01X0056000Y0042500D03*
G01X0056000Y0044500D03*
G01X0056000Y0047500D03*
G01X0056000Y0049500D03*
G01X0056000Y0052500D03*
G01X0056000Y0054500D03*
G01X0056000Y0057500D03*
G01X0056000Y0059500D03*
G01X0056481Y0024019D03*
G01X0056481Y0025019D03*
G01X0056481Y0026019D03*
G01X0056481Y0027019D03*
G01X0056481Y0028019D03*
G01X0056481Y0029019D03*
G01X0056481Y0030019D03*
G01X0056481Y0031019D03*
G01X0056481Y0032019D03*
G01X0056481Y0033019D03*
G01X0056481Y0034019D03*
G01X0056481Y0035019D03*
G01X0056481Y0036019D03*
G01X0056481Y0037019D03*
G01X0056500Y0019000D03*
G01X0056500Y0022000D03*
G01X0057481Y0024019D03*
G01X0057481Y0025019D03*
G01X0057481Y0026019D03*
G01X0057481Y0027019D03*
G01X0057481Y0028019D03*
G01X0057481Y0029019D03*
G01X0057481Y0030019D03*
G01X0057481Y0031019D03*
G01X0057481Y0032019D03*
G01X0057481Y0033019D03*
G01X0057481Y0034019D03*
G01X0057481Y0035019D03*
G01X0057481Y0036019D03*
G01X0057481Y0037019D03*
G01X0057500Y0019000D03*
G01X0057500Y0022000D03*
G01X0057500Y0042000D03*
G01X0057500Y0045000D03*
G01X0057500Y0047000D03*
G01X0057500Y0050000D03*
G01X0057500Y0052000D03*
G01X0057500Y0055000D03*
G01X0057500Y0057000D03*
G01X0057500Y0060000D03*
G01X0058481Y0024019D03*
G01X0058481Y0025019D03*
G01X0058481Y0026019D03*
G01X0058481Y0027019D03*
G01X0058481Y0028019D03*
G01X0058481Y0029019D03*
G01X0058481Y0030019D03*
G01X0058481Y0031019D03*
G01X0058481Y0032019D03*
G01X0058481Y0033019D03*
G01X0058481Y0034019D03*
G01X0058481Y0035019D03*
G01X0058481Y0036019D03*
G01X0058481Y0037019D03*
G01X0058500Y0019000D03*
G01X0058500Y0022000D03*
G01X0058500Y0042000D03*
G01X0058500Y0045000D03*
G01X0058500Y0047000D03*
G01X0058500Y0050000D03*
G01X0058500Y0051000D03*
G01X0058500Y0052000D03*
G01X0058500Y0055000D03*
G01X0058500Y0057000D03*
G01X0058500Y0060000D03*
G01X0059500Y0042000D03*
G01X0059500Y0045000D03*
G01X0059500Y0047000D03*
G01X0059500Y0050000D03*
G01X0059500Y0051000D03*
G01X0059500Y0052000D03*
G01X0059500Y0055000D03*
G01X0059500Y0057000D03*
G01X0059500Y0060000D03*
G01X0060500Y0042000D03*
G01X0060500Y0045000D03*
G01X0060500Y0047000D03*
G01X0060500Y0050000D03*
G01X0060500Y0051000D03*
G01X0060500Y0052000D03*
G01X0060500Y0055000D03*
G01X0060500Y0057000D03*
G01X0060500Y0060000D03*
G01X0061500Y0042000D03*
G01X0061500Y0045000D03*
G01X0061500Y0047000D03*
G01X0061500Y0050000D03*
G01X0061500Y0052000D03*
G01X0061500Y0055000D03*
G01X0061500Y0057000D03*
G01X0061500Y0060000D03*
G01X0062500Y0042000D03*
G01X0062500Y0045000D03*
G01X0062500Y0047000D03*
G01X0062500Y0050000D03*
G01X0062500Y0052000D03*
G01X0062500Y0055000D03*
G01X0062500Y0057000D03*
G01X0062500Y0060000D03*
G01X0063500Y0014500D03*
G01X0063500Y0042000D03*
G01X0063500Y0045000D03*
G01X0063500Y0047000D03*
G01X0063500Y0050000D03*
G01X0063500Y0052000D03*
G01X0063500Y0055000D03*
G01X0063500Y0057000D03*
G01X0063500Y0060000D03*
G01X0064500Y0042000D03*
G01X0064500Y0045000D03*
G01X0064500Y0057000D03*
G01X0064500Y0060000D03*
G01X0065500Y0053000D03*
G01X0065500Y0054000D03*
G01X0065500Y0057000D03*
G01X0065500Y0060000D03*
G01X0066500Y0027000D03*
G01X0066500Y0029000D03*
G01X0066500Y0032500D03*
G01X0066500Y0034500D03*
G01X0066500Y0038000D03*
G01X0066500Y0040000D03*
G01X0066500Y0057000D03*
G01X0066500Y0060000D03*
G01X0068000Y0047000D03*
G01X0068000Y0050000D03*
G01X0069000Y0017500D03*
G01X0069000Y0019500D03*
G01X0069000Y0022500D03*
G01X0069000Y0024500D03*
G01X0069000Y0027500D03*
G01X0069000Y0029500D03*
G01X0069000Y0032500D03*
G01X0069000Y0034500D03*
G01X0069000Y0037500D03*
G01X0069000Y0039500D03*
G01X0069000Y0047500D03*
G01X0069000Y0049500D03*
G01X0069000Y0052500D03*
G01X0069000Y0054500D03*
G01X0069000Y0057500D03*
G01X0069000Y0059500D03*
G01X0070500Y0017000D03*
G01X0070500Y0020000D03*
G01X0070500Y0022000D03*
G01X0070500Y0025000D03*
G01X0070500Y0027000D03*
G01X0070500Y0030000D03*
G01X0070500Y0032000D03*
G01X0070500Y0035000D03*
G01X0070500Y0037000D03*
G01X0070500Y0040000D03*
G01X0070500Y0047000D03*
G01X0070500Y0050000D03*
G01X0070500Y0052000D03*
G01X0070500Y0055000D03*
G01X0070500Y0057000D03*
G01X0070500Y0060000D03*
G01X0071500Y0017000D03*
G01X0071500Y0020000D03*
G01X0071500Y0022000D03*
G01X0071500Y0025000D03*
G01X0071500Y0027000D03*
G01X0071500Y0030000D03*
G01X0071500Y0032000D03*
G01X0071500Y0035000D03*
G01X0071500Y0037000D03*
G01X0071500Y0040000D03*
G01X0071500Y0047000D03*
G01X0071500Y0050000D03*
G01X0071500Y0052000D03*
G01X0071500Y0055000D03*
G01X0071500Y0057000D03*
G01X0071500Y0060000D03*
G01X0072500Y0017000D03*
G01X0072500Y0020000D03*
G01X0072500Y0022000D03*
G01X0072500Y0025000D03*
G01X0072500Y0027000D03*
G01X0072500Y0030000D03*
G01X0072500Y0032000D03*
G01X0072500Y0035000D03*
G01X0072500Y0037000D03*
G01X0072500Y0040000D03*
G01X0072500Y0047000D03*
G01X0072500Y0050000D03*
G01X0072500Y0052000D03*
G01X0072500Y0055000D03*
G01X0072500Y0057000D03*
G01X0072500Y0060000D03*
G01X0073500Y0017000D03*
G01X0073500Y0020000D03*
G01X0073500Y0022000D03*
G01X0073500Y0025000D03*
G01X0073500Y0027000D03*
G01X0073500Y0030000D03*
G01X0073500Y0032000D03*
G01X0073500Y0035000D03*
G01X0073500Y0037000D03*
G01X0073500Y0040000D03*
G01X0073500Y0047000D03*
G01X0073500Y0050000D03*
G01X0073500Y0052000D03*
G01X0073500Y0055000D03*
G01X0073500Y0057000D03*
G01X0073500Y0060000D03*
G01X0074500Y0017000D03*
G01X0074500Y0020000D03*
G01X0074500Y0022000D03*
G01X0074500Y0025000D03*
G01X0074500Y0027000D03*
G01X0074500Y0030000D03*
G01X0074500Y0032000D03*
G01X0074500Y0035000D03*
G01X0074500Y0037000D03*
G01X0074500Y0040000D03*
G01X0074500Y0047000D03*
G01X0074500Y0050000D03*
G01X0074500Y0052000D03*
G01X0074500Y0055000D03*
G01X0074500Y0057000D03*
G01X0074500Y0060000D03*
G01X0075500Y0017000D03*
G01X0075500Y0020000D03*
G01X0075500Y0022000D03*
G01X0075500Y0025000D03*
G01X0075500Y0027000D03*
G01X0075500Y0030000D03*
G01X0075500Y0032000D03*
G01X0075500Y0035000D03*
G01X0075500Y0037000D03*
G01X0075500Y0040000D03*
G01X0075500Y0047000D03*
G01X0075500Y0050000D03*
G01X0075500Y0052000D03*
G01X0075500Y0055000D03*
G01X0075500Y0057000D03*
G01X0075500Y0060000D03*
G01X0076500Y0017000D03*
G01X0076500Y0020000D03*
G01X0076500Y0022000D03*
G01X0076500Y0025000D03*
G01X0076500Y0027000D03*
G01X0076500Y0030000D03*
G01X0076500Y0032000D03*
G01X0076500Y0035000D03*
G01X0076500Y0037000D03*
G01X0076500Y0040000D03*
G01X0076500Y0047000D03*
G01X0076500Y0050000D03*
G01X0076500Y0052000D03*
G01X0076500Y0055000D03*
G01X0076500Y0057000D03*
G01X0076500Y0060000D03*
G01X0077500Y0047000D03*
G01X0077500Y0050000D03*
G01X0077500Y0052000D03*
G01X0077500Y0055000D03*
G01X0077500Y0057000D03*
G01X0077500Y0060000D03*
G01X0078500Y0017000D03*
G01X0078500Y0020000D03*
G01X0078500Y0022000D03*
G01X0078500Y0025000D03*
G01X0078500Y0027500D03*
G01X0078500Y0029500D03*
G01X0078500Y0032500D03*
G01X0078500Y0033500D03*
G01X0078500Y0034500D03*
G01X0078500Y0037500D03*
G01X0078500Y0038500D03*
G01X0078500Y0039500D03*
G01X0078500Y0042000D03*
G01X0078500Y0045000D03*
G01X0078500Y0047000D03*
G01X0078500Y0050000D03*
G01X0078500Y0052000D03*
G01X0078500Y0055000D03*
G01X0078500Y0057000D03*
G01X0078500Y0060000D03*
G01X0079500Y0042000D03*
G01X0079500Y0045000D03*
G01X0079500Y0047000D03*
G01X0079500Y0050000D03*
G01X0079500Y0052000D03*
G01X0079500Y0055000D03*
G01X0079500Y0057000D03*
G01X0079500Y0060000D03*
G01X0081500Y0017500D03*
G01X0081500Y0019500D03*
G01X0081500Y0022500D03*
G01X0081500Y0024500D03*
G01X0082000Y0027500D03*
G01X0082000Y0029500D03*
G01X0082000Y0032500D03*
G01X0082000Y0034500D03*
G01X0082000Y0037500D03*
G01X0082000Y0039500D03*
G01X0082000Y0042500D03*
G01X0082000Y0044500D03*
G01X0082000Y0047500D03*
G01X0082000Y0049500D03*
G01X0082000Y0052500D03*
G01X0082000Y0054500D03*
G01X0082000Y0057500D03*
G01X0082000Y0059500D03*
G01X0083000Y0017000D03*
G01X0083000Y0020000D03*
G01X0083000Y0022000D03*
G01X0083000Y0025000D03*
G01X0083484Y0047000D03*
G01X0083484Y0050000D03*
G01X0083500Y0027000D03*
G01X0083500Y0030000D03*
G01X0083500Y0032000D03*
G01X0083500Y0035000D03*
G01X0083500Y0037000D03*
G01X0083500Y0040000D03*
G01X0083500Y0042000D03*
G01X0083500Y0045000D03*
G01X0083500Y0052000D03*
G01X0083500Y0055000D03*
G01X0083500Y0057000D03*
G01X0083500Y0060000D03*
G01X0084000Y0017000D03*
G01X0084000Y0020000D03*
G01X0084000Y0022000D03*
G01X0084000Y0025000D03*
G01X0084484Y0047000D03*
G01X0084484Y0050000D03*
G01X0084500Y0027000D03*
G01X0084500Y0030000D03*
G01X0084500Y0032000D03*
G01X0084500Y0035000D03*
G01X0084500Y0037000D03*
G01X0084500Y0040000D03*
G01X0084500Y0042000D03*
G01X0084500Y0045000D03*
G01X0084500Y0052000D03*
G01X0084500Y0055000D03*
G01X0084500Y0057000D03*
G01X0084500Y0060000D03*
G01X0085000Y0017000D03*
G01X0085000Y0020000D03*
G01X0085000Y0022000D03*
G01X0085000Y0025000D03*
G01X0085484Y0047000D03*
G01X0085484Y0050000D03*
G01X0085500Y0027000D03*
G01X0085500Y0030000D03*
G01X0085500Y0032000D03*
G01X0085500Y0035000D03*
G01X0085500Y0037000D03*
G01X0085500Y0040000D03*
G01X0085500Y0042000D03*
G01X0085500Y0045000D03*
G01X0085500Y0052000D03*
G01X0085500Y0055000D03*
G01X0085500Y0057000D03*
G01X0085500Y0060000D03*
G01X0086000Y0017000D03*
G01X0086000Y0020000D03*
G01X0086000Y0022000D03*
G01X0086000Y0025000D03*
G01X0086484Y0047000D03*
G01X0086484Y0050000D03*
G01X0086500Y0027000D03*
G01X0086500Y0030000D03*
G01X0086500Y0032000D03*
G01X0086500Y0035000D03*
G01X0086500Y0037000D03*
G01X0086500Y0040000D03*
G01X0086500Y0042000D03*
G01X0086500Y0045000D03*
G01X0086500Y0052000D03*
G01X0086500Y0055000D03*
G01X0086500Y0057000D03*
G01X0086500Y0060000D03*
G01X0087000Y0017000D03*
G01X0087000Y0020000D03*
G01X0087000Y0022000D03*
G01X0087000Y0025000D03*
G01X0087484Y0047000D03*
G01X0087484Y0050000D03*
G01X0087500Y0027000D03*
G01X0087500Y0030000D03*
G01X0087500Y0032000D03*
G01X0087500Y0035000D03*
G01X0087500Y0037000D03*
G01X0087500Y0040000D03*
G01X0087500Y0042000D03*
G01X0087500Y0045000D03*
G01X0087500Y0052000D03*
G01X0087500Y0055000D03*
G01X0087500Y0057000D03*
G01X0087500Y0060000D03*
G01X0088000Y0017000D03*
G01X0088000Y0020000D03*
G01X0088000Y0022000D03*
G01X0088000Y0025000D03*
G01X0088484Y0047000D03*
G01X0088484Y0050000D03*
G01X0088500Y0027000D03*
G01X0088500Y0030000D03*
G01X0088500Y0032000D03*
G01X0088500Y0035000D03*
G01X0088500Y0037000D03*
G01X0088500Y0040000D03*
G01X0088500Y0042000D03*
G01X0088500Y0045000D03*
G01X0088500Y0052000D03*
G01X0088500Y0055000D03*
G01X0088500Y0057000D03*
G01X0088500Y0060000D03*
G01X0089000Y0017000D03*
G01X0089000Y0020000D03*
G01X0089000Y0022000D03*
G01X0089000Y0025000D03*
G01X0089484Y0047000D03*
G01X0089484Y0050000D03*
G01X0089500Y0027000D03*
G01X0089500Y0030000D03*
G01X0089500Y0032000D03*
G01X0089500Y0035000D03*
G01X0089500Y0037000D03*
G01X0089500Y0040000D03*
G01X0089500Y0042000D03*
G01X0089500Y0045000D03*
G01X0089500Y0052000D03*
G01X0089500Y0055000D03*
G01X0089500Y0057000D03*
G01X0089500Y0060000D03*
G01X0090500Y0052000D03*
G01X0090500Y0055000D03*
G01X0090500Y0057000D03*
G01X0090500Y0060000D03*
G01X0091000Y0017000D03*
G01X0091000Y0020000D03*
G01X0091000Y0022000D03*
G01X0091000Y0025000D03*
G01X0091500Y0030000D03*
G01X0091500Y0031000D03*
G01X0091500Y0032000D03*
G01X0091500Y0033000D03*
G01X0091500Y0034000D03*
G01X0091500Y0035000D03*
G01X0091500Y0036000D03*
G01X0091500Y0037000D03*
G01X0091500Y0047500D03*
G01X0091500Y0048500D03*
G01X0091500Y0049500D03*
G01X0091500Y0052000D03*
G01X0091500Y0055000D03*
G01X0091500Y0057000D03*
G01X0091500Y0060000D03*
G01X0092000Y0022500D03*
G01X0092000Y0024500D03*
G01X0092500Y0052000D03*
G01X0092500Y0055000D03*
G01X0092500Y0057000D03*
G01X0092500Y0060000D03*
G01X0093000Y0035000D03*
G01X0093000Y0036000D03*
G01X0093000Y0037000D03*
G01X0093000Y0038000D03*
G01X0093000Y0039000D03*
G01X0093000Y0040000D03*
G01X0093000Y0041000D03*
G01X0093000Y0042000D03*
G01X0095000Y0017500D03*
G01X0095000Y0019500D03*
G01X0095000Y0022500D03*
G01X0095000Y0024500D03*
G01X0095000Y0027500D03*
G01X0095000Y0029500D03*
G01X0095000Y0032500D03*
G01X0095000Y0034500D03*
G01X0095000Y0037500D03*
G01X0095000Y0039500D03*
G01X0095000Y0042500D03*
G01X0095000Y0044500D03*
G01X0095000Y0047500D03*
G01X0095000Y0049500D03*
G01X0095000Y0052500D03*
G01X0095000Y0054500D03*
G01X0095000Y0057500D03*
G01X0095000Y0059500D03*
G01X0096500Y0017000D03*
G01X0096500Y0020000D03*
G01X0096500Y0022000D03*
G01X0096500Y0025000D03*
G01X0096500Y0027000D03*
G01X0096500Y0030000D03*
G01X0096500Y0032000D03*
G01X0096500Y0035000D03*
G01X0096500Y0037000D03*
G01X0096500Y0040000D03*
G01X0096500Y0042000D03*
G01X0096500Y0045000D03*
G01X0096500Y0047000D03*
G01X0096500Y0050000D03*
G01X0096500Y0052000D03*
G01X0096500Y0055000D03*
G01X0096500Y0057000D03*
G01X0096500Y0060000D03*
G01X0097500Y0017000D03*
G01X0097500Y0020000D03*
G01X0097500Y0022000D03*
G01X0097500Y0025000D03*
G01X0097500Y0027000D03*
G01X0097500Y0030000D03*
G01X0097500Y0032000D03*
G01X0097500Y0035000D03*
G01X0097500Y0037000D03*
G01X0097500Y0040000D03*
G01X0097500Y0042000D03*
G01X0097500Y0045000D03*
G01X0097500Y0047000D03*
G01X0097500Y0050000D03*
G01X0097500Y0052000D03*
G01X0097500Y0055000D03*
G01X0097500Y0056000D03*
G01X0097500Y0057000D03*
G01X0097500Y0060000D03*
G01X0098500Y0017000D03*
G01X0098500Y0020000D03*
G01X0098500Y0022000D03*
G01X0098500Y0025000D03*
G01X0098500Y0027000D03*
G01X0098500Y0030000D03*
G01X0098500Y0032000D03*
G01X0098500Y0035000D03*
G01X0098500Y0037000D03*
G01X0098500Y0040000D03*
G01X0098500Y0042000D03*
G01X0098500Y0045000D03*
G01X0098500Y0047000D03*
G01X0098500Y0050000D03*
G01X0098500Y0052000D03*
G01X0098500Y0055000D03*
G01X0098500Y0056000D03*
G01X0098500Y0057000D03*
G01X0098500Y0060000D03*
G01X0099500Y0017000D03*
G01X0099500Y0020000D03*
G01X0099500Y0022000D03*
G01X0099500Y0025000D03*
G01X0099500Y0027000D03*
G01X0099500Y0030000D03*
G01X0099500Y0032000D03*
G01X0099500Y0035000D03*
G01X0099500Y0037000D03*
G01X0099500Y0040000D03*
G01X0099500Y0042000D03*
G01X0099500Y0045000D03*
G01X0099500Y0047000D03*
G01X0099500Y0050000D03*
G01X0099500Y0052000D03*
G01X0099500Y0055000D03*
G01X0099500Y0057000D03*
G01X0099500Y0060000D03*
G01X0100500Y0017000D03*
G01X0100500Y0020000D03*
G01X0100500Y0022000D03*
G01X0100500Y0025000D03*
G01X0100500Y0027000D03*
G01X0100500Y0030000D03*
G01X0100500Y0032000D03*
G01X0100500Y0035000D03*
G01X0100500Y0037000D03*
G01X0100500Y0040000D03*
G01X0100500Y0042000D03*
G01X0100500Y0045000D03*
G01X0100500Y0047000D03*
G01X0100500Y0050000D03*
G01X0100500Y0052000D03*
G01X0100500Y0055000D03*
G01X0100500Y0057000D03*
G01X0100500Y0060000D03*
G01X0101500Y0017000D03*
G01X0101500Y0020000D03*
G01X0101500Y0022000D03*
G01X0101500Y0025000D03*
G01X0101500Y0027000D03*
G01X0101500Y0030000D03*
G01X0101500Y0032000D03*
G01X0101500Y0035000D03*
G01X0101500Y0037000D03*
G01X0101500Y0040000D03*
G01X0101500Y0042000D03*
G01X0101500Y0045000D03*
G01X0101500Y0047000D03*
G01X0101500Y0050000D03*
G01X0101500Y0052000D03*
G01X0101500Y0055000D03*
G01X0101500Y0057000D03*
G01X0101500Y0060000D03*
G01X0102500Y0017000D03*
G01X0102500Y0020000D03*
G01X0102500Y0022000D03*
G01X0102500Y0025000D03*
G01X0102500Y0027000D03*
G01X0102500Y0030000D03*
G01X0102500Y0032000D03*
G01X0102500Y0035000D03*
G01X0102500Y0037000D03*
G01X0102500Y0040000D03*
G01X0102500Y0042000D03*
G01X0102500Y0045000D03*
G01X0102500Y0047000D03*
G01X0102500Y0050000D03*
G01X0102500Y0052000D03*
G01X0102500Y0055000D03*
G01X0102500Y0057000D03*
G01X0102500Y0060000D03*
G01X0103500Y0047000D03*
G01X0103500Y0050000D03*
G01X0103500Y0052000D03*
G01X0103500Y0055000D03*
G01X0103500Y0057000D03*
G01X0103500Y0060000D03*
G01X0104500Y0037000D03*
G01X0104500Y0040000D03*
G01X0104500Y0042000D03*
G01X0104500Y0045000D03*
G01X0104500Y0057000D03*
G01X0104500Y0060000D03*
G01X0105500Y0057000D03*
G01X0105500Y0060000D03*
G54D12*
G01X0024500Y0019000D03*
G01X0024500Y0020000D03*
G01X0024500Y0022500D03*
G01X0024500Y0023500D03*
G01X0024500Y0024500D03*
G01X0025500Y0019000D03*
G01X0025500Y0020000D03*
G01X0025500Y0022500D03*
G01X0025500Y0023500D03*
G01X0025500Y0024500D03*
G01X0027500Y0058000D03*
G01X0027500Y0059000D03*
G01X0028500Y0058000D03*
G01X0028500Y0059000D03*
G01X0029500Y0058000D03*
G01X0029500Y0059000D03*
G01X0030500Y0058000D03*
G01X0030500Y0059000D03*
G01X0031500Y0058000D03*
G01X0031500Y0059000D03*
G01X0033500Y0013500D03*
G01X0034500Y0013500D03*
G01X0034500Y0014500D03*
G01X0035500Y0013500D03*
G01X0035500Y0014500D03*
G01X0036500Y0013500D03*
G01X0036500Y0014500D03*
G01X0037500Y0013500D03*
G01X0037500Y0014500D03*
G01X0038500Y0013500D03*
G01X0038500Y0014500D03*
G01X0039500Y0013500D03*
G01X0039500Y0014500D03*
G01X0040500Y0013500D03*
G01X0040500Y0014500D03*
G01X0041500Y0013500D03*
G01X0041500Y0014500D03*
G01X0042500Y0013500D03*
G01X0042500Y0014500D03*
G01X0043500Y0013500D03*
G01X0043500Y0014500D03*
G01X0044500Y0013500D03*
G01X0044500Y0014500D03*
G01X0045000Y0020000D03*
G01X0045000Y0021000D03*
G01X0045500Y0013500D03*
G01X0045500Y0014500D03*
G01X0046000Y0020000D03*
G01X0046000Y0021000D03*
G01X0046500Y0013500D03*
G01X0046500Y0014500D03*
G01X0047500Y0013500D03*
G01X0047500Y0014500D03*
G01X0048500Y0013500D03*
G01X0048500Y0014500D03*
G01X0049500Y0013500D03*
G01X0049500Y0014500D03*
G01X0050500Y0013500D03*
G01X0050500Y0014500D03*
G01X0051500Y0013500D03*
G01X0051500Y0014500D03*
G01X0052500Y0013500D03*
G01X0052500Y0014500D03*
G01X0063500Y0013500D03*
G01X0064500Y0013500D03*
G01X0064500Y0014500D03*
G01X0065500Y0013500D03*
G01X0065500Y0014500D03*
G01X0066500Y0013500D03*
G01X0066500Y0014500D03*
G01X0067000Y0042000D03*
G01X0067000Y0043000D03*
G01X0067000Y0044000D03*
G01X0067000Y0045000D03*
G01X0067500Y0013500D03*
G01X0067500Y0014500D03*
G01X0068000Y0042000D03*
G01X0068000Y0043000D03*
G01X0068000Y0044000D03*
G01X0068000Y0045000D03*
G01X0068500Y0013500D03*
G01X0068500Y0014500D03*
G01X0069500Y0013500D03*
G01X0069500Y0014500D03*
G01X0070500Y0013500D03*
G01X0070500Y0014500D03*
G01X0070500Y0042000D03*
G01X0070500Y0043000D03*
G01X0070500Y0044000D03*
G01X0070500Y0045000D03*
G01X0071500Y0013500D03*
G01X0071500Y0014500D03*
G01X0071500Y0042000D03*
G01X0071500Y0043000D03*
G01X0071500Y0044000D03*
G01X0071500Y0045000D03*
G01X0072500Y0013500D03*
G01X0072500Y0014500D03*
G01X0072500Y0042000D03*
G01X0072500Y0043000D03*
G01X0072500Y0044000D03*
G01X0072500Y0045000D03*
G01X0073500Y0013500D03*
G01X0073500Y0014500D03*
G01X0073500Y0042000D03*
G01X0073500Y0043000D03*
G01X0073500Y0044000D03*
G01X0073500Y0045000D03*
G01X0074500Y0013500D03*
G01X0074500Y0014500D03*
G01X0074500Y0042000D03*
G01X0074500Y0043000D03*
G01X0074500Y0044000D03*
G01X0074500Y0045000D03*
G01X0075500Y0013500D03*
G01X0075500Y0014500D03*
G01X0075500Y0042000D03*
G01X0075500Y0043000D03*
G01X0075500Y0044000D03*
G01X0075500Y0045000D03*
G01X0076500Y0013500D03*
G01X0076500Y0014500D03*
G01X0076500Y0042000D03*
G01X0076500Y0043000D03*
G01X0076500Y0044000D03*
G01X0076500Y0045000D03*
G01X0077500Y0013500D03*
G01X0077500Y0014500D03*
G01X0077500Y0042000D03*
G01X0077500Y0043000D03*
G01X0077500Y0044000D03*
G01X0077500Y0045000D03*
G01X0078500Y0013500D03*
G01X0078500Y0014500D03*
G01X0079500Y0013500D03*
G01X0079500Y0014500D03*
G01X0080500Y0013500D03*
G01X0080500Y0014500D03*
G01X0081500Y0013500D03*
G01X0081500Y0014500D03*
G01X0082500Y0013500D03*
G01X0082500Y0014500D03*
G01X0083500Y0013500D03*
G01X0083500Y0014500D03*
G01X0084500Y0013500D03*
G01X0084500Y0014500D03*
G01X0085500Y0013500D03*
G01X0085500Y0014500D03*
G01X0086500Y0013500D03*
G01X0086500Y0014500D03*
G01X0087500Y0013500D03*
G01X0087500Y0014500D03*
G54D13*
G01X0020925Y0055650D03*
G01X0020925Y0056650D03*
G01X0020925Y0057650D03*
G54D14*
G01X0010500Y0015500D03*
G01X0014425Y0056650D03*
G01X0105500Y0015500D03*
M02*
