M48
;DRILL file {Pcbnew (2013-07-07 BZR 4022)-stable} date 7/18/2014 12:18:14 AM
;FORMAT={-:-/ absolute / metric / decimal}
FMAT,2
METRIC,TZ
T1C0.350
T2C0.584
T3C0.813
T4C1.000
T5C1.016
T6C1.143
T7C3.048
%
G90
G05
M71
T1
X22.898Y60.041
X29.863Y116.156
X33.914Y65.514
X34.124Y48.128
X34.663Y33.102
X34.921Y95.839
X38.017Y105.146
X39.242Y92.445
X43.373Y27.571
X44.001Y81.998
X45.472Y28.319
X46.679Y28.484
X47.852Y49.291
X49.479Y30.448
X50.097Y132.659
X51.422Y110.909
X52.719Y63.645
X53.353Y129.083
X54.712Y124.816
X54.927Y127.394
X56.185Y88.697
X57.709Y97.701
X58.705Y75.296
X59.081Y136.777
X59.52Y140.509
X61.608Y131.572
X62.144Y119.476
X62.514Y106.368
X64.541Y40.615
X64.847Y140.313
X65.084Y119.553
X65.676Y139.231
X65.718Y125.147
X66.78Y116.164
X66.954Y121.845
X68.119Y141.748
X68.477Y36.394
X69.567Y137.05
X70.023Y133.838
X70.698Y61.585
X70.904Y32.728
X71.01Y45.834
X71.352Y115.293
X73.106Y137.041
X74.231Y33.299
X74.24Y126.28
X75.032Y126.869
X75.846Y105.818
X76.273Y139.994
X79.438Y142.558
X79.611Y115.397
X79.731Y81.182
X80.764Y119.655
X81.42Y138.671
X82.234Y51.222
X82.879Y80.563
X83.702Y127.283
X83.738Y104.151
X84.673Y126.825
X85.128Y146.088
X85.456Y121.894
X85.999Y124.501
X86.813Y111.753
X86.951Y115.907
X87.307Y136.371
X87.707Y126.214
X87.869Y120.857
X87.96Y39.294
X88.316Y112.149
X88.416Y116.102
X88.451Y137.79
X88.459Y140.723
X88.657Y75.393
X89.614Y130.007
X90.729Y72.844
X91.378Y68.442
X91.686Y98.16
X91.851Y89.778
X92.005Y119.356
X92.117Y107.592
X93.456Y33.213
X94.038Y143.787
X95.755Y143.325
X96.266Y40.64
X96.387Y104.593
X96.688Y111.914
X99.136Y135.89
X99.196Y105.68
X101.915Y36.146
X104.407Y36.82
X104.864Y142.367
X104.945Y114.453
X105.619Y112.284
X106.562Y90.401
X106.641Y95.719
X108.966Y98.03
X109.036Y141.127
X109.261Y87.174
X109.398Y48.311
X110.071Y43.243
X110.242Y147.207
X110.971Y66.566
X111.137Y121.869
X111.35Y142.86
X111.746Y126.419
X112.014Y82.359
X112.23Y78.308
X112.48Y147.401
X113.152Y72.651
X113.484Y71.639
X113.616Y97.004
X113.74Y147.565
X114.169Y97.909
X114.38Y106.57
X114.402Y75.617
X114.532Y125.084
X114.644Y114.538
X114.824Y105.107
X115.515Y49.985
X116.072Y48.81
X116.143Y93.719
X117.424Y38.329
X117.488Y78.547
X117.778Y109.307
X118.097Y76.633
X118.23Y96.994
X118.327Y117.509
X118.359Y130.228
X119.397Y120.887
X119.435Y110.328
X119.507Y146.939
X119.52Y63.192
X119.708Y97.909
X119.888Y25.235
X119.934Y91.929
X120.432Y52.315
X120.526Y54.058
X120.601Y124.862
X120.995Y70.284
X121.097Y97.43
X121.133Y146.545
X121.211Y62.125
X121.768Y145.263
X122.519Y80.078
X122.921Y118.878
X123.791Y90.386
X123.992Y121.849
X124.595Y89.718
X124.732Y144.981
X125.625Y138.746
X126.013Y63.356
X126.607Y96.81
X127.609Y118.929
X128.188Y129.755
X128.217Y136.007
X128.346Y144.838
X130.708Y146.634
X132.707Y130.289
X132.806Y91.629
X133.659Y42.174
X133.867Y122.535
X133.921Y146.558
X133.998Y75.991
X134.716Y43.133
X134.917Y137.275
X135.478Y145.765
X135.496Y100.059
X136.57Y99.321
X136.71Y119.071
X138.634Y135.872
X139.027Y63.904
X139.661Y68.432
X140.437Y143.713
X140.455Y122.943
X140.475Y146.736
X142.164Y146.926
X142.476Y68.632
X142.6Y126.081
X142.803Y35.075
X142.888Y147.447
X143.154Y112.127
X143.296Y49.569
X144.116Y72.023
X144.828Y59.508
X144.845Y60.776
X145.277Y65.566
X145.876Y66.695
X145.923Y144.92
X146.647Y143.345
X146.943Y72.979
X147.144Y70.766
X148.183Y83.178
X148.404Y130.899
X148.447Y122.187
X148.545Y66.753
X148.567Y65.792
X149.079Y120.599
X149.191Y72.787
X149.263Y124.473
X149.469Y122.623
X149.746Y42.164
X149.757Y121.07
X150.025Y147.599
X150.306Y134.153
X150.618Y79.25
X151.625Y40.094
X151.634Y91.426
X151.723Y93.487
X152.271Y90.591
X153.012Y77.9
X153.278Y146.269
X153.619Y33.465
X154.155Y146.443
X155.045Y56.752
X155.43Y79.156
X155.591Y144.491
X155.682Y115.861
X155.841Y142.978
X156.671Y73.551
X156.892Y139.331
X156.899Y69.501
X157.395Y110.142
X157.481Y138.516
X157.607Y69.039
X158.217Y61.684
X158.42Y110.885
X158.804Y89.392
X159.043Y96.108
X159.084Y93.938
X159.622Y90.075
X160.077Y111.022
X160.82Y141.377
X161.087Y33.147
X161.413Y109.207
X165.057Y69.249
X165.062Y61.887
X167.297Y121.79
X167.856Y98.737
X168.3Y145.72
X169.152Y99.887
X169.364Y107.47
X169.678Y30.072
X169.784Y111.281
X170.561Y41.631
X171.664Y74.882
X172.671Y141.623
X172.682Y144.094
X172.949Y49.563
X174.316Y98.825
X174.384Y40.754
X174.533Y91.367
X174.896Y145.104
X175.071Y53.227
X175.539Y41.732
X176.364Y44.786
X176.728Y35.358
X177.562Y30.584
X178.009Y90.979
X178.924Y62.136
X179.062Y54.144
X179.632Y53.284
X180.714Y91.383
X181.248Y83.174
X181.43Y81.229
X182.445Y48.484
X182.658Y50.451
X183.132Y36.11
X183.566Y103.279
X184.252Y62.654
X184.597Y96.152
X185.679Y51.709
X186.313Y61.513
X186.323Y95.398
X186.472Y129.882
X186.614Y145.339
X187.186Y52.378
X187.871Y143.993
X188.038Y114.258
X188.629Y88.937
X189.446Y146.253
X190.132Y143.04
X190.169Y69.924
X190.511Y114.723
X191.719Y71.704
X191.834Y124.316
X193.531Y135.284
X193.65Y146.037
X193.686Y42.941
X193.905Y77.571
X194.132Y116.268
X194.809Y79.166
X195.315Y43.274
X195.783Y114.503
X196.189Y106.098
X196.685Y140.602
X197.113Y101.353
X198.264Y44.183
X199.085Y147.612
X199.105Y117.888
X200.889Y145.885
X201.45Y115.234
X201.466Y73.082
X202.171Y138.112
X202.41Y141.144
X204.254Y80.221
X204.365Y96.262
X204.483Y53.137
X204.534Y64.114
X204.629Y90.17
X204.813Y147.688
X204.864Y44.145
X205.105Y50.851
X205.212Y99.701
X205.271Y81.757
X205.494Y118.49
X205.494Y145.311
X205.791Y52.972
X206.16Y98.922
X206.68Y50.19
X207.061Y37.097
X207.415Y146.18
X208.013Y147.739
X209.11Y41.076
X209.918Y38.887
X210.096Y54.153
X210.349Y49.177
X210.895Y73.433
X212.057Y88.5
X212.489Y80.614
X213.638Y130.297
X213.65Y60.16
X214.63Y59.376
X214.904Y144.909
X215.506Y69.063
X217.145Y91.289
X217.662Y81.091
X217.665Y66.043
X217.992Y99.909
X218.44Y120.739
X218.85Y85.438
X219.017Y103.51
X219.109Y60.836
X219.412Y38.868
X219.858Y103.919
X220.558Y107.513
X220.907Y61.956
X221.248Y105.244
X223.952Y49.708
X224.016Y96.115
X224.111Y83.031
X224.867Y81.055
X225.225Y68.431
X226.009Y32.271
X226.261Y62.852
X226.695Y136.512
X226.924Y144.526
X227.198Y67.592
X227.838Y49.421
X228.589Y76.328
X228.981Y138.455
X229.258Y131.996
X229.641Y59.55
X232.257Y70.405
X233.712Y141.964
X234.391Y140.957
X234.428Y137.5
X234.442Y92.373
X234.897Y62.535
X235.127Y69.198
X235.306Y54.432
X235.458Y131.266
X238.384Y98.899
X238.554Y81.609
X238.713Y83.948
X241.008Y142.138
X242.875Y83.922
X243.753Y111.017
X245.502Y141.964
X249.244Y80.275
X251.498Y137.605
X254.492Y65.612
X255.509Y101.361
X256.595Y60.324
X259.567Y89.461
X260.322Y122.472
T2
X192.908Y121.992
T3
X21.844Y44.45
X21.844Y49.53
X21.844Y72.39
X21.844Y77.47
X21.844Y102.87
X21.844Y107.95
X22.352Y87.63
X22.352Y90.17
X22.352Y92.71
X22.86Y67.31
X24.13Y55.88
X24.13Y63.5
X24.892Y98.044
X25.4Y67.31
X26.67Y55.88
X26.67Y63.5
X26.924Y43.18
X26.924Y50.8
X26.924Y71.12
X26.924Y78.74
X26.924Y101.6
X26.924Y109.22
X27.432Y98.044
X27.94Y67.31
X28.194Y86.36
X28.194Y93.98
X29.21Y55.88
X29.21Y63.5
X29.464Y43.18
X29.464Y50.8
X29.464Y71.12
X29.464Y78.74
X29.464Y101.6
X29.464Y109.22
X29.972Y98.044
X30.48Y67.31
X30.734Y86.36
X30.734Y93.98
X31.75Y55.88
X31.75Y63.5
X32.004Y43.18
X32.004Y50.8
X32.004Y71.12
X32.004Y78.74
X32.004Y101.6
X32.004Y109.22
X32.512Y98.044
X33.02Y67.31
X33.274Y86.36
X33.274Y93.98
X34.29Y55.88
X34.29Y63.5
X34.544Y43.18
X34.544Y50.8
X34.544Y71.12
X34.544Y78.74
X34.544Y101.6
X34.544Y109.22
X35.052Y98.044
X35.56Y67.31
X35.814Y86.36
X35.814Y93.98
X36.83Y55.88
X36.83Y63.5
X37.084Y43.18
X37.084Y50.8
X37.084Y71.12
X37.084Y78.74
X37.084Y101.6
X37.084Y109.22
X37.592Y98.044
X38.1Y67.31
X38.354Y86.36
X38.354Y93.98
X39.37Y55.88
X39.37Y63.5
X39.624Y43.18
X39.624Y50.8
X39.624Y71.12
X39.624Y78.74
X39.624Y101.6
X39.624Y109.22
X40.132Y98.044
X40.64Y67.31
X40.894Y86.36
X40.894Y93.98
X41.91Y55.88
X41.91Y63.5
X42.164Y43.18
X42.164Y50.8
X42.164Y71.12
X42.164Y78.74
X42.164Y101.6
X42.164Y109.22
X42.672Y98.044
X43.18Y67.31
X43.434Y86.36
X43.434Y93.98
X44.704Y71.12
X44.704Y78.74
X44.704Y101.6
X44.704Y109.22
X45.212Y98.044
X45.72Y67.31
X45.974Y86.36
X45.974Y93.98
X46.228Y142.875
X46.609Y116.967
X46.609Y124.841
X47.752Y98.044
X48.768Y142.875
X49.149Y116.967
X49.149Y124.841
X51.816Y31.75
X51.816Y36.83
X51.816Y44.45
X51.816Y49.53
X51.816Y72.136
X51.816Y77.216
X51.816Y87.63
X51.816Y92.71
X51.816Y102.87
X51.816Y107.95
X54.356Y67.31
X55.626Y55.88
X55.626Y63.5
X56.134Y71.12
X56.134Y78.74
X56.388Y86.36
X56.388Y93.98
X56.388Y101.6
X56.388Y109.22
X56.896Y30.48
X56.896Y38.1
X56.896Y43.18
X56.896Y50.8
X56.896Y67.31
X57.658Y113.919
X57.721Y118.046
X57.721Y120.586
X57.721Y123.126
X58.166Y55.88
X58.166Y63.5
X58.674Y71.12
X58.674Y78.74
X58.928Y86.36
X58.928Y93.98
X58.928Y101.6
X58.928Y109.22
X59.436Y30.48
X59.436Y38.1
X59.436Y43.18
X59.436Y50.8
X59.436Y67.31
X60.198Y113.919
X60.642Y118.046
X60.642Y120.586
X60.642Y123.126
X60.706Y55.88
X60.706Y63.5
X61.214Y71.12
X61.214Y78.74
X61.468Y86.36
X61.468Y93.98
X61.468Y101.6
X61.468Y109.22
X61.976Y30.48
X61.976Y38.1
X61.976Y43.18
X61.976Y50.8
X61.976Y67.31
X62.738Y113.919
X63.246Y55.88
X63.246Y63.5
X63.563Y118.046
X63.563Y120.586
X63.563Y123.126
X63.754Y71.12
X63.754Y78.74
X64.008Y86.36
X64.008Y93.98
X64.008Y101.6
X64.008Y109.22
X64.516Y30.48
X64.516Y38.1
X64.516Y43.18
X64.516Y50.8
X64.516Y67.31
X65.278Y113.919
X65.786Y55.88
X65.786Y63.5
X66.294Y71.12
X66.294Y78.74
X66.484Y118.046
X66.484Y120.586
X66.484Y123.126
X66.548Y86.36
X66.548Y93.98
X66.548Y101.6
X66.548Y109.22
X67.056Y30.48
X67.056Y38.1
X67.056Y43.18
X67.056Y50.8
X67.056Y67.31
X67.818Y113.919
X68.326Y55.88
X68.326Y63.5
X68.834Y71.12
X68.834Y78.74
X69.088Y86.36
X69.088Y93.98
X69.088Y101.6
X69.088Y109.22
X69.406Y118.046
X69.406Y120.586
X69.406Y123.126
X69.596Y30.48
X69.596Y38.1
X69.596Y43.18
X69.596Y50.8
X69.596Y67.31
X70.358Y113.919
X70.866Y55.88
X70.866Y63.5
X71.374Y71.12
X71.374Y78.74
X71.628Y86.36
X71.628Y93.98
X71.628Y101.6
X71.628Y109.22
X72.136Y30.48
X72.136Y38.1
X72.136Y43.18
X72.136Y50.8
X72.136Y67.31
X72.326Y118.046
X72.326Y120.586
X72.326Y123.126
X72.898Y113.919
X73.406Y55.88
X73.406Y63.5
X73.914Y71.12
X73.914Y78.74
X74.168Y86.36
X74.168Y93.98
X74.168Y101.6
X74.168Y109.22
X74.676Y67.31
X75.248Y118.046
X75.248Y120.586
X75.248Y123.126
X75.438Y113.919
X76.708Y86.36
X76.708Y93.98
X76.708Y101.6
X76.708Y109.22
X77.216Y67.31
X77.978Y113.919
X78.168Y118.046
X78.168Y120.586
X78.168Y123.126
X79.248Y86.36
X79.248Y93.98
X79.248Y101.6
X79.248Y109.22
X80.518Y113.919
X84.836Y67.31
X85.09Y31.75
X85.09Y36.83
X85.09Y44.45
X85.09Y49.53
X85.09Y72.39
X85.09Y77.47
X85.09Y87.63
X85.09Y92.71
X85.09Y102.87
X85.09Y107.95
X85.09Y118.11
X85.09Y123.19
X85.09Y133.35
X85.09Y138.43
X86.106Y55.88
X86.106Y63.5
X86.36Y144.018
X87.376Y67.31
X88.646Y55.88
X88.646Y63.5
X88.9Y144.018
X89.916Y67.31
X90.17Y30.48
X90.17Y38.1
X90.17Y43.18
X90.17Y50.8
X90.17Y71.12
X90.17Y78.74
X90.17Y86.36
X90.17Y93.98
X90.17Y101.6
X90.17Y109.22
X90.17Y132.08
X90.17Y139.7
X90.424Y116.84
X90.424Y124.46
X91.186Y55.88
X91.186Y63.5
X91.44Y144.018
X92.456Y67.31
X92.71Y30.48
X92.71Y38.1
X92.71Y43.18
X92.71Y50.8
X92.71Y71.12
X92.71Y78.74
X92.71Y86.36
X92.71Y93.98
X92.71Y101.6
X92.71Y109.22
X92.71Y132.08
X92.71Y139.7
X92.964Y116.84
X92.964Y124.46
X93.726Y55.88
X93.726Y63.5
X94.996Y67.31
X95.25Y30.48
X95.25Y38.1
X95.25Y43.18
X95.25Y50.8
X95.25Y71.12
X95.25Y78.74
X95.25Y86.36
X95.25Y93.98
X95.25Y101.6
X95.25Y109.22
X95.25Y132.08
X95.25Y139.7
X95.504Y116.84
X95.504Y124.46
X96.266Y55.88
X96.266Y63.5
X97.536Y67.31
X97.79Y30.48
X97.79Y38.1
X97.79Y43.18
X97.79Y50.8
X97.79Y71.12
X97.79Y78.74
X97.79Y86.36
X97.79Y93.98
X97.79Y101.6
X97.79Y109.22
X97.79Y132.08
X97.79Y139.7
X98.044Y116.84
X98.044Y124.46
X98.806Y55.88
X98.806Y63.5
X100.076Y67.31
X100.33Y30.48
X100.33Y38.1
X100.33Y43.18
X100.33Y50.8
X100.33Y71.12
X100.33Y78.74
X100.33Y86.36
X100.33Y93.98
X100.33Y101.6
X100.33Y109.22
X100.33Y132.08
X100.33Y139.7
X100.584Y116.84
X100.584Y124.46
X101.346Y55.88
X101.346Y63.5
X102.616Y67.31
X102.87Y30.48
X102.87Y38.1
X102.87Y43.18
X102.87Y50.8
X102.87Y71.12
X102.87Y78.74
X102.87Y86.36
X102.87Y93.98
X102.87Y101.6
X102.87Y109.22
X102.87Y132.08
X102.87Y139.7
X103.124Y116.84
X103.124Y124.46
X103.886Y55.88
X103.886Y63.5
X105.156Y67.31
X105.41Y30.48
X105.41Y38.1
X105.41Y43.18
X105.41Y50.8
X105.41Y71.12
X105.41Y78.74
X105.41Y86.36
X105.41Y93.98
X105.41Y101.6
X105.41Y109.22
X105.41Y132.08
X105.41Y139.7
X105.664Y116.84
X105.664Y124.46
X107.696Y67.31
X107.95Y71.12
X107.95Y78.74
X107.95Y86.36
X107.95Y93.98
X107.95Y101.6
X107.95Y109.22
X107.95Y132.08
X107.95Y139.7
X108.204Y116.84
X108.204Y124.46
X110.49Y101.6
X110.49Y109.22
X110.49Y132.08
X110.49Y139.7
X113.03Y101.6
X113.03Y109.22
X113.03Y132.08
X113.03Y139.7
X114.935Y64.643
X114.935Y67.183
X114.935Y69.723
X121.92Y59.69
X121.92Y64.77
X121.92Y72.39
X121.92Y77.47
X121.92Y82.804
X121.92Y87.63
X121.92Y92.71
X121.92Y102.87
X121.92Y107.95
X121.92Y118.11
X121.92Y123.19
X121.92Y133.35
X121.92Y138.43
X124.46Y82.804
X126.746Y116.84
X126.746Y124.46
X127.Y58.42
X127.Y66.04
X127.Y71.12
X127.Y78.74
X127.Y82.804
X127.Y86.36
X127.Y93.98
X127.Y101.6
X127.Y109.22
X127.Y132.08
X127.Y139.7
X129.286Y116.84
X129.286Y124.46
X129.54Y58.42
X129.54Y66.04
X129.54Y71.12
X129.54Y78.74
X129.54Y82.804
X129.54Y86.36
X129.54Y93.98
X129.54Y101.6
X129.54Y109.22
X129.54Y132.08
X129.54Y139.7
X131.826Y116.84
X131.826Y124.46
X132.08Y58.42
X132.08Y66.04
X132.08Y71.12
X132.08Y78.74
X132.08Y82.804
X132.08Y86.36
X132.08Y93.98
X132.08Y101.6
X132.08Y109.22
X132.08Y132.08
X132.08Y139.7
X134.366Y116.84
X134.366Y124.46
X134.62Y58.42
X134.62Y66.04
X134.62Y71.12
X134.62Y78.74
X134.62Y82.804
X134.62Y86.36
X134.62Y93.98
X134.62Y101.6
X134.62Y109.22
X134.62Y132.08
X134.62Y139.7
X136.906Y116.84
X136.906Y124.46
X137.16Y58.42
X137.16Y66.04
X137.16Y71.12
X137.16Y78.74
X137.16Y82.804
X137.16Y86.36
X137.16Y93.98
X137.16Y101.6
X137.16Y109.22
X137.16Y132.08
X137.16Y139.7
X139.446Y116.84
X139.446Y124.46
X139.7Y58.42
X139.7Y66.04
X139.7Y71.12
X139.7Y78.74
X139.7Y82.804
X139.7Y86.36
X139.7Y93.98
X139.7Y101.6
X139.7Y109.22
X139.7Y132.08
X139.7Y139.7
X141.986Y116.84
X141.986Y124.46
X142.24Y58.42
X142.24Y66.04
X142.24Y71.12
X142.24Y78.74
X142.24Y82.804
X142.24Y86.36
X142.24Y93.98
X142.24Y101.6
X142.24Y109.22
X142.24Y132.08
X142.24Y139.7
X144.526Y116.84
X144.526Y124.46
X144.78Y82.804
X144.78Y132.08
X144.78Y139.7
X147.32Y132.08
X147.32Y139.7
X149.86Y132.08
X149.86Y139.7
X152.4Y80.01
X152.4Y82.55
X152.4Y85.09
X152.527Y95.123
X152.527Y97.663
X152.527Y100.203
X158.75Y59.69
X158.75Y64.77
X158.75Y72.39
X158.75Y77.47
X158.75Y87.63
X158.75Y92.71
X158.75Y102.87
X158.75Y107.95
X158.75Y118.11
X158.75Y123.19
X158.75Y133.35
X158.75Y138.43
X162.56Y116.84
X162.56Y124.46
X163.83Y58.42
X163.83Y66.04
X163.83Y71.12
X163.83Y78.74
X163.83Y86.36
X163.83Y93.98
X163.83Y101.6
X163.83Y109.22
X163.83Y132.08
X163.83Y139.7
X165.1Y116.84
X165.1Y124.46
X166.37Y58.42
X166.37Y66.04
X166.37Y71.12
X166.37Y78.74
X166.37Y86.36
X166.37Y93.98
X166.37Y101.6
X166.37Y109.22
X166.37Y132.08
X166.37Y139.7
X167.64Y116.84
X167.64Y124.46
X168.91Y58.42
X168.91Y66.04
X168.91Y71.12
X168.91Y78.74
X168.91Y86.36
X168.91Y93.98
X168.91Y101.6
X168.91Y109.22
X168.91Y132.08
X168.91Y139.7
X170.18Y116.84
X170.18Y124.46
X171.45Y31.75
X171.45Y46.99
X171.45Y58.42
X171.45Y66.04
X171.45Y71.12
X171.45Y78.74
X171.45Y86.36
X171.45Y93.98
X171.45Y101.6
X171.45Y109.22
X171.45Y132.08
X171.45Y139.7
X172.72Y116.84
X172.72Y124.46
X173.99Y31.75
X173.99Y46.99
X173.99Y58.42
X173.99Y66.04
X173.99Y71.12
X173.99Y78.74
X173.99Y86.36
X173.99Y93.98
X173.99Y101.6
X173.99Y109.22
X173.99Y132.08
X173.99Y139.7
X175.26Y116.84
X175.26Y124.46
X176.53Y31.75
X176.53Y46.99
X176.53Y58.42
X176.53Y66.04
X176.53Y71.12
X176.53Y78.74
X176.53Y86.36
X176.53Y93.98
X176.53Y101.6
X176.53Y109.22
X176.53Y132.08
X176.53Y139.7
X177.8Y116.84
X177.8Y124.46
X179.07Y31.75
X179.07Y46.99
X179.07Y58.42
X179.07Y66.04
X179.07Y71.12
X179.07Y78.74
X179.07Y86.36
X179.07Y93.98
X179.07Y101.6
X179.07Y109.22
X179.07Y132.08
X179.07Y139.7
X180.34Y116.84
X180.34Y124.46
X181.61Y31.75
X181.61Y46.99
X181.61Y132.08
X181.61Y139.7
X184.15Y31.75
X184.15Y46.99
X184.15Y132.08
X184.15Y139.7
X185.42Y79.756
X185.42Y82.296
X185.42Y84.836
X186.69Y31.75
X186.69Y46.99
X186.69Y132.08
X186.69Y139.7
X188.595Y79.756
X188.595Y82.296
X188.595Y84.836
X189.23Y31.75
X189.23Y46.99
X190.246Y59.69
X190.246Y64.77
X191.77Y31.75
X191.77Y46.99
X191.77Y79.756
X191.77Y82.296
X191.77Y84.836
X192.913Y59.69
X192.913Y64.77
X194.31Y31.75
X194.31Y46.99
X195.58Y59.69
X195.58Y64.77
X195.58Y72.39
X195.58Y77.47
X195.58Y87.63
X195.58Y92.71
X195.58Y102.87
X195.58Y107.95
X195.58Y118.11
X195.58Y123.19
X195.58Y133.35
X195.58Y138.43
X196.85Y31.75
X196.85Y46.99
X199.39Y31.75
X199.39Y46.99
X200.66Y58.42
X200.66Y66.04
X200.66Y71.12
X200.66Y78.74
X200.66Y86.36
X200.66Y93.98
X200.66Y101.6
X200.66Y109.22
X200.66Y116.84
X200.66Y124.46
X200.66Y132.08
X200.66Y139.7
X201.93Y31.75
X201.93Y46.99
X203.2Y58.42
X203.2Y66.04
X203.2Y71.12
X203.2Y78.74
X203.2Y86.36
X203.2Y93.98
X203.2Y101.6
X203.2Y109.22
X203.2Y116.84
X203.2Y124.46
X203.2Y132.08
X203.2Y139.7
X204.47Y31.75
X204.47Y46.99
X205.74Y58.42
X205.74Y66.04
X205.74Y71.12
X205.74Y78.74
X205.74Y86.36
X205.74Y93.98
X205.74Y101.6
X205.74Y109.22
X205.74Y116.84
X205.74Y124.46
X205.74Y132.08
X205.74Y139.7
X207.01Y31.75
X207.01Y46.99
X208.28Y58.42
X208.28Y66.04
X208.28Y71.12
X208.28Y78.74
X208.28Y86.36
X208.28Y93.98
X208.28Y101.6
X208.28Y109.22
X208.28Y116.84
X208.28Y124.46
X208.28Y132.08
X208.28Y139.7
X209.55Y31.75
X209.55Y46.99
X210.82Y58.42
X210.82Y66.04
X210.82Y71.12
X210.82Y78.74
X210.82Y86.36
X210.82Y93.98
X210.82Y101.6
X210.82Y109.22
X210.82Y116.84
X210.82Y124.46
X210.82Y132.08
X210.82Y139.7
X212.09Y31.75
X212.09Y46.99
X213.36Y58.42
X213.36Y66.04
X213.36Y71.12
X213.36Y78.74
X213.36Y86.36
X213.36Y93.98
X213.36Y101.6
X213.36Y109.22
X213.36Y116.84
X213.36Y124.46
X213.36Y132.08
X213.36Y139.7
X214.63Y31.75
X214.63Y46.99
X215.9Y58.42
X215.9Y66.04
X215.9Y71.12
X215.9Y78.74
X215.9Y86.36
X215.9Y93.98
X215.9Y101.6
X215.9Y109.22
X215.9Y116.84
X215.9Y124.46
X215.9Y132.08
X215.9Y139.7
X217.17Y31.75
X217.17Y46.99
X218.44Y101.6
X218.44Y109.22
X218.44Y116.84
X218.44Y124.46
X218.44Y132.08
X218.44Y139.7
X219.71Y31.75
X219.71Y46.99
X220.98Y101.6
X220.98Y109.22
X220.98Y132.08
X220.98Y139.7
X222.25Y87.757
X222.25Y90.297
X222.25Y92.837
X222.377Y116.967
X222.377Y124.587
X223.52Y101.6
X223.52Y109.22
X223.52Y132.08
X223.52Y139.7
X224.917Y116.967
X224.917Y124.587
X227.203Y73.152
X227.203Y75.692
X227.203Y78.232
X227.203Y80.772
X227.203Y83.312
X227.203Y85.852
X227.203Y88.392
X227.203Y90.932
X227.203Y93.472
X227.203Y96.012
X227.457Y116.967
X227.457Y124.587
X228.6Y101.6
X228.6Y109.22
X229.997Y116.967
X229.997Y124.587
X232.41Y44.45
X232.41Y49.53
X232.41Y59.69
X232.41Y64.77
X232.41Y87.63
X232.41Y92.71
X232.41Y102.87
X232.41Y107.95
X232.41Y118.11
X232.41Y123.19
X232.41Y133.35
X232.41Y138.43
X232.664Y72.39
X232.664Y77.47
X237.236Y86.36
X237.236Y93.98
X237.49Y43.18
X237.49Y50.8
X237.49Y58.42
X237.49Y66.04
X237.49Y71.12
X237.49Y78.74
X237.49Y101.6
X237.49Y109.22
X237.49Y116.84
X237.49Y124.46
X237.49Y132.08
X237.49Y139.7
X239.776Y86.36
X239.776Y93.98
X240.03Y43.18
X240.03Y50.8
X240.03Y58.42
X240.03Y66.04
X240.03Y71.12
X240.03Y78.74
X240.03Y101.6
X240.03Y109.22
X240.03Y116.84
X240.03Y124.46
X240.03Y132.08
X240.03Y139.7
X242.316Y86.36
X242.316Y93.98
X242.57Y43.18
X242.57Y50.8
X242.57Y58.42
X242.57Y66.04
X242.57Y71.12
X242.57Y78.74
X242.57Y101.6
X242.57Y109.22
X242.57Y116.84
X242.57Y124.46
X242.57Y132.08
X242.57Y139.7
X244.856Y86.36
X244.856Y93.98
X245.11Y43.18
X245.11Y50.8
X245.11Y54.61
X245.11Y58.42
X245.11Y66.04
X245.11Y71.12
X245.11Y78.74
X245.11Y101.6
X245.11Y109.22
X245.11Y116.84
X245.11Y124.46
X245.11Y132.08
X245.11Y139.7
X247.396Y86.36
X247.396Y93.98
X247.65Y43.18
X247.65Y50.8
X247.65Y58.42
X247.65Y66.04
X247.65Y71.12
X247.65Y78.74
X247.65Y101.6
X247.65Y109.22
X247.65Y116.84
X247.65Y124.46
X247.65Y132.08
X247.65Y139.7
X249.936Y86.36
X249.936Y93.98
X250.19Y43.18
X250.19Y50.8
X250.19Y58.42
X250.19Y66.04
X250.19Y71.12
X250.19Y78.74
X250.19Y101.6
X250.19Y109.22
X250.19Y116.84
X250.19Y124.46
X250.19Y132.08
X250.19Y139.7
X252.476Y86.36
X252.476Y93.98
X252.73Y43.18
X252.73Y50.8
X252.73Y54.61
X252.73Y58.42
X252.73Y66.04
X252.73Y71.12
X252.73Y78.74
X252.73Y101.6
X252.73Y109.22
X252.73Y116.84
X252.73Y124.46
X252.73Y132.08
X252.73Y139.7
X255.27Y43.18
X255.27Y50.8
X255.27Y116.84
X255.27Y124.46
X255.27Y132.08
X255.27Y139.7
X257.81Y116.84
X257.81Y124.46
X257.81Y132.08
X257.81Y139.7
X260.35Y116.84
X260.35Y124.46
X260.35Y132.08
X260.35Y139.7
T5
X149.987Y64.516
X149.987Y67.056
X149.987Y69.596
X152.527Y64.516
X152.527Y67.056
X152.527Y69.596
X187.833Y93.98
X187.833Y96.52
X187.833Y103.505
X187.833Y106.045
X187.833Y108.585
X187.833Y111.125
X190.373Y93.98
X190.373Y96.52
X190.373Y103.505
X190.373Y106.045
X190.373Y108.585
X190.373Y111.125
X236.347Y31.75
X236.347Y34.29
X238.887Y31.75
X238.887Y34.29
X243.205Y31.75
X243.205Y34.29
X245.745Y31.75
X245.745Y34.29
X248.285Y31.75
X248.285Y34.29
X250.825Y31.75
X250.825Y34.29
T6
X42.418Y131.318
X42.418Y133.858
X42.418Y136.398
T7
X19.05Y29.21
X25.908Y133.858
X260.35Y29.21
T4
X121.92Y30.75G85X121.92Y32.75
G05
X121.92Y45.99G85X121.92Y47.99
G05
X124.46Y30.75G85X124.46Y32.75
G05
X124.46Y45.99G85X124.46Y47.99
G05
X127.Y30.75G85X127.Y32.75
G05
X127.Y45.99G85X127.Y47.99
G05
X129.54Y30.75G85X129.54Y32.75
G05
X129.54Y45.99G85X129.54Y47.99
G05
X132.08Y30.75G85X132.08Y32.75
G05
X132.08Y45.99G85X132.08Y47.99
G05
X134.62Y30.75G85X134.62Y32.75
G05
X134.62Y45.99G85X134.62Y47.99
G05
X137.16Y30.75G85X137.16Y32.75
G05
X137.16Y45.99G85X137.16Y47.99
G05
X139.7Y30.75G85X139.7Y32.75
G05
X139.7Y45.99G85X139.7Y47.99
G05
X142.24Y30.75G85X142.24Y32.75
G05
X142.24Y45.99G85X142.24Y47.99
G05
X144.78Y30.75G85X144.78Y32.75
G05
X144.78Y45.99G85X144.78Y47.99
G05
X147.32Y30.75G85X147.32Y32.75
G05
X147.32Y45.99G85X147.32Y47.99
G05
X149.86Y30.75G85X149.86Y32.75
G05
X149.86Y45.99G85X149.86Y47.99
G05
T0
M30
