G04 (created by PCBNEW (2013-07-07 BZR 4022)-stable) date 7/18/2014 12:18:10 AM*
%MOIN*%
G04 Gerber Fmt 3.4, Leading zero omitted, Abs format*
%FSLAX34Y34*%
G01*
G70*
G90*
G04 APERTURE LIST*
%ADD10C,0.00590551*%
%ADD11C,0.002*%
%ADD12C,0.0026*%
%ADD13C,0.006*%
%ADD14C,0.0035*%
G04 APERTURE END LIST*
G54D10*
G54D11*
X28487Y-53676D02*
X28487Y-52124D01*
X28487Y-52124D02*
X27713Y-52124D01*
X27713Y-52124D02*
X27713Y-53676D01*
X27713Y-53676D02*
X28487Y-53676D01*
X25476Y-54913D02*
X23924Y-54913D01*
X23924Y-54913D02*
X23924Y-55687D01*
X23924Y-55687D02*
X25476Y-55687D01*
X25476Y-55687D02*
X25476Y-54913D01*
X26187Y-53676D02*
X26187Y-52124D01*
X26187Y-52124D02*
X25413Y-52124D01*
X25413Y-52124D02*
X25413Y-53676D01*
X25413Y-53676D02*
X26187Y-53676D01*
X23376Y-54913D02*
X21824Y-54913D01*
X21824Y-54913D02*
X21824Y-55687D01*
X21824Y-55687D02*
X23376Y-55687D01*
X23376Y-55687D02*
X23376Y-54913D01*
X23987Y-53676D02*
X23987Y-52124D01*
X23987Y-52124D02*
X23213Y-52124D01*
X23213Y-52124D02*
X23213Y-53676D01*
X23213Y-53676D02*
X23987Y-53676D01*
G54D12*
X29290Y-53720D02*
X29110Y-53720D01*
X29110Y-53720D02*
X29110Y-53491D01*
X29290Y-53491D02*
X29110Y-53491D01*
X29290Y-53720D02*
X29290Y-53491D01*
X28920Y-54509D02*
X28740Y-54509D01*
X28740Y-54509D02*
X28740Y-54280D01*
X28920Y-54280D02*
X28740Y-54280D01*
X28920Y-54509D02*
X28920Y-54280D01*
X29660Y-54509D02*
X29480Y-54509D01*
X29480Y-54509D02*
X29480Y-54280D01*
X29660Y-54280D02*
X29480Y-54280D01*
X29660Y-54509D02*
X29660Y-54280D01*
G54D13*
X28641Y-53741D02*
X28641Y-54259D01*
X28641Y-54259D02*
X29759Y-54259D01*
X29759Y-54259D02*
X29759Y-53741D01*
X29759Y-53741D02*
X28641Y-53741D01*
G54D12*
X27090Y-53720D02*
X26910Y-53720D01*
X26910Y-53720D02*
X26910Y-53491D01*
X27090Y-53491D02*
X26910Y-53491D01*
X27090Y-53720D02*
X27090Y-53491D01*
X26720Y-54509D02*
X26540Y-54509D01*
X26540Y-54509D02*
X26540Y-54280D01*
X26720Y-54280D02*
X26540Y-54280D01*
X26720Y-54509D02*
X26720Y-54280D01*
X27460Y-54509D02*
X27280Y-54509D01*
X27280Y-54509D02*
X27280Y-54280D01*
X27460Y-54280D02*
X27280Y-54280D01*
X27460Y-54509D02*
X27460Y-54280D01*
G54D13*
X26441Y-53741D02*
X26441Y-54259D01*
X26441Y-54259D02*
X27559Y-54259D01*
X27559Y-54259D02*
X27559Y-53741D01*
X27559Y-53741D02*
X26441Y-53741D01*
G54D12*
X24790Y-53720D02*
X24610Y-53720D01*
X24610Y-53720D02*
X24610Y-53491D01*
X24790Y-53491D02*
X24610Y-53491D01*
X24790Y-53720D02*
X24790Y-53491D01*
X24420Y-54509D02*
X24240Y-54509D01*
X24240Y-54509D02*
X24240Y-54280D01*
X24420Y-54280D02*
X24240Y-54280D01*
X24420Y-54509D02*
X24420Y-54280D01*
X25160Y-54509D02*
X24980Y-54509D01*
X24980Y-54509D02*
X24980Y-54280D01*
X25160Y-54280D02*
X24980Y-54280D01*
X25160Y-54509D02*
X25160Y-54280D01*
G54D13*
X24141Y-53741D02*
X24141Y-54259D01*
X24141Y-54259D02*
X25259Y-54259D01*
X25259Y-54259D02*
X25259Y-53741D01*
X25259Y-53741D02*
X24141Y-53741D01*
G54D12*
X22690Y-53720D02*
X22510Y-53720D01*
X22510Y-53720D02*
X22510Y-53491D01*
X22690Y-53491D02*
X22510Y-53491D01*
X22690Y-53720D02*
X22690Y-53491D01*
X22320Y-54509D02*
X22140Y-54509D01*
X22140Y-54509D02*
X22140Y-54280D01*
X22320Y-54280D02*
X22140Y-54280D01*
X22320Y-54509D02*
X22320Y-54280D01*
X23060Y-54509D02*
X22880Y-54509D01*
X22880Y-54509D02*
X22880Y-54280D01*
X23060Y-54280D02*
X22880Y-54280D01*
X23060Y-54509D02*
X23060Y-54280D01*
G54D13*
X22041Y-53741D02*
X22041Y-54259D01*
X22041Y-54259D02*
X23159Y-54259D01*
X23159Y-54259D02*
X23159Y-53741D01*
X23159Y-53741D02*
X22041Y-53741D01*
G54D12*
X17620Y-13810D02*
X17620Y-13990D01*
X17620Y-13990D02*
X17391Y-13990D01*
X17391Y-13810D02*
X17391Y-13990D01*
X17620Y-13810D02*
X17391Y-13810D01*
X18409Y-14180D02*
X18409Y-14360D01*
X18409Y-14360D02*
X18180Y-14360D01*
X18180Y-14180D02*
X18180Y-14360D01*
X18409Y-14180D02*
X18180Y-14180D01*
X18409Y-13440D02*
X18409Y-13620D01*
X18409Y-13620D02*
X18180Y-13620D01*
X18180Y-13440D02*
X18180Y-13620D01*
X18409Y-13440D02*
X18180Y-13440D01*
G54D13*
X17641Y-14459D02*
X18159Y-14459D01*
X18159Y-14459D02*
X18159Y-13341D01*
X18159Y-13341D02*
X17641Y-13341D01*
X17641Y-13341D02*
X17641Y-14459D01*
G54D12*
X14620Y-13760D02*
X14620Y-13940D01*
X14620Y-13940D02*
X14391Y-13940D01*
X14391Y-13760D02*
X14391Y-13940D01*
X14620Y-13760D02*
X14391Y-13760D01*
X15409Y-14130D02*
X15409Y-14310D01*
X15409Y-14310D02*
X15180Y-14310D01*
X15180Y-14130D02*
X15180Y-14310D01*
X15409Y-14130D02*
X15180Y-14130D01*
X15409Y-13390D02*
X15409Y-13570D01*
X15409Y-13570D02*
X15180Y-13570D01*
X15180Y-13390D02*
X15180Y-13570D01*
X15409Y-13390D02*
X15180Y-13390D01*
G54D13*
X14641Y-14409D02*
X15159Y-14409D01*
X15159Y-14409D02*
X15159Y-13291D01*
X15159Y-13291D02*
X14641Y-13291D01*
X14641Y-13291D02*
X14641Y-14409D01*
G54D11*
X26224Y-55687D02*
X27776Y-55687D01*
X27776Y-55687D02*
X27776Y-54913D01*
X27776Y-54913D02*
X26224Y-54913D01*
X26224Y-54913D02*
X26224Y-55687D01*
X14887Y-13026D02*
X14887Y-11474D01*
X14887Y-11474D02*
X14113Y-11474D01*
X14113Y-11474D02*
X14113Y-13026D01*
X14113Y-13026D02*
X14887Y-13026D01*
X29713Y-52124D02*
X29713Y-53676D01*
X29713Y-53676D02*
X30487Y-53676D01*
X30487Y-53676D02*
X30487Y-52124D01*
X30487Y-52124D02*
X29713Y-52124D01*
X29976Y-54913D02*
X28424Y-54913D01*
X28424Y-54913D02*
X28424Y-55687D01*
X28424Y-55687D02*
X29976Y-55687D01*
X29976Y-55687D02*
X29976Y-54913D01*
X17063Y-11474D02*
X17063Y-13026D01*
X17063Y-13026D02*
X17837Y-13026D01*
X17837Y-13026D02*
X17837Y-11474D01*
X17837Y-11474D02*
X17063Y-11474D01*
X18837Y-13026D02*
X18837Y-11474D01*
X18837Y-11474D02*
X18063Y-11474D01*
X18063Y-11474D02*
X18063Y-13026D01*
X18063Y-13026D02*
X18837Y-13026D01*
X15113Y-11474D02*
X15113Y-13026D01*
X15113Y-13026D02*
X15887Y-13026D01*
X15887Y-13026D02*
X15887Y-11474D01*
X15887Y-11474D02*
X15113Y-11474D01*
X11686Y-45253D02*
X10134Y-45253D01*
X10134Y-45253D02*
X10134Y-46027D01*
X10134Y-46027D02*
X11686Y-46027D01*
X11686Y-46027D02*
X11686Y-45253D01*
X31176Y-31913D02*
X29624Y-31913D01*
X29624Y-31913D02*
X29624Y-32687D01*
X29624Y-32687D02*
X31176Y-32687D01*
X31176Y-32687D02*
X31176Y-31913D01*
G54D14*
X27602Y-52178D02*
X27364Y-52011D01*
X27602Y-51892D02*
X27102Y-51892D01*
X27102Y-52083D01*
X27126Y-52130D01*
X27150Y-52154D01*
X27197Y-52178D01*
X27269Y-52178D01*
X27316Y-52154D01*
X27340Y-52130D01*
X27364Y-52083D01*
X27364Y-51892D01*
X27602Y-52654D02*
X27602Y-52369D01*
X27602Y-52511D02*
X27102Y-52511D01*
X27173Y-52464D01*
X27221Y-52416D01*
X27245Y-52369D01*
X27102Y-52964D02*
X27102Y-53011D01*
X27126Y-53059D01*
X27150Y-53083D01*
X27197Y-53107D01*
X27292Y-53130D01*
X27411Y-53130D01*
X27507Y-53107D01*
X27554Y-53083D01*
X27578Y-53059D01*
X27602Y-53011D01*
X27602Y-52964D01*
X27578Y-52916D01*
X27554Y-52892D01*
X27507Y-52869D01*
X27411Y-52845D01*
X27292Y-52845D01*
X27197Y-52869D01*
X27150Y-52892D01*
X27126Y-52916D01*
X27102Y-52964D01*
X8119Y-60219D02*
X8452Y-60219D01*
X7928Y-60100D02*
X8285Y-59980D01*
X8285Y-60290D01*
X7952Y-60433D02*
X7952Y-60766D01*
X8452Y-60552D01*
X7952Y-61052D02*
X7952Y-61100D01*
X7976Y-61147D01*
X8000Y-61171D01*
X8047Y-61195D01*
X8142Y-61219D01*
X8261Y-61219D01*
X8357Y-61195D01*
X8404Y-61171D01*
X8428Y-61147D01*
X8452Y-61100D01*
X8452Y-61052D01*
X8428Y-61004D01*
X8404Y-60980D01*
X8357Y-60957D01*
X8261Y-60933D01*
X8142Y-60933D01*
X8047Y-60957D01*
X8000Y-60980D01*
X7976Y-61004D01*
X7952Y-61052D01*
X25021Y-56302D02*
X25188Y-56064D01*
X25307Y-56302D02*
X25307Y-55802D01*
X25116Y-55802D01*
X25069Y-55826D01*
X25045Y-55850D01*
X25021Y-55897D01*
X25021Y-55969D01*
X25045Y-56016D01*
X25069Y-56040D01*
X25116Y-56064D01*
X25307Y-56064D01*
X24545Y-56302D02*
X24830Y-56302D01*
X24688Y-56302D02*
X24688Y-55802D01*
X24735Y-55873D01*
X24783Y-55921D01*
X24830Y-55945D01*
X24354Y-55850D02*
X24330Y-55826D01*
X24283Y-55802D01*
X24164Y-55802D01*
X24116Y-55826D01*
X24092Y-55850D01*
X24069Y-55897D01*
X24069Y-55945D01*
X24092Y-56016D01*
X24378Y-56302D01*
X24069Y-56302D01*
X8042Y-62302D02*
X7733Y-62302D01*
X7900Y-62492D01*
X7828Y-62492D01*
X7780Y-62516D01*
X7757Y-62540D01*
X7733Y-62588D01*
X7733Y-62707D01*
X7757Y-62754D01*
X7780Y-62778D01*
X7828Y-62802D01*
X7971Y-62802D01*
X8019Y-62778D01*
X8042Y-62754D01*
X7566Y-62302D02*
X7257Y-62302D01*
X7423Y-62492D01*
X7352Y-62492D01*
X7304Y-62516D01*
X7280Y-62540D01*
X7257Y-62588D01*
X7257Y-62707D01*
X7280Y-62754D01*
X7304Y-62778D01*
X7352Y-62802D01*
X7495Y-62802D01*
X7542Y-62778D01*
X7566Y-62754D01*
X6947Y-62302D02*
X6900Y-62302D01*
X6852Y-62326D01*
X6828Y-62350D01*
X6804Y-62397D01*
X6780Y-62492D01*
X6780Y-62611D01*
X6804Y-62707D01*
X6828Y-62754D01*
X6852Y-62778D01*
X6900Y-62802D01*
X6947Y-62802D01*
X6995Y-62778D01*
X7019Y-62754D01*
X7042Y-62707D01*
X7066Y-62611D01*
X7066Y-62492D01*
X7042Y-62397D01*
X7019Y-62350D01*
X6995Y-62326D01*
X6947Y-62302D01*
X25302Y-52178D02*
X25064Y-52011D01*
X25302Y-51892D02*
X24802Y-51892D01*
X24802Y-52083D01*
X24826Y-52130D01*
X24850Y-52154D01*
X24897Y-52178D01*
X24969Y-52178D01*
X25016Y-52154D01*
X25040Y-52130D01*
X25064Y-52083D01*
X25064Y-51892D01*
X25302Y-52654D02*
X25302Y-52369D01*
X25302Y-52511D02*
X24802Y-52511D01*
X24873Y-52464D01*
X24921Y-52416D01*
X24945Y-52369D01*
X24802Y-52821D02*
X24802Y-53130D01*
X24992Y-52964D01*
X24992Y-53035D01*
X25016Y-53083D01*
X25040Y-53107D01*
X25088Y-53130D01*
X25207Y-53130D01*
X25254Y-53107D01*
X25278Y-53083D01*
X25302Y-53035D01*
X25302Y-52892D01*
X25278Y-52845D01*
X25254Y-52821D01*
X7819Y-60619D02*
X8152Y-60619D01*
X7628Y-60500D02*
X7985Y-60380D01*
X7985Y-60690D01*
X7652Y-60833D02*
X7652Y-61166D01*
X8152Y-60952D01*
X7652Y-61452D02*
X7652Y-61500D01*
X7676Y-61547D01*
X7700Y-61571D01*
X7747Y-61595D01*
X7842Y-61619D01*
X7961Y-61619D01*
X8057Y-61595D01*
X8104Y-61571D01*
X8128Y-61547D01*
X8152Y-61500D01*
X8152Y-61452D01*
X8128Y-61404D01*
X8104Y-61380D01*
X8057Y-61357D01*
X7961Y-61333D01*
X7842Y-61333D01*
X7747Y-61357D01*
X7700Y-61380D01*
X7676Y-61404D01*
X7652Y-61452D01*
X22821Y-56302D02*
X22988Y-56064D01*
X23107Y-56302D02*
X23107Y-55802D01*
X22916Y-55802D01*
X22869Y-55826D01*
X22845Y-55850D01*
X22821Y-55897D01*
X22821Y-55969D01*
X22845Y-56016D01*
X22869Y-56040D01*
X22916Y-56064D01*
X23107Y-56064D01*
X22345Y-56302D02*
X22630Y-56302D01*
X22488Y-56302D02*
X22488Y-55802D01*
X22535Y-55873D01*
X22583Y-55921D01*
X22630Y-55945D01*
X21916Y-55969D02*
X21916Y-56302D01*
X22035Y-55778D02*
X22154Y-56135D01*
X21845Y-56135D01*
X8992Y-60652D02*
X8683Y-60652D01*
X8850Y-60842D01*
X8778Y-60842D01*
X8730Y-60866D01*
X8707Y-60890D01*
X8683Y-60938D01*
X8683Y-61057D01*
X8707Y-61104D01*
X8730Y-61128D01*
X8778Y-61152D01*
X8921Y-61152D01*
X8969Y-61128D01*
X8992Y-61104D01*
X8516Y-60652D02*
X8207Y-60652D01*
X8373Y-60842D01*
X8302Y-60842D01*
X8254Y-60866D01*
X8230Y-60890D01*
X8207Y-60938D01*
X8207Y-61057D01*
X8230Y-61104D01*
X8254Y-61128D01*
X8302Y-61152D01*
X8445Y-61152D01*
X8492Y-61128D01*
X8516Y-61104D01*
X7897Y-60652D02*
X7850Y-60652D01*
X7802Y-60676D01*
X7778Y-60700D01*
X7754Y-60747D01*
X7730Y-60842D01*
X7730Y-60961D01*
X7754Y-61057D01*
X7778Y-61104D01*
X7802Y-61128D01*
X7850Y-61152D01*
X7897Y-61152D01*
X7945Y-61128D01*
X7969Y-61104D01*
X7992Y-61057D01*
X8016Y-60961D01*
X8016Y-60842D01*
X7992Y-60747D01*
X7969Y-60700D01*
X7945Y-60676D01*
X7897Y-60652D01*
X23102Y-52178D02*
X22864Y-52011D01*
X23102Y-51892D02*
X22602Y-51892D01*
X22602Y-52083D01*
X22626Y-52130D01*
X22650Y-52154D01*
X22697Y-52178D01*
X22769Y-52178D01*
X22816Y-52154D01*
X22840Y-52130D01*
X22864Y-52083D01*
X22864Y-51892D01*
X23102Y-52654D02*
X23102Y-52369D01*
X23102Y-52511D02*
X22602Y-52511D01*
X22673Y-52464D01*
X22721Y-52416D01*
X22745Y-52369D01*
X22602Y-53107D02*
X22602Y-52869D01*
X22840Y-52845D01*
X22816Y-52869D01*
X22792Y-52916D01*
X22792Y-53035D01*
X22816Y-53083D01*
X22840Y-53107D01*
X22888Y-53130D01*
X23007Y-53130D01*
X23054Y-53107D01*
X23078Y-53083D01*
X23102Y-53035D01*
X23102Y-52916D01*
X23078Y-52869D01*
X23054Y-52845D01*
X4519Y-60969D02*
X4852Y-60969D01*
X4328Y-60850D02*
X4685Y-60730D01*
X4685Y-61040D01*
X4352Y-61183D02*
X4352Y-61516D01*
X4852Y-61302D01*
X4352Y-61802D02*
X4352Y-61850D01*
X4376Y-61897D01*
X4400Y-61921D01*
X4447Y-61945D01*
X4542Y-61969D01*
X4661Y-61969D01*
X4757Y-61945D01*
X4804Y-61921D01*
X4828Y-61897D01*
X4852Y-61850D01*
X4852Y-61802D01*
X4828Y-61754D01*
X4804Y-61730D01*
X4757Y-61707D01*
X4661Y-61683D01*
X4542Y-61683D01*
X4447Y-61707D01*
X4400Y-61730D01*
X4376Y-61754D01*
X4352Y-61802D01*
X30507Y-54390D02*
X30555Y-54366D01*
X30602Y-54318D01*
X30674Y-54247D01*
X30721Y-54223D01*
X30769Y-54223D01*
X30745Y-54342D02*
X30793Y-54318D01*
X30840Y-54270D01*
X30864Y-54175D01*
X30864Y-54009D01*
X30840Y-53913D01*
X30793Y-53866D01*
X30745Y-53842D01*
X30650Y-53842D01*
X30602Y-53866D01*
X30555Y-53913D01*
X30531Y-54009D01*
X30531Y-54175D01*
X30555Y-54270D01*
X30602Y-54318D01*
X30650Y-54342D01*
X30745Y-54342D01*
X30102Y-54009D02*
X30102Y-54342D01*
X30221Y-53818D02*
X30340Y-54175D01*
X30031Y-54175D01*
X3538Y-47300D02*
X3442Y-47228D01*
X3347Y-47300D01*
X3252Y-47300D02*
X3157Y-47228D01*
X3061Y-47300D01*
X2895Y-47752D02*
X2895Y-47252D01*
X2609Y-47752D01*
X2609Y-47252D01*
X2371Y-47752D02*
X2371Y-47252D01*
X2180Y-47252D01*
X2133Y-47276D01*
X2109Y-47300D01*
X2085Y-47347D01*
X2085Y-47419D01*
X2109Y-47466D01*
X2133Y-47490D01*
X2180Y-47514D01*
X2371Y-47514D01*
X1871Y-47752D02*
X1871Y-47252D01*
X1585Y-47752D01*
X1585Y-47252D01*
X1347Y-47561D02*
X966Y-47561D01*
X752Y-47728D02*
X680Y-47752D01*
X561Y-47752D01*
X514Y-47728D01*
X490Y-47704D01*
X466Y-47657D01*
X466Y-47609D01*
X490Y-47561D01*
X514Y-47538D01*
X561Y-47514D01*
X657Y-47490D01*
X704Y-47466D01*
X728Y-47442D01*
X752Y-47395D01*
X752Y-47347D01*
X728Y-47300D01*
X704Y-47276D01*
X657Y-47252D01*
X538Y-47252D01*
X466Y-47276D01*
X157Y-47252D02*
X61Y-47252D01*
X14Y-47276D01*
X-33Y-47323D01*
X-57Y-47419D01*
X-57Y-47585D01*
X-33Y-47680D01*
X14Y-47728D01*
X61Y-47752D01*
X157Y-47752D01*
X204Y-47728D01*
X252Y-47680D01*
X276Y-47585D01*
X276Y-47419D01*
X252Y-47323D01*
X204Y-47276D01*
X157Y-47252D01*
X-199Y-47252D02*
X-485Y-47252D01*
X-342Y-47752D02*
X-342Y-47252D01*
X-628Y-47300D02*
X-652Y-47276D01*
X-699Y-47252D01*
X-819Y-47252D01*
X-866Y-47276D01*
X-890Y-47300D01*
X-914Y-47347D01*
X-914Y-47395D01*
X-890Y-47466D01*
X-604Y-47752D01*
X-914Y-47752D01*
X-1080Y-47252D02*
X-1390Y-47252D01*
X-1223Y-47442D01*
X-1295Y-47442D01*
X-1342Y-47466D01*
X-1366Y-47490D01*
X-1390Y-47538D01*
X-1390Y-47657D01*
X-1366Y-47704D01*
X-1342Y-47728D01*
X-1295Y-47752D01*
X-1152Y-47752D01*
X-1104Y-47728D01*
X-1080Y-47704D01*
X26347Y-54100D02*
X26395Y-54076D01*
X26442Y-54028D01*
X26514Y-53957D01*
X26561Y-53933D01*
X26609Y-53933D01*
X26585Y-54052D02*
X26633Y-54028D01*
X26680Y-53980D01*
X26704Y-53885D01*
X26704Y-53719D01*
X26680Y-53623D01*
X26633Y-53576D01*
X26585Y-53552D01*
X26490Y-53552D01*
X26442Y-53576D01*
X26395Y-53623D01*
X26371Y-53719D01*
X26371Y-53885D01*
X26395Y-53980D01*
X26442Y-54028D01*
X26490Y-54052D01*
X26585Y-54052D01*
X25919Y-53552D02*
X26157Y-53552D01*
X26180Y-53790D01*
X26157Y-53766D01*
X26109Y-53742D01*
X25990Y-53742D01*
X25942Y-53766D01*
X25919Y-53790D01*
X25895Y-53838D01*
X25895Y-53957D01*
X25919Y-54004D01*
X25942Y-54028D01*
X25990Y-54052D01*
X26109Y-54052D01*
X26157Y-54028D01*
X26180Y-54004D01*
X3088Y-48650D02*
X2992Y-48578D01*
X2897Y-48650D01*
X2802Y-48650D02*
X2707Y-48578D01*
X2611Y-48650D01*
X2445Y-49102D02*
X2445Y-48602D01*
X2159Y-49102D01*
X2159Y-48602D01*
X1921Y-49102D02*
X1921Y-48602D01*
X1730Y-48602D01*
X1683Y-48626D01*
X1659Y-48650D01*
X1635Y-48697D01*
X1635Y-48769D01*
X1659Y-48816D01*
X1683Y-48840D01*
X1730Y-48864D01*
X1921Y-48864D01*
X1421Y-49102D02*
X1421Y-48602D01*
X1135Y-49102D01*
X1135Y-48602D01*
X897Y-48911D02*
X516Y-48911D01*
X302Y-49078D02*
X230Y-49102D01*
X111Y-49102D01*
X64Y-49078D01*
X40Y-49054D01*
X16Y-49007D01*
X16Y-48959D01*
X40Y-48911D01*
X64Y-48888D01*
X111Y-48864D01*
X207Y-48840D01*
X254Y-48816D01*
X278Y-48792D01*
X302Y-48745D01*
X302Y-48697D01*
X278Y-48650D01*
X254Y-48626D01*
X207Y-48602D01*
X88Y-48602D01*
X16Y-48626D01*
X-292Y-48602D02*
X-388Y-48602D01*
X-435Y-48626D01*
X-483Y-48673D01*
X-507Y-48769D01*
X-507Y-48935D01*
X-483Y-49030D01*
X-435Y-49078D01*
X-388Y-49102D01*
X-292Y-49102D01*
X-245Y-49078D01*
X-197Y-49030D01*
X-173Y-48935D01*
X-173Y-48769D01*
X-197Y-48673D01*
X-245Y-48626D01*
X-292Y-48602D01*
X-649Y-48602D02*
X-935Y-48602D01*
X-792Y-49102D02*
X-792Y-48602D01*
X-1078Y-48650D02*
X-1102Y-48626D01*
X-1149Y-48602D01*
X-1269Y-48602D01*
X-1316Y-48626D01*
X-1340Y-48650D01*
X-1364Y-48697D01*
X-1364Y-48745D01*
X-1340Y-48816D01*
X-1054Y-49102D01*
X-1364Y-49102D01*
X-1530Y-48602D02*
X-1840Y-48602D01*
X-1673Y-48792D01*
X-1745Y-48792D01*
X-1792Y-48816D01*
X-1816Y-48840D01*
X-1840Y-48888D01*
X-1840Y-49007D01*
X-1816Y-49054D01*
X-1792Y-49078D01*
X-1745Y-49102D01*
X-1602Y-49102D01*
X-1554Y-49078D01*
X-1530Y-49054D01*
X23997Y-54050D02*
X24045Y-54026D01*
X24092Y-53978D01*
X24164Y-53907D01*
X24211Y-53883D01*
X24259Y-53883D01*
X24235Y-54002D02*
X24283Y-53978D01*
X24330Y-53930D01*
X24354Y-53835D01*
X24354Y-53669D01*
X24330Y-53573D01*
X24283Y-53526D01*
X24235Y-53502D01*
X24140Y-53502D01*
X24092Y-53526D01*
X24045Y-53573D01*
X24021Y-53669D01*
X24021Y-53835D01*
X24045Y-53930D01*
X24092Y-53978D01*
X24140Y-54002D01*
X24235Y-54002D01*
X23592Y-53502D02*
X23688Y-53502D01*
X23735Y-53526D01*
X23759Y-53550D01*
X23807Y-53621D01*
X23830Y-53716D01*
X23830Y-53907D01*
X23807Y-53954D01*
X23783Y-53978D01*
X23735Y-54002D01*
X23640Y-54002D01*
X23592Y-53978D01*
X23569Y-53954D01*
X23545Y-53907D01*
X23545Y-53788D01*
X23569Y-53740D01*
X23592Y-53716D01*
X23640Y-53692D01*
X23735Y-53692D01*
X23783Y-53716D01*
X23807Y-53740D01*
X23830Y-53788D01*
X2638Y-50900D02*
X2542Y-50828D01*
X2447Y-50900D01*
X2352Y-50900D02*
X2257Y-50828D01*
X2161Y-50900D01*
X1995Y-51352D02*
X1995Y-50852D01*
X1709Y-51352D01*
X1709Y-50852D01*
X1471Y-51352D02*
X1471Y-50852D01*
X1280Y-50852D01*
X1233Y-50876D01*
X1209Y-50900D01*
X1185Y-50947D01*
X1185Y-51019D01*
X1209Y-51066D01*
X1233Y-51090D01*
X1280Y-51114D01*
X1471Y-51114D01*
X971Y-51352D02*
X971Y-50852D01*
X685Y-51352D01*
X685Y-50852D01*
X447Y-51161D02*
X66Y-51161D01*
X-147Y-51328D02*
X-219Y-51352D01*
X-338Y-51352D01*
X-385Y-51328D01*
X-409Y-51304D01*
X-433Y-51257D01*
X-433Y-51209D01*
X-409Y-51161D01*
X-385Y-51138D01*
X-338Y-51114D01*
X-242Y-51090D01*
X-195Y-51066D01*
X-171Y-51042D01*
X-147Y-50995D01*
X-147Y-50947D01*
X-171Y-50900D01*
X-195Y-50876D01*
X-242Y-50852D01*
X-361Y-50852D01*
X-433Y-50876D01*
X-742Y-50852D02*
X-838Y-50852D01*
X-885Y-50876D01*
X-933Y-50923D01*
X-957Y-51019D01*
X-957Y-51185D01*
X-933Y-51280D01*
X-885Y-51328D01*
X-838Y-51352D01*
X-742Y-51352D01*
X-695Y-51328D01*
X-647Y-51280D01*
X-623Y-51185D01*
X-623Y-51019D01*
X-647Y-50923D01*
X-695Y-50876D01*
X-742Y-50852D01*
X-1099Y-50852D02*
X-1385Y-50852D01*
X-1242Y-51352D02*
X-1242Y-50852D01*
X-1528Y-50900D02*
X-1552Y-50876D01*
X-1599Y-50852D01*
X-1719Y-50852D01*
X-1766Y-50876D01*
X-1790Y-50900D01*
X-1814Y-50947D01*
X-1814Y-50995D01*
X-1790Y-51066D01*
X-1504Y-51352D01*
X-1814Y-51352D01*
X-1980Y-50852D02*
X-2290Y-50852D01*
X-2123Y-51042D01*
X-2195Y-51042D01*
X-2242Y-51066D01*
X-2266Y-51090D01*
X-2290Y-51138D01*
X-2290Y-51257D01*
X-2266Y-51304D01*
X-2242Y-51328D01*
X-2195Y-51352D01*
X-2052Y-51352D01*
X-2004Y-51328D01*
X-1980Y-51304D01*
X21357Y-54340D02*
X21405Y-54316D01*
X21452Y-54268D01*
X21524Y-54197D01*
X21571Y-54173D01*
X21619Y-54173D01*
X21595Y-54292D02*
X21643Y-54268D01*
X21690Y-54220D01*
X21714Y-54125D01*
X21714Y-53959D01*
X21690Y-53863D01*
X21643Y-53816D01*
X21595Y-53792D01*
X21500Y-53792D01*
X21452Y-53816D01*
X21405Y-53863D01*
X21381Y-53959D01*
X21381Y-54125D01*
X21405Y-54220D01*
X21452Y-54268D01*
X21500Y-54292D01*
X21595Y-54292D01*
X21214Y-53792D02*
X20881Y-53792D01*
X21095Y-54292D01*
X9788Y-62150D02*
X9692Y-62078D01*
X9597Y-62150D01*
X9502Y-62150D02*
X9407Y-62078D01*
X9311Y-62150D01*
X9145Y-62602D02*
X9145Y-62102D01*
X8859Y-62602D01*
X8859Y-62102D01*
X8621Y-62602D02*
X8621Y-62102D01*
X8430Y-62102D01*
X8383Y-62126D01*
X8359Y-62150D01*
X8335Y-62197D01*
X8335Y-62269D01*
X8359Y-62316D01*
X8383Y-62340D01*
X8430Y-62364D01*
X8621Y-62364D01*
X8121Y-62602D02*
X8121Y-62102D01*
X7835Y-62602D01*
X7835Y-62102D01*
X7597Y-62411D02*
X7216Y-62411D01*
X7002Y-62578D02*
X6930Y-62602D01*
X6811Y-62602D01*
X6764Y-62578D01*
X6740Y-62554D01*
X6716Y-62507D01*
X6716Y-62459D01*
X6740Y-62411D01*
X6764Y-62388D01*
X6811Y-62364D01*
X6907Y-62340D01*
X6954Y-62316D01*
X6978Y-62292D01*
X7002Y-62245D01*
X7002Y-62197D01*
X6978Y-62150D01*
X6954Y-62126D01*
X6907Y-62102D01*
X6788Y-62102D01*
X6716Y-62126D01*
X6407Y-62102D02*
X6311Y-62102D01*
X6264Y-62126D01*
X6216Y-62173D01*
X6192Y-62269D01*
X6192Y-62435D01*
X6216Y-62530D01*
X6264Y-62578D01*
X6311Y-62602D01*
X6407Y-62602D01*
X6454Y-62578D01*
X6502Y-62530D01*
X6526Y-62435D01*
X6526Y-62269D01*
X6502Y-62173D01*
X6454Y-62126D01*
X6407Y-62102D01*
X6050Y-62102D02*
X5764Y-62102D01*
X5907Y-62602D02*
X5907Y-62102D01*
X5621Y-62150D02*
X5597Y-62126D01*
X5550Y-62102D01*
X5430Y-62102D01*
X5383Y-62126D01*
X5359Y-62150D01*
X5335Y-62197D01*
X5335Y-62245D01*
X5359Y-62316D01*
X5645Y-62602D01*
X5335Y-62602D01*
X5169Y-62102D02*
X4859Y-62102D01*
X5026Y-62292D01*
X4954Y-62292D01*
X4907Y-62316D01*
X4883Y-62340D01*
X4859Y-62388D01*
X4859Y-62507D01*
X4883Y-62554D01*
X4907Y-62578D01*
X4954Y-62602D01*
X5097Y-62602D01*
X5145Y-62578D01*
X5169Y-62554D01*
X18250Y-15052D02*
X18226Y-15004D01*
X18178Y-14957D01*
X18107Y-14885D01*
X18083Y-14838D01*
X18083Y-14790D01*
X18202Y-14814D02*
X18178Y-14766D01*
X18130Y-14719D01*
X18035Y-14695D01*
X17869Y-14695D01*
X17773Y-14719D01*
X17726Y-14766D01*
X17702Y-14814D01*
X17702Y-14909D01*
X17726Y-14957D01*
X17773Y-15004D01*
X17869Y-15028D01*
X18035Y-15028D01*
X18130Y-15004D01*
X18178Y-14957D01*
X18202Y-14909D01*
X18202Y-14814D01*
X17750Y-15219D02*
X17726Y-15242D01*
X17702Y-15290D01*
X17702Y-15409D01*
X17726Y-15457D01*
X17750Y-15480D01*
X17797Y-15504D01*
X17845Y-15504D01*
X17916Y-15480D01*
X18202Y-15195D01*
X18202Y-15504D01*
X18500Y608D02*
X18428Y512D01*
X18500Y417D01*
X18500Y322D02*
X18428Y227D01*
X18500Y131D01*
X18952Y-34D02*
X18452Y-34D01*
X18952Y-320D01*
X18452Y-320D01*
X18952Y-558D02*
X18452Y-558D01*
X18452Y-749D01*
X18476Y-796D01*
X18500Y-820D01*
X18547Y-844D01*
X18619Y-844D01*
X18666Y-820D01*
X18690Y-796D01*
X18714Y-749D01*
X18714Y-558D01*
X18952Y-1058D02*
X18452Y-1058D01*
X18952Y-1344D01*
X18452Y-1344D01*
X18761Y-1582D02*
X18761Y-1963D01*
X18928Y-2177D02*
X18952Y-2249D01*
X18952Y-2368D01*
X18928Y-2415D01*
X18904Y-2439D01*
X18857Y-2463D01*
X18809Y-2463D01*
X18761Y-2439D01*
X18738Y-2415D01*
X18714Y-2368D01*
X18690Y-2272D01*
X18666Y-2225D01*
X18642Y-2201D01*
X18595Y-2177D01*
X18547Y-2177D01*
X18500Y-2201D01*
X18476Y-2225D01*
X18452Y-2272D01*
X18452Y-2391D01*
X18476Y-2463D01*
X18452Y-2772D02*
X18452Y-2868D01*
X18476Y-2915D01*
X18523Y-2963D01*
X18619Y-2987D01*
X18785Y-2987D01*
X18880Y-2963D01*
X18928Y-2915D01*
X18952Y-2868D01*
X18952Y-2772D01*
X18928Y-2725D01*
X18880Y-2677D01*
X18785Y-2653D01*
X18619Y-2653D01*
X18523Y-2677D01*
X18476Y-2725D01*
X18452Y-2772D01*
X18452Y-3129D02*
X18452Y-3415D01*
X18952Y-3272D02*
X18452Y-3272D01*
X18500Y-3558D02*
X18476Y-3582D01*
X18452Y-3629D01*
X18452Y-3749D01*
X18476Y-3796D01*
X18500Y-3820D01*
X18547Y-3844D01*
X18595Y-3844D01*
X18666Y-3820D01*
X18952Y-3534D01*
X18952Y-3844D01*
X18452Y-4010D02*
X18452Y-4320D01*
X18642Y-4153D01*
X18642Y-4225D01*
X18666Y-4272D01*
X18690Y-4296D01*
X18738Y-4320D01*
X18857Y-4320D01*
X18904Y-4296D01*
X18928Y-4272D01*
X18952Y-4225D01*
X18952Y-4082D01*
X18928Y-4034D01*
X18904Y-4010D01*
X15150Y-15002D02*
X15126Y-14954D01*
X15078Y-14907D01*
X15007Y-14835D01*
X14983Y-14788D01*
X14983Y-14740D01*
X15102Y-14764D02*
X15078Y-14716D01*
X15030Y-14669D01*
X14935Y-14645D01*
X14769Y-14645D01*
X14673Y-14669D01*
X14626Y-14716D01*
X14602Y-14764D01*
X14602Y-14859D01*
X14626Y-14907D01*
X14673Y-14954D01*
X14769Y-14978D01*
X14935Y-14978D01*
X15030Y-14954D01*
X15078Y-14907D01*
X15102Y-14859D01*
X15102Y-14764D01*
X14602Y-15145D02*
X14602Y-15454D01*
X14792Y-15288D01*
X14792Y-15359D01*
X14816Y-15407D01*
X14840Y-15430D01*
X14888Y-15454D01*
X15007Y-15454D01*
X15054Y-15430D01*
X15078Y-15407D01*
X15102Y-15359D01*
X15102Y-15216D01*
X15078Y-15169D01*
X15054Y-15145D01*
X15100Y11048D02*
X15028Y10952D01*
X15100Y10857D01*
X15100Y10762D02*
X15028Y10667D01*
X15100Y10571D01*
X15552Y10405D02*
X15052Y10405D01*
X15552Y10119D01*
X15052Y10119D01*
X15552Y9881D02*
X15052Y9881D01*
X15052Y9690D01*
X15076Y9643D01*
X15100Y9619D01*
X15147Y9595D01*
X15219Y9595D01*
X15266Y9619D01*
X15290Y9643D01*
X15314Y9690D01*
X15314Y9881D01*
X15552Y9381D02*
X15052Y9381D01*
X15552Y9095D01*
X15052Y9095D01*
X15361Y8857D02*
X15361Y8476D01*
X15528Y8262D02*
X15552Y8190D01*
X15552Y8071D01*
X15528Y8024D01*
X15504Y8000D01*
X15457Y7976D01*
X15409Y7976D01*
X15361Y8000D01*
X15338Y8024D01*
X15314Y8071D01*
X15290Y8167D01*
X15266Y8214D01*
X15242Y8238D01*
X15195Y8262D01*
X15147Y8262D01*
X15100Y8238D01*
X15076Y8214D01*
X15052Y8167D01*
X15052Y8048D01*
X15076Y7976D01*
X15052Y7667D02*
X15052Y7571D01*
X15076Y7524D01*
X15123Y7476D01*
X15219Y7452D01*
X15385Y7452D01*
X15480Y7476D01*
X15528Y7524D01*
X15552Y7571D01*
X15552Y7667D01*
X15528Y7714D01*
X15480Y7762D01*
X15385Y7786D01*
X15219Y7786D01*
X15123Y7762D01*
X15076Y7714D01*
X15052Y7667D01*
X15052Y7310D02*
X15052Y7024D01*
X15552Y7167D02*
X15052Y7167D01*
X15100Y6881D02*
X15076Y6857D01*
X15052Y6810D01*
X15052Y6690D01*
X15076Y6643D01*
X15100Y6619D01*
X15147Y6595D01*
X15195Y6595D01*
X15266Y6619D01*
X15552Y6905D01*
X15552Y6595D01*
X15052Y6429D02*
X15052Y6119D01*
X15242Y6286D01*
X15242Y6214D01*
X15266Y6167D01*
X15290Y6143D01*
X15338Y6119D01*
X15457Y6119D01*
X15504Y6143D01*
X15528Y6167D01*
X15552Y6214D01*
X15552Y6357D01*
X15528Y6405D01*
X15504Y6429D01*
X27083Y-56302D02*
X27250Y-56064D01*
X27369Y-56302D02*
X27369Y-55802D01*
X27178Y-55802D01*
X27130Y-55826D01*
X27107Y-55850D01*
X27083Y-55897D01*
X27083Y-55969D01*
X27107Y-56016D01*
X27130Y-56040D01*
X27178Y-56064D01*
X27369Y-56064D01*
X26845Y-56302D02*
X26750Y-56302D01*
X26702Y-56278D01*
X26678Y-56254D01*
X26630Y-56183D01*
X26607Y-56088D01*
X26607Y-55897D01*
X26630Y-55850D01*
X26654Y-55826D01*
X26702Y-55802D01*
X26797Y-55802D01*
X26845Y-55826D01*
X26869Y-55850D01*
X26892Y-55897D01*
X26892Y-56016D01*
X26869Y-56064D01*
X26845Y-56088D01*
X26797Y-56111D01*
X26702Y-56111D01*
X26654Y-56088D01*
X26630Y-56064D01*
X26607Y-56016D01*
X1792Y-49902D02*
X1483Y-49902D01*
X1650Y-50092D01*
X1578Y-50092D01*
X1530Y-50116D01*
X1507Y-50140D01*
X1483Y-50188D01*
X1483Y-50307D01*
X1507Y-50354D01*
X1530Y-50378D01*
X1578Y-50402D01*
X1721Y-50402D01*
X1769Y-50378D01*
X1792Y-50354D01*
X1316Y-49902D02*
X1007Y-49902D01*
X1173Y-50092D01*
X1102Y-50092D01*
X1054Y-50116D01*
X1030Y-50140D01*
X1007Y-50188D01*
X1007Y-50307D01*
X1030Y-50354D01*
X1054Y-50378D01*
X1102Y-50402D01*
X1245Y-50402D01*
X1292Y-50378D01*
X1316Y-50354D01*
X697Y-49902D02*
X650Y-49902D01*
X602Y-49926D01*
X578Y-49950D01*
X554Y-49997D01*
X530Y-50092D01*
X530Y-50211D01*
X554Y-50307D01*
X578Y-50354D01*
X602Y-50378D01*
X650Y-50402D01*
X697Y-50402D01*
X745Y-50378D01*
X769Y-50354D01*
X792Y-50307D01*
X816Y-50211D01*
X816Y-50092D01*
X792Y-49997D01*
X769Y-49950D01*
X745Y-49926D01*
X697Y-49902D01*
X14802Y-10766D02*
X14564Y-10600D01*
X14802Y-10480D02*
X14302Y-10480D01*
X14302Y-10671D01*
X14326Y-10719D01*
X14350Y-10742D01*
X14397Y-10766D01*
X14469Y-10766D01*
X14516Y-10742D01*
X14540Y-10719D01*
X14564Y-10671D01*
X14564Y-10480D01*
X14302Y-11195D02*
X14302Y-11100D01*
X14326Y-11052D01*
X14350Y-11028D01*
X14421Y-10980D01*
X14516Y-10957D01*
X14707Y-10957D01*
X14754Y-10980D01*
X14778Y-11004D01*
X14802Y-11052D01*
X14802Y-11147D01*
X14778Y-11195D01*
X14754Y-11219D01*
X14707Y-11242D01*
X14588Y-11242D01*
X14540Y-11219D01*
X14516Y-11195D01*
X14492Y-11147D01*
X14492Y-11052D01*
X14516Y-11004D01*
X14540Y-10980D01*
X14588Y-10957D01*
X16879Y6320D02*
X17212Y6320D01*
X16688Y6440D02*
X17045Y6559D01*
X17045Y6249D01*
X16712Y6106D02*
X16712Y5773D01*
X17212Y5987D01*
X16712Y5487D02*
X16712Y5440D01*
X16736Y5392D01*
X16760Y5368D01*
X16807Y5344D01*
X16902Y5320D01*
X17021Y5320D01*
X17117Y5344D01*
X17164Y5368D01*
X17188Y5392D01*
X17212Y5440D01*
X17212Y5487D01*
X17188Y5535D01*
X17164Y5559D01*
X17117Y5582D01*
X17021Y5606D01*
X16902Y5606D01*
X16807Y5582D01*
X16760Y5559D01*
X16736Y5535D01*
X16712Y5487D01*
X29602Y-52516D02*
X29364Y-52350D01*
X29602Y-52230D02*
X29102Y-52230D01*
X29102Y-52421D01*
X29126Y-52469D01*
X29150Y-52492D01*
X29197Y-52516D01*
X29269Y-52516D01*
X29316Y-52492D01*
X29340Y-52469D01*
X29364Y-52421D01*
X29364Y-52230D01*
X29316Y-52802D02*
X29292Y-52754D01*
X29269Y-52730D01*
X29221Y-52707D01*
X29197Y-52707D01*
X29150Y-52730D01*
X29126Y-52754D01*
X29102Y-52802D01*
X29102Y-52897D01*
X29126Y-52945D01*
X29150Y-52969D01*
X29197Y-52992D01*
X29221Y-52992D01*
X29269Y-52969D01*
X29292Y-52945D01*
X29316Y-52897D01*
X29316Y-52802D01*
X29340Y-52754D01*
X29364Y-52730D01*
X29411Y-52707D01*
X29507Y-52707D01*
X29554Y-52730D01*
X29578Y-52754D01*
X29602Y-52802D01*
X29602Y-52897D01*
X29578Y-52945D01*
X29554Y-52969D01*
X29507Y-52992D01*
X29411Y-52992D01*
X29364Y-52969D01*
X29340Y-52945D01*
X29316Y-52897D01*
X6569Y-60569D02*
X6902Y-60569D01*
X6378Y-60450D02*
X6735Y-60330D01*
X6735Y-60640D01*
X6402Y-60783D02*
X6402Y-61116D01*
X6902Y-60902D01*
X6402Y-61402D02*
X6402Y-61450D01*
X6426Y-61497D01*
X6450Y-61521D01*
X6497Y-61545D01*
X6592Y-61569D01*
X6711Y-61569D01*
X6807Y-61545D01*
X6854Y-61521D01*
X6878Y-61497D01*
X6902Y-61450D01*
X6902Y-61402D01*
X6878Y-61354D01*
X6854Y-61330D01*
X6807Y-61307D01*
X6711Y-61283D01*
X6592Y-61283D01*
X6497Y-61307D01*
X6450Y-61330D01*
X6426Y-61354D01*
X6402Y-61402D01*
X29283Y-56302D02*
X29450Y-56064D01*
X29569Y-56302D02*
X29569Y-55802D01*
X29378Y-55802D01*
X29330Y-55826D01*
X29307Y-55850D01*
X29283Y-55897D01*
X29283Y-55969D01*
X29307Y-56016D01*
X29330Y-56040D01*
X29378Y-56064D01*
X29569Y-56064D01*
X29116Y-55802D02*
X28783Y-55802D01*
X28997Y-56302D01*
X9892Y-59952D02*
X9583Y-59952D01*
X9750Y-60142D01*
X9678Y-60142D01*
X9630Y-60166D01*
X9607Y-60190D01*
X9583Y-60238D01*
X9583Y-60357D01*
X9607Y-60404D01*
X9630Y-60428D01*
X9678Y-60452D01*
X9821Y-60452D01*
X9869Y-60428D01*
X9892Y-60404D01*
X9416Y-59952D02*
X9107Y-59952D01*
X9273Y-60142D01*
X9202Y-60142D01*
X9154Y-60166D01*
X9130Y-60190D01*
X9107Y-60238D01*
X9107Y-60357D01*
X9130Y-60404D01*
X9154Y-60428D01*
X9202Y-60452D01*
X9345Y-60452D01*
X9392Y-60428D01*
X9416Y-60404D01*
X8797Y-59952D02*
X8750Y-59952D01*
X8702Y-59976D01*
X8678Y-60000D01*
X8654Y-60047D01*
X8630Y-60142D01*
X8630Y-60261D01*
X8654Y-60357D01*
X8678Y-60404D01*
X8702Y-60428D01*
X8750Y-60452D01*
X8797Y-60452D01*
X8845Y-60428D01*
X8869Y-60404D01*
X8892Y-60357D01*
X8916Y-60261D01*
X8916Y-60142D01*
X8892Y-60047D01*
X8869Y-60000D01*
X8845Y-59976D01*
X8797Y-59952D01*
X17702Y-10816D02*
X17464Y-10650D01*
X17702Y-10530D02*
X17202Y-10530D01*
X17202Y-10721D01*
X17226Y-10769D01*
X17250Y-10792D01*
X17297Y-10816D01*
X17369Y-10816D01*
X17416Y-10792D01*
X17440Y-10769D01*
X17464Y-10721D01*
X17464Y-10530D01*
X17702Y-11292D02*
X17702Y-11007D01*
X17702Y-11150D02*
X17202Y-11150D01*
X17273Y-11102D01*
X17321Y-11054D01*
X17345Y-11007D01*
X17602Y2257D02*
X17602Y1948D01*
X17792Y2115D01*
X17792Y2043D01*
X17816Y1995D01*
X17840Y1972D01*
X17888Y1948D01*
X18007Y1948D01*
X18054Y1972D01*
X18078Y1995D01*
X18102Y2043D01*
X18102Y2186D01*
X18078Y2234D01*
X18054Y2257D01*
X17602Y1781D02*
X17602Y1472D01*
X17792Y1638D01*
X17792Y1567D01*
X17816Y1519D01*
X17840Y1495D01*
X17888Y1472D01*
X18007Y1472D01*
X18054Y1495D01*
X18078Y1519D01*
X18102Y1567D01*
X18102Y1710D01*
X18078Y1757D01*
X18054Y1781D01*
X17602Y1162D02*
X17602Y1115D01*
X17626Y1067D01*
X17650Y1043D01*
X17697Y1019D01*
X17792Y995D01*
X17911Y995D01*
X18007Y1019D01*
X18054Y1043D01*
X18078Y1067D01*
X18102Y1115D01*
X18102Y1162D01*
X18078Y1210D01*
X18054Y1234D01*
X18007Y1257D01*
X17911Y1281D01*
X17792Y1281D01*
X17697Y1257D01*
X17650Y1234D01*
X17626Y1210D01*
X17602Y1162D01*
X18702Y-10816D02*
X18464Y-10650D01*
X18702Y-10530D02*
X18202Y-10530D01*
X18202Y-10721D01*
X18226Y-10769D01*
X18250Y-10792D01*
X18297Y-10816D01*
X18369Y-10816D01*
X18416Y-10792D01*
X18440Y-10769D01*
X18464Y-10721D01*
X18464Y-10530D01*
X18250Y-11007D02*
X18226Y-11030D01*
X18202Y-11078D01*
X18202Y-11197D01*
X18226Y-11245D01*
X18250Y-11269D01*
X18297Y-11292D01*
X18345Y-11292D01*
X18416Y-11269D01*
X18702Y-10983D01*
X18702Y-11292D01*
X17219Y430D02*
X17552Y430D01*
X17028Y550D02*
X17385Y669D01*
X17385Y359D01*
X17052Y216D02*
X17052Y-116D01*
X17552Y97D01*
X17052Y-402D02*
X17052Y-450D01*
X17076Y-497D01*
X17100Y-521D01*
X17147Y-545D01*
X17242Y-569D01*
X17361Y-569D01*
X17457Y-545D01*
X17504Y-521D01*
X17528Y-497D01*
X17552Y-450D01*
X17552Y-402D01*
X17528Y-354D01*
X17504Y-330D01*
X17457Y-307D01*
X17361Y-283D01*
X17242Y-283D01*
X17147Y-307D01*
X17100Y-330D01*
X17076Y-354D01*
X17052Y-402D01*
X15702Y-10766D02*
X15464Y-10600D01*
X15702Y-10480D02*
X15202Y-10480D01*
X15202Y-10671D01*
X15226Y-10719D01*
X15250Y-10742D01*
X15297Y-10766D01*
X15369Y-10766D01*
X15416Y-10742D01*
X15440Y-10719D01*
X15464Y-10671D01*
X15464Y-10480D01*
X15202Y-10933D02*
X15202Y-11242D01*
X15392Y-11076D01*
X15392Y-11147D01*
X15416Y-11195D01*
X15440Y-11219D01*
X15488Y-11242D01*
X15607Y-11242D01*
X15654Y-11219D01*
X15678Y-11195D01*
X15702Y-11147D01*
X15702Y-11004D01*
X15678Y-10957D01*
X15654Y-10933D01*
X15352Y397D02*
X15352Y88D01*
X15542Y255D01*
X15542Y183D01*
X15566Y135D01*
X15590Y112D01*
X15638Y88D01*
X15757Y88D01*
X15804Y112D01*
X15828Y135D01*
X15852Y183D01*
X15852Y326D01*
X15828Y374D01*
X15804Y397D01*
X15352Y-78D02*
X15352Y-387D01*
X15542Y-221D01*
X15542Y-292D01*
X15566Y-340D01*
X15590Y-364D01*
X15638Y-387D01*
X15757Y-387D01*
X15804Y-364D01*
X15828Y-340D01*
X15852Y-292D01*
X15852Y-149D01*
X15828Y-102D01*
X15804Y-78D01*
X15352Y-697D02*
X15352Y-745D01*
X15376Y-792D01*
X15400Y-816D01*
X15447Y-840D01*
X15542Y-864D01*
X15661Y-864D01*
X15757Y-840D01*
X15804Y-816D01*
X15828Y-792D01*
X15852Y-745D01*
X15852Y-697D01*
X15828Y-649D01*
X15804Y-625D01*
X15757Y-602D01*
X15661Y-578D01*
X15542Y-578D01*
X15447Y-602D01*
X15400Y-625D01*
X15376Y-649D01*
X15352Y-697D01*
X11218Y-45092D02*
X11385Y-44854D01*
X11504Y-45092D02*
X11504Y-44592D01*
X11313Y-44592D01*
X11265Y-44616D01*
X11242Y-44640D01*
X11218Y-44687D01*
X11218Y-44759D01*
X11242Y-44806D01*
X11265Y-44830D01*
X11313Y-44854D01*
X11504Y-44854D01*
X10789Y-44759D02*
X10789Y-45092D01*
X10908Y-44568D02*
X11027Y-44925D01*
X10718Y-44925D01*
X2592Y-45852D02*
X2283Y-45852D01*
X2450Y-46042D01*
X2378Y-46042D01*
X2330Y-46066D01*
X2307Y-46090D01*
X2283Y-46138D01*
X2283Y-46257D01*
X2307Y-46304D01*
X2330Y-46328D01*
X2378Y-46352D01*
X2521Y-46352D01*
X2569Y-46328D01*
X2592Y-46304D01*
X2116Y-45852D02*
X1807Y-45852D01*
X1973Y-46042D01*
X1902Y-46042D01*
X1854Y-46066D01*
X1830Y-46090D01*
X1807Y-46138D01*
X1807Y-46257D01*
X1830Y-46304D01*
X1854Y-46328D01*
X1902Y-46352D01*
X2045Y-46352D01*
X2092Y-46328D01*
X2116Y-46304D01*
X1497Y-45852D02*
X1450Y-45852D01*
X1402Y-45876D01*
X1378Y-45900D01*
X1354Y-45947D01*
X1330Y-46042D01*
X1330Y-46161D01*
X1354Y-46257D01*
X1378Y-46304D01*
X1402Y-46328D01*
X1450Y-46352D01*
X1497Y-46352D01*
X1545Y-46328D01*
X1569Y-46304D01*
X1592Y-46257D01*
X1616Y-46161D01*
X1616Y-46042D01*
X1592Y-45947D01*
X1569Y-45900D01*
X1545Y-45876D01*
X1497Y-45852D01*
X30946Y-31752D02*
X31113Y-31514D01*
X31232Y-31752D02*
X31232Y-31252D01*
X31041Y-31252D01*
X30994Y-31276D01*
X30970Y-31300D01*
X30946Y-31347D01*
X30946Y-31419D01*
X30970Y-31466D01*
X30994Y-31490D01*
X31041Y-31514D01*
X31232Y-31514D01*
X30517Y-31419D02*
X30517Y-31752D01*
X30636Y-31228D02*
X30755Y-31585D01*
X30446Y-31585D01*
X30279Y-31300D02*
X30255Y-31276D01*
X30208Y-31252D01*
X30089Y-31252D01*
X30041Y-31276D01*
X30017Y-31300D01*
X29994Y-31347D01*
X29994Y-31395D01*
X30017Y-31466D01*
X30303Y-31752D01*
X29994Y-31752D01*
X31192Y-32777D02*
X30883Y-32777D01*
X31050Y-32967D01*
X30978Y-32967D01*
X30930Y-32991D01*
X30907Y-33015D01*
X30883Y-33063D01*
X30883Y-33182D01*
X30907Y-33229D01*
X30930Y-33253D01*
X30978Y-33277D01*
X31121Y-33277D01*
X31169Y-33253D01*
X31192Y-33229D01*
X30716Y-32777D02*
X30407Y-32777D01*
X30573Y-32967D01*
X30502Y-32967D01*
X30454Y-32991D01*
X30430Y-33015D01*
X30407Y-33063D01*
X30407Y-33182D01*
X30430Y-33229D01*
X30454Y-33253D01*
X30502Y-33277D01*
X30645Y-33277D01*
X30692Y-33253D01*
X30716Y-33229D01*
X30097Y-32777D02*
X30050Y-32777D01*
X30002Y-32801D01*
X29978Y-32825D01*
X29954Y-32872D01*
X29930Y-32967D01*
X29930Y-33086D01*
X29954Y-33182D01*
X29978Y-33229D01*
X30002Y-33253D01*
X30050Y-33277D01*
X30097Y-33277D01*
X30145Y-33253D01*
X30169Y-33229D01*
X30192Y-33182D01*
X30216Y-33086D01*
X30216Y-32967D01*
X30192Y-32872D01*
X30169Y-32825D01*
X30145Y-32801D01*
X30097Y-32777D01*
M02*
