G04 (created by PCBNEW (2013-07-07 BZR 4022)-stable) date 7/18/2014 12:18:10 AM*
%MOIN*%
G04 Gerber Fmt 3.4, Leading zero omitted, Abs format*
%FSLAX34Y34*%
G01*
G70*
G90*
G04 APERTURE LIST*
%ADD10C,0.00590551*%
%ADD11C,0.18*%
%ADD12C,0.075*%
%ADD13R,0.08X0.08*%
%ADD14C,0.08*%
%ADD15R,0.075X0.075*%
%ADD16R,0.082X0.11*%
%ADD17O,0.082X0.11*%
%ADD18R,0.079X0.0711*%
%ADD19R,0.0711X0.079*%
%ADD20R,0.0593X0.0751*%
%ADD21R,0.0751X0.0593*%
%ADD22C,0.09*%
%ADD23R,0.09X0.09*%
%ADD24R,0.37X0.37*%
%ADD25R,0.0869291X0.189291*%
%ADD26O,0.0869291X0.189291*%
%ADD27O,0.081811X0.189291*%
%ADD28R,0.13X0.35*%
%ADD29R,0.09X0.35*%
G04 APERTURE END LIST*
G54D10*
G54D11*
X102500Y-11500D03*
X7500Y-11500D03*
G54D12*
X48000Y-40500D03*
X48000Y-42500D03*
X77000Y-28500D03*
X77000Y-30500D03*
X62500Y-28500D03*
X62500Y-30500D03*
X33500Y-34500D03*
X33500Y-36500D03*
X33500Y-28500D03*
X33500Y-30500D03*
X20400Y-28400D03*
X20400Y-30400D03*
X91500Y-34500D03*
X91500Y-36500D03*
X62500Y-40500D03*
X62500Y-42500D03*
X33500Y-12500D03*
X33500Y-14500D03*
X8600Y-28500D03*
X8600Y-30500D03*
X33500Y-52500D03*
X33500Y-54500D03*
X91500Y-23500D03*
X91500Y-25500D03*
X77000Y-34500D03*
X77000Y-36500D03*
X8600Y-40500D03*
X8600Y-42500D03*
X33500Y-46500D03*
X33500Y-48500D03*
X48000Y-52500D03*
X48000Y-54500D03*
X62500Y-46500D03*
X62500Y-48500D03*
X77000Y-46500D03*
X77000Y-48500D03*
X91500Y-40500D03*
X91500Y-42500D03*
X20400Y-40500D03*
X20400Y-42500D03*
X33500Y-40500D03*
X33500Y-42500D03*
X48000Y-46500D03*
X48000Y-48500D03*
X77000Y-40500D03*
X77000Y-42500D03*
X91500Y-46500D03*
X91500Y-48500D03*
X77000Y-52500D03*
X77000Y-54500D03*
X62500Y-52500D03*
X62500Y-54500D03*
X48000Y-28500D03*
X48000Y-30500D03*
X62500Y-23500D03*
X62500Y-25500D03*
X62500Y-34500D03*
X62500Y-36500D03*
X8600Y-17500D03*
X8600Y-19500D03*
X48000Y-23500D03*
X48000Y-25500D03*
X20400Y-12500D03*
X20400Y-14500D03*
X20400Y-17500D03*
X20400Y-19500D03*
X20400Y-34500D03*
X20400Y-36500D03*
X91500Y-17500D03*
X91500Y-19500D03*
X33500Y-17500D03*
X33500Y-19500D03*
G54D13*
X73950Y-37000D03*
G54D14*
X74950Y-37000D03*
X73950Y-38000D03*
X74950Y-38000D03*
G54D12*
X99500Y-21500D03*
X96500Y-21500D03*
X87550Y-49050D03*
X87550Y-46050D03*
X88550Y-49050D03*
X88550Y-46050D03*
X89550Y-49050D03*
X89550Y-46050D03*
X90550Y-49050D03*
X90550Y-46050D03*
G54D15*
X21400Y-26500D03*
G54D12*
X22400Y-26500D03*
X23400Y-26500D03*
X24400Y-26500D03*
X25400Y-26500D03*
X26400Y-26500D03*
X27400Y-26500D03*
X28400Y-26500D03*
X29400Y-26500D03*
X30400Y-26500D03*
G54D15*
X9000Y-26500D03*
G54D12*
X10000Y-26500D03*
X11000Y-26500D03*
X12000Y-26500D03*
X13000Y-26500D03*
X14000Y-26500D03*
X15000Y-26500D03*
X16000Y-26500D03*
X17000Y-26500D03*
X18000Y-26500D03*
G54D15*
X33400Y-26500D03*
G54D12*
X34400Y-26500D03*
X35400Y-26500D03*
X36400Y-26500D03*
X37400Y-26500D03*
X38400Y-26500D03*
X39400Y-26500D03*
X40400Y-26500D03*
X41400Y-26500D03*
X42400Y-26500D03*
G54D13*
X33900Y-25000D03*
G54D14*
X34900Y-25000D03*
X35900Y-25000D03*
X36900Y-25000D03*
X37900Y-25000D03*
X38900Y-25000D03*
X39900Y-25000D03*
X40900Y-25000D03*
X40900Y-22000D03*
X39900Y-22000D03*
X38900Y-22000D03*
X37900Y-22000D03*
X36900Y-22000D03*
X35900Y-22000D03*
X34900Y-22000D03*
X33900Y-22000D03*
G54D13*
X21900Y-25000D03*
G54D14*
X22900Y-25000D03*
X23900Y-25000D03*
X24900Y-25000D03*
X25900Y-25000D03*
X26900Y-25000D03*
X27900Y-25000D03*
X28900Y-25000D03*
X28900Y-22000D03*
X27900Y-22000D03*
X26900Y-22000D03*
X25900Y-22000D03*
X24900Y-22000D03*
X23900Y-22000D03*
X22900Y-22000D03*
X21900Y-22000D03*
G54D13*
X9500Y-25000D03*
G54D14*
X10500Y-25000D03*
X11500Y-25000D03*
X12500Y-25000D03*
X13500Y-25000D03*
X14500Y-25000D03*
X15500Y-25000D03*
X16500Y-25000D03*
X16500Y-22000D03*
X15500Y-22000D03*
X14500Y-22000D03*
X13500Y-22000D03*
X12500Y-22000D03*
X11500Y-22000D03*
X10500Y-22000D03*
X9500Y-22000D03*
G54D12*
X77000Y-23500D03*
X77000Y-25500D03*
X91500Y-52500D03*
X91500Y-54500D03*
G54D15*
X89450Y-28800D03*
G54D12*
X89450Y-29800D03*
X89450Y-30800D03*
X89450Y-31800D03*
X89450Y-32800D03*
X89450Y-33800D03*
X89450Y-34800D03*
X89450Y-35800D03*
X89450Y-36800D03*
X89450Y-37800D03*
G54D15*
X22700Y-44850D03*
G54D12*
X23700Y-44850D03*
X24700Y-44850D03*
X25700Y-44850D03*
X26700Y-44850D03*
X27700Y-44850D03*
X28700Y-44850D03*
X29700Y-44850D03*
X30700Y-44850D03*
X31700Y-44850D03*
G54D15*
X48000Y-32600D03*
G54D12*
X49000Y-32600D03*
X50000Y-32600D03*
X51000Y-32600D03*
X52000Y-32600D03*
X53000Y-32600D03*
X54000Y-32600D03*
X55000Y-32600D03*
X56000Y-32600D03*
X57000Y-32600D03*
G54D13*
X73950Y-40750D03*
G54D14*
X74950Y-40750D03*
X73950Y-41750D03*
X74950Y-41750D03*
X73950Y-42750D03*
X74950Y-42750D03*
X73950Y-43750D03*
X74950Y-43750D03*
G54D13*
X19200Y-56250D03*
G54D14*
X18200Y-56250D03*
G54D13*
X18350Y-49150D03*
G54D14*
X19350Y-49150D03*
G54D13*
X59050Y-25400D03*
G54D14*
X60050Y-25400D03*
X59050Y-26400D03*
X60050Y-26400D03*
X59050Y-27400D03*
X60050Y-27400D03*
G54D15*
X34000Y-56700D03*
G54D12*
X35000Y-56700D03*
X36000Y-56700D03*
G54D15*
X73000Y-33400D03*
G54D12*
X73000Y-32400D03*
X73000Y-31400D03*
X90000Y-40000D03*
X90000Y-43000D03*
G54D15*
X45250Y-27450D03*
G54D12*
X45250Y-26450D03*
X45250Y-25450D03*
G54D16*
X93400Y-37000D03*
G54D17*
X94400Y-37000D03*
X95400Y-37000D03*
X96400Y-37000D03*
X97400Y-37000D03*
X98400Y-37000D03*
X99400Y-37000D03*
X99400Y-34000D03*
X98400Y-34000D03*
X97400Y-34000D03*
X96400Y-34000D03*
X95400Y-34000D03*
X94400Y-34000D03*
X93400Y-34000D03*
G54D16*
X35500Y-20000D03*
G54D17*
X36500Y-20000D03*
X37500Y-20000D03*
X38500Y-20000D03*
X39500Y-20000D03*
X40500Y-20000D03*
X41500Y-20000D03*
X41500Y-17000D03*
X40500Y-17000D03*
X39500Y-17000D03*
X38500Y-17000D03*
X37500Y-17000D03*
X36500Y-17000D03*
X35500Y-17000D03*
G54D16*
X50000Y-26000D03*
G54D17*
X51000Y-26000D03*
X52000Y-26000D03*
X53000Y-26000D03*
X54000Y-26000D03*
X55000Y-26000D03*
X56000Y-26000D03*
X56000Y-23000D03*
X55000Y-23000D03*
X54000Y-23000D03*
X53000Y-23000D03*
X52000Y-23000D03*
X51000Y-23000D03*
X50000Y-23000D03*
G54D12*
X91600Y-30500D03*
X91600Y-28500D03*
X48000Y-36500D03*
X48000Y-34500D03*
G54D16*
X50000Y-37000D03*
G54D17*
X51000Y-37000D03*
X52000Y-37000D03*
X53000Y-37000D03*
X54000Y-37000D03*
X55000Y-37000D03*
X56000Y-37000D03*
X56000Y-34000D03*
X55000Y-34000D03*
X54000Y-34000D03*
X53000Y-34000D03*
X52000Y-34000D03*
X51000Y-34000D03*
X50000Y-34000D03*
G54D16*
X79000Y-26000D03*
G54D17*
X80000Y-26000D03*
X81000Y-26000D03*
X82000Y-26000D03*
X83000Y-26000D03*
X84000Y-26000D03*
X85000Y-26000D03*
X85000Y-23000D03*
X84000Y-23000D03*
X83000Y-23000D03*
X82000Y-23000D03*
X81000Y-23000D03*
X80000Y-23000D03*
X79000Y-23000D03*
G54D16*
X22400Y-20000D03*
G54D17*
X23400Y-20000D03*
X24400Y-20000D03*
X25400Y-20000D03*
X26400Y-20000D03*
X27400Y-20000D03*
X28400Y-20000D03*
X28400Y-17000D03*
X27400Y-17000D03*
X26400Y-17000D03*
X25400Y-17000D03*
X24400Y-17000D03*
X23400Y-17000D03*
X22400Y-17000D03*
G54D16*
X79000Y-37000D03*
G54D17*
X80000Y-37000D03*
X81000Y-37000D03*
X82000Y-37000D03*
X83000Y-37000D03*
X84000Y-37000D03*
X85000Y-37000D03*
X85000Y-34000D03*
X84000Y-34000D03*
X83000Y-34000D03*
X82000Y-34000D03*
X81000Y-34000D03*
X80000Y-34000D03*
X79000Y-34000D03*
G54D16*
X79000Y-31000D03*
G54D17*
X80000Y-31000D03*
X81000Y-31000D03*
X82000Y-31000D03*
X83000Y-31000D03*
X84000Y-31000D03*
X85000Y-31000D03*
X85000Y-28000D03*
X84000Y-28000D03*
X83000Y-28000D03*
X82000Y-28000D03*
X81000Y-28000D03*
X80000Y-28000D03*
X79000Y-28000D03*
G54D16*
X64500Y-31000D03*
G54D17*
X65500Y-31000D03*
X66500Y-31000D03*
X67500Y-31000D03*
X68500Y-31000D03*
X69500Y-31000D03*
X70500Y-31000D03*
X70500Y-28000D03*
X69500Y-28000D03*
X68500Y-28000D03*
X67500Y-28000D03*
X66500Y-28000D03*
X65500Y-28000D03*
X64500Y-28000D03*
G54D16*
X93500Y-43000D03*
G54D17*
X94500Y-43000D03*
X95500Y-43000D03*
X96500Y-43000D03*
X97500Y-43000D03*
X98500Y-43000D03*
X99500Y-43000D03*
X99500Y-40000D03*
X98500Y-40000D03*
X97500Y-40000D03*
X96500Y-40000D03*
X95500Y-40000D03*
X94500Y-40000D03*
X93500Y-40000D03*
G54D16*
X64500Y-26000D03*
G54D17*
X65500Y-26000D03*
X66500Y-26000D03*
X67500Y-26000D03*
X68500Y-26000D03*
X69500Y-26000D03*
X70500Y-26000D03*
X70500Y-23000D03*
X69500Y-23000D03*
X68500Y-23000D03*
X67500Y-23000D03*
X66500Y-23000D03*
X65500Y-23000D03*
X64500Y-23000D03*
G54D16*
X10600Y-20000D03*
G54D17*
X11600Y-20000D03*
X12600Y-20000D03*
X13600Y-20000D03*
X14600Y-20000D03*
X15600Y-20000D03*
X16600Y-20000D03*
X16600Y-17000D03*
X15600Y-17000D03*
X14600Y-17000D03*
X13600Y-17000D03*
X12600Y-17000D03*
X11600Y-17000D03*
X10600Y-17000D03*
G54D16*
X50000Y-31000D03*
G54D17*
X51000Y-31000D03*
X52000Y-31000D03*
X53000Y-31000D03*
X54000Y-31000D03*
X55000Y-31000D03*
X56000Y-31000D03*
X56000Y-28000D03*
X55000Y-28000D03*
X54000Y-28000D03*
X53000Y-28000D03*
X52000Y-28000D03*
X51000Y-28000D03*
X50000Y-28000D03*
G54D16*
X93500Y-26000D03*
G54D17*
X94500Y-26000D03*
X95500Y-26000D03*
X96500Y-26000D03*
X97500Y-26000D03*
X98500Y-26000D03*
X99500Y-26000D03*
X99500Y-23000D03*
X98500Y-23000D03*
X97500Y-23000D03*
X96500Y-23000D03*
X95500Y-23000D03*
X94500Y-23000D03*
X93500Y-23000D03*
G54D16*
X35500Y-15000D03*
G54D17*
X36500Y-15000D03*
X37500Y-15000D03*
X38500Y-15000D03*
X39500Y-15000D03*
X40500Y-15000D03*
X41500Y-15000D03*
X41500Y-12000D03*
X40500Y-12000D03*
X39500Y-12000D03*
X38500Y-12000D03*
X37500Y-12000D03*
X36500Y-12000D03*
X35500Y-12000D03*
G54D16*
X22400Y-15000D03*
G54D17*
X23400Y-15000D03*
X24400Y-15000D03*
X25400Y-15000D03*
X26400Y-15000D03*
X27400Y-15000D03*
X28400Y-15000D03*
X28400Y-12000D03*
X27400Y-12000D03*
X26400Y-12000D03*
X25400Y-12000D03*
X24400Y-12000D03*
X23400Y-12000D03*
X22400Y-12000D03*
G54D16*
X64500Y-43000D03*
G54D17*
X65500Y-43000D03*
X66500Y-43000D03*
X67500Y-43000D03*
X68500Y-43000D03*
X69500Y-43000D03*
X70500Y-43000D03*
X70500Y-40000D03*
X69500Y-40000D03*
X68500Y-40000D03*
X67500Y-40000D03*
X66500Y-40000D03*
X65500Y-40000D03*
X64500Y-40000D03*
G54D16*
X64500Y-37000D03*
G54D17*
X65500Y-37000D03*
X66500Y-37000D03*
X67500Y-37000D03*
X68500Y-37000D03*
X69500Y-37000D03*
X70500Y-37000D03*
X70500Y-34000D03*
X69500Y-34000D03*
X68500Y-34000D03*
X67500Y-34000D03*
X66500Y-34000D03*
X65500Y-34000D03*
X64500Y-34000D03*
G54D16*
X50000Y-43000D03*
G54D17*
X51000Y-43000D03*
X52000Y-43000D03*
X53000Y-43000D03*
X54000Y-43000D03*
X55000Y-43000D03*
X56000Y-43000D03*
X56000Y-40000D03*
X55000Y-40000D03*
X54000Y-40000D03*
X53000Y-40000D03*
X52000Y-40000D03*
X51000Y-40000D03*
X50000Y-40000D03*
G54D16*
X35500Y-37000D03*
G54D17*
X36500Y-37000D03*
X37500Y-37000D03*
X38500Y-37000D03*
X39500Y-37000D03*
X40500Y-37000D03*
X41500Y-37000D03*
X42500Y-37000D03*
X42500Y-34000D03*
X41500Y-34000D03*
X40500Y-34000D03*
X39500Y-34000D03*
X38500Y-34000D03*
X37500Y-34000D03*
X36500Y-34000D03*
X35500Y-34000D03*
G54D16*
X64000Y-49000D03*
G54D17*
X65000Y-49000D03*
X66000Y-49000D03*
X67000Y-49000D03*
X68000Y-49000D03*
X69000Y-49000D03*
X70000Y-49000D03*
X71000Y-49000D03*
X71000Y-46000D03*
X70000Y-46000D03*
X69000Y-46000D03*
X68000Y-46000D03*
X67000Y-46000D03*
X66000Y-46000D03*
X65000Y-46000D03*
X64000Y-46000D03*
G54D16*
X35600Y-49000D03*
G54D17*
X36600Y-49000D03*
X37600Y-49000D03*
X38600Y-49000D03*
X39600Y-49000D03*
X40600Y-49000D03*
X41600Y-49000D03*
X42600Y-49000D03*
X42600Y-46000D03*
X41600Y-46000D03*
X40600Y-46000D03*
X39600Y-46000D03*
X38600Y-46000D03*
X37600Y-46000D03*
X36600Y-46000D03*
X35600Y-46000D03*
G54D16*
X49900Y-49000D03*
G54D17*
X50900Y-49000D03*
X51900Y-49000D03*
X52900Y-49000D03*
X53900Y-49000D03*
X54900Y-49000D03*
X55900Y-49000D03*
X56900Y-49000D03*
X56900Y-46000D03*
X55900Y-46000D03*
X54900Y-46000D03*
X53900Y-46000D03*
X52900Y-46000D03*
X51900Y-46000D03*
X50900Y-46000D03*
X49900Y-46000D03*
G54D16*
X79000Y-49000D03*
G54D17*
X80000Y-49000D03*
X81000Y-49000D03*
X82000Y-49000D03*
X83000Y-49000D03*
X84000Y-49000D03*
X85000Y-49000D03*
X86000Y-49000D03*
X86000Y-46000D03*
X85000Y-46000D03*
X84000Y-46000D03*
X83000Y-46000D03*
X82000Y-46000D03*
X81000Y-46000D03*
X80000Y-46000D03*
X79000Y-46000D03*
G54D16*
X10600Y-31000D03*
G54D17*
X11600Y-31000D03*
X12600Y-31000D03*
X13600Y-31000D03*
X14600Y-31000D03*
X15600Y-31000D03*
X16600Y-31000D03*
X17600Y-31000D03*
X17600Y-28000D03*
X16600Y-28000D03*
X15600Y-28000D03*
X14600Y-28000D03*
X13600Y-28000D03*
X12600Y-28000D03*
X11600Y-28000D03*
X10600Y-28000D03*
G54D16*
X22100Y-31000D03*
G54D17*
X23100Y-31000D03*
X24100Y-31000D03*
X25100Y-31000D03*
X26100Y-31000D03*
X27100Y-31000D03*
X28100Y-31000D03*
X29100Y-31000D03*
X29100Y-28000D03*
X28100Y-28000D03*
X27100Y-28000D03*
X26100Y-28000D03*
X25100Y-28000D03*
X24100Y-28000D03*
X23100Y-28000D03*
X22100Y-28000D03*
G54D16*
X35500Y-31000D03*
G54D17*
X36500Y-31000D03*
X37500Y-31000D03*
X38500Y-31000D03*
X39500Y-31000D03*
X40500Y-31000D03*
X41500Y-31000D03*
X42500Y-31000D03*
X42500Y-28000D03*
X41500Y-28000D03*
X40500Y-28000D03*
X39500Y-28000D03*
X38500Y-28000D03*
X37500Y-28000D03*
X36500Y-28000D03*
X35500Y-28000D03*
G54D16*
X93500Y-49000D03*
G54D17*
X94500Y-49000D03*
X95500Y-49000D03*
X96500Y-49000D03*
X97500Y-49000D03*
X98500Y-49000D03*
X99500Y-49000D03*
X100500Y-49000D03*
X101500Y-49000D03*
X102500Y-49000D03*
X102500Y-46000D03*
X101500Y-46000D03*
X100500Y-46000D03*
X99500Y-46000D03*
X98500Y-46000D03*
X97500Y-46000D03*
X96500Y-46000D03*
X95500Y-46000D03*
X94500Y-46000D03*
X93500Y-46000D03*
G54D16*
X35500Y-55000D03*
G54D17*
X36500Y-55000D03*
X37500Y-55000D03*
X38500Y-55000D03*
X39500Y-55000D03*
X40500Y-55000D03*
X41500Y-55000D03*
X42500Y-55000D03*
X43500Y-55000D03*
X44500Y-55000D03*
X44500Y-52000D03*
X43500Y-52000D03*
X42500Y-52000D03*
X41500Y-52000D03*
X40500Y-52000D03*
X39500Y-52000D03*
X38500Y-52000D03*
X37500Y-52000D03*
X36500Y-52000D03*
X35500Y-52000D03*
G54D16*
X22200Y-43000D03*
G54D17*
X23200Y-43000D03*
X24200Y-43000D03*
X25200Y-43000D03*
X26200Y-43000D03*
X27200Y-43000D03*
X28200Y-43000D03*
X29200Y-43000D03*
X30200Y-43000D03*
X31200Y-43000D03*
X31200Y-40000D03*
X30200Y-40000D03*
X29200Y-40000D03*
X28200Y-40000D03*
X27200Y-40000D03*
X26200Y-40000D03*
X25200Y-40000D03*
X24200Y-40000D03*
X23200Y-40000D03*
X22200Y-40000D03*
G54D16*
X35500Y-43000D03*
G54D17*
X36500Y-43000D03*
X37500Y-43000D03*
X38500Y-43000D03*
X39500Y-43000D03*
X40500Y-43000D03*
X41500Y-43000D03*
X42500Y-43000D03*
X43500Y-43000D03*
X44500Y-43000D03*
X44500Y-40000D03*
X43500Y-40000D03*
X42500Y-40000D03*
X41500Y-40000D03*
X40500Y-40000D03*
X39500Y-40000D03*
X38500Y-40000D03*
X37500Y-40000D03*
X36500Y-40000D03*
X35500Y-40000D03*
G54D16*
X22200Y-37000D03*
G54D17*
X23200Y-37000D03*
X24200Y-37000D03*
X25200Y-37000D03*
X26200Y-37000D03*
X27200Y-37000D03*
X28200Y-37000D03*
X29200Y-37000D03*
X30200Y-37000D03*
X31200Y-37000D03*
X31200Y-34000D03*
X30200Y-34000D03*
X29200Y-34000D03*
X28200Y-34000D03*
X27200Y-34000D03*
X26200Y-34000D03*
X25200Y-34000D03*
X24200Y-34000D03*
X23200Y-34000D03*
X22200Y-34000D03*
G54D16*
X64500Y-55000D03*
G54D17*
X65500Y-55000D03*
X66500Y-55000D03*
X67500Y-55000D03*
X68500Y-55000D03*
X69500Y-55000D03*
X70500Y-55000D03*
X71500Y-55000D03*
X72500Y-55000D03*
X73500Y-55000D03*
X73500Y-52000D03*
X72500Y-52000D03*
X71500Y-52000D03*
X70500Y-52000D03*
X69500Y-52000D03*
X68500Y-52000D03*
X67500Y-52000D03*
X66500Y-52000D03*
X65500Y-52000D03*
X64500Y-52000D03*
G54D16*
X79000Y-55000D03*
G54D17*
X80000Y-55000D03*
X81000Y-55000D03*
X82000Y-55000D03*
X83000Y-55000D03*
X84000Y-55000D03*
X85000Y-55000D03*
X86000Y-55000D03*
X87000Y-55000D03*
X88000Y-55000D03*
X88000Y-52000D03*
X87000Y-52000D03*
X86000Y-52000D03*
X85000Y-52000D03*
X84000Y-52000D03*
X83000Y-52000D03*
X82000Y-52000D03*
X81000Y-52000D03*
X80000Y-52000D03*
X79000Y-52000D03*
G54D16*
X79000Y-43000D03*
G54D17*
X80000Y-43000D03*
X81000Y-43000D03*
X82000Y-43000D03*
X83000Y-43000D03*
X84000Y-43000D03*
X85000Y-43000D03*
X86000Y-43000D03*
X87000Y-43000D03*
X88000Y-43000D03*
X88000Y-40000D03*
X87000Y-40000D03*
X86000Y-40000D03*
X85000Y-40000D03*
X84000Y-40000D03*
X83000Y-40000D03*
X82000Y-40000D03*
X81000Y-40000D03*
X80000Y-40000D03*
X79000Y-40000D03*
G54D16*
X93500Y-55000D03*
G54D17*
X94500Y-55000D03*
X95500Y-55000D03*
X96500Y-55000D03*
X97500Y-55000D03*
X98500Y-55000D03*
X99500Y-55000D03*
X100500Y-55000D03*
X101500Y-55000D03*
X102500Y-55000D03*
X102500Y-52000D03*
X101500Y-52000D03*
X100500Y-52000D03*
X99500Y-52000D03*
X98500Y-52000D03*
X97500Y-52000D03*
X96500Y-52000D03*
X95500Y-52000D03*
X94500Y-52000D03*
X93500Y-52000D03*
G54D16*
X50000Y-55000D03*
G54D17*
X51000Y-55000D03*
X52000Y-55000D03*
X53000Y-55000D03*
X54000Y-55000D03*
X55000Y-55000D03*
X56000Y-55000D03*
X57000Y-55000D03*
X58000Y-55000D03*
X59000Y-55000D03*
X59000Y-52000D03*
X58000Y-52000D03*
X57000Y-52000D03*
X56000Y-52000D03*
X55000Y-52000D03*
X54000Y-52000D03*
X53000Y-52000D03*
X52000Y-52000D03*
X51000Y-52000D03*
X50000Y-52000D03*
G54D16*
X67500Y-18500D03*
G54D17*
X68500Y-18500D03*
X69500Y-18500D03*
X70500Y-18500D03*
X71500Y-18500D03*
X72500Y-18500D03*
X73500Y-18500D03*
X74500Y-18500D03*
X75500Y-18500D03*
X76500Y-18500D03*
X77500Y-18500D03*
X78500Y-18500D03*
X79500Y-18500D03*
X80500Y-18500D03*
X81500Y-18500D03*
X82500Y-18500D03*
X83500Y-18500D03*
X84500Y-18500D03*
X85500Y-18500D03*
X86500Y-18500D03*
X86500Y-12500D03*
X85500Y-12500D03*
X84500Y-12500D03*
X83500Y-12500D03*
X82500Y-12500D03*
X81500Y-12500D03*
X80500Y-12500D03*
X79500Y-12500D03*
X78500Y-12500D03*
X77500Y-12500D03*
X76500Y-12500D03*
X75500Y-12500D03*
X74500Y-12500D03*
X73500Y-12500D03*
X72500Y-12500D03*
X71500Y-12500D03*
X70500Y-12500D03*
X69500Y-12500D03*
X68500Y-12500D03*
X67500Y-12500D03*
G54D16*
X93500Y-31000D03*
G54D17*
X94500Y-31000D03*
X95500Y-31000D03*
X96500Y-31000D03*
X97500Y-31000D03*
X98500Y-31000D03*
X99500Y-31000D03*
X99500Y-28000D03*
X98500Y-28000D03*
X97500Y-28000D03*
X96500Y-28000D03*
X95500Y-28000D03*
X94500Y-28000D03*
X93500Y-28000D03*
G54D18*
X28100Y-53274D03*
X28100Y-52526D03*
G54D19*
X25074Y-55300D03*
X24326Y-55300D03*
G54D18*
X25800Y-53274D03*
X25800Y-52526D03*
G54D19*
X22974Y-55300D03*
X22226Y-55300D03*
G54D18*
X23600Y-53274D03*
X23600Y-52526D03*
G54D20*
X29574Y-54433D03*
X28826Y-54433D03*
X29200Y-53567D03*
X27374Y-54433D03*
X26626Y-54433D03*
X27000Y-53567D03*
X25074Y-54433D03*
X24326Y-54433D03*
X24700Y-53567D03*
X22974Y-54433D03*
X22226Y-54433D03*
X22600Y-53567D03*
G54D21*
X18333Y-13526D03*
X18333Y-14274D03*
X17467Y-13900D03*
X15333Y-13476D03*
X15333Y-14224D03*
X14467Y-13850D03*
G54D19*
X26626Y-55300D03*
X27374Y-55300D03*
G54D18*
X14500Y-12624D03*
X14500Y-11876D03*
X30100Y-52526D03*
X30100Y-53274D03*
G54D19*
X29574Y-55300D03*
X28826Y-55300D03*
G54D22*
X16700Y-51700D03*
G54D23*
X16700Y-53700D03*
G54D22*
X16700Y-52700D03*
G54D24*
X10200Y-52700D03*
G54D25*
X48000Y-18500D03*
G54D26*
X49000Y-18500D03*
X50000Y-18500D03*
X51000Y-18500D03*
X52000Y-18500D03*
X53000Y-18500D03*
X54000Y-18500D03*
X55000Y-18500D03*
X56000Y-18500D03*
X57000Y-18500D03*
X58000Y-18500D03*
X59000Y-18500D03*
X59000Y-12500D03*
G54D27*
X58000Y-12500D03*
G54D26*
X57000Y-12500D03*
X56000Y-12500D03*
X55000Y-12500D03*
X54000Y-12500D03*
X53000Y-12500D03*
X52000Y-12500D03*
X51000Y-12500D03*
X50000Y-12500D03*
X49000Y-12500D03*
X48000Y-12500D03*
G54D18*
X17450Y-11876D03*
X17450Y-12624D03*
X18450Y-12624D03*
X18450Y-11876D03*
X15500Y-11876D03*
X15500Y-12624D03*
G54D15*
X27325Y-48474D03*
G54D12*
X27325Y-47474D03*
X27325Y-46474D03*
G54D15*
X28475Y-48474D03*
G54D12*
X28475Y-47474D03*
X28475Y-46474D03*
G54D15*
X74250Y-33400D03*
G54D12*
X74250Y-32400D03*
X74250Y-31400D03*
G54D15*
X87500Y-36550D03*
G54D12*
X87500Y-35550D03*
X87500Y-34550D03*
G54D15*
X60000Y-33500D03*
G54D12*
X60000Y-32500D03*
X60000Y-31500D03*
G54D13*
X95750Y-13500D03*
G54D14*
X95750Y-12500D03*
X96750Y-13500D03*
X96750Y-12500D03*
X97750Y-13500D03*
X97750Y-12500D03*
X98750Y-13500D03*
X98750Y-12500D03*
G54D16*
X10600Y-43000D03*
G54D17*
X11600Y-43000D03*
X12600Y-43000D03*
X13600Y-43000D03*
X14600Y-43000D03*
X15600Y-43000D03*
X16600Y-43000D03*
X17600Y-43000D03*
X17600Y-40000D03*
X16600Y-40000D03*
X15600Y-40000D03*
X14600Y-40000D03*
X13600Y-40000D03*
X12600Y-40000D03*
X11600Y-40000D03*
X10600Y-40000D03*
G54D16*
X93500Y-20000D03*
G54D17*
X94500Y-20000D03*
X95500Y-20000D03*
X96500Y-20000D03*
X97500Y-20000D03*
X98500Y-20000D03*
X99500Y-20000D03*
X100500Y-20000D03*
X100500Y-17000D03*
X99500Y-17000D03*
X98500Y-17000D03*
X97500Y-17000D03*
X96500Y-17000D03*
X95500Y-17000D03*
X94500Y-17000D03*
X93500Y-17000D03*
G54D13*
X93050Y-13500D03*
G54D14*
X93050Y-12500D03*
X94050Y-13500D03*
X94050Y-12500D03*
G54D19*
X11284Y-45640D03*
X10536Y-45640D03*
G54D13*
X18350Y-46050D03*
G54D14*
X19350Y-46050D03*
G54D12*
X75950Y-23500D03*
X75950Y-25500D03*
X74900Y-23500D03*
X74900Y-25500D03*
G54D13*
X11100Y-37000D03*
G54D14*
X12100Y-37000D03*
X13100Y-37000D03*
X14100Y-37000D03*
X15100Y-37000D03*
X16100Y-37000D03*
X17100Y-37000D03*
X18100Y-37000D03*
X18100Y-34000D03*
X17100Y-34000D03*
X16100Y-34000D03*
X15100Y-34000D03*
X14100Y-34000D03*
X13100Y-34000D03*
X12100Y-34000D03*
X11100Y-34000D03*
G54D15*
X75500Y-33400D03*
G54D12*
X75500Y-32400D03*
X75500Y-31400D03*
G54D15*
X8800Y-36500D03*
G54D12*
X8800Y-35500D03*
X8800Y-34500D03*
G54D15*
X9800Y-38600D03*
G54D12*
X10800Y-38600D03*
X11800Y-38600D03*
X12800Y-38600D03*
X13800Y-38600D03*
X14800Y-38600D03*
X15800Y-38600D03*
X16800Y-38600D03*
X17800Y-38600D03*
X18800Y-38600D03*
G54D15*
X22725Y-48474D03*
G54D12*
X22725Y-47474D03*
X22725Y-46474D03*
G54D15*
X23875Y-48474D03*
G54D12*
X23875Y-47474D03*
X23875Y-46474D03*
G54D15*
X26175Y-48474D03*
G54D12*
X26175Y-47474D03*
X26175Y-46474D03*
G54D15*
X25025Y-48474D03*
G54D12*
X25025Y-47474D03*
X25025Y-46474D03*
G54D15*
X29625Y-48474D03*
G54D12*
X29625Y-47474D03*
X29625Y-46474D03*
G54D15*
X30775Y-48474D03*
G54D12*
X30775Y-47474D03*
X30775Y-46474D03*
G54D28*
X21050Y-60150D03*
G54D29*
X30000Y-60150D03*
X31250Y-60150D03*
X32500Y-60150D03*
X33750Y-60150D03*
X35000Y-60150D03*
X36250Y-60150D03*
X37500Y-60150D03*
X40000Y-60150D03*
X42500Y-60150D03*
X47500Y-60150D03*
X48750Y-60150D03*
X50000Y-60150D03*
X51250Y-60150D03*
X52500Y-60150D03*
X53750Y-60150D03*
X55000Y-60150D03*
X56250Y-60150D03*
X57500Y-60150D03*
X58750Y-60150D03*
X60000Y-60150D03*
X61250Y-60150D03*
X62500Y-60150D03*
X63750Y-60150D03*
X65000Y-60150D03*
X66250Y-60150D03*
X67500Y-60150D03*
X68750Y-60150D03*
X70000Y-60150D03*
X71250Y-60150D03*
X72500Y-60150D03*
X73750Y-60150D03*
X75000Y-60150D03*
X76250Y-60150D03*
X77500Y-60150D03*
X78750Y-60150D03*
X80000Y-60150D03*
X81250Y-60150D03*
G54D28*
X82700Y-60150D03*
G54D15*
X60050Y-39450D03*
G54D12*
X60050Y-38450D03*
X60050Y-37450D03*
G54D19*
X30774Y-32300D03*
X30026Y-32300D03*
M02*
