G04 (created by PCBNEW (2013-07-07 BZR 4022)-stable) date 9/8/2013 11:51:43 PM*
%MOIN*%
G04 Gerber Fmt 3.4, Leading zero omitted, Abs format*
%FSLAX34Y34*%
G01*
G70*
G90*
G04 APERTURE LIST*
%ADD10C,0.00590551*%
%ADD11C,0.015*%
G04 APERTURE END LIST*
G54D10*
G54D11*
X184200Y-45600D02*
X184200Y-52400D01*
X184200Y-42800D02*
X184200Y-35600D01*
X192600Y-45000D02*
X186400Y-45000D01*
X186400Y-43400D02*
X192600Y-43400D01*
X185200Y-43800D02*
X185200Y-44600D01*
X186000Y-43800D02*
X186000Y-44600D01*
X184800Y-45000D02*
G75*
G03X184200Y-45600I0J-600D01*
G74*
G01*
X184800Y-45000D02*
G75*
G03X185200Y-44600I0J400D01*
G74*
G01*
X186000Y-44600D02*
G75*
G03X186400Y-45000I400J0D01*
G74*
G01*
X186400Y-43400D02*
G75*
G03X186000Y-43800I0J-400D01*
G74*
G01*
X185200Y-43800D02*
G75*
G03X184800Y-43400I-400J0D01*
G74*
G01*
X184200Y-42800D02*
G75*
G03X184800Y-43400I600J0D01*
G74*
G01*
X193800Y-43800D02*
X193800Y-44600D01*
X194800Y-42800D02*
X194800Y-36600D01*
X194800Y-64400D02*
X194800Y-45600D01*
X194800Y-45600D02*
G75*
G03X194200Y-45000I-600J0D01*
G74*
G01*
X193800Y-44600D02*
G75*
G03X194200Y-45000I400J0D01*
G74*
G01*
X194200Y-43400D02*
G75*
G03X193800Y-43800I0J-400D01*
G74*
G01*
X194200Y-43400D02*
G75*
G03X194800Y-42800I0J600D01*
G74*
G01*
X193000Y-44600D02*
X193000Y-43800D01*
X192600Y-45000D02*
G75*
G03X193000Y-44600I0J400D01*
G74*
G01*
X193000Y-43800D02*
G75*
G03X192600Y-43400I-400J0D01*
G74*
G01*
X203800Y-78400D02*
X213000Y-78400D01*
X201600Y-77200D02*
X199800Y-77200D01*
X198800Y-78200D02*
X198800Y-79000D01*
X199800Y-77200D02*
G75*
G03X198800Y-78200I0J-1000D01*
G74*
G01*
X202600Y-77200D02*
X201600Y-77200D01*
X202800Y-77400D02*
G75*
G03X202600Y-77200I-200J0D01*
G74*
G01*
X202800Y-77400D02*
G75*
G03X203800Y-78400I1000J0D01*
G74*
G01*
X202600Y-72600D02*
X202400Y-72600D01*
X202200Y-72400D02*
G75*
G03X202400Y-72600I200J0D01*
G74*
G01*
X202600Y-72600D02*
G75*
G03X202800Y-72400I0J200D01*
G74*
G01*
X202200Y-70600D02*
X202200Y-72400D01*
X204000Y-71400D02*
X203800Y-71400D01*
X203800Y-71400D02*
G75*
G03X202800Y-72400I0J-1000D01*
G74*
G01*
X213000Y-71400D02*
X204000Y-71400D01*
X219200Y-71400D02*
X215200Y-71400D01*
X213000Y-71400D02*
G75*
G03X213600Y-70800I0J600D01*
G74*
G01*
X213600Y-70600D02*
X213600Y-70800D01*
X214600Y-70600D02*
X214600Y-70800D01*
X214600Y-70800D02*
G75*
G03X215200Y-71400I600J0D01*
G74*
G01*
X220200Y-73000D02*
X220200Y-72400D01*
X220200Y-72400D02*
G75*
G03X219200Y-71400I-1000J0D01*
G74*
G01*
X187800Y-115200D02*
X187800Y-108600D01*
X187200Y-115800D02*
G75*
G03X187800Y-115200I0J600D01*
G74*
G01*
X187200Y-115800D02*
X184800Y-115800D01*
X187800Y-88600D02*
X187800Y-107600D01*
X187800Y-80400D02*
X187800Y-87600D01*
X193400Y-78400D02*
X189800Y-78400D01*
X189800Y-78400D02*
G75*
G03X187800Y-80400I0J-2000D01*
G74*
G01*
X188600Y-85000D02*
X189200Y-85000D01*
X188600Y-85200D02*
X188600Y-85000D01*
X188600Y-87600D02*
X188600Y-85200D01*
X188600Y-107600D02*
X188600Y-88600D01*
X188600Y-111200D02*
X188600Y-108600D01*
X189200Y-111200D02*
X188600Y-111200D01*
X188600Y-107600D02*
X187800Y-107600D01*
X188600Y-108600D02*
X187800Y-108600D01*
X188600Y-88600D02*
X187800Y-88600D01*
X188600Y-87600D02*
X187800Y-87600D01*
X196800Y-36600D02*
X196800Y-64400D01*
X196200Y-65000D02*
X195400Y-65000D01*
X194800Y-64400D02*
G75*
G03X195400Y-65000I600J0D01*
G74*
G01*
X196200Y-65000D02*
G75*
G03X196800Y-64400I0J600D01*
G74*
G01*
X196800Y-66600D02*
X196800Y-67000D01*
X194800Y-66600D02*
X194800Y-67000D01*
X196200Y-66000D02*
X195400Y-66000D01*
X195400Y-66000D02*
G75*
G03X194800Y-66600I0J-600D01*
G74*
G01*
X196800Y-66600D02*
G75*
G03X196200Y-66000I-600J0D01*
G74*
G01*
X194800Y-67000D02*
X194800Y-70000D01*
X196800Y-67000D02*
X196800Y-69000D01*
X183400Y-52400D02*
X183400Y-35600D01*
X184200Y-54000D02*
X184200Y-73200D01*
X183400Y-73200D02*
X183400Y-54000D01*
X184200Y-75000D02*
X184200Y-94000D01*
X183400Y-94000D02*
X183400Y-75000D01*
X183400Y-95600D02*
X183400Y-111200D01*
X184200Y-111200D02*
X184200Y-95600D01*
X183800Y-95200D02*
G75*
G03X183400Y-95600I0J-400D01*
G74*
G01*
X183400Y-94000D02*
G75*
G03X183800Y-94400I400J0D01*
G74*
G01*
X183800Y-94400D02*
G75*
G03X184200Y-94000I0J400D01*
G74*
G01*
X184200Y-95600D02*
G75*
G03X183800Y-95200I-400J0D01*
G74*
G01*
X183800Y-74600D02*
G75*
G03X183400Y-75000I0J-400D01*
G74*
G01*
X184200Y-75000D02*
G75*
G03X183800Y-74600I-400J0D01*
G74*
G01*
X183400Y-73200D02*
G75*
G03X183800Y-73600I400J0D01*
G74*
G01*
X183800Y-73600D02*
G75*
G03X184200Y-73200I0J400D01*
G74*
G01*
X183800Y-53600D02*
G75*
G03X183400Y-54000I0J-400D01*
G74*
G01*
X184200Y-54000D02*
G75*
G03X183800Y-53600I-400J0D01*
G74*
G01*
X183400Y-52400D02*
G75*
G03X183800Y-52800I400J0D01*
G74*
G01*
X183800Y-52800D02*
G75*
G03X184200Y-52400I0J400D01*
G74*
G01*
X194800Y-31800D02*
X194800Y-34400D01*
X185200Y-30800D02*
X193800Y-30800D01*
X183400Y-32800D02*
X183400Y-34000D01*
X184200Y-31800D02*
X184200Y-34000D01*
X183800Y-35200D02*
G75*
G03X183400Y-35600I0J-400D01*
G74*
G01*
X184200Y-35600D02*
G75*
G03X183800Y-35200I-400J0D01*
G74*
G01*
X183400Y-34000D02*
G75*
G03X183800Y-34400I400J0D01*
G74*
G01*
X183800Y-34400D02*
G75*
G03X184200Y-34000I0J400D01*
G74*
G01*
X185200Y-30800D02*
G75*
G03X184200Y-31800I0J-1000D01*
G74*
G01*
X183400Y-112800D02*
X183400Y-113800D01*
X184200Y-112800D02*
X184200Y-114800D01*
X183400Y-111200D02*
G75*
G03X183800Y-111600I400J0D01*
G74*
G01*
X183800Y-111600D02*
G75*
G03X184200Y-111200I0J400D01*
G74*
G01*
X183800Y-112400D02*
G75*
G03X183400Y-112800I0J-400D01*
G74*
G01*
X184200Y-112800D02*
G75*
G03X183800Y-112400I-400J0D01*
G74*
G01*
X196200Y-36000D02*
X195400Y-36000D01*
X195400Y-36000D02*
G75*
G03X194800Y-36600I0J-600D01*
G74*
G01*
X196800Y-36600D02*
G75*
G03X196200Y-36000I-600J0D01*
G74*
G01*
X219200Y-30800D02*
X197800Y-30800D01*
X220200Y-69000D02*
X220200Y-31800D01*
X219200Y-70000D02*
X215200Y-70000D01*
X202800Y-70000D02*
X213000Y-70000D01*
X197800Y-70000D02*
X200600Y-70000D01*
X200600Y-72000D02*
X196800Y-72000D01*
X201200Y-70600D02*
X201200Y-71400D01*
X202800Y-70000D02*
G75*
G03X202200Y-70600I0J-600D01*
G74*
G01*
X200600Y-72000D02*
G75*
G03X201200Y-71400I0J600D01*
G74*
G01*
X201200Y-70600D02*
G75*
G03X200600Y-70000I-600J0D01*
G74*
G01*
X213600Y-70600D02*
G75*
G03X213000Y-70000I-600J0D01*
G74*
G01*
X215200Y-70000D02*
G75*
G03X214600Y-70600I0J-600D01*
G74*
G01*
X220200Y-73000D02*
X220200Y-77400D01*
X213600Y-79000D02*
X213600Y-79800D01*
X199400Y-80400D02*
X213000Y-80400D01*
X198800Y-79000D02*
X198800Y-79800D01*
X198800Y-79800D02*
G75*
G03X199400Y-80400I600J0D01*
G74*
G01*
X213000Y-80400D02*
G75*
G03X213600Y-79800I0J600D01*
G74*
G01*
X213600Y-79000D02*
G75*
G03X213000Y-78400I-600J0D01*
G74*
G01*
X214600Y-79800D02*
G75*
G03X215200Y-80400I600J0D01*
G74*
G01*
X215200Y-78400D02*
X219200Y-78400D01*
X214600Y-79000D02*
X214600Y-79800D01*
X219200Y-80400D02*
X215200Y-80400D01*
X197200Y-78400D02*
X193400Y-78400D01*
X197200Y-80400D02*
X193200Y-80400D01*
X197800Y-79000D02*
X197800Y-79800D01*
X197800Y-79000D02*
G75*
G03X197200Y-78400I-600J0D01*
G74*
G01*
X197200Y-80400D02*
G75*
G03X197800Y-79800I0J600D01*
G74*
G01*
X215200Y-78400D02*
G75*
G03X214600Y-79000I0J-600D01*
G74*
G01*
X189400Y-85000D02*
X189200Y-85000D01*
X189200Y-111200D02*
X189400Y-111200D01*
X192200Y-85000D02*
X189400Y-85000D01*
X192200Y-111200D02*
X189400Y-111200D01*
X184200Y-115200D02*
G75*
G03X184800Y-115800I600J0D01*
G74*
G01*
X184200Y-115000D02*
X184200Y-115200D01*
X184200Y-114800D02*
X184200Y-115000D01*
X194800Y-70000D02*
G75*
G03X196800Y-72000I2000J0D01*
G74*
G01*
X192200Y-111200D02*
X192200Y-114800D01*
X192200Y-85000D02*
X192200Y-81400D01*
X196200Y-35000D02*
X195400Y-35000D01*
X194800Y-34400D02*
G75*
G03X195400Y-35000I600J0D01*
G74*
G01*
X196800Y-31800D02*
X196800Y-34400D01*
X196200Y-35000D02*
G75*
G03X196800Y-34400I0J600D01*
G74*
G01*
X219200Y-78400D02*
G75*
G03X220200Y-77400I0J1000D01*
G74*
G01*
X194800Y-31800D02*
G75*
G03X193800Y-30800I-1000J0D01*
G74*
G01*
X220200Y-31800D02*
G75*
G03X219200Y-30800I-1000J0D01*
G74*
G01*
X197800Y-30800D02*
G75*
G03X196800Y-31800I0J-1000D01*
G74*
G01*
X196800Y-69000D02*
G75*
G03X197800Y-70000I1000J0D01*
G74*
G01*
X219200Y-70000D02*
G75*
G03X220200Y-69000I0J1000D01*
G74*
G01*
X219200Y-115800D02*
X193200Y-115800D01*
X220200Y-81400D02*
X220200Y-114800D01*
X220200Y-81400D02*
G75*
G03X219200Y-80400I-1000J0D01*
G74*
G01*
X193200Y-80400D02*
G75*
G03X192200Y-81400I0J-1000D01*
G74*
G01*
X192200Y-114800D02*
G75*
G03X193200Y-115800I1000J0D01*
G74*
G01*
X219200Y-115800D02*
G75*
G03X220200Y-114800I0J1000D01*
G74*
G01*
X23400Y-32800D02*
X23400Y-113800D01*
X25400Y-30800D02*
G75*
G03X23400Y-32800I0J-2000D01*
G74*
G01*
X181400Y-30800D02*
X25400Y-30800D01*
X183400Y-32800D02*
G75*
G03X181400Y-30800I-2000J0D01*
G74*
G01*
X181400Y-115800D02*
G75*
G03X183400Y-113800I0J2000D01*
G74*
G01*
X25400Y-115800D02*
X181400Y-115800D01*
X23400Y-113800D02*
G75*
G03X25400Y-115800I2000J0D01*
G74*
G01*
M02*
