G04 (created by PCBNEW (2013-07-07 BZR 4022)-stable) date 10/18/2013 12:37:20 PM*
%MOIN*%
G04 Gerber Fmt 3.4, Leading zero omitted, Abs format*
%FSLAX34Y34*%
G01*
G70*
G90*
G04 APERTURE LIST*
%ADD10C,0.00590551*%
%ADD11C,0.015*%
G04 APERTURE END LIST*
G54D10*
G54D11*
X184200Y-36000D02*
X184200Y-32700D01*
X183400Y-36000D02*
X184200Y-36000D01*
X183400Y-32800D02*
X183400Y-36000D01*
X184200Y-36900D02*
X183400Y-36900D01*
X184200Y-66200D02*
X184200Y-36900D01*
X183400Y-66200D02*
X184200Y-66200D01*
X183400Y-66200D02*
X183400Y-36900D01*
X183400Y-67100D02*
X183400Y-69100D01*
X184200Y-67100D02*
X183400Y-67100D01*
X184200Y-69000D02*
X184200Y-67100D01*
X183400Y-108800D02*
X183400Y-69100D01*
X28400Y-110800D02*
X181400Y-110800D01*
X26400Y-32800D02*
X26400Y-108800D01*
X181400Y-30800D02*
X28400Y-30800D01*
X26400Y-108800D02*
G75*
G03X28400Y-110800I2000J0D01*
G74*
G01*
X28400Y-30800D02*
G75*
G03X26400Y-32800I0J-2000D01*
G74*
G01*
X183400Y-32800D02*
G75*
G03X181400Y-30800I-2000J0D01*
G74*
G01*
X181400Y-110800D02*
G75*
G03X183400Y-108800I0J2000D01*
G74*
G01*
X184200Y-31800D02*
X184200Y-32700D01*
X185200Y-30800D02*
G75*
G03X184200Y-31800I0J-1000D01*
G74*
G01*
X206600Y-30800D02*
X185200Y-30800D01*
X207600Y-31800D02*
G75*
G03X206600Y-30800I-1000J0D01*
G74*
G01*
X184200Y-69000D02*
G75*
G03X185200Y-70000I1000J0D01*
G74*
G01*
X206600Y-70000D02*
X185200Y-70000D01*
X206600Y-70000D02*
G75*
G03X207600Y-69000I0J1000D01*
G74*
G01*
X207600Y-31800D02*
X207600Y-69000D01*
M02*
