M48
;DRILL file {Pcbnew (2013-07-07 BZR 4022)-stable} date 9/8/2013 11:51:52 PM
;FORMAT={-:-/ absolute / metric / decimal}
FMAT,2
METRIC,TZ
T1C0.300
T2C0.584
T3C0.813
T4C1.001
T5C1.016
T6C1.143
T7C1.600
T8C2.032
T9C2.301
T10C2.799
T11C3.048
T12C3.050
T13C3.251
%
G90
G05
M71
T1
X502.488Y194.056
X527.164Y187.02
X528.587Y193.599
X529.501Y187.046
X529.768Y190.144
X529.869Y192.075
X529.869Y193.624
X530.53Y191.313
X530.796Y193.434
X532.702Y187.058
X533.243Y193.401
X533.756Y189.459
X534.111Y186.919
X534.594Y187.528
X535.483Y187.02
X536.026Y192.288
X536.448Y187.96
X536.486Y186.969
X537.2Y192.293
X537.223Y196.837
X538.353Y189.108
X538.785Y187.249
X539.661Y187.007
X540.029Y192.888
X540.207Y190.449
X541.746Y193.477
X544.449Y186.969
X544.766Y187.757
X544.881Y196.99
X545.325Y191.757
X545.96Y191.071
X546.227Y192.443
X549.097Y195.237
X549.643Y191.148
X550.126Y187.096
X552.59Y190.208
X552.628Y195.555
X554.981Y193.747
T2
X121.9Y94.541
X129.728Y98.069
X376.682Y273.329
X379.628Y274.295
X381.561Y278.277
X382.46Y270.954
X384.63Y285.026
X385.699Y271.094
X385.717Y223.985
X386.085Y247.934
X386.103Y206.281
X386.304Y233.337
X386.334Y274.892
X386.801Y203.639
X386.969Y228.75
X386.974Y224.125
X388.239Y272.606
X389.598Y224.574
X391.686Y218.77
X392.958Y203.515
X393.573Y262.065
X393.763Y266.319
X394.144Y260.604
X394.97Y277.685
X395.11Y96.398
X396.253Y263.238
X396.956Y274.983
X398.844Y276.987
X400.71Y216.494
X400.947Y203.726
X401.447Y269.43
X401.574Y275.463
X401.759Y231.884
X402.336Y270.573
X403.461Y246.832
X404.5Y282.044
X406.273Y279.324
X406.527Y272.542
X407.731Y191.026
X409.837Y170.632
X410.21Y280.035
X410.464Y272.669
X413.941Y285.417
X414.655Y271.653
X415.9Y285.674
X415.935Y275.402
X417.756Y275.938
X417.83Y269.748
X418.567Y268.58
X418.821Y173.457
X419.227Y126.492
X419.303Y170.688
X420.268Y269.926
X420.548Y198.018
X421.386Y138.811
X421.767Y271.526
X422.554Y257.429
X422.783Y272.288
X422.91Y165.862
X423.291Y97.98
X423.418Y265.049
X423.593Y285.417
X424.866Y257.429
X425.221Y263.246
X426.085Y262.382
X426.466Y271.145
X426.72Y275.717
X426.974Y261.493
X427.863Y260.604
X428.371Y235.179
X428.396Y218.364
X428.752Y259.715
X429.209Y188.366
X429.641Y258.826
X429.717Y251.435
X429.768Y274.32
X429.976Y270.226
X430.53Y257.937
X431.038Y216.865
X431.541Y272.463
X431.622Y249.352
X432.308Y255.626
X432.74Y242.545
X433.07Y185.42
X433.07Y263.855
X433.476Y238.785
X433.654Y256.489
X433.669Y269.999
X433.705Y264.897
X433.741Y271.369
X435.204Y248.818
X435.483Y203.327
X435.915Y224.587
X436.118Y267.97
X436.372Y204.597
X437.159Y245.567
X437.363Y219.685
X438.709Y261.264
X438.81Y256.896
X441.35Y245.059
X442.163Y252.908
X442.392Y237.541
X442.392Y239.674
X442.824Y244.17
X442.849Y211.201
X442.874Y235.687
X443.179Y257.454
X443.789Y255.016
X444.246Y256.261
X444.69Y231.102
X445.541Y250.622
X445.592Y246.253
X445.592Y248.31
X445.78Y278.364
X446.603Y271.653
X448.183Y211.201
X448.539Y261.112
X448.544Y274.846
X448.564Y249.428
X448.564Y254.
X448.564Y259.08
X448.564Y264.668
X448.564Y269.748
X448.635Y256.428
X448.755Y266.845
X448.818Y272.796
X449.029Y277.292
X449.123Y246.075
X449.13Y251.129
X451.358Y241.808
X455.374Y282.151
X455.39Y277.532
X457.708Y246.634
X457.886Y267.449
X457.962Y257.429
X458.924Y253.036
X458.953Y273.152
X459.03Y250.792
X459.13Y263.347
X459.251Y256.03
X459.286Y280.732
X459.298Y275.664
X459.305Y260.431
X459.356Y245.242
X459.365Y269.884
X459.367Y265.573
X470.052Y96.05
X470.281Y104.521
X471.767Y97.472
X472.008Y98.755
X474.624Y96.761
X475.361Y99.873
X476.936Y99.974
X478.257Y100.012
X479.044Y106.401
X480.504Y93.777
X482.498Y95.047
X489.025Y232.075
X489.204Y226.568
X489.204Y228.6
X489.275Y252.225
X489.375Y254.25
X489.4Y264.925
X490.1Y250.925
X490.3Y237.675
X490.575Y241.85
X490.8Y235.35
X490.85Y249.225
X490.925Y246.6
X490.95Y261.5
X491.475Y215.6
X491.6Y240.875
X491.925Y257.4
X492.15Y262.55
X492.3Y254.6
X492.425Y227.125
X492.45Y231.1
X493.475Y243.45
X493.65Y266.075
X493.875Y232.3
X493.95Y246.225
X495.575Y262.275
X497.75Y259.1
X498.925Y246.1
X499.Y273.05
X499.25Y241.425
X499.775Y240.05
X500.425Y218.125
X501.35Y243.2
X501.775Y250.375
X504.225Y262.7
X504.775Y239.8
X505.55Y262.55
X505.85Y236.625
X506.Y218.825
X506.225Y258.025
X507.025Y212.425
X507.325Y217.075
X508.2Y250.15
X508.25Y248.575
X508.325Y224.875
X508.571Y114.808
X508.575Y266.35
X508.65Y214.975
X508.75Y239.475
X508.975Y251.325
X509.225Y254.425
X509.425Y243.1
X509.524Y154.178
X509.75Y237.95
X509.925Y245.45
X510.075Y229.725
X510.159Y137.287
X512.65Y288.85
X513.243Y273.167
X514.731Y108.585
X514.731Y112.649
X515.05Y244.8
X515.15Y212.275
X515.2Y249.9
X516.05Y261.725
X516.45Y257.875
X516.75Y224.85
X516.8Y227.425
X516.824Y270.027
X517.825Y230.975
X522.525Y258.25
X522.825Y263.525
X523.049Y113.347
X523.4Y262.35
X523.775Y274.75
X523.9Y234.25
X524.Y256.8
X524.Y260.425
X524.075Y249.95
X524.425Y225.45
X524.625Y232.
X524.875Y262.425
X525.825Y265.3
X526.05Y219.625
X526.075Y268.075
X526.925Y224.175
X527.275Y246.775
X527.3Y231.15
X527.6Y234.9
X527.875Y111.633
X528.375Y257.875
X529.3Y268.2
X529.35Y233.25
X529.7Y248.525
X530.975Y276.
X531.Y279.85
X531.125Y213.325
X531.375Y259.675
X532.257Y112.459
X532.6Y233.8
X540.2Y217.
X540.925Y266.125
X542.225Y265.075
X542.65Y250.525
X542.7Y248.375
X543.15Y267.9
X543.56Y200.66
X545.25Y285.5
X546.075Y208.991
X553.212Y271.272
X553.212Y275.844
X553.212Y280.416
X553.212Y284.988
X554.3Y263.95
X554.4Y269.725
T3
X414.02Y105.105
X414.02Y107.645
X414.02Y110.185
X414.02Y112.725
X414.02Y115.265
X414.02Y117.805
X414.02Y120.345
X414.02Y122.885
X414.02Y125.425
X414.02Y127.965
X414.02Y133.045
X414.02Y135.585
X414.02Y138.125
X414.02Y140.665
X414.02Y143.205
X414.02Y145.745
X414.02Y148.285
X414.02Y150.825
X414.02Y153.365
X414.02Y155.905
X414.02Y160.985
X414.02Y163.525
X414.02Y166.065
X414.02Y168.605
X414.02Y171.145
X414.02Y173.685
X414.02Y176.225
X414.02Y178.765
X414.02Y181.305
X414.02Y183.845
X414.02Y188.925
X414.02Y191.465
X414.02Y194.005
X414.02Y196.545
X414.02Y199.085
X414.02Y201.625
X414.02Y204.165
X414.02Y206.705
X414.02Y209.245
X414.02Y211.785
X414.02Y216.865
X414.02Y219.405
X414.02Y221.945
X414.02Y224.485
X414.02Y227.025
X414.02Y229.565
X414.02Y232.105
X414.02Y234.645
X414.02Y237.185
X414.02Y239.725
X414.02Y243.84
X414.02Y246.329
X414.02Y248.869
X414.02Y251.409
X416.56Y105.105
X416.56Y107.645
X416.56Y110.185
X416.56Y112.725
X416.56Y115.265
X416.56Y117.805
X416.56Y120.345
X416.56Y122.885
X416.56Y125.425
X416.56Y127.965
X416.56Y133.045
X416.56Y135.585
X416.56Y138.125
X416.56Y140.665
X416.56Y143.205
X416.56Y145.745
X416.56Y148.285
X416.56Y150.825
X416.56Y153.365
X416.56Y155.905
X416.56Y160.985
X416.56Y163.525
X416.56Y166.065
X416.56Y168.605
X416.56Y171.145
X416.56Y173.685
X416.56Y176.225
X416.56Y178.765
X416.56Y181.305
X416.56Y183.845
X416.56Y188.925
X416.56Y191.465
X416.56Y194.005
X416.56Y196.545
X416.56Y199.085
X416.56Y201.625
X416.56Y204.165
X416.56Y206.705
X416.56Y209.245
X416.56Y211.785
X416.56Y216.865
X416.56Y219.405
X416.56Y221.945
X416.56Y224.485
X416.56Y227.025
X416.56Y229.565
X416.56Y232.105
X416.56Y234.645
X416.56Y237.185
X416.56Y239.725
X419.862Y152.4
X419.862Y157.226
X420.116Y109.982
X420.37Y163.525
X421.132Y102.362
X421.132Y130.556
X421.64Y243.84
X421.64Y246.329
X421.64Y248.869
X421.64Y251.409
X422.402Y152.4
X422.402Y157.226
X422.656Y109.982
X422.91Y163.525
X423.164Y190.957
X423.164Y203.073
X423.164Y218.897
X423.672Y102.362
X423.672Y130.556
X423.672Y290.576
X423.799Y116.586
X423.799Y124.206
X424.891Y178.714
X424.942Y168.275
X424.942Y175.895
X425.577Y139.192
X425.577Y141.732
X425.577Y144.272
X425.577Y146.812
X425.577Y149.352
X425.577Y151.892
X425.577Y154.432
X425.704Y190.957
X425.704Y203.073
X425.704Y218.897
X426.187Y231.115
X426.212Y290.576
X427.291Y89.218
X427.431Y183.794
X427.99Y100.584
X427.99Y108.204
X428.117Y128.143
X428.117Y133.223
X428.752Y173.66
X428.752Y290.576
X428.854Y223.393
X429.387Y113.919
X429.387Y118.999
X429.514Y206.832
X429.514Y209.372
X429.514Y211.912
X429.514Y214.452
X429.832Y89.218
X429.971Y178.714
X430.784Y196.672
X430.987Y161.849
X431.038Y100.584
X431.038Y108.204
X431.292Y173.66
X431.292Y290.576
X431.394Y223.393
X431.419Y126.746
X431.419Y134.366
X431.8Y123.825
X432.486Y187.604
X433.197Y139.192
X433.197Y141.732
X433.197Y144.272
X433.197Y146.812
X433.197Y149.352
X433.197Y151.892
X433.197Y154.432
X433.324Y196.672
X433.807Y231.115
X433.832Y290.576
X433.908Y165.989
X433.908Y168.529
X433.934Y223.393
X434.34Y123.825
X434.467Y126.746
X434.467Y134.366
X435.026Y187.604
X435.737Y101.854
X435.737Y104.394
X435.737Y106.934
X435.864Y196.672
X436.372Y290.576
X437.007Y113.919
X437.007Y118.999
X437.134Y206.832
X437.134Y209.372
X437.134Y211.912
X437.134Y214.452
X437.236Y178.156
X438.607Y161.849
X438.658Y126.746
X438.658Y134.366
X438.912Y290.576
X441.325Y194.056
X441.325Y201.676
X441.452Y290.576
X443.992Y290.576
X444.856Y178.156
X446.278Y234.696
X446.532Y290.576
X448.818Y234.696
X449.072Y290.576
X451.612Y290.576
X452.805Y198.082
X452.805Y205.702
X455.371Y198.082
X455.371Y205.702
X457.911Y198.082
X457.911Y205.702
X485.521Y101.473
X485.521Y104.013
X485.521Y106.553
X491.363Y83.693
X491.363Y86.233
X491.363Y88.773
X491.363Y91.313
X491.363Y93.853
X491.363Y96.393
X491.363Y98.933
X491.363Y101.473
X491.363Y104.013
X491.363Y106.553
X496.418Y212.166
X496.418Y214.706
X496.418Y217.246
X496.418Y219.786
X496.418Y222.326
X496.418Y224.866
X496.418Y227.406
X496.418Y229.946
X496.418Y232.486
X496.418Y235.026
X496.418Y245.186
X496.418Y247.726
X496.418Y250.266
X496.418Y252.806
X496.418Y255.346
X496.418Y257.886
X496.418Y260.426
X496.418Y271.602
X496.418Y274.142
X496.418Y276.682
X496.418Y279.222
X496.418Y281.762
X496.418Y284.302
X496.418Y286.842
X497.84Y206.756
X497.84Y240.284
X497.84Y266.192
X502.92Y206.756
X502.92Y240.284
X502.92Y266.192
X504.038Y212.166
X504.038Y214.706
X504.038Y217.246
X504.038Y219.786
X504.038Y222.326
X504.038Y224.866
X504.038Y227.406
X504.038Y229.946
X504.038Y232.486
X504.038Y235.026
X504.038Y245.186
X504.038Y247.726
X504.038Y250.266
X504.038Y252.806
X504.038Y255.346
X504.038Y257.886
X504.038Y260.426
X504.038Y271.602
X504.038Y274.142
X504.038Y276.682
X504.038Y279.222
X504.038Y281.762
X504.038Y284.302
X504.038Y286.842
X508.127Y91.694
X508.127Y94.234
X508.127Y104.902
X508.127Y107.442
X512.42Y212.166
X512.42Y214.706
X512.42Y217.246
X512.42Y219.786
X512.42Y222.326
X512.42Y224.866
X512.42Y227.406
X512.42Y229.946
X512.42Y232.486
X512.42Y235.026
X512.42Y245.186
X512.42Y247.726
X512.42Y250.266
X512.42Y252.806
X512.42Y255.346
X512.42Y257.886
X512.42Y260.426
X512.42Y262.966
X512.42Y265.506
X512.42Y268.046
X512.699Y111.506
X513.588Y206.756
X513.588Y240.284
X515.391Y94.132
X515.391Y101.752
X515.747Y81.28
X515.747Y83.82
X515.747Y86.36
X518.236Y182.601
X518.236Y197.841
X518.49Y94.132
X518.49Y101.752
X518.668Y206.756
X518.668Y240.284
X520.04Y212.166
X520.04Y214.706
X520.04Y217.246
X520.04Y219.786
X520.04Y222.326
X520.04Y224.866
X520.04Y227.406
X520.04Y229.946
X520.04Y232.486
X520.04Y235.026
X520.04Y245.186
X520.04Y247.726
X520.04Y250.266
X520.04Y252.806
X520.04Y255.346
X520.04Y257.886
X520.04Y260.426
X520.04Y262.966
X520.04Y265.506
X520.04Y268.046
X520.319Y111.506
X520.776Y182.601
X520.776Y197.841
X522.732Y82.55
X522.732Y85.09
X523.164Y94.386
X523.164Y96.926
X523.164Y99.466
X523.164Y102.006
X523.164Y104.546
X523.164Y107.086
X523.164Y109.626
X523.316Y182.601
X523.316Y197.841
X524.764Y89.281
X524.891Y114.681
X525.856Y182.601
X525.856Y197.841
X527.406Y271.602
X527.406Y274.142
X527.406Y276.682
X527.406Y279.222
X527.406Y281.762
X527.406Y284.302
X527.406Y286.842
X527.406Y289.382
X528.396Y182.601
X528.396Y197.841
X528.828Y119.253
X528.828Y126.873
X528.828Y266.192
X528.955Y206.985
X528.955Y212.065
X529.59Y82.423
X529.59Y84.963
X529.971Y114.681
X530.784Y94.386
X530.784Y96.926
X530.784Y99.466
X530.784Y102.006
X530.784Y104.546
X530.784Y107.086
X530.784Y109.626
X530.936Y182.601
X530.936Y197.841
X531.876Y119.253
X531.876Y126.873
X532.384Y89.281
X533.476Y182.601
X533.476Y197.841
X533.908Y266.192
X534.924Y119.253
X534.924Y126.873
X535.026Y271.602
X535.026Y274.142
X535.026Y276.682
X535.026Y279.222
X535.026Y281.762
X535.026Y284.302
X535.026Y286.842
X535.026Y289.382
X536.016Y182.601
X536.016Y197.841
X536.931Y94.437
X536.931Y96.977
X536.931Y99.517
X536.931Y102.057
X536.931Y104.597
X536.931Y107.137
X536.931Y109.677
X537.972Y119.253
X537.972Y126.873
X538.099Y114.427
X538.556Y182.601
X538.556Y197.841
X541.096Y182.601
X541.096Y197.841
X543.179Y114.427
X543.636Y182.601
X543.636Y197.841
X544.551Y94.437
X544.551Y96.977
X544.551Y99.517
X544.551Y102.057
X544.551Y104.597
X544.551Y107.137
X544.551Y109.677
X546.176Y182.601
X546.176Y197.841
X548.716Y182.601
X548.716Y197.841
X550.164Y92.71
X550.164Y100.33
X551.256Y182.601
X551.256Y197.841
X553.796Y182.601
X553.796Y197.841
X555.244Y92.71
X555.244Y100.33
X556.336Y182.601
X556.336Y197.841
T4
X474.853Y91.694
X477.393Y91.694
X479.425Y91.694
X481.965Y91.694
T5
X79.37Y99.194
X79.37Y102.369
X79.37Y105.544
X79.37Y108.719
X79.37Y111.894
X79.37Y115.069
X79.37Y118.244
X79.37Y121.419
X79.37Y124.594
X79.37Y127.769
X79.37Y130.944
X79.37Y134.119
X79.37Y137.294
X79.37Y140.469
X79.37Y143.644
X79.37Y146.819
X79.37Y149.994
X79.37Y153.169
X79.37Y156.344
X79.37Y159.519
X79.37Y162.694
X79.37Y165.869
X79.37Y169.044
X79.37Y172.219
X79.37Y175.394
X79.37Y178.569
X79.37Y181.744
X79.37Y184.919
X79.37Y188.094
X79.37Y191.269
X79.37Y194.444
X79.37Y197.619
X79.37Y200.794
X79.37Y203.969
X79.37Y207.144
X79.37Y210.319
X79.37Y213.494
X79.37Y216.669
X79.37Y219.844
X79.37Y223.019
X79.37Y226.194
X79.37Y229.369
X79.37Y232.544
X79.37Y235.719
X79.37Y238.894
X79.37Y242.069
X79.37Y245.244
X79.37Y248.419
X79.37Y251.594
X79.37Y254.769
X85.72Y99.194
X85.72Y102.369
X85.72Y105.544
X85.72Y108.719
X85.72Y111.894
X85.72Y115.069
X85.72Y118.244
X85.72Y121.419
X85.72Y124.594
X85.72Y127.769
X85.72Y130.944
X85.72Y134.119
X85.72Y137.294
X85.72Y140.469
X85.72Y143.644
X85.72Y146.819
X85.72Y149.994
X85.72Y153.169
X85.72Y156.344
X85.72Y159.519
X85.72Y162.694
X85.72Y165.869
X85.72Y169.044
X85.72Y172.219
X85.72Y175.394
X85.72Y178.569
X85.72Y181.744
X85.72Y184.919
X85.72Y188.094
X85.72Y191.269
X85.72Y194.444
X85.72Y197.619
X85.72Y200.794
X85.72Y203.969
X85.72Y207.144
X85.72Y210.319
X85.72Y213.494
X85.72Y216.669
X85.72Y219.844
X85.72Y223.019
X85.72Y226.194
X85.72Y229.369
X85.72Y232.544
X85.72Y235.719
X85.72Y238.894
X85.72Y242.069
X85.72Y245.244
X85.72Y248.419
X85.72Y251.594
X85.72Y254.769
X117.47Y99.194
X117.47Y102.369
X117.47Y105.544
X117.47Y108.719
X117.47Y111.894
X117.47Y115.069
X117.47Y118.244
X117.47Y121.419
X117.47Y124.594
X117.47Y127.769
X117.47Y130.944
X117.47Y134.119
X117.47Y137.294
X117.47Y140.469
X117.47Y143.644
X117.47Y146.819
X117.47Y149.994
X117.47Y153.169
X117.47Y156.344
X117.47Y159.519
X117.47Y162.694
X117.47Y165.869
X117.47Y169.044
X117.47Y172.219
X117.47Y175.394
X117.47Y178.569
X117.47Y181.744
X117.47Y184.919
X117.47Y188.094
X117.47Y191.269
X117.47Y194.444
X117.47Y197.619
X117.47Y200.794
X117.47Y203.969
X117.47Y207.144
X117.47Y210.319
X117.47Y213.494
X117.47Y216.669
X117.47Y219.844
X117.47Y223.019
X117.47Y226.194
X117.47Y229.369
X117.47Y232.544
X117.47Y235.719
X117.47Y238.894
X117.47Y242.069
X117.47Y245.244
X117.47Y248.419
X117.47Y251.594
X117.47Y254.769
X123.82Y99.194
X123.82Y102.369
X123.82Y105.544
X123.82Y108.719
X123.82Y111.894
X123.82Y115.069
X123.82Y118.244
X123.82Y121.419
X123.82Y124.594
X123.82Y127.769
X123.82Y130.944
X123.82Y134.119
X123.82Y137.294
X123.82Y140.469
X123.82Y143.644
X123.82Y146.819
X123.82Y149.994
X123.82Y153.169
X123.82Y156.344
X123.82Y159.519
X123.82Y162.694
X123.82Y165.869
X123.82Y169.044
X123.82Y172.219
X123.82Y175.394
X123.82Y178.569
X123.82Y181.744
X123.82Y184.919
X123.82Y188.094
X123.82Y191.269
X123.82Y194.444
X123.82Y197.619
X123.82Y200.794
X123.82Y203.969
X123.82Y207.144
X123.82Y210.319
X123.82Y213.494
X123.82Y216.669
X123.82Y219.844
X123.82Y223.019
X123.82Y226.194
X123.82Y229.369
X123.82Y232.544
X123.82Y235.719
X123.82Y238.894
X123.82Y242.069
X123.82Y245.244
X123.82Y248.419
X123.82Y251.594
X123.82Y254.769
X136.52Y99.194
X136.52Y102.369
X136.52Y105.544
X136.52Y108.719
X136.52Y111.894
X136.52Y115.069
X136.52Y118.244
X136.52Y121.419
X136.52Y124.594
X136.52Y127.769
X136.52Y130.944
X136.52Y134.119
X136.52Y137.294
X136.52Y140.469
X136.52Y143.644
X136.52Y146.819
X136.52Y149.994
X136.52Y153.169
X136.52Y156.344
X136.52Y159.519
X136.52Y162.694
X136.52Y165.869
X136.52Y169.044
X136.52Y172.219
X136.52Y175.394
X136.52Y178.569
X136.52Y181.744
X136.52Y184.919
X136.52Y188.094
X136.52Y191.269
X136.52Y194.444
X136.52Y197.619
X136.52Y200.794
X136.52Y203.969
X136.52Y207.144
X136.52Y210.319
X136.52Y213.494
X136.52Y216.669
X136.52Y219.844
X136.52Y223.019
X136.52Y226.194
X136.52Y229.369
X136.52Y232.544
X136.52Y235.719
X136.52Y238.894
X136.52Y242.069
X136.52Y245.244
X136.52Y248.419
X136.52Y251.594
X136.52Y254.769
X142.87Y99.194
X142.87Y102.369
X142.87Y105.544
X142.87Y108.719
X142.87Y111.894
X142.87Y115.069
X142.87Y118.244
X142.87Y121.419
X142.87Y124.594
X142.87Y127.769
X142.87Y130.944
X142.87Y134.119
X142.87Y137.294
X142.87Y140.469
X142.87Y143.644
X142.87Y146.819
X142.87Y149.994
X142.87Y153.169
X142.87Y156.344
X142.87Y159.519
X142.87Y162.694
X142.87Y165.869
X142.87Y169.044
X142.87Y172.219
X142.87Y175.394
X142.87Y178.569
X142.87Y181.744
X142.87Y184.919
X142.87Y188.094
X142.87Y191.269
X142.87Y194.444
X142.87Y197.619
X142.87Y200.794
X142.87Y203.969
X142.87Y207.144
X142.87Y210.319
X142.87Y213.494
X142.87Y216.669
X142.87Y219.844
X142.87Y223.019
X142.87Y226.194
X142.87Y229.369
X142.87Y232.544
X142.87Y235.719
X142.87Y238.894
X142.87Y242.069
X142.87Y245.244
X142.87Y248.419
X142.87Y251.594
X142.87Y254.769
X155.57Y99.194
X155.57Y102.369
X155.57Y105.544
X155.57Y108.719
X155.57Y111.894
X155.57Y115.069
X155.57Y118.244
X155.57Y121.419
X155.57Y124.594
X155.57Y127.769
X155.57Y130.944
X155.57Y134.119
X155.57Y137.294
X155.57Y140.469
X155.57Y143.644
X155.57Y146.819
X155.57Y149.994
X155.57Y153.169
X155.57Y156.344
X155.57Y159.519
X155.57Y162.694
X155.57Y165.869
X155.57Y169.044
X155.57Y172.219
X155.57Y175.394
X155.57Y178.569
X155.57Y181.744
X155.57Y184.919
X155.57Y188.094
X155.57Y191.269
X155.57Y194.444
X155.57Y197.619
X155.57Y200.794
X155.57Y203.969
X155.57Y207.144
X155.57Y210.319
X155.57Y213.494
X155.57Y216.669
X155.57Y219.844
X155.57Y223.019
X155.57Y226.194
X155.57Y229.369
X155.57Y232.544
X155.57Y235.719
X155.57Y238.894
X155.57Y242.069
X155.57Y245.244
X155.57Y248.419
X155.57Y251.594
X155.57Y254.769
X161.92Y99.194
X161.92Y102.369
X161.92Y105.544
X161.92Y108.719
X161.92Y111.894
X161.92Y115.069
X161.92Y118.244
X161.92Y121.419
X161.92Y124.594
X161.92Y127.769
X161.92Y130.944
X161.92Y134.119
X161.92Y137.294
X161.92Y140.469
X161.92Y143.644
X161.92Y146.819
X161.92Y149.994
X161.92Y153.169
X161.92Y156.344
X161.92Y159.519
X161.92Y162.694
X161.92Y165.869
X161.92Y169.044
X161.92Y172.219
X161.92Y175.394
X161.92Y178.569
X161.92Y181.744
X161.92Y184.919
X161.92Y188.094
X161.92Y191.269
X161.92Y194.444
X161.92Y197.619
X161.92Y200.794
X161.92Y203.969
X161.92Y207.144
X161.92Y210.319
X161.92Y213.494
X161.92Y216.669
X161.92Y219.844
X161.92Y223.019
X161.92Y226.194
X161.92Y229.369
X161.92Y232.544
X161.92Y235.719
X161.92Y238.894
X161.92Y242.069
X161.92Y245.244
X161.92Y248.419
X161.92Y251.594
X161.92Y254.769
X174.62Y99.194
X174.62Y102.369
X174.62Y105.544
X174.62Y108.719
X174.62Y111.894
X174.62Y115.069
X174.62Y118.244
X174.62Y121.419
X174.62Y124.594
X174.62Y127.769
X174.62Y130.944
X174.62Y134.119
X174.62Y137.294
X174.62Y140.469
X174.62Y143.644
X174.62Y146.819
X174.62Y149.994
X174.62Y153.169
X174.62Y156.344
X174.62Y159.519
X174.62Y162.694
X174.62Y165.869
X174.62Y169.044
X174.62Y172.219
X174.62Y175.394
X174.62Y178.569
X174.62Y181.744
X174.62Y184.919
X174.62Y188.094
X174.62Y191.269
X174.62Y194.444
X174.62Y197.619
X174.62Y200.794
X174.62Y203.969
X174.62Y207.144
X174.62Y210.319
X174.62Y213.494
X174.62Y216.669
X174.62Y219.844
X174.62Y223.019
X174.62Y226.194
X174.62Y229.369
X174.62Y232.544
X174.62Y235.719
X174.62Y238.894
X174.62Y242.069
X174.62Y245.244
X174.62Y248.419
X174.62Y251.594
X174.62Y254.769
X180.97Y99.194
X180.97Y102.369
X180.97Y105.544
X180.97Y108.719
X180.97Y111.894
X180.97Y115.069
X180.97Y118.244
X180.97Y121.419
X180.97Y124.594
X180.97Y127.769
X180.97Y130.944
X180.97Y134.119
X180.97Y137.294
X180.97Y140.469
X180.97Y143.644
X180.97Y146.819
X180.97Y149.994
X180.97Y153.169
X180.97Y156.344
X180.97Y159.519
X180.97Y162.694
X180.97Y165.869
X180.97Y169.044
X180.97Y172.219
X180.97Y175.394
X180.97Y178.569
X180.97Y181.744
X180.97Y184.919
X180.97Y188.094
X180.97Y191.269
X180.97Y194.444
X180.97Y197.619
X180.97Y200.794
X180.97Y203.969
X180.97Y207.144
X180.97Y210.319
X180.97Y213.494
X180.97Y216.669
X180.97Y219.844
X180.97Y223.019
X180.97Y226.194
X180.97Y229.369
X180.97Y232.544
X180.97Y235.719
X180.97Y238.894
X180.97Y242.069
X180.97Y245.244
X180.97Y248.419
X180.97Y251.594
X180.97Y254.769
X193.67Y99.194
X193.67Y102.369
X193.67Y105.544
X193.67Y108.719
X193.67Y111.894
X193.67Y115.069
X193.67Y118.244
X193.67Y121.419
X193.67Y124.594
X193.67Y127.769
X193.67Y130.944
X193.67Y134.119
X193.67Y137.294
X193.67Y140.469
X193.67Y143.644
X193.67Y146.819
X193.67Y149.994
X193.67Y153.169
X193.67Y156.344
X193.67Y159.519
X193.67Y162.694
X193.67Y165.869
X193.67Y169.044
X193.67Y172.219
X193.67Y175.394
X193.67Y178.569
X193.67Y181.744
X193.67Y184.919
X193.67Y188.094
X193.67Y191.269
X193.67Y194.444
X193.67Y197.619
X193.67Y200.794
X193.67Y203.969
X193.67Y207.144
X193.67Y210.319
X193.67Y213.494
X193.67Y216.669
X193.67Y219.844
X193.67Y223.019
X193.67Y226.194
X193.67Y229.369
X193.67Y232.544
X193.67Y235.719
X193.67Y238.894
X193.67Y242.069
X193.67Y245.244
X193.67Y248.419
X193.67Y251.594
X193.67Y254.769
X200.02Y99.194
X200.02Y102.369
X200.02Y105.544
X200.02Y108.719
X200.02Y111.894
X200.02Y115.069
X200.02Y118.244
X200.02Y121.419
X200.02Y124.594
X200.02Y127.769
X200.02Y130.944
X200.02Y134.119
X200.02Y137.294
X200.02Y140.469
X200.02Y143.644
X200.02Y146.819
X200.02Y149.994
X200.02Y153.169
X200.02Y156.344
X200.02Y159.519
X200.02Y162.694
X200.02Y165.869
X200.02Y169.044
X200.02Y172.219
X200.02Y175.394
X200.02Y178.569
X200.02Y181.744
X200.02Y184.919
X200.02Y188.094
X200.02Y191.269
X200.02Y194.444
X200.02Y197.619
X200.02Y200.794
X200.02Y203.969
X200.02Y207.144
X200.02Y210.319
X200.02Y213.494
X200.02Y216.669
X200.02Y219.844
X200.02Y223.019
X200.02Y226.194
X200.02Y229.369
X200.02Y232.544
X200.02Y235.719
X200.02Y238.894
X200.02Y242.069
X200.02Y245.244
X200.02Y248.419
X200.02Y251.594
X200.02Y254.769
X212.72Y99.194
X212.72Y102.369
X212.72Y105.544
X212.72Y108.719
X212.72Y111.894
X212.72Y115.069
X212.72Y118.244
X212.72Y121.419
X212.72Y124.594
X212.72Y127.769
X212.72Y130.944
X212.72Y134.119
X212.72Y137.294
X212.72Y140.469
X212.72Y143.644
X212.72Y146.819
X212.72Y149.994
X212.72Y153.169
X212.72Y156.344
X212.72Y159.519
X212.72Y162.694
X212.72Y165.869
X212.72Y169.044
X212.72Y172.219
X212.72Y175.394
X212.72Y178.569
X212.72Y181.744
X212.72Y184.919
X212.72Y188.094
X212.72Y191.269
X212.72Y194.444
X212.72Y197.619
X212.72Y200.794
X212.72Y203.969
X212.72Y207.144
X212.72Y210.319
X212.72Y213.494
X212.72Y216.669
X212.72Y219.844
X212.72Y223.019
X212.72Y226.194
X212.72Y229.369
X212.72Y232.544
X212.72Y235.719
X212.72Y238.894
X212.72Y242.069
X212.72Y245.244
X212.72Y248.419
X212.72Y251.594
X212.72Y254.769
X219.07Y99.194
X219.07Y102.369
X219.07Y105.544
X219.07Y108.719
X219.07Y111.894
X219.07Y115.069
X219.07Y118.244
X219.07Y121.419
X219.07Y124.594
X219.07Y127.769
X219.07Y130.944
X219.07Y134.119
X219.07Y137.294
X219.07Y140.469
X219.07Y143.644
X219.07Y146.819
X219.07Y149.994
X219.07Y153.169
X219.07Y156.344
X219.07Y159.519
X219.07Y162.694
X219.07Y165.869
X219.07Y169.044
X219.07Y172.219
X219.07Y175.394
X219.07Y178.569
X219.07Y181.744
X219.07Y184.919
X219.07Y188.094
X219.07Y191.269
X219.07Y194.444
X219.07Y197.619
X219.07Y200.794
X219.07Y203.969
X219.07Y207.144
X219.07Y210.319
X219.07Y213.494
X219.07Y216.669
X219.07Y219.844
X219.07Y223.019
X219.07Y226.194
X219.07Y229.369
X219.07Y232.544
X219.07Y235.719
X219.07Y238.894
X219.07Y242.069
X219.07Y245.244
X219.07Y248.419
X219.07Y251.594
X219.07Y254.769
X231.77Y99.194
X231.77Y102.369
X231.77Y105.544
X231.77Y108.719
X231.77Y111.894
X231.77Y115.069
X231.77Y118.244
X231.77Y121.419
X231.77Y124.594
X231.77Y127.769
X231.77Y130.944
X231.77Y134.119
X231.77Y137.294
X231.77Y140.469
X231.77Y143.644
X231.77Y146.819
X231.77Y149.994
X231.77Y153.169
X231.77Y156.344
X231.77Y159.519
X231.77Y162.694
X231.77Y165.869
X231.77Y169.044
X231.77Y172.219
X231.77Y175.394
X231.77Y178.569
X231.77Y181.744
X231.77Y184.919
X231.77Y188.094
X231.77Y191.269
X231.77Y194.444
X231.77Y197.619
X231.77Y200.794
X231.77Y203.969
X231.77Y207.144
X231.77Y210.319
X231.77Y213.494
X231.77Y216.669
X231.77Y219.844
X231.77Y223.019
X231.77Y226.194
X231.77Y229.369
X231.77Y232.544
X231.77Y235.719
X231.77Y238.894
X231.77Y242.069
X231.77Y245.244
X231.77Y248.419
X231.77Y251.594
X231.77Y254.769
X238.12Y99.194
X238.12Y102.369
X238.12Y105.544
X238.12Y108.719
X238.12Y111.894
X238.12Y115.069
X238.12Y118.244
X238.12Y121.419
X238.12Y124.594
X238.12Y127.769
X238.12Y130.944
X238.12Y134.119
X238.12Y137.294
X238.12Y140.469
X238.12Y143.644
X238.12Y146.819
X238.12Y149.994
X238.12Y153.169
X238.12Y156.344
X238.12Y159.519
X238.12Y162.694
X238.12Y165.869
X238.12Y169.044
X238.12Y172.219
X238.12Y175.394
X238.12Y178.569
X238.12Y181.744
X238.12Y184.919
X238.12Y188.094
X238.12Y191.269
X238.12Y194.444
X238.12Y197.619
X238.12Y200.794
X238.12Y203.969
X238.12Y207.144
X238.12Y210.319
X238.12Y213.494
X238.12Y216.669
X238.12Y219.844
X238.12Y223.019
X238.12Y226.194
X238.12Y229.369
X238.12Y232.544
X238.12Y235.719
X238.12Y238.894
X238.12Y242.069
X238.12Y245.244
X238.12Y248.419
X238.12Y251.594
X238.12Y254.769
X250.82Y99.194
X250.82Y102.369
X250.82Y105.544
X250.82Y108.719
X250.82Y111.894
X250.82Y115.069
X250.82Y118.244
X250.82Y121.419
X250.82Y124.594
X250.82Y127.769
X250.82Y130.944
X250.82Y134.119
X250.82Y137.294
X250.82Y140.469
X250.82Y143.644
X250.82Y146.819
X250.82Y149.994
X250.82Y153.169
X250.82Y156.344
X250.82Y159.519
X250.82Y162.694
X250.82Y165.869
X250.82Y169.044
X250.82Y172.219
X250.82Y175.394
X250.82Y178.569
X250.82Y181.744
X250.82Y184.919
X250.82Y188.094
X250.82Y191.269
X250.82Y194.444
X250.82Y197.619
X250.82Y200.794
X250.82Y203.969
X250.82Y207.144
X250.82Y210.319
X250.82Y213.494
X250.82Y216.669
X250.82Y219.844
X250.82Y223.019
X250.82Y226.194
X250.82Y229.369
X250.82Y232.544
X250.82Y235.719
X250.82Y238.894
X250.82Y242.069
X250.82Y245.244
X250.82Y248.419
X250.82Y251.594
X250.82Y254.769
X257.17Y99.194
X257.17Y102.369
X257.17Y105.544
X257.17Y108.719
X257.17Y111.894
X257.17Y115.069
X257.17Y118.244
X257.17Y121.419
X257.17Y124.594
X257.17Y127.769
X257.17Y130.944
X257.17Y134.119
X257.17Y137.294
X257.17Y140.469
X257.17Y143.644
X257.17Y146.819
X257.17Y149.994
X257.17Y153.169
X257.17Y156.344
X257.17Y159.519
X257.17Y162.694
X257.17Y165.869
X257.17Y169.044
X257.17Y172.219
X257.17Y175.394
X257.17Y178.569
X257.17Y181.744
X257.17Y184.919
X257.17Y188.094
X257.17Y191.269
X257.17Y194.444
X257.17Y197.619
X257.17Y200.794
X257.17Y203.969
X257.17Y207.144
X257.17Y210.319
X257.17Y213.494
X257.17Y216.669
X257.17Y219.844
X257.17Y223.019
X257.17Y226.194
X257.17Y229.369
X257.17Y232.544
X257.17Y235.719
X257.17Y238.894
X257.17Y242.069
X257.17Y245.244
X257.17Y248.419
X257.17Y251.594
X257.17Y254.769
X269.87Y99.194
X269.87Y102.369
X269.87Y105.544
X269.87Y108.719
X269.87Y111.894
X269.87Y115.069
X269.87Y118.244
X269.87Y121.419
X269.87Y124.594
X269.87Y127.769
X269.87Y130.944
X269.87Y134.119
X269.87Y137.294
X269.87Y140.469
X269.87Y143.644
X269.87Y146.819
X269.87Y149.994
X269.87Y153.169
X269.87Y156.344
X269.87Y159.519
X269.87Y162.694
X269.87Y165.869
X269.87Y169.044
X269.87Y172.219
X269.87Y175.394
X269.87Y178.569
X269.87Y181.744
X269.87Y184.919
X269.87Y188.094
X269.87Y191.269
X269.87Y194.444
X269.87Y197.619
X269.87Y200.794
X269.87Y203.969
X269.87Y207.144
X269.87Y210.319
X269.87Y213.494
X269.87Y216.669
X269.87Y219.844
X269.87Y223.019
X269.87Y226.194
X269.87Y229.369
X269.87Y232.544
X269.87Y235.719
X269.87Y238.894
X269.87Y242.069
X269.87Y245.244
X269.87Y248.419
X269.87Y251.594
X269.87Y254.769
X276.22Y99.194
X276.22Y102.369
X276.22Y105.544
X276.22Y108.719
X276.22Y111.894
X276.22Y115.069
X276.22Y118.244
X276.22Y121.419
X276.22Y124.594
X276.22Y127.769
X276.22Y130.944
X276.22Y134.119
X276.22Y137.294
X276.22Y140.469
X276.22Y143.644
X276.22Y146.819
X276.22Y149.994
X276.22Y153.169
X276.22Y156.344
X276.22Y159.519
X276.22Y162.694
X276.22Y165.869
X276.22Y169.044
X276.22Y172.219
X276.22Y175.394
X276.22Y178.569
X276.22Y181.744
X276.22Y184.919
X276.22Y188.094
X276.22Y191.269
X276.22Y194.444
X276.22Y197.619
X276.22Y200.794
X276.22Y203.969
X276.22Y207.144
X276.22Y210.319
X276.22Y213.494
X276.22Y216.669
X276.22Y219.844
X276.22Y223.019
X276.22Y226.194
X276.22Y229.369
X276.22Y232.544
X276.22Y235.719
X276.22Y238.894
X276.22Y242.069
X276.22Y245.244
X276.22Y248.419
X276.22Y251.594
X276.22Y254.769
X288.92Y99.194
X288.92Y102.369
X288.92Y105.544
X288.92Y108.719
X288.92Y111.894
X288.92Y115.069
X288.92Y118.244
X288.92Y121.419
X288.92Y124.594
X288.92Y127.769
X288.92Y130.944
X288.92Y134.119
X288.92Y137.294
X288.92Y140.469
X288.92Y143.644
X288.92Y146.819
X288.92Y149.994
X288.92Y153.169
X288.92Y156.344
X288.92Y159.519
X288.92Y162.694
X288.92Y165.869
X288.92Y169.044
X288.92Y172.219
X288.92Y175.394
X288.92Y178.569
X288.92Y181.744
X288.92Y184.919
X288.92Y188.094
X288.92Y191.269
X288.92Y194.444
X288.92Y197.619
X288.92Y200.794
X288.92Y203.969
X288.92Y207.144
X288.92Y210.319
X288.92Y213.494
X288.92Y216.669
X288.92Y219.844
X288.92Y223.019
X288.92Y226.194
X288.92Y229.369
X288.92Y232.544
X288.92Y235.719
X288.92Y238.894
X288.92Y242.069
X288.92Y245.244
X288.92Y248.419
X288.92Y251.594
X288.92Y254.769
X295.27Y99.194
X295.27Y102.369
X295.27Y105.544
X295.27Y108.719
X295.27Y111.894
X295.27Y115.069
X295.27Y118.244
X295.27Y121.419
X295.27Y124.594
X295.27Y127.769
X295.27Y130.944
X295.27Y134.119
X295.27Y137.294
X295.27Y140.469
X295.27Y143.644
X295.27Y146.819
X295.27Y149.994
X295.27Y153.169
X295.27Y156.344
X295.27Y159.519
X295.27Y162.694
X295.27Y165.869
X295.27Y169.044
X295.27Y172.219
X295.27Y175.394
X295.27Y178.569
X295.27Y181.744
X295.27Y184.919
X295.27Y188.094
X295.27Y191.269
X295.27Y194.444
X295.27Y197.619
X295.27Y200.794
X295.27Y203.969
X295.27Y207.144
X295.27Y210.319
X295.27Y213.494
X295.27Y216.669
X295.27Y219.844
X295.27Y223.019
X295.27Y226.194
X295.27Y229.369
X295.27Y232.544
X295.27Y235.719
X295.27Y238.894
X295.27Y242.069
X295.27Y245.244
X295.27Y248.419
X295.27Y251.594
X295.27Y254.769
X307.97Y99.194
X307.97Y102.369
X307.97Y105.544
X307.97Y108.719
X307.97Y111.894
X307.97Y115.069
X307.97Y118.244
X307.97Y121.419
X307.97Y124.594
X307.97Y127.769
X307.97Y130.944
X307.97Y134.119
X307.97Y137.294
X307.97Y140.469
X307.97Y143.644
X307.97Y146.819
X307.97Y149.994
X307.97Y153.169
X307.97Y156.344
X307.97Y159.519
X307.97Y162.694
X307.97Y165.869
X307.97Y169.044
X307.97Y172.219
X307.97Y175.394
X307.97Y178.569
X307.97Y181.744
X307.97Y184.919
X307.97Y188.094
X307.97Y191.269
X307.97Y194.444
X307.97Y197.619
X307.97Y200.794
X307.97Y203.969
X307.97Y207.144
X307.97Y210.319
X307.97Y213.494
X307.97Y216.669
X307.97Y219.844
X307.97Y223.019
X307.97Y226.194
X307.97Y229.369
X307.97Y232.544
X307.97Y235.719
X307.97Y238.894
X307.97Y242.069
X307.97Y245.244
X307.97Y248.419
X307.97Y251.594
X307.97Y254.769
X314.32Y99.194
X314.32Y102.369
X314.32Y105.544
X314.32Y108.719
X314.32Y111.894
X314.32Y115.069
X314.32Y118.244
X314.32Y121.419
X314.32Y124.594
X314.32Y127.769
X314.32Y130.944
X314.32Y134.119
X314.32Y137.294
X314.32Y140.469
X314.32Y143.644
X314.32Y146.819
X314.32Y149.994
X314.32Y153.169
X314.32Y156.344
X314.32Y159.519
X314.32Y162.694
X314.32Y165.869
X314.32Y169.044
X314.32Y172.219
X314.32Y175.394
X314.32Y178.569
X314.32Y181.744
X314.32Y184.919
X314.32Y188.094
X314.32Y191.269
X314.32Y194.444
X314.32Y197.619
X314.32Y200.794
X314.32Y203.969
X314.32Y207.144
X314.32Y210.319
X314.32Y213.494
X314.32Y216.669
X314.32Y219.844
X314.32Y223.019
X314.32Y226.194
X314.32Y229.369
X314.32Y232.544
X314.32Y235.719
X314.32Y238.894
X314.32Y242.069
X314.32Y245.244
X314.32Y248.419
X314.32Y251.594
X314.32Y254.769
X327.02Y99.194
X327.02Y102.369
X327.02Y105.544
X327.02Y108.719
X327.02Y111.894
X327.02Y115.069
X327.02Y118.244
X327.02Y121.419
X327.02Y124.594
X327.02Y127.769
X327.02Y130.944
X327.02Y134.119
X327.02Y137.294
X327.02Y140.469
X327.02Y143.644
X327.02Y146.819
X327.02Y149.994
X327.02Y153.169
X327.02Y156.344
X327.02Y159.519
X327.02Y162.694
X327.02Y165.869
X327.02Y169.044
X327.02Y172.219
X327.02Y175.394
X327.02Y178.569
X327.02Y181.744
X327.02Y184.919
X327.02Y188.094
X327.02Y191.269
X327.02Y194.444
X327.02Y197.619
X327.02Y200.794
X327.02Y203.969
X327.02Y207.144
X327.02Y210.319
X327.02Y213.494
X327.02Y216.669
X327.02Y219.844
X327.02Y223.019
X327.02Y226.194
X327.02Y229.369
X327.02Y232.544
X327.02Y235.719
X327.02Y238.894
X327.02Y242.069
X327.02Y245.244
X327.02Y248.419
X327.02Y251.594
X327.02Y254.769
X333.37Y99.194
X333.37Y102.369
X333.37Y105.544
X333.37Y108.719
X333.37Y111.894
X333.37Y115.069
X333.37Y118.244
X333.37Y121.419
X333.37Y124.594
X333.37Y127.769
X333.37Y130.944
X333.37Y134.119
X333.37Y137.294
X333.37Y140.469
X333.37Y143.644
X333.37Y146.819
X333.37Y149.994
X333.37Y153.169
X333.37Y156.344
X333.37Y159.519
X333.37Y162.694
X333.37Y165.869
X333.37Y169.044
X333.37Y172.219
X333.37Y175.394
X333.37Y178.569
X333.37Y181.744
X333.37Y184.919
X333.37Y188.094
X333.37Y191.269
X333.37Y194.444
X333.37Y197.619
X333.37Y200.794
X333.37Y203.969
X333.37Y207.144
X333.37Y210.319
X333.37Y213.494
X333.37Y216.669
X333.37Y219.844
X333.37Y223.019
X333.37Y226.194
X333.37Y229.369
X333.37Y232.544
X333.37Y235.719
X333.37Y238.894
X333.37Y242.069
X333.37Y245.244
X333.37Y248.419
X333.37Y251.594
X333.37Y254.769
X346.07Y99.194
X346.07Y102.369
X346.07Y105.544
X346.07Y108.719
X346.07Y111.894
X346.07Y115.069
X346.07Y118.244
X346.07Y121.419
X346.07Y124.594
X346.07Y127.769
X346.07Y130.944
X346.07Y134.119
X346.07Y137.294
X346.07Y140.469
X346.07Y143.644
X346.07Y146.819
X346.07Y149.994
X346.07Y153.169
X346.07Y156.344
X346.07Y159.519
X346.07Y162.694
X346.07Y165.869
X346.07Y169.044
X346.07Y172.219
X346.07Y175.394
X346.07Y178.569
X346.07Y181.744
X346.07Y184.919
X346.07Y188.094
X346.07Y191.269
X346.07Y194.444
X346.07Y197.619
X346.07Y200.794
X346.07Y203.969
X346.07Y207.144
X346.07Y210.319
X346.07Y213.494
X346.07Y216.669
X346.07Y219.844
X346.07Y223.019
X346.07Y226.194
X346.07Y229.369
X346.07Y232.544
X346.07Y235.719
X346.07Y238.894
X346.07Y242.069
X346.07Y245.244
X346.07Y248.419
X346.07Y251.594
X346.07Y254.769
X352.42Y99.194
X352.42Y102.369
X352.42Y105.544
X352.42Y108.719
X352.42Y111.894
X352.42Y115.069
X352.42Y118.244
X352.42Y121.419
X352.42Y124.594
X352.42Y127.769
X352.42Y130.944
X352.42Y134.119
X352.42Y137.294
X352.42Y140.469
X352.42Y143.644
X352.42Y146.819
X352.42Y149.994
X352.42Y153.169
X352.42Y156.344
X352.42Y159.519
X352.42Y162.694
X352.42Y165.869
X352.42Y169.044
X352.42Y172.219
X352.42Y175.394
X352.42Y178.569
X352.42Y181.744
X352.42Y184.919
X352.42Y188.094
X352.42Y191.269
X352.42Y194.444
X352.42Y197.619
X352.42Y200.794
X352.42Y203.969
X352.42Y207.144
X352.42Y210.319
X352.42Y213.494
X352.42Y216.669
X352.42Y219.844
X352.42Y223.019
X352.42Y226.194
X352.42Y229.369
X352.42Y232.544
X352.42Y235.719
X352.42Y238.894
X352.42Y242.069
X352.42Y245.244
X352.42Y248.419
X352.42Y251.594
X352.42Y254.769
X365.12Y99.194
X365.12Y102.369
X365.12Y105.544
X365.12Y108.719
X365.12Y111.894
X365.12Y115.069
X365.12Y118.244
X365.12Y121.419
X365.12Y124.594
X365.12Y127.769
X365.12Y130.944
X365.12Y134.119
X365.12Y137.294
X365.12Y140.469
X365.12Y143.644
X365.12Y146.819
X365.12Y149.994
X365.12Y153.169
X365.12Y156.344
X365.12Y159.519
X365.12Y162.694
X365.12Y165.869
X365.12Y169.044
X365.12Y172.219
X365.12Y175.394
X365.12Y178.569
X365.12Y181.744
X365.12Y184.919
X365.12Y188.094
X365.12Y191.269
X365.12Y194.444
X365.12Y197.619
X365.12Y200.794
X365.12Y203.969
X365.12Y207.144
X365.12Y210.319
X365.12Y213.494
X365.12Y216.669
X365.12Y219.844
X365.12Y223.019
X365.12Y226.194
X365.12Y229.369
X365.12Y232.544
X365.12Y235.719
X365.12Y238.894
X365.12Y242.069
X365.12Y245.244
X365.12Y248.419
X365.12Y251.594
X365.12Y254.769
X371.47Y99.194
X371.47Y102.369
X371.47Y105.544
X371.47Y108.719
X371.47Y111.894
X371.47Y115.069
X371.47Y118.244
X371.47Y121.419
X371.47Y124.594
X371.47Y127.769
X371.47Y130.944
X371.47Y134.119
X371.47Y137.294
X371.47Y140.469
X371.47Y143.644
X371.47Y146.819
X371.47Y149.994
X371.47Y153.169
X371.47Y156.344
X371.47Y159.519
X371.47Y162.694
X371.47Y165.869
X371.47Y169.044
X371.47Y172.219
X371.47Y175.394
X371.47Y178.569
X371.47Y181.744
X371.47Y184.919
X371.47Y188.094
X371.47Y191.269
X371.47Y194.444
X371.47Y197.619
X371.47Y200.794
X371.47Y203.969
X371.47Y207.144
X371.47Y210.319
X371.47Y213.494
X371.47Y216.669
X371.47Y219.844
X371.47Y223.019
X371.47Y226.194
X371.47Y229.369
X371.47Y232.544
X371.47Y235.719
X371.47Y238.894
X371.47Y242.069
X371.47Y245.244
X371.47Y248.419
X371.47Y251.594
X371.47Y254.769
X384.17Y99.194
X384.17Y102.369
X384.17Y105.544
X384.17Y108.719
X384.17Y111.894
X384.17Y115.069
X384.17Y118.244
X384.17Y121.419
X384.17Y124.594
X384.17Y127.769
X384.17Y130.944
X384.17Y134.119
X384.17Y137.294
X384.17Y140.469
X384.17Y143.644
X384.17Y146.819
X384.17Y149.994
X384.17Y153.169
X384.17Y156.344
X384.17Y159.519
X384.17Y162.694
X384.17Y165.869
X384.17Y169.044
X384.17Y172.219
X384.17Y175.394
X384.17Y178.569
X384.17Y181.744
X384.17Y184.919
X384.17Y188.094
X384.17Y191.269
X384.17Y194.444
X384.17Y197.619
X384.17Y200.794
X384.17Y203.969
X384.17Y207.144
X384.17Y210.319
X384.17Y213.494
X384.17Y216.669
X384.17Y219.844
X384.17Y223.019
X384.17Y226.194
X384.17Y229.369
X384.17Y232.544
X384.17Y235.719
X384.17Y238.894
X384.17Y242.069
X384.17Y245.244
X384.17Y248.419
X384.17Y251.594
X384.17Y254.769
X390.52Y99.194
X390.52Y102.369
X390.52Y105.544
X390.52Y108.719
X390.52Y111.894
X390.52Y115.069
X390.52Y118.244
X390.52Y121.419
X390.52Y124.594
X390.52Y127.769
X390.52Y130.944
X390.52Y134.119
X390.52Y137.294
X390.52Y140.469
X390.52Y143.644
X390.52Y146.819
X390.52Y149.994
X390.52Y153.169
X390.52Y156.344
X390.52Y159.519
X390.52Y162.694
X390.52Y165.869
X390.52Y169.044
X390.52Y172.219
X390.52Y175.394
X390.52Y178.569
X390.52Y181.744
X390.52Y184.919
X390.52Y188.094
X390.52Y191.269
X390.52Y194.444
X390.52Y197.619
X390.52Y200.794
X390.52Y203.969
X390.52Y207.144
X390.52Y210.319
X390.52Y213.494
X390.52Y216.669
X390.52Y219.844
X390.52Y223.019
X390.52Y226.194
X390.52Y229.369
X390.52Y232.544
X390.52Y235.719
X390.52Y238.894
X390.52Y242.069
X390.52Y245.244
X390.52Y248.419
X390.52Y251.594
X390.52Y254.769
X403.22Y99.194
X403.22Y102.369
X403.22Y105.544
X403.22Y108.719
X403.22Y111.894
X403.22Y115.069
X403.22Y118.244
X403.22Y121.419
X403.22Y124.594
X403.22Y127.769
X403.22Y130.944
X403.22Y134.119
X403.22Y137.294
X403.22Y140.469
X403.22Y143.644
X403.22Y146.819
X403.22Y149.994
X403.22Y153.169
X403.22Y156.344
X403.22Y159.519
X403.22Y162.694
X403.22Y165.869
X403.22Y169.044
X403.22Y172.219
X403.22Y175.394
X403.22Y178.569
X403.22Y181.744
X403.22Y184.919
X403.22Y188.094
X403.22Y191.269
X403.22Y194.444
X403.22Y197.619
X403.22Y200.794
X403.22Y203.969
X403.22Y207.144
X403.22Y210.319
X403.22Y213.494
X403.22Y216.669
X403.22Y219.844
X403.22Y223.019
X403.22Y226.194
X403.22Y229.369
X403.22Y232.544
X403.22Y235.719
X403.22Y238.894
X403.22Y242.069
X403.22Y245.244
X403.22Y248.419
X403.22Y251.594
X403.22Y254.769
X407.416Y288.29
X407.416Y290.83
X409.57Y99.194
X409.57Y102.369
X409.57Y105.544
X409.57Y108.719
X409.57Y111.894
X409.57Y115.069
X409.57Y118.244
X409.57Y121.419
X409.57Y124.594
X409.57Y127.769
X409.57Y130.944
X409.57Y134.119
X409.57Y137.294
X409.57Y140.469
X409.57Y143.644
X409.57Y146.819
X409.57Y149.994
X409.57Y153.169
X409.57Y156.344
X409.57Y159.519
X409.57Y162.694
X409.57Y165.869
X409.57Y169.044
X409.57Y172.219
X409.57Y175.394
X409.57Y178.569
X409.57Y181.744
X409.57Y184.919
X409.57Y188.094
X409.57Y191.269
X409.57Y194.444
X409.57Y197.619
X409.57Y200.794
X409.57Y203.969
X409.57Y207.144
X409.57Y210.319
X409.57Y213.494
X409.57Y216.669
X409.57Y219.844
X409.57Y223.019
X409.57Y226.194
X409.57Y229.369
X409.57Y232.544
X409.57Y235.719
X409.57Y238.894
X409.57Y242.069
X409.57Y245.244
X409.57Y248.419
X409.57Y251.594
X409.57Y254.769
X409.956Y288.29
X409.956Y290.83
X412.496Y288.29
X412.496Y290.83
X415.036Y288.29
X415.036Y290.83
X417.576Y288.29
X417.576Y290.83
X421.259Y143.002
X421.259Y145.542
X421.259Y148.082
X551.434Y113.03
X553.974Y113.03
T6
X441.427Y215.392
X441.427Y217.932
X441.427Y220.472
X441.452Y184.404
X441.452Y186.944
X441.452Y189.484
X441.477Y140.183
X441.477Y142.723
X441.477Y145.263
X441.528Y163.881
X441.528Y166.421
X441.528Y168.961
T7
X514.393Y119.774
X514.393Y123.972
X514.393Y128.166
X514.393Y132.367
X514.393Y136.566
X514.393Y140.767
X514.393Y144.965
X514.393Y149.167
X514.393Y153.365
X514.393Y157.566
X514.393Y161.765
X514.393Y165.966
X519.895Y119.774
X519.895Y123.972
X519.895Y128.166
X519.895Y132.367
X519.895Y136.566
X519.895Y140.767
X519.895Y144.965
X519.895Y149.167
X519.895Y153.365
X519.895Y157.566
X519.895Y161.765
X519.895Y165.966
T8
X453.644Y96.901
X453.644Y105.156
X453.644Y113.411
X453.644Y121.666
X548.005Y127.762
X548.005Y136.017
X548.005Y144.272
X548.005Y152.527
X548.005Y160.782
T9
X471.805Y89.027
X485.521Y89.027
T10
X536.527Y83.566
X541.528Y83.566
X546.529Y83.566
T11
X73.025Y90.678
X73.025Y263.22
X111.125Y90.678
X111.125Y263.22
X187.325Y90.678
X187.325Y263.22
X263.525Y90.678
X263.525Y263.22
X339.725Y90.678
X339.725Y263.22
X415.925Y90.678
X416.712Y263.22
X441.325Y90.678
X441.325Y263.22
X457.937Y217.932
X457.962Y186.944
X457.987Y142.723
X458.038Y166.421
X504.368Y83.414
X504.368Y173.482
X554.406Y83.414
X554.406Y173.482
T12
X507.093Y119.774
X507.093Y165.966
T13
X82.545Y90.685
X82.545Y263.278
X120.645Y90.685
X120.645Y263.278
X139.695Y90.685
X139.695Y263.278
X158.745Y90.685
X158.745Y263.278
X177.795Y90.685
X177.795Y263.278
X196.845Y90.685
X196.845Y263.278
X215.895Y90.685
X215.895Y263.278
X234.945Y90.685
X234.945Y263.278
X253.995Y90.685
X253.995Y263.278
X273.045Y90.685
X273.045Y263.278
X292.095Y90.685
X292.095Y263.278
X311.145Y90.685
X311.145Y263.278
X330.195Y90.685
X330.195Y263.278
X349.245Y90.685
X349.245Y263.278
X368.295Y90.685
X368.295Y263.278
X387.345Y90.685
X387.345Y263.278
X406.395Y90.685
X406.395Y263.278
T4
X536.787Y217.5G85X534.788Y217.5
G05
X536.787Y220.04G85X534.788Y220.04
G05
X536.787Y222.58G85X534.788Y222.58
G05
X536.787Y225.12G85X534.788Y225.12
G05
X536.787Y227.66G85X534.788Y227.66
G05
X536.787Y230.2G85X534.788Y230.2
G05
X536.787Y232.74G85X534.788Y232.74
G05
X536.787Y235.28G85X534.788Y235.28
G05
X536.787Y237.82G85X534.788Y237.82
G05
X536.787Y240.36G85X534.788Y240.36
G05
X536.787Y242.9G85X534.788Y242.9
G05
X536.787Y245.44G85X534.788Y245.44
G05
X536.787Y247.98G85X534.788Y247.98
G05
X536.787Y250.52G85X534.788Y250.52
G05
X536.787Y253.06G85X534.788Y253.06
G05
X536.787Y255.6G85X534.788Y255.6
G05
X552.027Y217.5G85X550.028Y217.5
G05
X552.027Y220.04G85X550.028Y220.04
G05
X552.027Y222.58G85X550.028Y222.58
G05
X552.027Y225.12G85X550.028Y225.12
G05
X552.027Y227.66G85X550.028Y227.66
G05
X552.027Y230.2G85X550.028Y230.2
G05
X552.027Y232.74G85X550.028Y232.74
G05
X552.027Y235.28G85X550.028Y235.28
G05
X552.027Y237.82G85X550.028Y237.82
G05
X552.027Y240.36G85X550.028Y240.36
G05
X552.027Y242.9G85X550.028Y242.9
G05
X552.027Y245.44G85X550.028Y245.44
G05
X552.027Y247.98G85X550.028Y247.98
G05
X552.027Y250.52G85X550.028Y250.52
G05
X552.027Y253.06G85X550.028Y253.06
G05
X552.027Y255.6G85X550.028Y255.6
G05
T0
M30
