M48
;DRILL file {Pcbnew (2013-07-07 BZR 4022)-stable} date 10/3/2014 1:06:48 PM
;FORMAT={-:-/ absolute / metric / decimal}
FMAT,2
METRIC,TZ
T1C0.813
T2C1.016
T3C1.143
T4C2.032
T5C3.048
T6C3.251
%
G90
G05
M71
T1
X128.397Y-118.364
X128.397Y-155.067
X128.397Y-200.152
X128.397Y-236.855
X471.932Y-121.107
X471.932Y-123.647
X471.932Y-126.187
X471.932Y-128.727
X471.932Y-131.267
X471.932Y-133.807
X471.932Y-136.347
X471.932Y-138.887
X471.932Y-141.427
X471.932Y-143.967
X471.932Y-149.047
X471.932Y-151.587
X471.932Y-154.127
X471.932Y-156.667
X471.932Y-159.207
X471.932Y-161.747
X471.932Y-164.287
X471.932Y-166.827
X471.932Y-169.367
X471.932Y-171.907
X471.932Y-176.987
X471.932Y-179.527
X471.932Y-182.067
X471.932Y-184.607
X471.932Y-187.147
X471.932Y-189.687
X471.932Y-192.227
X471.932Y-194.767
X471.932Y-197.307
X471.932Y-199.847
X471.932Y-204.927
X471.932Y-207.467
X471.932Y-210.007
X471.932Y-212.547
X471.932Y-215.087
X471.932Y-217.627
X471.932Y-220.167
X471.932Y-222.707
X471.932Y-225.247
X471.932Y-227.787
X471.932Y-232.867
X471.932Y-235.407
X471.932Y-237.947
X471.932Y-240.487
X471.932Y-243.027
X471.932Y-245.567
X471.932Y-248.107
X471.932Y-250.647
X471.932Y-253.187
X471.932Y-255.727
X471.932Y-259.842
X471.932Y-262.382
X471.932Y-264.922
X471.932Y-267.462
X474.472Y-121.107
X474.472Y-123.647
X474.472Y-126.187
X474.472Y-128.727
X474.472Y-131.267
X474.472Y-133.807
X474.472Y-136.347
X474.472Y-138.887
X474.472Y-141.427
X474.472Y-143.967
X474.472Y-149.047
X474.472Y-151.587
X474.472Y-154.127
X474.472Y-156.667
X474.472Y-159.207
X474.472Y-161.747
X474.472Y-164.287
X474.472Y-166.827
X474.472Y-169.367
X474.472Y-171.907
X474.472Y-176.987
X474.472Y-179.527
X474.472Y-182.067
X474.472Y-184.607
X474.472Y-187.147
X474.472Y-189.687
X474.472Y-192.227
X474.472Y-194.767
X474.472Y-197.307
X474.472Y-199.847
X474.472Y-204.927
X474.472Y-207.467
X474.472Y-210.007
X474.472Y-212.547
X474.472Y-215.087
X474.472Y-217.627
X474.472Y-220.167
X474.472Y-222.707
X474.472Y-225.247
X474.472Y-227.787
X474.472Y-232.867
X474.472Y-235.407
X474.472Y-237.947
X474.472Y-240.487
X474.472Y-243.027
X474.472Y-245.567
X474.472Y-248.107
X474.472Y-250.647
X474.472Y-253.187
X474.472Y-255.727
X477.774Y-168.529
X477.774Y-173.101
X478.028Y-125.984
X479.044Y-118.364
X479.044Y-146.558
X479.044Y-179.197
X479.044Y-202.184
X479.044Y-229.997
X479.552Y-259.842
X479.552Y-262.382
X479.552Y-264.922
X479.552Y-267.462
X480.314Y-168.529
X480.314Y-173.101
X480.568Y-125.984
X481.584Y-118.364
X481.584Y-146.558
X481.584Y-179.197
X481.584Y-202.184
X481.584Y-229.997
X481.711Y-132.588
X481.711Y-140.208
X482.854Y-218.186
X483.743Y-247.777
X483.743Y-250.317
X485.14Y-263.906
X485.14Y-266.446
X485.14Y-268.986
X485.14Y-271.526
X485.14Y-274.066
X485.14Y-276.606
X485.14Y-279.146
X485.394Y-218.186
X485.902Y-154.178
X486.283Y-259.969
X486.537Y-147.574
X486.537Y-150.495
X487.426Y-222.834
X487.426Y-225.374
X487.426Y-227.914
X487.426Y-230.454
X487.553Y-250.317
X487.553Y-253.111
X487.553Y-255.905
X487.921Y-205.334
X487.921Y-210.414
X488.442Y-154.178
X488.861Y-193.192
X488.861Y-200.812
X490.982Y-154.178
X491.363Y-259.969
X492.506Y-174.752
X492.506Y-177.8
X492.76Y-237.236
X492.76Y-263.906
X492.76Y-266.446
X492.76Y-268.986
X492.76Y-271.526
X492.76Y-274.066
X492.76Y-276.606
X492.76Y-279.146
X493.001Y-207.874
X494.157Y-147.574
X494.157Y-150.495
X495.046Y-222.834
X495.046Y-225.374
X495.046Y-227.914
X495.046Y-230.454
X495.173Y-250.317
X495.173Y-253.111
X495.173Y-255.905
X495.3Y-237.236
X496.316Y-132.334
X496.316Y-134.874
X497.586Y-166.624
X497.586Y-169.164
X497.586Y-171.704
X497.586Y-180.848
X497.586Y-183.388
X497.586Y-185.928
X498.602Y-271.399
X499.237Y-210.058
X499.237Y-217.678
X500.126Y-174.752
X500.126Y-177.8
X501.142Y-271.399
X501.777Y-210.058
X501.777Y-217.678
X504.393Y-210.02
X504.393Y-217.64
X506.933Y-210.02
X506.933Y-217.64
X507.619Y-259.842
X507.619Y-267.462
X509.524Y-210.058
X509.524Y-217.678
X512.699Y-259.842
X512.699Y-267.462
X515.874Y-213.868
X518.414Y-213.868
T2
X128.397Y-120.904
X128.397Y-123.444
X128.397Y-125.984
X128.397Y-128.524
X128.397Y-131.064
X128.397Y-133.604
X128.397Y-136.144
X128.397Y-138.684
X128.397Y-141.224
X128.397Y-143.764
X128.397Y-146.304
X128.397Y-148.844
X128.397Y-157.607
X128.397Y-160.147
X128.397Y-162.687
X128.397Y-165.227
X128.397Y-167.767
X128.397Y-170.307
X128.397Y-172.847
X128.397Y-175.387
X128.397Y-177.927
X128.397Y-180.467
X128.397Y-183.007
X128.397Y-185.547
X128.397Y-202.692
X128.397Y-205.232
X128.397Y-207.772
X128.397Y-210.312
X128.397Y-212.852
X128.397Y-215.392
X128.397Y-217.932
X128.397Y-220.472
X128.397Y-223.012
X128.397Y-225.552
X128.397Y-228.092
X128.397Y-230.632
X128.397Y-239.395
X128.397Y-241.935
X128.397Y-244.475
X128.397Y-247.015
X128.397Y-249.555
X128.397Y-252.095
X128.397Y-254.635
X128.397Y-257.175
X128.397Y-259.715
X128.397Y-262.255
X128.397Y-264.795
X128.397Y-267.335
X130.937Y-118.364
X130.937Y-120.904
X130.937Y-123.444
X130.937Y-125.984
X130.937Y-128.524
X130.937Y-131.064
X130.937Y-133.604
X130.937Y-136.144
X130.937Y-138.684
X130.937Y-141.224
X130.937Y-143.764
X130.937Y-146.304
X130.937Y-148.844
X130.937Y-155.067
X130.937Y-157.607
X130.937Y-160.147
X130.937Y-162.687
X130.937Y-165.227
X130.937Y-167.767
X130.937Y-170.307
X130.937Y-172.847
X130.937Y-175.387
X130.937Y-177.927
X130.937Y-180.467
X130.937Y-183.007
X130.937Y-185.547
X130.937Y-200.152
X130.937Y-202.692
X130.937Y-205.232
X130.937Y-207.772
X130.937Y-210.312
X130.937Y-212.852
X130.937Y-215.392
X130.937Y-217.932
X130.937Y-220.472
X130.937Y-223.012
X130.937Y-225.552
X130.937Y-228.092
X130.937Y-230.632
X130.937Y-236.855
X130.937Y-239.395
X130.937Y-241.935
X130.937Y-244.475
X130.937Y-247.015
X130.937Y-249.555
X130.937Y-252.095
X130.937Y-254.635
X130.937Y-257.175
X130.937Y-259.715
X130.937Y-262.255
X130.937Y-264.795
X130.937Y-267.335
X137.282Y-115.196
X137.282Y-118.371
X137.282Y-121.546
X137.282Y-124.721
X137.282Y-127.896
X137.282Y-131.071
X137.282Y-134.246
X137.282Y-137.421
X137.282Y-140.596
X137.282Y-143.771
X137.282Y-146.946
X137.282Y-150.121
X137.282Y-153.296
X137.282Y-156.471
X137.282Y-159.646
X137.282Y-162.821
X137.282Y-165.996
X137.282Y-169.171
X137.282Y-172.346
X137.282Y-175.521
X137.282Y-178.696
X137.282Y-181.871
X137.282Y-185.046
X137.282Y-188.221
X137.282Y-191.396
X137.282Y-194.571
X137.282Y-197.746
X137.282Y-200.921
X137.282Y-204.096
X137.282Y-207.271
X137.282Y-210.446
X137.282Y-213.621
X137.282Y-216.796
X137.282Y-219.971
X137.282Y-223.146
X137.282Y-226.321
X137.282Y-229.496
X137.282Y-232.671
X137.282Y-235.846
X137.282Y-239.021
X137.282Y-242.196
X137.282Y-245.371
X137.282Y-248.546
X137.282Y-251.721
X137.282Y-254.896
X137.282Y-258.071
X137.282Y-261.246
X137.282Y-264.421
X137.282Y-267.596
X137.282Y-270.771
X143.632Y-115.196
X143.632Y-118.371
X143.632Y-121.546
X143.632Y-124.721
X143.632Y-127.896
X143.632Y-131.071
X143.632Y-134.246
X143.632Y-137.421
X143.632Y-140.596
X143.632Y-143.771
X143.632Y-146.946
X143.632Y-150.121
X143.632Y-153.296
X143.632Y-156.471
X143.632Y-159.646
X143.632Y-162.821
X143.632Y-165.996
X143.632Y-169.171
X143.632Y-172.346
X143.632Y-175.521
X143.632Y-178.696
X143.632Y-181.871
X143.632Y-185.046
X143.632Y-188.221
X143.632Y-191.396
X143.632Y-194.571
X143.632Y-197.746
X143.632Y-200.921
X143.632Y-204.096
X143.632Y-207.271
X143.632Y-210.446
X143.632Y-213.621
X143.632Y-216.796
X143.632Y-219.971
X143.632Y-223.146
X143.632Y-226.321
X143.632Y-229.496
X143.632Y-232.671
X143.632Y-235.846
X143.632Y-239.021
X143.632Y-242.196
X143.632Y-245.371
X143.632Y-248.546
X143.632Y-251.721
X143.632Y-254.896
X143.632Y-258.071
X143.632Y-261.246
X143.632Y-264.421
X143.632Y-267.596
X143.632Y-270.771
X156.332Y-115.196
X156.332Y-118.371
X156.332Y-121.546
X156.332Y-124.721
X156.332Y-127.896
X156.332Y-131.071
X156.332Y-134.246
X156.332Y-137.421
X156.332Y-140.596
X156.332Y-143.771
X156.332Y-146.946
X156.332Y-150.121
X156.332Y-153.296
X156.332Y-156.471
X156.332Y-159.646
X156.332Y-162.821
X156.332Y-165.996
X156.332Y-169.171
X156.332Y-172.346
X156.332Y-175.521
X156.332Y-178.696
X156.332Y-181.871
X156.332Y-185.046
X156.332Y-188.221
X156.332Y-191.396
X156.332Y-194.571
X156.332Y-197.746
X156.332Y-200.921
X156.332Y-204.096
X156.332Y-207.271
X156.332Y-210.446
X156.332Y-213.621
X156.332Y-216.796
X156.332Y-219.971
X156.332Y-223.146
X156.332Y-226.321
X156.332Y-229.496
X156.332Y-232.671
X156.332Y-235.846
X156.332Y-239.021
X156.332Y-242.196
X156.332Y-245.371
X156.332Y-248.546
X156.332Y-251.721
X156.332Y-254.896
X156.332Y-258.071
X156.332Y-261.246
X156.332Y-264.421
X156.332Y-267.596
X156.332Y-270.771
X162.682Y-115.196
X162.682Y-118.371
X162.682Y-121.546
X162.682Y-124.721
X162.682Y-127.896
X162.682Y-131.071
X162.682Y-134.246
X162.682Y-137.421
X162.682Y-140.596
X162.682Y-143.771
X162.682Y-146.946
X162.682Y-150.121
X162.682Y-153.296
X162.682Y-156.471
X162.682Y-159.646
X162.682Y-162.821
X162.682Y-165.996
X162.682Y-169.171
X162.682Y-172.346
X162.682Y-175.521
X162.682Y-178.696
X162.682Y-181.871
X162.682Y-185.046
X162.682Y-188.221
X162.682Y-191.396
X162.682Y-194.571
X162.682Y-197.746
X162.682Y-200.921
X162.682Y-204.096
X162.682Y-207.271
X162.682Y-210.446
X162.682Y-213.621
X162.682Y-216.796
X162.682Y-219.971
X162.682Y-223.146
X162.682Y-226.321
X162.682Y-229.496
X162.682Y-232.671
X162.682Y-235.846
X162.682Y-239.021
X162.682Y-242.196
X162.682Y-245.371
X162.682Y-248.546
X162.682Y-251.721
X162.682Y-254.896
X162.682Y-258.071
X162.682Y-261.246
X162.682Y-264.421
X162.682Y-267.596
X162.682Y-270.771
X175.382Y-115.196
X175.382Y-118.371
X175.382Y-121.546
X175.382Y-124.721
X175.382Y-127.896
X175.382Y-131.071
X175.382Y-134.246
X175.382Y-137.421
X175.382Y-140.596
X175.382Y-143.771
X175.382Y-146.946
X175.382Y-150.121
X175.382Y-153.296
X175.382Y-156.471
X175.382Y-159.646
X175.382Y-162.821
X175.382Y-165.996
X175.382Y-169.171
X175.382Y-172.346
X175.382Y-175.521
X175.382Y-178.696
X175.382Y-181.871
X175.382Y-185.046
X175.382Y-188.221
X175.382Y-191.396
X175.382Y-194.571
X175.382Y-197.746
X175.382Y-200.921
X175.382Y-204.096
X175.382Y-207.271
X175.382Y-210.446
X175.382Y-213.621
X175.382Y-216.796
X175.382Y-219.971
X175.382Y-223.146
X175.382Y-226.321
X175.382Y-229.496
X175.382Y-232.671
X175.382Y-235.846
X175.382Y-239.021
X175.382Y-242.196
X175.382Y-245.371
X175.382Y-248.546
X175.382Y-251.721
X175.382Y-254.896
X175.382Y-258.071
X175.382Y-261.246
X175.382Y-264.421
X175.382Y-267.596
X175.382Y-270.771
X181.732Y-115.196
X181.732Y-118.371
X181.732Y-121.546
X181.732Y-124.721
X181.732Y-127.896
X181.732Y-131.071
X181.732Y-134.246
X181.732Y-137.421
X181.732Y-140.596
X181.732Y-143.771
X181.732Y-146.946
X181.732Y-150.121
X181.732Y-153.296
X181.732Y-156.471
X181.732Y-159.646
X181.732Y-162.821
X181.732Y-165.996
X181.732Y-169.171
X181.732Y-172.346
X181.732Y-175.521
X181.732Y-178.696
X181.732Y-181.871
X181.732Y-185.046
X181.732Y-188.221
X181.732Y-191.396
X181.732Y-194.571
X181.732Y-197.746
X181.732Y-200.921
X181.732Y-204.096
X181.732Y-207.271
X181.732Y-210.446
X181.732Y-213.621
X181.732Y-216.796
X181.732Y-219.971
X181.732Y-223.146
X181.732Y-226.321
X181.732Y-229.496
X181.732Y-232.671
X181.732Y-235.846
X181.732Y-239.021
X181.732Y-242.196
X181.732Y-245.371
X181.732Y-248.546
X181.732Y-251.721
X181.732Y-254.896
X181.732Y-258.071
X181.732Y-261.246
X181.732Y-264.421
X181.732Y-267.596
X181.732Y-270.771
X194.432Y-115.196
X194.432Y-118.371
X194.432Y-121.546
X194.432Y-124.721
X194.432Y-127.896
X194.432Y-131.071
X194.432Y-134.246
X194.432Y-137.421
X194.432Y-140.596
X194.432Y-143.771
X194.432Y-146.946
X194.432Y-150.121
X194.432Y-153.296
X194.432Y-156.471
X194.432Y-159.646
X194.432Y-162.821
X194.432Y-165.996
X194.432Y-169.171
X194.432Y-172.346
X194.432Y-175.521
X194.432Y-178.696
X194.432Y-181.871
X194.432Y-185.046
X194.432Y-188.221
X194.432Y-191.396
X194.432Y-194.571
X194.432Y-197.746
X194.432Y-200.921
X194.432Y-204.096
X194.432Y-207.271
X194.432Y-210.446
X194.432Y-213.621
X194.432Y-216.796
X194.432Y-219.971
X194.432Y-223.146
X194.432Y-226.321
X194.432Y-229.496
X194.432Y-232.671
X194.432Y-235.846
X194.432Y-239.021
X194.432Y-242.196
X194.432Y-245.371
X194.432Y-248.546
X194.432Y-251.721
X194.432Y-254.896
X194.432Y-258.071
X194.432Y-261.246
X194.432Y-264.421
X194.432Y-267.596
X194.432Y-270.771
X200.782Y-115.196
X200.782Y-118.371
X200.782Y-121.546
X200.782Y-124.721
X200.782Y-127.896
X200.782Y-131.071
X200.782Y-134.246
X200.782Y-137.421
X200.782Y-140.596
X200.782Y-143.771
X200.782Y-146.946
X200.782Y-150.121
X200.782Y-153.296
X200.782Y-156.471
X200.782Y-159.646
X200.782Y-162.821
X200.782Y-165.996
X200.782Y-169.171
X200.782Y-172.346
X200.782Y-175.521
X200.782Y-178.696
X200.782Y-181.871
X200.782Y-185.046
X200.782Y-188.221
X200.782Y-191.396
X200.782Y-194.571
X200.782Y-197.746
X200.782Y-200.921
X200.782Y-204.096
X200.782Y-207.271
X200.782Y-210.446
X200.782Y-213.621
X200.782Y-216.796
X200.782Y-219.971
X200.782Y-223.146
X200.782Y-226.321
X200.782Y-229.496
X200.782Y-232.671
X200.782Y-235.846
X200.782Y-239.021
X200.782Y-242.196
X200.782Y-245.371
X200.782Y-248.546
X200.782Y-251.721
X200.782Y-254.896
X200.782Y-258.071
X200.782Y-261.246
X200.782Y-264.421
X200.782Y-267.596
X200.782Y-270.771
X213.482Y-115.196
X213.482Y-118.371
X213.482Y-121.546
X213.482Y-124.721
X213.482Y-127.896
X213.482Y-131.071
X213.482Y-134.246
X213.482Y-137.421
X213.482Y-140.596
X213.482Y-143.771
X213.482Y-146.946
X213.482Y-150.121
X213.482Y-153.296
X213.482Y-156.471
X213.482Y-159.646
X213.482Y-162.821
X213.482Y-165.996
X213.482Y-169.171
X213.482Y-172.346
X213.482Y-175.521
X213.482Y-178.696
X213.482Y-181.871
X213.482Y-185.046
X213.482Y-188.221
X213.482Y-191.396
X213.482Y-194.571
X213.482Y-197.746
X213.482Y-200.921
X213.482Y-204.096
X213.482Y-207.271
X213.482Y-210.446
X213.482Y-213.621
X213.482Y-216.796
X213.482Y-219.971
X213.482Y-223.146
X213.482Y-226.321
X213.482Y-229.496
X213.482Y-232.671
X213.482Y-235.846
X213.482Y-239.021
X213.482Y-242.196
X213.482Y-245.371
X213.482Y-248.546
X213.482Y-251.721
X213.482Y-254.896
X213.482Y-258.071
X213.482Y-261.246
X213.482Y-264.421
X213.482Y-267.596
X213.482Y-270.771
X219.832Y-115.196
X219.832Y-118.371
X219.832Y-121.546
X219.832Y-124.721
X219.832Y-127.896
X219.832Y-131.071
X219.832Y-134.246
X219.832Y-137.421
X219.832Y-140.596
X219.832Y-143.771
X219.832Y-146.946
X219.832Y-150.121
X219.832Y-153.296
X219.832Y-156.471
X219.832Y-159.646
X219.832Y-162.821
X219.832Y-165.996
X219.832Y-169.171
X219.832Y-172.346
X219.832Y-175.521
X219.832Y-178.696
X219.832Y-181.871
X219.832Y-185.046
X219.832Y-188.221
X219.832Y-191.396
X219.832Y-194.571
X219.832Y-197.746
X219.832Y-200.921
X219.832Y-204.096
X219.832Y-207.271
X219.832Y-210.446
X219.832Y-213.621
X219.832Y-216.796
X219.832Y-219.971
X219.832Y-223.146
X219.832Y-226.321
X219.832Y-229.496
X219.832Y-232.671
X219.832Y-235.846
X219.832Y-239.021
X219.832Y-242.196
X219.832Y-245.371
X219.832Y-248.546
X219.832Y-251.721
X219.832Y-254.896
X219.832Y-258.071
X219.832Y-261.246
X219.832Y-264.421
X219.832Y-267.596
X219.832Y-270.771
X232.532Y-115.196
X232.532Y-118.371
X232.532Y-121.546
X232.532Y-124.721
X232.532Y-127.896
X232.532Y-131.071
X232.532Y-134.246
X232.532Y-137.421
X232.532Y-140.596
X232.532Y-143.771
X232.532Y-146.946
X232.532Y-150.121
X232.532Y-153.296
X232.532Y-156.471
X232.532Y-159.646
X232.532Y-162.821
X232.532Y-165.996
X232.532Y-169.171
X232.532Y-172.346
X232.532Y-175.521
X232.532Y-178.696
X232.532Y-181.871
X232.532Y-185.046
X232.532Y-188.221
X232.532Y-191.396
X232.532Y-194.571
X232.532Y-197.746
X232.532Y-200.921
X232.532Y-204.096
X232.532Y-207.271
X232.532Y-210.446
X232.532Y-213.621
X232.532Y-216.796
X232.532Y-219.971
X232.532Y-223.146
X232.532Y-226.321
X232.532Y-229.496
X232.532Y-232.671
X232.532Y-235.846
X232.532Y-239.021
X232.532Y-242.196
X232.532Y-245.371
X232.532Y-248.546
X232.532Y-251.721
X232.532Y-254.896
X232.532Y-258.071
X232.532Y-261.246
X232.532Y-264.421
X232.532Y-267.596
X232.532Y-270.771
X238.882Y-115.196
X238.882Y-118.371
X238.882Y-121.546
X238.882Y-124.721
X238.882Y-127.896
X238.882Y-131.071
X238.882Y-134.246
X238.882Y-137.421
X238.882Y-140.596
X238.882Y-143.771
X238.882Y-146.946
X238.882Y-150.121
X238.882Y-153.296
X238.882Y-156.471
X238.882Y-159.646
X238.882Y-162.821
X238.882Y-165.996
X238.882Y-169.171
X238.882Y-172.346
X238.882Y-175.521
X238.882Y-178.696
X238.882Y-181.871
X238.882Y-185.046
X238.882Y-188.221
X238.882Y-191.396
X238.882Y-194.571
X238.882Y-197.746
X238.882Y-200.921
X238.882Y-204.096
X238.882Y-207.271
X238.882Y-210.446
X238.882Y-213.621
X238.882Y-216.796
X238.882Y-219.971
X238.882Y-223.146
X238.882Y-226.321
X238.882Y-229.496
X238.882Y-232.671
X238.882Y-235.846
X238.882Y-239.021
X238.882Y-242.196
X238.882Y-245.371
X238.882Y-248.546
X238.882Y-251.721
X238.882Y-254.896
X238.882Y-258.071
X238.882Y-261.246
X238.882Y-264.421
X238.882Y-267.596
X238.882Y-270.771
X251.582Y-115.196
X251.582Y-118.371
X251.582Y-121.546
X251.582Y-124.721
X251.582Y-127.896
X251.582Y-131.071
X251.582Y-134.246
X251.582Y-137.421
X251.582Y-140.596
X251.582Y-143.771
X251.582Y-146.946
X251.582Y-150.121
X251.582Y-153.296
X251.582Y-156.471
X251.582Y-159.646
X251.582Y-162.821
X251.582Y-165.996
X251.582Y-169.171
X251.582Y-172.346
X251.582Y-175.521
X251.582Y-178.696
X251.582Y-181.871
X251.582Y-185.046
X251.582Y-188.221
X251.582Y-191.396
X251.582Y-194.571
X251.582Y-197.746
X251.582Y-200.921
X251.582Y-204.096
X251.582Y-207.271
X251.582Y-210.446
X251.582Y-213.621
X251.582Y-216.796
X251.582Y-219.971
X251.582Y-223.146
X251.582Y-226.321
X251.582Y-229.496
X251.582Y-232.671
X251.582Y-235.846
X251.582Y-239.021
X251.582Y-242.196
X251.582Y-245.371
X251.582Y-248.546
X251.582Y-251.721
X251.582Y-254.896
X251.582Y-258.071
X251.582Y-261.246
X251.582Y-264.421
X251.582Y-267.596
X251.582Y-270.771
X257.932Y-115.196
X257.932Y-118.371
X257.932Y-121.546
X257.932Y-124.721
X257.932Y-127.896
X257.932Y-131.071
X257.932Y-134.246
X257.932Y-137.421
X257.932Y-140.596
X257.932Y-143.771
X257.932Y-146.946
X257.932Y-150.121
X257.932Y-153.296
X257.932Y-156.471
X257.932Y-159.646
X257.932Y-162.821
X257.932Y-165.996
X257.932Y-169.171
X257.932Y-172.346
X257.932Y-175.521
X257.932Y-178.696
X257.932Y-181.871
X257.932Y-185.046
X257.932Y-188.221
X257.932Y-191.396
X257.932Y-194.571
X257.932Y-197.746
X257.932Y-200.921
X257.932Y-204.096
X257.932Y-207.271
X257.932Y-210.446
X257.932Y-213.621
X257.932Y-216.796
X257.932Y-219.971
X257.932Y-223.146
X257.932Y-226.321
X257.932Y-229.496
X257.932Y-232.671
X257.932Y-235.846
X257.932Y-239.021
X257.932Y-242.196
X257.932Y-245.371
X257.932Y-248.546
X257.932Y-251.721
X257.932Y-254.896
X257.932Y-258.071
X257.932Y-261.246
X257.932Y-264.421
X257.932Y-267.596
X257.932Y-270.771
X270.632Y-115.196
X270.632Y-118.371
X270.632Y-121.546
X270.632Y-124.721
X270.632Y-127.896
X270.632Y-131.071
X270.632Y-134.246
X270.632Y-137.421
X270.632Y-140.596
X270.632Y-143.771
X270.632Y-146.946
X270.632Y-150.121
X270.632Y-153.296
X270.632Y-156.471
X270.632Y-159.646
X270.632Y-162.821
X270.632Y-165.996
X270.632Y-169.171
X270.632Y-172.346
X270.632Y-175.521
X270.632Y-178.696
X270.632Y-181.871
X270.632Y-185.046
X270.632Y-188.221
X270.632Y-191.396
X270.632Y-194.571
X270.632Y-197.746
X270.632Y-200.921
X270.632Y-204.096
X270.632Y-207.271
X270.632Y-210.446
X270.632Y-213.621
X270.632Y-216.796
X270.632Y-219.971
X270.632Y-223.146
X270.632Y-226.321
X270.632Y-229.496
X270.632Y-232.671
X270.632Y-235.846
X270.632Y-239.021
X270.632Y-242.196
X270.632Y-245.371
X270.632Y-248.546
X270.632Y-251.721
X270.632Y-254.896
X270.632Y-258.071
X270.632Y-261.246
X270.632Y-264.421
X270.632Y-267.596
X270.632Y-270.771
X276.982Y-115.196
X276.982Y-118.371
X276.982Y-121.546
X276.982Y-124.721
X276.982Y-127.896
X276.982Y-131.071
X276.982Y-134.246
X276.982Y-137.421
X276.982Y-140.596
X276.982Y-143.771
X276.982Y-146.946
X276.982Y-150.121
X276.982Y-153.296
X276.982Y-156.471
X276.982Y-159.646
X276.982Y-162.821
X276.982Y-165.996
X276.982Y-169.171
X276.982Y-172.346
X276.982Y-175.521
X276.982Y-178.696
X276.982Y-181.871
X276.982Y-185.046
X276.982Y-188.221
X276.982Y-191.396
X276.982Y-194.571
X276.982Y-197.746
X276.982Y-200.921
X276.982Y-204.096
X276.982Y-207.271
X276.982Y-210.446
X276.982Y-213.621
X276.982Y-216.796
X276.982Y-219.971
X276.982Y-223.146
X276.982Y-226.321
X276.982Y-229.496
X276.982Y-232.671
X276.982Y-235.846
X276.982Y-239.021
X276.982Y-242.196
X276.982Y-245.371
X276.982Y-248.546
X276.982Y-251.721
X276.982Y-254.896
X276.982Y-258.071
X276.982Y-261.246
X276.982Y-264.421
X276.982Y-267.596
X276.982Y-270.771
X289.682Y-115.196
X289.682Y-118.371
X289.682Y-121.546
X289.682Y-124.721
X289.682Y-127.896
X289.682Y-131.071
X289.682Y-134.246
X289.682Y-137.421
X289.682Y-140.596
X289.682Y-143.771
X289.682Y-146.946
X289.682Y-150.121
X289.682Y-153.296
X289.682Y-156.471
X289.682Y-159.646
X289.682Y-162.821
X289.682Y-165.996
X289.682Y-169.171
X289.682Y-172.346
X289.682Y-175.521
X289.682Y-178.696
X289.682Y-181.871
X289.682Y-185.046
X289.682Y-188.221
X289.682Y-191.396
X289.682Y-194.571
X289.682Y-197.746
X289.682Y-200.921
X289.682Y-204.096
X289.682Y-207.271
X289.682Y-210.446
X289.682Y-213.621
X289.682Y-216.796
X289.682Y-219.971
X289.682Y-223.146
X289.682Y-226.321
X289.682Y-229.496
X289.682Y-232.671
X289.682Y-235.846
X289.682Y-239.021
X289.682Y-242.196
X289.682Y-245.371
X289.682Y-248.546
X289.682Y-251.721
X289.682Y-254.896
X289.682Y-258.071
X289.682Y-261.246
X289.682Y-264.421
X289.682Y-267.596
X289.682Y-270.771
X296.032Y-115.196
X296.032Y-118.371
X296.032Y-121.546
X296.032Y-124.721
X296.032Y-127.896
X296.032Y-131.071
X296.032Y-134.246
X296.032Y-137.421
X296.032Y-140.596
X296.032Y-143.771
X296.032Y-146.946
X296.032Y-150.121
X296.032Y-153.296
X296.032Y-156.471
X296.032Y-159.646
X296.032Y-162.821
X296.032Y-165.996
X296.032Y-169.171
X296.032Y-172.346
X296.032Y-175.521
X296.032Y-178.696
X296.032Y-181.871
X296.032Y-185.046
X296.032Y-188.221
X296.032Y-191.396
X296.032Y-194.571
X296.032Y-197.746
X296.032Y-200.921
X296.032Y-204.096
X296.032Y-207.271
X296.032Y-210.446
X296.032Y-213.621
X296.032Y-216.796
X296.032Y-219.971
X296.032Y-223.146
X296.032Y-226.321
X296.032Y-229.496
X296.032Y-232.671
X296.032Y-235.846
X296.032Y-239.021
X296.032Y-242.196
X296.032Y-245.371
X296.032Y-248.546
X296.032Y-251.721
X296.032Y-254.896
X296.032Y-258.071
X296.032Y-261.246
X296.032Y-264.421
X296.032Y-267.596
X296.032Y-270.771
X308.732Y-115.196
X308.732Y-118.371
X308.732Y-121.546
X308.732Y-124.721
X308.732Y-127.896
X308.732Y-131.071
X308.732Y-134.246
X308.732Y-137.421
X308.732Y-140.596
X308.732Y-143.771
X308.732Y-146.946
X308.732Y-150.121
X308.732Y-153.296
X308.732Y-156.471
X308.732Y-159.646
X308.732Y-162.821
X308.732Y-165.996
X308.732Y-169.171
X308.732Y-172.346
X308.732Y-175.521
X308.732Y-178.696
X308.732Y-181.871
X308.732Y-185.046
X308.732Y-188.221
X308.732Y-191.396
X308.732Y-194.571
X308.732Y-197.746
X308.732Y-200.921
X308.732Y-204.096
X308.732Y-207.271
X308.732Y-210.446
X308.732Y-213.621
X308.732Y-216.796
X308.732Y-219.971
X308.732Y-223.146
X308.732Y-226.321
X308.732Y-229.496
X308.732Y-232.671
X308.732Y-235.846
X308.732Y-239.021
X308.732Y-242.196
X308.732Y-245.371
X308.732Y-248.546
X308.732Y-251.721
X308.732Y-254.896
X308.732Y-258.071
X308.732Y-261.246
X308.732Y-264.421
X308.732Y-267.596
X308.732Y-270.771
X315.082Y-115.196
X315.082Y-118.371
X315.082Y-121.546
X315.082Y-124.721
X315.082Y-127.896
X315.082Y-131.071
X315.082Y-134.246
X315.082Y-137.421
X315.082Y-140.596
X315.082Y-143.771
X315.082Y-146.946
X315.082Y-150.121
X315.082Y-153.296
X315.082Y-156.471
X315.082Y-159.646
X315.082Y-162.821
X315.082Y-165.996
X315.082Y-169.171
X315.082Y-172.346
X315.082Y-175.521
X315.082Y-178.696
X315.082Y-181.871
X315.082Y-185.046
X315.082Y-188.221
X315.082Y-191.396
X315.082Y-194.571
X315.082Y-197.746
X315.082Y-200.921
X315.082Y-204.096
X315.082Y-207.271
X315.082Y-210.446
X315.082Y-213.621
X315.082Y-216.796
X315.082Y-219.971
X315.082Y-223.146
X315.082Y-226.321
X315.082Y-229.496
X315.082Y-232.671
X315.082Y-235.846
X315.082Y-239.021
X315.082Y-242.196
X315.082Y-245.371
X315.082Y-248.546
X315.082Y-251.721
X315.082Y-254.896
X315.082Y-258.071
X315.082Y-261.246
X315.082Y-264.421
X315.082Y-267.596
X315.082Y-270.771
X327.782Y-115.196
X327.782Y-118.371
X327.782Y-121.546
X327.782Y-124.721
X327.782Y-127.896
X327.782Y-131.071
X327.782Y-134.246
X327.782Y-137.421
X327.782Y-140.596
X327.782Y-143.771
X327.782Y-146.946
X327.782Y-150.121
X327.782Y-153.296
X327.782Y-156.471
X327.782Y-159.646
X327.782Y-162.821
X327.782Y-165.996
X327.782Y-169.171
X327.782Y-172.346
X327.782Y-175.521
X327.782Y-178.696
X327.782Y-181.871
X327.782Y-185.046
X327.782Y-188.221
X327.782Y-191.396
X327.782Y-194.571
X327.782Y-197.746
X327.782Y-200.921
X327.782Y-204.096
X327.782Y-207.271
X327.782Y-210.446
X327.782Y-213.621
X327.782Y-216.796
X327.782Y-219.971
X327.782Y-223.146
X327.782Y-226.321
X327.782Y-229.496
X327.782Y-232.671
X327.782Y-235.846
X327.782Y-239.021
X327.782Y-242.196
X327.782Y-245.371
X327.782Y-248.546
X327.782Y-251.721
X327.782Y-254.896
X327.782Y-258.071
X327.782Y-261.246
X327.782Y-264.421
X327.782Y-267.596
X327.782Y-270.771
X334.132Y-115.196
X334.132Y-118.371
X334.132Y-121.546
X334.132Y-124.721
X334.132Y-127.896
X334.132Y-131.071
X334.132Y-134.246
X334.132Y-137.421
X334.132Y-140.596
X334.132Y-143.771
X334.132Y-146.946
X334.132Y-150.121
X334.132Y-153.296
X334.132Y-156.471
X334.132Y-159.646
X334.132Y-162.821
X334.132Y-165.996
X334.132Y-169.171
X334.132Y-172.346
X334.132Y-175.521
X334.132Y-178.696
X334.132Y-181.871
X334.132Y-185.046
X334.132Y-188.221
X334.132Y-191.396
X334.132Y-194.571
X334.132Y-197.746
X334.132Y-200.921
X334.132Y-204.096
X334.132Y-207.271
X334.132Y-210.446
X334.132Y-213.621
X334.132Y-216.796
X334.132Y-219.971
X334.132Y-223.146
X334.132Y-226.321
X334.132Y-229.496
X334.132Y-232.671
X334.132Y-235.846
X334.132Y-239.021
X334.132Y-242.196
X334.132Y-245.371
X334.132Y-248.546
X334.132Y-251.721
X334.132Y-254.896
X334.132Y-258.071
X334.132Y-261.246
X334.132Y-264.421
X334.132Y-267.596
X334.132Y-270.771
X346.832Y-115.196
X346.832Y-118.371
X346.832Y-121.546
X346.832Y-124.721
X346.832Y-127.896
X346.832Y-131.071
X346.832Y-134.246
X346.832Y-137.421
X346.832Y-140.596
X346.832Y-143.771
X346.832Y-146.946
X346.832Y-150.121
X346.832Y-153.296
X346.832Y-156.471
X346.832Y-159.646
X346.832Y-162.821
X346.832Y-165.996
X346.832Y-169.171
X346.832Y-172.346
X346.832Y-175.521
X346.832Y-178.696
X346.832Y-181.871
X346.832Y-185.046
X346.832Y-188.221
X346.832Y-191.396
X346.832Y-194.571
X346.832Y-197.746
X346.832Y-200.921
X346.832Y-204.096
X346.832Y-207.271
X346.832Y-210.446
X346.832Y-213.621
X346.832Y-216.796
X346.832Y-219.971
X346.832Y-223.146
X346.832Y-226.321
X346.832Y-229.496
X346.832Y-232.671
X346.832Y-235.846
X346.832Y-239.021
X346.832Y-242.196
X346.832Y-245.371
X346.832Y-248.546
X346.832Y-251.721
X346.832Y-254.896
X346.832Y-258.071
X346.832Y-261.246
X346.832Y-264.421
X346.832Y-267.596
X346.832Y-270.771
X353.182Y-115.196
X353.182Y-118.371
X353.182Y-121.546
X353.182Y-124.721
X353.182Y-127.896
X353.182Y-131.071
X353.182Y-134.246
X353.182Y-137.421
X353.182Y-140.596
X353.182Y-143.771
X353.182Y-146.946
X353.182Y-150.121
X353.182Y-153.296
X353.182Y-156.471
X353.182Y-159.646
X353.182Y-162.821
X353.182Y-165.996
X353.182Y-169.171
X353.182Y-172.346
X353.182Y-175.521
X353.182Y-178.696
X353.182Y-181.871
X353.182Y-185.046
X353.182Y-188.221
X353.182Y-191.396
X353.182Y-194.571
X353.182Y-197.746
X353.182Y-200.921
X353.182Y-204.096
X353.182Y-207.271
X353.182Y-210.446
X353.182Y-213.621
X353.182Y-216.796
X353.182Y-219.971
X353.182Y-223.146
X353.182Y-226.321
X353.182Y-229.496
X353.182Y-232.671
X353.182Y-235.846
X353.182Y-239.021
X353.182Y-242.196
X353.182Y-245.371
X353.182Y-248.546
X353.182Y-251.721
X353.182Y-254.896
X353.182Y-258.071
X353.182Y-261.246
X353.182Y-264.421
X353.182Y-267.596
X353.182Y-270.771
X365.882Y-115.196
X365.882Y-118.371
X365.882Y-121.546
X365.882Y-124.721
X365.882Y-127.896
X365.882Y-131.071
X365.882Y-134.246
X365.882Y-137.421
X365.882Y-140.596
X365.882Y-143.771
X365.882Y-146.946
X365.882Y-150.121
X365.882Y-153.296
X365.882Y-156.471
X365.882Y-159.646
X365.882Y-162.821
X365.882Y-165.996
X365.882Y-169.171
X365.882Y-172.346
X365.882Y-175.521
X365.882Y-178.696
X365.882Y-181.871
X365.882Y-185.046
X365.882Y-188.221
X365.882Y-191.396
X365.882Y-194.571
X365.882Y-197.746
X365.882Y-200.921
X365.882Y-204.096
X365.882Y-207.271
X365.882Y-210.446
X365.882Y-213.621
X365.882Y-216.796
X365.882Y-219.971
X365.882Y-223.146
X365.882Y-226.321
X365.882Y-229.496
X365.882Y-232.671
X365.882Y-235.846
X365.882Y-239.021
X365.882Y-242.196
X365.882Y-245.371
X365.882Y-248.546
X365.882Y-251.721
X365.882Y-254.896
X365.882Y-258.071
X365.882Y-261.246
X365.882Y-264.421
X365.882Y-267.596
X365.882Y-270.771
X372.232Y-115.196
X372.232Y-118.371
X372.232Y-121.546
X372.232Y-124.721
X372.232Y-127.896
X372.232Y-131.071
X372.232Y-134.246
X372.232Y-137.421
X372.232Y-140.596
X372.232Y-143.771
X372.232Y-146.946
X372.232Y-150.121
X372.232Y-153.296
X372.232Y-156.471
X372.232Y-159.646
X372.232Y-162.821
X372.232Y-165.996
X372.232Y-169.171
X372.232Y-172.346
X372.232Y-175.521
X372.232Y-178.696
X372.232Y-181.871
X372.232Y-185.046
X372.232Y-188.221
X372.232Y-191.396
X372.232Y-194.571
X372.232Y-197.746
X372.232Y-200.921
X372.232Y-204.096
X372.232Y-207.271
X372.232Y-210.446
X372.232Y-213.621
X372.232Y-216.796
X372.232Y-219.971
X372.232Y-223.146
X372.232Y-226.321
X372.232Y-229.496
X372.232Y-232.671
X372.232Y-235.846
X372.232Y-239.021
X372.232Y-242.196
X372.232Y-245.371
X372.232Y-248.546
X372.232Y-251.721
X372.232Y-254.896
X372.232Y-258.071
X372.232Y-261.246
X372.232Y-264.421
X372.232Y-267.596
X372.232Y-270.771
X384.932Y-115.196
X384.932Y-118.371
X384.932Y-121.546
X384.932Y-124.721
X384.932Y-127.896
X384.932Y-131.071
X384.932Y-134.246
X384.932Y-137.421
X384.932Y-140.596
X384.932Y-143.771
X384.932Y-146.946
X384.932Y-150.121
X384.932Y-153.296
X384.932Y-156.471
X384.932Y-159.646
X384.932Y-162.821
X384.932Y-165.996
X384.932Y-169.171
X384.932Y-172.346
X384.932Y-175.521
X384.932Y-178.696
X384.932Y-181.871
X384.932Y-185.046
X384.932Y-188.221
X384.932Y-191.396
X384.932Y-194.571
X384.932Y-197.746
X384.932Y-200.921
X384.932Y-204.096
X384.932Y-207.271
X384.932Y-210.446
X384.932Y-213.621
X384.932Y-216.796
X384.932Y-219.971
X384.932Y-223.146
X384.932Y-226.321
X384.932Y-229.496
X384.932Y-232.671
X384.932Y-235.846
X384.932Y-239.021
X384.932Y-242.196
X384.932Y-245.371
X384.932Y-248.546
X384.932Y-251.721
X384.932Y-254.896
X384.932Y-258.071
X384.932Y-261.246
X384.932Y-264.421
X384.932Y-267.596
X384.932Y-270.771
X391.282Y-115.196
X391.282Y-118.371
X391.282Y-121.546
X391.282Y-124.721
X391.282Y-127.896
X391.282Y-131.071
X391.282Y-134.246
X391.282Y-137.421
X391.282Y-140.596
X391.282Y-143.771
X391.282Y-146.946
X391.282Y-150.121
X391.282Y-153.296
X391.282Y-156.471
X391.282Y-159.646
X391.282Y-162.821
X391.282Y-165.996
X391.282Y-169.171
X391.282Y-172.346
X391.282Y-175.521
X391.282Y-178.696
X391.282Y-181.871
X391.282Y-185.046
X391.282Y-188.221
X391.282Y-191.396
X391.282Y-194.571
X391.282Y-197.746
X391.282Y-200.921
X391.282Y-204.096
X391.282Y-207.271
X391.282Y-210.446
X391.282Y-213.621
X391.282Y-216.796
X391.282Y-219.971
X391.282Y-223.146
X391.282Y-226.321
X391.282Y-229.496
X391.282Y-232.671
X391.282Y-235.846
X391.282Y-239.021
X391.282Y-242.196
X391.282Y-245.371
X391.282Y-248.546
X391.282Y-251.721
X391.282Y-254.896
X391.282Y-258.071
X391.282Y-261.246
X391.282Y-264.421
X391.282Y-267.596
X391.282Y-270.771
X403.982Y-115.196
X403.982Y-118.371
X403.982Y-121.546
X403.982Y-124.721
X403.982Y-127.896
X403.982Y-131.071
X403.982Y-134.246
X403.982Y-137.421
X403.982Y-140.596
X403.982Y-143.771
X403.982Y-146.946
X403.982Y-150.121
X403.982Y-153.296
X403.982Y-156.471
X403.982Y-159.646
X403.982Y-162.821
X403.982Y-165.996
X403.982Y-169.171
X403.982Y-172.346
X403.982Y-175.521
X403.982Y-178.696
X403.982Y-181.871
X403.982Y-185.046
X403.982Y-188.221
X403.982Y-191.396
X403.982Y-194.571
X403.982Y-197.746
X403.982Y-200.921
X403.982Y-204.096
X403.982Y-207.271
X403.982Y-210.446
X403.982Y-213.621
X403.982Y-216.796
X403.982Y-219.971
X403.982Y-223.146
X403.982Y-226.321
X403.982Y-229.496
X403.982Y-232.671
X403.982Y-235.846
X403.982Y-239.021
X403.982Y-242.196
X403.982Y-245.371
X403.982Y-248.546
X403.982Y-251.721
X403.982Y-254.896
X403.982Y-258.071
X403.982Y-261.246
X403.982Y-264.421
X403.982Y-267.596
X403.982Y-270.771
X410.332Y-115.196
X410.332Y-118.371
X410.332Y-121.546
X410.332Y-124.721
X410.332Y-127.896
X410.332Y-131.071
X410.332Y-134.246
X410.332Y-137.421
X410.332Y-140.596
X410.332Y-143.771
X410.332Y-146.946
X410.332Y-150.121
X410.332Y-153.296
X410.332Y-156.471
X410.332Y-159.646
X410.332Y-162.821
X410.332Y-165.996
X410.332Y-169.171
X410.332Y-172.346
X410.332Y-175.521
X410.332Y-178.696
X410.332Y-181.871
X410.332Y-185.046
X410.332Y-188.221
X410.332Y-191.396
X410.332Y-194.571
X410.332Y-197.746
X410.332Y-200.921
X410.332Y-204.096
X410.332Y-207.271
X410.332Y-210.446
X410.332Y-213.621
X410.332Y-216.796
X410.332Y-219.971
X410.332Y-223.146
X410.332Y-226.321
X410.332Y-229.496
X410.332Y-232.671
X410.332Y-235.846
X410.332Y-239.021
X410.332Y-242.196
X410.332Y-245.371
X410.332Y-248.546
X410.332Y-251.721
X410.332Y-254.896
X410.332Y-258.071
X410.332Y-261.246
X410.332Y-264.421
X410.332Y-267.596
X410.332Y-270.771
X423.032Y-115.196
X423.032Y-118.371
X423.032Y-121.546
X423.032Y-124.721
X423.032Y-127.896
X423.032Y-131.071
X423.032Y-134.246
X423.032Y-137.421
X423.032Y-140.596
X423.032Y-143.771
X423.032Y-146.946
X423.032Y-150.121
X423.032Y-153.296
X423.032Y-156.471
X423.032Y-159.646
X423.032Y-162.821
X423.032Y-165.996
X423.032Y-169.171
X423.032Y-172.346
X423.032Y-175.521
X423.032Y-178.696
X423.032Y-181.871
X423.032Y-185.046
X423.032Y-188.221
X423.032Y-191.396
X423.032Y-194.571
X423.032Y-197.746
X423.032Y-200.921
X423.032Y-204.096
X423.032Y-207.271
X423.032Y-210.446
X423.032Y-213.621
X423.032Y-216.796
X423.032Y-219.971
X423.032Y-223.146
X423.032Y-226.321
X423.032Y-229.496
X423.032Y-232.671
X423.032Y-235.846
X423.032Y-239.021
X423.032Y-242.196
X423.032Y-245.371
X423.032Y-248.546
X423.032Y-251.721
X423.032Y-254.896
X423.032Y-258.071
X423.032Y-261.246
X423.032Y-264.421
X423.032Y-267.596
X423.032Y-270.771
X429.382Y-115.196
X429.382Y-118.371
X429.382Y-121.546
X429.382Y-124.721
X429.382Y-127.896
X429.382Y-131.071
X429.382Y-134.246
X429.382Y-137.421
X429.382Y-140.596
X429.382Y-143.771
X429.382Y-146.946
X429.382Y-150.121
X429.382Y-153.296
X429.382Y-156.471
X429.382Y-159.646
X429.382Y-162.821
X429.382Y-165.996
X429.382Y-169.171
X429.382Y-172.346
X429.382Y-175.521
X429.382Y-178.696
X429.382Y-181.871
X429.382Y-185.046
X429.382Y-188.221
X429.382Y-191.396
X429.382Y-194.571
X429.382Y-197.746
X429.382Y-200.921
X429.382Y-204.096
X429.382Y-207.271
X429.382Y-210.446
X429.382Y-213.621
X429.382Y-216.796
X429.382Y-219.971
X429.382Y-223.146
X429.382Y-226.321
X429.382Y-229.496
X429.382Y-232.671
X429.382Y-235.846
X429.382Y-239.021
X429.382Y-242.196
X429.382Y-245.371
X429.382Y-248.546
X429.382Y-251.721
X429.382Y-254.896
X429.382Y-258.071
X429.382Y-261.246
X429.382Y-264.421
X429.382Y-267.596
X429.382Y-270.771
X442.082Y-115.196
X442.082Y-118.371
X442.082Y-121.546
X442.082Y-124.721
X442.082Y-127.896
X442.082Y-131.071
X442.082Y-134.246
X442.082Y-137.421
X442.082Y-140.596
X442.082Y-143.771
X442.082Y-146.946
X442.082Y-150.121
X442.082Y-153.296
X442.082Y-156.471
X442.082Y-159.646
X442.082Y-162.821
X442.082Y-165.996
X442.082Y-169.171
X442.082Y-172.346
X442.082Y-175.521
X442.082Y-178.696
X442.082Y-181.871
X442.082Y-185.046
X442.082Y-188.221
X442.082Y-191.396
X442.082Y-194.571
X442.082Y-197.746
X442.082Y-200.921
X442.082Y-204.096
X442.082Y-207.271
X442.082Y-210.446
X442.082Y-213.621
X442.082Y-216.796
X442.082Y-219.971
X442.082Y-223.146
X442.082Y-226.321
X442.082Y-229.496
X442.082Y-232.671
X442.082Y-235.846
X442.082Y-239.021
X442.082Y-242.196
X442.082Y-245.371
X442.082Y-248.546
X442.082Y-251.721
X442.082Y-254.896
X442.082Y-258.071
X442.082Y-261.246
X442.082Y-264.421
X442.082Y-267.596
X442.082Y-270.771
X448.432Y-115.196
X448.432Y-118.371
X448.432Y-121.546
X448.432Y-124.721
X448.432Y-127.896
X448.432Y-131.071
X448.432Y-134.246
X448.432Y-137.421
X448.432Y-140.596
X448.432Y-143.771
X448.432Y-146.946
X448.432Y-150.121
X448.432Y-153.296
X448.432Y-156.471
X448.432Y-159.646
X448.432Y-162.821
X448.432Y-165.996
X448.432Y-169.171
X448.432Y-172.346
X448.432Y-175.521
X448.432Y-178.696
X448.432Y-181.871
X448.432Y-185.046
X448.432Y-188.221
X448.432Y-191.396
X448.432Y-194.571
X448.432Y-197.746
X448.432Y-200.921
X448.432Y-204.096
X448.432Y-207.271
X448.432Y-210.446
X448.432Y-213.621
X448.432Y-216.796
X448.432Y-219.971
X448.432Y-223.146
X448.432Y-226.321
X448.432Y-229.496
X448.432Y-232.671
X448.432Y-235.846
X448.432Y-239.021
X448.432Y-242.196
X448.432Y-245.371
X448.432Y-248.546
X448.432Y-251.721
X448.432Y-254.896
X448.432Y-258.071
X448.432Y-261.246
X448.432Y-264.421
X448.432Y-267.596
X448.432Y-270.771
X461.132Y-115.196
X461.132Y-118.371
X461.132Y-121.546
X461.132Y-124.721
X461.132Y-127.896
X461.132Y-131.071
X461.132Y-134.246
X461.132Y-137.421
X461.132Y-140.596
X461.132Y-143.771
X461.132Y-146.946
X461.132Y-150.121
X461.132Y-153.296
X461.132Y-156.471
X461.132Y-159.646
X461.132Y-162.821
X461.132Y-165.996
X461.132Y-169.171
X461.132Y-172.346
X461.132Y-175.521
X461.132Y-178.696
X461.132Y-181.871
X461.132Y-185.046
X461.132Y-188.221
X461.132Y-191.396
X461.132Y-194.571
X461.132Y-197.746
X461.132Y-200.921
X461.132Y-204.096
X461.132Y-207.271
X461.132Y-210.446
X461.132Y-213.621
X461.132Y-216.796
X461.132Y-219.971
X461.132Y-223.146
X461.132Y-226.321
X461.132Y-229.496
X461.132Y-232.671
X461.132Y-235.846
X461.132Y-239.021
X461.132Y-242.196
X461.132Y-245.371
X461.132Y-248.546
X461.132Y-251.721
X461.132Y-254.896
X461.132Y-258.071
X461.132Y-261.246
X461.132Y-264.421
X461.132Y-267.596
X461.132Y-270.771
X467.482Y-115.196
X467.482Y-118.371
X467.482Y-121.546
X467.482Y-124.721
X467.482Y-127.896
X467.482Y-131.071
X467.482Y-134.246
X467.482Y-137.421
X467.482Y-140.596
X467.482Y-143.771
X467.482Y-146.946
X467.482Y-150.121
X467.482Y-153.296
X467.482Y-156.471
X467.482Y-159.646
X467.482Y-162.821
X467.482Y-165.996
X467.482Y-169.171
X467.482Y-172.346
X467.482Y-175.521
X467.482Y-178.696
X467.482Y-181.871
X467.482Y-185.046
X467.482Y-188.221
X467.482Y-191.396
X467.482Y-194.571
X467.482Y-197.746
X467.482Y-200.921
X467.482Y-204.096
X467.482Y-207.271
X467.482Y-210.446
X467.482Y-213.621
X467.482Y-216.796
X467.482Y-219.971
X467.482Y-223.146
X467.482Y-226.321
X467.482Y-229.496
X467.482Y-232.671
X467.482Y-235.846
X467.482Y-239.021
X467.482Y-242.196
X467.482Y-245.371
X467.482Y-248.546
X467.482Y-251.721
X467.482Y-254.896
X467.482Y-258.071
X467.482Y-261.246
X467.482Y-264.421
X467.482Y-267.596
X467.482Y-270.771
X479.171Y-159.004
X479.171Y-161.544
X479.171Y-164.084
T3
X499.364Y-237.109
X499.364Y-239.649
X499.364Y-242.189
X499.389Y-156.185
X499.389Y-158.725
X499.389Y-161.265
X499.491Y-190.373
X499.491Y-192.913
X499.491Y-195.453
T4
X509.016Y-112.903
X509.016Y-121.158
X509.016Y-129.413
X509.016Y-137.668
T5
X130.937Y-106.68
X130.937Y-279.222
X169.037Y-106.68
X169.037Y-279.222
X207.137Y-106.68
X207.137Y-279.222
X245.237Y-106.68
X245.237Y-279.222
X283.337Y-106.68
X283.337Y-279.222
X321.437Y-106.68
X321.437Y-279.222
X359.512Y-279.197
X359.537Y-106.68
X397.637Y-106.68
X397.637Y-279.222
X435.737Y-106.68
X435.737Y-279.273
X473.837Y-106.68
X474.624Y-279.222
X499.237Y-106.68
X499.237Y-279.222
X515.874Y-239.649
X515.899Y-158.725
X516.001Y-192.913
T6
X140.457Y-106.687
X140.457Y-279.28
X159.507Y-106.687
X159.507Y-279.28
X178.557Y-106.687
X178.557Y-279.28
X197.607Y-106.687
X197.607Y-279.28
X216.657Y-106.687
X216.657Y-279.28
X235.707Y-106.687
X235.707Y-279.28
X254.757Y-106.687
X254.757Y-279.28
X273.807Y-106.687
X273.807Y-279.28
X292.857Y-106.687
X292.857Y-279.28
X311.907Y-106.687
X311.907Y-279.28
X330.957Y-106.687
X330.957Y-279.28
X350.007Y-106.687
X350.007Y-279.28
X369.057Y-106.687
X369.057Y-279.28
X388.107Y-106.687
X388.107Y-279.28
X407.157Y-106.687
X407.157Y-279.28
X426.207Y-106.687
X426.207Y-279.28
X445.257Y-106.687
X445.257Y-279.28
X464.307Y-106.687
X464.307Y-279.28
T0
M30
