G04 (created by PCBNEW (2013-07-07 BZR 4022)-stable) date 9/8/2013 11:51:43 PM*
%MOIN*%
G04 Gerber Fmt 3.4, Leading zero omitted, Abs format*
%FSLAX34Y34*%
G01*
G70*
G90*
G04 APERTURE LIST*
%ADD10C,0.00590551*%
%ADD11C,0.18*%
%ADD12C,0.09*%
%ADD13R,0.09X0.09*%
%ADD14R,0.37X0.37*%
%ADD15R,0.075X0.075*%
%ADD16C,0.075*%
%ADD17R,0.08X0.08*%
%ADD18C,0.08*%
%ADD19C,0.188*%
%ADD20R,0.0396X0.079*%
%ADD21R,0.079X0.0396*%
%ADD22R,0.05X0.08*%
%ADD23R,0.08X0.05*%
%ADD24R,0.0672X0.0672*%
%ADD25C,0.072*%
%ADD26C,0.086*%
%ADD27C,0.14*%
%ADD28C,0.1224*%
%ADD29R,0.1224X0.1224*%
%ADD30C,0.157795*%
%ADD31R,0.11X0.082*%
%ADD32O,0.11X0.082*%
%ADD33C,0.1893*%
%ADD34R,0.32X0.09*%
%ADD35R,0.1893X0.0869*%
%ADD36O,0.1893X0.0869*%
%ADD37R,0.045X0.095*%
%ADD38C,0.0791*%
%ADD39C,0.1381*%
%ADD40R,0.0357X0.079*%
G04 APERTURE END LIST*
G54D10*
G54D11*
X163750Y-35700D03*
G54D12*
X173830Y-66520D03*
G54D13*
X173830Y-64520D03*
G54D12*
X173830Y-65520D03*
G54D14*
X180330Y-65520D03*
G54D13*
X173810Y-55190D03*
G54D12*
X173810Y-56190D03*
X173810Y-57190D03*
G54D14*
X180310Y-56190D03*
G54D11*
X133750Y-35700D03*
X133750Y-103629D03*
X103750Y-103629D03*
X103750Y-35700D03*
G54D15*
X169100Y-81429D03*
G54D16*
X169100Y-82429D03*
X169100Y-83429D03*
X169100Y-84429D03*
X172100Y-84429D03*
X172100Y-83429D03*
X172100Y-82429D03*
X172100Y-81429D03*
G54D17*
X166600Y-86179D03*
G54D18*
X167600Y-86179D03*
G54D17*
X166600Y-79950D03*
G54D18*
X167600Y-79950D03*
G54D17*
X168800Y-68370D03*
G54D18*
X169800Y-68370D03*
G54D17*
X166600Y-75179D03*
G54D18*
X167600Y-75179D03*
G54D17*
X165500Y-64379D03*
G54D18*
X166500Y-64379D03*
G54D17*
X165800Y-51400D03*
G54D18*
X166800Y-51400D03*
G54D17*
X165800Y-40300D03*
G54D18*
X166800Y-40300D03*
G54D17*
X171270Y-73860D03*
G54D18*
X170270Y-73860D03*
G54D16*
X167300Y-69250D03*
X167300Y-66250D03*
X172140Y-70140D03*
X175140Y-70140D03*
X166850Y-45900D03*
X166850Y-48900D03*
X167790Y-90990D03*
X170790Y-90990D03*
X172680Y-63720D03*
X169680Y-63720D03*
X173750Y-79400D03*
X173750Y-76400D03*
X178269Y-80985D03*
X178269Y-77985D03*
X179279Y-77985D03*
X179279Y-80985D03*
X180279Y-77985D03*
X180279Y-80985D03*
G54D14*
X180300Y-73600D03*
G54D12*
X173800Y-72600D03*
G54D13*
X173800Y-73600D03*
G54D12*
X173800Y-74600D03*
G54D16*
X163000Y-96000D03*
X166000Y-96000D03*
X163000Y-98979D03*
X166000Y-98979D03*
X163000Y-96979D03*
X166000Y-96979D03*
X163000Y-97979D03*
X166000Y-97979D03*
G54D15*
X164000Y-41379D03*
G54D16*
X164000Y-42379D03*
X164000Y-43379D03*
X164000Y-44379D03*
X164000Y-45379D03*
X164000Y-46379D03*
X164000Y-47379D03*
X164000Y-48379D03*
X164000Y-49379D03*
X164000Y-50379D03*
G54D15*
X164000Y-52379D03*
G54D16*
X164000Y-53379D03*
X164000Y-54379D03*
X164000Y-55379D03*
X164000Y-56379D03*
X164000Y-57379D03*
X164000Y-58379D03*
X164000Y-59379D03*
X164000Y-60379D03*
X164000Y-61379D03*
G54D15*
X164000Y-63379D03*
G54D16*
X164000Y-64379D03*
X164000Y-65379D03*
X164000Y-66379D03*
X164000Y-67379D03*
X164000Y-68379D03*
X164000Y-69379D03*
X164000Y-70379D03*
X164000Y-71379D03*
X164000Y-72379D03*
G54D15*
X164000Y-74379D03*
G54D16*
X164000Y-75379D03*
X164000Y-76379D03*
X164000Y-77379D03*
X164000Y-78379D03*
X164000Y-79379D03*
X164000Y-80379D03*
X164000Y-81379D03*
X164000Y-82379D03*
X164000Y-83379D03*
G54D15*
X164000Y-85379D03*
G54D16*
X164000Y-86379D03*
X164000Y-87379D03*
X164000Y-88379D03*
X164000Y-89379D03*
X164000Y-90379D03*
X164000Y-91379D03*
X164000Y-92379D03*
X164000Y-93379D03*
X164000Y-94379D03*
G54D15*
X163000Y-41379D03*
G54D16*
X163000Y-42379D03*
X163000Y-43379D03*
X163000Y-44379D03*
X163000Y-45379D03*
X163000Y-46379D03*
X163000Y-47379D03*
X163000Y-48379D03*
X163000Y-49379D03*
X163000Y-50379D03*
G54D15*
X163000Y-52379D03*
G54D16*
X163000Y-53379D03*
X163000Y-54379D03*
X163000Y-55379D03*
X163000Y-56379D03*
X163000Y-57379D03*
X163000Y-58379D03*
X163000Y-59379D03*
X163000Y-60379D03*
X163000Y-61379D03*
G54D15*
X163000Y-63379D03*
G54D16*
X163000Y-64379D03*
X163000Y-65379D03*
X163000Y-66379D03*
X163000Y-67379D03*
X163000Y-68379D03*
X163000Y-69379D03*
X163000Y-70379D03*
X163000Y-71379D03*
X163000Y-72379D03*
G54D15*
X163000Y-74379D03*
G54D16*
X163000Y-75379D03*
X163000Y-76379D03*
X163000Y-77379D03*
X163000Y-78379D03*
X163000Y-79379D03*
X163000Y-80379D03*
X163000Y-81379D03*
X163000Y-82379D03*
X163000Y-83379D03*
G54D15*
X163000Y-85379D03*
G54D16*
X163000Y-86379D03*
X163000Y-87379D03*
X163000Y-88379D03*
X163000Y-89379D03*
X163000Y-90379D03*
X163000Y-91379D03*
X163000Y-92379D03*
X163000Y-93379D03*
X163000Y-94379D03*
G54D11*
X164060Y-103630D03*
G54D17*
X165850Y-56300D03*
G54D18*
X165850Y-57300D03*
X165850Y-58300D03*
G54D16*
X169850Y-52900D03*
X169850Y-49900D03*
X171050Y-49900D03*
X171050Y-52900D03*
X172050Y-44850D03*
X172050Y-46850D03*
X169050Y-44850D03*
X169050Y-46850D03*
G54D15*
X171000Y-48750D03*
G54D16*
X170000Y-48750D03*
G54D15*
X166400Y-43300D03*
G54D16*
X165400Y-43300D03*
G54D15*
X166300Y-61900D03*
G54D16*
X165300Y-61900D03*
G54D15*
X166300Y-60000D03*
G54D16*
X165300Y-60000D03*
G54D18*
X48748Y-39052D03*
G54D17*
X46248Y-39052D03*
G54D18*
X48748Y-45302D03*
X46248Y-40302D03*
X48748Y-46552D03*
X46248Y-41552D03*
X48748Y-47802D03*
X46248Y-42802D03*
X48748Y-49052D03*
X46248Y-44052D03*
X48748Y-50302D03*
X46248Y-45302D03*
X48748Y-51552D03*
X46248Y-46552D03*
X48748Y-52802D03*
X46248Y-47802D03*
X48748Y-54052D03*
X46248Y-49052D03*
X48748Y-55302D03*
X46248Y-50302D03*
X48748Y-56552D03*
X46248Y-51552D03*
X48748Y-57802D03*
X46248Y-52802D03*
X46248Y-54052D03*
X48748Y-59052D03*
X46248Y-55302D03*
X46248Y-57802D03*
X46248Y-59052D03*
X46248Y-60302D03*
X46248Y-61552D03*
X48748Y-60302D03*
X48748Y-61552D03*
X48748Y-40302D03*
X48748Y-41552D03*
X48748Y-42802D03*
X48748Y-44052D03*
X48748Y-62802D03*
X46248Y-62802D03*
X46248Y-56552D03*
X46248Y-64052D03*
X48748Y-64052D03*
X46248Y-65302D03*
X48748Y-65302D03*
X46248Y-66552D03*
X48748Y-66552D03*
X46248Y-67802D03*
X48748Y-67802D03*
X46248Y-69052D03*
X48748Y-69052D03*
X46248Y-70302D03*
X48748Y-70302D03*
X46248Y-71552D03*
X48748Y-71552D03*
X46248Y-72802D03*
X48748Y-72802D03*
X46248Y-74052D03*
X48748Y-74052D03*
X46248Y-75302D03*
X48748Y-75302D03*
X46248Y-76552D03*
X48748Y-76552D03*
X46248Y-77802D03*
X48748Y-77802D03*
X46248Y-79052D03*
X48748Y-79052D03*
X46248Y-80302D03*
X48748Y-80302D03*
X46248Y-81552D03*
X48748Y-81552D03*
X46248Y-82802D03*
X48748Y-82802D03*
X46248Y-84052D03*
X48748Y-84052D03*
X46248Y-85302D03*
X48748Y-85302D03*
X46248Y-86552D03*
X48748Y-86552D03*
X46248Y-87802D03*
X48748Y-87802D03*
X46248Y-89052D03*
X48748Y-89052D03*
X46248Y-90302D03*
X48748Y-90302D03*
X46248Y-91552D03*
X48748Y-91552D03*
X46248Y-92802D03*
X48748Y-92802D03*
X46248Y-94052D03*
X48748Y-94052D03*
X46248Y-95302D03*
X48748Y-95302D03*
X46248Y-96552D03*
X48748Y-96552D03*
X46248Y-97802D03*
X48748Y-97802D03*
X46248Y-99052D03*
X48748Y-99052D03*
X46248Y-100302D03*
X48748Y-100302D03*
G54D19*
X47498Y-103652D03*
X47498Y-35702D03*
G54D18*
X56248Y-39052D03*
G54D17*
X53748Y-39052D03*
G54D18*
X56248Y-45302D03*
X53748Y-40302D03*
X56248Y-46552D03*
X53748Y-41552D03*
X56248Y-47802D03*
X53748Y-42802D03*
X56248Y-49052D03*
X53748Y-44052D03*
X56248Y-50302D03*
X53748Y-45302D03*
X56248Y-51552D03*
X53748Y-46552D03*
X56248Y-52802D03*
X53748Y-47802D03*
X56248Y-54052D03*
X53748Y-49052D03*
X56248Y-55302D03*
X53748Y-50302D03*
X56248Y-56552D03*
X53748Y-51552D03*
X56248Y-57802D03*
X53748Y-52802D03*
X53748Y-54052D03*
X56248Y-59052D03*
X53748Y-55302D03*
X53748Y-57802D03*
X53748Y-59052D03*
X53748Y-60302D03*
X53748Y-61552D03*
X56248Y-60302D03*
X56248Y-61552D03*
X56248Y-40302D03*
X56248Y-41552D03*
X56248Y-42802D03*
X56248Y-44052D03*
X56248Y-62802D03*
X53748Y-62802D03*
X53748Y-56552D03*
X53748Y-64052D03*
X56248Y-64052D03*
X53748Y-65302D03*
X56248Y-65302D03*
X53748Y-66552D03*
X56248Y-66552D03*
X53748Y-67802D03*
X56248Y-67802D03*
X53748Y-69052D03*
X56248Y-69052D03*
X53748Y-70302D03*
X56248Y-70302D03*
X53748Y-71552D03*
X56248Y-71552D03*
X53748Y-72802D03*
X56248Y-72802D03*
X53748Y-74052D03*
X56248Y-74052D03*
X53748Y-75302D03*
X56248Y-75302D03*
X53748Y-76552D03*
X56248Y-76552D03*
X53748Y-77802D03*
X56248Y-77802D03*
X53748Y-79052D03*
X56248Y-79052D03*
X53748Y-80302D03*
X56248Y-80302D03*
X53748Y-81552D03*
X56248Y-81552D03*
X53748Y-82802D03*
X56248Y-82802D03*
X53748Y-84052D03*
X56248Y-84052D03*
X53748Y-85302D03*
X56248Y-85302D03*
X53748Y-86552D03*
X56248Y-86552D03*
X53748Y-87802D03*
X56248Y-87802D03*
X53748Y-89052D03*
X56248Y-89052D03*
X53748Y-90302D03*
X56248Y-90302D03*
X53748Y-91552D03*
X56248Y-91552D03*
X53748Y-92802D03*
X56248Y-92802D03*
X53748Y-94052D03*
X56248Y-94052D03*
X53748Y-95302D03*
X56248Y-95302D03*
X53748Y-96552D03*
X56248Y-96552D03*
X53748Y-97802D03*
X56248Y-97802D03*
X53748Y-99052D03*
X56248Y-99052D03*
X53748Y-100302D03*
X56248Y-100302D03*
G54D19*
X54998Y-103652D03*
X54998Y-35702D03*
G54D18*
X63748Y-39052D03*
G54D17*
X61248Y-39052D03*
G54D18*
X63748Y-45302D03*
X61248Y-40302D03*
X63748Y-46552D03*
X61248Y-41552D03*
X63748Y-47802D03*
X61248Y-42802D03*
X63748Y-49052D03*
X61248Y-44052D03*
X63748Y-50302D03*
X61248Y-45302D03*
X63748Y-51552D03*
X61248Y-46552D03*
X63748Y-52802D03*
X61248Y-47802D03*
X63748Y-54052D03*
X61248Y-49052D03*
X63748Y-55302D03*
X61248Y-50302D03*
X63748Y-56552D03*
X61248Y-51552D03*
X63748Y-57802D03*
X61248Y-52802D03*
X61248Y-54052D03*
X63748Y-59052D03*
X61248Y-55302D03*
X61248Y-57802D03*
X61248Y-59052D03*
X61248Y-60302D03*
X61248Y-61552D03*
X63748Y-60302D03*
X63748Y-61552D03*
X63748Y-40302D03*
X63748Y-41552D03*
X63748Y-42802D03*
X63748Y-44052D03*
X63748Y-62802D03*
X61248Y-62802D03*
X61248Y-56552D03*
X61248Y-64052D03*
X63748Y-64052D03*
X61248Y-65302D03*
X63748Y-65302D03*
X61248Y-66552D03*
X63748Y-66552D03*
X61248Y-67802D03*
X63748Y-67802D03*
X61248Y-69052D03*
X63748Y-69052D03*
X61248Y-70302D03*
X63748Y-70302D03*
X61248Y-71552D03*
X63748Y-71552D03*
X61248Y-72802D03*
X63748Y-72802D03*
X61248Y-74052D03*
X63748Y-74052D03*
X61248Y-75302D03*
X63748Y-75302D03*
X61248Y-76552D03*
X63748Y-76552D03*
X61248Y-77802D03*
X63748Y-77802D03*
X61248Y-79052D03*
X63748Y-79052D03*
X61248Y-80302D03*
X63748Y-80302D03*
X61248Y-81552D03*
X63748Y-81552D03*
X61248Y-82802D03*
X63748Y-82802D03*
X61248Y-84052D03*
X63748Y-84052D03*
X61248Y-85302D03*
X63748Y-85302D03*
X61248Y-86552D03*
X63748Y-86552D03*
X61248Y-87802D03*
X63748Y-87802D03*
X61248Y-89052D03*
X63748Y-89052D03*
X61248Y-90302D03*
X63748Y-90302D03*
X61248Y-91552D03*
X63748Y-91552D03*
X61248Y-92802D03*
X63748Y-92802D03*
X61248Y-94052D03*
X63748Y-94052D03*
X61248Y-95302D03*
X63748Y-95302D03*
X61248Y-96552D03*
X63748Y-96552D03*
X61248Y-97802D03*
X63748Y-97802D03*
X61248Y-99052D03*
X63748Y-99052D03*
X61248Y-100302D03*
X63748Y-100302D03*
G54D19*
X62498Y-103652D03*
X62498Y-35702D03*
G54D18*
X71248Y-39052D03*
G54D17*
X68748Y-39052D03*
G54D18*
X71248Y-45302D03*
X68748Y-40302D03*
X71248Y-46552D03*
X68748Y-41552D03*
X71248Y-47802D03*
X68748Y-42802D03*
X71248Y-49052D03*
X68748Y-44052D03*
X71248Y-50302D03*
X68748Y-45302D03*
X71248Y-51552D03*
X68748Y-46552D03*
X71248Y-52802D03*
X68748Y-47802D03*
X71248Y-54052D03*
X68748Y-49052D03*
X71248Y-55302D03*
X68748Y-50302D03*
X71248Y-56552D03*
X68748Y-51552D03*
X71248Y-57802D03*
X68748Y-52802D03*
X68748Y-54052D03*
X71248Y-59052D03*
X68748Y-55302D03*
X68748Y-57802D03*
X68748Y-59052D03*
X68748Y-60302D03*
X68748Y-61552D03*
X71248Y-60302D03*
X71248Y-61552D03*
X71248Y-40302D03*
X71248Y-41552D03*
X71248Y-42802D03*
X71248Y-44052D03*
X71248Y-62802D03*
X68748Y-62802D03*
X68748Y-56552D03*
X68748Y-64052D03*
X71248Y-64052D03*
X68748Y-65302D03*
X71248Y-65302D03*
X68748Y-66552D03*
X71248Y-66552D03*
X68748Y-67802D03*
X71248Y-67802D03*
X68748Y-69052D03*
X71248Y-69052D03*
X68748Y-70302D03*
X71248Y-70302D03*
X68748Y-71552D03*
X71248Y-71552D03*
X68748Y-72802D03*
X71248Y-72802D03*
X68748Y-74052D03*
X71248Y-74052D03*
X68748Y-75302D03*
X71248Y-75302D03*
X68748Y-76552D03*
X71248Y-76552D03*
X68748Y-77802D03*
X71248Y-77802D03*
X68748Y-79052D03*
X71248Y-79052D03*
X68748Y-80302D03*
X71248Y-80302D03*
X68748Y-81552D03*
X71248Y-81552D03*
X68748Y-82802D03*
X71248Y-82802D03*
X68748Y-84052D03*
X71248Y-84052D03*
X68748Y-85302D03*
X71248Y-85302D03*
X68748Y-86552D03*
X71248Y-86552D03*
X68748Y-87802D03*
X71248Y-87802D03*
X68748Y-89052D03*
X71248Y-89052D03*
X68748Y-90302D03*
X71248Y-90302D03*
X68748Y-91552D03*
X71248Y-91552D03*
X68748Y-92802D03*
X71248Y-92802D03*
X68748Y-94052D03*
X71248Y-94052D03*
X68748Y-95302D03*
X71248Y-95302D03*
X68748Y-96552D03*
X71248Y-96552D03*
X68748Y-97802D03*
X71248Y-97802D03*
X68748Y-99052D03*
X71248Y-99052D03*
X68748Y-100302D03*
X71248Y-100302D03*
G54D19*
X69998Y-103652D03*
X69998Y-35702D03*
G54D18*
X78748Y-39052D03*
G54D17*
X76248Y-39052D03*
G54D18*
X78748Y-45302D03*
X76248Y-40302D03*
X78748Y-46552D03*
X76248Y-41552D03*
X78748Y-47802D03*
X76248Y-42802D03*
X78748Y-49052D03*
X76248Y-44052D03*
X78748Y-50302D03*
X76248Y-45302D03*
X78748Y-51552D03*
X76248Y-46552D03*
X78748Y-52802D03*
X76248Y-47802D03*
X78748Y-54052D03*
X76248Y-49052D03*
X78748Y-55302D03*
X76248Y-50302D03*
X78748Y-56552D03*
X76248Y-51552D03*
X78748Y-57802D03*
X76248Y-52802D03*
X76248Y-54052D03*
X78748Y-59052D03*
X76248Y-55302D03*
X76248Y-57802D03*
X76248Y-59052D03*
X76248Y-60302D03*
X76248Y-61552D03*
X78748Y-60302D03*
X78748Y-61552D03*
X78748Y-40302D03*
X78748Y-41552D03*
X78748Y-42802D03*
X78748Y-44052D03*
X78748Y-62802D03*
X76248Y-62802D03*
X76248Y-56552D03*
X76248Y-64052D03*
X78748Y-64052D03*
X76248Y-65302D03*
X78748Y-65302D03*
X76248Y-66552D03*
X78748Y-66552D03*
X76248Y-67802D03*
X78748Y-67802D03*
X76248Y-69052D03*
X78748Y-69052D03*
X76248Y-70302D03*
X78748Y-70302D03*
X76248Y-71552D03*
X78748Y-71552D03*
X76248Y-72802D03*
X78748Y-72802D03*
X76248Y-74052D03*
X78748Y-74052D03*
X76248Y-75302D03*
X78748Y-75302D03*
X76248Y-76552D03*
X78748Y-76552D03*
X76248Y-77802D03*
X78748Y-77802D03*
X76248Y-79052D03*
X78748Y-79052D03*
X76248Y-80302D03*
X78748Y-80302D03*
X76248Y-81552D03*
X78748Y-81552D03*
X76248Y-82802D03*
X78748Y-82802D03*
X76248Y-84052D03*
X78748Y-84052D03*
X76248Y-85302D03*
X78748Y-85302D03*
X76248Y-86552D03*
X78748Y-86552D03*
X76248Y-87802D03*
X78748Y-87802D03*
X76248Y-89052D03*
X78748Y-89052D03*
X76248Y-90302D03*
X78748Y-90302D03*
X76248Y-91552D03*
X78748Y-91552D03*
X76248Y-92802D03*
X78748Y-92802D03*
X76248Y-94052D03*
X78748Y-94052D03*
X76248Y-95302D03*
X78748Y-95302D03*
X76248Y-96552D03*
X78748Y-96552D03*
X76248Y-97802D03*
X78748Y-97802D03*
X76248Y-99052D03*
X78748Y-99052D03*
X76248Y-100302D03*
X78748Y-100302D03*
G54D19*
X77498Y-103652D03*
X77498Y-35702D03*
G54D18*
X86248Y-39052D03*
G54D17*
X83748Y-39052D03*
G54D18*
X86248Y-45302D03*
X83748Y-40302D03*
X86248Y-46552D03*
X83748Y-41552D03*
X86248Y-47802D03*
X83748Y-42802D03*
X86248Y-49052D03*
X83748Y-44052D03*
X86248Y-50302D03*
X83748Y-45302D03*
X86248Y-51552D03*
X83748Y-46552D03*
X86248Y-52802D03*
X83748Y-47802D03*
X86248Y-54052D03*
X83748Y-49052D03*
X86248Y-55302D03*
X83748Y-50302D03*
X86248Y-56552D03*
X83748Y-51552D03*
X86248Y-57802D03*
X83748Y-52802D03*
X83748Y-54052D03*
X86248Y-59052D03*
X83748Y-55302D03*
X83748Y-57802D03*
X83748Y-59052D03*
X83748Y-60302D03*
X83748Y-61552D03*
X86248Y-60302D03*
X86248Y-61552D03*
X86248Y-40302D03*
X86248Y-41552D03*
X86248Y-42802D03*
X86248Y-44052D03*
X86248Y-62802D03*
X83748Y-62802D03*
X83748Y-56552D03*
X83748Y-64052D03*
X86248Y-64052D03*
X83748Y-65302D03*
X86248Y-65302D03*
X83748Y-66552D03*
X86248Y-66552D03*
X83748Y-67802D03*
X86248Y-67802D03*
X83748Y-69052D03*
X86248Y-69052D03*
X83748Y-70302D03*
X86248Y-70302D03*
X83748Y-71552D03*
X86248Y-71552D03*
X83748Y-72802D03*
X86248Y-72802D03*
X83748Y-74052D03*
X86248Y-74052D03*
X83748Y-75302D03*
X86248Y-75302D03*
X83748Y-76552D03*
X86248Y-76552D03*
X83748Y-77802D03*
X86248Y-77802D03*
X83748Y-79052D03*
X86248Y-79052D03*
X83748Y-80302D03*
X86248Y-80302D03*
X83748Y-81552D03*
X86248Y-81552D03*
X83748Y-82802D03*
X86248Y-82802D03*
X83748Y-84052D03*
X86248Y-84052D03*
X83748Y-85302D03*
X86248Y-85302D03*
X83748Y-86552D03*
X86248Y-86552D03*
X83748Y-87802D03*
X86248Y-87802D03*
X83748Y-89052D03*
X86248Y-89052D03*
X83748Y-90302D03*
X86248Y-90302D03*
X83748Y-91552D03*
X86248Y-91552D03*
X83748Y-92802D03*
X86248Y-92802D03*
X83748Y-94052D03*
X86248Y-94052D03*
X83748Y-95302D03*
X86248Y-95302D03*
X83748Y-96552D03*
X86248Y-96552D03*
X83748Y-97802D03*
X86248Y-97802D03*
X83748Y-99052D03*
X86248Y-99052D03*
X83748Y-100302D03*
X86248Y-100302D03*
G54D19*
X84998Y-103652D03*
X84998Y-35702D03*
G54D18*
X93748Y-39052D03*
G54D17*
X91248Y-39052D03*
G54D18*
X93748Y-45302D03*
X91248Y-40302D03*
X93748Y-46552D03*
X91248Y-41552D03*
X93748Y-47802D03*
X91248Y-42802D03*
X93748Y-49052D03*
X91248Y-44052D03*
X93748Y-50302D03*
X91248Y-45302D03*
X93748Y-51552D03*
X91248Y-46552D03*
X93748Y-52802D03*
X91248Y-47802D03*
X93748Y-54052D03*
X91248Y-49052D03*
X93748Y-55302D03*
X91248Y-50302D03*
X93748Y-56552D03*
X91248Y-51552D03*
X93748Y-57802D03*
X91248Y-52802D03*
X91248Y-54052D03*
X93748Y-59052D03*
X91248Y-55302D03*
X91248Y-57802D03*
X91248Y-59052D03*
X91248Y-60302D03*
X91248Y-61552D03*
X93748Y-60302D03*
X93748Y-61552D03*
X93748Y-40302D03*
X93748Y-41552D03*
X93748Y-42802D03*
X93748Y-44052D03*
X93748Y-62802D03*
X91248Y-62802D03*
X91248Y-56552D03*
X91248Y-64052D03*
X93748Y-64052D03*
X91248Y-65302D03*
X93748Y-65302D03*
X91248Y-66552D03*
X93748Y-66552D03*
X91248Y-67802D03*
X93748Y-67802D03*
X91248Y-69052D03*
X93748Y-69052D03*
X91248Y-70302D03*
X93748Y-70302D03*
X91248Y-71552D03*
X93748Y-71552D03*
X91248Y-72802D03*
X93748Y-72802D03*
X91248Y-74052D03*
X93748Y-74052D03*
X91248Y-75302D03*
X93748Y-75302D03*
X91248Y-76552D03*
X93748Y-76552D03*
X91248Y-77802D03*
X93748Y-77802D03*
X91248Y-79052D03*
X93748Y-79052D03*
X91248Y-80302D03*
X93748Y-80302D03*
X91248Y-81552D03*
X93748Y-81552D03*
X91248Y-82802D03*
X93748Y-82802D03*
X91248Y-84052D03*
X93748Y-84052D03*
X91248Y-85302D03*
X93748Y-85302D03*
X91248Y-86552D03*
X93748Y-86552D03*
X91248Y-87802D03*
X93748Y-87802D03*
X91248Y-89052D03*
X93748Y-89052D03*
X91248Y-90302D03*
X93748Y-90302D03*
X91248Y-91552D03*
X93748Y-91552D03*
X91248Y-92802D03*
X93748Y-92802D03*
X91248Y-94052D03*
X93748Y-94052D03*
X91248Y-95302D03*
X93748Y-95302D03*
X91248Y-96552D03*
X93748Y-96552D03*
X91248Y-97802D03*
X93748Y-97802D03*
X91248Y-99052D03*
X93748Y-99052D03*
X91248Y-100302D03*
X93748Y-100302D03*
G54D19*
X92498Y-103652D03*
X92498Y-35702D03*
G54D18*
X101248Y-39052D03*
G54D17*
X98748Y-39052D03*
G54D18*
X101248Y-45302D03*
X98748Y-40302D03*
X101248Y-46552D03*
X98748Y-41552D03*
X101248Y-47802D03*
X98748Y-42802D03*
X101248Y-49052D03*
X98748Y-44052D03*
X101248Y-50302D03*
X98748Y-45302D03*
X101248Y-51552D03*
X98748Y-46552D03*
X101248Y-52802D03*
X98748Y-47802D03*
X101248Y-54052D03*
X98748Y-49052D03*
X101248Y-55302D03*
X98748Y-50302D03*
X101248Y-56552D03*
X98748Y-51552D03*
X101248Y-57802D03*
X98748Y-52802D03*
X98748Y-54052D03*
X101248Y-59052D03*
X98748Y-55302D03*
X98748Y-57802D03*
X98748Y-59052D03*
X98748Y-60302D03*
X98748Y-61552D03*
X101248Y-60302D03*
X101248Y-61552D03*
X101248Y-40302D03*
X101248Y-41552D03*
X101248Y-42802D03*
X101248Y-44052D03*
X101248Y-62802D03*
X98748Y-62802D03*
X98748Y-56552D03*
X98748Y-64052D03*
X101248Y-64052D03*
X98748Y-65302D03*
X101248Y-65302D03*
X98748Y-66552D03*
X101248Y-66552D03*
X98748Y-67802D03*
X101248Y-67802D03*
X98748Y-69052D03*
X101248Y-69052D03*
X98748Y-70302D03*
X101248Y-70302D03*
X98748Y-71552D03*
X101248Y-71552D03*
X98748Y-72802D03*
X101248Y-72802D03*
X98748Y-74052D03*
X101248Y-74052D03*
X98748Y-75302D03*
X101248Y-75302D03*
X98748Y-76552D03*
X101248Y-76552D03*
X98748Y-77802D03*
X101248Y-77802D03*
X98748Y-79052D03*
X101248Y-79052D03*
X98748Y-80302D03*
X101248Y-80302D03*
X98748Y-81552D03*
X101248Y-81552D03*
X98748Y-82802D03*
X101248Y-82802D03*
X98748Y-84052D03*
X101248Y-84052D03*
X98748Y-85302D03*
X101248Y-85302D03*
X98748Y-86552D03*
X101248Y-86552D03*
X98748Y-87802D03*
X101248Y-87802D03*
X98748Y-89052D03*
X101248Y-89052D03*
X98748Y-90302D03*
X101248Y-90302D03*
X98748Y-91552D03*
X101248Y-91552D03*
X98748Y-92802D03*
X101248Y-92802D03*
X98748Y-94052D03*
X101248Y-94052D03*
X98748Y-95302D03*
X101248Y-95302D03*
X98748Y-96552D03*
X101248Y-96552D03*
X98748Y-97802D03*
X101248Y-97802D03*
X98748Y-99052D03*
X101248Y-99052D03*
X98748Y-100302D03*
X101248Y-100302D03*
G54D19*
X99998Y-103652D03*
X99998Y-35702D03*
G54D18*
X108748Y-39052D03*
G54D17*
X106248Y-39052D03*
G54D18*
X108748Y-45302D03*
X106248Y-40302D03*
X108748Y-46552D03*
X106248Y-41552D03*
X108748Y-47802D03*
X106248Y-42802D03*
X108748Y-49052D03*
X106248Y-44052D03*
X108748Y-50302D03*
X106248Y-45302D03*
X108748Y-51552D03*
X106248Y-46552D03*
X108748Y-52802D03*
X106248Y-47802D03*
X108748Y-54052D03*
X106248Y-49052D03*
X108748Y-55302D03*
X106248Y-50302D03*
X108748Y-56552D03*
X106248Y-51552D03*
X108748Y-57802D03*
X106248Y-52802D03*
X106248Y-54052D03*
X108748Y-59052D03*
X106248Y-55302D03*
X106248Y-57802D03*
X106248Y-59052D03*
X106248Y-60302D03*
X106248Y-61552D03*
X108748Y-60302D03*
X108748Y-61552D03*
X108748Y-40302D03*
X108748Y-41552D03*
X108748Y-42802D03*
X108748Y-44052D03*
X108748Y-62802D03*
X106248Y-62802D03*
X106248Y-56552D03*
X106248Y-64052D03*
X108748Y-64052D03*
X106248Y-65302D03*
X108748Y-65302D03*
X106248Y-66552D03*
X108748Y-66552D03*
X106248Y-67802D03*
X108748Y-67802D03*
X106248Y-69052D03*
X108748Y-69052D03*
X106248Y-70302D03*
X108748Y-70302D03*
X106248Y-71552D03*
X108748Y-71552D03*
X106248Y-72802D03*
X108748Y-72802D03*
X106248Y-74052D03*
X108748Y-74052D03*
X106248Y-75302D03*
X108748Y-75302D03*
X106248Y-76552D03*
X108748Y-76552D03*
X106248Y-77802D03*
X108748Y-77802D03*
X106248Y-79052D03*
X108748Y-79052D03*
X106248Y-80302D03*
X108748Y-80302D03*
X106248Y-81552D03*
X108748Y-81552D03*
X106248Y-82802D03*
X108748Y-82802D03*
X106248Y-84052D03*
X108748Y-84052D03*
X106248Y-85302D03*
X108748Y-85302D03*
X106248Y-86552D03*
X108748Y-86552D03*
X106248Y-87802D03*
X108748Y-87802D03*
X106248Y-89052D03*
X108748Y-89052D03*
X106248Y-90302D03*
X108748Y-90302D03*
X106248Y-91552D03*
X108748Y-91552D03*
X106248Y-92802D03*
X108748Y-92802D03*
X106248Y-94052D03*
X108748Y-94052D03*
X106248Y-95302D03*
X108748Y-95302D03*
X106248Y-96552D03*
X108748Y-96552D03*
X106248Y-97802D03*
X108748Y-97802D03*
X106248Y-99052D03*
X108748Y-99052D03*
X106248Y-100302D03*
X108748Y-100302D03*
G54D19*
X107498Y-103652D03*
X107498Y-35702D03*
G54D18*
X116248Y-39052D03*
G54D17*
X113748Y-39052D03*
G54D18*
X116248Y-45302D03*
X113748Y-40302D03*
X116248Y-46552D03*
X113748Y-41552D03*
X116248Y-47802D03*
X113748Y-42802D03*
X116248Y-49052D03*
X113748Y-44052D03*
X116248Y-50302D03*
X113748Y-45302D03*
X116248Y-51552D03*
X113748Y-46552D03*
X116248Y-52802D03*
X113748Y-47802D03*
X116248Y-54052D03*
X113748Y-49052D03*
X116248Y-55302D03*
X113748Y-50302D03*
X116248Y-56552D03*
X113748Y-51552D03*
X116248Y-57802D03*
X113748Y-52802D03*
X113748Y-54052D03*
X116248Y-59052D03*
X113748Y-55302D03*
X113748Y-57802D03*
X113748Y-59052D03*
X113748Y-60302D03*
X113748Y-61552D03*
X116248Y-60302D03*
X116248Y-61552D03*
X116248Y-40302D03*
X116248Y-41552D03*
X116248Y-42802D03*
X116248Y-44052D03*
X116248Y-62802D03*
X113748Y-62802D03*
X113748Y-56552D03*
X113748Y-64052D03*
X116248Y-64052D03*
X113748Y-65302D03*
X116248Y-65302D03*
X113748Y-66552D03*
X116248Y-66552D03*
X113748Y-67802D03*
X116248Y-67802D03*
X113748Y-69052D03*
X116248Y-69052D03*
X113748Y-70302D03*
X116248Y-70302D03*
X113748Y-71552D03*
X116248Y-71552D03*
X113748Y-72802D03*
X116248Y-72802D03*
X113748Y-74052D03*
X116248Y-74052D03*
X113748Y-75302D03*
X116248Y-75302D03*
X113748Y-76552D03*
X116248Y-76552D03*
X113748Y-77802D03*
X116248Y-77802D03*
X113748Y-79052D03*
X116248Y-79052D03*
X113748Y-80302D03*
X116248Y-80302D03*
X113748Y-81552D03*
X116248Y-81552D03*
X113748Y-82802D03*
X116248Y-82802D03*
X113748Y-84052D03*
X116248Y-84052D03*
X113748Y-85302D03*
X116248Y-85302D03*
X113748Y-86552D03*
X116248Y-86552D03*
X113748Y-87802D03*
X116248Y-87802D03*
X113748Y-89052D03*
X116248Y-89052D03*
X113748Y-90302D03*
X116248Y-90302D03*
X113748Y-91552D03*
X116248Y-91552D03*
X113748Y-92802D03*
X116248Y-92802D03*
X113748Y-94052D03*
X116248Y-94052D03*
X113748Y-95302D03*
X116248Y-95302D03*
X113748Y-96552D03*
X116248Y-96552D03*
X113748Y-97802D03*
X116248Y-97802D03*
X113748Y-99052D03*
X116248Y-99052D03*
X113748Y-100302D03*
X116248Y-100302D03*
G54D19*
X114998Y-103652D03*
X114998Y-35702D03*
G54D18*
X123748Y-39052D03*
G54D17*
X121248Y-39052D03*
G54D18*
X123748Y-45302D03*
X121248Y-40302D03*
X123748Y-46552D03*
X121248Y-41552D03*
X123748Y-47802D03*
X121248Y-42802D03*
X123748Y-49052D03*
X121248Y-44052D03*
X123748Y-50302D03*
X121248Y-45302D03*
X123748Y-51552D03*
X121248Y-46552D03*
X123748Y-52802D03*
X121248Y-47802D03*
X123748Y-54052D03*
X121248Y-49052D03*
X123748Y-55302D03*
X121248Y-50302D03*
X123748Y-56552D03*
X121248Y-51552D03*
X123748Y-57802D03*
X121248Y-52802D03*
X121248Y-54052D03*
X123748Y-59052D03*
X121248Y-55302D03*
X121248Y-57802D03*
X121248Y-59052D03*
X121248Y-60302D03*
X121248Y-61552D03*
X123748Y-60302D03*
X123748Y-61552D03*
X123748Y-40302D03*
X123748Y-41552D03*
X123748Y-42802D03*
X123748Y-44052D03*
X123748Y-62802D03*
X121248Y-62802D03*
X121248Y-56552D03*
X121248Y-64052D03*
X123748Y-64052D03*
X121248Y-65302D03*
X123748Y-65302D03*
X121248Y-66552D03*
X123748Y-66552D03*
X121248Y-67802D03*
X123748Y-67802D03*
X121248Y-69052D03*
X123748Y-69052D03*
X121248Y-70302D03*
X123748Y-70302D03*
X121248Y-71552D03*
X123748Y-71552D03*
X121248Y-72802D03*
X123748Y-72802D03*
X121248Y-74052D03*
X123748Y-74052D03*
X121248Y-75302D03*
X123748Y-75302D03*
X121248Y-76552D03*
X123748Y-76552D03*
X121248Y-77802D03*
X123748Y-77802D03*
X121248Y-79052D03*
X123748Y-79052D03*
X121248Y-80302D03*
X123748Y-80302D03*
X121248Y-81552D03*
X123748Y-81552D03*
X121248Y-82802D03*
X123748Y-82802D03*
X121248Y-84052D03*
X123748Y-84052D03*
X121248Y-85302D03*
X123748Y-85302D03*
X121248Y-86552D03*
X123748Y-86552D03*
X121248Y-87802D03*
X123748Y-87802D03*
X121248Y-89052D03*
X123748Y-89052D03*
X121248Y-90302D03*
X123748Y-90302D03*
X121248Y-91552D03*
X123748Y-91552D03*
X121248Y-92802D03*
X123748Y-92802D03*
X121248Y-94052D03*
X123748Y-94052D03*
X121248Y-95302D03*
X123748Y-95302D03*
X121248Y-96552D03*
X123748Y-96552D03*
X121248Y-97802D03*
X123748Y-97802D03*
X121248Y-99052D03*
X123748Y-99052D03*
X121248Y-100302D03*
X123748Y-100302D03*
G54D19*
X122498Y-103652D03*
X122498Y-35702D03*
G54D18*
X131248Y-39052D03*
G54D17*
X128748Y-39052D03*
G54D18*
X131248Y-45302D03*
X128748Y-40302D03*
X131248Y-46552D03*
X128748Y-41552D03*
X131248Y-47802D03*
X128748Y-42802D03*
X131248Y-49052D03*
X128748Y-44052D03*
X131248Y-50302D03*
X128748Y-45302D03*
X131248Y-51552D03*
X128748Y-46552D03*
X131248Y-52802D03*
X128748Y-47802D03*
X131248Y-54052D03*
X128748Y-49052D03*
X131248Y-55302D03*
X128748Y-50302D03*
X131248Y-56552D03*
X128748Y-51552D03*
X131248Y-57802D03*
X128748Y-52802D03*
X128748Y-54052D03*
X131248Y-59052D03*
X128748Y-55302D03*
X128748Y-57802D03*
X128748Y-59052D03*
X128748Y-60302D03*
X128748Y-61552D03*
X131248Y-60302D03*
X131248Y-61552D03*
X131248Y-40302D03*
X131248Y-41552D03*
X131248Y-42802D03*
X131248Y-44052D03*
X131248Y-62802D03*
X128748Y-62802D03*
X128748Y-56552D03*
X128748Y-64052D03*
X131248Y-64052D03*
X128748Y-65302D03*
X131248Y-65302D03*
X128748Y-66552D03*
X131248Y-66552D03*
X128748Y-67802D03*
X131248Y-67802D03*
X128748Y-69052D03*
X131248Y-69052D03*
X128748Y-70302D03*
X131248Y-70302D03*
X128748Y-71552D03*
X131248Y-71552D03*
X128748Y-72802D03*
X131248Y-72802D03*
X128748Y-74052D03*
X131248Y-74052D03*
X128748Y-75302D03*
X131248Y-75302D03*
X128748Y-76552D03*
X131248Y-76552D03*
X128748Y-77802D03*
X131248Y-77802D03*
X128748Y-79052D03*
X131248Y-79052D03*
X128748Y-80302D03*
X131248Y-80302D03*
X128748Y-81552D03*
X131248Y-81552D03*
X128748Y-82802D03*
X131248Y-82802D03*
X128748Y-84052D03*
X131248Y-84052D03*
X128748Y-85302D03*
X131248Y-85302D03*
X128748Y-86552D03*
X131248Y-86552D03*
X128748Y-87802D03*
X131248Y-87802D03*
X128748Y-89052D03*
X131248Y-89052D03*
X128748Y-90302D03*
X131248Y-90302D03*
X128748Y-91552D03*
X131248Y-91552D03*
X128748Y-92802D03*
X131248Y-92802D03*
X128748Y-94052D03*
X131248Y-94052D03*
X128748Y-95302D03*
X131248Y-95302D03*
X128748Y-96552D03*
X131248Y-96552D03*
X128748Y-97802D03*
X131248Y-97802D03*
X128748Y-99052D03*
X131248Y-99052D03*
X128748Y-100302D03*
X131248Y-100302D03*
G54D19*
X129998Y-103652D03*
X129998Y-35702D03*
G54D18*
X138748Y-39052D03*
G54D17*
X136248Y-39052D03*
G54D18*
X138748Y-45302D03*
X136248Y-40302D03*
X138748Y-46552D03*
X136248Y-41552D03*
X138748Y-47802D03*
X136248Y-42802D03*
X138748Y-49052D03*
X136248Y-44052D03*
X138748Y-50302D03*
X136248Y-45302D03*
X138748Y-51552D03*
X136248Y-46552D03*
X138748Y-52802D03*
X136248Y-47802D03*
X138748Y-54052D03*
X136248Y-49052D03*
X138748Y-55302D03*
X136248Y-50302D03*
X138748Y-56552D03*
X136248Y-51552D03*
X138748Y-57802D03*
X136248Y-52802D03*
X136248Y-54052D03*
X138748Y-59052D03*
X136248Y-55302D03*
X136248Y-57802D03*
X136248Y-59052D03*
X136248Y-60302D03*
X136248Y-61552D03*
X138748Y-60302D03*
X138748Y-61552D03*
X138748Y-40302D03*
X138748Y-41552D03*
X138748Y-42802D03*
X138748Y-44052D03*
X138748Y-62802D03*
X136248Y-62802D03*
X136248Y-56552D03*
X136248Y-64052D03*
X138748Y-64052D03*
X136248Y-65302D03*
X138748Y-65302D03*
X136248Y-66552D03*
X138748Y-66552D03*
X136248Y-67802D03*
X138748Y-67802D03*
X136248Y-69052D03*
X138748Y-69052D03*
X136248Y-70302D03*
X138748Y-70302D03*
X136248Y-71552D03*
X138748Y-71552D03*
X136248Y-72802D03*
X138748Y-72802D03*
X136248Y-74052D03*
X138748Y-74052D03*
X136248Y-75302D03*
X138748Y-75302D03*
X136248Y-76552D03*
X138748Y-76552D03*
X136248Y-77802D03*
X138748Y-77802D03*
X136248Y-79052D03*
X138748Y-79052D03*
X136248Y-80302D03*
X138748Y-80302D03*
X136248Y-81552D03*
X138748Y-81552D03*
X136248Y-82802D03*
X138748Y-82802D03*
X136248Y-84052D03*
X138748Y-84052D03*
X136248Y-85302D03*
X138748Y-85302D03*
X136248Y-86552D03*
X138748Y-86552D03*
X136248Y-87802D03*
X138748Y-87802D03*
X136248Y-89052D03*
X138748Y-89052D03*
X136248Y-90302D03*
X138748Y-90302D03*
X136248Y-91552D03*
X138748Y-91552D03*
X136248Y-92802D03*
X138748Y-92802D03*
X136248Y-94052D03*
X138748Y-94052D03*
X136248Y-95302D03*
X138748Y-95302D03*
X136248Y-96552D03*
X138748Y-96552D03*
X136248Y-97802D03*
X138748Y-97802D03*
X136248Y-99052D03*
X138748Y-99052D03*
X136248Y-100302D03*
X138748Y-100302D03*
G54D19*
X137498Y-103652D03*
X137498Y-35702D03*
G54D18*
X146248Y-39052D03*
G54D17*
X143748Y-39052D03*
G54D18*
X146248Y-45302D03*
X143748Y-40302D03*
X146248Y-46552D03*
X143748Y-41552D03*
X146248Y-47802D03*
X143748Y-42802D03*
X146248Y-49052D03*
X143748Y-44052D03*
X146248Y-50302D03*
X143748Y-45302D03*
X146248Y-51552D03*
X143748Y-46552D03*
X146248Y-52802D03*
X143748Y-47802D03*
X146248Y-54052D03*
X143748Y-49052D03*
X146248Y-55302D03*
X143748Y-50302D03*
X146248Y-56552D03*
X143748Y-51552D03*
X146248Y-57802D03*
X143748Y-52802D03*
X143748Y-54052D03*
X146248Y-59052D03*
X143748Y-55302D03*
X143748Y-57802D03*
X143748Y-59052D03*
X143748Y-60302D03*
X143748Y-61552D03*
X146248Y-60302D03*
X146248Y-61552D03*
X146248Y-40302D03*
X146248Y-41552D03*
X146248Y-42802D03*
X146248Y-44052D03*
X146248Y-62802D03*
X143748Y-62802D03*
X143748Y-56552D03*
X143748Y-64052D03*
X146248Y-64052D03*
X143748Y-65302D03*
X146248Y-65302D03*
X143748Y-66552D03*
X146248Y-66552D03*
X143748Y-67802D03*
X146248Y-67802D03*
X143748Y-69052D03*
X146248Y-69052D03*
X143748Y-70302D03*
X146248Y-70302D03*
X143748Y-71552D03*
X146248Y-71552D03*
X143748Y-72802D03*
X146248Y-72802D03*
X143748Y-74052D03*
X146248Y-74052D03*
X143748Y-75302D03*
X146248Y-75302D03*
X143748Y-76552D03*
X146248Y-76552D03*
X143748Y-77802D03*
X146248Y-77802D03*
X143748Y-79052D03*
X146248Y-79052D03*
X143748Y-80302D03*
X146248Y-80302D03*
X143748Y-81552D03*
X146248Y-81552D03*
X143748Y-82802D03*
X146248Y-82802D03*
X143748Y-84052D03*
X146248Y-84052D03*
X143748Y-85302D03*
X146248Y-85302D03*
X143748Y-86552D03*
X146248Y-86552D03*
X143748Y-87802D03*
X146248Y-87802D03*
X143748Y-89052D03*
X146248Y-89052D03*
X143748Y-90302D03*
X146248Y-90302D03*
X143748Y-91552D03*
X146248Y-91552D03*
X143748Y-92802D03*
X146248Y-92802D03*
X143748Y-94052D03*
X146248Y-94052D03*
X143748Y-95302D03*
X146248Y-95302D03*
X143748Y-96552D03*
X146248Y-96552D03*
X143748Y-97802D03*
X146248Y-97802D03*
X143748Y-99052D03*
X146248Y-99052D03*
X143748Y-100302D03*
X146248Y-100302D03*
G54D19*
X144998Y-103652D03*
X144998Y-35702D03*
G54D18*
X153748Y-39052D03*
G54D17*
X151248Y-39052D03*
G54D18*
X153748Y-45302D03*
X151248Y-40302D03*
X153748Y-46552D03*
X151248Y-41552D03*
X153748Y-47802D03*
X151248Y-42802D03*
X153748Y-49052D03*
X151248Y-44052D03*
X153748Y-50302D03*
X151248Y-45302D03*
X153748Y-51552D03*
X151248Y-46552D03*
X153748Y-52802D03*
X151248Y-47802D03*
X153748Y-54052D03*
X151248Y-49052D03*
X153748Y-55302D03*
X151248Y-50302D03*
X153748Y-56552D03*
X151248Y-51552D03*
X153748Y-57802D03*
X151248Y-52802D03*
X151248Y-54052D03*
X153748Y-59052D03*
X151248Y-55302D03*
X151248Y-57802D03*
X151248Y-59052D03*
X151248Y-60302D03*
X151248Y-61552D03*
X153748Y-60302D03*
X153748Y-61552D03*
X153748Y-40302D03*
X153748Y-41552D03*
X153748Y-42802D03*
X153748Y-44052D03*
X153748Y-62802D03*
X151248Y-62802D03*
X151248Y-56552D03*
X151248Y-64052D03*
X153748Y-64052D03*
X151248Y-65302D03*
X153748Y-65302D03*
X151248Y-66552D03*
X153748Y-66552D03*
X151248Y-67802D03*
X153748Y-67802D03*
X151248Y-69052D03*
X153748Y-69052D03*
X151248Y-70302D03*
X153748Y-70302D03*
X151248Y-71552D03*
X153748Y-71552D03*
X151248Y-72802D03*
X153748Y-72802D03*
X151248Y-74052D03*
X153748Y-74052D03*
X151248Y-75302D03*
X153748Y-75302D03*
X151248Y-76552D03*
X153748Y-76552D03*
X151248Y-77802D03*
X153748Y-77802D03*
X151248Y-79052D03*
X153748Y-79052D03*
X151248Y-80302D03*
X153748Y-80302D03*
X151248Y-81552D03*
X153748Y-81552D03*
X151248Y-82802D03*
X153748Y-82802D03*
X151248Y-84052D03*
X153748Y-84052D03*
X151248Y-85302D03*
X153748Y-85302D03*
X151248Y-86552D03*
X153748Y-86552D03*
X151248Y-87802D03*
X153748Y-87802D03*
X151248Y-89052D03*
X153748Y-89052D03*
X151248Y-90302D03*
X153748Y-90302D03*
X151248Y-91552D03*
X153748Y-91552D03*
X151248Y-92802D03*
X153748Y-92802D03*
X151248Y-94052D03*
X153748Y-94052D03*
X151248Y-95302D03*
X153748Y-95302D03*
X151248Y-96552D03*
X153748Y-96552D03*
X151248Y-97802D03*
X153748Y-97802D03*
X151248Y-99052D03*
X153748Y-99052D03*
X151248Y-100302D03*
X153748Y-100302D03*
G54D19*
X152498Y-103652D03*
X152498Y-35702D03*
G54D18*
X161248Y-39052D03*
G54D17*
X158748Y-39052D03*
G54D18*
X161248Y-45302D03*
X158748Y-40302D03*
X161248Y-46552D03*
X158748Y-41552D03*
X161248Y-47802D03*
X158748Y-42802D03*
X161248Y-49052D03*
X158748Y-44052D03*
X161248Y-50302D03*
X158748Y-45302D03*
X161248Y-51552D03*
X158748Y-46552D03*
X161248Y-52802D03*
X158748Y-47802D03*
X161248Y-54052D03*
X158748Y-49052D03*
X161248Y-55302D03*
X158748Y-50302D03*
X161248Y-56552D03*
X158748Y-51552D03*
X161248Y-57802D03*
X158748Y-52802D03*
X158748Y-54052D03*
X161248Y-59052D03*
X158748Y-55302D03*
X158748Y-57802D03*
X158748Y-59052D03*
X158748Y-60302D03*
X158748Y-61552D03*
X161248Y-60302D03*
X161248Y-61552D03*
X161248Y-40302D03*
X161248Y-41552D03*
X161248Y-42802D03*
X161248Y-44052D03*
X161248Y-62802D03*
X158748Y-62802D03*
X158748Y-56552D03*
X158748Y-64052D03*
X161248Y-64052D03*
X158748Y-65302D03*
X161248Y-65302D03*
X158748Y-66552D03*
X161248Y-66552D03*
X158748Y-67802D03*
X161248Y-67802D03*
X158748Y-69052D03*
X161248Y-69052D03*
X158748Y-70302D03*
X161248Y-70302D03*
X158748Y-71552D03*
X161248Y-71552D03*
X158748Y-72802D03*
X161248Y-72802D03*
X158748Y-74052D03*
X161248Y-74052D03*
X158748Y-75302D03*
X161248Y-75302D03*
X158748Y-76552D03*
X161248Y-76552D03*
X158748Y-77802D03*
X161248Y-77802D03*
X158748Y-79052D03*
X161248Y-79052D03*
X158748Y-80302D03*
X161248Y-80302D03*
X158748Y-81552D03*
X161248Y-81552D03*
X158748Y-82802D03*
X161248Y-82802D03*
X158748Y-84052D03*
X161248Y-84052D03*
X158748Y-85302D03*
X161248Y-85302D03*
X158748Y-86552D03*
X161248Y-86552D03*
X158748Y-87802D03*
X161248Y-87802D03*
X158748Y-89052D03*
X161248Y-89052D03*
X158748Y-90302D03*
X161248Y-90302D03*
X158748Y-91552D03*
X161248Y-91552D03*
X158748Y-92802D03*
X161248Y-92802D03*
X158748Y-94052D03*
X161248Y-94052D03*
X158748Y-95302D03*
X161248Y-95302D03*
X158748Y-96552D03*
X161248Y-96552D03*
X158748Y-97802D03*
X161248Y-97802D03*
X158748Y-99052D03*
X161248Y-99052D03*
X158748Y-100302D03*
X161248Y-100302D03*
G54D19*
X159998Y-103652D03*
X159998Y-35702D03*
G54D20*
X167846Y-109884D03*
X168161Y-109884D03*
X168476Y-109884D03*
X168791Y-109884D03*
X169106Y-109884D03*
X169420Y-109884D03*
X169734Y-109884D03*
X170049Y-109884D03*
X170364Y-109884D03*
X170679Y-109884D03*
X170994Y-109884D03*
G54D21*
X171664Y-109214D03*
X171664Y-108899D03*
X171664Y-108584D03*
X171664Y-108269D03*
X171664Y-107954D03*
X171664Y-107640D03*
X171664Y-107326D03*
X171664Y-107011D03*
X171664Y-106696D03*
X171664Y-106381D03*
X171664Y-106066D03*
G54D20*
X170994Y-105396D03*
X170679Y-105396D03*
X170364Y-105396D03*
X170049Y-105396D03*
X169734Y-105396D03*
X169420Y-105396D03*
X169106Y-105396D03*
X168791Y-105396D03*
X168476Y-105396D03*
X168161Y-105396D03*
X167846Y-105396D03*
G54D21*
X167176Y-106066D03*
X167176Y-106381D03*
X167176Y-106696D03*
X167176Y-107011D03*
X167176Y-107326D03*
X167176Y-107640D03*
X167176Y-107954D03*
X167176Y-108269D03*
X167176Y-108584D03*
X167176Y-108899D03*
X167176Y-109214D03*
G54D18*
X33748Y-39052D03*
G54D17*
X31248Y-39052D03*
G54D18*
X33748Y-45302D03*
X31248Y-40302D03*
X33748Y-46552D03*
X31248Y-41552D03*
X33748Y-47802D03*
X31248Y-42802D03*
X33748Y-49052D03*
X31248Y-44052D03*
X33748Y-50302D03*
X31248Y-45302D03*
X33748Y-51552D03*
X31248Y-46552D03*
X33748Y-52802D03*
X31248Y-47802D03*
X33748Y-54052D03*
X31248Y-49052D03*
X33748Y-55302D03*
X31248Y-50302D03*
X33748Y-56552D03*
X31248Y-51552D03*
X33748Y-57802D03*
X31248Y-52802D03*
X31248Y-54052D03*
X33748Y-59052D03*
X31248Y-55302D03*
X31248Y-57802D03*
X31248Y-59052D03*
X31248Y-60302D03*
X31248Y-61552D03*
X33748Y-60302D03*
X33748Y-61552D03*
X33748Y-40302D03*
X33748Y-41552D03*
X33748Y-42802D03*
X33748Y-44052D03*
X33748Y-62802D03*
X31248Y-62802D03*
X31248Y-56552D03*
X31248Y-64052D03*
X33748Y-64052D03*
X31248Y-65302D03*
X33748Y-65302D03*
X31248Y-66552D03*
X33748Y-66552D03*
X31248Y-67802D03*
X33748Y-67802D03*
X31248Y-69052D03*
X33748Y-69052D03*
X31248Y-70302D03*
X33748Y-70302D03*
X31248Y-71552D03*
X33748Y-71552D03*
X31248Y-72802D03*
X33748Y-72802D03*
X31248Y-74052D03*
X33748Y-74052D03*
X31248Y-75302D03*
X33748Y-75302D03*
X31248Y-76552D03*
X33748Y-76552D03*
X31248Y-77802D03*
X33748Y-77802D03*
X31248Y-79052D03*
X33748Y-79052D03*
X31248Y-80302D03*
X33748Y-80302D03*
X31248Y-81552D03*
X33748Y-81552D03*
X31248Y-82802D03*
X33748Y-82802D03*
X31248Y-84052D03*
X33748Y-84052D03*
X31248Y-85302D03*
X33748Y-85302D03*
X31248Y-86552D03*
X33748Y-86552D03*
X31248Y-87802D03*
X33748Y-87802D03*
X31248Y-89052D03*
X33748Y-89052D03*
X31248Y-90302D03*
X33748Y-90302D03*
X31248Y-91552D03*
X33748Y-91552D03*
X31248Y-92802D03*
X33748Y-92802D03*
X31248Y-94052D03*
X33748Y-94052D03*
X31248Y-95302D03*
X33748Y-95302D03*
X31248Y-96552D03*
X33748Y-96552D03*
X31248Y-97802D03*
X33748Y-97802D03*
X31248Y-99052D03*
X33748Y-99052D03*
X31248Y-100302D03*
X33748Y-100302D03*
G54D19*
X32498Y-103652D03*
X32498Y-35702D03*
G54D17*
X160400Y-114500D03*
G54D18*
X160400Y-113500D03*
X161400Y-114500D03*
X161400Y-113500D03*
X162400Y-114500D03*
X162400Y-113500D03*
X163400Y-114500D03*
X163400Y-113500D03*
X164400Y-114500D03*
X164400Y-113500D03*
G54D11*
X43750Y-35700D03*
X28750Y-103629D03*
X28750Y-35700D03*
X43750Y-103629D03*
X73750Y-35700D03*
X73750Y-103629D03*
G54D22*
X169929Y-98800D03*
X170429Y-98800D03*
X170929Y-98800D03*
X171429Y-98800D03*
X171929Y-98800D03*
X172429Y-98800D03*
X172929Y-98800D03*
X173429Y-98800D03*
X173929Y-98800D03*
X174429Y-98800D03*
X174429Y-95050D03*
X173929Y-95040D03*
X173429Y-95040D03*
X172929Y-95040D03*
X172429Y-95040D03*
X171929Y-95040D03*
X171429Y-95040D03*
X170929Y-95040D03*
X170429Y-95040D03*
X169929Y-95040D03*
G54D23*
X150799Y-107590D03*
X150799Y-108090D03*
X150799Y-108590D03*
X150799Y-109090D03*
X150799Y-109590D03*
X150799Y-110090D03*
X150799Y-110590D03*
X150799Y-111090D03*
X150799Y-111590D03*
X150799Y-112090D03*
X154549Y-112090D03*
X154559Y-111590D03*
X154559Y-111090D03*
X154559Y-110590D03*
X154559Y-110090D03*
X154559Y-109590D03*
X154559Y-109090D03*
X154559Y-108590D03*
X154559Y-108090D03*
X154559Y-107590D03*
G54D17*
X175700Y-92400D03*
G54D18*
X176700Y-92400D03*
G54D17*
X170830Y-66350D03*
G54D18*
X170830Y-65350D03*
G54D13*
X173790Y-86800D03*
G54D12*
X173790Y-84800D03*
X173790Y-85800D03*
G54D14*
X180290Y-85800D03*
G54D24*
X181346Y-97050D03*
X182172Y-97050D03*
X181346Y-99050D03*
X182172Y-99050D03*
X181346Y-101050D03*
X182172Y-101050D03*
X181346Y-103050D03*
X182172Y-103050D03*
X181346Y-105050D03*
X182172Y-105050D03*
X181346Y-107050D03*
X182172Y-107050D03*
X181346Y-109050D03*
X182172Y-109050D03*
X181346Y-111050D03*
X182172Y-111050D03*
G54D11*
X173750Y-103629D03*
X173750Y-35700D03*
G54D25*
X171600Y-77429D03*
X170600Y-77429D03*
X169600Y-77429D03*
X170840Y-87950D03*
X169840Y-87950D03*
X168840Y-87950D03*
G54D16*
X169700Y-39600D03*
X169700Y-42600D03*
X168500Y-39600D03*
X168500Y-42600D03*
G54D25*
X171550Y-40100D03*
X171550Y-41100D03*
X171550Y-42100D03*
G54D26*
X168225Y-35125D03*
X169225Y-35125D03*
G54D16*
X168550Y-52450D03*
X168550Y-50450D03*
G54D15*
X167550Y-54800D03*
G54D16*
X167550Y-55800D03*
X167550Y-56800D03*
X167550Y-57800D03*
X167550Y-58800D03*
X167550Y-59800D03*
X167550Y-60800D03*
X170550Y-60800D03*
X170550Y-59800D03*
X170550Y-58800D03*
X170550Y-57800D03*
X170550Y-56800D03*
X170550Y-55800D03*
X170550Y-54800D03*
G54D15*
X172700Y-52900D03*
G54D16*
X172700Y-49900D03*
G54D15*
X166800Y-114400D03*
G54D16*
X167800Y-114400D03*
X168800Y-114400D03*
X169800Y-114400D03*
X170800Y-114400D03*
X171800Y-114400D03*
X172800Y-114400D03*
X173800Y-114400D03*
X174800Y-114400D03*
X175800Y-114400D03*
X176800Y-114400D03*
X177800Y-114400D03*
G54D27*
X178600Y-38150D03*
X178600Y-41400D03*
X178600Y-44650D03*
X178600Y-47900D03*
G54D16*
X216600Y-36500D03*
X218600Y-36500D03*
X216600Y-39500D03*
X218600Y-39500D03*
X202910Y-37060D03*
X202910Y-40060D03*
X201850Y-43900D03*
X204850Y-43900D03*
X204130Y-37060D03*
X204130Y-40060D03*
X206600Y-35150D03*
X209600Y-35150D03*
X210600Y-46950D03*
X210600Y-49950D03*
X208200Y-49950D03*
X208200Y-46950D03*
G54D17*
X217100Y-44500D03*
G54D18*
X218100Y-44500D03*
G54D15*
X211800Y-49950D03*
G54D16*
X211800Y-46950D03*
G54D15*
X209400Y-49950D03*
G54D16*
X209400Y-46950D03*
G54D17*
X208500Y-33450D03*
G54D18*
X208500Y-32450D03*
G54D17*
X205800Y-33500D03*
G54D18*
X205800Y-32500D03*
G54D25*
X203050Y-32000D03*
X203050Y-33000D03*
X203050Y-34000D03*
G54D26*
X200050Y-37100D03*
X200050Y-36100D03*
X200050Y-42300D03*
X200050Y-41300D03*
G54D28*
X202517Y-58727D03*
X202517Y-57073D03*
X202517Y-55420D03*
X202517Y-53766D03*
X202517Y-52113D03*
X202517Y-50459D03*
X204683Y-65341D03*
X204683Y-63687D03*
X204683Y-62034D03*
X204683Y-60380D03*
X204683Y-58727D03*
X204683Y-57073D03*
X204683Y-55420D03*
X204683Y-53766D03*
X204683Y-52113D03*
X204683Y-50459D03*
X202517Y-60380D03*
X202517Y-62034D03*
X202517Y-63687D03*
G54D29*
X202517Y-65341D03*
G54D28*
X202517Y-48808D03*
X202517Y-47155D03*
X204683Y-48808D03*
X204683Y-47155D03*
G54D30*
X199642Y-65341D03*
X199642Y-47155D03*
G54D11*
X218270Y-32840D03*
X198570Y-32840D03*
X218270Y-68300D03*
X198570Y-68300D03*
G54D31*
X208970Y-43160D03*
G54D32*
X208970Y-42160D03*
X208970Y-41160D03*
X208970Y-40160D03*
X208970Y-39160D03*
X208970Y-38160D03*
X208970Y-37160D03*
X205970Y-37160D03*
X205970Y-38160D03*
X205970Y-39160D03*
X205970Y-40160D03*
X205970Y-41160D03*
X205970Y-42160D03*
X205970Y-43160D03*
G54D31*
X214390Y-43180D03*
G54D32*
X214390Y-42180D03*
X214390Y-41180D03*
X214390Y-40180D03*
X214390Y-39180D03*
X214390Y-38180D03*
X214390Y-37180D03*
X211390Y-37180D03*
X211390Y-38180D03*
X211390Y-39180D03*
X211390Y-40180D03*
X211390Y-41180D03*
X211390Y-42180D03*
X211390Y-43180D03*
G54D16*
X208650Y-45150D03*
X206650Y-45150D03*
X213850Y-45050D03*
X211850Y-45050D03*
G54D27*
X215750Y-50300D03*
X215750Y-53550D03*
X215750Y-56800D03*
X215750Y-60050D03*
X215750Y-63300D03*
G54D33*
X215169Y-32900D03*
X213200Y-32900D03*
X211231Y-32900D03*
G54D16*
X202200Y-81400D03*
X204200Y-81400D03*
X196000Y-81400D03*
X198000Y-81400D03*
X196000Y-94600D03*
X198000Y-94600D03*
X202200Y-94600D03*
X204200Y-94600D03*
X208250Y-83490D03*
X208250Y-81490D03*
X196000Y-104800D03*
X198000Y-104800D03*
X208200Y-104800D03*
X210200Y-104800D03*
G54D34*
X190350Y-110090D03*
X190350Y-109090D03*
X190350Y-108090D03*
X190350Y-107090D03*
X190350Y-106090D03*
X190350Y-105090D03*
X190350Y-104090D03*
X190350Y-103090D03*
X190350Y-102090D03*
X190350Y-101090D03*
X190350Y-100090D03*
X190350Y-99090D03*
X190350Y-98090D03*
X190350Y-97090D03*
X190350Y-96090D03*
X190350Y-95090D03*
X190350Y-94090D03*
X190350Y-93090D03*
X190350Y-92090D03*
X190350Y-91090D03*
X190350Y-90090D03*
X190350Y-89090D03*
X190350Y-88090D03*
X190350Y-87090D03*
X190350Y-86090D03*
G54D35*
X210940Y-85630D03*
G54D36*
X210940Y-86630D03*
X210940Y-87630D03*
X210940Y-88630D03*
X210940Y-89630D03*
X210940Y-90630D03*
X210940Y-91630D03*
X210940Y-92630D03*
X210940Y-93630D03*
X210940Y-94630D03*
X210940Y-95630D03*
X210940Y-96630D03*
X210940Y-97630D03*
X210940Y-98630D03*
X210940Y-99630D03*
X210940Y-100630D03*
X216940Y-100630D03*
X216940Y-99630D03*
X216940Y-98630D03*
X216940Y-97630D03*
X216940Y-96630D03*
X216940Y-95630D03*
X216940Y-94630D03*
X216940Y-93630D03*
X216940Y-92630D03*
X216940Y-91630D03*
X216940Y-90630D03*
X216940Y-89630D03*
X216940Y-88630D03*
X216940Y-87630D03*
X216940Y-86630D03*
X216940Y-85630D03*
G54D31*
X195440Y-83530D03*
G54D32*
X195440Y-84530D03*
X195440Y-85530D03*
X195440Y-86530D03*
X195440Y-87530D03*
X195440Y-88530D03*
X195440Y-89530D03*
X195440Y-90530D03*
X195440Y-91530D03*
X195440Y-92530D03*
X198440Y-92530D03*
X198440Y-91530D03*
X198440Y-90530D03*
X198440Y-89530D03*
X198440Y-88530D03*
X198440Y-87530D03*
X198440Y-86530D03*
X198440Y-85530D03*
X198440Y-84530D03*
X198440Y-83530D03*
G54D31*
X201740Y-83530D03*
G54D32*
X201740Y-84530D03*
X201740Y-85530D03*
X201740Y-86530D03*
X201740Y-87530D03*
X201740Y-88530D03*
X201740Y-89530D03*
X201740Y-90530D03*
X201740Y-91530D03*
X201740Y-92530D03*
X204740Y-92530D03*
X204740Y-91530D03*
X204740Y-90530D03*
X204740Y-89530D03*
X204740Y-88530D03*
X204740Y-87530D03*
X204740Y-86530D03*
X204740Y-85530D03*
X204740Y-84530D03*
X204740Y-83530D03*
G54D31*
X201740Y-96530D03*
G54D32*
X201740Y-97530D03*
X201740Y-98530D03*
X201740Y-99530D03*
X201740Y-100530D03*
X201740Y-101530D03*
X201740Y-102530D03*
X201740Y-103530D03*
X201740Y-104530D03*
X201740Y-105530D03*
X204740Y-105530D03*
X204740Y-104530D03*
X204740Y-103530D03*
X204740Y-102530D03*
X204740Y-101530D03*
X204740Y-100530D03*
X204740Y-99530D03*
X204740Y-98530D03*
X204740Y-97530D03*
X204740Y-96530D03*
G54D31*
X207640Y-106930D03*
G54D32*
X207640Y-107930D03*
X207640Y-108930D03*
X207640Y-109930D03*
X207640Y-110930D03*
X207640Y-111930D03*
X207640Y-112930D03*
X207640Y-113930D03*
X210640Y-113930D03*
X210640Y-112930D03*
X210640Y-111930D03*
X210640Y-110930D03*
X210640Y-109930D03*
X210640Y-108930D03*
X210640Y-107930D03*
X210640Y-106930D03*
G54D31*
X195440Y-106930D03*
G54D32*
X195440Y-107930D03*
X195440Y-108930D03*
X195440Y-109930D03*
X195440Y-110930D03*
X195440Y-111930D03*
X195440Y-112930D03*
X198440Y-112930D03*
X198440Y-111930D03*
X198440Y-110930D03*
X198440Y-109930D03*
X198440Y-108930D03*
X198440Y-107930D03*
X198440Y-106930D03*
G54D31*
X195440Y-96530D03*
G54D32*
X195440Y-97530D03*
X195440Y-98530D03*
X195440Y-99530D03*
X195440Y-100530D03*
X195440Y-101530D03*
X195440Y-102530D03*
X198440Y-102530D03*
X198440Y-101530D03*
X198440Y-100530D03*
X198440Y-99530D03*
X198440Y-98530D03*
X198440Y-97530D03*
X198440Y-96530D03*
G54D24*
X218387Y-107400D03*
X219213Y-107400D03*
X218387Y-109200D03*
X219213Y-109200D03*
X218387Y-111000D03*
X219213Y-111000D03*
X218387Y-112800D03*
X219213Y-112800D03*
G54D18*
X169280Y-70360D03*
X168280Y-72360D03*
X167280Y-70360D03*
G54D15*
X204030Y-77890D03*
G54D16*
X205030Y-77890D03*
X206030Y-77890D03*
X207030Y-77890D03*
X208030Y-77890D03*
X209030Y-77890D03*
X210030Y-77890D03*
X211030Y-77890D03*
X212030Y-77890D03*
X213030Y-77890D03*
X214030Y-77890D03*
X215030Y-77890D03*
X216030Y-77890D03*
X217030Y-77890D03*
X218030Y-77890D03*
X219030Y-77890D03*
X219030Y-71890D03*
X218030Y-71890D03*
X217030Y-71890D03*
X216030Y-71890D03*
X215030Y-71890D03*
X214030Y-71890D03*
X213030Y-71890D03*
X212030Y-71890D03*
X211030Y-71890D03*
X210030Y-71890D03*
X209030Y-71890D03*
X208030Y-71890D03*
X207030Y-71890D03*
X206030Y-71890D03*
X205030Y-71890D03*
X204030Y-71890D03*
G54D37*
X207050Y-76880D03*
X207550Y-76880D03*
X208050Y-76880D03*
X208550Y-76880D03*
X209050Y-76880D03*
X209550Y-76880D03*
X210050Y-76880D03*
X210550Y-76880D03*
X211050Y-76880D03*
X211550Y-76880D03*
X212050Y-76880D03*
X212550Y-76880D03*
X213050Y-76880D03*
X213550Y-76880D03*
X214050Y-76880D03*
X214550Y-76880D03*
X215050Y-76880D03*
X215550Y-76880D03*
X215550Y-72920D03*
X215050Y-72920D03*
X214550Y-72920D03*
X214050Y-72920D03*
X213550Y-72920D03*
X213050Y-72920D03*
X212550Y-72920D03*
X212050Y-72920D03*
X211550Y-72920D03*
X211050Y-72920D03*
X210550Y-72920D03*
X210050Y-72920D03*
X209550Y-72920D03*
X209050Y-72920D03*
X208550Y-72920D03*
X208050Y-72920D03*
X207550Y-72920D03*
X207050Y-72920D03*
G54D38*
X186950Y-36100D03*
X187950Y-36100D03*
X188750Y-36100D03*
X189750Y-36100D03*
G54D39*
X185750Y-35050D03*
X191150Y-35050D03*
G54D15*
X191150Y-41950D03*
G54D16*
X191150Y-40950D03*
X191150Y-39950D03*
G54D15*
X193450Y-41950D03*
G54D16*
X193450Y-40950D03*
X193450Y-39950D03*
X193450Y-38950D03*
X193450Y-37950D03*
X193450Y-36950D03*
X193450Y-35950D03*
X193450Y-34950D03*
X193450Y-33950D03*
X193450Y-32950D03*
G54D24*
X187550Y-41237D03*
X187550Y-42063D03*
X185850Y-41237D03*
X185850Y-42063D03*
G54D40*
X185637Y-40227D03*
X185893Y-40227D03*
X186149Y-40227D03*
X186405Y-40227D03*
X186661Y-40227D03*
X186917Y-40227D03*
X187173Y-40227D03*
X187427Y-40227D03*
X187683Y-40227D03*
X187939Y-40227D03*
X188195Y-40227D03*
X188451Y-40227D03*
X188707Y-40227D03*
X188963Y-40227D03*
X188963Y-37373D03*
X188707Y-37373D03*
X188451Y-37373D03*
X188195Y-37373D03*
X187939Y-37373D03*
X187683Y-37373D03*
X187427Y-37373D03*
X187173Y-37373D03*
X186917Y-37373D03*
X186661Y-37373D03*
X186405Y-37373D03*
X186149Y-37373D03*
X185893Y-37373D03*
X185637Y-37373D03*
M02*
