G04 (created by PCBNEW (2013-07-07 BZR 4022)-stable) date 10/18/2013 12:37:20 PM*
%MOIN*%
G04 Gerber Fmt 3.4, Leading zero omitted, Abs format*
%FSLAX34Y34*%
G01*
G70*
G90*
G04 APERTURE LIST*
%ADD10C,0.00590551*%
%ADD11C,0.18*%
%ADD12R,0.075X0.075*%
%ADD13C,0.075*%
%ADD14R,0.08X0.08*%
%ADD15C,0.08*%
%ADD16R,0.37X0.37*%
%ADD17C,0.09*%
%ADD18R,0.09X0.09*%
%ADD19C,0.188*%
%ADD20C,0.14*%
%ADD21C,0.1224*%
%ADD22R,0.1224X0.1224*%
%ADD23C,0.157795*%
%ADD24R,0.082X0.11*%
%ADD25O,0.082X0.11*%
G04 APERTURE END LIST*
G54D10*
G54D11*
X163750Y-35700D03*
X133750Y-35700D03*
X133750Y-103629D03*
X103750Y-103629D03*
X103750Y-35700D03*
G54D12*
X169100Y-81429D03*
G54D13*
X169100Y-82429D03*
X169100Y-83429D03*
X169100Y-84429D03*
X172100Y-84429D03*
X172100Y-83429D03*
X172100Y-82429D03*
X172100Y-81429D03*
G54D14*
X166600Y-86179D03*
G54D15*
X167600Y-86179D03*
G54D14*
X166600Y-79950D03*
G54D15*
X167600Y-79950D03*
G54D14*
X172200Y-87100D03*
G54D15*
X171200Y-87100D03*
G54D14*
X166585Y-72000D03*
G54D15*
X167585Y-72000D03*
G54D14*
X165500Y-64379D03*
G54D15*
X166500Y-64379D03*
G54D14*
X165800Y-51400D03*
G54D15*
X166800Y-51400D03*
G54D14*
X165800Y-40300D03*
G54D15*
X166800Y-40300D03*
G54D14*
X180300Y-77900D03*
G54D15*
X181300Y-77900D03*
G54D13*
X169665Y-72760D03*
X169665Y-69760D03*
X177800Y-76400D03*
X177800Y-79400D03*
X166850Y-45900D03*
X166850Y-48900D03*
X171100Y-63700D03*
X174100Y-63700D03*
X174100Y-62500D03*
X171100Y-62500D03*
X173750Y-79400D03*
X173750Y-76400D03*
X174750Y-79400D03*
X174750Y-76400D03*
X175779Y-76385D03*
X175779Y-79385D03*
X176779Y-76385D03*
X176779Y-79385D03*
G54D16*
X180300Y-88050D03*
G54D17*
X173800Y-87050D03*
G54D18*
X173800Y-88050D03*
G54D17*
X173800Y-89050D03*
G54D13*
X163000Y-96000D03*
X166000Y-96000D03*
X163000Y-98979D03*
X166000Y-98979D03*
X163000Y-96979D03*
X166000Y-96979D03*
X163000Y-97979D03*
X166000Y-97979D03*
G54D12*
X164000Y-41379D03*
G54D13*
X164000Y-42379D03*
X164000Y-43379D03*
X164000Y-44379D03*
X164000Y-45379D03*
X164000Y-46379D03*
X164000Y-47379D03*
X164000Y-48379D03*
X164000Y-49379D03*
X164000Y-50379D03*
G54D12*
X164000Y-52379D03*
G54D13*
X164000Y-53379D03*
X164000Y-54379D03*
X164000Y-55379D03*
X164000Y-56379D03*
X164000Y-57379D03*
X164000Y-58379D03*
X164000Y-59379D03*
X164000Y-60379D03*
X164000Y-61379D03*
G54D12*
X164000Y-63379D03*
G54D13*
X164000Y-64379D03*
X164000Y-65379D03*
X164000Y-66379D03*
X164000Y-67379D03*
X164000Y-68379D03*
X164000Y-69379D03*
X164000Y-70379D03*
X164000Y-71379D03*
X164000Y-72379D03*
G54D12*
X164000Y-74379D03*
G54D13*
X164000Y-75379D03*
X164000Y-76379D03*
X164000Y-77379D03*
X164000Y-78379D03*
X164000Y-79379D03*
X164000Y-80379D03*
X164000Y-81379D03*
X164000Y-82379D03*
X164000Y-83379D03*
G54D12*
X164000Y-85379D03*
G54D13*
X164000Y-86379D03*
X164000Y-87379D03*
X164000Y-88379D03*
X164000Y-89379D03*
X164000Y-90379D03*
X164000Y-91379D03*
X164000Y-92379D03*
X164000Y-93379D03*
X164000Y-94379D03*
G54D12*
X163000Y-41379D03*
G54D13*
X163000Y-42379D03*
X163000Y-43379D03*
X163000Y-44379D03*
X163000Y-45379D03*
X163000Y-46379D03*
X163000Y-47379D03*
X163000Y-48379D03*
X163000Y-49379D03*
X163000Y-50379D03*
G54D12*
X163000Y-52379D03*
G54D13*
X163000Y-53379D03*
X163000Y-54379D03*
X163000Y-55379D03*
X163000Y-56379D03*
X163000Y-57379D03*
X163000Y-58379D03*
X163000Y-59379D03*
X163000Y-60379D03*
X163000Y-61379D03*
G54D12*
X163000Y-63379D03*
G54D13*
X163000Y-64379D03*
X163000Y-65379D03*
X163000Y-66379D03*
X163000Y-67379D03*
X163000Y-68379D03*
X163000Y-69379D03*
X163000Y-70379D03*
X163000Y-71379D03*
X163000Y-72379D03*
G54D12*
X163000Y-74379D03*
G54D13*
X163000Y-75379D03*
X163000Y-76379D03*
X163000Y-77379D03*
X163000Y-78379D03*
X163000Y-79379D03*
X163000Y-80379D03*
X163000Y-81379D03*
X163000Y-82379D03*
X163000Y-83379D03*
G54D12*
X163000Y-85379D03*
G54D13*
X163000Y-86379D03*
X163000Y-87379D03*
X163000Y-88379D03*
X163000Y-89379D03*
X163000Y-90379D03*
X163000Y-91379D03*
X163000Y-92379D03*
X163000Y-93379D03*
X163000Y-94379D03*
G54D11*
X164059Y-103629D03*
G54D14*
X165850Y-56300D03*
G54D15*
X165850Y-57300D03*
X165850Y-58300D03*
G54D13*
X172150Y-93950D03*
X169150Y-93950D03*
X169150Y-94950D03*
X172150Y-94950D03*
X177050Y-96000D03*
X179050Y-96000D03*
X177050Y-99000D03*
X179050Y-99000D03*
G54D12*
X174500Y-100550D03*
G54D13*
X173500Y-100550D03*
G54D12*
X166400Y-43300D03*
G54D13*
X165400Y-43300D03*
G54D12*
X166300Y-61900D03*
G54D13*
X165300Y-61900D03*
G54D12*
X166300Y-60000D03*
G54D13*
X165300Y-60000D03*
G54D15*
X48748Y-39052D03*
G54D14*
X46248Y-39052D03*
G54D15*
X48748Y-45302D03*
X46248Y-40302D03*
X48748Y-46552D03*
X46248Y-41552D03*
X48748Y-47802D03*
X46248Y-42802D03*
X48748Y-49052D03*
X46248Y-44052D03*
X48748Y-50302D03*
X46248Y-45302D03*
X48748Y-51552D03*
X46248Y-46552D03*
X48748Y-52802D03*
X46248Y-47802D03*
X48748Y-54052D03*
X46248Y-49052D03*
X48748Y-55302D03*
X46248Y-50302D03*
X48748Y-56552D03*
X46248Y-51552D03*
X48748Y-57802D03*
X46248Y-52802D03*
X46248Y-54052D03*
X48748Y-59052D03*
X46248Y-55302D03*
X46248Y-57802D03*
X46248Y-59052D03*
X46248Y-60302D03*
X46248Y-61552D03*
X48748Y-60302D03*
X48748Y-61552D03*
X48748Y-40302D03*
X48748Y-41552D03*
X48748Y-42802D03*
X48748Y-44052D03*
X48748Y-62802D03*
X46248Y-62802D03*
X46248Y-56552D03*
X46248Y-64052D03*
X48748Y-64052D03*
X46248Y-65302D03*
X48748Y-65302D03*
X46248Y-66552D03*
X48748Y-66552D03*
X46248Y-67802D03*
X48748Y-67802D03*
X46248Y-69052D03*
X48748Y-69052D03*
X46248Y-70302D03*
X48748Y-70302D03*
X46248Y-71552D03*
X48748Y-71552D03*
X46248Y-72802D03*
X48748Y-72802D03*
X46248Y-74052D03*
X48748Y-74052D03*
X46248Y-75302D03*
X48748Y-75302D03*
X46248Y-76552D03*
X48748Y-76552D03*
X46248Y-77802D03*
X48748Y-77802D03*
X46248Y-79052D03*
X48748Y-79052D03*
X46248Y-80302D03*
X48748Y-80302D03*
X46248Y-81552D03*
X48748Y-81552D03*
X46248Y-82802D03*
X48748Y-82802D03*
X46248Y-84052D03*
X48748Y-84052D03*
X46248Y-85302D03*
X48748Y-85302D03*
X46248Y-86552D03*
X48748Y-86552D03*
X46248Y-87802D03*
X48748Y-87802D03*
X46248Y-89052D03*
X48748Y-89052D03*
X46248Y-90302D03*
X48748Y-90302D03*
X46248Y-91552D03*
X48748Y-91552D03*
X46248Y-92802D03*
X48748Y-92802D03*
X46248Y-94052D03*
X48748Y-94052D03*
X46248Y-95302D03*
X48748Y-95302D03*
X46248Y-96552D03*
X48748Y-96552D03*
X46248Y-97802D03*
X48748Y-97802D03*
X46248Y-99052D03*
X48748Y-99052D03*
X46248Y-100302D03*
X48748Y-100302D03*
G54D19*
X47498Y-103652D03*
X47498Y-35702D03*
G54D15*
X56248Y-39052D03*
G54D14*
X53748Y-39052D03*
G54D15*
X56248Y-45302D03*
X53748Y-40302D03*
X56248Y-46552D03*
X53748Y-41552D03*
X56248Y-47802D03*
X53748Y-42802D03*
X56248Y-49052D03*
X53748Y-44052D03*
X56248Y-50302D03*
X53748Y-45302D03*
X56248Y-51552D03*
X53748Y-46552D03*
X56248Y-52802D03*
X53748Y-47802D03*
X56248Y-54052D03*
X53748Y-49052D03*
X56248Y-55302D03*
X53748Y-50302D03*
X56248Y-56552D03*
X53748Y-51552D03*
X56248Y-57802D03*
X53748Y-52802D03*
X53748Y-54052D03*
X56248Y-59052D03*
X53748Y-55302D03*
X53748Y-57802D03*
X53748Y-59052D03*
X53748Y-60302D03*
X53748Y-61552D03*
X56248Y-60302D03*
X56248Y-61552D03*
X56248Y-40302D03*
X56248Y-41552D03*
X56248Y-42802D03*
X56248Y-44052D03*
X56248Y-62802D03*
X53748Y-62802D03*
X53748Y-56552D03*
X53748Y-64052D03*
X56248Y-64052D03*
X53748Y-65302D03*
X56248Y-65302D03*
X53748Y-66552D03*
X56248Y-66552D03*
X53748Y-67802D03*
X56248Y-67802D03*
X53748Y-69052D03*
X56248Y-69052D03*
X53748Y-70302D03*
X56248Y-70302D03*
X53748Y-71552D03*
X56248Y-71552D03*
X53748Y-72802D03*
X56248Y-72802D03*
X53748Y-74052D03*
X56248Y-74052D03*
X53748Y-75302D03*
X56248Y-75302D03*
X53748Y-76552D03*
X56248Y-76552D03*
X53748Y-77802D03*
X56248Y-77802D03*
X53748Y-79052D03*
X56248Y-79052D03*
X53748Y-80302D03*
X56248Y-80302D03*
X53748Y-81552D03*
X56248Y-81552D03*
X53748Y-82802D03*
X56248Y-82802D03*
X53748Y-84052D03*
X56248Y-84052D03*
X53748Y-85302D03*
X56248Y-85302D03*
X53748Y-86552D03*
X56248Y-86552D03*
X53748Y-87802D03*
X56248Y-87802D03*
X53748Y-89052D03*
X56248Y-89052D03*
X53748Y-90302D03*
X56248Y-90302D03*
X53748Y-91552D03*
X56248Y-91552D03*
X53748Y-92802D03*
X56248Y-92802D03*
X53748Y-94052D03*
X56248Y-94052D03*
X53748Y-95302D03*
X56248Y-95302D03*
X53748Y-96552D03*
X56248Y-96552D03*
X53748Y-97802D03*
X56248Y-97802D03*
X53748Y-99052D03*
X56248Y-99052D03*
X53748Y-100302D03*
X56248Y-100302D03*
G54D19*
X54998Y-103652D03*
X54998Y-35702D03*
G54D15*
X63748Y-39052D03*
G54D14*
X61248Y-39052D03*
G54D15*
X63748Y-45302D03*
X61248Y-40302D03*
X63748Y-46552D03*
X61248Y-41552D03*
X63748Y-47802D03*
X61248Y-42802D03*
X63748Y-49052D03*
X61248Y-44052D03*
X63748Y-50302D03*
X61248Y-45302D03*
X63748Y-51552D03*
X61248Y-46552D03*
X63748Y-52802D03*
X61248Y-47802D03*
X63748Y-54052D03*
X61248Y-49052D03*
X63748Y-55302D03*
X61248Y-50302D03*
X63748Y-56552D03*
X61248Y-51552D03*
X63748Y-57802D03*
X61248Y-52802D03*
X61248Y-54052D03*
X63748Y-59052D03*
X61248Y-55302D03*
X61248Y-57802D03*
X61248Y-59052D03*
X61248Y-60302D03*
X61248Y-61552D03*
X63748Y-60302D03*
X63748Y-61552D03*
X63748Y-40302D03*
X63748Y-41552D03*
X63748Y-42802D03*
X63748Y-44052D03*
X63748Y-62802D03*
X61248Y-62802D03*
X61248Y-56552D03*
X61248Y-64052D03*
X63748Y-64052D03*
X61248Y-65302D03*
X63748Y-65302D03*
X61248Y-66552D03*
X63748Y-66552D03*
X61248Y-67802D03*
X63748Y-67802D03*
X61248Y-69052D03*
X63748Y-69052D03*
X61248Y-70302D03*
X63748Y-70302D03*
X61248Y-71552D03*
X63748Y-71552D03*
X61248Y-72802D03*
X63748Y-72802D03*
X61248Y-74052D03*
X63748Y-74052D03*
X61248Y-75302D03*
X63748Y-75302D03*
X61248Y-76552D03*
X63748Y-76552D03*
X61248Y-77802D03*
X63748Y-77802D03*
X61248Y-79052D03*
X63748Y-79052D03*
X61248Y-80302D03*
X63748Y-80302D03*
X61248Y-81552D03*
X63748Y-81552D03*
X61248Y-82802D03*
X63748Y-82802D03*
X61248Y-84052D03*
X63748Y-84052D03*
X61248Y-85302D03*
X63748Y-85302D03*
X61248Y-86552D03*
X63748Y-86552D03*
X61248Y-87802D03*
X63748Y-87802D03*
X61248Y-89052D03*
X63748Y-89052D03*
X61248Y-90302D03*
X63748Y-90302D03*
X61248Y-91552D03*
X63748Y-91552D03*
X61248Y-92802D03*
X63748Y-92802D03*
X61248Y-94052D03*
X63748Y-94052D03*
X61248Y-95302D03*
X63748Y-95302D03*
X61248Y-96552D03*
X63748Y-96552D03*
X61248Y-97802D03*
X63748Y-97802D03*
X61248Y-99052D03*
X63748Y-99052D03*
X61248Y-100302D03*
X63748Y-100302D03*
G54D19*
X62498Y-103652D03*
X62498Y-35702D03*
G54D15*
X71248Y-39052D03*
G54D14*
X68748Y-39052D03*
G54D15*
X71248Y-45302D03*
X68748Y-40302D03*
X71248Y-46552D03*
X68748Y-41552D03*
X71248Y-47802D03*
X68748Y-42802D03*
X71248Y-49052D03*
X68748Y-44052D03*
X71248Y-50302D03*
X68748Y-45302D03*
X71248Y-51552D03*
X68748Y-46552D03*
X71248Y-52802D03*
X68748Y-47802D03*
X71248Y-54052D03*
X68748Y-49052D03*
X71248Y-55302D03*
X68748Y-50302D03*
X71248Y-56552D03*
X68748Y-51552D03*
X71248Y-57802D03*
X68748Y-52802D03*
X68748Y-54052D03*
X71248Y-59052D03*
X68748Y-55302D03*
X68748Y-57802D03*
X68748Y-59052D03*
X68748Y-60302D03*
X68748Y-61552D03*
X71248Y-60302D03*
X71248Y-61552D03*
X71248Y-40302D03*
X71248Y-41552D03*
X71248Y-42802D03*
X71248Y-44052D03*
X71248Y-62802D03*
X68748Y-62802D03*
X68748Y-56552D03*
X68748Y-64052D03*
X71248Y-64052D03*
X68748Y-65302D03*
X71248Y-65302D03*
X68748Y-66552D03*
X71248Y-66552D03*
X68748Y-67802D03*
X71248Y-67802D03*
X68748Y-69052D03*
X71248Y-69052D03*
X68748Y-70302D03*
X71248Y-70302D03*
X68748Y-71552D03*
X71248Y-71552D03*
X68748Y-72802D03*
X71248Y-72802D03*
X68748Y-74052D03*
X71248Y-74052D03*
X68748Y-75302D03*
X71248Y-75302D03*
X68748Y-76552D03*
X71248Y-76552D03*
X68748Y-77802D03*
X71248Y-77802D03*
X68748Y-79052D03*
X71248Y-79052D03*
X68748Y-80302D03*
X71248Y-80302D03*
X68748Y-81552D03*
X71248Y-81552D03*
X68748Y-82802D03*
X71248Y-82802D03*
X68748Y-84052D03*
X71248Y-84052D03*
X68748Y-85302D03*
X71248Y-85302D03*
X68748Y-86552D03*
X71248Y-86552D03*
X68748Y-87802D03*
X71248Y-87802D03*
X68748Y-89052D03*
X71248Y-89052D03*
X68748Y-90302D03*
X71248Y-90302D03*
X68748Y-91552D03*
X71248Y-91552D03*
X68748Y-92802D03*
X71248Y-92802D03*
X68748Y-94052D03*
X71248Y-94052D03*
X68748Y-95302D03*
X71248Y-95302D03*
X68748Y-96552D03*
X71248Y-96552D03*
X68748Y-97802D03*
X71248Y-97802D03*
X68748Y-99052D03*
X71248Y-99052D03*
X68748Y-100302D03*
X71248Y-100302D03*
G54D19*
X69998Y-103652D03*
X69998Y-35702D03*
G54D15*
X78748Y-39052D03*
G54D14*
X76248Y-39052D03*
G54D15*
X78748Y-45302D03*
X76248Y-40302D03*
X78748Y-46552D03*
X76248Y-41552D03*
X78748Y-47802D03*
X76248Y-42802D03*
X78748Y-49052D03*
X76248Y-44052D03*
X78748Y-50302D03*
X76248Y-45302D03*
X78748Y-51552D03*
X76248Y-46552D03*
X78748Y-52802D03*
X76248Y-47802D03*
X78748Y-54052D03*
X76248Y-49052D03*
X78748Y-55302D03*
X76248Y-50302D03*
X78748Y-56552D03*
X76248Y-51552D03*
X78748Y-57802D03*
X76248Y-52802D03*
X76248Y-54052D03*
X78748Y-59052D03*
X76248Y-55302D03*
X76248Y-57802D03*
X76248Y-59052D03*
X76248Y-60302D03*
X76248Y-61552D03*
X78748Y-60302D03*
X78748Y-61552D03*
X78748Y-40302D03*
X78748Y-41552D03*
X78748Y-42802D03*
X78748Y-44052D03*
X78748Y-62802D03*
X76248Y-62802D03*
X76248Y-56552D03*
X76248Y-64052D03*
X78748Y-64052D03*
X76248Y-65302D03*
X78748Y-65302D03*
X76248Y-66552D03*
X78748Y-66552D03*
X76248Y-67802D03*
X78748Y-67802D03*
X76248Y-69052D03*
X78748Y-69052D03*
X76248Y-70302D03*
X78748Y-70302D03*
X76248Y-71552D03*
X78748Y-71552D03*
X76248Y-72802D03*
X78748Y-72802D03*
X76248Y-74052D03*
X78748Y-74052D03*
X76248Y-75302D03*
X78748Y-75302D03*
X76248Y-76552D03*
X78748Y-76552D03*
X76248Y-77802D03*
X78748Y-77802D03*
X76248Y-79052D03*
X78748Y-79052D03*
X76248Y-80302D03*
X78748Y-80302D03*
X76248Y-81552D03*
X78748Y-81552D03*
X76248Y-82802D03*
X78748Y-82802D03*
X76248Y-84052D03*
X78748Y-84052D03*
X76248Y-85302D03*
X78748Y-85302D03*
X76248Y-86552D03*
X78748Y-86552D03*
X76248Y-87802D03*
X78748Y-87802D03*
X76248Y-89052D03*
X78748Y-89052D03*
X76248Y-90302D03*
X78748Y-90302D03*
X76248Y-91552D03*
X78748Y-91552D03*
X76248Y-92802D03*
X78748Y-92802D03*
X76248Y-94052D03*
X78748Y-94052D03*
X76248Y-95302D03*
X78748Y-95302D03*
X76248Y-96552D03*
X78748Y-96552D03*
X76248Y-97802D03*
X78748Y-97802D03*
X76248Y-99052D03*
X78748Y-99052D03*
X76248Y-100302D03*
X78748Y-100302D03*
G54D19*
X77498Y-103652D03*
X77498Y-35702D03*
G54D15*
X86248Y-39052D03*
G54D14*
X83748Y-39052D03*
G54D15*
X86248Y-45302D03*
X83748Y-40302D03*
X86248Y-46552D03*
X83748Y-41552D03*
X86248Y-47802D03*
X83748Y-42802D03*
X86248Y-49052D03*
X83748Y-44052D03*
X86248Y-50302D03*
X83748Y-45302D03*
X86248Y-51552D03*
X83748Y-46552D03*
X86248Y-52802D03*
X83748Y-47802D03*
X86248Y-54052D03*
X83748Y-49052D03*
X86248Y-55302D03*
X83748Y-50302D03*
X86248Y-56552D03*
X83748Y-51552D03*
X86248Y-57802D03*
X83748Y-52802D03*
X83748Y-54052D03*
X86248Y-59052D03*
X83748Y-55302D03*
X83748Y-57802D03*
X83748Y-59052D03*
X83748Y-60302D03*
X83748Y-61552D03*
X86248Y-60302D03*
X86248Y-61552D03*
X86248Y-40302D03*
X86248Y-41552D03*
X86248Y-42802D03*
X86248Y-44052D03*
X86248Y-62802D03*
X83748Y-62802D03*
X83748Y-56552D03*
X83748Y-64052D03*
X86248Y-64052D03*
X83748Y-65302D03*
X86248Y-65302D03*
X83748Y-66552D03*
X86248Y-66552D03*
X83748Y-67802D03*
X86248Y-67802D03*
X83748Y-69052D03*
X86248Y-69052D03*
X83748Y-70302D03*
X86248Y-70302D03*
X83748Y-71552D03*
X86248Y-71552D03*
X83748Y-72802D03*
X86248Y-72802D03*
X83748Y-74052D03*
X86248Y-74052D03*
X83748Y-75302D03*
X86248Y-75302D03*
X83748Y-76552D03*
X86248Y-76552D03*
X83748Y-77802D03*
X86248Y-77802D03*
X83748Y-79052D03*
X86248Y-79052D03*
X83748Y-80302D03*
X86248Y-80302D03*
X83748Y-81552D03*
X86248Y-81552D03*
X83748Y-82802D03*
X86248Y-82802D03*
X83748Y-84052D03*
X86248Y-84052D03*
X83748Y-85302D03*
X86248Y-85302D03*
X83748Y-86552D03*
X86248Y-86552D03*
X83748Y-87802D03*
X86248Y-87802D03*
X83748Y-89052D03*
X86248Y-89052D03*
X83748Y-90302D03*
X86248Y-90302D03*
X83748Y-91552D03*
X86248Y-91552D03*
X83748Y-92802D03*
X86248Y-92802D03*
X83748Y-94052D03*
X86248Y-94052D03*
X83748Y-95302D03*
X86248Y-95302D03*
X83748Y-96552D03*
X86248Y-96552D03*
X83748Y-97802D03*
X86248Y-97802D03*
X83748Y-99052D03*
X86248Y-99052D03*
X83748Y-100302D03*
X86248Y-100302D03*
G54D19*
X84998Y-103652D03*
X84998Y-35702D03*
G54D15*
X93748Y-39052D03*
G54D14*
X91248Y-39052D03*
G54D15*
X93748Y-45302D03*
X91248Y-40302D03*
X93748Y-46552D03*
X91248Y-41552D03*
X93748Y-47802D03*
X91248Y-42802D03*
X93748Y-49052D03*
X91248Y-44052D03*
X93748Y-50302D03*
X91248Y-45302D03*
X93748Y-51552D03*
X91248Y-46552D03*
X93748Y-52802D03*
X91248Y-47802D03*
X93748Y-54052D03*
X91248Y-49052D03*
X93748Y-55302D03*
X91248Y-50302D03*
X93748Y-56552D03*
X91248Y-51552D03*
X93748Y-57802D03*
X91248Y-52802D03*
X91248Y-54052D03*
X93748Y-59052D03*
X91248Y-55302D03*
X91248Y-57802D03*
X91248Y-59052D03*
X91248Y-60302D03*
X91248Y-61552D03*
X93748Y-60302D03*
X93748Y-61552D03*
X93748Y-40302D03*
X93748Y-41552D03*
X93748Y-42802D03*
X93748Y-44052D03*
X93748Y-62802D03*
X91248Y-62802D03*
X91248Y-56552D03*
X91248Y-64052D03*
X93748Y-64052D03*
X91248Y-65302D03*
X93748Y-65302D03*
X91248Y-66552D03*
X93748Y-66552D03*
X91248Y-67802D03*
X93748Y-67802D03*
X91248Y-69052D03*
X93748Y-69052D03*
X91248Y-70302D03*
X93748Y-70302D03*
X91248Y-71552D03*
X93748Y-71552D03*
X91248Y-72802D03*
X93748Y-72802D03*
X91248Y-74052D03*
X93748Y-74052D03*
X91248Y-75302D03*
X93748Y-75302D03*
X91248Y-76552D03*
X93748Y-76552D03*
X91248Y-77802D03*
X93748Y-77802D03*
X91248Y-79052D03*
X93748Y-79052D03*
X91248Y-80302D03*
X93748Y-80302D03*
X91248Y-81552D03*
X93748Y-81552D03*
X91248Y-82802D03*
X93748Y-82802D03*
X91248Y-84052D03*
X93748Y-84052D03*
X91248Y-85302D03*
X93748Y-85302D03*
X91248Y-86552D03*
X93748Y-86552D03*
X91248Y-87802D03*
X93748Y-87802D03*
X91248Y-89052D03*
X93748Y-89052D03*
X91248Y-90302D03*
X93748Y-90302D03*
X91248Y-91552D03*
X93748Y-91552D03*
X91248Y-92802D03*
X93748Y-92802D03*
X91248Y-94052D03*
X93748Y-94052D03*
X91248Y-95302D03*
X93748Y-95302D03*
X91248Y-96552D03*
X93748Y-96552D03*
X91248Y-97802D03*
X93748Y-97802D03*
X91248Y-99052D03*
X93748Y-99052D03*
X91248Y-100302D03*
X93748Y-100302D03*
G54D19*
X92498Y-103652D03*
X92498Y-35702D03*
G54D15*
X101248Y-39052D03*
G54D14*
X98748Y-39052D03*
G54D15*
X101248Y-45302D03*
X98748Y-40302D03*
X101248Y-46552D03*
X98748Y-41552D03*
X101248Y-47802D03*
X98748Y-42802D03*
X101248Y-49052D03*
X98748Y-44052D03*
X101248Y-50302D03*
X98748Y-45302D03*
X101248Y-51552D03*
X98748Y-46552D03*
X101248Y-52802D03*
X98748Y-47802D03*
X101248Y-54052D03*
X98748Y-49052D03*
X101248Y-55302D03*
X98748Y-50302D03*
X101248Y-56552D03*
X98748Y-51552D03*
X101248Y-57802D03*
X98748Y-52802D03*
X98748Y-54052D03*
X101248Y-59052D03*
X98748Y-55302D03*
X98748Y-57802D03*
X98748Y-59052D03*
X98748Y-60302D03*
X98748Y-61552D03*
X101248Y-60302D03*
X101248Y-61552D03*
X101248Y-40302D03*
X101248Y-41552D03*
X101248Y-42802D03*
X101248Y-44052D03*
X101248Y-62802D03*
X98748Y-62802D03*
X98748Y-56552D03*
X98748Y-64052D03*
X101248Y-64052D03*
X98748Y-65302D03*
X101248Y-65302D03*
X98748Y-66552D03*
X101248Y-66552D03*
X98748Y-67802D03*
X101248Y-67802D03*
X98748Y-69052D03*
X101248Y-69052D03*
X98748Y-70302D03*
X101248Y-70302D03*
X98748Y-71552D03*
X101248Y-71552D03*
X98748Y-72802D03*
X101248Y-72802D03*
X98748Y-74052D03*
X101248Y-74052D03*
X98748Y-75302D03*
X101248Y-75302D03*
X98748Y-76552D03*
X101248Y-76552D03*
X98748Y-77802D03*
X101248Y-77802D03*
X98748Y-79052D03*
X101248Y-79052D03*
X98748Y-80302D03*
X101248Y-80302D03*
X98748Y-81552D03*
X101248Y-81552D03*
X98748Y-82802D03*
X101248Y-82802D03*
X98748Y-84052D03*
X101248Y-84052D03*
X98748Y-85302D03*
X101248Y-85302D03*
X98748Y-86552D03*
X101248Y-86552D03*
X98748Y-87802D03*
X101248Y-87802D03*
X98748Y-89052D03*
X101248Y-89052D03*
X98748Y-90302D03*
X101248Y-90302D03*
X98748Y-91552D03*
X101248Y-91552D03*
X98748Y-92802D03*
X101248Y-92802D03*
X98748Y-94052D03*
X101248Y-94052D03*
X98748Y-95302D03*
X101248Y-95302D03*
X98748Y-96552D03*
X101248Y-96552D03*
X98748Y-97802D03*
X101248Y-97802D03*
X98748Y-99052D03*
X101248Y-99052D03*
X98748Y-100302D03*
X101248Y-100302D03*
G54D19*
X99998Y-103652D03*
X99998Y-35702D03*
G54D15*
X108748Y-39052D03*
G54D14*
X106248Y-39052D03*
G54D15*
X108748Y-45302D03*
X106248Y-40302D03*
X108748Y-46552D03*
X106248Y-41552D03*
X108748Y-47802D03*
X106248Y-42802D03*
X108748Y-49052D03*
X106248Y-44052D03*
X108748Y-50302D03*
X106248Y-45302D03*
X108748Y-51552D03*
X106248Y-46552D03*
X108748Y-52802D03*
X106248Y-47802D03*
X108748Y-54052D03*
X106248Y-49052D03*
X108748Y-55302D03*
X106248Y-50302D03*
X108748Y-56552D03*
X106248Y-51552D03*
X108748Y-57802D03*
X106248Y-52802D03*
X106248Y-54052D03*
X108748Y-59052D03*
X106248Y-55302D03*
X106248Y-57802D03*
X106248Y-59052D03*
X106248Y-60302D03*
X106248Y-61552D03*
X108748Y-60302D03*
X108748Y-61552D03*
X108748Y-40302D03*
X108748Y-41552D03*
X108748Y-42802D03*
X108748Y-44052D03*
X108748Y-62802D03*
X106248Y-62802D03*
X106248Y-56552D03*
X106248Y-64052D03*
X108748Y-64052D03*
X106248Y-65302D03*
X108748Y-65302D03*
X106248Y-66552D03*
X108748Y-66552D03*
X106248Y-67802D03*
X108748Y-67802D03*
X106248Y-69052D03*
X108748Y-69052D03*
X106248Y-70302D03*
X108748Y-70302D03*
X106248Y-71552D03*
X108748Y-71552D03*
X106248Y-72802D03*
X108748Y-72802D03*
X106248Y-74052D03*
X108748Y-74052D03*
X106248Y-75302D03*
X108748Y-75302D03*
X106248Y-76552D03*
X108748Y-76552D03*
X106248Y-77802D03*
X108748Y-77802D03*
X106248Y-79052D03*
X108748Y-79052D03*
X106248Y-80302D03*
X108748Y-80302D03*
X106248Y-81552D03*
X108748Y-81552D03*
X106248Y-82802D03*
X108748Y-82802D03*
X106248Y-84052D03*
X108748Y-84052D03*
X106248Y-85302D03*
X108748Y-85302D03*
X106248Y-86552D03*
X108748Y-86552D03*
X106248Y-87802D03*
X108748Y-87802D03*
X106248Y-89052D03*
X108748Y-89052D03*
X106248Y-90302D03*
X108748Y-90302D03*
X106248Y-91552D03*
X108748Y-91552D03*
X106248Y-92802D03*
X108748Y-92802D03*
X106248Y-94052D03*
X108748Y-94052D03*
X106248Y-95302D03*
X108748Y-95302D03*
X106248Y-96552D03*
X108748Y-96552D03*
X106248Y-97802D03*
X108748Y-97802D03*
X106248Y-99052D03*
X108748Y-99052D03*
X106248Y-100302D03*
X108748Y-100302D03*
G54D19*
X107498Y-103652D03*
X107498Y-35702D03*
G54D15*
X116248Y-39052D03*
G54D14*
X113748Y-39052D03*
G54D15*
X116248Y-45302D03*
X113748Y-40302D03*
X116248Y-46552D03*
X113748Y-41552D03*
X116248Y-47802D03*
X113748Y-42802D03*
X116248Y-49052D03*
X113748Y-44052D03*
X116248Y-50302D03*
X113748Y-45302D03*
X116248Y-51552D03*
X113748Y-46552D03*
X116248Y-52802D03*
X113748Y-47802D03*
X116248Y-54052D03*
X113748Y-49052D03*
X116248Y-55302D03*
X113748Y-50302D03*
X116248Y-56552D03*
X113748Y-51552D03*
X116248Y-57802D03*
X113748Y-52802D03*
X113748Y-54052D03*
X116248Y-59052D03*
X113748Y-55302D03*
X113748Y-57802D03*
X113748Y-59052D03*
X113748Y-60302D03*
X113748Y-61552D03*
X116248Y-60302D03*
X116248Y-61552D03*
X116248Y-40302D03*
X116248Y-41552D03*
X116248Y-42802D03*
X116248Y-44052D03*
X116248Y-62802D03*
X113748Y-62802D03*
X113748Y-56552D03*
X113748Y-64052D03*
X116248Y-64052D03*
X113748Y-65302D03*
X116248Y-65302D03*
X113748Y-66552D03*
X116248Y-66552D03*
X113748Y-67802D03*
X116248Y-67802D03*
X113748Y-69052D03*
X116248Y-69052D03*
X113748Y-70302D03*
X116248Y-70302D03*
X113748Y-71552D03*
X116248Y-71552D03*
X113748Y-72802D03*
X116248Y-72802D03*
X113748Y-74052D03*
X116248Y-74052D03*
X113748Y-75302D03*
X116248Y-75302D03*
X113748Y-76552D03*
X116248Y-76552D03*
X113748Y-77802D03*
X116248Y-77802D03*
X113748Y-79052D03*
X116248Y-79052D03*
X113748Y-80302D03*
X116248Y-80302D03*
X113748Y-81552D03*
X116248Y-81552D03*
X113748Y-82802D03*
X116248Y-82802D03*
X113748Y-84052D03*
X116248Y-84052D03*
X113748Y-85302D03*
X116248Y-85302D03*
X113748Y-86552D03*
X116248Y-86552D03*
X113748Y-87802D03*
X116248Y-87802D03*
X113748Y-89052D03*
X116248Y-89052D03*
X113748Y-90302D03*
X116248Y-90302D03*
X113748Y-91552D03*
X116248Y-91552D03*
X113748Y-92802D03*
X116248Y-92802D03*
X113748Y-94052D03*
X116248Y-94052D03*
X113748Y-95302D03*
X116248Y-95302D03*
X113748Y-96552D03*
X116248Y-96552D03*
X113748Y-97802D03*
X116248Y-97802D03*
X113748Y-99052D03*
X116248Y-99052D03*
X113748Y-100302D03*
X116248Y-100302D03*
G54D19*
X114998Y-103652D03*
X114998Y-35702D03*
G54D15*
X123748Y-39052D03*
G54D14*
X121248Y-39052D03*
G54D15*
X123748Y-45302D03*
X121248Y-40302D03*
X123748Y-46552D03*
X121248Y-41552D03*
X123748Y-47802D03*
X121248Y-42802D03*
X123748Y-49052D03*
X121248Y-44052D03*
X123748Y-50302D03*
X121248Y-45302D03*
X123748Y-51552D03*
X121248Y-46552D03*
X123748Y-52802D03*
X121248Y-47802D03*
X123748Y-54052D03*
X121248Y-49052D03*
X123748Y-55302D03*
X121248Y-50302D03*
X123748Y-56552D03*
X121248Y-51552D03*
X123748Y-57802D03*
X121248Y-52802D03*
X121248Y-54052D03*
X123748Y-59052D03*
X121248Y-55302D03*
X121248Y-57802D03*
X121248Y-59052D03*
X121248Y-60302D03*
X121248Y-61552D03*
X123748Y-60302D03*
X123748Y-61552D03*
X123748Y-40302D03*
X123748Y-41552D03*
X123748Y-42802D03*
X123748Y-44052D03*
X123748Y-62802D03*
X121248Y-62802D03*
X121248Y-56552D03*
X121248Y-64052D03*
X123748Y-64052D03*
X121248Y-65302D03*
X123748Y-65302D03*
X121248Y-66552D03*
X123748Y-66552D03*
X121248Y-67802D03*
X123748Y-67802D03*
X121248Y-69052D03*
X123748Y-69052D03*
X121248Y-70302D03*
X123748Y-70302D03*
X121248Y-71552D03*
X123748Y-71552D03*
X121248Y-72802D03*
X123748Y-72802D03*
X121248Y-74052D03*
X123748Y-74052D03*
X121248Y-75302D03*
X123748Y-75302D03*
X121248Y-76552D03*
X123748Y-76552D03*
X121248Y-77802D03*
X123748Y-77802D03*
X121248Y-79052D03*
X123748Y-79052D03*
X121248Y-80302D03*
X123748Y-80302D03*
X121248Y-81552D03*
X123748Y-81552D03*
X121248Y-82802D03*
X123748Y-82802D03*
X121248Y-84052D03*
X123748Y-84052D03*
X121248Y-85302D03*
X123748Y-85302D03*
X121248Y-86552D03*
X123748Y-86552D03*
X121248Y-87802D03*
X123748Y-87802D03*
X121248Y-89052D03*
X123748Y-89052D03*
X121248Y-90302D03*
X123748Y-90302D03*
X121248Y-91552D03*
X123748Y-91552D03*
X121248Y-92802D03*
X123748Y-92802D03*
X121248Y-94052D03*
X123748Y-94052D03*
X121248Y-95302D03*
X123748Y-95302D03*
X121248Y-96552D03*
X123748Y-96552D03*
X121248Y-97802D03*
X123748Y-97802D03*
X121248Y-99052D03*
X123748Y-99052D03*
X121248Y-100302D03*
X123748Y-100302D03*
G54D19*
X122498Y-103652D03*
X122498Y-35702D03*
G54D15*
X131248Y-39052D03*
G54D14*
X128748Y-39052D03*
G54D15*
X131248Y-45302D03*
X128748Y-40302D03*
X131248Y-46552D03*
X128748Y-41552D03*
X131248Y-47802D03*
X128748Y-42802D03*
X131248Y-49052D03*
X128748Y-44052D03*
X131248Y-50302D03*
X128748Y-45302D03*
X131248Y-51552D03*
X128748Y-46552D03*
X131248Y-52802D03*
X128748Y-47802D03*
X131248Y-54052D03*
X128748Y-49052D03*
X131248Y-55302D03*
X128748Y-50302D03*
X131248Y-56552D03*
X128748Y-51552D03*
X131248Y-57802D03*
X128748Y-52802D03*
X128748Y-54052D03*
X131248Y-59052D03*
X128748Y-55302D03*
X128748Y-57802D03*
X128748Y-59052D03*
X128748Y-60302D03*
X128748Y-61552D03*
X131248Y-60302D03*
X131248Y-61552D03*
X131248Y-40302D03*
X131248Y-41552D03*
X131248Y-42802D03*
X131248Y-44052D03*
X131248Y-62802D03*
X128748Y-62802D03*
X128748Y-56552D03*
X128748Y-64052D03*
X131248Y-64052D03*
X128748Y-65302D03*
X131248Y-65302D03*
X128748Y-66552D03*
X131248Y-66552D03*
X128748Y-67802D03*
X131248Y-67802D03*
X128748Y-69052D03*
X131248Y-69052D03*
X128748Y-70302D03*
X131248Y-70302D03*
X128748Y-71552D03*
X131248Y-71552D03*
X128748Y-72802D03*
X131248Y-72802D03*
X128748Y-74052D03*
X131248Y-74052D03*
X128748Y-75302D03*
X131248Y-75302D03*
X128748Y-76552D03*
X131248Y-76552D03*
X128748Y-77802D03*
X131248Y-77802D03*
X128748Y-79052D03*
X131248Y-79052D03*
X128748Y-80302D03*
X131248Y-80302D03*
X128748Y-81552D03*
X131248Y-81552D03*
X128748Y-82802D03*
X131248Y-82802D03*
X128748Y-84052D03*
X131248Y-84052D03*
X128748Y-85302D03*
X131248Y-85302D03*
X128748Y-86552D03*
X131248Y-86552D03*
X128748Y-87802D03*
X131248Y-87802D03*
X128748Y-89052D03*
X131248Y-89052D03*
X128748Y-90302D03*
X131248Y-90302D03*
X128748Y-91552D03*
X131248Y-91552D03*
X128748Y-92802D03*
X131248Y-92802D03*
X128748Y-94052D03*
X131248Y-94052D03*
X128748Y-95302D03*
X131248Y-95302D03*
X128748Y-96552D03*
X131248Y-96552D03*
X128748Y-97802D03*
X131248Y-97802D03*
X128748Y-99052D03*
X131248Y-99052D03*
X128748Y-100302D03*
X131248Y-100302D03*
G54D19*
X129998Y-103652D03*
X129998Y-35702D03*
G54D15*
X138748Y-39052D03*
G54D14*
X136248Y-39052D03*
G54D15*
X138748Y-45302D03*
X136248Y-40302D03*
X138748Y-46552D03*
X136248Y-41552D03*
X138748Y-47802D03*
X136248Y-42802D03*
X138748Y-49052D03*
X136248Y-44052D03*
X138748Y-50302D03*
X136248Y-45302D03*
X138748Y-51552D03*
X136248Y-46552D03*
X138748Y-52802D03*
X136248Y-47802D03*
X138748Y-54052D03*
X136248Y-49052D03*
X138748Y-55302D03*
X136248Y-50302D03*
X138748Y-56552D03*
X136248Y-51552D03*
X138748Y-57802D03*
X136248Y-52802D03*
X136248Y-54052D03*
X138748Y-59052D03*
X136248Y-55302D03*
X136248Y-57802D03*
X136248Y-59052D03*
X136248Y-60302D03*
X136248Y-61552D03*
X138748Y-60302D03*
X138748Y-61552D03*
X138748Y-40302D03*
X138748Y-41552D03*
X138748Y-42802D03*
X138748Y-44052D03*
X138748Y-62802D03*
X136248Y-62802D03*
X136248Y-56552D03*
X136248Y-64052D03*
X138748Y-64052D03*
X136248Y-65302D03*
X138748Y-65302D03*
X136248Y-66552D03*
X138748Y-66552D03*
X136248Y-67802D03*
X138748Y-67802D03*
X136248Y-69052D03*
X138748Y-69052D03*
X136248Y-70302D03*
X138748Y-70302D03*
X136248Y-71552D03*
X138748Y-71552D03*
X136248Y-72802D03*
X138748Y-72802D03*
X136248Y-74052D03*
X138748Y-74052D03*
X136248Y-75302D03*
X138748Y-75302D03*
X136248Y-76552D03*
X138748Y-76552D03*
X136248Y-77802D03*
X138748Y-77802D03*
X136248Y-79052D03*
X138748Y-79052D03*
X136248Y-80302D03*
X138748Y-80302D03*
X136248Y-81552D03*
X138748Y-81552D03*
X136248Y-82802D03*
X138748Y-82802D03*
X136248Y-84052D03*
X138748Y-84052D03*
X136248Y-85302D03*
X138748Y-85302D03*
X136248Y-86552D03*
X138748Y-86552D03*
X136248Y-87802D03*
X138748Y-87802D03*
X136248Y-89052D03*
X138748Y-89052D03*
X136248Y-90302D03*
X138748Y-90302D03*
X136248Y-91552D03*
X138748Y-91552D03*
X136248Y-92802D03*
X138748Y-92802D03*
X136248Y-94052D03*
X138748Y-94052D03*
X136248Y-95302D03*
X138748Y-95302D03*
X136248Y-96552D03*
X138748Y-96552D03*
X136248Y-97802D03*
X138748Y-97802D03*
X136248Y-99052D03*
X138748Y-99052D03*
X136248Y-100302D03*
X138748Y-100302D03*
G54D19*
X137498Y-103652D03*
X137498Y-35702D03*
G54D15*
X146248Y-39052D03*
G54D14*
X143748Y-39052D03*
G54D15*
X146248Y-45302D03*
X143748Y-40302D03*
X146248Y-46552D03*
X143748Y-41552D03*
X146248Y-47802D03*
X143748Y-42802D03*
X146248Y-49052D03*
X143748Y-44052D03*
X146248Y-50302D03*
X143748Y-45302D03*
X146248Y-51552D03*
X143748Y-46552D03*
X146248Y-52802D03*
X143748Y-47802D03*
X146248Y-54052D03*
X143748Y-49052D03*
X146248Y-55302D03*
X143748Y-50302D03*
X146248Y-56552D03*
X143748Y-51552D03*
X146248Y-57802D03*
X143748Y-52802D03*
X143748Y-54052D03*
X146248Y-59052D03*
X143748Y-55302D03*
X143748Y-57802D03*
X143748Y-59052D03*
X143748Y-60302D03*
X143748Y-61552D03*
X146248Y-60302D03*
X146248Y-61552D03*
X146248Y-40302D03*
X146248Y-41552D03*
X146248Y-42802D03*
X146248Y-44052D03*
X146248Y-62802D03*
X143748Y-62802D03*
X143748Y-56552D03*
X143748Y-64052D03*
X146248Y-64052D03*
X143748Y-65302D03*
X146248Y-65302D03*
X143748Y-66552D03*
X146248Y-66552D03*
X143748Y-67802D03*
X146248Y-67802D03*
X143748Y-69052D03*
X146248Y-69052D03*
X143748Y-70302D03*
X146248Y-70302D03*
X143748Y-71552D03*
X146248Y-71552D03*
X143748Y-72802D03*
X146248Y-72802D03*
X143748Y-74052D03*
X146248Y-74052D03*
X143748Y-75302D03*
X146248Y-75302D03*
X143748Y-76552D03*
X146248Y-76552D03*
X143748Y-77802D03*
X146248Y-77802D03*
X143748Y-79052D03*
X146248Y-79052D03*
X143748Y-80302D03*
X146248Y-80302D03*
X143748Y-81552D03*
X146248Y-81552D03*
X143748Y-82802D03*
X146248Y-82802D03*
X143748Y-84052D03*
X146248Y-84052D03*
X143748Y-85302D03*
X146248Y-85302D03*
X143748Y-86552D03*
X146248Y-86552D03*
X143748Y-87802D03*
X146248Y-87802D03*
X143748Y-89052D03*
X146248Y-89052D03*
X143748Y-90302D03*
X146248Y-90302D03*
X143748Y-91552D03*
X146248Y-91552D03*
X143748Y-92802D03*
X146248Y-92802D03*
X143748Y-94052D03*
X146248Y-94052D03*
X143748Y-95302D03*
X146248Y-95302D03*
X143748Y-96552D03*
X146248Y-96552D03*
X143748Y-97802D03*
X146248Y-97802D03*
X143748Y-99052D03*
X146248Y-99052D03*
X143748Y-100302D03*
X146248Y-100302D03*
G54D19*
X144998Y-103652D03*
X144998Y-35702D03*
G54D15*
X153748Y-39052D03*
G54D14*
X151248Y-39052D03*
G54D15*
X153748Y-45302D03*
X151248Y-40302D03*
X153748Y-46552D03*
X151248Y-41552D03*
X153748Y-47802D03*
X151248Y-42802D03*
X153748Y-49052D03*
X151248Y-44052D03*
X153748Y-50302D03*
X151248Y-45302D03*
X153748Y-51552D03*
X151248Y-46552D03*
X153748Y-52802D03*
X151248Y-47802D03*
X153748Y-54052D03*
X151248Y-49052D03*
X153748Y-55302D03*
X151248Y-50302D03*
X153748Y-56552D03*
X151248Y-51552D03*
X153748Y-57802D03*
X151248Y-52802D03*
X151248Y-54052D03*
X153748Y-59052D03*
X151248Y-55302D03*
X151248Y-57802D03*
X151248Y-59052D03*
X151248Y-60302D03*
X151248Y-61552D03*
X153748Y-60302D03*
X153748Y-61552D03*
X153748Y-40302D03*
X153748Y-41552D03*
X153748Y-42802D03*
X153748Y-44052D03*
X153748Y-62802D03*
X151248Y-62802D03*
X151248Y-56552D03*
X151248Y-64052D03*
X153748Y-64052D03*
X151248Y-65302D03*
X153748Y-65302D03*
X151248Y-66552D03*
X153748Y-66552D03*
X151248Y-67802D03*
X153748Y-67802D03*
X151248Y-69052D03*
X153748Y-69052D03*
X151248Y-70302D03*
X153748Y-70302D03*
X151248Y-71552D03*
X153748Y-71552D03*
X151248Y-72802D03*
X153748Y-72802D03*
X151248Y-74052D03*
X153748Y-74052D03*
X151248Y-75302D03*
X153748Y-75302D03*
X151248Y-76552D03*
X153748Y-76552D03*
X151248Y-77802D03*
X153748Y-77802D03*
X151248Y-79052D03*
X153748Y-79052D03*
X151248Y-80302D03*
X153748Y-80302D03*
X151248Y-81552D03*
X153748Y-81552D03*
X151248Y-82802D03*
X153748Y-82802D03*
X151248Y-84052D03*
X153748Y-84052D03*
X151248Y-85302D03*
X153748Y-85302D03*
X151248Y-86552D03*
X153748Y-86552D03*
X151248Y-87802D03*
X153748Y-87802D03*
X151248Y-89052D03*
X153748Y-89052D03*
X151248Y-90302D03*
X153748Y-90302D03*
X151248Y-91552D03*
X153748Y-91552D03*
X151248Y-92802D03*
X153748Y-92802D03*
X151248Y-94052D03*
X153748Y-94052D03*
X151248Y-95302D03*
X153748Y-95302D03*
X151248Y-96552D03*
X153748Y-96552D03*
X151248Y-97802D03*
X153748Y-97802D03*
X151248Y-99052D03*
X153748Y-99052D03*
X151248Y-100302D03*
X153748Y-100302D03*
G54D19*
X152498Y-103652D03*
X152498Y-35702D03*
G54D15*
X161248Y-39052D03*
G54D14*
X158748Y-39052D03*
G54D15*
X161248Y-45302D03*
X158748Y-40302D03*
X161248Y-46552D03*
X158748Y-41552D03*
X161248Y-47802D03*
X158748Y-42802D03*
X161248Y-49052D03*
X158748Y-44052D03*
X161248Y-50302D03*
X158748Y-45302D03*
X161248Y-51552D03*
X158748Y-46552D03*
X161248Y-52802D03*
X158748Y-47802D03*
X161248Y-54052D03*
X158748Y-49052D03*
X161248Y-55302D03*
X158748Y-50302D03*
X161248Y-56552D03*
X158748Y-51552D03*
X161248Y-57802D03*
X158748Y-52802D03*
X158748Y-54052D03*
X161248Y-59052D03*
X158748Y-55302D03*
X158748Y-57802D03*
X158748Y-59052D03*
X158748Y-60302D03*
X158748Y-61552D03*
X161248Y-60302D03*
X161248Y-61552D03*
X161248Y-40302D03*
X161248Y-41552D03*
X161248Y-42802D03*
X161248Y-44052D03*
X161248Y-62802D03*
X158748Y-62802D03*
X158748Y-56552D03*
X158748Y-64052D03*
X161248Y-64052D03*
X158748Y-65302D03*
X161248Y-65302D03*
X158748Y-66552D03*
X161248Y-66552D03*
X158748Y-67802D03*
X161248Y-67802D03*
X158748Y-69052D03*
X161248Y-69052D03*
X158748Y-70302D03*
X161248Y-70302D03*
X158748Y-71552D03*
X161248Y-71552D03*
X158748Y-72802D03*
X161248Y-72802D03*
X158748Y-74052D03*
X161248Y-74052D03*
X158748Y-75302D03*
X161248Y-75302D03*
X158748Y-76552D03*
X161248Y-76552D03*
X158748Y-77802D03*
X161248Y-77802D03*
X158748Y-79052D03*
X161248Y-79052D03*
X158748Y-80302D03*
X161248Y-80302D03*
X158748Y-81552D03*
X161248Y-81552D03*
X158748Y-82802D03*
X161248Y-82802D03*
X158748Y-84052D03*
X161248Y-84052D03*
X158748Y-85302D03*
X161248Y-85302D03*
X158748Y-86552D03*
X161248Y-86552D03*
X158748Y-87802D03*
X161248Y-87802D03*
X158748Y-89052D03*
X161248Y-89052D03*
X158748Y-90302D03*
X161248Y-90302D03*
X158748Y-91552D03*
X161248Y-91552D03*
X158748Y-92802D03*
X161248Y-92802D03*
X158748Y-94052D03*
X161248Y-94052D03*
X158748Y-95302D03*
X161248Y-95302D03*
X158748Y-96552D03*
X161248Y-96552D03*
X158748Y-97802D03*
X161248Y-97802D03*
X158748Y-99052D03*
X161248Y-99052D03*
X158748Y-100302D03*
X161248Y-100302D03*
G54D19*
X159998Y-103652D03*
X159998Y-35702D03*
G54D15*
X33748Y-39052D03*
G54D14*
X31248Y-39052D03*
G54D15*
X33748Y-45302D03*
X31248Y-40302D03*
X33748Y-46552D03*
X31248Y-41552D03*
X33748Y-47802D03*
X31248Y-42802D03*
X33748Y-49052D03*
X31248Y-44052D03*
X33748Y-50302D03*
X31248Y-45302D03*
X33748Y-51552D03*
X31248Y-46552D03*
X33748Y-52802D03*
X31248Y-47802D03*
X33748Y-54052D03*
X31248Y-49052D03*
X33748Y-55302D03*
X31248Y-50302D03*
X33748Y-56552D03*
X31248Y-51552D03*
X33748Y-57802D03*
X31248Y-52802D03*
X31248Y-54052D03*
X33748Y-59052D03*
X31248Y-55302D03*
X31248Y-57802D03*
X31248Y-59052D03*
X31248Y-60302D03*
X31248Y-61552D03*
X33748Y-60302D03*
X33748Y-61552D03*
X33748Y-40302D03*
X33748Y-41552D03*
X33748Y-42802D03*
X33748Y-44052D03*
X33748Y-62802D03*
X31248Y-62802D03*
X31248Y-56552D03*
X31248Y-64052D03*
X33748Y-64052D03*
X31248Y-65302D03*
X33748Y-65302D03*
X31248Y-66552D03*
X33748Y-66552D03*
X31248Y-67802D03*
X33748Y-67802D03*
X31248Y-69052D03*
X33748Y-69052D03*
X31248Y-70302D03*
X33748Y-70302D03*
X31248Y-71552D03*
X33748Y-71552D03*
X31248Y-72802D03*
X33748Y-72802D03*
X31248Y-74052D03*
X33748Y-74052D03*
X31248Y-75302D03*
X33748Y-75302D03*
X31248Y-76552D03*
X33748Y-76552D03*
X31248Y-77802D03*
X33748Y-77802D03*
X31248Y-79052D03*
X33748Y-79052D03*
X31248Y-80302D03*
X33748Y-80302D03*
X31248Y-81552D03*
X33748Y-81552D03*
X31248Y-82802D03*
X33748Y-82802D03*
X31248Y-84052D03*
X33748Y-84052D03*
X31248Y-85302D03*
X33748Y-85302D03*
X31248Y-86552D03*
X33748Y-86552D03*
X31248Y-87802D03*
X33748Y-87802D03*
X31248Y-89052D03*
X33748Y-89052D03*
X31248Y-90302D03*
X33748Y-90302D03*
X31248Y-91552D03*
X33748Y-91552D03*
X31248Y-92802D03*
X33748Y-92802D03*
X31248Y-94052D03*
X33748Y-94052D03*
X31248Y-95302D03*
X33748Y-95302D03*
X31248Y-96552D03*
X33748Y-96552D03*
X31248Y-97802D03*
X33748Y-97802D03*
X31248Y-99052D03*
X33748Y-99052D03*
X31248Y-100302D03*
X33748Y-100302D03*
G54D19*
X32498Y-103652D03*
X32498Y-35702D03*
G54D11*
X43750Y-35700D03*
X28750Y-103629D03*
X28750Y-35700D03*
X43750Y-103629D03*
X73750Y-35700D03*
X73750Y-103629D03*
X173750Y-103629D03*
X173750Y-35700D03*
G54D13*
X168750Y-52950D03*
X171750Y-52950D03*
X168750Y-51800D03*
X171750Y-51800D03*
X167900Y-94950D03*
X167900Y-92950D03*
G54D12*
X168200Y-97600D03*
G54D13*
X168200Y-98600D03*
X168200Y-99600D03*
X168200Y-100600D03*
X168200Y-101600D03*
X168200Y-102600D03*
X168200Y-103600D03*
X171200Y-103600D03*
X171200Y-102600D03*
X171200Y-101600D03*
X171200Y-100600D03*
X171200Y-99600D03*
X171200Y-98600D03*
X171200Y-97600D03*
G54D12*
X172150Y-92950D03*
G54D13*
X169150Y-92950D03*
G54D20*
X178600Y-38150D03*
X178600Y-41400D03*
X178600Y-44650D03*
X178600Y-47900D03*
G54D13*
X202435Y-42390D03*
X204435Y-42390D03*
X202435Y-45390D03*
X204435Y-45390D03*
X190309Y-37059D03*
X190309Y-40059D03*
X189250Y-43900D03*
X192250Y-43900D03*
X191529Y-37059D03*
X191529Y-40059D03*
X197775Y-45090D03*
X197775Y-42090D03*
G54D14*
X204565Y-37205D03*
G54D15*
X205565Y-37205D03*
G54D21*
X189917Y-58727D03*
X189917Y-57073D03*
X189917Y-55420D03*
X189917Y-53766D03*
X189917Y-52113D03*
X189917Y-50459D03*
X192083Y-65341D03*
X192083Y-63687D03*
X192083Y-62034D03*
X192083Y-60380D03*
X192083Y-58727D03*
X192083Y-57073D03*
X192083Y-55420D03*
X192083Y-53766D03*
X192083Y-52113D03*
X192083Y-50459D03*
X189917Y-60380D03*
X189917Y-62034D03*
X189917Y-63687D03*
G54D22*
X189917Y-65341D03*
G54D21*
X189917Y-48808D03*
X189917Y-47155D03*
X192083Y-48808D03*
X192083Y-47155D03*
G54D23*
X187042Y-65341D03*
X187042Y-47155D03*
G54D11*
X205670Y-32840D03*
X185970Y-32840D03*
X205670Y-68300D03*
X185970Y-68300D03*
G54D13*
X196050Y-45150D03*
X194050Y-45150D03*
X192060Y-34190D03*
X192060Y-36190D03*
G54D20*
X203150Y-50300D03*
X203150Y-53550D03*
X203150Y-56800D03*
X203150Y-60050D03*
X203150Y-63300D03*
G54D15*
X169295Y-74540D03*
X171295Y-75540D03*
X169295Y-76540D03*
G54D13*
X195720Y-41025D03*
X195720Y-38025D03*
X196850Y-41040D03*
X196850Y-38040D03*
G54D15*
X41248Y-39052D03*
G54D14*
X38748Y-39052D03*
G54D15*
X41248Y-45302D03*
X38748Y-40302D03*
X41248Y-46552D03*
X38748Y-41552D03*
X41248Y-47802D03*
X38748Y-42802D03*
X41248Y-49052D03*
X38748Y-44052D03*
X41248Y-50302D03*
X38748Y-45302D03*
X41248Y-51552D03*
X38748Y-46552D03*
X41248Y-52802D03*
X38748Y-47802D03*
X41248Y-54052D03*
X38748Y-49052D03*
X41248Y-55302D03*
X38748Y-50302D03*
X41248Y-56552D03*
X38748Y-51552D03*
X41248Y-57802D03*
X38748Y-52802D03*
X38748Y-54052D03*
X41248Y-59052D03*
X38748Y-55302D03*
X38748Y-57802D03*
X38748Y-59052D03*
X38748Y-60302D03*
X38748Y-61552D03*
X41248Y-60302D03*
X41248Y-61552D03*
X41248Y-40302D03*
X41248Y-41552D03*
X41248Y-42802D03*
X41248Y-44052D03*
X41248Y-62802D03*
X38748Y-62802D03*
X38748Y-56552D03*
X38748Y-64052D03*
X41248Y-64052D03*
X38748Y-65302D03*
X41248Y-65302D03*
X38748Y-66552D03*
X41248Y-66552D03*
X38748Y-67802D03*
X41248Y-67802D03*
X38748Y-69052D03*
X41248Y-69052D03*
X38748Y-70302D03*
X41248Y-70302D03*
X38748Y-71552D03*
X41248Y-71552D03*
X38748Y-72802D03*
X41248Y-72802D03*
X38748Y-74052D03*
X41248Y-74052D03*
X38748Y-75302D03*
X41248Y-75302D03*
X38748Y-76552D03*
X41248Y-76552D03*
X38748Y-77802D03*
X41248Y-77802D03*
X38748Y-79052D03*
X41248Y-79052D03*
X38748Y-80302D03*
X41248Y-80302D03*
X38748Y-81552D03*
X41248Y-81552D03*
X38748Y-82802D03*
X41248Y-82802D03*
X38748Y-84052D03*
X41248Y-84052D03*
X38748Y-85302D03*
X41248Y-85302D03*
X38748Y-86552D03*
X41248Y-86552D03*
X38748Y-87802D03*
X41248Y-87802D03*
X38748Y-89052D03*
X41248Y-89052D03*
X38748Y-90302D03*
X41248Y-90302D03*
X38748Y-91552D03*
X41248Y-91552D03*
X38748Y-92802D03*
X41248Y-92802D03*
X38748Y-94052D03*
X41248Y-94052D03*
X38748Y-95302D03*
X41248Y-95302D03*
X38748Y-96552D03*
X41248Y-96552D03*
X38748Y-97802D03*
X41248Y-97802D03*
X38748Y-99052D03*
X41248Y-99052D03*
X38748Y-100302D03*
X41248Y-100302D03*
G54D19*
X39998Y-103652D03*
X39998Y-35702D03*
G54D12*
X196115Y-31835D03*
G54D13*
X197115Y-31835D03*
X198115Y-31835D03*
X199115Y-31835D03*
X200115Y-31835D03*
X201115Y-31835D03*
G54D14*
X198475Y-39360D03*
G54D15*
X199475Y-39360D03*
G54D24*
X193850Y-36615D03*
G54D25*
X194850Y-36615D03*
X195850Y-36615D03*
X196850Y-36615D03*
X197850Y-36615D03*
X198850Y-36615D03*
X199850Y-36615D03*
X200850Y-36615D03*
X201850Y-36615D03*
X201850Y-33615D03*
X200850Y-33615D03*
X199850Y-33615D03*
X198850Y-33615D03*
X197850Y-33615D03*
X196850Y-33615D03*
X195850Y-33615D03*
X194850Y-33615D03*
X193850Y-33615D03*
G54D17*
X173850Y-70650D03*
G54D18*
X173850Y-68650D03*
G54D17*
X173850Y-69650D03*
G54D16*
X180350Y-69650D03*
G54D17*
X173809Y-57190D03*
G54D18*
X173809Y-55190D03*
G54D17*
X173809Y-56190D03*
G54D16*
X180309Y-56190D03*
M02*
