G04 (created by PCBNEW (2013-07-07 BZR 4022)-stable) date 10/5/2016 8:33:38 PM*
%MOIN*%
G04 Gerber Fmt 3.4, Leading zero omitted, Abs format*
%FSLAX34Y34*%
G01*
G70*
G90*
G04 APERTURE LIST*
%ADD10C,0.00590551*%
%ADD11C,0.18*%
%ADD12R,0.075X0.075*%
%ADD13C,0.075*%
%ADD14R,0.08X0.08*%
%ADD15C,0.08*%
%ADD16R,0.37X0.37*%
%ADD17C,0.09*%
%ADD18R,0.09X0.09*%
%ADD19C,0.188*%
%ADD20C,0.14*%
%ADD21C,0.072*%
%ADD22C,0.086*%
G04 APERTURE END LIST*
G54D10*
G54D11*
X186550Y-42000D03*
X156550Y-42000D03*
X156550Y-109929D03*
X126550Y-109929D03*
X126550Y-42000D03*
G54D12*
X191900Y-87729D03*
G54D13*
X191900Y-88729D03*
X191900Y-89729D03*
X191900Y-90729D03*
X194900Y-90729D03*
X194900Y-89729D03*
X194900Y-88729D03*
X194900Y-87729D03*
G54D14*
X188600Y-90550D03*
G54D15*
X189600Y-90550D03*
G54D14*
X190100Y-85900D03*
G54D15*
X191100Y-85900D03*
G54D14*
X195000Y-93400D03*
G54D15*
X194000Y-93400D03*
G54D14*
X188600Y-79600D03*
G54D15*
X189600Y-79600D03*
G54D14*
X188600Y-70550D03*
G54D15*
X189600Y-70550D03*
G54D14*
X188600Y-57700D03*
G54D15*
X189600Y-57700D03*
G54D14*
X188600Y-46600D03*
G54D15*
X189600Y-46600D03*
G54D14*
X203100Y-84200D03*
G54D15*
X204100Y-84200D03*
G54D13*
X192464Y-79059D03*
X192464Y-76059D03*
X200600Y-82700D03*
X200600Y-85700D03*
X189650Y-52200D03*
X189650Y-55200D03*
X193900Y-70000D03*
X196900Y-70000D03*
X196900Y-68800D03*
X193900Y-68800D03*
X196550Y-85700D03*
X196550Y-82700D03*
X197550Y-85700D03*
X197550Y-82700D03*
X198579Y-82685D03*
X198579Y-85685D03*
X199579Y-82685D03*
X199579Y-85685D03*
G54D16*
X203100Y-94350D03*
G54D17*
X196600Y-93350D03*
G54D18*
X196600Y-94350D03*
G54D17*
X196600Y-95350D03*
G54D13*
X185800Y-103300D03*
X188800Y-103300D03*
X185800Y-104300D03*
X188800Y-104300D03*
X185800Y-102300D03*
X188800Y-102300D03*
X185800Y-105300D03*
X188800Y-105300D03*
G54D12*
X186800Y-47679D03*
G54D13*
X186800Y-48679D03*
X186800Y-49679D03*
X186800Y-50679D03*
X186800Y-51679D03*
X186800Y-52679D03*
X186800Y-53679D03*
X186800Y-54679D03*
X186800Y-55679D03*
X186800Y-56679D03*
G54D12*
X186800Y-58679D03*
G54D13*
X186800Y-59679D03*
X186800Y-60679D03*
X186800Y-61679D03*
X186800Y-62679D03*
X186800Y-63679D03*
X186800Y-64679D03*
X186800Y-65679D03*
X186800Y-66679D03*
X186800Y-67679D03*
G54D12*
X186800Y-69679D03*
G54D13*
X186800Y-70679D03*
X186800Y-71679D03*
X186800Y-72679D03*
X186800Y-73679D03*
X186800Y-74679D03*
X186800Y-75679D03*
X186800Y-76679D03*
X186800Y-77679D03*
X186800Y-78679D03*
G54D12*
X186800Y-80679D03*
G54D13*
X186800Y-81679D03*
X186800Y-82679D03*
X186800Y-83679D03*
X186800Y-84679D03*
X186800Y-85679D03*
X186800Y-86679D03*
X186800Y-87679D03*
X186800Y-88679D03*
X186800Y-89679D03*
G54D12*
X186800Y-91679D03*
G54D13*
X186800Y-92679D03*
X186800Y-93679D03*
X186800Y-94679D03*
X186800Y-95679D03*
X186800Y-96679D03*
X186800Y-97679D03*
X186800Y-98679D03*
X186800Y-99679D03*
X186800Y-100679D03*
G54D12*
X185800Y-47679D03*
G54D13*
X185800Y-48679D03*
X185800Y-49679D03*
X185800Y-50679D03*
X185800Y-51679D03*
X185800Y-52679D03*
X185800Y-53679D03*
X185800Y-54679D03*
X185800Y-55679D03*
X185800Y-56679D03*
G54D12*
X185800Y-58679D03*
G54D13*
X185800Y-59679D03*
X185800Y-60679D03*
X185800Y-61679D03*
X185800Y-62679D03*
X185800Y-63679D03*
X185800Y-64679D03*
X185800Y-65679D03*
X185800Y-66679D03*
X185800Y-67679D03*
G54D12*
X185800Y-69679D03*
G54D13*
X185800Y-70679D03*
X185800Y-71679D03*
X185800Y-72679D03*
X185800Y-73679D03*
X185800Y-74679D03*
X185800Y-75679D03*
X185800Y-76679D03*
X185800Y-77679D03*
X185800Y-78679D03*
G54D12*
X185800Y-80679D03*
G54D13*
X185800Y-81679D03*
X185800Y-82679D03*
X185800Y-83679D03*
X185800Y-84679D03*
X185800Y-85679D03*
X185800Y-86679D03*
X185800Y-87679D03*
X185800Y-88679D03*
X185800Y-89679D03*
G54D12*
X185800Y-91679D03*
G54D13*
X185800Y-92679D03*
X185800Y-93679D03*
X185800Y-94679D03*
X185800Y-95679D03*
X185800Y-96679D03*
X185800Y-97679D03*
X185800Y-98679D03*
X185800Y-99679D03*
X185800Y-100679D03*
G54D11*
X186859Y-109929D03*
G54D14*
X189815Y-95950D03*
G54D15*
X189815Y-94950D03*
X189815Y-93950D03*
G54D13*
X194950Y-99650D03*
X191950Y-99650D03*
X191950Y-100750D03*
X194950Y-100750D03*
X199850Y-102300D03*
X201850Y-102300D03*
X199850Y-105300D03*
X201850Y-105300D03*
G54D12*
X197300Y-106850D03*
G54D13*
X196300Y-106850D03*
G54D12*
X189200Y-49600D03*
G54D13*
X188200Y-49600D03*
G54D12*
X189100Y-66350D03*
G54D13*
X188100Y-66350D03*
G54D12*
X189100Y-68150D03*
G54D13*
X188100Y-68150D03*
G54D15*
X71548Y-45352D03*
G54D14*
X69048Y-45352D03*
G54D15*
X71548Y-51602D03*
X69048Y-46602D03*
X71548Y-52852D03*
X69048Y-47852D03*
X71548Y-54102D03*
X69048Y-49102D03*
X71548Y-55352D03*
X69048Y-50352D03*
X71548Y-56602D03*
X69048Y-51602D03*
X71548Y-57852D03*
X69048Y-52852D03*
X71548Y-59102D03*
X69048Y-54102D03*
X71548Y-60352D03*
X69048Y-55352D03*
X71548Y-61602D03*
X69048Y-56602D03*
X71548Y-62852D03*
X69048Y-57852D03*
X71548Y-64102D03*
X69048Y-59102D03*
X69048Y-60352D03*
X71548Y-65352D03*
X69048Y-61602D03*
X69048Y-64102D03*
X69048Y-65352D03*
X69048Y-66602D03*
X69048Y-67852D03*
X71548Y-66602D03*
X71548Y-67852D03*
X71548Y-46602D03*
X71548Y-47852D03*
X71548Y-49102D03*
X71548Y-50352D03*
X71548Y-69102D03*
X69048Y-69102D03*
X69048Y-62852D03*
X69048Y-70352D03*
X71548Y-70352D03*
X69048Y-71602D03*
X71548Y-71602D03*
X69048Y-72852D03*
X71548Y-72852D03*
X69048Y-74102D03*
X71548Y-74102D03*
X69048Y-75352D03*
X71548Y-75352D03*
X69048Y-76602D03*
X71548Y-76602D03*
X69048Y-77852D03*
X71548Y-77852D03*
X69048Y-79102D03*
X71548Y-79102D03*
X69048Y-80352D03*
X71548Y-80352D03*
X69048Y-81602D03*
X71548Y-81602D03*
X69048Y-82852D03*
X71548Y-82852D03*
X69048Y-84102D03*
X71548Y-84102D03*
X69048Y-85352D03*
X71548Y-85352D03*
X69048Y-86602D03*
X71548Y-86602D03*
X69048Y-87852D03*
X71548Y-87852D03*
X69048Y-89102D03*
X71548Y-89102D03*
X69048Y-90352D03*
X71548Y-90352D03*
X69048Y-91602D03*
X71548Y-91602D03*
X69048Y-92852D03*
X71548Y-92852D03*
X69048Y-94102D03*
X71548Y-94102D03*
X69048Y-95352D03*
X71548Y-95352D03*
X69048Y-96602D03*
X71548Y-96602D03*
X69048Y-97852D03*
X71548Y-97852D03*
X69048Y-99102D03*
X71548Y-99102D03*
X69048Y-100352D03*
X71548Y-100352D03*
X69048Y-101602D03*
X71548Y-101602D03*
X69048Y-102852D03*
X71548Y-102852D03*
X69048Y-104102D03*
X71548Y-104102D03*
X69048Y-105352D03*
X71548Y-105352D03*
X69048Y-106602D03*
X71548Y-106602D03*
G54D19*
X70298Y-109952D03*
X70298Y-42002D03*
G54D15*
X79048Y-45352D03*
G54D14*
X76548Y-45352D03*
G54D15*
X79048Y-51602D03*
X76548Y-46602D03*
X79048Y-52852D03*
X76548Y-47852D03*
X79048Y-54102D03*
X76548Y-49102D03*
X79048Y-55352D03*
X76548Y-50352D03*
X79048Y-56602D03*
X76548Y-51602D03*
X79048Y-57852D03*
X76548Y-52852D03*
X79048Y-59102D03*
X76548Y-54102D03*
X79048Y-60352D03*
X76548Y-55352D03*
X79048Y-61602D03*
X76548Y-56602D03*
X79048Y-62852D03*
X76548Y-57852D03*
X79048Y-64102D03*
X76548Y-59102D03*
X76548Y-60352D03*
X79048Y-65352D03*
X76548Y-61602D03*
X76548Y-64102D03*
X76548Y-65352D03*
X76548Y-66602D03*
X76548Y-67852D03*
X79048Y-66602D03*
X79048Y-67852D03*
X79048Y-46602D03*
X79048Y-47852D03*
X79048Y-49102D03*
X79048Y-50352D03*
X79048Y-69102D03*
X76548Y-69102D03*
X76548Y-62852D03*
X76548Y-70352D03*
X79048Y-70352D03*
X76548Y-71602D03*
X79048Y-71602D03*
X76548Y-72852D03*
X79048Y-72852D03*
X76548Y-74102D03*
X79048Y-74102D03*
X76548Y-75352D03*
X79048Y-75352D03*
X76548Y-76602D03*
X79048Y-76602D03*
X76548Y-77852D03*
X79048Y-77852D03*
X76548Y-79102D03*
X79048Y-79102D03*
X76548Y-80352D03*
X79048Y-80352D03*
X76548Y-81602D03*
X79048Y-81602D03*
X76548Y-82852D03*
X79048Y-82852D03*
X76548Y-84102D03*
X79048Y-84102D03*
X76548Y-85352D03*
X79048Y-85352D03*
X76548Y-86602D03*
X79048Y-86602D03*
X76548Y-87852D03*
X79048Y-87852D03*
X76548Y-89102D03*
X79048Y-89102D03*
X76548Y-90352D03*
X79048Y-90352D03*
X76548Y-91602D03*
X79048Y-91602D03*
X76548Y-92852D03*
X79048Y-92852D03*
X76548Y-94102D03*
X79048Y-94102D03*
X76548Y-95352D03*
X79048Y-95352D03*
X76548Y-96602D03*
X79048Y-96602D03*
X76548Y-97852D03*
X79048Y-97852D03*
X76548Y-99102D03*
X79048Y-99102D03*
X76548Y-100352D03*
X79048Y-100352D03*
X76548Y-101602D03*
X79048Y-101602D03*
X76548Y-102852D03*
X79048Y-102852D03*
X76548Y-104102D03*
X79048Y-104102D03*
X76548Y-105352D03*
X79048Y-105352D03*
X76548Y-106602D03*
X79048Y-106602D03*
G54D19*
X77798Y-109952D03*
X77798Y-42002D03*
G54D15*
X86548Y-45352D03*
G54D14*
X84048Y-45352D03*
G54D15*
X86548Y-51602D03*
X84048Y-46602D03*
X86548Y-52852D03*
X84048Y-47852D03*
X86548Y-54102D03*
X84048Y-49102D03*
X86548Y-55352D03*
X84048Y-50352D03*
X86548Y-56602D03*
X84048Y-51602D03*
X86548Y-57852D03*
X84048Y-52852D03*
X86548Y-59102D03*
X84048Y-54102D03*
X86548Y-60352D03*
X84048Y-55352D03*
X86548Y-61602D03*
X84048Y-56602D03*
X86548Y-62852D03*
X84048Y-57852D03*
X86548Y-64102D03*
X84048Y-59102D03*
X84048Y-60352D03*
X86548Y-65352D03*
X84048Y-61602D03*
X84048Y-64102D03*
X84048Y-65352D03*
X84048Y-66602D03*
X84048Y-67852D03*
X86548Y-66602D03*
X86548Y-67852D03*
X86548Y-46602D03*
X86548Y-47852D03*
X86548Y-49102D03*
X86548Y-50352D03*
X86548Y-69102D03*
X84048Y-69102D03*
X84048Y-62852D03*
X84048Y-70352D03*
X86548Y-70352D03*
X84048Y-71602D03*
X86548Y-71602D03*
X84048Y-72852D03*
X86548Y-72852D03*
X84048Y-74102D03*
X86548Y-74102D03*
X84048Y-75352D03*
X86548Y-75352D03*
X84048Y-76602D03*
X86548Y-76602D03*
X84048Y-77852D03*
X86548Y-77852D03*
X84048Y-79102D03*
X86548Y-79102D03*
X84048Y-80352D03*
X86548Y-80352D03*
X84048Y-81602D03*
X86548Y-81602D03*
X84048Y-82852D03*
X86548Y-82852D03*
X84048Y-84102D03*
X86548Y-84102D03*
X84048Y-85352D03*
X86548Y-85352D03*
X84048Y-86602D03*
X86548Y-86602D03*
X84048Y-87852D03*
X86548Y-87852D03*
X84048Y-89102D03*
X86548Y-89102D03*
X84048Y-90352D03*
X86548Y-90352D03*
X84048Y-91602D03*
X86548Y-91602D03*
X84048Y-92852D03*
X86548Y-92852D03*
X84048Y-94102D03*
X86548Y-94102D03*
X84048Y-95352D03*
X86548Y-95352D03*
X84048Y-96602D03*
X86548Y-96602D03*
X84048Y-97852D03*
X86548Y-97852D03*
X84048Y-99102D03*
X86548Y-99102D03*
X84048Y-100352D03*
X86548Y-100352D03*
X84048Y-101602D03*
X86548Y-101602D03*
X84048Y-102852D03*
X86548Y-102852D03*
X84048Y-104102D03*
X86548Y-104102D03*
X84048Y-105352D03*
X86548Y-105352D03*
X84048Y-106602D03*
X86548Y-106602D03*
G54D19*
X85298Y-109952D03*
X85298Y-42002D03*
G54D15*
X94048Y-45352D03*
G54D14*
X91548Y-45352D03*
G54D15*
X94048Y-51602D03*
X91548Y-46602D03*
X94048Y-52852D03*
X91548Y-47852D03*
X94048Y-54102D03*
X91548Y-49102D03*
X94048Y-55352D03*
X91548Y-50352D03*
X94048Y-56602D03*
X91548Y-51602D03*
X94048Y-57852D03*
X91548Y-52852D03*
X94048Y-59102D03*
X91548Y-54102D03*
X94048Y-60352D03*
X91548Y-55352D03*
X94048Y-61602D03*
X91548Y-56602D03*
X94048Y-62852D03*
X91548Y-57852D03*
X94048Y-64102D03*
X91548Y-59102D03*
X91548Y-60352D03*
X94048Y-65352D03*
X91548Y-61602D03*
X91548Y-64102D03*
X91548Y-65352D03*
X91548Y-66602D03*
X91548Y-67852D03*
X94048Y-66602D03*
X94048Y-67852D03*
X94048Y-46602D03*
X94048Y-47852D03*
X94048Y-49102D03*
X94048Y-50352D03*
X94048Y-69102D03*
X91548Y-69102D03*
X91548Y-62852D03*
X91548Y-70352D03*
X94048Y-70352D03*
X91548Y-71602D03*
X94048Y-71602D03*
X91548Y-72852D03*
X94048Y-72852D03*
X91548Y-74102D03*
X94048Y-74102D03*
X91548Y-75352D03*
X94048Y-75352D03*
X91548Y-76602D03*
X94048Y-76602D03*
X91548Y-77852D03*
X94048Y-77852D03*
X91548Y-79102D03*
X94048Y-79102D03*
X91548Y-80352D03*
X94048Y-80352D03*
X91548Y-81602D03*
X94048Y-81602D03*
X91548Y-82852D03*
X94048Y-82852D03*
X91548Y-84102D03*
X94048Y-84102D03*
X91548Y-85352D03*
X94048Y-85352D03*
X91548Y-86602D03*
X94048Y-86602D03*
X91548Y-87852D03*
X94048Y-87852D03*
X91548Y-89102D03*
X94048Y-89102D03*
X91548Y-90352D03*
X94048Y-90352D03*
X91548Y-91602D03*
X94048Y-91602D03*
X91548Y-92852D03*
X94048Y-92852D03*
X91548Y-94102D03*
X94048Y-94102D03*
X91548Y-95352D03*
X94048Y-95352D03*
X91548Y-96602D03*
X94048Y-96602D03*
X91548Y-97852D03*
X94048Y-97852D03*
X91548Y-99102D03*
X94048Y-99102D03*
X91548Y-100352D03*
X94048Y-100352D03*
X91548Y-101602D03*
X94048Y-101602D03*
X91548Y-102852D03*
X94048Y-102852D03*
X91548Y-104102D03*
X94048Y-104102D03*
X91548Y-105352D03*
X94048Y-105352D03*
X91548Y-106602D03*
X94048Y-106602D03*
G54D19*
X92798Y-109952D03*
X92798Y-42002D03*
G54D15*
X101548Y-45352D03*
G54D14*
X99048Y-45352D03*
G54D15*
X101548Y-51602D03*
X99048Y-46602D03*
X101548Y-52852D03*
X99048Y-47852D03*
X101548Y-54102D03*
X99048Y-49102D03*
X101548Y-55352D03*
X99048Y-50352D03*
X101548Y-56602D03*
X99048Y-51602D03*
X101548Y-57852D03*
X99048Y-52852D03*
X101548Y-59102D03*
X99048Y-54102D03*
X101548Y-60352D03*
X99048Y-55352D03*
X101548Y-61602D03*
X99048Y-56602D03*
X101548Y-62852D03*
X99048Y-57852D03*
X101548Y-64102D03*
X99048Y-59102D03*
X99048Y-60352D03*
X101548Y-65352D03*
X99048Y-61602D03*
X99048Y-64102D03*
X99048Y-65352D03*
X99048Y-66602D03*
X99048Y-67852D03*
X101548Y-66602D03*
X101548Y-67852D03*
X101548Y-46602D03*
X101548Y-47852D03*
X101548Y-49102D03*
X101548Y-50352D03*
X101548Y-69102D03*
X99048Y-69102D03*
X99048Y-62852D03*
X99048Y-70352D03*
X101548Y-70352D03*
X99048Y-71602D03*
X101548Y-71602D03*
X99048Y-72852D03*
X101548Y-72852D03*
X99048Y-74102D03*
X101548Y-74102D03*
X99048Y-75352D03*
X101548Y-75352D03*
X99048Y-76602D03*
X101548Y-76602D03*
X99048Y-77852D03*
X101548Y-77852D03*
X99048Y-79102D03*
X101548Y-79102D03*
X99048Y-80352D03*
X101548Y-80352D03*
X99048Y-81602D03*
X101548Y-81602D03*
X99048Y-82852D03*
X101548Y-82852D03*
X99048Y-84102D03*
X101548Y-84102D03*
X99048Y-85352D03*
X101548Y-85352D03*
X99048Y-86602D03*
X101548Y-86602D03*
X99048Y-87852D03*
X101548Y-87852D03*
X99048Y-89102D03*
X101548Y-89102D03*
X99048Y-90352D03*
X101548Y-90352D03*
X99048Y-91602D03*
X101548Y-91602D03*
X99048Y-92852D03*
X101548Y-92852D03*
X99048Y-94102D03*
X101548Y-94102D03*
X99048Y-95352D03*
X101548Y-95352D03*
X99048Y-96602D03*
X101548Y-96602D03*
X99048Y-97852D03*
X101548Y-97852D03*
X99048Y-99102D03*
X101548Y-99102D03*
X99048Y-100352D03*
X101548Y-100352D03*
X99048Y-101602D03*
X101548Y-101602D03*
X99048Y-102852D03*
X101548Y-102852D03*
X99048Y-104102D03*
X101548Y-104102D03*
X99048Y-105352D03*
X101548Y-105352D03*
X99048Y-106602D03*
X101548Y-106602D03*
G54D19*
X100298Y-109952D03*
X100298Y-42002D03*
G54D15*
X109048Y-45352D03*
G54D14*
X106548Y-45352D03*
G54D15*
X109048Y-51602D03*
X106548Y-46602D03*
X109048Y-52852D03*
X106548Y-47852D03*
X109048Y-54102D03*
X106548Y-49102D03*
X109048Y-55352D03*
X106548Y-50352D03*
X109048Y-56602D03*
X106548Y-51602D03*
X109048Y-57852D03*
X106548Y-52852D03*
X109048Y-59102D03*
X106548Y-54102D03*
X109048Y-60352D03*
X106548Y-55352D03*
X109048Y-61602D03*
X106548Y-56602D03*
X109048Y-62852D03*
X106548Y-57852D03*
X109048Y-64102D03*
X106548Y-59102D03*
X106548Y-60352D03*
X109048Y-65352D03*
X106548Y-61602D03*
X106548Y-64102D03*
X106548Y-65352D03*
X106548Y-66602D03*
X106548Y-67852D03*
X109048Y-66602D03*
X109048Y-67852D03*
X109048Y-46602D03*
X109048Y-47852D03*
X109048Y-49102D03*
X109048Y-50352D03*
X109048Y-69102D03*
X106548Y-69102D03*
X106548Y-62852D03*
X106548Y-70352D03*
X109048Y-70352D03*
X106548Y-71602D03*
X109048Y-71602D03*
X106548Y-72852D03*
X109048Y-72852D03*
X106548Y-74102D03*
X109048Y-74102D03*
X106548Y-75352D03*
X109048Y-75352D03*
X106548Y-76602D03*
X109048Y-76602D03*
X106548Y-77852D03*
X109048Y-77852D03*
X106548Y-79102D03*
X109048Y-79102D03*
X106548Y-80352D03*
X109048Y-80352D03*
X106548Y-81602D03*
X109048Y-81602D03*
X106548Y-82852D03*
X109048Y-82852D03*
X106548Y-84102D03*
X109048Y-84102D03*
X106548Y-85352D03*
X109048Y-85352D03*
X106548Y-86602D03*
X109048Y-86602D03*
X106548Y-87852D03*
X109048Y-87852D03*
X106548Y-89102D03*
X109048Y-89102D03*
X106548Y-90352D03*
X109048Y-90352D03*
X106548Y-91602D03*
X109048Y-91602D03*
X106548Y-92852D03*
X109048Y-92852D03*
X106548Y-94102D03*
X109048Y-94102D03*
X106548Y-95352D03*
X109048Y-95352D03*
X106548Y-96602D03*
X109048Y-96602D03*
X106548Y-97852D03*
X109048Y-97852D03*
X106548Y-99102D03*
X109048Y-99102D03*
X106548Y-100352D03*
X109048Y-100352D03*
X106548Y-101602D03*
X109048Y-101602D03*
X106548Y-102852D03*
X109048Y-102852D03*
X106548Y-104102D03*
X109048Y-104102D03*
X106548Y-105352D03*
X109048Y-105352D03*
X106548Y-106602D03*
X109048Y-106602D03*
G54D19*
X107798Y-109952D03*
X107798Y-42002D03*
G54D15*
X116548Y-45352D03*
G54D14*
X114048Y-45352D03*
G54D15*
X116548Y-51602D03*
X114048Y-46602D03*
X116548Y-52852D03*
X114048Y-47852D03*
X116548Y-54102D03*
X114048Y-49102D03*
X116548Y-55352D03*
X114048Y-50352D03*
X116548Y-56602D03*
X114048Y-51602D03*
X116548Y-57852D03*
X114048Y-52852D03*
X116548Y-59102D03*
X114048Y-54102D03*
X116548Y-60352D03*
X114048Y-55352D03*
X116548Y-61602D03*
X114048Y-56602D03*
X116548Y-62852D03*
X114048Y-57852D03*
X116548Y-64102D03*
X114048Y-59102D03*
X114048Y-60352D03*
X116548Y-65352D03*
X114048Y-61602D03*
X114048Y-64102D03*
X114048Y-65352D03*
X114048Y-66602D03*
X114048Y-67852D03*
X116548Y-66602D03*
X116548Y-67852D03*
X116548Y-46602D03*
X116548Y-47852D03*
X116548Y-49102D03*
X116548Y-50352D03*
X116548Y-69102D03*
X114048Y-69102D03*
X114048Y-62852D03*
X114048Y-70352D03*
X116548Y-70352D03*
X114048Y-71602D03*
X116548Y-71602D03*
X114048Y-72852D03*
X116548Y-72852D03*
X114048Y-74102D03*
X116548Y-74102D03*
X114048Y-75352D03*
X116548Y-75352D03*
X114048Y-76602D03*
X116548Y-76602D03*
X114048Y-77852D03*
X116548Y-77852D03*
X114048Y-79102D03*
X116548Y-79102D03*
X114048Y-80352D03*
X116548Y-80352D03*
X114048Y-81602D03*
X116548Y-81602D03*
X114048Y-82852D03*
X116548Y-82852D03*
X114048Y-84102D03*
X116548Y-84102D03*
X114048Y-85352D03*
X116548Y-85352D03*
X114048Y-86602D03*
X116548Y-86602D03*
X114048Y-87852D03*
X116548Y-87852D03*
X114048Y-89102D03*
X116548Y-89102D03*
X114048Y-90352D03*
X116548Y-90352D03*
X114048Y-91602D03*
X116548Y-91602D03*
X114048Y-92852D03*
X116548Y-92852D03*
X114048Y-94102D03*
X116548Y-94102D03*
X114048Y-95352D03*
X116548Y-95352D03*
X114048Y-96602D03*
X116548Y-96602D03*
X114048Y-97852D03*
X116548Y-97852D03*
X114048Y-99102D03*
X116548Y-99102D03*
X114048Y-100352D03*
X116548Y-100352D03*
X114048Y-101602D03*
X116548Y-101602D03*
X114048Y-102852D03*
X116548Y-102852D03*
X114048Y-104102D03*
X116548Y-104102D03*
X114048Y-105352D03*
X116548Y-105352D03*
X114048Y-106602D03*
X116548Y-106602D03*
G54D19*
X115298Y-109952D03*
X115298Y-42002D03*
G54D15*
X124048Y-45352D03*
G54D14*
X121548Y-45352D03*
G54D15*
X124048Y-51602D03*
X121548Y-46602D03*
X124048Y-52852D03*
X121548Y-47852D03*
X124048Y-54102D03*
X121548Y-49102D03*
X124048Y-55352D03*
X121548Y-50352D03*
X124048Y-56602D03*
X121548Y-51602D03*
X124048Y-57852D03*
X121548Y-52852D03*
X124048Y-59102D03*
X121548Y-54102D03*
X124048Y-60352D03*
X121548Y-55352D03*
X124048Y-61602D03*
X121548Y-56602D03*
X124048Y-62852D03*
X121548Y-57852D03*
X124048Y-64102D03*
X121548Y-59102D03*
X121548Y-60352D03*
X124048Y-65352D03*
X121548Y-61602D03*
X121548Y-64102D03*
X121548Y-65352D03*
X121548Y-66602D03*
X121548Y-67852D03*
X124048Y-66602D03*
X124048Y-67852D03*
X124048Y-46602D03*
X124048Y-47852D03*
X124048Y-49102D03*
X124048Y-50352D03*
X124048Y-69102D03*
X121548Y-69102D03*
X121548Y-62852D03*
X121548Y-70352D03*
X124048Y-70352D03*
X121548Y-71602D03*
X124048Y-71602D03*
X121548Y-72852D03*
X124048Y-72852D03*
X121548Y-74102D03*
X124048Y-74102D03*
X121548Y-75352D03*
X124048Y-75352D03*
X121548Y-76602D03*
X124048Y-76602D03*
X121548Y-77852D03*
X124048Y-77852D03*
X121548Y-79102D03*
X124048Y-79102D03*
X121548Y-80352D03*
X124048Y-80352D03*
X121548Y-81602D03*
X124048Y-81602D03*
X121548Y-82852D03*
X124048Y-82852D03*
X121548Y-84102D03*
X124048Y-84102D03*
X121548Y-85352D03*
X124048Y-85352D03*
X121548Y-86602D03*
X124048Y-86602D03*
X121548Y-87852D03*
X124048Y-87852D03*
X121548Y-89102D03*
X124048Y-89102D03*
X121548Y-90352D03*
X124048Y-90352D03*
X121548Y-91602D03*
X124048Y-91602D03*
X121548Y-92852D03*
X124048Y-92852D03*
X121548Y-94102D03*
X124048Y-94102D03*
X121548Y-95352D03*
X124048Y-95352D03*
X121548Y-96602D03*
X124048Y-96602D03*
X121548Y-97852D03*
X124048Y-97852D03*
X121548Y-99102D03*
X124048Y-99102D03*
X121548Y-100352D03*
X124048Y-100352D03*
X121548Y-101602D03*
X124048Y-101602D03*
X121548Y-102852D03*
X124048Y-102852D03*
X121548Y-104102D03*
X124048Y-104102D03*
X121548Y-105352D03*
X124048Y-105352D03*
X121548Y-106602D03*
X124048Y-106602D03*
G54D19*
X122798Y-109952D03*
X122798Y-42002D03*
G54D15*
X131548Y-45352D03*
G54D14*
X129048Y-45352D03*
G54D15*
X131548Y-51602D03*
X129048Y-46602D03*
X131548Y-52852D03*
X129048Y-47852D03*
X131548Y-54102D03*
X129048Y-49102D03*
X131548Y-55352D03*
X129048Y-50352D03*
X131548Y-56602D03*
X129048Y-51602D03*
X131548Y-57852D03*
X129048Y-52852D03*
X131548Y-59102D03*
X129048Y-54102D03*
X131548Y-60352D03*
X129048Y-55352D03*
X131548Y-61602D03*
X129048Y-56602D03*
X131548Y-62852D03*
X129048Y-57852D03*
X131548Y-64102D03*
X129048Y-59102D03*
X129048Y-60352D03*
X131548Y-65352D03*
X129048Y-61602D03*
X129048Y-64102D03*
X129048Y-65352D03*
X129048Y-66602D03*
X129048Y-67852D03*
X131548Y-66602D03*
X131548Y-67852D03*
X131548Y-46602D03*
X131548Y-47852D03*
X131548Y-49102D03*
X131548Y-50352D03*
X131548Y-69102D03*
X129048Y-69102D03*
X129048Y-62852D03*
X129048Y-70352D03*
X131548Y-70352D03*
X129048Y-71602D03*
X131548Y-71602D03*
X129048Y-72852D03*
X131548Y-72852D03*
X129048Y-74102D03*
X131548Y-74102D03*
X129048Y-75352D03*
X131548Y-75352D03*
X129048Y-76602D03*
X131548Y-76602D03*
X129048Y-77852D03*
X131548Y-77852D03*
X129048Y-79102D03*
X131548Y-79102D03*
X129048Y-80352D03*
X131548Y-80352D03*
X129048Y-81602D03*
X131548Y-81602D03*
X129048Y-82852D03*
X131548Y-82852D03*
X129048Y-84102D03*
X131548Y-84102D03*
X129048Y-85352D03*
X131548Y-85352D03*
X129048Y-86602D03*
X131548Y-86602D03*
X129048Y-87852D03*
X131548Y-87852D03*
X129048Y-89102D03*
X131548Y-89102D03*
X129048Y-90352D03*
X131548Y-90352D03*
X129048Y-91602D03*
X131548Y-91602D03*
X129048Y-92852D03*
X131548Y-92852D03*
X129048Y-94102D03*
X131548Y-94102D03*
X129048Y-95352D03*
X131548Y-95352D03*
X129048Y-96602D03*
X131548Y-96602D03*
X129048Y-97852D03*
X131548Y-97852D03*
X129048Y-99102D03*
X131548Y-99102D03*
X129048Y-100352D03*
X131548Y-100352D03*
X129048Y-101602D03*
X131548Y-101602D03*
X129048Y-102852D03*
X131548Y-102852D03*
X129048Y-104102D03*
X131548Y-104102D03*
X129048Y-105352D03*
X131548Y-105352D03*
X129048Y-106602D03*
X131548Y-106602D03*
G54D19*
X130298Y-109952D03*
X130298Y-42002D03*
G54D15*
X139048Y-45352D03*
G54D14*
X136548Y-45352D03*
G54D15*
X139048Y-51602D03*
X136548Y-46602D03*
X139048Y-52852D03*
X136548Y-47852D03*
X139048Y-54102D03*
X136548Y-49102D03*
X139048Y-55352D03*
X136548Y-50352D03*
X139048Y-56602D03*
X136548Y-51602D03*
X139048Y-57852D03*
X136548Y-52852D03*
X139048Y-59102D03*
X136548Y-54102D03*
X139048Y-60352D03*
X136548Y-55352D03*
X139048Y-61602D03*
X136548Y-56602D03*
X139048Y-62852D03*
X136548Y-57852D03*
X139048Y-64102D03*
X136548Y-59102D03*
X136548Y-60352D03*
X139048Y-65352D03*
X136548Y-61602D03*
X136548Y-64102D03*
X136548Y-65352D03*
X136548Y-66602D03*
X136548Y-67852D03*
X139048Y-66602D03*
X139048Y-67852D03*
X139048Y-46602D03*
X139048Y-47852D03*
X139048Y-49102D03*
X139048Y-50352D03*
X139048Y-69102D03*
X136548Y-69102D03*
X136548Y-62852D03*
X136548Y-70352D03*
X139048Y-70352D03*
X136548Y-71602D03*
X139048Y-71602D03*
X136548Y-72852D03*
X139048Y-72852D03*
X136548Y-74102D03*
X139048Y-74102D03*
X136548Y-75352D03*
X139048Y-75352D03*
X136548Y-76602D03*
X139048Y-76602D03*
X136548Y-77852D03*
X139048Y-77852D03*
X136548Y-79102D03*
X139048Y-79102D03*
X136548Y-80352D03*
X139048Y-80352D03*
X136548Y-81602D03*
X139048Y-81602D03*
X136548Y-82852D03*
X139048Y-82852D03*
X136548Y-84102D03*
X139048Y-84102D03*
X136548Y-85352D03*
X139048Y-85352D03*
X136548Y-86602D03*
X139048Y-86602D03*
X136548Y-87852D03*
X139048Y-87852D03*
X136548Y-89102D03*
X139048Y-89102D03*
X136548Y-90352D03*
X139048Y-90352D03*
X136548Y-91602D03*
X139048Y-91602D03*
X136548Y-92852D03*
X139048Y-92852D03*
X136548Y-94102D03*
X139048Y-94102D03*
X136548Y-95352D03*
X139048Y-95352D03*
X136548Y-96602D03*
X139048Y-96602D03*
X136548Y-97852D03*
X139048Y-97852D03*
X136548Y-99102D03*
X139048Y-99102D03*
X136548Y-100352D03*
X139048Y-100352D03*
X136548Y-101602D03*
X139048Y-101602D03*
X136548Y-102852D03*
X139048Y-102852D03*
X136548Y-104102D03*
X139048Y-104102D03*
X136548Y-105352D03*
X139048Y-105352D03*
X136548Y-106602D03*
X139048Y-106602D03*
G54D19*
X137798Y-109952D03*
X137798Y-42002D03*
G54D15*
X146548Y-45352D03*
G54D14*
X144048Y-45352D03*
G54D15*
X146548Y-51602D03*
X144048Y-46602D03*
X146548Y-52852D03*
X144048Y-47852D03*
X146548Y-54102D03*
X144048Y-49102D03*
X146548Y-55352D03*
X144048Y-50352D03*
X146548Y-56602D03*
X144048Y-51602D03*
X146548Y-57852D03*
X144048Y-52852D03*
X146548Y-59102D03*
X144048Y-54102D03*
X146548Y-60352D03*
X144048Y-55352D03*
X146548Y-61602D03*
X144048Y-56602D03*
X146548Y-62852D03*
X144048Y-57852D03*
X146548Y-64102D03*
X144048Y-59102D03*
X144048Y-60352D03*
X146548Y-65352D03*
X144048Y-61602D03*
X144048Y-64102D03*
X144048Y-65352D03*
X144048Y-66602D03*
X144048Y-67852D03*
X146548Y-66602D03*
X146548Y-67852D03*
X146548Y-46602D03*
X146548Y-47852D03*
X146548Y-49102D03*
X146548Y-50352D03*
X146548Y-69102D03*
X144048Y-69102D03*
X144048Y-62852D03*
X144048Y-70352D03*
X146548Y-70352D03*
X144048Y-71602D03*
X146548Y-71602D03*
X144048Y-72852D03*
X146548Y-72852D03*
X144048Y-74102D03*
X146548Y-74102D03*
X144048Y-75352D03*
X146548Y-75352D03*
X144048Y-76602D03*
X146548Y-76602D03*
X144048Y-77852D03*
X146548Y-77852D03*
X144048Y-79102D03*
X146548Y-79102D03*
X144048Y-80352D03*
X146548Y-80352D03*
X144048Y-81602D03*
X146548Y-81602D03*
X144048Y-82852D03*
X146548Y-82852D03*
X144048Y-84102D03*
X146548Y-84102D03*
X144048Y-85352D03*
X146548Y-85352D03*
X144048Y-86602D03*
X146548Y-86602D03*
X144048Y-87852D03*
X146548Y-87852D03*
X144048Y-89102D03*
X146548Y-89102D03*
X144048Y-90352D03*
X146548Y-90352D03*
X144048Y-91602D03*
X146548Y-91602D03*
X144048Y-92852D03*
X146548Y-92852D03*
X144048Y-94102D03*
X146548Y-94102D03*
X144048Y-95352D03*
X146548Y-95352D03*
X144048Y-96602D03*
X146548Y-96602D03*
X144048Y-97852D03*
X146548Y-97852D03*
X144048Y-99102D03*
X146548Y-99102D03*
X144048Y-100352D03*
X146548Y-100352D03*
X144048Y-101602D03*
X146548Y-101602D03*
X144048Y-102852D03*
X146548Y-102852D03*
X144048Y-104102D03*
X146548Y-104102D03*
X144048Y-105352D03*
X146548Y-105352D03*
X144048Y-106602D03*
X146548Y-106602D03*
G54D19*
X145298Y-109952D03*
X145298Y-42002D03*
G54D15*
X154048Y-45352D03*
G54D14*
X151548Y-45352D03*
G54D15*
X154048Y-51602D03*
X151548Y-46602D03*
X154048Y-52852D03*
X151548Y-47852D03*
X154048Y-54102D03*
X151548Y-49102D03*
X154048Y-55352D03*
X151548Y-50352D03*
X154048Y-56602D03*
X151548Y-51602D03*
X154048Y-57852D03*
X151548Y-52852D03*
X154048Y-59102D03*
X151548Y-54102D03*
X154048Y-60352D03*
X151548Y-55352D03*
X154048Y-61602D03*
X151548Y-56602D03*
X154048Y-62852D03*
X151548Y-57852D03*
X154048Y-64102D03*
X151548Y-59102D03*
X151548Y-60352D03*
X154048Y-65352D03*
X151548Y-61602D03*
X151548Y-64102D03*
X151548Y-65352D03*
X151548Y-66602D03*
X151548Y-67852D03*
X154048Y-66602D03*
X154048Y-67852D03*
X154048Y-46602D03*
X154048Y-47852D03*
X154048Y-49102D03*
X154048Y-50352D03*
X154048Y-69102D03*
X151548Y-69102D03*
X151548Y-62852D03*
X151548Y-70352D03*
X154048Y-70352D03*
X151548Y-71602D03*
X154048Y-71602D03*
X151548Y-72852D03*
X154048Y-72852D03*
X151548Y-74102D03*
X154048Y-74102D03*
X151548Y-75352D03*
X154048Y-75352D03*
X151548Y-76602D03*
X154048Y-76602D03*
X151548Y-77852D03*
X154048Y-77852D03*
X151548Y-79102D03*
X154048Y-79102D03*
X151548Y-80352D03*
X154048Y-80352D03*
X151548Y-81602D03*
X154048Y-81602D03*
X151548Y-82852D03*
X154048Y-82852D03*
X151548Y-84102D03*
X154048Y-84102D03*
X151548Y-85352D03*
X154048Y-85352D03*
X151548Y-86602D03*
X154048Y-86602D03*
X151548Y-87852D03*
X154048Y-87852D03*
X151548Y-89102D03*
X154048Y-89102D03*
X151548Y-90352D03*
X154048Y-90352D03*
X151548Y-91602D03*
X154048Y-91602D03*
X151548Y-92852D03*
X154048Y-92852D03*
X151548Y-94102D03*
X154048Y-94102D03*
X151548Y-95352D03*
X154048Y-95352D03*
X151548Y-96602D03*
X154048Y-96602D03*
X151548Y-97852D03*
X154048Y-97852D03*
X151548Y-99102D03*
X154048Y-99102D03*
X151548Y-100352D03*
X154048Y-100352D03*
X151548Y-101602D03*
X154048Y-101602D03*
X151548Y-102852D03*
X154048Y-102852D03*
X151548Y-104102D03*
X154048Y-104102D03*
X151548Y-105352D03*
X154048Y-105352D03*
X151548Y-106602D03*
X154048Y-106602D03*
G54D19*
X152798Y-109952D03*
X152798Y-42002D03*
G54D15*
X161548Y-45352D03*
G54D14*
X159048Y-45352D03*
G54D15*
X161548Y-51602D03*
X159048Y-46602D03*
X161548Y-52852D03*
X159048Y-47852D03*
X161548Y-54102D03*
X159048Y-49102D03*
X161548Y-55352D03*
X159048Y-50352D03*
X161548Y-56602D03*
X159048Y-51602D03*
X161548Y-57852D03*
X159048Y-52852D03*
X161548Y-59102D03*
X159048Y-54102D03*
X161548Y-60352D03*
X159048Y-55352D03*
X161548Y-61602D03*
X159048Y-56602D03*
X161548Y-62852D03*
X159048Y-57852D03*
X161548Y-64102D03*
X159048Y-59102D03*
X159048Y-60352D03*
X161548Y-65352D03*
X159048Y-61602D03*
X159048Y-64102D03*
X159048Y-65352D03*
X159048Y-66602D03*
X159048Y-67852D03*
X161548Y-66602D03*
X161548Y-67852D03*
X161548Y-46602D03*
X161548Y-47852D03*
X161548Y-49102D03*
X161548Y-50352D03*
X161548Y-69102D03*
X159048Y-69102D03*
X159048Y-62852D03*
X159048Y-70352D03*
X161548Y-70352D03*
X159048Y-71602D03*
X161548Y-71602D03*
X159048Y-72852D03*
X161548Y-72852D03*
X159048Y-74102D03*
X161548Y-74102D03*
X159048Y-75352D03*
X161548Y-75352D03*
X159048Y-76602D03*
X161548Y-76602D03*
X159048Y-77852D03*
X161548Y-77852D03*
X159048Y-79102D03*
X161548Y-79102D03*
X159048Y-80352D03*
X161548Y-80352D03*
X159048Y-81602D03*
X161548Y-81602D03*
X159048Y-82852D03*
X161548Y-82852D03*
X159048Y-84102D03*
X161548Y-84102D03*
X159048Y-85352D03*
X161548Y-85352D03*
X159048Y-86602D03*
X161548Y-86602D03*
X159048Y-87852D03*
X161548Y-87852D03*
X159048Y-89102D03*
X161548Y-89102D03*
X159048Y-90352D03*
X161548Y-90352D03*
X159048Y-91602D03*
X161548Y-91602D03*
X159048Y-92852D03*
X161548Y-92852D03*
X159048Y-94102D03*
X161548Y-94102D03*
X159048Y-95352D03*
X161548Y-95352D03*
X159048Y-96602D03*
X161548Y-96602D03*
X159048Y-97852D03*
X161548Y-97852D03*
X159048Y-99102D03*
X161548Y-99102D03*
X159048Y-100352D03*
X161548Y-100352D03*
X159048Y-101602D03*
X161548Y-101602D03*
X159048Y-102852D03*
X161548Y-102852D03*
X159048Y-104102D03*
X161548Y-104102D03*
X159048Y-105352D03*
X161548Y-105352D03*
X159048Y-106602D03*
X161548Y-106602D03*
G54D19*
X160298Y-109952D03*
X160298Y-42002D03*
G54D15*
X169048Y-45352D03*
G54D14*
X166548Y-45352D03*
G54D15*
X169048Y-51602D03*
X166548Y-46602D03*
X169048Y-52852D03*
X166548Y-47852D03*
X169048Y-54102D03*
X166548Y-49102D03*
X169048Y-55352D03*
X166548Y-50352D03*
X169048Y-56602D03*
X166548Y-51602D03*
X169048Y-57852D03*
X166548Y-52852D03*
X169048Y-59102D03*
X166548Y-54102D03*
X169048Y-60352D03*
X166548Y-55352D03*
X169048Y-61602D03*
X166548Y-56602D03*
X169048Y-62852D03*
X166548Y-57852D03*
X169048Y-64102D03*
X166548Y-59102D03*
X166548Y-60352D03*
X169048Y-65352D03*
X166548Y-61602D03*
X166548Y-64102D03*
X166548Y-65352D03*
X166548Y-66602D03*
X166548Y-67852D03*
X169048Y-66602D03*
X169048Y-67852D03*
X169048Y-46602D03*
X169048Y-47852D03*
X169048Y-49102D03*
X169048Y-50352D03*
X169048Y-69102D03*
X166548Y-69102D03*
X166548Y-62852D03*
X166548Y-70352D03*
X169048Y-70352D03*
X166548Y-71602D03*
X169048Y-71602D03*
X166548Y-72852D03*
X169048Y-72852D03*
X166548Y-74102D03*
X169048Y-74102D03*
X166548Y-75352D03*
X169048Y-75352D03*
X166548Y-76602D03*
X169048Y-76602D03*
X166548Y-77852D03*
X169048Y-77852D03*
X166548Y-79102D03*
X169048Y-79102D03*
X166548Y-80352D03*
X169048Y-80352D03*
X166548Y-81602D03*
X169048Y-81602D03*
X166548Y-82852D03*
X169048Y-82852D03*
X166548Y-84102D03*
X169048Y-84102D03*
X166548Y-85352D03*
X169048Y-85352D03*
X166548Y-86602D03*
X169048Y-86602D03*
X166548Y-87852D03*
X169048Y-87852D03*
X166548Y-89102D03*
X169048Y-89102D03*
X166548Y-90352D03*
X169048Y-90352D03*
X166548Y-91602D03*
X169048Y-91602D03*
X166548Y-92852D03*
X169048Y-92852D03*
X166548Y-94102D03*
X169048Y-94102D03*
X166548Y-95352D03*
X169048Y-95352D03*
X166548Y-96602D03*
X169048Y-96602D03*
X166548Y-97852D03*
X169048Y-97852D03*
X166548Y-99102D03*
X169048Y-99102D03*
X166548Y-100352D03*
X169048Y-100352D03*
X166548Y-101602D03*
X169048Y-101602D03*
X166548Y-102852D03*
X169048Y-102852D03*
X166548Y-104102D03*
X169048Y-104102D03*
X166548Y-105352D03*
X169048Y-105352D03*
X166548Y-106602D03*
X169048Y-106602D03*
G54D19*
X167798Y-109952D03*
X167798Y-42002D03*
G54D15*
X176548Y-45352D03*
G54D14*
X174048Y-45352D03*
G54D15*
X176548Y-51602D03*
X174048Y-46602D03*
X176548Y-52852D03*
X174048Y-47852D03*
X176548Y-54102D03*
X174048Y-49102D03*
X176548Y-55352D03*
X174048Y-50352D03*
X176548Y-56602D03*
X174048Y-51602D03*
X176548Y-57852D03*
X174048Y-52852D03*
X176548Y-59102D03*
X174048Y-54102D03*
X176548Y-60352D03*
X174048Y-55352D03*
X176548Y-61602D03*
X174048Y-56602D03*
X176548Y-62852D03*
X174048Y-57852D03*
X176548Y-64102D03*
X174048Y-59102D03*
X174048Y-60352D03*
X176548Y-65352D03*
X174048Y-61602D03*
X174048Y-64102D03*
X174048Y-65352D03*
X174048Y-66602D03*
X174048Y-67852D03*
X176548Y-66602D03*
X176548Y-67852D03*
X176548Y-46602D03*
X176548Y-47852D03*
X176548Y-49102D03*
X176548Y-50352D03*
X176548Y-69102D03*
X174048Y-69102D03*
X174048Y-62852D03*
X174048Y-70352D03*
X176548Y-70352D03*
X174048Y-71602D03*
X176548Y-71602D03*
X174048Y-72852D03*
X176548Y-72852D03*
X174048Y-74102D03*
X176548Y-74102D03*
X174048Y-75352D03*
X176548Y-75352D03*
X174048Y-76602D03*
X176548Y-76602D03*
X174048Y-77852D03*
X176548Y-77852D03*
X174048Y-79102D03*
X176548Y-79102D03*
X174048Y-80352D03*
X176548Y-80352D03*
X174048Y-81602D03*
X176548Y-81602D03*
X174048Y-82852D03*
X176548Y-82852D03*
X174048Y-84102D03*
X176548Y-84102D03*
X174048Y-85352D03*
X176548Y-85352D03*
X174048Y-86602D03*
X176548Y-86602D03*
X174048Y-87852D03*
X176548Y-87852D03*
X174048Y-89102D03*
X176548Y-89102D03*
X174048Y-90352D03*
X176548Y-90352D03*
X174048Y-91602D03*
X176548Y-91602D03*
X174048Y-92852D03*
X176548Y-92852D03*
X174048Y-94102D03*
X176548Y-94102D03*
X174048Y-95352D03*
X176548Y-95352D03*
X174048Y-96602D03*
X176548Y-96602D03*
X174048Y-97852D03*
X176548Y-97852D03*
X174048Y-99102D03*
X176548Y-99102D03*
X174048Y-100352D03*
X176548Y-100352D03*
X174048Y-101602D03*
X176548Y-101602D03*
X174048Y-102852D03*
X176548Y-102852D03*
X174048Y-104102D03*
X176548Y-104102D03*
X174048Y-105352D03*
X176548Y-105352D03*
X174048Y-106602D03*
X176548Y-106602D03*
G54D19*
X175298Y-109952D03*
X175298Y-42002D03*
G54D15*
X184048Y-45352D03*
G54D14*
X181548Y-45352D03*
G54D15*
X184048Y-51602D03*
X181548Y-46602D03*
X184048Y-52852D03*
X181548Y-47852D03*
X184048Y-54102D03*
X181548Y-49102D03*
X184048Y-55352D03*
X181548Y-50352D03*
X184048Y-56602D03*
X181548Y-51602D03*
X184048Y-57852D03*
X181548Y-52852D03*
X184048Y-59102D03*
X181548Y-54102D03*
X184048Y-60352D03*
X181548Y-55352D03*
X184048Y-61602D03*
X181548Y-56602D03*
X184048Y-62852D03*
X181548Y-57852D03*
X184048Y-64102D03*
X181548Y-59102D03*
X181548Y-60352D03*
X184048Y-65352D03*
X181548Y-61602D03*
X181548Y-64102D03*
X181548Y-65352D03*
X181548Y-66602D03*
X181548Y-67852D03*
X184048Y-66602D03*
X184048Y-67852D03*
X184048Y-46602D03*
X184048Y-47852D03*
X184048Y-49102D03*
X184048Y-50352D03*
X184048Y-69102D03*
X181548Y-69102D03*
X181548Y-62852D03*
X181548Y-70352D03*
X184048Y-70352D03*
X181548Y-71602D03*
X184048Y-71602D03*
X181548Y-72852D03*
X184048Y-72852D03*
X181548Y-74102D03*
X184048Y-74102D03*
X181548Y-75352D03*
X184048Y-75352D03*
X181548Y-76602D03*
X184048Y-76602D03*
X181548Y-77852D03*
X184048Y-77852D03*
X181548Y-79102D03*
X184048Y-79102D03*
X181548Y-80352D03*
X184048Y-80352D03*
X181548Y-81602D03*
X184048Y-81602D03*
X181548Y-82852D03*
X184048Y-82852D03*
X181548Y-84102D03*
X184048Y-84102D03*
X181548Y-85352D03*
X184048Y-85352D03*
X181548Y-86602D03*
X184048Y-86602D03*
X181548Y-87852D03*
X184048Y-87852D03*
X181548Y-89102D03*
X184048Y-89102D03*
X181548Y-90352D03*
X184048Y-90352D03*
X181548Y-91602D03*
X184048Y-91602D03*
X181548Y-92852D03*
X184048Y-92852D03*
X181548Y-94102D03*
X184048Y-94102D03*
X181548Y-95352D03*
X184048Y-95352D03*
X181548Y-96602D03*
X184048Y-96602D03*
X181548Y-97852D03*
X184048Y-97852D03*
X181548Y-99102D03*
X184048Y-99102D03*
X181548Y-100352D03*
X184048Y-100352D03*
X181548Y-101602D03*
X184048Y-101602D03*
X181548Y-102852D03*
X184048Y-102852D03*
X181548Y-104102D03*
X184048Y-104102D03*
X181548Y-105352D03*
X184048Y-105352D03*
X181548Y-106602D03*
X184048Y-106602D03*
G54D19*
X182798Y-109952D03*
X182798Y-42002D03*
G54D15*
X56548Y-45352D03*
G54D14*
X54048Y-45352D03*
G54D15*
X56548Y-51602D03*
X54048Y-46602D03*
X56548Y-52852D03*
X54048Y-47852D03*
X56548Y-54102D03*
X54048Y-49102D03*
X56548Y-55352D03*
X54048Y-50352D03*
X56548Y-56602D03*
X54048Y-51602D03*
X56548Y-57852D03*
X54048Y-52852D03*
X56548Y-59102D03*
X54048Y-54102D03*
X56548Y-60352D03*
X54048Y-55352D03*
X56548Y-61602D03*
X54048Y-56602D03*
X56548Y-62852D03*
X54048Y-57852D03*
X56548Y-64102D03*
X54048Y-59102D03*
X54048Y-60352D03*
X56548Y-65352D03*
X54048Y-61602D03*
X54048Y-64102D03*
X54048Y-65352D03*
X54048Y-66602D03*
X54048Y-67852D03*
X56548Y-66602D03*
X56548Y-67852D03*
X56548Y-46602D03*
X56548Y-47852D03*
X56548Y-49102D03*
X56548Y-50352D03*
X56548Y-69102D03*
X54048Y-69102D03*
X54048Y-62852D03*
X54048Y-70352D03*
X56548Y-70352D03*
X54048Y-71602D03*
X56548Y-71602D03*
X54048Y-72852D03*
X56548Y-72852D03*
X54048Y-74102D03*
X56548Y-74102D03*
X54048Y-75352D03*
X56548Y-75352D03*
X54048Y-76602D03*
X56548Y-76602D03*
X54048Y-77852D03*
X56548Y-77852D03*
X54048Y-79102D03*
X56548Y-79102D03*
X54048Y-80352D03*
X56548Y-80352D03*
X54048Y-81602D03*
X56548Y-81602D03*
X54048Y-82852D03*
X56548Y-82852D03*
X54048Y-84102D03*
X56548Y-84102D03*
X54048Y-85352D03*
X56548Y-85352D03*
X54048Y-86602D03*
X56548Y-86602D03*
X54048Y-87852D03*
X56548Y-87852D03*
X54048Y-89102D03*
X56548Y-89102D03*
X54048Y-90352D03*
X56548Y-90352D03*
X54048Y-91602D03*
X56548Y-91602D03*
X54048Y-92852D03*
X56548Y-92852D03*
X54048Y-94102D03*
X56548Y-94102D03*
X54048Y-95352D03*
X56548Y-95352D03*
X54048Y-96602D03*
X56548Y-96602D03*
X54048Y-97852D03*
X56548Y-97852D03*
X54048Y-99102D03*
X56548Y-99102D03*
X54048Y-100352D03*
X56548Y-100352D03*
X54048Y-101602D03*
X56548Y-101602D03*
X54048Y-102852D03*
X56548Y-102852D03*
X54048Y-104102D03*
X56548Y-104102D03*
X54048Y-105352D03*
X56548Y-105352D03*
X54048Y-106602D03*
X56548Y-106602D03*
G54D19*
X55298Y-109952D03*
X55298Y-42002D03*
G54D11*
X66550Y-42000D03*
X51550Y-109929D03*
X51550Y-42000D03*
X66550Y-109929D03*
X96550Y-42000D03*
X96550Y-109929D03*
X196550Y-109929D03*
X196550Y-42000D03*
G54D13*
X193730Y-57750D03*
X196730Y-57750D03*
G54D12*
X191000Y-103900D03*
G54D13*
X191000Y-104900D03*
X191000Y-105900D03*
X191000Y-106900D03*
X191000Y-107900D03*
X191000Y-108900D03*
X191000Y-109900D03*
X194000Y-109900D03*
X194000Y-108900D03*
X194000Y-107900D03*
X194000Y-106900D03*
X194000Y-105900D03*
X194000Y-104900D03*
X194000Y-103900D03*
G54D12*
X194950Y-98550D03*
G54D13*
X191950Y-98550D03*
G54D20*
X200400Y-44450D03*
X200400Y-47700D03*
X200400Y-50950D03*
X200400Y-54200D03*
G54D15*
X192094Y-80840D03*
X194094Y-81840D03*
X192094Y-82840D03*
X64048Y-45352D03*
G54D14*
X61548Y-45352D03*
G54D15*
X64048Y-51602D03*
X61548Y-46602D03*
X64048Y-52852D03*
X61548Y-47852D03*
X64048Y-54102D03*
X61548Y-49102D03*
X64048Y-55352D03*
X61548Y-50352D03*
X64048Y-56602D03*
X61548Y-51602D03*
X64048Y-57852D03*
X61548Y-52852D03*
X64048Y-59102D03*
X61548Y-54102D03*
X64048Y-60352D03*
X61548Y-55352D03*
X64048Y-61602D03*
X61548Y-56602D03*
X64048Y-62852D03*
X61548Y-57852D03*
X64048Y-64102D03*
X61548Y-59102D03*
X61548Y-60352D03*
X64048Y-65352D03*
X61548Y-61602D03*
X61548Y-64102D03*
X61548Y-65352D03*
X61548Y-66602D03*
X61548Y-67852D03*
X64048Y-66602D03*
X64048Y-67852D03*
X64048Y-46602D03*
X64048Y-47852D03*
X64048Y-49102D03*
X64048Y-50352D03*
X64048Y-69102D03*
X61548Y-69102D03*
X61548Y-62852D03*
X61548Y-70352D03*
X64048Y-70352D03*
X61548Y-71602D03*
X64048Y-71602D03*
X61548Y-72852D03*
X64048Y-72852D03*
X61548Y-74102D03*
X64048Y-74102D03*
X61548Y-75352D03*
X64048Y-75352D03*
X61548Y-76602D03*
X64048Y-76602D03*
X61548Y-77852D03*
X64048Y-77852D03*
X61548Y-79102D03*
X64048Y-79102D03*
X61548Y-80352D03*
X64048Y-80352D03*
X61548Y-81602D03*
X64048Y-81602D03*
X61548Y-82852D03*
X64048Y-82852D03*
X61548Y-84102D03*
X64048Y-84102D03*
X61548Y-85352D03*
X64048Y-85352D03*
X61548Y-86602D03*
X64048Y-86602D03*
X61548Y-87852D03*
X64048Y-87852D03*
X61548Y-89102D03*
X64048Y-89102D03*
X61548Y-90352D03*
X64048Y-90352D03*
X61548Y-91602D03*
X64048Y-91602D03*
X61548Y-92852D03*
X64048Y-92852D03*
X61548Y-94102D03*
X64048Y-94102D03*
X61548Y-95352D03*
X64048Y-95352D03*
X61548Y-96602D03*
X64048Y-96602D03*
X61548Y-97852D03*
X64048Y-97852D03*
X61548Y-99102D03*
X64048Y-99102D03*
X61548Y-100352D03*
X64048Y-100352D03*
X61548Y-101602D03*
X64048Y-101602D03*
X61548Y-102852D03*
X64048Y-102852D03*
X61548Y-104102D03*
X64048Y-104102D03*
X61548Y-105352D03*
X64048Y-105352D03*
X61548Y-106602D03*
X64048Y-106602D03*
G54D19*
X62798Y-109952D03*
X62798Y-42002D03*
G54D17*
X196650Y-76950D03*
G54D18*
X196650Y-74950D03*
G54D17*
X196650Y-75950D03*
G54D16*
X203150Y-75950D03*
G54D17*
X196609Y-63490D03*
G54D18*
X196609Y-61490D03*
G54D17*
X196609Y-62490D03*
G54D16*
X203109Y-62490D03*
G54D21*
X195900Y-71200D03*
X195900Y-72200D03*
X195900Y-73200D03*
G54D13*
X193450Y-102350D03*
X191450Y-102350D03*
G54D12*
X190450Y-98550D03*
G54D13*
X190450Y-97550D03*
G54D11*
X171550Y-109950D03*
X141540Y-109920D03*
X111550Y-109929D03*
X81550Y-109929D03*
X171550Y-42000D03*
X141550Y-42000D03*
X111550Y-42000D03*
X81550Y-42000D03*
G54D14*
X50550Y-93250D03*
G54D15*
X51550Y-93250D03*
X50550Y-94250D03*
X51550Y-94250D03*
X50550Y-95250D03*
X51550Y-95250D03*
X50550Y-96250D03*
X51550Y-96250D03*
X50550Y-97250D03*
X51550Y-97250D03*
X50550Y-98250D03*
X51550Y-98250D03*
X50550Y-99250D03*
X51550Y-99250D03*
X50550Y-100250D03*
X51550Y-100250D03*
X50550Y-101250D03*
X51550Y-101250D03*
X50550Y-102250D03*
X51550Y-102250D03*
X50550Y-103250D03*
X51550Y-103250D03*
X50550Y-104250D03*
X51550Y-104250D03*
X50550Y-105250D03*
X51550Y-105250D03*
G54D14*
X50550Y-78800D03*
G54D15*
X51550Y-78800D03*
X50550Y-79800D03*
X51550Y-79800D03*
X50550Y-80800D03*
X51550Y-80800D03*
X50550Y-81800D03*
X51550Y-81800D03*
X50550Y-82800D03*
X51550Y-82800D03*
X50550Y-83800D03*
X51550Y-83800D03*
X50550Y-84800D03*
X51550Y-84800D03*
X50550Y-85800D03*
X51550Y-85800D03*
X50550Y-86800D03*
X51550Y-86800D03*
X50550Y-87800D03*
X51550Y-87800D03*
X50550Y-88800D03*
X51550Y-88800D03*
X50550Y-89800D03*
X51550Y-89800D03*
X50550Y-90800D03*
X51550Y-90800D03*
G54D14*
X50550Y-46600D03*
G54D15*
X51550Y-46600D03*
X50550Y-47600D03*
X51550Y-47600D03*
X50550Y-48600D03*
X51550Y-48600D03*
X50550Y-49600D03*
X51550Y-49600D03*
X50550Y-50600D03*
X51550Y-50600D03*
X50550Y-51600D03*
X51550Y-51600D03*
X50550Y-52600D03*
X51550Y-52600D03*
X50550Y-53600D03*
X51550Y-53600D03*
X50550Y-54600D03*
X51550Y-54600D03*
X50550Y-55600D03*
X51550Y-55600D03*
X50550Y-56600D03*
X51550Y-56600D03*
X50550Y-57600D03*
X51550Y-57600D03*
X50550Y-58600D03*
X51550Y-58600D03*
G54D14*
X50550Y-61050D03*
G54D15*
X51550Y-61050D03*
X50550Y-62050D03*
X51550Y-62050D03*
X50550Y-63050D03*
X51550Y-63050D03*
X50550Y-64050D03*
X51550Y-64050D03*
X50550Y-65050D03*
X51550Y-65050D03*
X50550Y-66050D03*
X51550Y-66050D03*
X50550Y-67050D03*
X51550Y-67050D03*
X50550Y-68050D03*
X51550Y-68050D03*
X50550Y-69050D03*
X51550Y-69050D03*
X50550Y-70050D03*
X51550Y-70050D03*
X50550Y-71050D03*
X51550Y-71050D03*
X50550Y-72050D03*
X51550Y-72050D03*
X50550Y-73050D03*
X51550Y-73050D03*
G54D21*
X195900Y-65600D03*
X195900Y-66600D03*
X195900Y-67600D03*
G54D22*
X195400Y-53100D03*
X195400Y-52100D03*
M02*
