M48
;DRILL file {Pcbnew (2013-07-07 BZR 4022)-stable} date 10/5/2016 8:33:51 PM
;FORMAT={-:-/ absolute / metric / decimal}
FMAT,2
METRIC,TZ
T1C0.813
T2C1.016
T3C1.143
T4C2.032
T5C3.048
T6C3.251
%
G90
G05
M71
T1
X128.397Y118.364
X128.397Y155.067
X128.397Y200.152
X128.397Y236.855
X471.932Y121.107
X471.932Y123.647
X471.932Y126.187
X471.932Y128.727
X471.932Y131.267
X471.932Y133.807
X471.932Y136.347
X471.932Y138.887
X471.932Y141.427
X471.932Y143.967
X471.932Y149.047
X471.932Y151.587
X471.932Y154.127
X471.932Y156.667
X471.932Y159.207
X471.932Y161.747
X471.932Y164.287
X471.932Y166.827
X471.932Y169.367
X471.932Y171.907
X471.932Y176.987
X471.932Y179.527
X471.932Y182.067
X471.932Y184.607
X471.932Y187.147
X471.932Y189.687
X471.932Y192.227
X471.932Y194.767
X471.932Y197.307
X471.932Y199.847
X471.932Y204.927
X471.932Y207.467
X471.932Y210.007
X471.932Y212.547
X471.932Y215.087
X471.932Y217.627
X471.932Y220.167
X471.932Y222.707
X471.932Y225.247
X471.932Y227.787
X471.932Y232.867
X471.932Y235.407
X471.932Y237.947
X471.932Y240.487
X471.932Y243.027
X471.932Y245.567
X471.932Y248.107
X471.932Y250.647
X471.932Y253.187
X471.932Y255.727
X471.932Y259.842
X471.932Y262.382
X471.932Y264.922
X471.932Y267.462
X474.472Y121.107
X474.472Y123.647
X474.472Y126.187
X474.472Y128.727
X474.472Y131.267
X474.472Y133.807
X474.472Y136.347
X474.472Y138.887
X474.472Y141.427
X474.472Y143.967
X474.472Y149.047
X474.472Y151.587
X474.472Y154.127
X474.472Y156.667
X474.472Y159.207
X474.472Y161.747
X474.472Y164.287
X474.472Y166.827
X474.472Y169.367
X474.472Y171.907
X474.472Y176.987
X474.472Y179.527
X474.472Y182.067
X474.472Y184.607
X474.472Y187.147
X474.472Y189.687
X474.472Y192.227
X474.472Y194.767
X474.472Y197.307
X474.472Y199.847
X474.472Y204.927
X474.472Y207.467
X474.472Y210.007
X474.472Y212.547
X474.472Y215.087
X474.472Y217.627
X474.472Y220.167
X474.472Y222.707
X474.472Y225.247
X474.472Y227.787
X474.472Y232.867
X474.472Y235.407
X474.472Y237.947
X474.472Y240.487
X474.472Y243.027
X474.472Y245.567
X474.472Y248.107
X474.472Y250.647
X474.472Y253.187
X474.472Y255.727
X477.774Y168.529
X477.774Y173.101
X478.028Y125.984
X479.044Y118.364
X479.044Y146.558
X479.044Y179.197
X479.044Y202.184
X479.044Y229.997
X479.552Y259.842
X479.552Y262.382
X479.552Y264.922
X479.552Y267.462
X480.314Y168.529
X480.314Y173.101
X480.568Y125.984
X481.584Y118.364
X481.584Y146.558
X481.584Y179.197
X481.584Y202.184
X481.584Y229.997
X481.711Y132.588
X481.711Y140.208
X482.854Y218.186
X483.743Y247.777
X483.743Y250.317
X485.14Y263.906
X485.14Y266.446
X485.14Y268.986
X485.14Y271.526
X485.14Y274.066
X485.14Y276.606
X485.14Y279.146
X485.394Y218.186
X486.283Y259.969
X487.426Y222.834
X487.426Y225.374
X487.426Y227.914
X487.426Y230.454
X487.553Y250.317
X487.553Y253.111
X487.553Y255.905
X487.921Y205.334
X487.921Y210.414
X488.861Y193.192
X488.861Y200.812
X491.363Y259.969
X492.074Y146.685
X492.506Y174.752
X492.506Y177.8
X492.76Y237.236
X492.76Y263.906
X492.76Y266.446
X492.76Y268.986
X492.76Y271.526
X492.76Y274.066
X492.76Y276.606
X492.76Y279.146
X493.001Y207.874
X495.046Y222.834
X495.046Y225.374
X495.046Y227.914
X495.046Y230.454
X495.173Y250.317
X495.173Y253.111
X495.173Y255.905
X495.3Y237.236
X496.316Y132.334
X496.316Y134.874
X497.586Y166.624
X497.586Y169.164
X497.586Y171.704
X497.586Y180.848
X497.586Y183.388
X497.586Y185.928
X498.602Y271.399
X499.237Y210.058
X499.237Y217.678
X499.694Y146.685
X500.126Y174.752
X500.126Y177.8
X501.142Y271.399
X501.777Y210.058
X501.777Y217.678
X504.393Y210.02
X504.393Y217.64
X506.933Y210.02
X506.933Y217.64
X507.619Y259.842
X507.619Y267.462
X509.524Y210.058
X509.524Y217.678
X512.699Y259.842
X512.699Y267.462
X515.874Y213.868
X518.414Y213.868
T2
X128.397Y120.904
X128.397Y123.444
X128.397Y125.984
X128.397Y128.524
X128.397Y131.064
X128.397Y133.604
X128.397Y136.144
X128.397Y138.684
X128.397Y141.224
X128.397Y143.764
X128.397Y146.304
X128.397Y148.844
X128.397Y157.607
X128.397Y160.147
X128.397Y162.687
X128.397Y165.227
X128.397Y167.767
X128.397Y170.307
X128.397Y172.847
X128.397Y175.387
X128.397Y177.927
X128.397Y180.467
X128.397Y183.007
X128.397Y185.547
X128.397Y202.692
X128.397Y205.232
X128.397Y207.772
X128.397Y210.312
X128.397Y212.852
X128.397Y215.392
X128.397Y217.932
X128.397Y220.472
X128.397Y223.012
X128.397Y225.552
X128.397Y228.092
X128.397Y230.632
X128.397Y239.395
X128.397Y241.935
X128.397Y244.475
X128.397Y247.015
X128.397Y249.555
X128.397Y252.095
X128.397Y254.635
X128.397Y257.175
X128.397Y259.715
X128.397Y262.255
X128.397Y264.795
X128.397Y267.335
X130.937Y118.364
X130.937Y120.904
X130.937Y123.444
X130.937Y125.984
X130.937Y128.524
X130.937Y131.064
X130.937Y133.604
X130.937Y136.144
X130.937Y138.684
X130.937Y141.224
X130.937Y143.764
X130.937Y146.304
X130.937Y148.844
X130.937Y155.067
X130.937Y157.607
X130.937Y160.147
X130.937Y162.687
X130.937Y165.227
X130.937Y167.767
X130.937Y170.307
X130.937Y172.847
X130.937Y175.387
X130.937Y177.927
X130.937Y180.467
X130.937Y183.007
X130.937Y185.547
X130.937Y200.152
X130.937Y202.692
X130.937Y205.232
X130.937Y207.772
X130.937Y210.312
X130.937Y212.852
X130.937Y215.392
X130.937Y217.932
X130.937Y220.472
X130.937Y223.012
X130.937Y225.552
X130.937Y228.092
X130.937Y230.632
X130.937Y236.855
X130.937Y239.395
X130.937Y241.935
X130.937Y244.475
X130.937Y247.015
X130.937Y249.555
X130.937Y252.095
X130.937Y254.635
X130.937Y257.175
X130.937Y259.715
X130.937Y262.255
X130.937Y264.795
X130.937Y267.335
X137.282Y115.196
X137.282Y118.371
X137.282Y121.546
X137.282Y124.721
X137.282Y127.896
X137.282Y131.071
X137.282Y134.246
X137.282Y137.421
X137.282Y140.596
X137.282Y143.771
X137.282Y146.946
X137.282Y150.121
X137.282Y153.296
X137.282Y156.471
X137.282Y159.646
X137.282Y162.821
X137.282Y165.996
X137.282Y169.171
X137.282Y172.346
X137.282Y175.521
X137.282Y178.696
X137.282Y181.871
X137.282Y185.046
X137.282Y188.221
X137.282Y191.396
X137.282Y194.571
X137.282Y197.746
X137.282Y200.921
X137.282Y204.096
X137.282Y207.271
X137.282Y210.446
X137.282Y213.621
X137.282Y216.796
X137.282Y219.971
X137.282Y223.146
X137.282Y226.321
X137.282Y229.496
X137.282Y232.671
X137.282Y235.846
X137.282Y239.021
X137.282Y242.196
X137.282Y245.371
X137.282Y248.546
X137.282Y251.721
X137.282Y254.896
X137.282Y258.071
X137.282Y261.246
X137.282Y264.421
X137.282Y267.596
X137.282Y270.771
X143.632Y115.196
X143.632Y118.371
X143.632Y121.546
X143.632Y124.721
X143.632Y127.896
X143.632Y131.071
X143.632Y134.246
X143.632Y137.421
X143.632Y140.596
X143.632Y143.771
X143.632Y146.946
X143.632Y150.121
X143.632Y153.296
X143.632Y156.471
X143.632Y159.646
X143.632Y162.821
X143.632Y165.996
X143.632Y169.171
X143.632Y172.346
X143.632Y175.521
X143.632Y178.696
X143.632Y181.871
X143.632Y185.046
X143.632Y188.221
X143.632Y191.396
X143.632Y194.571
X143.632Y197.746
X143.632Y200.921
X143.632Y204.096
X143.632Y207.271
X143.632Y210.446
X143.632Y213.621
X143.632Y216.796
X143.632Y219.971
X143.632Y223.146
X143.632Y226.321
X143.632Y229.496
X143.632Y232.671
X143.632Y235.846
X143.632Y239.021
X143.632Y242.196
X143.632Y245.371
X143.632Y248.546
X143.632Y251.721
X143.632Y254.896
X143.632Y258.071
X143.632Y261.246
X143.632Y264.421
X143.632Y267.596
X143.632Y270.771
X156.332Y115.196
X156.332Y118.371
X156.332Y121.546
X156.332Y124.721
X156.332Y127.896
X156.332Y131.071
X156.332Y134.246
X156.332Y137.421
X156.332Y140.596
X156.332Y143.771
X156.332Y146.946
X156.332Y150.121
X156.332Y153.296
X156.332Y156.471
X156.332Y159.646
X156.332Y162.821
X156.332Y165.996
X156.332Y169.171
X156.332Y172.346
X156.332Y175.521
X156.332Y178.696
X156.332Y181.871
X156.332Y185.046
X156.332Y188.221
X156.332Y191.396
X156.332Y194.571
X156.332Y197.746
X156.332Y200.921
X156.332Y204.096
X156.332Y207.271
X156.332Y210.446
X156.332Y213.621
X156.332Y216.796
X156.332Y219.971
X156.332Y223.146
X156.332Y226.321
X156.332Y229.496
X156.332Y232.671
X156.332Y235.846
X156.332Y239.021
X156.332Y242.196
X156.332Y245.371
X156.332Y248.546
X156.332Y251.721
X156.332Y254.896
X156.332Y258.071
X156.332Y261.246
X156.332Y264.421
X156.332Y267.596
X156.332Y270.771
X162.682Y115.196
X162.682Y118.371
X162.682Y121.546
X162.682Y124.721
X162.682Y127.896
X162.682Y131.071
X162.682Y134.246
X162.682Y137.421
X162.682Y140.596
X162.682Y143.771
X162.682Y146.946
X162.682Y150.121
X162.682Y153.296
X162.682Y156.471
X162.682Y159.646
X162.682Y162.821
X162.682Y165.996
X162.682Y169.171
X162.682Y172.346
X162.682Y175.521
X162.682Y178.696
X162.682Y181.871
X162.682Y185.046
X162.682Y188.221
X162.682Y191.396
X162.682Y194.571
X162.682Y197.746
X162.682Y200.921
X162.682Y204.096
X162.682Y207.271
X162.682Y210.446
X162.682Y213.621
X162.682Y216.796
X162.682Y219.971
X162.682Y223.146
X162.682Y226.321
X162.682Y229.496
X162.682Y232.671
X162.682Y235.846
X162.682Y239.021
X162.682Y242.196
X162.682Y245.371
X162.682Y248.546
X162.682Y251.721
X162.682Y254.896
X162.682Y258.071
X162.682Y261.246
X162.682Y264.421
X162.682Y267.596
X162.682Y270.771
X175.382Y115.196
X175.382Y118.371
X175.382Y121.546
X175.382Y124.721
X175.382Y127.896
X175.382Y131.071
X175.382Y134.246
X175.382Y137.421
X175.382Y140.596
X175.382Y143.771
X175.382Y146.946
X175.382Y150.121
X175.382Y153.296
X175.382Y156.471
X175.382Y159.646
X175.382Y162.821
X175.382Y165.996
X175.382Y169.171
X175.382Y172.346
X175.382Y175.521
X175.382Y178.696
X175.382Y181.871
X175.382Y185.046
X175.382Y188.221
X175.382Y191.396
X175.382Y194.571
X175.382Y197.746
X175.382Y200.921
X175.382Y204.096
X175.382Y207.271
X175.382Y210.446
X175.382Y213.621
X175.382Y216.796
X175.382Y219.971
X175.382Y223.146
X175.382Y226.321
X175.382Y229.496
X175.382Y232.671
X175.382Y235.846
X175.382Y239.021
X175.382Y242.196
X175.382Y245.371
X175.382Y248.546
X175.382Y251.721
X175.382Y254.896
X175.382Y258.071
X175.382Y261.246
X175.382Y264.421
X175.382Y267.596
X175.382Y270.771
X181.732Y115.196
X181.732Y118.371
X181.732Y121.546
X181.732Y124.721
X181.732Y127.896
X181.732Y131.071
X181.732Y134.246
X181.732Y137.421
X181.732Y140.596
X181.732Y143.771
X181.732Y146.946
X181.732Y150.121
X181.732Y153.296
X181.732Y156.471
X181.732Y159.646
X181.732Y162.821
X181.732Y165.996
X181.732Y169.171
X181.732Y172.346
X181.732Y175.521
X181.732Y178.696
X181.732Y181.871
X181.732Y185.046
X181.732Y188.221
X181.732Y191.396
X181.732Y194.571
X181.732Y197.746
X181.732Y200.921
X181.732Y204.096
X181.732Y207.271
X181.732Y210.446
X181.732Y213.621
X181.732Y216.796
X181.732Y219.971
X181.732Y223.146
X181.732Y226.321
X181.732Y229.496
X181.732Y232.671
X181.732Y235.846
X181.732Y239.021
X181.732Y242.196
X181.732Y245.371
X181.732Y248.546
X181.732Y251.721
X181.732Y254.896
X181.732Y258.071
X181.732Y261.246
X181.732Y264.421
X181.732Y267.596
X181.732Y270.771
X194.432Y115.196
X194.432Y118.371
X194.432Y121.546
X194.432Y124.721
X194.432Y127.896
X194.432Y131.071
X194.432Y134.246
X194.432Y137.421
X194.432Y140.596
X194.432Y143.771
X194.432Y146.946
X194.432Y150.121
X194.432Y153.296
X194.432Y156.471
X194.432Y159.646
X194.432Y162.821
X194.432Y165.996
X194.432Y169.171
X194.432Y172.346
X194.432Y175.521
X194.432Y178.696
X194.432Y181.871
X194.432Y185.046
X194.432Y188.221
X194.432Y191.396
X194.432Y194.571
X194.432Y197.746
X194.432Y200.921
X194.432Y204.096
X194.432Y207.271
X194.432Y210.446
X194.432Y213.621
X194.432Y216.796
X194.432Y219.971
X194.432Y223.146
X194.432Y226.321
X194.432Y229.496
X194.432Y232.671
X194.432Y235.846
X194.432Y239.021
X194.432Y242.196
X194.432Y245.371
X194.432Y248.546
X194.432Y251.721
X194.432Y254.896
X194.432Y258.071
X194.432Y261.246
X194.432Y264.421
X194.432Y267.596
X194.432Y270.771
X200.782Y115.196
X200.782Y118.371
X200.782Y121.546
X200.782Y124.721
X200.782Y127.896
X200.782Y131.071
X200.782Y134.246
X200.782Y137.421
X200.782Y140.596
X200.782Y143.771
X200.782Y146.946
X200.782Y150.121
X200.782Y153.296
X200.782Y156.471
X200.782Y159.646
X200.782Y162.821
X200.782Y165.996
X200.782Y169.171
X200.782Y172.346
X200.782Y175.521
X200.782Y178.696
X200.782Y181.871
X200.782Y185.046
X200.782Y188.221
X200.782Y191.396
X200.782Y194.571
X200.782Y197.746
X200.782Y200.921
X200.782Y204.096
X200.782Y207.271
X200.782Y210.446
X200.782Y213.621
X200.782Y216.796
X200.782Y219.971
X200.782Y223.146
X200.782Y226.321
X200.782Y229.496
X200.782Y232.671
X200.782Y235.846
X200.782Y239.021
X200.782Y242.196
X200.782Y245.371
X200.782Y248.546
X200.782Y251.721
X200.782Y254.896
X200.782Y258.071
X200.782Y261.246
X200.782Y264.421
X200.782Y267.596
X200.782Y270.771
X213.482Y115.196
X213.482Y118.371
X213.482Y121.546
X213.482Y124.721
X213.482Y127.896
X213.482Y131.071
X213.482Y134.246
X213.482Y137.421
X213.482Y140.596
X213.482Y143.771
X213.482Y146.946
X213.482Y150.121
X213.482Y153.296
X213.482Y156.471
X213.482Y159.646
X213.482Y162.821
X213.482Y165.996
X213.482Y169.171
X213.482Y172.346
X213.482Y175.521
X213.482Y178.696
X213.482Y181.871
X213.482Y185.046
X213.482Y188.221
X213.482Y191.396
X213.482Y194.571
X213.482Y197.746
X213.482Y200.921
X213.482Y204.096
X213.482Y207.271
X213.482Y210.446
X213.482Y213.621
X213.482Y216.796
X213.482Y219.971
X213.482Y223.146
X213.482Y226.321
X213.482Y229.496
X213.482Y232.671
X213.482Y235.846
X213.482Y239.021
X213.482Y242.196
X213.482Y245.371
X213.482Y248.546
X213.482Y251.721
X213.482Y254.896
X213.482Y258.071
X213.482Y261.246
X213.482Y264.421
X213.482Y267.596
X213.482Y270.771
X219.832Y115.196
X219.832Y118.371
X219.832Y121.546
X219.832Y124.721
X219.832Y127.896
X219.832Y131.071
X219.832Y134.246
X219.832Y137.421
X219.832Y140.596
X219.832Y143.771
X219.832Y146.946
X219.832Y150.121
X219.832Y153.296
X219.832Y156.471
X219.832Y159.646
X219.832Y162.821
X219.832Y165.996
X219.832Y169.171
X219.832Y172.346
X219.832Y175.521
X219.832Y178.696
X219.832Y181.871
X219.832Y185.046
X219.832Y188.221
X219.832Y191.396
X219.832Y194.571
X219.832Y197.746
X219.832Y200.921
X219.832Y204.096
X219.832Y207.271
X219.832Y210.446
X219.832Y213.621
X219.832Y216.796
X219.832Y219.971
X219.832Y223.146
X219.832Y226.321
X219.832Y229.496
X219.832Y232.671
X219.832Y235.846
X219.832Y239.021
X219.832Y242.196
X219.832Y245.371
X219.832Y248.546
X219.832Y251.721
X219.832Y254.896
X219.832Y258.071
X219.832Y261.246
X219.832Y264.421
X219.832Y267.596
X219.832Y270.771
X232.532Y115.196
X232.532Y118.371
X232.532Y121.546
X232.532Y124.721
X232.532Y127.896
X232.532Y131.071
X232.532Y134.246
X232.532Y137.421
X232.532Y140.596
X232.532Y143.771
X232.532Y146.946
X232.532Y150.121
X232.532Y153.296
X232.532Y156.471
X232.532Y159.646
X232.532Y162.821
X232.532Y165.996
X232.532Y169.171
X232.532Y172.346
X232.532Y175.521
X232.532Y178.696
X232.532Y181.871
X232.532Y185.046
X232.532Y188.221
X232.532Y191.396
X232.532Y194.571
X232.532Y197.746
X232.532Y200.921
X232.532Y204.096
X232.532Y207.271
X232.532Y210.446
X232.532Y213.621
X232.532Y216.796
X232.532Y219.971
X232.532Y223.146
X232.532Y226.321
X232.532Y229.496
X232.532Y232.671
X232.532Y235.846
X232.532Y239.021
X232.532Y242.196
X232.532Y245.371
X232.532Y248.546
X232.532Y251.721
X232.532Y254.896
X232.532Y258.071
X232.532Y261.246
X232.532Y264.421
X232.532Y267.596
X232.532Y270.771
X238.882Y115.196
X238.882Y118.371
X238.882Y121.546
X238.882Y124.721
X238.882Y127.896
X238.882Y131.071
X238.882Y134.246
X238.882Y137.421
X238.882Y140.596
X238.882Y143.771
X238.882Y146.946
X238.882Y150.121
X238.882Y153.296
X238.882Y156.471
X238.882Y159.646
X238.882Y162.821
X238.882Y165.996
X238.882Y169.171
X238.882Y172.346
X238.882Y175.521
X238.882Y178.696
X238.882Y181.871
X238.882Y185.046
X238.882Y188.221
X238.882Y191.396
X238.882Y194.571
X238.882Y197.746
X238.882Y200.921
X238.882Y204.096
X238.882Y207.271
X238.882Y210.446
X238.882Y213.621
X238.882Y216.796
X238.882Y219.971
X238.882Y223.146
X238.882Y226.321
X238.882Y229.496
X238.882Y232.671
X238.882Y235.846
X238.882Y239.021
X238.882Y242.196
X238.882Y245.371
X238.882Y248.546
X238.882Y251.721
X238.882Y254.896
X238.882Y258.071
X238.882Y261.246
X238.882Y264.421
X238.882Y267.596
X238.882Y270.771
X251.582Y115.196
X251.582Y118.371
X251.582Y121.546
X251.582Y124.721
X251.582Y127.896
X251.582Y131.071
X251.582Y134.246
X251.582Y137.421
X251.582Y140.596
X251.582Y143.771
X251.582Y146.946
X251.582Y150.121
X251.582Y153.296
X251.582Y156.471
X251.582Y159.646
X251.582Y162.821
X251.582Y165.996
X251.582Y169.171
X251.582Y172.346
X251.582Y175.521
X251.582Y178.696
X251.582Y181.871
X251.582Y185.046
X251.582Y188.221
X251.582Y191.396
X251.582Y194.571
X251.582Y197.746
X251.582Y200.921
X251.582Y204.096
X251.582Y207.271
X251.582Y210.446
X251.582Y213.621
X251.582Y216.796
X251.582Y219.971
X251.582Y223.146
X251.582Y226.321
X251.582Y229.496
X251.582Y232.671
X251.582Y235.846
X251.582Y239.021
X251.582Y242.196
X251.582Y245.371
X251.582Y248.546
X251.582Y251.721
X251.582Y254.896
X251.582Y258.071
X251.582Y261.246
X251.582Y264.421
X251.582Y267.596
X251.582Y270.771
X257.932Y115.196
X257.932Y118.371
X257.932Y121.546
X257.932Y124.721
X257.932Y127.896
X257.932Y131.071
X257.932Y134.246
X257.932Y137.421
X257.932Y140.596
X257.932Y143.771
X257.932Y146.946
X257.932Y150.121
X257.932Y153.296
X257.932Y156.471
X257.932Y159.646
X257.932Y162.821
X257.932Y165.996
X257.932Y169.171
X257.932Y172.346
X257.932Y175.521
X257.932Y178.696
X257.932Y181.871
X257.932Y185.046
X257.932Y188.221
X257.932Y191.396
X257.932Y194.571
X257.932Y197.746
X257.932Y200.921
X257.932Y204.096
X257.932Y207.271
X257.932Y210.446
X257.932Y213.621
X257.932Y216.796
X257.932Y219.971
X257.932Y223.146
X257.932Y226.321
X257.932Y229.496
X257.932Y232.671
X257.932Y235.846
X257.932Y239.021
X257.932Y242.196
X257.932Y245.371
X257.932Y248.546
X257.932Y251.721
X257.932Y254.896
X257.932Y258.071
X257.932Y261.246
X257.932Y264.421
X257.932Y267.596
X257.932Y270.771
X270.632Y115.196
X270.632Y118.371
X270.632Y121.546
X270.632Y124.721
X270.632Y127.896
X270.632Y131.071
X270.632Y134.246
X270.632Y137.421
X270.632Y140.596
X270.632Y143.771
X270.632Y146.946
X270.632Y150.121
X270.632Y153.296
X270.632Y156.471
X270.632Y159.646
X270.632Y162.821
X270.632Y165.996
X270.632Y169.171
X270.632Y172.346
X270.632Y175.521
X270.632Y178.696
X270.632Y181.871
X270.632Y185.046
X270.632Y188.221
X270.632Y191.396
X270.632Y194.571
X270.632Y197.746
X270.632Y200.921
X270.632Y204.096
X270.632Y207.271
X270.632Y210.446
X270.632Y213.621
X270.632Y216.796
X270.632Y219.971
X270.632Y223.146
X270.632Y226.321
X270.632Y229.496
X270.632Y232.671
X270.632Y235.846
X270.632Y239.021
X270.632Y242.196
X270.632Y245.371
X270.632Y248.546
X270.632Y251.721
X270.632Y254.896
X270.632Y258.071
X270.632Y261.246
X270.632Y264.421
X270.632Y267.596
X270.632Y270.771
X276.982Y115.196
X276.982Y118.371
X276.982Y121.546
X276.982Y124.721
X276.982Y127.896
X276.982Y131.071
X276.982Y134.246
X276.982Y137.421
X276.982Y140.596
X276.982Y143.771
X276.982Y146.946
X276.982Y150.121
X276.982Y153.296
X276.982Y156.471
X276.982Y159.646
X276.982Y162.821
X276.982Y165.996
X276.982Y169.171
X276.982Y172.346
X276.982Y175.521
X276.982Y178.696
X276.982Y181.871
X276.982Y185.046
X276.982Y188.221
X276.982Y191.396
X276.982Y194.571
X276.982Y197.746
X276.982Y200.921
X276.982Y204.096
X276.982Y207.271
X276.982Y210.446
X276.982Y213.621
X276.982Y216.796
X276.982Y219.971
X276.982Y223.146
X276.982Y226.321
X276.982Y229.496
X276.982Y232.671
X276.982Y235.846
X276.982Y239.021
X276.982Y242.196
X276.982Y245.371
X276.982Y248.546
X276.982Y251.721
X276.982Y254.896
X276.982Y258.071
X276.982Y261.246
X276.982Y264.421
X276.982Y267.596
X276.982Y270.771
X289.682Y115.196
X289.682Y118.371
X289.682Y121.546
X289.682Y124.721
X289.682Y127.896
X289.682Y131.071
X289.682Y134.246
X289.682Y137.421
X289.682Y140.596
X289.682Y143.771
X289.682Y146.946
X289.682Y150.121
X289.682Y153.296
X289.682Y156.471
X289.682Y159.646
X289.682Y162.821
X289.682Y165.996
X289.682Y169.171
X289.682Y172.346
X289.682Y175.521
X289.682Y178.696
X289.682Y181.871
X289.682Y185.046
X289.682Y188.221
X289.682Y191.396
X289.682Y194.571
X289.682Y197.746
X289.682Y200.921
X289.682Y204.096
X289.682Y207.271
X289.682Y210.446
X289.682Y213.621
X289.682Y216.796
X289.682Y219.971
X289.682Y223.146
X289.682Y226.321
X289.682Y229.496
X289.682Y232.671
X289.682Y235.846
X289.682Y239.021
X289.682Y242.196
X289.682Y245.371
X289.682Y248.546
X289.682Y251.721
X289.682Y254.896
X289.682Y258.071
X289.682Y261.246
X289.682Y264.421
X289.682Y267.596
X289.682Y270.771
X296.032Y115.196
X296.032Y118.371
X296.032Y121.546
X296.032Y124.721
X296.032Y127.896
X296.032Y131.071
X296.032Y134.246
X296.032Y137.421
X296.032Y140.596
X296.032Y143.771
X296.032Y146.946
X296.032Y150.121
X296.032Y153.296
X296.032Y156.471
X296.032Y159.646
X296.032Y162.821
X296.032Y165.996
X296.032Y169.171
X296.032Y172.346
X296.032Y175.521
X296.032Y178.696
X296.032Y181.871
X296.032Y185.046
X296.032Y188.221
X296.032Y191.396
X296.032Y194.571
X296.032Y197.746
X296.032Y200.921
X296.032Y204.096
X296.032Y207.271
X296.032Y210.446
X296.032Y213.621
X296.032Y216.796
X296.032Y219.971
X296.032Y223.146
X296.032Y226.321
X296.032Y229.496
X296.032Y232.671
X296.032Y235.846
X296.032Y239.021
X296.032Y242.196
X296.032Y245.371
X296.032Y248.546
X296.032Y251.721
X296.032Y254.896
X296.032Y258.071
X296.032Y261.246
X296.032Y264.421
X296.032Y267.596
X296.032Y270.771
X308.732Y115.196
X308.732Y118.371
X308.732Y121.546
X308.732Y124.721
X308.732Y127.896
X308.732Y131.071
X308.732Y134.246
X308.732Y137.421
X308.732Y140.596
X308.732Y143.771
X308.732Y146.946
X308.732Y150.121
X308.732Y153.296
X308.732Y156.471
X308.732Y159.646
X308.732Y162.821
X308.732Y165.996
X308.732Y169.171
X308.732Y172.346
X308.732Y175.521
X308.732Y178.696
X308.732Y181.871
X308.732Y185.046
X308.732Y188.221
X308.732Y191.396
X308.732Y194.571
X308.732Y197.746
X308.732Y200.921
X308.732Y204.096
X308.732Y207.271
X308.732Y210.446
X308.732Y213.621
X308.732Y216.796
X308.732Y219.971
X308.732Y223.146
X308.732Y226.321
X308.732Y229.496
X308.732Y232.671
X308.732Y235.846
X308.732Y239.021
X308.732Y242.196
X308.732Y245.371
X308.732Y248.546
X308.732Y251.721
X308.732Y254.896
X308.732Y258.071
X308.732Y261.246
X308.732Y264.421
X308.732Y267.596
X308.732Y270.771
X315.082Y115.196
X315.082Y118.371
X315.082Y121.546
X315.082Y124.721
X315.082Y127.896
X315.082Y131.071
X315.082Y134.246
X315.082Y137.421
X315.082Y140.596
X315.082Y143.771
X315.082Y146.946
X315.082Y150.121
X315.082Y153.296
X315.082Y156.471
X315.082Y159.646
X315.082Y162.821
X315.082Y165.996
X315.082Y169.171
X315.082Y172.346
X315.082Y175.521
X315.082Y178.696
X315.082Y181.871
X315.082Y185.046
X315.082Y188.221
X315.082Y191.396
X315.082Y194.571
X315.082Y197.746
X315.082Y200.921
X315.082Y204.096
X315.082Y207.271
X315.082Y210.446
X315.082Y213.621
X315.082Y216.796
X315.082Y219.971
X315.082Y223.146
X315.082Y226.321
X315.082Y229.496
X315.082Y232.671
X315.082Y235.846
X315.082Y239.021
X315.082Y242.196
X315.082Y245.371
X315.082Y248.546
X315.082Y251.721
X315.082Y254.896
X315.082Y258.071
X315.082Y261.246
X315.082Y264.421
X315.082Y267.596
X315.082Y270.771
X327.782Y115.196
X327.782Y118.371
X327.782Y121.546
X327.782Y124.721
X327.782Y127.896
X327.782Y131.071
X327.782Y134.246
X327.782Y137.421
X327.782Y140.596
X327.782Y143.771
X327.782Y146.946
X327.782Y150.121
X327.782Y153.296
X327.782Y156.471
X327.782Y159.646
X327.782Y162.821
X327.782Y165.996
X327.782Y169.171
X327.782Y172.346
X327.782Y175.521
X327.782Y178.696
X327.782Y181.871
X327.782Y185.046
X327.782Y188.221
X327.782Y191.396
X327.782Y194.571
X327.782Y197.746
X327.782Y200.921
X327.782Y204.096
X327.782Y207.271
X327.782Y210.446
X327.782Y213.621
X327.782Y216.796
X327.782Y219.971
X327.782Y223.146
X327.782Y226.321
X327.782Y229.496
X327.782Y232.671
X327.782Y235.846
X327.782Y239.021
X327.782Y242.196
X327.782Y245.371
X327.782Y248.546
X327.782Y251.721
X327.782Y254.896
X327.782Y258.071
X327.782Y261.246
X327.782Y264.421
X327.782Y267.596
X327.782Y270.771
X334.132Y115.196
X334.132Y118.371
X334.132Y121.546
X334.132Y124.721
X334.132Y127.896
X334.132Y131.071
X334.132Y134.246
X334.132Y137.421
X334.132Y140.596
X334.132Y143.771
X334.132Y146.946
X334.132Y150.121
X334.132Y153.296
X334.132Y156.471
X334.132Y159.646
X334.132Y162.821
X334.132Y165.996
X334.132Y169.171
X334.132Y172.346
X334.132Y175.521
X334.132Y178.696
X334.132Y181.871
X334.132Y185.046
X334.132Y188.221
X334.132Y191.396
X334.132Y194.571
X334.132Y197.746
X334.132Y200.921
X334.132Y204.096
X334.132Y207.271
X334.132Y210.446
X334.132Y213.621
X334.132Y216.796
X334.132Y219.971
X334.132Y223.146
X334.132Y226.321
X334.132Y229.496
X334.132Y232.671
X334.132Y235.846
X334.132Y239.021
X334.132Y242.196
X334.132Y245.371
X334.132Y248.546
X334.132Y251.721
X334.132Y254.896
X334.132Y258.071
X334.132Y261.246
X334.132Y264.421
X334.132Y267.596
X334.132Y270.771
X346.832Y115.196
X346.832Y118.371
X346.832Y121.546
X346.832Y124.721
X346.832Y127.896
X346.832Y131.071
X346.832Y134.246
X346.832Y137.421
X346.832Y140.596
X346.832Y143.771
X346.832Y146.946
X346.832Y150.121
X346.832Y153.296
X346.832Y156.471
X346.832Y159.646
X346.832Y162.821
X346.832Y165.996
X346.832Y169.171
X346.832Y172.346
X346.832Y175.521
X346.832Y178.696
X346.832Y181.871
X346.832Y185.046
X346.832Y188.221
X346.832Y191.396
X346.832Y194.571
X346.832Y197.746
X346.832Y200.921
X346.832Y204.096
X346.832Y207.271
X346.832Y210.446
X346.832Y213.621
X346.832Y216.796
X346.832Y219.971
X346.832Y223.146
X346.832Y226.321
X346.832Y229.496
X346.832Y232.671
X346.832Y235.846
X346.832Y239.021
X346.832Y242.196
X346.832Y245.371
X346.832Y248.546
X346.832Y251.721
X346.832Y254.896
X346.832Y258.071
X346.832Y261.246
X346.832Y264.421
X346.832Y267.596
X346.832Y270.771
X353.182Y115.196
X353.182Y118.371
X353.182Y121.546
X353.182Y124.721
X353.182Y127.896
X353.182Y131.071
X353.182Y134.246
X353.182Y137.421
X353.182Y140.596
X353.182Y143.771
X353.182Y146.946
X353.182Y150.121
X353.182Y153.296
X353.182Y156.471
X353.182Y159.646
X353.182Y162.821
X353.182Y165.996
X353.182Y169.171
X353.182Y172.346
X353.182Y175.521
X353.182Y178.696
X353.182Y181.871
X353.182Y185.046
X353.182Y188.221
X353.182Y191.396
X353.182Y194.571
X353.182Y197.746
X353.182Y200.921
X353.182Y204.096
X353.182Y207.271
X353.182Y210.446
X353.182Y213.621
X353.182Y216.796
X353.182Y219.971
X353.182Y223.146
X353.182Y226.321
X353.182Y229.496
X353.182Y232.671
X353.182Y235.846
X353.182Y239.021
X353.182Y242.196
X353.182Y245.371
X353.182Y248.546
X353.182Y251.721
X353.182Y254.896
X353.182Y258.071
X353.182Y261.246
X353.182Y264.421
X353.182Y267.596
X353.182Y270.771
X365.882Y115.196
X365.882Y118.371
X365.882Y121.546
X365.882Y124.721
X365.882Y127.896
X365.882Y131.071
X365.882Y134.246
X365.882Y137.421
X365.882Y140.596
X365.882Y143.771
X365.882Y146.946
X365.882Y150.121
X365.882Y153.296
X365.882Y156.471
X365.882Y159.646
X365.882Y162.821
X365.882Y165.996
X365.882Y169.171
X365.882Y172.346
X365.882Y175.521
X365.882Y178.696
X365.882Y181.871
X365.882Y185.046
X365.882Y188.221
X365.882Y191.396
X365.882Y194.571
X365.882Y197.746
X365.882Y200.921
X365.882Y204.096
X365.882Y207.271
X365.882Y210.446
X365.882Y213.621
X365.882Y216.796
X365.882Y219.971
X365.882Y223.146
X365.882Y226.321
X365.882Y229.496
X365.882Y232.671
X365.882Y235.846
X365.882Y239.021
X365.882Y242.196
X365.882Y245.371
X365.882Y248.546
X365.882Y251.721
X365.882Y254.896
X365.882Y258.071
X365.882Y261.246
X365.882Y264.421
X365.882Y267.596
X365.882Y270.771
X372.232Y115.196
X372.232Y118.371
X372.232Y121.546
X372.232Y124.721
X372.232Y127.896
X372.232Y131.071
X372.232Y134.246
X372.232Y137.421
X372.232Y140.596
X372.232Y143.771
X372.232Y146.946
X372.232Y150.121
X372.232Y153.296
X372.232Y156.471
X372.232Y159.646
X372.232Y162.821
X372.232Y165.996
X372.232Y169.171
X372.232Y172.346
X372.232Y175.521
X372.232Y178.696
X372.232Y181.871
X372.232Y185.046
X372.232Y188.221
X372.232Y191.396
X372.232Y194.571
X372.232Y197.746
X372.232Y200.921
X372.232Y204.096
X372.232Y207.271
X372.232Y210.446
X372.232Y213.621
X372.232Y216.796
X372.232Y219.971
X372.232Y223.146
X372.232Y226.321
X372.232Y229.496
X372.232Y232.671
X372.232Y235.846
X372.232Y239.021
X372.232Y242.196
X372.232Y245.371
X372.232Y248.546
X372.232Y251.721
X372.232Y254.896
X372.232Y258.071
X372.232Y261.246
X372.232Y264.421
X372.232Y267.596
X372.232Y270.771
X384.932Y115.196
X384.932Y118.371
X384.932Y121.546
X384.932Y124.721
X384.932Y127.896
X384.932Y131.071
X384.932Y134.246
X384.932Y137.421
X384.932Y140.596
X384.932Y143.771
X384.932Y146.946
X384.932Y150.121
X384.932Y153.296
X384.932Y156.471
X384.932Y159.646
X384.932Y162.821
X384.932Y165.996
X384.932Y169.171
X384.932Y172.346
X384.932Y175.521
X384.932Y178.696
X384.932Y181.871
X384.932Y185.046
X384.932Y188.221
X384.932Y191.396
X384.932Y194.571
X384.932Y197.746
X384.932Y200.921
X384.932Y204.096
X384.932Y207.271
X384.932Y210.446
X384.932Y213.621
X384.932Y216.796
X384.932Y219.971
X384.932Y223.146
X384.932Y226.321
X384.932Y229.496
X384.932Y232.671
X384.932Y235.846
X384.932Y239.021
X384.932Y242.196
X384.932Y245.371
X384.932Y248.546
X384.932Y251.721
X384.932Y254.896
X384.932Y258.071
X384.932Y261.246
X384.932Y264.421
X384.932Y267.596
X384.932Y270.771
X391.282Y115.196
X391.282Y118.371
X391.282Y121.546
X391.282Y124.721
X391.282Y127.896
X391.282Y131.071
X391.282Y134.246
X391.282Y137.421
X391.282Y140.596
X391.282Y143.771
X391.282Y146.946
X391.282Y150.121
X391.282Y153.296
X391.282Y156.471
X391.282Y159.646
X391.282Y162.821
X391.282Y165.996
X391.282Y169.171
X391.282Y172.346
X391.282Y175.521
X391.282Y178.696
X391.282Y181.871
X391.282Y185.046
X391.282Y188.221
X391.282Y191.396
X391.282Y194.571
X391.282Y197.746
X391.282Y200.921
X391.282Y204.096
X391.282Y207.271
X391.282Y210.446
X391.282Y213.621
X391.282Y216.796
X391.282Y219.971
X391.282Y223.146
X391.282Y226.321
X391.282Y229.496
X391.282Y232.671
X391.282Y235.846
X391.282Y239.021
X391.282Y242.196
X391.282Y245.371
X391.282Y248.546
X391.282Y251.721
X391.282Y254.896
X391.282Y258.071
X391.282Y261.246
X391.282Y264.421
X391.282Y267.596
X391.282Y270.771
X403.982Y115.196
X403.982Y118.371
X403.982Y121.546
X403.982Y124.721
X403.982Y127.896
X403.982Y131.071
X403.982Y134.246
X403.982Y137.421
X403.982Y140.596
X403.982Y143.771
X403.982Y146.946
X403.982Y150.121
X403.982Y153.296
X403.982Y156.471
X403.982Y159.646
X403.982Y162.821
X403.982Y165.996
X403.982Y169.171
X403.982Y172.346
X403.982Y175.521
X403.982Y178.696
X403.982Y181.871
X403.982Y185.046
X403.982Y188.221
X403.982Y191.396
X403.982Y194.571
X403.982Y197.746
X403.982Y200.921
X403.982Y204.096
X403.982Y207.271
X403.982Y210.446
X403.982Y213.621
X403.982Y216.796
X403.982Y219.971
X403.982Y223.146
X403.982Y226.321
X403.982Y229.496
X403.982Y232.671
X403.982Y235.846
X403.982Y239.021
X403.982Y242.196
X403.982Y245.371
X403.982Y248.546
X403.982Y251.721
X403.982Y254.896
X403.982Y258.071
X403.982Y261.246
X403.982Y264.421
X403.982Y267.596
X403.982Y270.771
X410.332Y115.196
X410.332Y118.371
X410.332Y121.546
X410.332Y124.721
X410.332Y127.896
X410.332Y131.071
X410.332Y134.246
X410.332Y137.421
X410.332Y140.596
X410.332Y143.771
X410.332Y146.946
X410.332Y150.121
X410.332Y153.296
X410.332Y156.471
X410.332Y159.646
X410.332Y162.821
X410.332Y165.996
X410.332Y169.171
X410.332Y172.346
X410.332Y175.521
X410.332Y178.696
X410.332Y181.871
X410.332Y185.046
X410.332Y188.221
X410.332Y191.396
X410.332Y194.571
X410.332Y197.746
X410.332Y200.921
X410.332Y204.096
X410.332Y207.271
X410.332Y210.446
X410.332Y213.621
X410.332Y216.796
X410.332Y219.971
X410.332Y223.146
X410.332Y226.321
X410.332Y229.496
X410.332Y232.671
X410.332Y235.846
X410.332Y239.021
X410.332Y242.196
X410.332Y245.371
X410.332Y248.546
X410.332Y251.721
X410.332Y254.896
X410.332Y258.071
X410.332Y261.246
X410.332Y264.421
X410.332Y267.596
X410.332Y270.771
X423.032Y115.196
X423.032Y118.371
X423.032Y121.546
X423.032Y124.721
X423.032Y127.896
X423.032Y131.071
X423.032Y134.246
X423.032Y137.421
X423.032Y140.596
X423.032Y143.771
X423.032Y146.946
X423.032Y150.121
X423.032Y153.296
X423.032Y156.471
X423.032Y159.646
X423.032Y162.821
X423.032Y165.996
X423.032Y169.171
X423.032Y172.346
X423.032Y175.521
X423.032Y178.696
X423.032Y181.871
X423.032Y185.046
X423.032Y188.221
X423.032Y191.396
X423.032Y194.571
X423.032Y197.746
X423.032Y200.921
X423.032Y204.096
X423.032Y207.271
X423.032Y210.446
X423.032Y213.621
X423.032Y216.796
X423.032Y219.971
X423.032Y223.146
X423.032Y226.321
X423.032Y229.496
X423.032Y232.671
X423.032Y235.846
X423.032Y239.021
X423.032Y242.196
X423.032Y245.371
X423.032Y248.546
X423.032Y251.721
X423.032Y254.896
X423.032Y258.071
X423.032Y261.246
X423.032Y264.421
X423.032Y267.596
X423.032Y270.771
X429.382Y115.196
X429.382Y118.371
X429.382Y121.546
X429.382Y124.721
X429.382Y127.896
X429.382Y131.071
X429.382Y134.246
X429.382Y137.421
X429.382Y140.596
X429.382Y143.771
X429.382Y146.946
X429.382Y150.121
X429.382Y153.296
X429.382Y156.471
X429.382Y159.646
X429.382Y162.821
X429.382Y165.996
X429.382Y169.171
X429.382Y172.346
X429.382Y175.521
X429.382Y178.696
X429.382Y181.871
X429.382Y185.046
X429.382Y188.221
X429.382Y191.396
X429.382Y194.571
X429.382Y197.746
X429.382Y200.921
X429.382Y204.096
X429.382Y207.271
X429.382Y210.446
X429.382Y213.621
X429.382Y216.796
X429.382Y219.971
X429.382Y223.146
X429.382Y226.321
X429.382Y229.496
X429.382Y232.671
X429.382Y235.846
X429.382Y239.021
X429.382Y242.196
X429.382Y245.371
X429.382Y248.546
X429.382Y251.721
X429.382Y254.896
X429.382Y258.071
X429.382Y261.246
X429.382Y264.421
X429.382Y267.596
X429.382Y270.771
X442.082Y115.196
X442.082Y118.371
X442.082Y121.546
X442.082Y124.721
X442.082Y127.896
X442.082Y131.071
X442.082Y134.246
X442.082Y137.421
X442.082Y140.596
X442.082Y143.771
X442.082Y146.946
X442.082Y150.121
X442.082Y153.296
X442.082Y156.471
X442.082Y159.646
X442.082Y162.821
X442.082Y165.996
X442.082Y169.171
X442.082Y172.346
X442.082Y175.521
X442.082Y178.696
X442.082Y181.871
X442.082Y185.046
X442.082Y188.221
X442.082Y191.396
X442.082Y194.571
X442.082Y197.746
X442.082Y200.921
X442.082Y204.096
X442.082Y207.271
X442.082Y210.446
X442.082Y213.621
X442.082Y216.796
X442.082Y219.971
X442.082Y223.146
X442.082Y226.321
X442.082Y229.496
X442.082Y232.671
X442.082Y235.846
X442.082Y239.021
X442.082Y242.196
X442.082Y245.371
X442.082Y248.546
X442.082Y251.721
X442.082Y254.896
X442.082Y258.071
X442.082Y261.246
X442.082Y264.421
X442.082Y267.596
X442.082Y270.771
X448.432Y115.196
X448.432Y118.371
X448.432Y121.546
X448.432Y124.721
X448.432Y127.896
X448.432Y131.071
X448.432Y134.246
X448.432Y137.421
X448.432Y140.596
X448.432Y143.771
X448.432Y146.946
X448.432Y150.121
X448.432Y153.296
X448.432Y156.471
X448.432Y159.646
X448.432Y162.821
X448.432Y165.996
X448.432Y169.171
X448.432Y172.346
X448.432Y175.521
X448.432Y178.696
X448.432Y181.871
X448.432Y185.046
X448.432Y188.221
X448.432Y191.396
X448.432Y194.571
X448.432Y197.746
X448.432Y200.921
X448.432Y204.096
X448.432Y207.271
X448.432Y210.446
X448.432Y213.621
X448.432Y216.796
X448.432Y219.971
X448.432Y223.146
X448.432Y226.321
X448.432Y229.496
X448.432Y232.671
X448.432Y235.846
X448.432Y239.021
X448.432Y242.196
X448.432Y245.371
X448.432Y248.546
X448.432Y251.721
X448.432Y254.896
X448.432Y258.071
X448.432Y261.246
X448.432Y264.421
X448.432Y267.596
X448.432Y270.771
X461.132Y115.196
X461.132Y118.371
X461.132Y121.546
X461.132Y124.721
X461.132Y127.896
X461.132Y131.071
X461.132Y134.246
X461.132Y137.421
X461.132Y140.596
X461.132Y143.771
X461.132Y146.946
X461.132Y150.121
X461.132Y153.296
X461.132Y156.471
X461.132Y159.646
X461.132Y162.821
X461.132Y165.996
X461.132Y169.171
X461.132Y172.346
X461.132Y175.521
X461.132Y178.696
X461.132Y181.871
X461.132Y185.046
X461.132Y188.221
X461.132Y191.396
X461.132Y194.571
X461.132Y197.746
X461.132Y200.921
X461.132Y204.096
X461.132Y207.271
X461.132Y210.446
X461.132Y213.621
X461.132Y216.796
X461.132Y219.971
X461.132Y223.146
X461.132Y226.321
X461.132Y229.496
X461.132Y232.671
X461.132Y235.846
X461.132Y239.021
X461.132Y242.196
X461.132Y245.371
X461.132Y248.546
X461.132Y251.721
X461.132Y254.896
X461.132Y258.071
X461.132Y261.246
X461.132Y264.421
X461.132Y267.596
X461.132Y270.771
X467.482Y115.196
X467.482Y118.371
X467.482Y121.546
X467.482Y124.721
X467.482Y127.896
X467.482Y131.071
X467.482Y134.246
X467.482Y137.421
X467.482Y140.596
X467.482Y143.771
X467.482Y146.946
X467.482Y150.121
X467.482Y153.296
X467.482Y156.471
X467.482Y159.646
X467.482Y162.821
X467.482Y165.996
X467.482Y169.171
X467.482Y172.346
X467.482Y175.521
X467.482Y178.696
X467.482Y181.871
X467.482Y185.046
X467.482Y188.221
X467.482Y191.396
X467.482Y194.571
X467.482Y197.746
X467.482Y200.921
X467.482Y204.096
X467.482Y207.271
X467.482Y210.446
X467.482Y213.621
X467.482Y216.796
X467.482Y219.971
X467.482Y223.146
X467.482Y226.321
X467.482Y229.496
X467.482Y232.671
X467.482Y235.846
X467.482Y239.021
X467.482Y242.196
X467.482Y245.371
X467.482Y248.546
X467.482Y251.721
X467.482Y254.896
X467.482Y258.071
X467.482Y261.246
X467.482Y264.421
X467.482Y267.596
X467.482Y270.771
X482.13Y238.633
X482.13Y241.173
X482.13Y243.713
T3
X499.364Y237.109
X499.364Y239.649
X499.364Y242.189
X499.389Y156.185
X499.389Y158.725
X499.389Y161.265
X499.491Y190.373
X499.491Y192.913
X499.491Y195.453
T4
X509.016Y112.903
X509.016Y121.158
X509.016Y129.413
X509.016Y137.668
T5
X130.937Y106.68
X130.937Y279.222
X169.037Y106.68
X169.037Y279.222
X207.137Y106.68
X207.137Y279.222
X245.237Y106.68
X245.237Y279.222
X283.337Y106.68
X283.337Y279.222
X321.437Y106.68
X321.437Y279.222
X359.512Y279.197
X359.537Y106.68
X397.637Y106.68
X397.637Y279.222
X435.737Y106.68
X435.737Y279.273
X473.837Y106.68
X474.624Y279.222
X499.237Y106.68
X499.237Y279.222
X515.874Y239.649
X515.899Y158.725
X516.001Y192.913
T6
X140.457Y106.687
X140.457Y279.28
X159.507Y106.687
X159.507Y279.28
X178.557Y106.687
X178.557Y279.28
X197.607Y106.687
X197.607Y279.28
X216.657Y106.687
X216.657Y279.28
X235.707Y106.687
X235.707Y279.28
X254.757Y106.687
X254.757Y279.28
X273.807Y106.687
X273.807Y279.28
X292.857Y106.687
X292.857Y279.28
X311.907Y106.687
X311.907Y279.28
X330.957Y106.687
X330.957Y279.28
X350.007Y106.687
X350.007Y279.28
X369.057Y106.687
X369.057Y279.28
X388.107Y106.687
X388.107Y279.28
X407.157Y106.687
X407.157Y279.28
X426.207Y106.687
X426.207Y279.28
X445.257Y106.687
X445.257Y279.28
X464.307Y106.687
X464.307Y279.28
T0
M30
