G04 (created by PCBNEW (2013-07-07 BZR 4022)-stable) date 03-08-14 1:25 PM*
%MOIN*%
G04 Gerber Fmt 3.4, Leading zero omitted, Abs format*
%FSLAX34Y34*%
G01*
G70*
G90*
G04 APERTURE LIST*
%ADD10C,0.00590551*%
%ADD11C,0.00787402*%
%ADD12C,0.015*%
%ADD13C,0.012*%
%ADD14C,0.008*%
%ADD15C,0.005*%
%ADD16C,0.006*%
%ADD17C,0.01*%
%ADD18C,0.0107*%
%ADD19C,0.01125*%
%ADD20C,0.0035*%
G04 APERTURE END LIST*
G54D10*
G54D11*
X98705Y-49425D02*
X98705Y-48992D01*
X98840Y-48992D01*
X98874Y-49012D01*
X98891Y-49033D01*
X98908Y-49074D01*
X98908Y-49136D01*
X98891Y-49177D01*
X98874Y-49198D01*
X98840Y-49219D01*
X98705Y-49219D01*
X99262Y-49425D02*
X99144Y-49219D01*
X99060Y-49425D02*
X99060Y-48992D01*
X99195Y-48992D01*
X99228Y-49012D01*
X99245Y-49033D01*
X99262Y-49074D01*
X99262Y-49136D01*
X99245Y-49177D01*
X99228Y-49198D01*
X99195Y-49219D01*
X99060Y-49219D01*
X99414Y-49198D02*
X99532Y-49198D01*
X99583Y-49425D02*
X99414Y-49425D01*
X99414Y-48992D01*
X99583Y-48992D01*
X99718Y-49404D02*
X99768Y-49425D01*
X99853Y-49425D01*
X99886Y-49404D01*
X99903Y-49384D01*
X99920Y-49342D01*
X99920Y-49301D01*
X99903Y-49260D01*
X99886Y-49239D01*
X99853Y-49219D01*
X99785Y-49198D01*
X99751Y-49177D01*
X99734Y-49157D01*
X99718Y-49115D01*
X99718Y-49074D01*
X99734Y-49033D01*
X99751Y-49012D01*
X99785Y-48992D01*
X99869Y-48992D01*
X99920Y-49012D01*
X100072Y-49198D02*
X100190Y-49198D01*
X100241Y-49425D02*
X100072Y-49425D01*
X100072Y-48992D01*
X100241Y-48992D01*
X100342Y-48992D02*
X100544Y-48992D01*
X100443Y-49425D02*
X100443Y-48992D01*
X98772Y-45698D02*
X98890Y-45698D01*
X98941Y-45925D02*
X98772Y-45925D01*
X98772Y-45492D01*
X98941Y-45492D01*
X99059Y-45492D02*
X99295Y-45925D01*
X99295Y-45492D02*
X99059Y-45925D01*
X99380Y-45492D02*
X99582Y-45492D01*
X99481Y-45925D02*
X99481Y-45492D01*
X99903Y-45884D02*
X99886Y-45904D01*
X99835Y-45925D01*
X99801Y-45925D01*
X99751Y-45904D01*
X99717Y-45863D01*
X99700Y-45822D01*
X99683Y-45739D01*
X99683Y-45677D01*
X99700Y-45595D01*
X99717Y-45554D01*
X99751Y-45512D01*
X99801Y-45492D01*
X99835Y-45492D01*
X99886Y-45512D01*
X99903Y-45533D01*
X100223Y-45925D02*
X100054Y-45925D01*
X100054Y-45492D01*
X100544Y-45925D02*
X100426Y-45719D01*
X100341Y-45925D02*
X100341Y-45492D01*
X100476Y-45492D01*
X100510Y-45512D01*
X100527Y-45533D01*
X100544Y-45574D01*
X100544Y-45636D01*
X100527Y-45677D01*
X100510Y-45698D01*
X100476Y-45719D01*
X100341Y-45719D01*
X23610Y-43605D02*
X23610Y-43335D01*
X23775Y-43470D02*
X23445Y-43470D01*
X23342Y-42998D02*
X23342Y-43166D01*
X23548Y-43183D01*
X23527Y-43166D01*
X23507Y-43133D01*
X23507Y-43048D01*
X23527Y-43015D01*
X23548Y-42998D01*
X23589Y-42981D01*
X23692Y-42981D01*
X23734Y-42998D01*
X23754Y-43015D01*
X23775Y-43048D01*
X23775Y-43133D01*
X23754Y-43166D01*
X23734Y-43183D01*
X23342Y-42880D02*
X23775Y-42761D01*
X23342Y-42643D01*
X25417Y-43419D02*
X25397Y-43453D01*
X25397Y-43504D01*
X25417Y-43554D01*
X25459Y-43588D01*
X25500Y-43605D01*
X25582Y-43622D01*
X25644Y-43622D01*
X25727Y-43605D01*
X25768Y-43588D01*
X25809Y-43554D01*
X25830Y-43504D01*
X25830Y-43470D01*
X25809Y-43419D01*
X25789Y-43403D01*
X25644Y-43403D01*
X25644Y-43470D01*
X25830Y-43251D02*
X25397Y-43251D01*
X25830Y-43048D01*
X25397Y-43048D01*
X25830Y-42880D02*
X25397Y-42880D01*
X25397Y-42795D01*
X25417Y-42745D01*
X25459Y-42711D01*
X25500Y-42694D01*
X25582Y-42677D01*
X25644Y-42677D01*
X25727Y-42694D01*
X25768Y-42711D01*
X25809Y-42745D01*
X25830Y-42795D01*
X25830Y-42880D01*
X27473Y-43419D02*
X27452Y-43453D01*
X27452Y-43504D01*
X27473Y-43554D01*
X27514Y-43588D01*
X27555Y-43605D01*
X27638Y-43622D01*
X27699Y-43622D01*
X27782Y-43605D01*
X27823Y-43588D01*
X27864Y-43554D01*
X27885Y-43504D01*
X27885Y-43470D01*
X27864Y-43419D01*
X27844Y-43403D01*
X27699Y-43403D01*
X27699Y-43470D01*
X27885Y-43251D02*
X27452Y-43251D01*
X27885Y-43048D01*
X27452Y-43048D01*
X27885Y-42880D02*
X27452Y-42880D01*
X27452Y-42795D01*
X27473Y-42745D01*
X27514Y-42711D01*
X27555Y-42694D01*
X27638Y-42677D01*
X27699Y-42677D01*
X27782Y-42694D01*
X27823Y-42711D01*
X27864Y-42745D01*
X27885Y-42795D01*
X27885Y-42880D01*
X29940Y-43428D02*
X29507Y-43428D01*
X29940Y-43225D01*
X29507Y-43225D01*
X29899Y-42854D02*
X29920Y-42871D01*
X29940Y-42922D01*
X29940Y-42955D01*
X29920Y-43006D01*
X29878Y-43040D01*
X29837Y-43057D01*
X29755Y-43074D01*
X29693Y-43074D01*
X29610Y-43057D01*
X29569Y-43040D01*
X29528Y-43006D01*
X29507Y-42955D01*
X29507Y-42922D01*
X29528Y-42871D01*
X29548Y-42854D01*
X14010Y-43605D02*
X14010Y-43335D01*
X14175Y-43470D02*
X13845Y-43470D01*
X13742Y-42998D02*
X13742Y-43166D01*
X13948Y-43183D01*
X13927Y-43166D01*
X13907Y-43133D01*
X13907Y-43048D01*
X13927Y-43015D01*
X13948Y-42998D01*
X13989Y-42981D01*
X14092Y-42981D01*
X14134Y-42998D01*
X14154Y-43015D01*
X14175Y-43048D01*
X14175Y-43133D01*
X14154Y-43166D01*
X14134Y-43183D01*
X13742Y-42880D02*
X14175Y-42761D01*
X13742Y-42643D01*
X15817Y-43419D02*
X15797Y-43453D01*
X15797Y-43504D01*
X15817Y-43554D01*
X15859Y-43588D01*
X15900Y-43605D01*
X15982Y-43622D01*
X16044Y-43622D01*
X16127Y-43605D01*
X16168Y-43588D01*
X16209Y-43554D01*
X16230Y-43504D01*
X16230Y-43470D01*
X16209Y-43419D01*
X16189Y-43403D01*
X16044Y-43403D01*
X16044Y-43470D01*
X16230Y-43251D02*
X15797Y-43251D01*
X16230Y-43048D01*
X15797Y-43048D01*
X16230Y-42880D02*
X15797Y-42880D01*
X15797Y-42795D01*
X15817Y-42745D01*
X15859Y-42711D01*
X15900Y-42694D01*
X15982Y-42677D01*
X16044Y-42677D01*
X16127Y-42694D01*
X16168Y-42711D01*
X16209Y-42745D01*
X16230Y-42795D01*
X16230Y-42880D01*
X17873Y-43419D02*
X17852Y-43453D01*
X17852Y-43504D01*
X17873Y-43554D01*
X17914Y-43588D01*
X17955Y-43605D01*
X18038Y-43622D01*
X18099Y-43622D01*
X18182Y-43605D01*
X18223Y-43588D01*
X18264Y-43554D01*
X18285Y-43504D01*
X18285Y-43470D01*
X18264Y-43419D01*
X18244Y-43403D01*
X18099Y-43403D01*
X18099Y-43470D01*
X18285Y-43251D02*
X17852Y-43251D01*
X18285Y-43048D01*
X17852Y-43048D01*
X18285Y-42880D02*
X17852Y-42880D01*
X17852Y-42795D01*
X17873Y-42745D01*
X17914Y-42711D01*
X17955Y-42694D01*
X18038Y-42677D01*
X18099Y-42677D01*
X18182Y-42694D01*
X18223Y-42711D01*
X18264Y-42745D01*
X18285Y-42795D01*
X18285Y-42880D01*
X20340Y-43428D02*
X19907Y-43428D01*
X20340Y-43225D01*
X19907Y-43225D01*
X20299Y-42854D02*
X20320Y-42871D01*
X20340Y-42922D01*
X20340Y-42955D01*
X20320Y-43006D01*
X20278Y-43040D01*
X20237Y-43057D01*
X20155Y-43074D01*
X20093Y-43074D01*
X20010Y-43057D01*
X19969Y-43040D01*
X19928Y-43006D01*
X19907Y-42955D01*
X19907Y-42922D01*
X19928Y-42871D01*
X19948Y-42854D01*
X95135Y-41275D02*
X95017Y-41069D01*
X94932Y-41275D02*
X94932Y-40842D01*
X95067Y-40842D01*
X95101Y-40862D01*
X95118Y-40883D01*
X95135Y-40924D01*
X95135Y-40986D01*
X95118Y-41027D01*
X95101Y-41048D01*
X95067Y-41069D01*
X94932Y-41069D01*
X95287Y-41048D02*
X95405Y-41048D01*
X95455Y-41275D02*
X95287Y-41275D01*
X95287Y-40842D01*
X95455Y-40842D01*
X95590Y-41254D02*
X95641Y-41275D01*
X95725Y-41275D01*
X95759Y-41254D01*
X95776Y-41234D01*
X95793Y-41192D01*
X95793Y-41151D01*
X95776Y-41110D01*
X95759Y-41089D01*
X95725Y-41069D01*
X95658Y-41048D01*
X95624Y-41027D01*
X95607Y-41007D01*
X95590Y-40965D01*
X95590Y-40924D01*
X95607Y-40883D01*
X95624Y-40862D01*
X95658Y-40842D01*
X95742Y-40842D01*
X95793Y-40862D01*
X95945Y-41048D02*
X96063Y-41048D01*
X96114Y-41275D02*
X95945Y-41275D01*
X95945Y-40842D01*
X96114Y-40842D01*
X96215Y-40842D02*
X96417Y-40842D01*
X96316Y-41275D02*
X96316Y-40842D01*
X84231Y-41675D02*
X84231Y-41242D01*
X84366Y-41242D01*
X84400Y-41262D01*
X84417Y-41283D01*
X84434Y-41324D01*
X84434Y-41386D01*
X84417Y-41427D01*
X84400Y-41448D01*
X84366Y-41469D01*
X84231Y-41469D01*
X84653Y-41242D02*
X84720Y-41242D01*
X84754Y-41262D01*
X84788Y-41304D01*
X84805Y-41386D01*
X84805Y-41530D01*
X84788Y-41613D01*
X84754Y-41654D01*
X84720Y-41675D01*
X84653Y-41675D01*
X84619Y-41654D01*
X84585Y-41613D01*
X84569Y-41530D01*
X84569Y-41386D01*
X84585Y-41304D01*
X84619Y-41262D01*
X84653Y-41242D01*
X84923Y-41242D02*
X85007Y-41675D01*
X85075Y-41365D01*
X85142Y-41675D01*
X85227Y-41242D01*
X85362Y-41448D02*
X85480Y-41448D01*
X85530Y-41675D02*
X85362Y-41675D01*
X85362Y-41242D01*
X85530Y-41242D01*
X85885Y-41675D02*
X85767Y-41469D01*
X85682Y-41675D02*
X85682Y-41242D01*
X85817Y-41242D01*
X85851Y-41262D01*
X85868Y-41283D01*
X85885Y-41324D01*
X85885Y-41386D01*
X85868Y-41427D01*
X85851Y-41448D01*
X85817Y-41469D01*
X85682Y-41469D01*
G54D12*
X100200Y-46750D02*
X100200Y-46700D01*
X99100Y-46750D02*
X100200Y-46750D01*
X99100Y-48150D02*
X100200Y-48150D01*
G54D11*
X102519Y-46975D02*
X102519Y-46542D01*
X102654Y-46542D01*
X102688Y-46562D01*
X102705Y-46583D01*
X102722Y-46624D01*
X102722Y-46686D01*
X102705Y-46727D01*
X102688Y-46748D01*
X102654Y-46769D01*
X102519Y-46769D01*
X103042Y-46542D02*
X102874Y-46542D01*
X102857Y-46748D01*
X102874Y-46727D01*
X102907Y-46707D01*
X102992Y-46707D01*
X103025Y-46727D01*
X103042Y-46748D01*
X103059Y-46789D01*
X103059Y-46892D01*
X103042Y-46934D01*
X103025Y-46954D01*
X102992Y-46975D01*
X102907Y-46975D01*
X102874Y-46954D01*
X102857Y-46934D01*
X103363Y-46686D02*
X103363Y-46975D01*
X103279Y-46521D02*
X103194Y-46830D01*
X103414Y-46830D01*
X102519Y-48425D02*
X102519Y-47992D01*
X102654Y-47992D01*
X102688Y-48012D01*
X102705Y-48033D01*
X102722Y-48074D01*
X102722Y-48136D01*
X102705Y-48177D01*
X102688Y-48198D01*
X102654Y-48219D01*
X102519Y-48219D01*
X102840Y-47992D02*
X103076Y-47992D01*
X102924Y-48425D01*
X103380Y-47992D02*
X103211Y-47992D01*
X103194Y-48198D01*
X103211Y-48177D01*
X103245Y-48157D01*
X103329Y-48157D01*
X103363Y-48177D01*
X103380Y-48198D01*
X103397Y-48239D01*
X103397Y-48342D01*
X103380Y-48384D01*
X103363Y-48404D01*
X103329Y-48425D01*
X103245Y-48425D01*
X103211Y-48404D01*
X103194Y-48384D01*
G54D13*
X37900Y-50450D02*
X37900Y-48450D01*
X38900Y-50450D02*
X38900Y-48450D01*
X39900Y-50450D02*
X39900Y-48450D01*
X40900Y-48450D02*
X40900Y-42450D01*
X40900Y-42450D02*
X36900Y-42450D01*
X36900Y-42450D02*
X36900Y-48450D01*
X36900Y-48450D02*
X40900Y-48450D01*
X40400Y-45450D02*
X36900Y-45450D01*
X40400Y-45450D02*
X40900Y-45450D01*
G54D12*
X8400Y-41500D02*
G75*
G03X8400Y-41500I-900J0D01*
G74*
G01*
X103400Y-41500D02*
G75*
G03X103400Y-41500I-900J0D01*
G74*
G01*
X83750Y-58250D02*
X83750Y-62000D01*
X83750Y-62000D02*
X20000Y-62000D01*
X20000Y-62000D02*
X20000Y-58250D01*
X20000Y-58250D02*
X83750Y-58250D01*
G54D13*
X65450Y-50450D02*
X65450Y-48450D01*
X66450Y-50450D02*
X66450Y-48450D01*
X67450Y-50450D02*
X67450Y-48450D01*
X68450Y-48450D02*
X68450Y-42450D01*
X68450Y-42450D02*
X64450Y-42450D01*
X64450Y-42450D02*
X64450Y-48450D01*
X64450Y-48450D02*
X68450Y-48450D01*
X67950Y-45450D02*
X64450Y-45450D01*
X67950Y-45450D02*
X68450Y-45450D01*
X75900Y-50450D02*
X75900Y-48450D01*
X76900Y-50450D02*
X76900Y-48450D01*
X77900Y-50450D02*
X77900Y-48450D01*
X78900Y-48450D02*
X78900Y-42450D01*
X78900Y-42450D02*
X74900Y-42450D01*
X74900Y-42450D02*
X74900Y-48450D01*
X74900Y-48450D02*
X78900Y-48450D01*
X78400Y-45450D02*
X74900Y-45450D01*
X78400Y-45450D02*
X78900Y-45450D01*
X43000Y-58000D02*
X43000Y-57000D01*
X43000Y-57000D02*
X45000Y-57000D01*
X45000Y-57000D02*
X45000Y-58000D01*
X45000Y-58000D02*
X43000Y-58000D01*
X22000Y-58000D02*
X22000Y-57000D01*
X22000Y-57000D02*
X24000Y-57000D01*
X24000Y-57000D02*
X24000Y-58000D01*
X24000Y-58000D02*
X22000Y-58000D01*
X47000Y-57000D02*
X47000Y-58000D01*
X47000Y-58000D02*
X45000Y-58000D01*
X45000Y-58000D02*
X45000Y-57000D01*
X45000Y-57000D02*
X47000Y-57000D01*
X59500Y-54500D02*
X59500Y-53500D01*
X59500Y-53500D02*
X69500Y-53500D01*
X69500Y-53500D02*
X69500Y-54500D01*
X69500Y-54500D02*
X59500Y-54500D01*
X60500Y-54500D02*
X60500Y-53500D01*
X20500Y-54500D02*
X20500Y-53500D01*
X20500Y-53500D02*
X30500Y-53500D01*
X30500Y-53500D02*
X30500Y-54500D01*
X30500Y-54500D02*
X20500Y-54500D01*
X21500Y-54500D02*
X21500Y-53500D01*
X33500Y-54500D02*
X33500Y-53500D01*
X33500Y-53500D02*
X43500Y-53500D01*
X43500Y-53500D02*
X43500Y-54500D01*
X43500Y-54500D02*
X33500Y-54500D01*
X34500Y-54500D02*
X34500Y-53500D01*
X46500Y-54500D02*
X46500Y-53500D01*
X46500Y-53500D02*
X56500Y-53500D01*
X56500Y-53500D02*
X56500Y-54500D01*
X56500Y-54500D02*
X46500Y-54500D01*
X47500Y-54500D02*
X47500Y-53500D01*
X72500Y-54500D02*
X72500Y-53500D01*
X72500Y-53500D02*
X82500Y-53500D01*
X82500Y-53500D02*
X82500Y-54500D01*
X82500Y-54500D02*
X72500Y-54500D01*
X73500Y-54500D02*
X73500Y-53500D01*
X20500Y-55500D02*
X20500Y-54500D01*
X20500Y-54500D02*
X30500Y-54500D01*
X30500Y-54500D02*
X30500Y-55500D01*
X30500Y-55500D02*
X20500Y-55500D01*
X21500Y-55500D02*
X21500Y-54500D01*
X33500Y-55500D02*
X33500Y-54500D01*
X33500Y-54500D02*
X43500Y-54500D01*
X43500Y-54500D02*
X43500Y-55500D01*
X43500Y-55500D02*
X33500Y-55500D01*
X34500Y-55500D02*
X34500Y-54500D01*
X46500Y-55500D02*
X46500Y-54500D01*
X46500Y-54500D02*
X56500Y-54500D01*
X56500Y-54500D02*
X56500Y-55500D01*
X56500Y-55500D02*
X46500Y-55500D01*
X47500Y-55500D02*
X47500Y-54500D01*
X59500Y-55500D02*
X59500Y-54500D01*
X59500Y-54500D02*
X69500Y-54500D01*
X69500Y-54500D02*
X69500Y-55500D01*
X69500Y-55500D02*
X59500Y-55500D01*
X60500Y-55500D02*
X60500Y-54500D01*
X72500Y-55500D02*
X72500Y-54500D01*
X72500Y-54500D02*
X82500Y-54500D01*
X82500Y-54500D02*
X82500Y-55500D01*
X82500Y-55500D02*
X72500Y-55500D01*
X73500Y-55500D02*
X73500Y-54500D01*
G54D14*
X56500Y-47500D02*
X56700Y-47500D01*
X59500Y-47500D02*
X59300Y-47500D01*
X59300Y-47500D02*
X59300Y-47100D01*
X59300Y-47100D02*
X56700Y-47100D01*
X56700Y-47100D02*
X56700Y-47900D01*
X56700Y-47900D02*
X59300Y-47900D01*
X59300Y-47900D02*
X59300Y-47500D01*
X56700Y-47300D02*
X56900Y-47100D01*
X54500Y-45500D02*
X54300Y-45500D01*
X51500Y-45500D02*
X51700Y-45500D01*
X51700Y-45500D02*
X51700Y-45900D01*
X51700Y-45900D02*
X54300Y-45900D01*
X54300Y-45900D02*
X54300Y-45100D01*
X54300Y-45100D02*
X51700Y-45100D01*
X51700Y-45100D02*
X51700Y-45500D01*
X54300Y-45700D02*
X54100Y-45900D01*
X49500Y-47500D02*
X49300Y-47500D01*
X46500Y-47500D02*
X46700Y-47500D01*
X46700Y-47500D02*
X46700Y-47900D01*
X46700Y-47900D02*
X49300Y-47900D01*
X49300Y-47900D02*
X49300Y-47100D01*
X49300Y-47100D02*
X46700Y-47100D01*
X46700Y-47100D02*
X46700Y-47500D01*
X49300Y-47700D02*
X49100Y-47900D01*
X54500Y-47500D02*
X54300Y-47500D01*
X51500Y-47500D02*
X51700Y-47500D01*
X51700Y-47500D02*
X51700Y-47900D01*
X51700Y-47900D02*
X54300Y-47900D01*
X54300Y-47900D02*
X54300Y-47100D01*
X54300Y-47100D02*
X51700Y-47100D01*
X51700Y-47100D02*
X51700Y-47500D01*
X54300Y-47700D02*
X54100Y-47900D01*
X56500Y-45500D02*
X56700Y-45500D01*
X59500Y-45500D02*
X59300Y-45500D01*
X59300Y-45500D02*
X59300Y-45100D01*
X59300Y-45100D02*
X56700Y-45100D01*
X56700Y-45100D02*
X56700Y-45900D01*
X56700Y-45900D02*
X59300Y-45900D01*
X59300Y-45900D02*
X59300Y-45500D01*
X56700Y-45300D02*
X56900Y-45100D01*
X49500Y-45500D02*
X49300Y-45500D01*
X46500Y-45500D02*
X46700Y-45500D01*
X46700Y-45500D02*
X46700Y-45900D01*
X46700Y-45900D02*
X49300Y-45900D01*
X49300Y-45900D02*
X49300Y-45100D01*
X49300Y-45100D02*
X46700Y-45100D01*
X46700Y-45100D02*
X46700Y-45500D01*
X49300Y-45700D02*
X49100Y-45900D01*
X56500Y-46500D02*
X56700Y-46500D01*
X59500Y-46500D02*
X59300Y-46500D01*
X59300Y-46500D02*
X59300Y-46100D01*
X59300Y-46100D02*
X56700Y-46100D01*
X56700Y-46100D02*
X56700Y-46900D01*
X56700Y-46900D02*
X59300Y-46900D01*
X59300Y-46900D02*
X59300Y-46500D01*
X56700Y-46300D02*
X56900Y-46100D01*
X46500Y-46500D02*
X46700Y-46500D01*
X49500Y-46500D02*
X49300Y-46500D01*
X49300Y-46500D02*
X49300Y-46100D01*
X49300Y-46100D02*
X46700Y-46100D01*
X46700Y-46100D02*
X46700Y-46900D01*
X46700Y-46900D02*
X49300Y-46900D01*
X49300Y-46900D02*
X49300Y-46500D01*
X46700Y-46300D02*
X46900Y-46100D01*
X54500Y-46500D02*
X54300Y-46500D01*
X51500Y-46500D02*
X51700Y-46500D01*
X51700Y-46500D02*
X51700Y-46900D01*
X51700Y-46900D02*
X54300Y-46900D01*
X54300Y-46900D02*
X54300Y-46100D01*
X54300Y-46100D02*
X51700Y-46100D01*
X51700Y-46100D02*
X51700Y-46500D01*
X54300Y-46700D02*
X54100Y-46900D01*
X54400Y-43150D02*
G75*
G03X54400Y-43150I-1400J0D01*
G74*
G01*
G54D15*
X20250Y-54500D02*
G75*
G03X20250Y-54500I-1250J0D01*
G74*
G01*
X33250Y-54500D02*
G75*
G03X33250Y-54500I-1250J0D01*
G74*
G01*
X46250Y-50500D02*
G75*
G03X46250Y-50500I-1250J0D01*
G74*
G01*
X46250Y-54500D02*
G75*
G03X46250Y-54500I-1250J0D01*
G74*
G01*
X59250Y-54500D02*
G75*
G03X59250Y-54500I-1250J0D01*
G74*
G01*
X72250Y-54500D02*
G75*
G03X72250Y-54500I-1250J0D01*
G74*
G01*
X49250Y-43500D02*
G75*
G03X49250Y-43500I-1250J0D01*
G74*
G01*
X59250Y-43500D02*
G75*
G03X59250Y-43500I-1250J0D01*
G74*
G01*
X93500Y-41000D02*
G75*
G03X93500Y-41000I-1000J0D01*
G74*
G01*
X91000Y-39500D02*
X94000Y-39500D01*
X94000Y-39500D02*
X94000Y-42500D01*
X94000Y-42500D02*
X91000Y-42500D01*
X91000Y-39500D02*
X91000Y-42500D01*
G54D13*
X97100Y-48650D02*
X97100Y-47650D01*
X97100Y-47650D02*
X99100Y-47650D01*
X99100Y-47650D02*
X99100Y-48650D01*
X99100Y-48650D02*
X97100Y-48650D01*
X97100Y-47250D02*
X97100Y-46250D01*
X97100Y-46250D02*
X99100Y-46250D01*
X99100Y-46250D02*
X99100Y-47250D01*
X99100Y-47250D02*
X97100Y-47250D01*
G54D14*
X95400Y-48950D02*
X95400Y-48750D01*
X95400Y-45950D02*
X95400Y-46150D01*
X95400Y-46150D02*
X95000Y-46150D01*
X95000Y-46150D02*
X95000Y-48750D01*
X95000Y-48750D02*
X95800Y-48750D01*
X95800Y-48750D02*
X95800Y-46150D01*
X95800Y-46150D02*
X95400Y-46150D01*
X95200Y-48750D02*
X95000Y-48550D01*
X85600Y-48950D02*
X85600Y-48750D01*
X85600Y-45950D02*
X85600Y-46150D01*
X85600Y-46150D02*
X85200Y-46150D01*
X85200Y-46150D02*
X85200Y-48750D01*
X85200Y-48750D02*
X86000Y-48750D01*
X86000Y-48750D02*
X86000Y-46150D01*
X86000Y-46150D02*
X85600Y-46150D01*
X85400Y-48750D02*
X85200Y-48550D01*
X86750Y-45950D02*
X86750Y-46150D01*
X86750Y-48950D02*
X86750Y-48750D01*
X86750Y-48750D02*
X87150Y-48750D01*
X87150Y-48750D02*
X87150Y-46150D01*
X87150Y-46150D02*
X86350Y-46150D01*
X86350Y-46150D02*
X86350Y-48750D01*
X86350Y-48750D02*
X86750Y-48750D01*
X86950Y-46150D02*
X87150Y-46350D01*
X89400Y-48950D02*
X89400Y-48750D01*
X89400Y-45950D02*
X89400Y-46150D01*
X89400Y-46150D02*
X89000Y-46150D01*
X89000Y-46150D02*
X89000Y-48750D01*
X89000Y-48750D02*
X89800Y-48750D01*
X89800Y-48750D02*
X89800Y-46150D01*
X89800Y-46150D02*
X89400Y-46150D01*
X89200Y-48750D02*
X89000Y-48550D01*
X92550Y-48950D02*
X92550Y-48750D01*
X92550Y-45950D02*
X92550Y-46150D01*
X92550Y-46150D02*
X92150Y-46150D01*
X92150Y-46150D02*
X92150Y-48750D01*
X92150Y-48750D02*
X92950Y-48750D01*
X92950Y-48750D02*
X92950Y-46150D01*
X92950Y-46150D02*
X92550Y-46150D01*
X92350Y-48750D02*
X92150Y-48550D01*
X91600Y-48950D02*
X91600Y-48750D01*
X91600Y-45950D02*
X91600Y-46150D01*
X91600Y-46150D02*
X91200Y-46150D01*
X91200Y-46150D02*
X91200Y-48750D01*
X91200Y-48750D02*
X92000Y-48750D01*
X92000Y-48750D02*
X92000Y-46150D01*
X92000Y-46150D02*
X91600Y-46150D01*
X91400Y-48750D02*
X91200Y-48550D01*
X93500Y-48950D02*
X93500Y-48750D01*
X93500Y-45950D02*
X93500Y-46150D01*
X93500Y-46150D02*
X93100Y-46150D01*
X93100Y-46150D02*
X93100Y-48750D01*
X93100Y-48750D02*
X93900Y-48750D01*
X93900Y-48750D02*
X93900Y-46150D01*
X93900Y-46150D02*
X93500Y-46150D01*
X93300Y-48750D02*
X93100Y-48550D01*
X94450Y-48950D02*
X94450Y-48750D01*
X94450Y-45950D02*
X94450Y-46150D01*
X94450Y-46150D02*
X94050Y-46150D01*
X94050Y-46150D02*
X94050Y-48750D01*
X94050Y-48750D02*
X94850Y-48750D01*
X94850Y-48750D02*
X94850Y-46150D01*
X94850Y-46150D02*
X94450Y-46150D01*
X94250Y-48750D02*
X94050Y-48550D01*
G54D12*
X91600Y-53950D02*
X99600Y-53950D01*
X99600Y-55950D02*
X91600Y-55950D01*
X91600Y-55950D02*
X91600Y-53950D01*
X91600Y-54450D02*
X92100Y-54450D01*
X92100Y-54450D02*
X92100Y-55450D01*
X92100Y-55450D02*
X91600Y-55450D01*
X99600Y-53950D02*
X99600Y-55950D01*
G54D13*
X90550Y-45950D02*
X90550Y-46250D01*
X90550Y-46250D02*
X90150Y-46250D01*
X90150Y-46250D02*
X90150Y-48650D01*
X90150Y-48650D02*
X90550Y-48650D01*
X90550Y-48650D02*
X90550Y-48950D01*
X90550Y-48650D02*
X90950Y-48650D01*
X90950Y-48650D02*
X90950Y-46250D01*
X90950Y-46250D02*
X90550Y-46250D01*
X90150Y-46450D02*
X90950Y-46450D01*
X90950Y-46550D02*
X90150Y-46550D01*
G54D15*
X24050Y-50450D02*
G75*
G03X24050Y-50450I-1250J0D01*
G74*
G01*
X16350Y-54500D02*
G75*
G03X16350Y-54500I-1250J0D01*
G74*
G01*
X24050Y-47550D02*
G75*
G03X24050Y-47550I-1250J0D01*
G74*
G01*
X93450Y-50950D02*
G75*
G03X93450Y-50950I-1250J0D01*
G74*
G01*
G54D16*
X96549Y-50324D02*
X94901Y-50324D01*
X94775Y-51423D02*
G75*
G03X96675Y-51421I949J448D01*
G74*
G01*
X96674Y-51421D02*
G75*
G03X96773Y-50925I-949J446D01*
G74*
G01*
X96773Y-50923D02*
G75*
G03X96675Y-50527I-1048J-51D01*
G74*
G01*
X96674Y-50526D02*
G75*
G03X96548Y-50324I-948J-448D01*
G74*
G01*
X94775Y-50529D02*
G75*
G03X94677Y-50925I950J-445D01*
G74*
G01*
X94676Y-50925D02*
G75*
G03X94775Y-51421I1048J-49D01*
G74*
G01*
X94900Y-50325D02*
G75*
G03X94771Y-50537I824J-648D01*
G74*
G01*
X100024Y-50300D02*
X98376Y-50300D01*
X98250Y-51398D02*
G75*
G03X100149Y-51397I949J448D01*
G74*
G01*
X100149Y-51396D02*
G75*
G03X100248Y-50900I-949J446D01*
G74*
G01*
X100248Y-50898D02*
G75*
G03X100149Y-50502I-1048J-51D01*
G74*
G01*
X100148Y-50501D02*
G75*
G03X100023Y-50299I-948J-448D01*
G74*
G01*
X98249Y-50504D02*
G75*
G03X98151Y-50900I950J-445D01*
G74*
G01*
X98151Y-50900D02*
G75*
G03X98250Y-51397I1048J-49D01*
G74*
G01*
X98375Y-50301D02*
G75*
G03X98245Y-50513I824J-648D01*
G74*
G01*
X84850Y-48224D02*
X84850Y-46576D01*
X83751Y-46450D02*
G75*
G03X83752Y-48349I448J-949D01*
G74*
G01*
X83753Y-48349D02*
G75*
G03X84249Y-48448I446J949D01*
G74*
G01*
X84251Y-48448D02*
G75*
G03X84647Y-48349I-51J1048D01*
G74*
G01*
X84648Y-48348D02*
G75*
G03X84850Y-48223I-448J948D01*
G74*
G01*
X84645Y-46449D02*
G75*
G03X84249Y-46351I-445J-950D01*
G74*
G01*
X84249Y-46351D02*
G75*
G03X83752Y-46450I-49J-1048D01*
G74*
G01*
X84848Y-46575D02*
G75*
G03X84636Y-46445I-648J-824D01*
G74*
G01*
G54D13*
X18750Y-50050D02*
X16750Y-50050D01*
X18750Y-49050D02*
X16750Y-49050D01*
X18750Y-48050D02*
X16750Y-48050D01*
X16750Y-47050D02*
X10750Y-47050D01*
X10750Y-47050D02*
X10750Y-51050D01*
X10750Y-51050D02*
X16750Y-51050D01*
X16750Y-51050D02*
X16750Y-47050D01*
X13750Y-47550D02*
X13750Y-51050D01*
X13750Y-47550D02*
X13750Y-47050D01*
G54D14*
X86120Y-44000D02*
X86120Y-42500D01*
G54D17*
X86099Y-42499D02*
G75*
G03X86099Y-44000I-999J-750D01*
G74*
G01*
G54D16*
X57176Y-51150D02*
X58824Y-51150D01*
X58949Y-50051D02*
G75*
G03X57050Y-50052I-949J-448D01*
G74*
G01*
X57050Y-50053D02*
G75*
G03X56951Y-50549I949J-446D01*
G74*
G01*
X56951Y-50551D02*
G75*
G03X57050Y-50947I1048J51D01*
G74*
G01*
X57051Y-50948D02*
G75*
G03X57176Y-51150I948J448D01*
G74*
G01*
X58950Y-50945D02*
G75*
G03X59048Y-50549I-950J445D01*
G74*
G01*
X59048Y-50549D02*
G75*
G03X58949Y-50052I-1048J49D01*
G74*
G01*
X58824Y-51148D02*
G75*
G03X58954Y-50936I-824J648D01*
G74*
G01*
X47676Y-51150D02*
X49324Y-51150D01*
X49449Y-50051D02*
G75*
G03X47550Y-50052I-949J-448D01*
G74*
G01*
X47550Y-50053D02*
G75*
G03X47451Y-50549I949J-446D01*
G74*
G01*
X47451Y-50551D02*
G75*
G03X47550Y-50947I1048J51D01*
G74*
G01*
X47551Y-50948D02*
G75*
G03X47676Y-51150I948J448D01*
G74*
G01*
X49450Y-50945D02*
G75*
G03X49548Y-50549I-950J445D01*
G74*
G01*
X49548Y-50549D02*
G75*
G03X49449Y-50052I-1048J49D01*
G74*
G01*
X49324Y-51148D02*
G75*
G03X49454Y-50936I-824J648D01*
G74*
G01*
G54D12*
X51000Y-50000D02*
X51500Y-50000D01*
X51500Y-50000D02*
X51500Y-51000D01*
X51500Y-51000D02*
X51000Y-51000D01*
X51000Y-49500D02*
X55000Y-49500D01*
X55000Y-49500D02*
X55000Y-51500D01*
X55000Y-51500D02*
X51000Y-51500D01*
X51000Y-51500D02*
X51000Y-49500D01*
G54D13*
X93500Y-43400D02*
X93500Y-44400D01*
X93500Y-44400D02*
X91500Y-44400D01*
X91500Y-44400D02*
X91500Y-43400D01*
X91500Y-43400D02*
X93500Y-43400D01*
G54D14*
X86425Y-52925D02*
X86425Y-53125D01*
X86425Y-55925D02*
X86425Y-55725D01*
X86425Y-55725D02*
X86825Y-55725D01*
X86825Y-55725D02*
X86825Y-53125D01*
X86825Y-53125D02*
X86025Y-53125D01*
X86025Y-53125D02*
X86025Y-55725D01*
X86025Y-55725D02*
X86425Y-55725D01*
X86625Y-53125D02*
X86825Y-53325D01*
X85525Y-52925D02*
X85525Y-53125D01*
X85525Y-55925D02*
X85525Y-55725D01*
X85525Y-55725D02*
X85925Y-55725D01*
X85925Y-55725D02*
X85925Y-53125D01*
X85925Y-53125D02*
X85125Y-53125D01*
X85125Y-53125D02*
X85125Y-55725D01*
X85125Y-55725D02*
X85525Y-55725D01*
X85725Y-53125D02*
X85925Y-53325D01*
X84625Y-52925D02*
X84625Y-53125D01*
X84625Y-55925D02*
X84625Y-55725D01*
X84625Y-55725D02*
X85025Y-55725D01*
X85025Y-55725D02*
X85025Y-53125D01*
X85025Y-53125D02*
X84225Y-53125D01*
X84225Y-53125D02*
X84225Y-55725D01*
X84225Y-55725D02*
X84625Y-55725D01*
X84825Y-53125D02*
X85025Y-53325D01*
X83725Y-52925D02*
X83725Y-53125D01*
X83725Y-55925D02*
X83725Y-55725D01*
X83725Y-55725D02*
X84125Y-55725D01*
X84125Y-55725D02*
X84125Y-53125D01*
X84125Y-53125D02*
X83325Y-53125D01*
X83325Y-53125D02*
X83325Y-55725D01*
X83325Y-55725D02*
X83725Y-55725D01*
X83925Y-53125D02*
X84125Y-53325D01*
G54D13*
X91400Y-53500D02*
X91400Y-56300D01*
X91400Y-56300D02*
X90600Y-56300D01*
X90600Y-56300D02*
X90600Y-53500D01*
X90600Y-53500D02*
X91400Y-53500D01*
X91200Y-53500D02*
X91400Y-53700D01*
G54D12*
X14050Y-39300D02*
X13050Y-40300D01*
X13050Y-39800D02*
X13550Y-39300D01*
X20050Y-39300D02*
X21050Y-40300D01*
X20550Y-39300D02*
X21050Y-39800D01*
G54D13*
X13050Y-39300D02*
X13050Y-42300D01*
X21050Y-42300D02*
X21050Y-39300D01*
X21050Y-41800D02*
X13050Y-41800D01*
X13050Y-39300D02*
X21050Y-39300D01*
X13050Y-42300D02*
X21050Y-42300D01*
G54D12*
X23650Y-39300D02*
X22650Y-40300D01*
X22650Y-39800D02*
X23150Y-39300D01*
X29650Y-39300D02*
X30650Y-40300D01*
X30150Y-39300D02*
X30650Y-39800D01*
G54D13*
X22650Y-39300D02*
X22650Y-42300D01*
X30650Y-42300D02*
X30650Y-39300D01*
X30650Y-41800D02*
X22650Y-41800D01*
X22650Y-39300D02*
X30650Y-39300D01*
X22650Y-42300D02*
X30650Y-42300D01*
X100200Y-48650D02*
X100200Y-47650D01*
X100200Y-47650D02*
X102200Y-47650D01*
X102200Y-47650D02*
X102200Y-48650D01*
X102200Y-48650D02*
X100200Y-48650D01*
X100200Y-47250D02*
X100200Y-46250D01*
X100200Y-46250D02*
X102200Y-46250D01*
X102200Y-46250D02*
X102200Y-47250D01*
X102200Y-47250D02*
X100200Y-47250D01*
G54D14*
X38509Y-47861D02*
X38509Y-47461D01*
X38928Y-47823D02*
X38909Y-47842D01*
X38852Y-47861D01*
X38814Y-47861D01*
X38757Y-47842D01*
X38719Y-47804D01*
X38700Y-47766D01*
X38680Y-47690D01*
X38680Y-47633D01*
X38700Y-47557D01*
X38719Y-47519D01*
X38757Y-47480D01*
X38814Y-47461D01*
X38852Y-47461D01*
X38909Y-47480D01*
X38928Y-47500D01*
X39309Y-47861D02*
X39080Y-47861D01*
X39195Y-47861D02*
X39195Y-47461D01*
X39157Y-47519D01*
X39119Y-47557D01*
X39080Y-47576D01*
X38195Y-45961D02*
X38461Y-45961D01*
X38290Y-46361D01*
X38671Y-46133D02*
X38633Y-46114D01*
X38614Y-46095D01*
X38595Y-46057D01*
X38595Y-46038D01*
X38614Y-46000D01*
X38633Y-45980D01*
X38671Y-45961D01*
X38747Y-45961D01*
X38785Y-45980D01*
X38804Y-46000D01*
X38823Y-46038D01*
X38823Y-46057D01*
X38804Y-46095D01*
X38785Y-46114D01*
X38747Y-46133D01*
X38671Y-46133D01*
X38633Y-46152D01*
X38614Y-46171D01*
X38595Y-46209D01*
X38595Y-46285D01*
X38614Y-46323D01*
X38633Y-46342D01*
X38671Y-46361D01*
X38747Y-46361D01*
X38785Y-46342D01*
X38804Y-46323D01*
X38823Y-46285D01*
X38823Y-46209D01*
X38804Y-46171D01*
X38785Y-46152D01*
X38747Y-46133D01*
X39071Y-45961D02*
X39109Y-45961D01*
X39147Y-45980D01*
X39166Y-46000D01*
X39185Y-46038D01*
X39204Y-46114D01*
X39204Y-46209D01*
X39185Y-46285D01*
X39166Y-46323D01*
X39147Y-46342D01*
X39109Y-46361D01*
X39071Y-46361D01*
X39033Y-46342D01*
X39014Y-46323D01*
X38995Y-46285D01*
X38976Y-46209D01*
X38976Y-46114D01*
X38995Y-46038D01*
X39014Y-46000D01*
X39033Y-45980D01*
X39071Y-45961D01*
X39566Y-45961D02*
X39376Y-45961D01*
X39357Y-46152D01*
X39376Y-46133D01*
X39414Y-46114D01*
X39509Y-46114D01*
X39547Y-46133D01*
X39566Y-46152D01*
X39585Y-46190D01*
X39585Y-46285D01*
X39566Y-46323D01*
X39547Y-46342D01*
X39509Y-46361D01*
X39414Y-46361D01*
X39376Y-46342D01*
X39357Y-46323D01*
G54D17*
X1914Y-37461D02*
X1914Y-37061D01*
X2066Y-37061D01*
X2104Y-37080D01*
X2123Y-37100D01*
X2142Y-37138D01*
X2142Y-37195D01*
X2123Y-37233D01*
X2104Y-37252D01*
X2066Y-37271D01*
X1914Y-37271D01*
X2276Y-37061D02*
X2523Y-37061D01*
X2390Y-37214D01*
X2447Y-37214D01*
X2485Y-37233D01*
X2504Y-37252D01*
X2523Y-37290D01*
X2523Y-37385D01*
X2504Y-37423D01*
X2485Y-37442D01*
X2447Y-37461D01*
X2333Y-37461D01*
X2295Y-37442D01*
X2276Y-37423D01*
X2866Y-37195D02*
X2866Y-37461D01*
X2771Y-37042D02*
X2676Y-37328D01*
X2923Y-37328D01*
X109114Y-36361D02*
X109114Y-35961D01*
X109266Y-35961D01*
X109304Y-35980D01*
X109323Y-36000D01*
X109342Y-36038D01*
X109342Y-36095D01*
X109323Y-36133D01*
X109304Y-36152D01*
X109266Y-36171D01*
X109114Y-36171D01*
X109476Y-35961D02*
X109723Y-35961D01*
X109590Y-36114D01*
X109647Y-36114D01*
X109685Y-36133D01*
X109704Y-36152D01*
X109723Y-36190D01*
X109723Y-36285D01*
X109704Y-36323D01*
X109685Y-36342D01*
X109647Y-36361D01*
X109533Y-36361D01*
X109495Y-36342D01*
X109476Y-36323D01*
X110085Y-35961D02*
X109895Y-35961D01*
X109876Y-36152D01*
X109895Y-36133D01*
X109933Y-36114D01*
X110028Y-36114D01*
X110066Y-36133D01*
X110085Y-36152D01*
X110104Y-36190D01*
X110104Y-36285D01*
X110085Y-36323D01*
X110066Y-36342D01*
X110028Y-36361D01*
X109933Y-36361D01*
X109895Y-36342D01*
X109876Y-36323D01*
G54D13*
X48957Y-64442D02*
X48957Y-63842D01*
X49185Y-63842D01*
X49242Y-63871D01*
X49271Y-63900D01*
X49300Y-63957D01*
X49300Y-64042D01*
X49271Y-64100D01*
X49242Y-64128D01*
X49185Y-64157D01*
X48957Y-64157D01*
X49871Y-64442D02*
X49528Y-64442D01*
X49700Y-64442D02*
X49700Y-63842D01*
X49642Y-63928D01*
X49585Y-63985D01*
X49528Y-64014D01*
G54D14*
X66411Y-47900D02*
X66373Y-47880D01*
X66335Y-47842D01*
X66278Y-47785D01*
X66240Y-47766D01*
X66202Y-47766D01*
X66221Y-47861D02*
X66183Y-47842D01*
X66145Y-47804D01*
X66126Y-47728D01*
X66126Y-47595D01*
X66145Y-47519D01*
X66183Y-47480D01*
X66221Y-47461D01*
X66297Y-47461D01*
X66335Y-47480D01*
X66373Y-47519D01*
X66392Y-47595D01*
X66392Y-47728D01*
X66373Y-47804D01*
X66335Y-47842D01*
X66297Y-47861D01*
X66221Y-47861D01*
X66526Y-47461D02*
X66773Y-47461D01*
X66640Y-47614D01*
X66697Y-47614D01*
X66735Y-47633D01*
X66754Y-47652D01*
X66773Y-47690D01*
X66773Y-47785D01*
X66754Y-47823D01*
X66735Y-47842D01*
X66697Y-47861D01*
X66583Y-47861D01*
X66545Y-47842D01*
X66526Y-47823D01*
X65659Y-45961D02*
X65888Y-45961D01*
X65773Y-46361D02*
X65773Y-45961D01*
X66021Y-46361D02*
X66021Y-45961D01*
X66211Y-46361D02*
X66211Y-45961D01*
X66364Y-45961D01*
X66402Y-45980D01*
X66421Y-46000D01*
X66440Y-46038D01*
X66440Y-46095D01*
X66421Y-46133D01*
X66402Y-46152D01*
X66364Y-46171D01*
X66211Y-46171D01*
X66592Y-46000D02*
X66611Y-45980D01*
X66650Y-45961D01*
X66745Y-45961D01*
X66783Y-45980D01*
X66802Y-46000D01*
X66821Y-46038D01*
X66821Y-46076D01*
X66802Y-46133D01*
X66573Y-46361D01*
X66821Y-46361D01*
X67011Y-46361D02*
X67088Y-46361D01*
X67126Y-46342D01*
X67145Y-46323D01*
X67183Y-46266D01*
X67202Y-46190D01*
X67202Y-46038D01*
X67183Y-46000D01*
X67164Y-45980D01*
X67126Y-45961D01*
X67050Y-45961D01*
X67011Y-45980D01*
X66992Y-46000D01*
X66973Y-46038D01*
X66973Y-46133D01*
X66992Y-46171D01*
X67011Y-46190D01*
X67050Y-46209D01*
X67126Y-46209D01*
X67164Y-46190D01*
X67183Y-46171D01*
X67202Y-46133D01*
X76861Y-47900D02*
X76823Y-47880D01*
X76785Y-47842D01*
X76728Y-47785D01*
X76690Y-47766D01*
X76652Y-47766D01*
X76671Y-47861D02*
X76633Y-47842D01*
X76595Y-47804D01*
X76576Y-47728D01*
X76576Y-47595D01*
X76595Y-47519D01*
X76633Y-47480D01*
X76671Y-47461D01*
X76747Y-47461D01*
X76785Y-47480D01*
X76823Y-47519D01*
X76842Y-47595D01*
X76842Y-47728D01*
X76823Y-47804D01*
X76785Y-47842D01*
X76747Y-47861D01*
X76671Y-47861D01*
X77185Y-47595D02*
X77185Y-47861D01*
X77090Y-47442D02*
X76995Y-47728D01*
X77242Y-47728D01*
X76109Y-45961D02*
X76338Y-45961D01*
X76223Y-46361D02*
X76223Y-45961D01*
X76471Y-46361D02*
X76471Y-45961D01*
X76661Y-46361D02*
X76661Y-45961D01*
X76814Y-45961D01*
X76852Y-45980D01*
X76871Y-46000D01*
X76890Y-46038D01*
X76890Y-46095D01*
X76871Y-46133D01*
X76852Y-46152D01*
X76814Y-46171D01*
X76661Y-46171D01*
X77023Y-45961D02*
X77271Y-45961D01*
X77138Y-46114D01*
X77195Y-46114D01*
X77233Y-46133D01*
X77252Y-46152D01*
X77271Y-46190D01*
X77271Y-46285D01*
X77252Y-46323D01*
X77233Y-46342D01*
X77195Y-46361D01*
X77080Y-46361D01*
X77042Y-46342D01*
X77023Y-46323D01*
X77519Y-45961D02*
X77557Y-45961D01*
X77595Y-45980D01*
X77614Y-46000D01*
X77633Y-46038D01*
X77652Y-46114D01*
X77652Y-46209D01*
X77633Y-46285D01*
X77614Y-46323D01*
X77595Y-46342D01*
X77557Y-46361D01*
X77519Y-46361D01*
X77480Y-46342D01*
X77461Y-46323D01*
X77442Y-46285D01*
X77423Y-46209D01*
X77423Y-46114D01*
X77442Y-46038D01*
X77461Y-46000D01*
X77480Y-45980D01*
X77519Y-45961D01*
G54D18*
X43243Y-63244D02*
X43243Y-63731D01*
X43222Y-63828D01*
X43182Y-63893D01*
X43121Y-63925D01*
X43080Y-63925D01*
X43447Y-63925D02*
X43447Y-63244D01*
X43610Y-63244D01*
X43650Y-63277D01*
X43671Y-63309D01*
X43691Y-63374D01*
X43691Y-63471D01*
X43671Y-63536D01*
X43650Y-63568D01*
X43610Y-63601D01*
X43447Y-63601D01*
X43834Y-63244D02*
X44099Y-63244D01*
X43956Y-63504D01*
X44017Y-63504D01*
X44058Y-63536D01*
X44078Y-63568D01*
X44099Y-63633D01*
X44099Y-63795D01*
X44078Y-63860D01*
X44058Y-63893D01*
X44017Y-63925D01*
X43895Y-63925D01*
X43854Y-63893D01*
X43834Y-63860D01*
G54D13*
G54D18*
X22493Y-63494D02*
X22493Y-63981D01*
X22472Y-64078D01*
X22432Y-64143D01*
X22371Y-64175D01*
X22330Y-64175D01*
X22697Y-64175D02*
X22697Y-63494D01*
X22860Y-63494D01*
X22900Y-63527D01*
X22921Y-63559D01*
X22941Y-63624D01*
X22941Y-63721D01*
X22921Y-63786D01*
X22900Y-63818D01*
X22860Y-63851D01*
X22697Y-63851D01*
X23104Y-63559D02*
X23125Y-63527D01*
X23165Y-63494D01*
X23267Y-63494D01*
X23308Y-63527D01*
X23328Y-63559D01*
X23349Y-63624D01*
X23349Y-63689D01*
X23328Y-63786D01*
X23084Y-64175D01*
X23349Y-64175D01*
G54D13*
G54D18*
X44243Y-62844D02*
X44243Y-63331D01*
X44222Y-63428D01*
X44182Y-63493D01*
X44121Y-63525D01*
X44080Y-63525D01*
X44447Y-63525D02*
X44447Y-62844D01*
X44610Y-62844D01*
X44650Y-62877D01*
X44671Y-62909D01*
X44691Y-62974D01*
X44691Y-63071D01*
X44671Y-63136D01*
X44650Y-63168D01*
X44610Y-63201D01*
X44447Y-63201D01*
X45099Y-63525D02*
X44854Y-63525D01*
X44977Y-63525D02*
X44977Y-62844D01*
X44936Y-62941D01*
X44895Y-63006D01*
X44854Y-63039D01*
G54D13*
G54D14*
X63766Y-53202D02*
X63600Y-52964D01*
X63480Y-53202D02*
X63480Y-52702D01*
X63671Y-52702D01*
X63719Y-52726D01*
X63742Y-52750D01*
X63766Y-52797D01*
X63766Y-52869D01*
X63742Y-52916D01*
X63719Y-52940D01*
X63671Y-52964D01*
X63480Y-52964D01*
X64266Y-53202D02*
X64100Y-52964D01*
X63980Y-53202D02*
X63980Y-52702D01*
X64171Y-52702D01*
X64219Y-52726D01*
X64242Y-52750D01*
X64266Y-52797D01*
X64266Y-52869D01*
X64242Y-52916D01*
X64219Y-52940D01*
X64171Y-52964D01*
X63980Y-52964D01*
X64433Y-52702D02*
X64766Y-52702D01*
X64552Y-53202D01*
X63104Y-62950D02*
X63123Y-62926D01*
X63161Y-62902D01*
X63257Y-62902D01*
X63295Y-62926D01*
X63314Y-62950D01*
X63333Y-62997D01*
X63333Y-63045D01*
X63314Y-63116D01*
X63085Y-63402D01*
X63333Y-63402D01*
X63466Y-62902D02*
X63733Y-62902D01*
X63561Y-63402D01*
X63961Y-62902D02*
X64000Y-62902D01*
X64038Y-62926D01*
X64057Y-62950D01*
X64076Y-62997D01*
X64095Y-63092D01*
X64095Y-63211D01*
X64076Y-63307D01*
X64057Y-63354D01*
X64038Y-63378D01*
X64000Y-63402D01*
X63961Y-63402D01*
X63923Y-63378D01*
X63904Y-63354D01*
X63885Y-63307D01*
X63866Y-63211D01*
X63866Y-63092D01*
X63885Y-62997D01*
X63904Y-62950D01*
X63923Y-62926D01*
X63961Y-62902D01*
X25066Y-53302D02*
X24900Y-53064D01*
X24780Y-53302D02*
X24780Y-52802D01*
X24971Y-52802D01*
X25019Y-52826D01*
X25042Y-52850D01*
X25066Y-52897D01*
X25066Y-52969D01*
X25042Y-53016D01*
X25019Y-53040D01*
X24971Y-53064D01*
X24780Y-53064D01*
X25566Y-53302D02*
X25400Y-53064D01*
X25280Y-53302D02*
X25280Y-52802D01*
X25471Y-52802D01*
X25519Y-52826D01*
X25542Y-52850D01*
X25566Y-52897D01*
X25566Y-52969D01*
X25542Y-53016D01*
X25519Y-53040D01*
X25471Y-53064D01*
X25280Y-53064D01*
X26042Y-53302D02*
X25757Y-53302D01*
X25900Y-53302D02*
X25900Y-52802D01*
X25852Y-52873D01*
X25804Y-52921D01*
X25757Y-52945D01*
X28154Y-62450D02*
X28173Y-62426D01*
X28211Y-62402D01*
X28307Y-62402D01*
X28345Y-62426D01*
X28364Y-62450D01*
X28383Y-62497D01*
X28383Y-62545D01*
X28364Y-62616D01*
X28135Y-62902D01*
X28383Y-62902D01*
X28516Y-62402D02*
X28783Y-62402D01*
X28611Y-62902D01*
X29011Y-62402D02*
X29050Y-62402D01*
X29088Y-62426D01*
X29107Y-62450D01*
X29126Y-62497D01*
X29145Y-62592D01*
X29145Y-62711D01*
X29126Y-62807D01*
X29107Y-62854D01*
X29088Y-62878D01*
X29050Y-62902D01*
X29011Y-62902D01*
X28973Y-62878D01*
X28954Y-62854D01*
X28935Y-62807D01*
X28916Y-62711D01*
X28916Y-62592D01*
X28935Y-62497D01*
X28954Y-62450D01*
X28973Y-62426D01*
X29011Y-62402D01*
X37766Y-53202D02*
X37600Y-52964D01*
X37480Y-53202D02*
X37480Y-52702D01*
X37671Y-52702D01*
X37719Y-52726D01*
X37742Y-52750D01*
X37766Y-52797D01*
X37766Y-52869D01*
X37742Y-52916D01*
X37719Y-52940D01*
X37671Y-52964D01*
X37480Y-52964D01*
X38266Y-53202D02*
X38100Y-52964D01*
X37980Y-53202D02*
X37980Y-52702D01*
X38171Y-52702D01*
X38219Y-52726D01*
X38242Y-52750D01*
X38266Y-52797D01*
X38266Y-52869D01*
X38242Y-52916D01*
X38219Y-52940D01*
X38171Y-52964D01*
X37980Y-52964D01*
X38433Y-52702D02*
X38742Y-52702D01*
X38576Y-52892D01*
X38647Y-52892D01*
X38695Y-52916D01*
X38719Y-52940D01*
X38742Y-52988D01*
X38742Y-53107D01*
X38719Y-53154D01*
X38695Y-53178D01*
X38647Y-53202D01*
X38504Y-53202D01*
X38457Y-53178D01*
X38433Y-53154D01*
X39404Y-62900D02*
X39423Y-62876D01*
X39461Y-62852D01*
X39557Y-62852D01*
X39595Y-62876D01*
X39614Y-62900D01*
X39633Y-62947D01*
X39633Y-62995D01*
X39614Y-63066D01*
X39385Y-63352D01*
X39633Y-63352D01*
X39766Y-62852D02*
X40033Y-62852D01*
X39861Y-63352D01*
X40261Y-62852D02*
X40300Y-62852D01*
X40338Y-62876D01*
X40357Y-62900D01*
X40376Y-62947D01*
X40395Y-63042D01*
X40395Y-63161D01*
X40376Y-63257D01*
X40357Y-63304D01*
X40338Y-63328D01*
X40300Y-63352D01*
X40261Y-63352D01*
X40223Y-63328D01*
X40204Y-63304D01*
X40185Y-63257D01*
X40166Y-63161D01*
X40166Y-63042D01*
X40185Y-62947D01*
X40204Y-62900D01*
X40223Y-62876D01*
X40261Y-62852D01*
X50766Y-53202D02*
X50600Y-52964D01*
X50480Y-53202D02*
X50480Y-52702D01*
X50671Y-52702D01*
X50719Y-52726D01*
X50742Y-52750D01*
X50766Y-52797D01*
X50766Y-52869D01*
X50742Y-52916D01*
X50719Y-52940D01*
X50671Y-52964D01*
X50480Y-52964D01*
X51266Y-53202D02*
X51100Y-52964D01*
X50980Y-53202D02*
X50980Y-52702D01*
X51171Y-52702D01*
X51219Y-52726D01*
X51242Y-52750D01*
X51266Y-52797D01*
X51266Y-52869D01*
X51242Y-52916D01*
X51219Y-52940D01*
X51171Y-52964D01*
X50980Y-52964D01*
X51719Y-52702D02*
X51480Y-52702D01*
X51457Y-52940D01*
X51480Y-52916D01*
X51528Y-52892D01*
X51647Y-52892D01*
X51695Y-52916D01*
X51719Y-52940D01*
X51742Y-52988D01*
X51742Y-53107D01*
X51719Y-53154D01*
X51695Y-53178D01*
X51647Y-53202D01*
X51528Y-53202D01*
X51480Y-53178D01*
X51457Y-53154D01*
X52654Y-63300D02*
X52673Y-63276D01*
X52711Y-63252D01*
X52807Y-63252D01*
X52845Y-63276D01*
X52864Y-63300D01*
X52883Y-63347D01*
X52883Y-63395D01*
X52864Y-63466D01*
X52635Y-63752D01*
X52883Y-63752D01*
X53016Y-63252D02*
X53283Y-63252D01*
X53111Y-63752D01*
X53511Y-63252D02*
X53550Y-63252D01*
X53588Y-63276D01*
X53607Y-63300D01*
X53626Y-63347D01*
X53645Y-63442D01*
X53645Y-63561D01*
X53626Y-63657D01*
X53607Y-63704D01*
X53588Y-63728D01*
X53550Y-63752D01*
X53511Y-63752D01*
X53473Y-63728D01*
X53454Y-63704D01*
X53435Y-63657D01*
X53416Y-63561D01*
X53416Y-63442D01*
X53435Y-63347D01*
X53454Y-63300D01*
X53473Y-63276D01*
X53511Y-63252D01*
X76766Y-53202D02*
X76600Y-52964D01*
X76480Y-53202D02*
X76480Y-52702D01*
X76671Y-52702D01*
X76719Y-52726D01*
X76742Y-52750D01*
X76766Y-52797D01*
X76766Y-52869D01*
X76742Y-52916D01*
X76719Y-52940D01*
X76671Y-52964D01*
X76480Y-52964D01*
X77266Y-53202D02*
X77100Y-52964D01*
X76980Y-53202D02*
X76980Y-52702D01*
X77171Y-52702D01*
X77219Y-52726D01*
X77242Y-52750D01*
X77266Y-52797D01*
X77266Y-52869D01*
X77242Y-52916D01*
X77219Y-52940D01*
X77171Y-52964D01*
X76980Y-52964D01*
X77504Y-53202D02*
X77600Y-53202D01*
X77647Y-53178D01*
X77671Y-53154D01*
X77719Y-53083D01*
X77742Y-52988D01*
X77742Y-52797D01*
X77719Y-52750D01*
X77695Y-52726D01*
X77647Y-52702D01*
X77552Y-52702D01*
X77504Y-52726D01*
X77480Y-52750D01*
X77457Y-52797D01*
X77457Y-52916D01*
X77480Y-52964D01*
X77504Y-52988D01*
X77552Y-53011D01*
X77647Y-53011D01*
X77695Y-52988D01*
X77719Y-52964D01*
X77742Y-52916D01*
X75904Y-62900D02*
X75923Y-62876D01*
X75961Y-62852D01*
X76057Y-62852D01*
X76095Y-62876D01*
X76114Y-62900D01*
X76133Y-62947D01*
X76133Y-62995D01*
X76114Y-63066D01*
X75885Y-63352D01*
X76133Y-63352D01*
X76266Y-62852D02*
X76533Y-62852D01*
X76361Y-63352D01*
X76761Y-62852D02*
X76800Y-62852D01*
X76838Y-62876D01*
X76857Y-62900D01*
X76876Y-62947D01*
X76895Y-63042D01*
X76895Y-63161D01*
X76876Y-63257D01*
X76857Y-63304D01*
X76838Y-63328D01*
X76800Y-63352D01*
X76761Y-63352D01*
X76723Y-63328D01*
X76704Y-63304D01*
X76685Y-63257D01*
X76666Y-63161D01*
X76666Y-63042D01*
X76685Y-62947D01*
X76704Y-62900D01*
X76723Y-62876D01*
X76761Y-62852D01*
X25116Y-56202D02*
X24950Y-55964D01*
X24830Y-56202D02*
X24830Y-55702D01*
X25021Y-55702D01*
X25069Y-55726D01*
X25092Y-55750D01*
X25116Y-55797D01*
X25116Y-55869D01*
X25092Y-55916D01*
X25069Y-55940D01*
X25021Y-55964D01*
X24830Y-55964D01*
X25616Y-56202D02*
X25450Y-55964D01*
X25330Y-56202D02*
X25330Y-55702D01*
X25521Y-55702D01*
X25569Y-55726D01*
X25592Y-55750D01*
X25616Y-55797D01*
X25616Y-55869D01*
X25592Y-55916D01*
X25569Y-55940D01*
X25521Y-55964D01*
X25330Y-55964D01*
X25807Y-55750D02*
X25830Y-55726D01*
X25878Y-55702D01*
X25997Y-55702D01*
X26045Y-55726D01*
X26069Y-55750D01*
X26092Y-55797D01*
X26092Y-55845D01*
X26069Y-55916D01*
X25783Y-56202D01*
X26092Y-56202D01*
X28504Y-63750D02*
X28523Y-63726D01*
X28561Y-63702D01*
X28657Y-63702D01*
X28695Y-63726D01*
X28714Y-63750D01*
X28733Y-63797D01*
X28733Y-63845D01*
X28714Y-63916D01*
X28485Y-64202D01*
X28733Y-64202D01*
X28866Y-63702D02*
X29133Y-63702D01*
X28961Y-64202D01*
X29361Y-63702D02*
X29400Y-63702D01*
X29438Y-63726D01*
X29457Y-63750D01*
X29476Y-63797D01*
X29495Y-63892D01*
X29495Y-64011D01*
X29476Y-64107D01*
X29457Y-64154D01*
X29438Y-64178D01*
X29400Y-64202D01*
X29361Y-64202D01*
X29323Y-64178D01*
X29304Y-64154D01*
X29285Y-64107D01*
X29266Y-64011D01*
X29266Y-63892D01*
X29285Y-63797D01*
X29304Y-63750D01*
X29323Y-63726D01*
X29361Y-63702D01*
X37816Y-56202D02*
X37650Y-55964D01*
X37530Y-56202D02*
X37530Y-55702D01*
X37721Y-55702D01*
X37769Y-55726D01*
X37792Y-55750D01*
X37816Y-55797D01*
X37816Y-55869D01*
X37792Y-55916D01*
X37769Y-55940D01*
X37721Y-55964D01*
X37530Y-55964D01*
X38316Y-56202D02*
X38150Y-55964D01*
X38030Y-56202D02*
X38030Y-55702D01*
X38221Y-55702D01*
X38269Y-55726D01*
X38292Y-55750D01*
X38316Y-55797D01*
X38316Y-55869D01*
X38292Y-55916D01*
X38269Y-55940D01*
X38221Y-55964D01*
X38030Y-55964D01*
X38745Y-55869D02*
X38745Y-56202D01*
X38626Y-55678D02*
X38507Y-56035D01*
X38816Y-56035D01*
X37554Y-63450D02*
X37573Y-63426D01*
X37611Y-63402D01*
X37707Y-63402D01*
X37745Y-63426D01*
X37764Y-63450D01*
X37783Y-63497D01*
X37783Y-63545D01*
X37764Y-63616D01*
X37535Y-63902D01*
X37783Y-63902D01*
X37916Y-63402D02*
X38183Y-63402D01*
X38011Y-63902D01*
X38411Y-63402D02*
X38450Y-63402D01*
X38488Y-63426D01*
X38507Y-63450D01*
X38526Y-63497D01*
X38545Y-63592D01*
X38545Y-63711D01*
X38526Y-63807D01*
X38507Y-63854D01*
X38488Y-63878D01*
X38450Y-63902D01*
X38411Y-63902D01*
X38373Y-63878D01*
X38354Y-63854D01*
X38335Y-63807D01*
X38316Y-63711D01*
X38316Y-63592D01*
X38335Y-63497D01*
X38354Y-63450D01*
X38373Y-63426D01*
X38411Y-63402D01*
X50816Y-56252D02*
X50650Y-56014D01*
X50530Y-56252D02*
X50530Y-55752D01*
X50721Y-55752D01*
X50769Y-55776D01*
X50792Y-55800D01*
X50816Y-55847D01*
X50816Y-55919D01*
X50792Y-55966D01*
X50769Y-55990D01*
X50721Y-56014D01*
X50530Y-56014D01*
X51316Y-56252D02*
X51150Y-56014D01*
X51030Y-56252D02*
X51030Y-55752D01*
X51221Y-55752D01*
X51269Y-55776D01*
X51292Y-55800D01*
X51316Y-55847D01*
X51316Y-55919D01*
X51292Y-55966D01*
X51269Y-55990D01*
X51221Y-56014D01*
X51030Y-56014D01*
X51745Y-55752D02*
X51650Y-55752D01*
X51602Y-55776D01*
X51578Y-55800D01*
X51530Y-55871D01*
X51507Y-55966D01*
X51507Y-56157D01*
X51530Y-56204D01*
X51554Y-56228D01*
X51602Y-56252D01*
X51697Y-56252D01*
X51745Y-56228D01*
X51769Y-56204D01*
X51792Y-56157D01*
X51792Y-56038D01*
X51769Y-55990D01*
X51745Y-55966D01*
X51697Y-55942D01*
X51602Y-55942D01*
X51554Y-55966D01*
X51530Y-55990D01*
X51507Y-56038D01*
X51404Y-63400D02*
X51423Y-63376D01*
X51461Y-63352D01*
X51557Y-63352D01*
X51595Y-63376D01*
X51614Y-63400D01*
X51633Y-63447D01*
X51633Y-63495D01*
X51614Y-63566D01*
X51385Y-63852D01*
X51633Y-63852D01*
X51766Y-63352D02*
X52033Y-63352D01*
X51861Y-63852D01*
X52261Y-63352D02*
X52300Y-63352D01*
X52338Y-63376D01*
X52357Y-63400D01*
X52376Y-63447D01*
X52395Y-63542D01*
X52395Y-63661D01*
X52376Y-63757D01*
X52357Y-63804D01*
X52338Y-63828D01*
X52300Y-63852D01*
X52261Y-63852D01*
X52223Y-63828D01*
X52204Y-63804D01*
X52185Y-63757D01*
X52166Y-63661D01*
X52166Y-63542D01*
X52185Y-63447D01*
X52204Y-63400D01*
X52223Y-63376D01*
X52261Y-63352D01*
X63766Y-56252D02*
X63600Y-56014D01*
X63480Y-56252D02*
X63480Y-55752D01*
X63671Y-55752D01*
X63719Y-55776D01*
X63742Y-55800D01*
X63766Y-55847D01*
X63766Y-55919D01*
X63742Y-55966D01*
X63719Y-55990D01*
X63671Y-56014D01*
X63480Y-56014D01*
X64266Y-56252D02*
X64100Y-56014D01*
X63980Y-56252D02*
X63980Y-55752D01*
X64171Y-55752D01*
X64219Y-55776D01*
X64242Y-55800D01*
X64266Y-55847D01*
X64266Y-55919D01*
X64242Y-55966D01*
X64219Y-55990D01*
X64171Y-56014D01*
X63980Y-56014D01*
X64552Y-55966D02*
X64504Y-55942D01*
X64480Y-55919D01*
X64457Y-55871D01*
X64457Y-55847D01*
X64480Y-55800D01*
X64504Y-55776D01*
X64552Y-55752D01*
X64647Y-55752D01*
X64695Y-55776D01*
X64719Y-55800D01*
X64742Y-55847D01*
X64742Y-55871D01*
X64719Y-55919D01*
X64695Y-55942D01*
X64647Y-55966D01*
X64552Y-55966D01*
X64504Y-55990D01*
X64480Y-56014D01*
X64457Y-56061D01*
X64457Y-56157D01*
X64480Y-56204D01*
X64504Y-56228D01*
X64552Y-56252D01*
X64647Y-56252D01*
X64695Y-56228D01*
X64719Y-56204D01*
X64742Y-56157D01*
X64742Y-56061D01*
X64719Y-56014D01*
X64695Y-55990D01*
X64647Y-55966D01*
X63504Y-63800D02*
X63523Y-63776D01*
X63561Y-63752D01*
X63657Y-63752D01*
X63695Y-63776D01*
X63714Y-63800D01*
X63733Y-63847D01*
X63733Y-63895D01*
X63714Y-63966D01*
X63485Y-64252D01*
X63733Y-64252D01*
X63866Y-63752D02*
X64133Y-63752D01*
X63961Y-64252D01*
X64361Y-63752D02*
X64400Y-63752D01*
X64438Y-63776D01*
X64457Y-63800D01*
X64476Y-63847D01*
X64495Y-63942D01*
X64495Y-64061D01*
X64476Y-64157D01*
X64457Y-64204D01*
X64438Y-64228D01*
X64400Y-64252D01*
X64361Y-64252D01*
X64323Y-64228D01*
X64304Y-64204D01*
X64285Y-64157D01*
X64266Y-64061D01*
X64266Y-63942D01*
X64285Y-63847D01*
X64304Y-63800D01*
X64323Y-63776D01*
X64361Y-63752D01*
X76778Y-56352D02*
X76611Y-56114D01*
X76492Y-56352D02*
X76492Y-55852D01*
X76683Y-55852D01*
X76730Y-55876D01*
X76754Y-55900D01*
X76778Y-55947D01*
X76778Y-56019D01*
X76754Y-56066D01*
X76730Y-56090D01*
X76683Y-56114D01*
X76492Y-56114D01*
X77278Y-56352D02*
X77111Y-56114D01*
X76992Y-56352D02*
X76992Y-55852D01*
X77183Y-55852D01*
X77230Y-55876D01*
X77254Y-55900D01*
X77278Y-55947D01*
X77278Y-56019D01*
X77254Y-56066D01*
X77230Y-56090D01*
X77183Y-56114D01*
X76992Y-56114D01*
X77754Y-56352D02*
X77469Y-56352D01*
X77611Y-56352D02*
X77611Y-55852D01*
X77564Y-55923D01*
X77516Y-55971D01*
X77469Y-55995D01*
X78064Y-55852D02*
X78111Y-55852D01*
X78159Y-55876D01*
X78183Y-55900D01*
X78207Y-55947D01*
X78230Y-56042D01*
X78230Y-56161D01*
X78207Y-56257D01*
X78183Y-56304D01*
X78159Y-56328D01*
X78111Y-56352D01*
X78064Y-56352D01*
X78016Y-56328D01*
X77992Y-56304D01*
X77969Y-56257D01*
X77945Y-56161D01*
X77945Y-56042D01*
X77969Y-55947D01*
X77992Y-55900D01*
X78016Y-55876D01*
X78064Y-55852D01*
X74054Y-63150D02*
X74073Y-63126D01*
X74111Y-63102D01*
X74207Y-63102D01*
X74245Y-63126D01*
X74264Y-63150D01*
X74283Y-63197D01*
X74283Y-63245D01*
X74264Y-63316D01*
X74035Y-63602D01*
X74283Y-63602D01*
X74416Y-63102D02*
X74683Y-63102D01*
X74511Y-63602D01*
X74911Y-63102D02*
X74950Y-63102D01*
X74988Y-63126D01*
X75007Y-63150D01*
X75026Y-63197D01*
X75045Y-63292D01*
X75045Y-63411D01*
X75026Y-63507D01*
X75007Y-63554D01*
X74988Y-63578D01*
X74950Y-63602D01*
X74911Y-63602D01*
X74873Y-63578D01*
X74854Y-63554D01*
X74835Y-63507D01*
X74816Y-63411D01*
X74816Y-63292D01*
X74835Y-63197D01*
X74854Y-63150D01*
X74873Y-63126D01*
X74911Y-63102D01*
X57642Y-47222D02*
X57404Y-47222D01*
X57380Y-47484D01*
X57404Y-47458D01*
X57452Y-47432D01*
X57571Y-47432D01*
X57619Y-47458D01*
X57642Y-47484D01*
X57666Y-47536D01*
X57666Y-47667D01*
X57642Y-47720D01*
X57619Y-47746D01*
X57571Y-47772D01*
X57452Y-47772D01*
X57404Y-47746D01*
X57380Y-47720D01*
X58095Y-47222D02*
X58000Y-47222D01*
X57952Y-47248D01*
X57928Y-47275D01*
X57880Y-47353D01*
X57857Y-47458D01*
X57857Y-47667D01*
X57880Y-47720D01*
X57904Y-47746D01*
X57952Y-47772D01*
X58047Y-47772D01*
X58095Y-47746D01*
X58119Y-47720D01*
X58142Y-47667D01*
X58142Y-47536D01*
X58119Y-47484D01*
X58095Y-47458D01*
X58047Y-47432D01*
X57952Y-47432D01*
X57904Y-47458D01*
X57880Y-47484D01*
X57857Y-47536D01*
X58452Y-47222D02*
X58500Y-47222D01*
X58547Y-47248D01*
X58571Y-47275D01*
X58595Y-47327D01*
X58619Y-47432D01*
X58619Y-47563D01*
X58595Y-47667D01*
X58571Y-47720D01*
X58547Y-47746D01*
X58500Y-47772D01*
X58452Y-47772D01*
X58404Y-47746D01*
X58380Y-47720D01*
X58357Y-47667D01*
X58333Y-47563D01*
X58333Y-47432D01*
X58357Y-47327D01*
X58380Y-47275D01*
X58404Y-47248D01*
X58452Y-47222D01*
X52416Y-45672D02*
X52130Y-45672D01*
X52273Y-45672D02*
X52273Y-45122D01*
X52226Y-45201D01*
X52178Y-45253D01*
X52130Y-45279D01*
X52869Y-45122D02*
X52630Y-45122D01*
X52607Y-45384D01*
X52630Y-45358D01*
X52678Y-45332D01*
X52797Y-45332D01*
X52845Y-45358D01*
X52869Y-45384D01*
X52892Y-45436D01*
X52892Y-45567D01*
X52869Y-45620D01*
X52845Y-45646D01*
X52797Y-45672D01*
X52678Y-45672D01*
X52630Y-45646D01*
X52607Y-45620D01*
X53202Y-45122D02*
X53250Y-45122D01*
X53297Y-45148D01*
X53321Y-45175D01*
X53345Y-45227D01*
X53369Y-45332D01*
X53369Y-45463D01*
X53345Y-45567D01*
X53321Y-45620D01*
X53297Y-45646D01*
X53250Y-45672D01*
X53202Y-45672D01*
X53154Y-45646D01*
X53130Y-45620D01*
X53107Y-45567D01*
X53083Y-45463D01*
X53083Y-45332D01*
X53107Y-45227D01*
X53130Y-45175D01*
X53154Y-45148D01*
X53202Y-45122D01*
X53583Y-45672D02*
X53583Y-45122D01*
X53869Y-45672D02*
X53654Y-45358D01*
X53869Y-45122D02*
X53583Y-45436D01*
X47642Y-47122D02*
X47404Y-47122D01*
X47380Y-47384D01*
X47404Y-47358D01*
X47452Y-47332D01*
X47571Y-47332D01*
X47619Y-47358D01*
X47642Y-47384D01*
X47666Y-47436D01*
X47666Y-47567D01*
X47642Y-47620D01*
X47619Y-47646D01*
X47571Y-47672D01*
X47452Y-47672D01*
X47404Y-47646D01*
X47380Y-47620D01*
X48095Y-47122D02*
X48000Y-47122D01*
X47952Y-47148D01*
X47928Y-47175D01*
X47880Y-47253D01*
X47857Y-47358D01*
X47857Y-47567D01*
X47880Y-47620D01*
X47904Y-47646D01*
X47952Y-47672D01*
X48047Y-47672D01*
X48095Y-47646D01*
X48119Y-47620D01*
X48142Y-47567D01*
X48142Y-47436D01*
X48119Y-47384D01*
X48095Y-47358D01*
X48047Y-47332D01*
X47952Y-47332D01*
X47904Y-47358D01*
X47880Y-47384D01*
X47857Y-47436D01*
X48452Y-47122D02*
X48500Y-47122D01*
X48547Y-47148D01*
X48571Y-47175D01*
X48595Y-47227D01*
X48619Y-47332D01*
X48619Y-47463D01*
X48595Y-47567D01*
X48571Y-47620D01*
X48547Y-47646D01*
X48500Y-47672D01*
X48452Y-47672D01*
X48404Y-47646D01*
X48380Y-47620D01*
X48357Y-47567D01*
X48333Y-47463D01*
X48333Y-47332D01*
X48357Y-47227D01*
X48380Y-47175D01*
X48404Y-47148D01*
X48452Y-47122D01*
X52428Y-47672D02*
X52142Y-47672D01*
X52285Y-47672D02*
X52285Y-47122D01*
X52238Y-47201D01*
X52190Y-47253D01*
X52142Y-47279D01*
X52738Y-47122D02*
X52785Y-47122D01*
X52833Y-47148D01*
X52857Y-47175D01*
X52880Y-47227D01*
X52904Y-47332D01*
X52904Y-47463D01*
X52880Y-47567D01*
X52857Y-47620D01*
X52833Y-47646D01*
X52785Y-47672D01*
X52738Y-47672D01*
X52690Y-47646D01*
X52666Y-47620D01*
X52642Y-47567D01*
X52619Y-47463D01*
X52619Y-47332D01*
X52642Y-47227D01*
X52666Y-47175D01*
X52690Y-47148D01*
X52738Y-47122D01*
X53214Y-47122D02*
X53261Y-47122D01*
X53309Y-47148D01*
X53333Y-47175D01*
X53357Y-47227D01*
X53380Y-47332D01*
X53380Y-47463D01*
X53357Y-47567D01*
X53333Y-47620D01*
X53309Y-47646D01*
X53261Y-47672D01*
X53214Y-47672D01*
X53166Y-47646D01*
X53142Y-47620D01*
X53119Y-47567D01*
X53095Y-47463D01*
X53095Y-47332D01*
X53119Y-47227D01*
X53142Y-47175D01*
X53166Y-47148D01*
X53214Y-47122D01*
X53690Y-47122D02*
X53738Y-47122D01*
X53785Y-47148D01*
X53809Y-47175D01*
X53833Y-47227D01*
X53857Y-47332D01*
X53857Y-47463D01*
X53833Y-47567D01*
X53809Y-47620D01*
X53785Y-47646D01*
X53738Y-47672D01*
X53690Y-47672D01*
X53642Y-47646D01*
X53619Y-47620D01*
X53595Y-47567D01*
X53571Y-47463D01*
X53571Y-47332D01*
X53595Y-47227D01*
X53619Y-47175D01*
X53642Y-47148D01*
X53690Y-47122D01*
X57428Y-45772D02*
X57142Y-45772D01*
X57285Y-45772D02*
X57285Y-45222D01*
X57238Y-45301D01*
X57190Y-45353D01*
X57142Y-45379D01*
X57714Y-45458D02*
X57666Y-45432D01*
X57642Y-45405D01*
X57619Y-45353D01*
X57619Y-45327D01*
X57642Y-45275D01*
X57666Y-45248D01*
X57714Y-45222D01*
X57809Y-45222D01*
X57857Y-45248D01*
X57880Y-45275D01*
X57904Y-45327D01*
X57904Y-45353D01*
X57880Y-45405D01*
X57857Y-45432D01*
X57809Y-45458D01*
X57714Y-45458D01*
X57666Y-45484D01*
X57642Y-45510D01*
X57619Y-45563D01*
X57619Y-45667D01*
X57642Y-45720D01*
X57666Y-45746D01*
X57714Y-45772D01*
X57809Y-45772D01*
X57857Y-45746D01*
X57880Y-45720D01*
X57904Y-45667D01*
X57904Y-45563D01*
X57880Y-45510D01*
X57857Y-45484D01*
X57809Y-45458D01*
X58214Y-45222D02*
X58261Y-45222D01*
X58309Y-45248D01*
X58333Y-45275D01*
X58357Y-45327D01*
X58380Y-45432D01*
X58380Y-45563D01*
X58357Y-45667D01*
X58333Y-45720D01*
X58309Y-45746D01*
X58261Y-45772D01*
X58214Y-45772D01*
X58166Y-45746D01*
X58142Y-45720D01*
X58119Y-45667D01*
X58095Y-45563D01*
X58095Y-45432D01*
X58119Y-45327D01*
X58142Y-45275D01*
X58166Y-45248D01*
X58214Y-45222D01*
X58690Y-45222D02*
X58738Y-45222D01*
X58785Y-45248D01*
X58809Y-45275D01*
X58833Y-45327D01*
X58857Y-45432D01*
X58857Y-45563D01*
X58833Y-45667D01*
X58809Y-45720D01*
X58785Y-45746D01*
X58738Y-45772D01*
X58690Y-45772D01*
X58642Y-45746D01*
X58619Y-45720D01*
X58595Y-45667D01*
X58571Y-45563D01*
X58571Y-45432D01*
X58595Y-45327D01*
X58619Y-45275D01*
X58642Y-45248D01*
X58690Y-45222D01*
X47428Y-45672D02*
X47142Y-45672D01*
X47285Y-45672D02*
X47285Y-45122D01*
X47238Y-45201D01*
X47190Y-45253D01*
X47142Y-45279D01*
X47714Y-45358D02*
X47666Y-45332D01*
X47642Y-45305D01*
X47619Y-45253D01*
X47619Y-45227D01*
X47642Y-45175D01*
X47666Y-45148D01*
X47714Y-45122D01*
X47809Y-45122D01*
X47857Y-45148D01*
X47880Y-45175D01*
X47904Y-45227D01*
X47904Y-45253D01*
X47880Y-45305D01*
X47857Y-45332D01*
X47809Y-45358D01*
X47714Y-45358D01*
X47666Y-45384D01*
X47642Y-45410D01*
X47619Y-45463D01*
X47619Y-45567D01*
X47642Y-45620D01*
X47666Y-45646D01*
X47714Y-45672D01*
X47809Y-45672D01*
X47857Y-45646D01*
X47880Y-45620D01*
X47904Y-45567D01*
X47904Y-45463D01*
X47880Y-45410D01*
X47857Y-45384D01*
X47809Y-45358D01*
X48214Y-45122D02*
X48261Y-45122D01*
X48309Y-45148D01*
X48333Y-45175D01*
X48357Y-45227D01*
X48380Y-45332D01*
X48380Y-45463D01*
X48357Y-45567D01*
X48333Y-45620D01*
X48309Y-45646D01*
X48261Y-45672D01*
X48214Y-45672D01*
X48166Y-45646D01*
X48142Y-45620D01*
X48119Y-45567D01*
X48095Y-45463D01*
X48095Y-45332D01*
X48119Y-45227D01*
X48142Y-45175D01*
X48166Y-45148D01*
X48214Y-45122D01*
X48690Y-45122D02*
X48738Y-45122D01*
X48785Y-45148D01*
X48809Y-45175D01*
X48833Y-45227D01*
X48857Y-45332D01*
X48857Y-45463D01*
X48833Y-45567D01*
X48809Y-45620D01*
X48785Y-45646D01*
X48738Y-45672D01*
X48690Y-45672D01*
X48642Y-45646D01*
X48619Y-45620D01*
X48595Y-45567D01*
X48571Y-45463D01*
X48571Y-45332D01*
X48595Y-45227D01*
X48619Y-45175D01*
X48642Y-45148D01*
X48690Y-45122D01*
X57428Y-46772D02*
X57523Y-46772D01*
X57571Y-46746D01*
X57595Y-46720D01*
X57642Y-46641D01*
X57666Y-46536D01*
X57666Y-46327D01*
X57642Y-46275D01*
X57619Y-46248D01*
X57571Y-46222D01*
X57476Y-46222D01*
X57428Y-46248D01*
X57404Y-46275D01*
X57380Y-46327D01*
X57380Y-46458D01*
X57404Y-46510D01*
X57428Y-46536D01*
X57476Y-46563D01*
X57571Y-46563D01*
X57619Y-46536D01*
X57642Y-46510D01*
X57666Y-46458D01*
X58142Y-46772D02*
X57857Y-46772D01*
X58000Y-46772D02*
X58000Y-46222D01*
X57952Y-46301D01*
X57904Y-46353D01*
X57857Y-46379D01*
X58452Y-46222D02*
X58500Y-46222D01*
X58547Y-46248D01*
X58571Y-46275D01*
X58595Y-46327D01*
X58619Y-46432D01*
X58619Y-46563D01*
X58595Y-46667D01*
X58571Y-46720D01*
X58547Y-46746D01*
X58500Y-46772D01*
X58452Y-46772D01*
X58404Y-46746D01*
X58380Y-46720D01*
X58357Y-46667D01*
X58333Y-46563D01*
X58333Y-46432D01*
X58357Y-46327D01*
X58380Y-46275D01*
X58404Y-46248D01*
X58452Y-46222D01*
X47428Y-46772D02*
X47523Y-46772D01*
X47571Y-46746D01*
X47595Y-46720D01*
X47642Y-46641D01*
X47666Y-46536D01*
X47666Y-46327D01*
X47642Y-46275D01*
X47619Y-46248D01*
X47571Y-46222D01*
X47476Y-46222D01*
X47428Y-46248D01*
X47404Y-46275D01*
X47380Y-46327D01*
X47380Y-46458D01*
X47404Y-46510D01*
X47428Y-46536D01*
X47476Y-46563D01*
X47571Y-46563D01*
X47619Y-46536D01*
X47642Y-46510D01*
X47666Y-46458D01*
X48142Y-46772D02*
X47857Y-46772D01*
X48000Y-46772D02*
X48000Y-46222D01*
X47952Y-46301D01*
X47904Y-46353D01*
X47857Y-46379D01*
X48452Y-46222D02*
X48500Y-46222D01*
X48547Y-46248D01*
X48571Y-46275D01*
X48595Y-46327D01*
X48619Y-46432D01*
X48619Y-46563D01*
X48595Y-46667D01*
X48571Y-46720D01*
X48547Y-46746D01*
X48500Y-46772D01*
X48452Y-46772D01*
X48404Y-46746D01*
X48380Y-46720D01*
X48357Y-46667D01*
X48333Y-46563D01*
X48333Y-46432D01*
X48357Y-46327D01*
X48380Y-46275D01*
X48404Y-46248D01*
X48452Y-46222D01*
X52428Y-46672D02*
X52142Y-46672D01*
X52285Y-46672D02*
X52285Y-46122D01*
X52238Y-46201D01*
X52190Y-46253D01*
X52142Y-46279D01*
X52738Y-46122D02*
X52785Y-46122D01*
X52833Y-46148D01*
X52857Y-46175D01*
X52880Y-46227D01*
X52904Y-46332D01*
X52904Y-46463D01*
X52880Y-46567D01*
X52857Y-46620D01*
X52833Y-46646D01*
X52785Y-46672D01*
X52738Y-46672D01*
X52690Y-46646D01*
X52666Y-46620D01*
X52642Y-46567D01*
X52619Y-46463D01*
X52619Y-46332D01*
X52642Y-46227D01*
X52666Y-46175D01*
X52690Y-46148D01*
X52738Y-46122D01*
X53214Y-46122D02*
X53261Y-46122D01*
X53309Y-46148D01*
X53333Y-46175D01*
X53357Y-46227D01*
X53380Y-46332D01*
X53380Y-46463D01*
X53357Y-46567D01*
X53333Y-46620D01*
X53309Y-46646D01*
X53261Y-46672D01*
X53214Y-46672D01*
X53166Y-46646D01*
X53142Y-46620D01*
X53119Y-46567D01*
X53095Y-46463D01*
X53095Y-46332D01*
X53119Y-46227D01*
X53142Y-46175D01*
X53166Y-46148D01*
X53214Y-46122D01*
X53690Y-46122D02*
X53738Y-46122D01*
X53785Y-46148D01*
X53809Y-46175D01*
X53833Y-46227D01*
X53857Y-46332D01*
X53857Y-46463D01*
X53833Y-46567D01*
X53809Y-46620D01*
X53785Y-46646D01*
X53738Y-46672D01*
X53690Y-46672D01*
X53642Y-46646D01*
X53619Y-46620D01*
X53595Y-46567D01*
X53571Y-46463D01*
X53571Y-46332D01*
X53595Y-46227D01*
X53619Y-46175D01*
X53642Y-46148D01*
X53690Y-46122D01*
X51416Y-44722D02*
X51250Y-44460D01*
X51130Y-44722D02*
X51130Y-44172D01*
X51321Y-44172D01*
X51369Y-44198D01*
X51392Y-44225D01*
X51416Y-44277D01*
X51416Y-44355D01*
X51392Y-44408D01*
X51369Y-44434D01*
X51321Y-44460D01*
X51130Y-44460D01*
X51607Y-44225D02*
X51630Y-44198D01*
X51678Y-44172D01*
X51797Y-44172D01*
X51845Y-44198D01*
X51869Y-44225D01*
X51892Y-44277D01*
X51892Y-44329D01*
X51869Y-44408D01*
X51583Y-44722D01*
X51892Y-44722D01*
X52142Y-42975D02*
X52166Y-42948D01*
X52214Y-42922D01*
X52333Y-42922D01*
X52380Y-42948D01*
X52404Y-42975D01*
X52428Y-43027D01*
X52428Y-43079D01*
X52404Y-43158D01*
X52119Y-43472D01*
X52428Y-43472D01*
X52738Y-42922D02*
X52785Y-42922D01*
X52833Y-42948D01*
X52857Y-42975D01*
X52880Y-43027D01*
X52904Y-43132D01*
X52904Y-43263D01*
X52880Y-43367D01*
X52857Y-43420D01*
X52833Y-43446D01*
X52785Y-43472D01*
X52738Y-43472D01*
X52690Y-43446D01*
X52666Y-43420D01*
X52642Y-43367D01*
X52619Y-43263D01*
X52619Y-43132D01*
X52642Y-43027D01*
X52666Y-42975D01*
X52690Y-42948D01*
X52738Y-42922D01*
X53214Y-42922D02*
X53261Y-42922D01*
X53309Y-42948D01*
X53333Y-42975D01*
X53357Y-43027D01*
X53380Y-43132D01*
X53380Y-43263D01*
X53357Y-43367D01*
X53333Y-43420D01*
X53309Y-43446D01*
X53261Y-43472D01*
X53214Y-43472D01*
X53166Y-43446D01*
X53142Y-43420D01*
X53119Y-43367D01*
X53095Y-43263D01*
X53095Y-43132D01*
X53119Y-43027D01*
X53142Y-42975D01*
X53166Y-42948D01*
X53214Y-42922D01*
X53690Y-42922D02*
X53738Y-42922D01*
X53785Y-42948D01*
X53809Y-42975D01*
X53833Y-43027D01*
X53857Y-43132D01*
X53857Y-43263D01*
X53833Y-43367D01*
X53809Y-43420D01*
X53785Y-43446D01*
X53738Y-43472D01*
X53690Y-43472D01*
X53642Y-43446D01*
X53619Y-43420D01*
X53595Y-43367D01*
X53571Y-43263D01*
X53571Y-43132D01*
X53595Y-43027D01*
X53619Y-42975D01*
X53642Y-42948D01*
X53690Y-42922D01*
X18941Y-54039D02*
X18925Y-54060D01*
X18875Y-54082D01*
X18841Y-54082D01*
X18791Y-54060D01*
X18758Y-54017D01*
X18741Y-53975D01*
X18725Y-53889D01*
X18725Y-53825D01*
X18741Y-53739D01*
X18758Y-53696D01*
X18791Y-53653D01*
X18841Y-53632D01*
X18875Y-53632D01*
X18925Y-53653D01*
X18941Y-53675D01*
X19241Y-53782D02*
X19241Y-54082D01*
X19158Y-53610D02*
X19075Y-53932D01*
X19291Y-53932D01*
X18250Y-54832D02*
X18466Y-54832D01*
X18350Y-55003D01*
X18400Y-55003D01*
X18433Y-55025D01*
X18450Y-55046D01*
X18466Y-55089D01*
X18466Y-55196D01*
X18450Y-55239D01*
X18433Y-55260D01*
X18400Y-55282D01*
X18300Y-55282D01*
X18266Y-55260D01*
X18250Y-55239D01*
X18633Y-55282D02*
X18700Y-55282D01*
X18733Y-55260D01*
X18750Y-55239D01*
X18783Y-55175D01*
X18800Y-55089D01*
X18800Y-54917D01*
X18783Y-54875D01*
X18766Y-54853D01*
X18733Y-54832D01*
X18666Y-54832D01*
X18633Y-54853D01*
X18616Y-54875D01*
X18600Y-54917D01*
X18600Y-55025D01*
X18616Y-55067D01*
X18633Y-55089D01*
X18666Y-55110D01*
X18733Y-55110D01*
X18766Y-55089D01*
X18783Y-55067D01*
X18800Y-55025D01*
X19216Y-54832D02*
X19216Y-55196D01*
X19233Y-55239D01*
X19250Y-55260D01*
X19283Y-55282D01*
X19350Y-55282D01*
X19383Y-55260D01*
X19400Y-55239D01*
X19416Y-55196D01*
X19416Y-54832D01*
X19700Y-55046D02*
X19583Y-55046D01*
X19583Y-55282D02*
X19583Y-54832D01*
X19750Y-54832D01*
G54D19*
X19828Y-54510D02*
X20171Y-54510D01*
X20000Y-54682D02*
X20000Y-54339D01*
G54D13*
G54D14*
X31941Y-54039D02*
X31925Y-54060D01*
X31875Y-54082D01*
X31841Y-54082D01*
X31791Y-54060D01*
X31758Y-54017D01*
X31741Y-53975D01*
X31725Y-53889D01*
X31725Y-53825D01*
X31741Y-53739D01*
X31758Y-53696D01*
X31791Y-53653D01*
X31841Y-53632D01*
X31875Y-53632D01*
X31925Y-53653D01*
X31941Y-53675D01*
X32258Y-53632D02*
X32091Y-53632D01*
X32075Y-53846D01*
X32091Y-53825D01*
X32125Y-53803D01*
X32208Y-53803D01*
X32241Y-53825D01*
X32258Y-53846D01*
X32275Y-53889D01*
X32275Y-53996D01*
X32258Y-54039D01*
X32241Y-54060D01*
X32208Y-54082D01*
X32125Y-54082D01*
X32091Y-54060D01*
X32075Y-54039D01*
X31250Y-54832D02*
X31466Y-54832D01*
X31350Y-55003D01*
X31400Y-55003D01*
X31433Y-55025D01*
X31450Y-55046D01*
X31466Y-55089D01*
X31466Y-55196D01*
X31450Y-55239D01*
X31433Y-55260D01*
X31400Y-55282D01*
X31300Y-55282D01*
X31266Y-55260D01*
X31250Y-55239D01*
X31633Y-55282D02*
X31700Y-55282D01*
X31733Y-55260D01*
X31750Y-55239D01*
X31783Y-55175D01*
X31800Y-55089D01*
X31800Y-54917D01*
X31783Y-54875D01*
X31766Y-54853D01*
X31733Y-54832D01*
X31666Y-54832D01*
X31633Y-54853D01*
X31616Y-54875D01*
X31600Y-54917D01*
X31600Y-55025D01*
X31616Y-55067D01*
X31633Y-55089D01*
X31666Y-55110D01*
X31733Y-55110D01*
X31766Y-55089D01*
X31783Y-55067D01*
X31800Y-55025D01*
X32216Y-54832D02*
X32216Y-55196D01*
X32233Y-55239D01*
X32250Y-55260D01*
X32283Y-55282D01*
X32350Y-55282D01*
X32383Y-55260D01*
X32400Y-55239D01*
X32416Y-55196D01*
X32416Y-54832D01*
X32700Y-55046D02*
X32583Y-55046D01*
X32583Y-55282D02*
X32583Y-54832D01*
X32750Y-54832D01*
G54D19*
X32828Y-54510D02*
X33171Y-54510D01*
X33000Y-54682D02*
X33000Y-54339D01*
G54D13*
G54D14*
X44941Y-50039D02*
X44925Y-50060D01*
X44875Y-50082D01*
X44841Y-50082D01*
X44791Y-50060D01*
X44758Y-50017D01*
X44741Y-49975D01*
X44725Y-49889D01*
X44725Y-49825D01*
X44741Y-49739D01*
X44758Y-49696D01*
X44791Y-49653D01*
X44841Y-49632D01*
X44875Y-49632D01*
X44925Y-49653D01*
X44941Y-49675D01*
X45058Y-49632D02*
X45275Y-49632D01*
X45158Y-49803D01*
X45208Y-49803D01*
X45241Y-49825D01*
X45258Y-49846D01*
X45275Y-49889D01*
X45275Y-49996D01*
X45258Y-50039D01*
X45241Y-50060D01*
X45208Y-50082D01*
X45108Y-50082D01*
X45075Y-50060D01*
X45058Y-50039D01*
X44100Y-50832D02*
X44133Y-50832D01*
X44166Y-50853D01*
X44183Y-50875D01*
X44200Y-50917D01*
X44216Y-51003D01*
X44216Y-51110D01*
X44200Y-51196D01*
X44183Y-51239D01*
X44166Y-51260D01*
X44133Y-51282D01*
X44100Y-51282D01*
X44066Y-51260D01*
X44050Y-51239D01*
X44033Y-51196D01*
X44016Y-51110D01*
X44016Y-51003D01*
X44033Y-50917D01*
X44050Y-50875D01*
X44066Y-50853D01*
X44100Y-50832D01*
X44366Y-51239D02*
X44383Y-51260D01*
X44366Y-51282D01*
X44350Y-51260D01*
X44366Y-51239D01*
X44366Y-51282D01*
X44683Y-50982D02*
X44683Y-51282D01*
X44600Y-50810D02*
X44516Y-51132D01*
X44733Y-51132D01*
X44833Y-50832D02*
X45066Y-50832D01*
X44916Y-51282D01*
X45466Y-50832D02*
X45466Y-51196D01*
X45483Y-51239D01*
X45500Y-51260D01*
X45533Y-51282D01*
X45600Y-51282D01*
X45633Y-51260D01*
X45650Y-51239D01*
X45666Y-51196D01*
X45666Y-50832D01*
X45950Y-51046D02*
X45833Y-51046D01*
X45833Y-51282D02*
X45833Y-50832D01*
X46000Y-50832D01*
G54D19*
X45828Y-50510D02*
X46171Y-50510D01*
X46000Y-50682D02*
X46000Y-50339D01*
G54D13*
G54D14*
X44941Y-54039D02*
X44925Y-54060D01*
X44875Y-54082D01*
X44841Y-54082D01*
X44791Y-54060D01*
X44758Y-54017D01*
X44741Y-53975D01*
X44725Y-53889D01*
X44725Y-53825D01*
X44741Y-53739D01*
X44758Y-53696D01*
X44791Y-53653D01*
X44841Y-53632D01*
X44875Y-53632D01*
X44925Y-53653D01*
X44941Y-53675D01*
X45241Y-53632D02*
X45175Y-53632D01*
X45141Y-53653D01*
X45125Y-53675D01*
X45091Y-53739D01*
X45075Y-53825D01*
X45075Y-53996D01*
X45091Y-54039D01*
X45108Y-54060D01*
X45141Y-54082D01*
X45208Y-54082D01*
X45241Y-54060D01*
X45258Y-54039D01*
X45275Y-53996D01*
X45275Y-53889D01*
X45258Y-53846D01*
X45241Y-53825D01*
X45208Y-53803D01*
X45141Y-53803D01*
X45108Y-53825D01*
X45091Y-53846D01*
X45075Y-53889D01*
X44250Y-54832D02*
X44466Y-54832D01*
X44350Y-55003D01*
X44400Y-55003D01*
X44433Y-55025D01*
X44450Y-55046D01*
X44466Y-55089D01*
X44466Y-55196D01*
X44450Y-55239D01*
X44433Y-55260D01*
X44400Y-55282D01*
X44300Y-55282D01*
X44266Y-55260D01*
X44250Y-55239D01*
X44633Y-55282D02*
X44700Y-55282D01*
X44733Y-55260D01*
X44750Y-55239D01*
X44783Y-55175D01*
X44800Y-55089D01*
X44800Y-54917D01*
X44783Y-54875D01*
X44766Y-54853D01*
X44733Y-54832D01*
X44666Y-54832D01*
X44633Y-54853D01*
X44616Y-54875D01*
X44600Y-54917D01*
X44600Y-55025D01*
X44616Y-55067D01*
X44633Y-55089D01*
X44666Y-55110D01*
X44733Y-55110D01*
X44766Y-55089D01*
X44783Y-55067D01*
X44800Y-55025D01*
X45216Y-54832D02*
X45216Y-55196D01*
X45233Y-55239D01*
X45250Y-55260D01*
X45283Y-55282D01*
X45350Y-55282D01*
X45383Y-55260D01*
X45400Y-55239D01*
X45416Y-55196D01*
X45416Y-54832D01*
X45700Y-55046D02*
X45583Y-55046D01*
X45583Y-55282D02*
X45583Y-54832D01*
X45750Y-54832D01*
G54D19*
X45828Y-54510D02*
X46171Y-54510D01*
X46000Y-54682D02*
X46000Y-54339D01*
G54D13*
G54D14*
X57941Y-54039D02*
X57925Y-54060D01*
X57875Y-54082D01*
X57841Y-54082D01*
X57791Y-54060D01*
X57758Y-54017D01*
X57741Y-53975D01*
X57725Y-53889D01*
X57725Y-53825D01*
X57741Y-53739D01*
X57758Y-53696D01*
X57791Y-53653D01*
X57841Y-53632D01*
X57875Y-53632D01*
X57925Y-53653D01*
X57941Y-53675D01*
X58058Y-53632D02*
X58291Y-53632D01*
X58141Y-54082D01*
X57250Y-54832D02*
X57466Y-54832D01*
X57350Y-55003D01*
X57400Y-55003D01*
X57433Y-55025D01*
X57450Y-55046D01*
X57466Y-55089D01*
X57466Y-55196D01*
X57450Y-55239D01*
X57433Y-55260D01*
X57400Y-55282D01*
X57300Y-55282D01*
X57266Y-55260D01*
X57250Y-55239D01*
X57633Y-55282D02*
X57700Y-55282D01*
X57733Y-55260D01*
X57750Y-55239D01*
X57783Y-55175D01*
X57800Y-55089D01*
X57800Y-54917D01*
X57783Y-54875D01*
X57766Y-54853D01*
X57733Y-54832D01*
X57666Y-54832D01*
X57633Y-54853D01*
X57616Y-54875D01*
X57600Y-54917D01*
X57600Y-55025D01*
X57616Y-55067D01*
X57633Y-55089D01*
X57666Y-55110D01*
X57733Y-55110D01*
X57766Y-55089D01*
X57783Y-55067D01*
X57800Y-55025D01*
X58216Y-54832D02*
X58216Y-55196D01*
X58233Y-55239D01*
X58250Y-55260D01*
X58283Y-55282D01*
X58350Y-55282D01*
X58383Y-55260D01*
X58400Y-55239D01*
X58416Y-55196D01*
X58416Y-54832D01*
X58700Y-55046D02*
X58583Y-55046D01*
X58583Y-55282D02*
X58583Y-54832D01*
X58750Y-54832D01*
G54D19*
X58828Y-54510D02*
X59171Y-54510D01*
X59000Y-54682D02*
X59000Y-54339D01*
G54D13*
G54D14*
X70941Y-54039D02*
X70925Y-54060D01*
X70875Y-54082D01*
X70841Y-54082D01*
X70791Y-54060D01*
X70758Y-54017D01*
X70741Y-53975D01*
X70725Y-53889D01*
X70725Y-53825D01*
X70741Y-53739D01*
X70758Y-53696D01*
X70791Y-53653D01*
X70841Y-53632D01*
X70875Y-53632D01*
X70925Y-53653D01*
X70941Y-53675D01*
X71141Y-53825D02*
X71108Y-53803D01*
X71091Y-53782D01*
X71075Y-53739D01*
X71075Y-53717D01*
X71091Y-53675D01*
X71108Y-53653D01*
X71141Y-53632D01*
X71208Y-53632D01*
X71241Y-53653D01*
X71258Y-53675D01*
X71275Y-53717D01*
X71275Y-53739D01*
X71258Y-53782D01*
X71241Y-53803D01*
X71208Y-53825D01*
X71141Y-53825D01*
X71108Y-53846D01*
X71091Y-53867D01*
X71075Y-53910D01*
X71075Y-53996D01*
X71091Y-54039D01*
X71108Y-54060D01*
X71141Y-54082D01*
X71208Y-54082D01*
X71241Y-54060D01*
X71258Y-54039D01*
X71275Y-53996D01*
X71275Y-53910D01*
X71258Y-53867D01*
X71241Y-53846D01*
X71208Y-53825D01*
X70250Y-54832D02*
X70466Y-54832D01*
X70350Y-55003D01*
X70400Y-55003D01*
X70433Y-55025D01*
X70450Y-55046D01*
X70466Y-55089D01*
X70466Y-55196D01*
X70450Y-55239D01*
X70433Y-55260D01*
X70400Y-55282D01*
X70300Y-55282D01*
X70266Y-55260D01*
X70250Y-55239D01*
X70633Y-55282D02*
X70700Y-55282D01*
X70733Y-55260D01*
X70750Y-55239D01*
X70783Y-55175D01*
X70800Y-55089D01*
X70800Y-54917D01*
X70783Y-54875D01*
X70766Y-54853D01*
X70733Y-54832D01*
X70666Y-54832D01*
X70633Y-54853D01*
X70616Y-54875D01*
X70600Y-54917D01*
X70600Y-55025D01*
X70616Y-55067D01*
X70633Y-55089D01*
X70666Y-55110D01*
X70733Y-55110D01*
X70766Y-55089D01*
X70783Y-55067D01*
X70800Y-55025D01*
X71216Y-54832D02*
X71216Y-55196D01*
X71233Y-55239D01*
X71250Y-55260D01*
X71283Y-55282D01*
X71350Y-55282D01*
X71383Y-55260D01*
X71400Y-55239D01*
X71416Y-55196D01*
X71416Y-54832D01*
X71700Y-55046D02*
X71583Y-55046D01*
X71583Y-55282D02*
X71583Y-54832D01*
X71750Y-54832D01*
G54D19*
X71828Y-54510D02*
X72171Y-54510D01*
X72000Y-54682D02*
X72000Y-54339D01*
G54D13*
G54D14*
X47941Y-44239D02*
X47925Y-44260D01*
X47875Y-44282D01*
X47841Y-44282D01*
X47791Y-44260D01*
X47758Y-44217D01*
X47741Y-44175D01*
X47725Y-44089D01*
X47725Y-44025D01*
X47741Y-43939D01*
X47758Y-43896D01*
X47791Y-43853D01*
X47841Y-43832D01*
X47875Y-43832D01*
X47925Y-43853D01*
X47941Y-43875D01*
X48075Y-43875D02*
X48091Y-43853D01*
X48125Y-43832D01*
X48208Y-43832D01*
X48241Y-43853D01*
X48258Y-43875D01*
X48275Y-43917D01*
X48275Y-43960D01*
X48258Y-44025D01*
X48058Y-44282D01*
X48275Y-44282D01*
X47250Y-42632D02*
X47466Y-42632D01*
X47350Y-42803D01*
X47400Y-42803D01*
X47433Y-42825D01*
X47450Y-42846D01*
X47466Y-42889D01*
X47466Y-42996D01*
X47450Y-43039D01*
X47433Y-43060D01*
X47400Y-43082D01*
X47300Y-43082D01*
X47266Y-43060D01*
X47250Y-43039D01*
X47633Y-43082D02*
X47700Y-43082D01*
X47733Y-43060D01*
X47750Y-43039D01*
X47783Y-42975D01*
X47800Y-42889D01*
X47800Y-42717D01*
X47783Y-42675D01*
X47766Y-42653D01*
X47733Y-42632D01*
X47666Y-42632D01*
X47633Y-42653D01*
X47616Y-42675D01*
X47600Y-42717D01*
X47600Y-42825D01*
X47616Y-42867D01*
X47633Y-42889D01*
X47666Y-42910D01*
X47733Y-42910D01*
X47766Y-42889D01*
X47783Y-42867D01*
X47800Y-42825D01*
X48216Y-42632D02*
X48216Y-42996D01*
X48233Y-43039D01*
X48250Y-43060D01*
X48283Y-43082D01*
X48350Y-43082D01*
X48383Y-43060D01*
X48400Y-43039D01*
X48416Y-42996D01*
X48416Y-42632D01*
X48700Y-42846D02*
X48583Y-42846D01*
X48583Y-43082D02*
X48583Y-42632D01*
X48750Y-42632D01*
G54D19*
X46828Y-43510D02*
X47171Y-43510D01*
X47000Y-43682D02*
X47000Y-43339D01*
G54D13*
G54D14*
X57941Y-43039D02*
X57925Y-43060D01*
X57875Y-43082D01*
X57841Y-43082D01*
X57791Y-43060D01*
X57758Y-43017D01*
X57741Y-42975D01*
X57725Y-42889D01*
X57725Y-42825D01*
X57741Y-42739D01*
X57758Y-42696D01*
X57791Y-42653D01*
X57841Y-42632D01*
X57875Y-42632D01*
X57925Y-42653D01*
X57941Y-42675D01*
X58275Y-43082D02*
X58075Y-43082D01*
X58175Y-43082D02*
X58175Y-42632D01*
X58141Y-42696D01*
X58108Y-42739D01*
X58075Y-42760D01*
X57250Y-43832D02*
X57466Y-43832D01*
X57350Y-44003D01*
X57400Y-44003D01*
X57433Y-44025D01*
X57450Y-44046D01*
X57466Y-44089D01*
X57466Y-44196D01*
X57450Y-44239D01*
X57433Y-44260D01*
X57400Y-44282D01*
X57300Y-44282D01*
X57266Y-44260D01*
X57250Y-44239D01*
X57633Y-44282D02*
X57700Y-44282D01*
X57733Y-44260D01*
X57750Y-44239D01*
X57783Y-44175D01*
X57800Y-44089D01*
X57800Y-43917D01*
X57783Y-43875D01*
X57766Y-43853D01*
X57733Y-43832D01*
X57666Y-43832D01*
X57633Y-43853D01*
X57616Y-43875D01*
X57600Y-43917D01*
X57600Y-44025D01*
X57616Y-44067D01*
X57633Y-44089D01*
X57666Y-44110D01*
X57733Y-44110D01*
X57766Y-44089D01*
X57783Y-44067D01*
X57800Y-44025D01*
X58216Y-43832D02*
X58216Y-44196D01*
X58233Y-44239D01*
X58250Y-44260D01*
X58283Y-44282D01*
X58350Y-44282D01*
X58383Y-44260D01*
X58400Y-44239D01*
X58416Y-44196D01*
X58416Y-43832D01*
X58700Y-44046D02*
X58583Y-44046D01*
X58583Y-44282D02*
X58583Y-43832D01*
X58750Y-43832D01*
G54D19*
X58828Y-43510D02*
X59171Y-43510D01*
X59000Y-43682D02*
X59000Y-43339D01*
G54D13*
G54D14*
X91966Y-40842D02*
X92023Y-40861D01*
X92119Y-40861D01*
X92157Y-40842D01*
X92176Y-40823D01*
X92195Y-40785D01*
X92195Y-40747D01*
X92176Y-40709D01*
X92157Y-40690D01*
X92119Y-40671D01*
X92042Y-40652D01*
X92004Y-40633D01*
X91985Y-40614D01*
X91966Y-40576D01*
X91966Y-40538D01*
X91985Y-40500D01*
X92004Y-40480D01*
X92042Y-40461D01*
X92138Y-40461D01*
X92195Y-40480D01*
X92328Y-40461D02*
X92423Y-40861D01*
X92500Y-40576D01*
X92576Y-40861D01*
X92671Y-40461D01*
X93033Y-40861D02*
X92804Y-40861D01*
X92919Y-40861D02*
X92919Y-40461D01*
X92880Y-40519D01*
X92842Y-40557D01*
X92804Y-40576D01*
X91195Y-41542D02*
X91252Y-41561D01*
X91347Y-41561D01*
X91385Y-41542D01*
X91404Y-41523D01*
X91423Y-41485D01*
X91423Y-41447D01*
X91404Y-41409D01*
X91385Y-41390D01*
X91347Y-41371D01*
X91271Y-41352D01*
X91233Y-41333D01*
X91214Y-41314D01*
X91195Y-41276D01*
X91195Y-41238D01*
X91214Y-41200D01*
X91233Y-41180D01*
X91271Y-41161D01*
X91366Y-41161D01*
X91423Y-41180D01*
X91557Y-41161D02*
X91652Y-41561D01*
X91728Y-41276D01*
X91804Y-41561D01*
X91900Y-41161D01*
X91957Y-41600D02*
X92261Y-41600D01*
X92357Y-41561D02*
X92357Y-41161D01*
X92509Y-41161D01*
X92547Y-41180D01*
X92566Y-41200D01*
X92585Y-41238D01*
X92585Y-41295D01*
X92566Y-41333D01*
X92547Y-41352D01*
X92509Y-41371D01*
X92357Y-41371D01*
X92757Y-41161D02*
X92757Y-41485D01*
X92776Y-41523D01*
X92795Y-41542D01*
X92833Y-41561D01*
X92909Y-41561D01*
X92947Y-41542D01*
X92966Y-41523D01*
X92985Y-41485D01*
X92985Y-41161D01*
X93157Y-41542D02*
X93214Y-41561D01*
X93309Y-41561D01*
X93347Y-41542D01*
X93366Y-41523D01*
X93385Y-41485D01*
X93385Y-41447D01*
X93366Y-41409D01*
X93347Y-41390D01*
X93309Y-41371D01*
X93233Y-41352D01*
X93195Y-41333D01*
X93176Y-41314D01*
X93157Y-41276D01*
X93157Y-41238D01*
X93176Y-41200D01*
X93195Y-41180D01*
X93233Y-41161D01*
X93328Y-41161D01*
X93385Y-41180D01*
X93557Y-41561D02*
X93557Y-41161D01*
X93557Y-41352D02*
X93785Y-41352D01*
X93785Y-41561D02*
X93785Y-41161D01*
G54D18*
X107443Y-46844D02*
X107443Y-47331D01*
X107422Y-47428D01*
X107382Y-47493D01*
X107321Y-47525D01*
X107280Y-47525D01*
X107647Y-47525D02*
X107647Y-46844D01*
X107810Y-46844D01*
X107850Y-46877D01*
X107871Y-46909D01*
X107891Y-46974D01*
X107891Y-47071D01*
X107871Y-47136D01*
X107850Y-47168D01*
X107810Y-47201D01*
X107647Y-47201D01*
X108258Y-47071D02*
X108258Y-47525D01*
X108156Y-46812D02*
X108054Y-47298D01*
X108319Y-47298D01*
G54D13*
G54D18*
X107443Y-45344D02*
X107443Y-45831D01*
X107422Y-45928D01*
X107382Y-45993D01*
X107321Y-46025D01*
X107280Y-46025D01*
X107647Y-46025D02*
X107647Y-45344D01*
X107810Y-45344D01*
X107850Y-45377D01*
X107871Y-45409D01*
X107891Y-45474D01*
X107891Y-45571D01*
X107871Y-45636D01*
X107850Y-45668D01*
X107810Y-45701D01*
X107647Y-45701D01*
X108278Y-45344D02*
X108075Y-45344D01*
X108054Y-45668D01*
X108075Y-45636D01*
X108115Y-45604D01*
X108217Y-45604D01*
X108258Y-45636D01*
X108278Y-45668D01*
X108299Y-45733D01*
X108299Y-45895D01*
X108278Y-45960D01*
X108258Y-45993D01*
X108217Y-46025D01*
X108115Y-46025D01*
X108075Y-45993D01*
X108054Y-45960D01*
G54D13*
G54D14*
X95122Y-48092D02*
X95122Y-47783D01*
X95332Y-47950D01*
X95332Y-47878D01*
X95358Y-47830D01*
X95384Y-47807D01*
X95436Y-47783D01*
X95567Y-47783D01*
X95620Y-47807D01*
X95646Y-47830D01*
X95672Y-47878D01*
X95672Y-48021D01*
X95646Y-48069D01*
X95620Y-48092D01*
X95122Y-47616D02*
X95122Y-47307D01*
X95332Y-47473D01*
X95332Y-47402D01*
X95358Y-47354D01*
X95384Y-47330D01*
X95436Y-47307D01*
X95567Y-47307D01*
X95620Y-47330D01*
X95646Y-47354D01*
X95672Y-47402D01*
X95672Y-47545D01*
X95646Y-47592D01*
X95620Y-47616D01*
X95122Y-46997D02*
X95122Y-46950D01*
X95148Y-46902D01*
X95175Y-46878D01*
X95227Y-46854D01*
X95332Y-46830D01*
X95463Y-46830D01*
X95567Y-46854D01*
X95620Y-46878D01*
X95646Y-46902D01*
X95672Y-46950D01*
X95672Y-46997D01*
X95646Y-47045D01*
X95620Y-47069D01*
X95567Y-47092D01*
X95463Y-47116D01*
X95332Y-47116D01*
X95227Y-47092D01*
X95175Y-47069D01*
X95148Y-47045D01*
X95122Y-46997D01*
X85872Y-47557D02*
X85872Y-47842D01*
X85872Y-47700D02*
X85322Y-47700D01*
X85401Y-47747D01*
X85453Y-47795D01*
X85479Y-47842D01*
X85872Y-47342D02*
X85322Y-47342D01*
X85872Y-47057D02*
X85558Y-47271D01*
X85322Y-47057D02*
X85636Y-47342D01*
X86372Y-48092D02*
X86372Y-47783D01*
X86582Y-47950D01*
X86582Y-47878D01*
X86608Y-47830D01*
X86634Y-47807D01*
X86686Y-47783D01*
X86817Y-47783D01*
X86870Y-47807D01*
X86896Y-47830D01*
X86922Y-47878D01*
X86922Y-48021D01*
X86896Y-48069D01*
X86870Y-48092D01*
X86372Y-47616D02*
X86372Y-47307D01*
X86582Y-47473D01*
X86582Y-47402D01*
X86608Y-47354D01*
X86634Y-47330D01*
X86686Y-47307D01*
X86817Y-47307D01*
X86870Y-47330D01*
X86896Y-47354D01*
X86922Y-47402D01*
X86922Y-47545D01*
X86896Y-47592D01*
X86870Y-47616D01*
X86372Y-46997D02*
X86372Y-46950D01*
X86398Y-46902D01*
X86425Y-46878D01*
X86477Y-46854D01*
X86582Y-46830D01*
X86713Y-46830D01*
X86817Y-46854D01*
X86870Y-46878D01*
X86896Y-46902D01*
X86922Y-46950D01*
X86922Y-46997D01*
X86896Y-47045D01*
X86870Y-47069D01*
X86817Y-47092D01*
X86713Y-47116D01*
X86582Y-47116D01*
X86477Y-47092D01*
X86425Y-47069D01*
X86398Y-47045D01*
X86372Y-46997D01*
X89672Y-47795D02*
X89672Y-48080D01*
X89672Y-47938D02*
X89122Y-47938D01*
X89201Y-47985D01*
X89253Y-48033D01*
X89279Y-48080D01*
X89122Y-47485D02*
X89122Y-47438D01*
X89148Y-47390D01*
X89175Y-47366D01*
X89227Y-47342D01*
X89332Y-47319D01*
X89463Y-47319D01*
X89567Y-47342D01*
X89620Y-47366D01*
X89646Y-47390D01*
X89672Y-47438D01*
X89672Y-47485D01*
X89646Y-47533D01*
X89620Y-47557D01*
X89567Y-47580D01*
X89463Y-47604D01*
X89332Y-47604D01*
X89227Y-47580D01*
X89175Y-47557D01*
X89148Y-47533D01*
X89122Y-47485D01*
X89672Y-47104D02*
X89122Y-47104D01*
X89672Y-46819D02*
X89358Y-47033D01*
X89122Y-46819D02*
X89436Y-47104D01*
X92822Y-47557D02*
X92822Y-47842D01*
X92822Y-47700D02*
X92272Y-47700D01*
X92351Y-47747D01*
X92403Y-47795D01*
X92429Y-47842D01*
X92822Y-47342D02*
X92272Y-47342D01*
X92822Y-47057D02*
X92508Y-47271D01*
X92272Y-47057D02*
X92586Y-47342D01*
X91872Y-47545D02*
X91872Y-47830D01*
X91872Y-47688D02*
X91322Y-47688D01*
X91401Y-47735D01*
X91453Y-47783D01*
X91479Y-47830D01*
X91322Y-47235D02*
X91322Y-47188D01*
X91348Y-47140D01*
X91375Y-47116D01*
X91427Y-47092D01*
X91532Y-47069D01*
X91663Y-47069D01*
X91767Y-47092D01*
X91820Y-47116D01*
X91846Y-47140D01*
X91872Y-47188D01*
X91872Y-47235D01*
X91846Y-47283D01*
X91820Y-47307D01*
X91767Y-47330D01*
X91663Y-47354D01*
X91532Y-47354D01*
X91427Y-47330D01*
X91375Y-47307D01*
X91348Y-47283D01*
X91322Y-47235D01*
X93222Y-48092D02*
X93222Y-47783D01*
X93432Y-47950D01*
X93432Y-47878D01*
X93458Y-47830D01*
X93484Y-47807D01*
X93536Y-47783D01*
X93667Y-47783D01*
X93720Y-47807D01*
X93746Y-47830D01*
X93772Y-47878D01*
X93772Y-48021D01*
X93746Y-48069D01*
X93720Y-48092D01*
X93222Y-47616D02*
X93222Y-47307D01*
X93432Y-47473D01*
X93432Y-47402D01*
X93458Y-47354D01*
X93484Y-47330D01*
X93536Y-47307D01*
X93667Y-47307D01*
X93720Y-47330D01*
X93746Y-47354D01*
X93772Y-47402D01*
X93772Y-47545D01*
X93746Y-47592D01*
X93720Y-47616D01*
X93222Y-46997D02*
X93222Y-46950D01*
X93248Y-46902D01*
X93275Y-46878D01*
X93327Y-46854D01*
X93432Y-46830D01*
X93563Y-46830D01*
X93667Y-46854D01*
X93720Y-46878D01*
X93746Y-46902D01*
X93772Y-46950D01*
X93772Y-46997D01*
X93746Y-47045D01*
X93720Y-47069D01*
X93667Y-47092D01*
X93563Y-47116D01*
X93432Y-47116D01*
X93327Y-47092D01*
X93275Y-47069D01*
X93248Y-47045D01*
X93222Y-46997D01*
X94722Y-47557D02*
X94722Y-47842D01*
X94722Y-47700D02*
X94172Y-47700D01*
X94251Y-47747D01*
X94303Y-47795D01*
X94329Y-47842D01*
X94722Y-47342D02*
X94172Y-47342D01*
X94722Y-47057D02*
X94408Y-47271D01*
X94172Y-47057D02*
X94486Y-47342D01*
G54D19*
X93257Y-54092D02*
X93257Y-54578D01*
X93278Y-54635D01*
X93300Y-54664D01*
X93342Y-54692D01*
X93428Y-54692D01*
X93471Y-54664D01*
X93492Y-54635D01*
X93514Y-54578D01*
X93514Y-54092D01*
X93707Y-54150D02*
X93728Y-54121D01*
X93771Y-54092D01*
X93878Y-54092D01*
X93921Y-54121D01*
X93942Y-54150D01*
X93964Y-54207D01*
X93964Y-54264D01*
X93942Y-54350D01*
X93685Y-54692D01*
X93964Y-54692D01*
G54D13*
G54D19*
X94910Y-55092D02*
X95210Y-55092D01*
X95017Y-55692D01*
X95575Y-55292D02*
X95575Y-55692D01*
X95467Y-55064D02*
X95360Y-55492D01*
X95639Y-55492D01*
X96025Y-55692D02*
X95810Y-55692D01*
X95810Y-55092D01*
X96153Y-55664D02*
X96217Y-55692D01*
X96325Y-55692D01*
X96367Y-55664D01*
X96389Y-55635D01*
X96410Y-55578D01*
X96410Y-55521D01*
X96389Y-55464D01*
X96367Y-55435D01*
X96325Y-55407D01*
X96239Y-55378D01*
X96196Y-55350D01*
X96175Y-55321D01*
X96153Y-55264D01*
X96153Y-55207D01*
X96175Y-55150D01*
X96196Y-55121D01*
X96239Y-55092D01*
X96346Y-55092D01*
X96410Y-55121D01*
X96689Y-55092D02*
X96732Y-55092D01*
X96775Y-55121D01*
X96796Y-55150D01*
X96817Y-55207D01*
X96839Y-55321D01*
X96839Y-55464D01*
X96817Y-55578D01*
X96796Y-55635D01*
X96775Y-55664D01*
X96732Y-55692D01*
X96689Y-55692D01*
X96646Y-55664D01*
X96625Y-55635D01*
X96603Y-55578D01*
X96582Y-55464D01*
X96582Y-55321D01*
X96603Y-55207D01*
X96625Y-55150D01*
X96646Y-55121D01*
X96689Y-55092D01*
X97225Y-55292D02*
X97225Y-55692D01*
X97117Y-55064D02*
X97010Y-55492D01*
X97289Y-55492D01*
G54D13*
G54D14*
X90711Y-47745D02*
X90311Y-47745D01*
X90311Y-47649D01*
X90330Y-47592D01*
X90369Y-47554D01*
X90407Y-47535D01*
X90483Y-47516D01*
X90540Y-47516D01*
X90616Y-47535D01*
X90654Y-47554D01*
X90692Y-47592D01*
X90711Y-47649D01*
X90711Y-47745D01*
X90350Y-47364D02*
X90330Y-47345D01*
X90311Y-47307D01*
X90311Y-47211D01*
X90330Y-47173D01*
X90350Y-47154D01*
X90388Y-47135D01*
X90426Y-47135D01*
X90483Y-47154D01*
X90711Y-47383D01*
X90711Y-47135D01*
X22575Y-51189D02*
X22558Y-51210D01*
X22508Y-51232D01*
X22475Y-51232D01*
X22425Y-51210D01*
X22391Y-51167D01*
X22375Y-51125D01*
X22358Y-51039D01*
X22358Y-50975D01*
X22375Y-50889D01*
X22391Y-50846D01*
X22425Y-50803D01*
X22475Y-50782D01*
X22508Y-50782D01*
X22558Y-50803D01*
X22575Y-50825D01*
X22908Y-51232D02*
X22708Y-51232D01*
X22808Y-51232D02*
X22808Y-50782D01*
X22775Y-50846D01*
X22741Y-50889D01*
X22708Y-50910D01*
X23125Y-50782D02*
X23158Y-50782D01*
X23191Y-50803D01*
X23208Y-50825D01*
X23225Y-50867D01*
X23241Y-50953D01*
X23241Y-51060D01*
X23225Y-51146D01*
X23208Y-51189D01*
X23191Y-51210D01*
X23158Y-51232D01*
X23125Y-51232D01*
X23091Y-51210D01*
X23075Y-51189D01*
X23058Y-51146D01*
X23041Y-51060D01*
X23041Y-50953D01*
X23058Y-50867D01*
X23075Y-50825D01*
X23091Y-50803D01*
X23125Y-50782D01*
X22091Y-49582D02*
X22125Y-49582D01*
X22158Y-49603D01*
X22175Y-49625D01*
X22191Y-49667D01*
X22208Y-49753D01*
X22208Y-49860D01*
X22191Y-49946D01*
X22175Y-49989D01*
X22158Y-50010D01*
X22125Y-50032D01*
X22091Y-50032D01*
X22058Y-50010D01*
X22041Y-49989D01*
X22025Y-49946D01*
X22008Y-49860D01*
X22008Y-49753D01*
X22025Y-49667D01*
X22041Y-49625D01*
X22058Y-49603D01*
X22091Y-49582D01*
X22358Y-49989D02*
X22375Y-50010D01*
X22358Y-50032D01*
X22341Y-50010D01*
X22358Y-49989D01*
X22358Y-50032D01*
X22708Y-50032D02*
X22508Y-50032D01*
X22608Y-50032D02*
X22608Y-49582D01*
X22575Y-49646D01*
X22541Y-49689D01*
X22508Y-49710D01*
X23275Y-49732D02*
X23275Y-50032D01*
X23125Y-49732D02*
X23125Y-49967D01*
X23141Y-50010D01*
X23175Y-50032D01*
X23225Y-50032D01*
X23258Y-50010D01*
X23275Y-49989D01*
X23558Y-49796D02*
X23441Y-49796D01*
X23441Y-50032D02*
X23441Y-49582D01*
X23608Y-49582D01*
G54D19*
X21628Y-50460D02*
X21971Y-50460D01*
X21800Y-50632D02*
X21800Y-50289D01*
G54D13*
G54D14*
X15041Y-54039D02*
X15025Y-54060D01*
X14975Y-54082D01*
X14941Y-54082D01*
X14891Y-54060D01*
X14858Y-54017D01*
X14841Y-53975D01*
X14825Y-53889D01*
X14825Y-53825D01*
X14841Y-53739D01*
X14858Y-53696D01*
X14891Y-53653D01*
X14941Y-53632D01*
X14975Y-53632D01*
X15025Y-53653D01*
X15041Y-53675D01*
X15208Y-54082D02*
X15275Y-54082D01*
X15308Y-54060D01*
X15325Y-54039D01*
X15358Y-53975D01*
X15375Y-53889D01*
X15375Y-53717D01*
X15358Y-53675D01*
X15341Y-53653D01*
X15308Y-53632D01*
X15241Y-53632D01*
X15208Y-53653D01*
X15191Y-53675D01*
X15175Y-53717D01*
X15175Y-53825D01*
X15191Y-53867D01*
X15208Y-53889D01*
X15241Y-53910D01*
X15308Y-53910D01*
X15341Y-53889D01*
X15358Y-53867D01*
X15375Y-53825D01*
X14558Y-54982D02*
X14558Y-55282D01*
X14475Y-54810D02*
X14391Y-55132D01*
X14608Y-55132D01*
X14708Y-54832D02*
X14941Y-54832D01*
X14791Y-55282D01*
X15491Y-54982D02*
X15491Y-55282D01*
X15341Y-54982D02*
X15341Y-55217D01*
X15358Y-55260D01*
X15391Y-55282D01*
X15441Y-55282D01*
X15475Y-55260D01*
X15491Y-55239D01*
X15775Y-55046D02*
X15658Y-55046D01*
X15658Y-55282D02*
X15658Y-54832D01*
X15825Y-54832D01*
G54D19*
X15928Y-54510D02*
X16271Y-54510D01*
X16100Y-54682D02*
X16100Y-54339D01*
G54D13*
G54D14*
X22575Y-48289D02*
X22558Y-48310D01*
X22508Y-48332D01*
X22475Y-48332D01*
X22425Y-48310D01*
X22391Y-48267D01*
X22375Y-48225D01*
X22358Y-48139D01*
X22358Y-48075D01*
X22375Y-47989D01*
X22391Y-47946D01*
X22425Y-47903D01*
X22475Y-47882D01*
X22508Y-47882D01*
X22558Y-47903D01*
X22575Y-47925D01*
X22908Y-48332D02*
X22708Y-48332D01*
X22808Y-48332D02*
X22808Y-47882D01*
X22775Y-47946D01*
X22741Y-47989D01*
X22708Y-48010D01*
X23241Y-48332D02*
X23041Y-48332D01*
X23141Y-48332D02*
X23141Y-47882D01*
X23108Y-47946D01*
X23075Y-47989D01*
X23041Y-48010D01*
X21758Y-46682D02*
X21791Y-46682D01*
X21825Y-46703D01*
X21841Y-46725D01*
X21858Y-46767D01*
X21875Y-46853D01*
X21875Y-46960D01*
X21858Y-47046D01*
X21841Y-47089D01*
X21825Y-47110D01*
X21791Y-47132D01*
X21758Y-47132D01*
X21725Y-47110D01*
X21708Y-47089D01*
X21691Y-47046D01*
X21675Y-46960D01*
X21675Y-46853D01*
X21691Y-46767D01*
X21708Y-46725D01*
X21725Y-46703D01*
X21758Y-46682D01*
X22025Y-47089D02*
X22041Y-47110D01*
X22025Y-47132D01*
X22008Y-47110D01*
X22025Y-47089D01*
X22025Y-47132D01*
X22258Y-46682D02*
X22291Y-46682D01*
X22325Y-46703D01*
X22341Y-46725D01*
X22358Y-46767D01*
X22375Y-46853D01*
X22375Y-46960D01*
X22358Y-47046D01*
X22341Y-47089D01*
X22325Y-47110D01*
X22291Y-47132D01*
X22258Y-47132D01*
X22225Y-47110D01*
X22208Y-47089D01*
X22191Y-47046D01*
X22175Y-46960D01*
X22175Y-46853D01*
X22191Y-46767D01*
X22208Y-46725D01*
X22225Y-46703D01*
X22258Y-46682D01*
X22508Y-46725D02*
X22525Y-46703D01*
X22558Y-46682D01*
X22641Y-46682D01*
X22675Y-46703D01*
X22691Y-46725D01*
X22708Y-46767D01*
X22708Y-46810D01*
X22691Y-46875D01*
X22491Y-47132D01*
X22708Y-47132D01*
X22841Y-46725D02*
X22858Y-46703D01*
X22891Y-46682D01*
X22975Y-46682D01*
X23008Y-46703D01*
X23025Y-46725D01*
X23041Y-46767D01*
X23041Y-46810D01*
X23025Y-46875D01*
X22825Y-47132D01*
X23041Y-47132D01*
X23608Y-46832D02*
X23608Y-47132D01*
X23458Y-46832D02*
X23458Y-47067D01*
X23475Y-47110D01*
X23508Y-47132D01*
X23558Y-47132D01*
X23591Y-47110D01*
X23608Y-47089D01*
X23891Y-46896D02*
X23775Y-46896D01*
X23775Y-47132D02*
X23775Y-46682D01*
X23941Y-46682D01*
G54D19*
X21628Y-47560D02*
X21971Y-47560D01*
X21800Y-47732D02*
X21800Y-47389D01*
G54D13*
G54D14*
X91975Y-51689D02*
X91958Y-51710D01*
X91908Y-51732D01*
X91875Y-51732D01*
X91825Y-51710D01*
X91791Y-51667D01*
X91775Y-51625D01*
X91758Y-51539D01*
X91758Y-51475D01*
X91775Y-51389D01*
X91791Y-51346D01*
X91825Y-51303D01*
X91875Y-51282D01*
X91908Y-51282D01*
X91958Y-51303D01*
X91975Y-51325D01*
X92308Y-51732D02*
X92108Y-51732D01*
X92208Y-51732D02*
X92208Y-51282D01*
X92175Y-51346D01*
X92141Y-51389D01*
X92108Y-51410D01*
X92441Y-51325D02*
X92458Y-51303D01*
X92491Y-51282D01*
X92575Y-51282D01*
X92608Y-51303D01*
X92625Y-51325D01*
X92641Y-51367D01*
X92641Y-51410D01*
X92625Y-51475D01*
X92425Y-51732D01*
X92641Y-51732D01*
X91825Y-50532D02*
X91625Y-50532D01*
X91725Y-50532D02*
X91725Y-50082D01*
X91691Y-50146D01*
X91658Y-50189D01*
X91625Y-50210D01*
X92041Y-50082D02*
X92075Y-50082D01*
X92108Y-50103D01*
X92125Y-50125D01*
X92141Y-50167D01*
X92158Y-50253D01*
X92158Y-50360D01*
X92141Y-50446D01*
X92125Y-50489D01*
X92108Y-50510D01*
X92075Y-50532D01*
X92041Y-50532D01*
X92008Y-50510D01*
X91991Y-50489D01*
X91975Y-50446D01*
X91958Y-50360D01*
X91958Y-50253D01*
X91975Y-50167D01*
X91991Y-50125D01*
X92008Y-50103D01*
X92041Y-50082D01*
X92458Y-50232D02*
X92458Y-50532D01*
X92308Y-50232D02*
X92308Y-50467D01*
X92325Y-50510D01*
X92358Y-50532D01*
X92408Y-50532D01*
X92441Y-50510D01*
X92458Y-50489D01*
X92741Y-50296D02*
X92625Y-50296D01*
X92625Y-50532D02*
X92625Y-50082D01*
X92791Y-50082D01*
G54D19*
X91028Y-50960D02*
X91371Y-50960D01*
X91200Y-51132D02*
X91200Y-50789D01*
G54D13*
G54D14*
X15761Y-49354D02*
X16085Y-49354D01*
X16123Y-49335D01*
X16142Y-49316D01*
X16161Y-49278D01*
X16161Y-49202D01*
X16142Y-49164D01*
X16123Y-49145D01*
X16085Y-49126D01*
X15761Y-49126D01*
X16161Y-48726D02*
X16161Y-48954D01*
X16161Y-48840D02*
X15761Y-48840D01*
X15819Y-48878D01*
X15857Y-48916D01*
X15876Y-48954D01*
X-38Y-50483D02*
X-38Y-50673D01*
X-438Y-50673D01*
X-38Y-50349D02*
X-438Y-50349D01*
X-438Y-50254D01*
X-419Y-50197D01*
X-380Y-50159D01*
X-342Y-50140D01*
X-266Y-50121D01*
X-209Y-50121D01*
X-133Y-50140D01*
X-95Y-50159D01*
X-57Y-50197D01*
X-38Y-50254D01*
X-38Y-50349D01*
X-438Y-49873D02*
X-438Y-49797D01*
X-419Y-49759D01*
X-380Y-49721D01*
X-304Y-49702D01*
X-171Y-49702D01*
X-95Y-49721D01*
X-57Y-49759D01*
X-38Y-49797D01*
X-38Y-49873D01*
X-57Y-49911D01*
X-95Y-49949D01*
X-171Y-49969D01*
X-304Y-49969D01*
X-380Y-49949D01*
X-419Y-49911D01*
X-438Y-49873D01*
X0Y-49626D02*
X0Y-49321D01*
X-38Y-48997D02*
X-228Y-49130D01*
X-38Y-49226D02*
X-438Y-49226D01*
X-438Y-49073D01*
X-419Y-49035D01*
X-400Y-49016D01*
X-361Y-48997D01*
X-304Y-48997D01*
X-266Y-49016D01*
X-247Y-49035D01*
X-228Y-49073D01*
X-228Y-49226D01*
X-247Y-48826D02*
X-247Y-48692D01*
X-38Y-48635D02*
X-38Y-48826D01*
X-438Y-48826D01*
X-438Y-48635D01*
X-419Y-48254D02*
X-438Y-48292D01*
X-438Y-48350D01*
X-419Y-48407D01*
X-380Y-48445D01*
X-342Y-48464D01*
X-266Y-48483D01*
X-209Y-48483D01*
X-133Y-48464D01*
X-95Y-48445D01*
X-57Y-48407D01*
X-38Y-48350D01*
X-38Y-48311D01*
X-57Y-48254D01*
X-76Y-48235D01*
X-209Y-48235D01*
X-209Y-48311D01*
X0Y-48159D02*
X0Y-47854D01*
X-438Y-47797D02*
X-438Y-47530D01*
X-38Y-47702D01*
X-266Y-47321D02*
X-285Y-47359D01*
X-304Y-47378D01*
X-342Y-47397D01*
X-361Y-47397D01*
X-400Y-47378D01*
X-419Y-47359D01*
X-438Y-47321D01*
X-438Y-47245D01*
X-419Y-47207D01*
X-400Y-47188D01*
X-361Y-47169D01*
X-342Y-47169D01*
X-304Y-47188D01*
X-285Y-47207D01*
X-266Y-47245D01*
X-266Y-47321D01*
X-247Y-47359D01*
X-228Y-47378D01*
X-190Y-47397D01*
X-114Y-47397D01*
X-76Y-47378D01*
X-57Y-47359D01*
X-38Y-47321D01*
X-38Y-47245D01*
X-57Y-47207D01*
X-76Y-47188D01*
X-114Y-47169D01*
X-190Y-47169D01*
X-228Y-47188D01*
X-247Y-47207D01*
X-266Y-47245D01*
X-438Y-46921D02*
X-438Y-46883D01*
X-419Y-46845D01*
X-400Y-46826D01*
X-361Y-46807D01*
X-285Y-46788D01*
X-190Y-46788D01*
X-114Y-46807D01*
X-76Y-46826D01*
X-57Y-46845D01*
X-38Y-46883D01*
X-38Y-46921D01*
X-57Y-46959D01*
X-76Y-46978D01*
X-114Y-46997D01*
X-190Y-47016D01*
X-285Y-47016D01*
X-361Y-46997D01*
X-400Y-46978D01*
X-419Y-46959D01*
X-438Y-46921D01*
X-438Y-46426D02*
X-438Y-46616D01*
X-247Y-46635D01*
X-266Y-46616D01*
X-285Y-46578D01*
X-285Y-46483D01*
X-266Y-46445D01*
X-247Y-46426D01*
X-209Y-46407D01*
X-114Y-46407D01*
X-76Y-46426D01*
X-57Y-46445D01*
X-38Y-46483D01*
X-38Y-46578D01*
X-57Y-46616D01*
X-76Y-46635D01*
G54D20*
X84828Y-42721D02*
X84828Y-42421D01*
X84900Y-42421D01*
X84942Y-42435D01*
X84971Y-42464D01*
X84985Y-42492D01*
X85000Y-42550D01*
X85000Y-42592D01*
X84985Y-42650D01*
X84971Y-42678D01*
X84942Y-42707D01*
X84900Y-42721D01*
X84828Y-42721D01*
X85285Y-42721D02*
X85114Y-42721D01*
X85200Y-42721D02*
X85200Y-42421D01*
X85171Y-42464D01*
X85142Y-42492D01*
X85114Y-42507D01*
X84907Y-44071D02*
X84764Y-44071D01*
X84764Y-43771D01*
X85007Y-43914D02*
X85107Y-43914D01*
X85150Y-44071D02*
X85007Y-44071D01*
X85007Y-43771D01*
X85150Y-43771D01*
X85278Y-44071D02*
X85278Y-43771D01*
X85350Y-43771D01*
X85392Y-43785D01*
X85421Y-43814D01*
X85435Y-43842D01*
X85450Y-43900D01*
X85450Y-43942D01*
X85435Y-44000D01*
X85421Y-44028D01*
X85392Y-44057D01*
X85350Y-44071D01*
X85278Y-44071D01*
G54D19*
X50783Y-50939D02*
X50083Y-50939D01*
X50716Y-50467D02*
X50750Y-50489D01*
X50783Y-50553D01*
X50783Y-50596D01*
X50750Y-50660D01*
X50683Y-50703D01*
X50616Y-50724D01*
X50483Y-50746D01*
X50383Y-50746D01*
X50250Y-50724D01*
X50183Y-50703D01*
X50116Y-50660D01*
X50083Y-50596D01*
X50083Y-50553D01*
X50116Y-50489D01*
X50150Y-50467D01*
X50150Y-50296D02*
X50116Y-50274D01*
X50083Y-50232D01*
X50083Y-50124D01*
X50116Y-50082D01*
X50150Y-50060D01*
X50216Y-50039D01*
X50283Y-50039D01*
X50383Y-50060D01*
X50783Y-50317D01*
X50783Y-50039D01*
G54D13*
G54D17*
X52133Y-50783D02*
X51942Y-50783D01*
X51942Y-50083D01*
X52266Y-50783D02*
X52266Y-50083D01*
X52400Y-50583D01*
X52533Y-50083D01*
X52533Y-50783D01*
X52895Y-50316D02*
X52895Y-50783D01*
X52800Y-50050D02*
X52704Y-50550D01*
X52952Y-50550D01*
X53085Y-50150D02*
X53104Y-50116D01*
X53142Y-50083D01*
X53238Y-50083D01*
X53276Y-50116D01*
X53295Y-50150D01*
X53314Y-50216D01*
X53314Y-50283D01*
X53295Y-50383D01*
X53066Y-50783D01*
X53314Y-50783D01*
X53676Y-50083D02*
X53485Y-50083D01*
X53466Y-50416D01*
X53485Y-50383D01*
X53523Y-50350D01*
X53619Y-50350D01*
X53657Y-50383D01*
X53676Y-50416D01*
X53695Y-50483D01*
X53695Y-50650D01*
X53676Y-50716D01*
X53657Y-50750D01*
X53619Y-50783D01*
X53523Y-50783D01*
X53485Y-50750D01*
X53466Y-50716D01*
X53942Y-50083D02*
X53980Y-50083D01*
X54019Y-50116D01*
X54038Y-50150D01*
X54057Y-50216D01*
X54076Y-50350D01*
X54076Y-50516D01*
X54057Y-50650D01*
X54038Y-50716D01*
X54019Y-50750D01*
X53980Y-50783D01*
X53942Y-50783D01*
X53904Y-50750D01*
X53885Y-50716D01*
X53866Y-50650D01*
X53847Y-50516D01*
X53847Y-50350D01*
X53866Y-50216D01*
X53885Y-50150D01*
X53904Y-50116D01*
X53942Y-50083D01*
G54D13*
G54D18*
X91980Y-45175D02*
X91980Y-44494D01*
X92143Y-44494D01*
X92184Y-44527D01*
X92204Y-44559D01*
X92224Y-44624D01*
X92224Y-44721D01*
X92204Y-44786D01*
X92184Y-44818D01*
X92143Y-44851D01*
X91980Y-44851D01*
X92632Y-45175D02*
X92387Y-45175D01*
X92510Y-45175D02*
X92510Y-44494D01*
X92469Y-44591D01*
X92428Y-44656D01*
X92387Y-44689D01*
X92999Y-44494D02*
X92917Y-44494D01*
X92877Y-44527D01*
X92856Y-44559D01*
X92815Y-44656D01*
X92795Y-44786D01*
X92795Y-45045D01*
X92815Y-45110D01*
X92836Y-45143D01*
X92877Y-45175D01*
X92958Y-45175D01*
X92999Y-45143D01*
X93019Y-45110D01*
X93040Y-45045D01*
X93040Y-44883D01*
X93019Y-44818D01*
X92999Y-44786D01*
X92958Y-44754D01*
X92877Y-44754D01*
X92836Y-44786D01*
X92815Y-44818D01*
X92795Y-44883D01*
G54D13*
G54D14*
X86100Y-55044D02*
X86074Y-55020D01*
X86047Y-54972D01*
X86047Y-54853D01*
X86074Y-54806D01*
X86100Y-54782D01*
X86152Y-54758D01*
X86204Y-54758D01*
X86283Y-54782D01*
X86597Y-55068D01*
X86597Y-54758D01*
X86047Y-54591D02*
X86047Y-54258D01*
X86597Y-54472D01*
X86047Y-53972D02*
X86047Y-53925D01*
X86074Y-53877D01*
X86100Y-53853D01*
X86152Y-53829D01*
X86257Y-53806D01*
X86388Y-53806D01*
X86493Y-53829D01*
X86545Y-53853D01*
X86571Y-53877D01*
X86597Y-53925D01*
X86597Y-53972D01*
X86571Y-54020D01*
X86545Y-54044D01*
X86493Y-54068D01*
X86388Y-54091D01*
X86257Y-54091D01*
X86152Y-54068D01*
X86100Y-54044D01*
X86074Y-54020D01*
X86047Y-53972D01*
X85200Y-55044D02*
X85174Y-55020D01*
X85147Y-54972D01*
X85147Y-54853D01*
X85174Y-54806D01*
X85200Y-54782D01*
X85252Y-54758D01*
X85304Y-54758D01*
X85383Y-54782D01*
X85697Y-55068D01*
X85697Y-54758D01*
X85147Y-54591D02*
X85147Y-54258D01*
X85697Y-54472D01*
X85147Y-53972D02*
X85147Y-53925D01*
X85174Y-53877D01*
X85200Y-53853D01*
X85252Y-53829D01*
X85357Y-53806D01*
X85488Y-53806D01*
X85593Y-53829D01*
X85645Y-53853D01*
X85671Y-53877D01*
X85697Y-53925D01*
X85697Y-53972D01*
X85671Y-54020D01*
X85645Y-54044D01*
X85593Y-54068D01*
X85488Y-54091D01*
X85357Y-54091D01*
X85252Y-54068D01*
X85200Y-54044D01*
X85174Y-54020D01*
X85147Y-53972D01*
X84300Y-55044D02*
X84274Y-55020D01*
X84247Y-54972D01*
X84247Y-54853D01*
X84274Y-54806D01*
X84300Y-54782D01*
X84352Y-54758D01*
X84404Y-54758D01*
X84483Y-54782D01*
X84797Y-55068D01*
X84797Y-54758D01*
X84247Y-54591D02*
X84247Y-54258D01*
X84797Y-54472D01*
X84247Y-53972D02*
X84247Y-53925D01*
X84274Y-53877D01*
X84300Y-53853D01*
X84352Y-53829D01*
X84457Y-53806D01*
X84588Y-53806D01*
X84693Y-53829D01*
X84745Y-53853D01*
X84771Y-53877D01*
X84797Y-53925D01*
X84797Y-53972D01*
X84771Y-54020D01*
X84745Y-54044D01*
X84693Y-54068D01*
X84588Y-54091D01*
X84457Y-54091D01*
X84352Y-54068D01*
X84300Y-54044D01*
X84274Y-54020D01*
X84247Y-53972D01*
X83400Y-55044D02*
X83374Y-55020D01*
X83347Y-54972D01*
X83347Y-54853D01*
X83374Y-54806D01*
X83400Y-54782D01*
X83452Y-54758D01*
X83504Y-54758D01*
X83583Y-54782D01*
X83897Y-55068D01*
X83897Y-54758D01*
X83347Y-54591D02*
X83347Y-54258D01*
X83897Y-54472D01*
X83347Y-53972D02*
X83347Y-53925D01*
X83374Y-53877D01*
X83400Y-53853D01*
X83452Y-53829D01*
X83557Y-53806D01*
X83688Y-53806D01*
X83793Y-53829D01*
X83845Y-53853D01*
X83871Y-53877D01*
X83897Y-53925D01*
X83897Y-53972D01*
X83871Y-54020D01*
X83845Y-54044D01*
X83793Y-54068D01*
X83688Y-54091D01*
X83557Y-54091D01*
X83452Y-54068D01*
X83400Y-54044D01*
X83374Y-54020D01*
X83347Y-53972D01*
X91123Y-55157D02*
X91142Y-55176D01*
X91161Y-55233D01*
X91161Y-55271D01*
X91142Y-55328D01*
X91104Y-55366D01*
X91066Y-55385D01*
X90990Y-55404D01*
X90933Y-55404D01*
X90857Y-55385D01*
X90819Y-55366D01*
X90780Y-55328D01*
X90761Y-55271D01*
X90761Y-55233D01*
X90780Y-55176D01*
X90800Y-55157D01*
X91161Y-54776D02*
X91161Y-55004D01*
X91161Y-54890D02*
X90761Y-54890D01*
X90819Y-54928D01*
X90857Y-54966D01*
X90876Y-55004D01*
X90761Y-54642D02*
X90761Y-54395D01*
X90914Y-54528D01*
X90914Y-54471D01*
X90933Y-54433D01*
X90952Y-54414D01*
X90990Y-54395D01*
X91085Y-54395D01*
X91123Y-54414D01*
X91142Y-54433D01*
X91161Y-54471D01*
X91161Y-54585D01*
X91142Y-54623D01*
X91123Y-54642D01*
G54D13*
X21107Y-33592D02*
X21107Y-32992D01*
X21335Y-32992D01*
X21392Y-33021D01*
X21421Y-33050D01*
X21450Y-33107D01*
X21450Y-33192D01*
X21421Y-33250D01*
X21392Y-33278D01*
X21335Y-33307D01*
X21107Y-33307D01*
X21678Y-33050D02*
X21707Y-33021D01*
X21764Y-32992D01*
X21907Y-32992D01*
X21964Y-33021D01*
X21992Y-33050D01*
X22021Y-33107D01*
X22021Y-33164D01*
X21992Y-33250D01*
X21650Y-33592D01*
X22021Y-33592D01*
X20728Y-32835D02*
X20700Y-32864D01*
X20614Y-32892D01*
X20557Y-32892D01*
X20471Y-32864D01*
X20414Y-32807D01*
X20385Y-32750D01*
X20357Y-32635D01*
X20357Y-32550D01*
X20385Y-32435D01*
X20414Y-32378D01*
X20471Y-32321D01*
X20557Y-32292D01*
X20614Y-32292D01*
X20700Y-32321D01*
X20728Y-32350D01*
X21100Y-32292D02*
X21214Y-32292D01*
X21271Y-32321D01*
X21328Y-32378D01*
X21357Y-32492D01*
X21357Y-32692D01*
X21328Y-32807D01*
X21271Y-32864D01*
X21214Y-32892D01*
X21100Y-32892D01*
X21042Y-32864D01*
X20985Y-32807D01*
X20957Y-32692D01*
X20957Y-32492D01*
X20985Y-32378D01*
X21042Y-32321D01*
X21100Y-32292D01*
X21614Y-32892D02*
X21614Y-32292D01*
X21957Y-32892D01*
X21957Y-32292D01*
X22242Y-32892D02*
X22242Y-32292D01*
X22585Y-32892D01*
X22585Y-32292D01*
X22728Y-32950D02*
X23185Y-32950D01*
X23585Y-32492D02*
X23585Y-32892D01*
X23442Y-32264D02*
X23300Y-32692D01*
X23671Y-32692D01*
X25957Y-32592D02*
X25957Y-31992D01*
X26185Y-31992D01*
X26242Y-32021D01*
X26271Y-32050D01*
X26300Y-32107D01*
X26300Y-32192D01*
X26271Y-32250D01*
X26242Y-32278D01*
X26185Y-32307D01*
X25957Y-32307D01*
X26500Y-31992D02*
X26871Y-31992D01*
X26671Y-32221D01*
X26757Y-32221D01*
X26814Y-32250D01*
X26842Y-32278D01*
X26871Y-32335D01*
X26871Y-32478D01*
X26842Y-32535D01*
X26814Y-32564D01*
X26757Y-32592D01*
X26585Y-32592D01*
X26528Y-32564D01*
X26500Y-32535D01*
X26328Y-34985D02*
X26300Y-35014D01*
X26214Y-35042D01*
X26157Y-35042D01*
X26071Y-35014D01*
X26014Y-34957D01*
X25985Y-34900D01*
X25957Y-34785D01*
X25957Y-34700D01*
X25985Y-34585D01*
X26014Y-34528D01*
X26071Y-34471D01*
X26157Y-34442D01*
X26214Y-34442D01*
X26300Y-34471D01*
X26328Y-34500D01*
X26700Y-34442D02*
X26814Y-34442D01*
X26871Y-34471D01*
X26928Y-34528D01*
X26957Y-34642D01*
X26957Y-34842D01*
X26928Y-34957D01*
X26871Y-35014D01*
X26814Y-35042D01*
X26700Y-35042D01*
X26642Y-35014D01*
X26585Y-34957D01*
X26557Y-34842D01*
X26557Y-34642D01*
X26585Y-34528D01*
X26642Y-34471D01*
X26700Y-34442D01*
X27214Y-35042D02*
X27214Y-34442D01*
X27557Y-35042D01*
X27557Y-34442D01*
X27842Y-35042D02*
X27842Y-34442D01*
X28185Y-35042D01*
X28185Y-34442D01*
X28328Y-35100D02*
X28785Y-35100D01*
X29185Y-34642D02*
X29185Y-35042D01*
X29042Y-34414D02*
X28900Y-34842D01*
X29271Y-34842D01*
G54D18*
X106143Y-46944D02*
X106143Y-47431D01*
X106122Y-47528D01*
X106082Y-47593D01*
X106021Y-47625D01*
X105980Y-47625D01*
X106347Y-47625D02*
X106347Y-46944D01*
X106510Y-46944D01*
X106550Y-46977D01*
X106571Y-47009D01*
X106591Y-47074D01*
X106591Y-47171D01*
X106571Y-47236D01*
X106550Y-47268D01*
X106510Y-47301D01*
X106347Y-47301D01*
X106734Y-46944D02*
X107019Y-46944D01*
X106836Y-47625D01*
G54D13*
G54D18*
X106143Y-45444D02*
X106143Y-45931D01*
X106122Y-46028D01*
X106082Y-46093D01*
X106021Y-46125D01*
X105980Y-46125D01*
X106347Y-46125D02*
X106347Y-45444D01*
X106510Y-45444D01*
X106550Y-45477D01*
X106571Y-45509D01*
X106591Y-45574D01*
X106591Y-45671D01*
X106571Y-45736D01*
X106550Y-45768D01*
X106510Y-45801D01*
X106347Y-45801D01*
X106958Y-45444D02*
X106877Y-45444D01*
X106836Y-45477D01*
X106815Y-45509D01*
X106775Y-45606D01*
X106754Y-45736D01*
X106754Y-45995D01*
X106775Y-46060D01*
X106795Y-46093D01*
X106836Y-46125D01*
X106917Y-46125D01*
X106958Y-46093D01*
X106978Y-46060D01*
X106999Y-45995D01*
X106999Y-45833D01*
X106978Y-45768D01*
X106958Y-45736D01*
X106917Y-45704D01*
X106836Y-45704D01*
X106795Y-45736D01*
X106775Y-45768D01*
X106754Y-45833D01*
G54D13*
M02*
