M48
;DRILL file {Pcbnew (2013-07-07 BZR 4022)-stable} date 03-08-14 1:25 PM
;FORMAT={-:-/ absolute / metric / decimal}
FMAT,2
METRIC,TZ
T1C0.559
T2C0.813
T3C1.143
T4C1.778
T5C3.048
%
G90
G05
M71
T1
X59.436Y-134.874
X79.629Y-128.143
X81.28Y-128.143
X82.677Y-128.143
X85.217Y-133.096
X120.015Y-132.207
X140.462Y-128.016
X149.86Y-135.509
X170.434Y-132.461
X171.704Y-132.461
X176.022Y-123.952
X222.123Y-111.76
T2
X37.084Y-138.43
X39.624Y-138.43
X46.99Y-138.43
X49.53Y-138.43
X53.34Y-137.16
X53.34Y-139.7
X55.88Y-137.16
X55.88Y-139.7
X56.642Y-120.777
X56.642Y-128.143
X57.15Y-146.05
X58.42Y-137.16
X58.42Y-139.7
X59.182Y-120.777
X59.182Y-128.143
X59.69Y-146.05
X60.96Y-137.16
X60.96Y-139.7
X63.5Y-137.16
X63.5Y-139.7
X66.04Y-137.16
X66.04Y-139.7
X68.58Y-137.16
X68.58Y-139.7
X71.12Y-137.16
X71.12Y-139.7
X73.66Y-137.16
X73.66Y-139.7
X76.2Y-137.16
X76.2Y-139.7
X80.01Y-138.43
X82.55Y-138.43
X86.36Y-137.16
X86.36Y-139.7
X88.9Y-137.16
X88.9Y-139.7
X91.44Y-137.16
X91.44Y-139.7
X93.98Y-137.16
X93.98Y-139.7
X96.52Y-137.16
X96.52Y-139.7
X99.06Y-137.16
X99.06Y-139.7
X101.6Y-137.16
X101.6Y-139.7
X104.14Y-137.16
X104.14Y-139.7
X106.68Y-137.16
X106.68Y-139.7
X109.22Y-137.16
X109.22Y-139.7
X110.49Y-146.05
X113.03Y-128.27
X113.03Y-138.43
X113.03Y-146.05
X115.57Y-128.27
X115.57Y-138.43
X115.57Y-146.05
X118.11Y-115.57
X118.11Y-118.11
X118.11Y-120.65
X118.11Y-146.05
X119.38Y-137.16
X119.38Y-139.7
X120.65Y-110.49
X120.65Y-128.27
X121.92Y-137.16
X121.92Y-139.7
X123.19Y-110.49
X123.19Y-128.27
X124.46Y-137.16
X124.46Y-139.7
X125.73Y-115.57
X125.73Y-118.11
X125.73Y-120.65
X125.73Y-128.27
X127.Y-137.16
X127.Y-139.7
X129.54Y-137.16
X129.54Y-139.7
X130.81Y-115.57
X130.81Y-118.11
X130.81Y-120.65
X130.81Y-124.46
X130.81Y-132.08
X132.08Y-110.49
X132.08Y-137.16
X132.08Y-139.7
X133.35Y-124.46
X133.35Y-132.08
X134.62Y-107.95
X134.62Y-137.16
X134.62Y-139.7
X135.89Y-124.46
X135.89Y-132.08
X137.16Y-110.49
X137.16Y-137.16
X137.16Y-139.7
X138.43Y-115.57
X138.43Y-118.11
X138.43Y-120.65
X138.43Y-124.46
X138.43Y-132.08
X139.7Y-137.16
X139.7Y-139.7
X142.24Y-137.16
X142.24Y-139.7
X143.51Y-115.57
X143.51Y-118.11
X143.51Y-120.65
X144.78Y-128.27
X146.05Y-110.49
X146.05Y-138.43
X147.32Y-128.27
X148.59Y-110.49
X148.59Y-138.43
X149.86Y-128.27
X151.13Y-115.57
X151.13Y-118.11
X151.13Y-120.65
X152.4Y-137.16
X152.4Y-139.7
X154.94Y-137.16
X154.94Y-139.7
X157.48Y-137.16
X157.48Y-139.7
X160.02Y-137.16
X160.02Y-139.7
X162.56Y-137.16
X162.56Y-139.7
X165.1Y-137.16
X165.1Y-139.7
X167.64Y-137.16
X167.64Y-139.7
X170.18Y-137.16
X170.18Y-139.7
X172.72Y-137.16
X172.72Y-139.7
X175.26Y-137.16
X175.26Y-139.7
X179.07Y-138.43
X181.61Y-138.43
X185.42Y-137.16
X185.42Y-139.7
X187.96Y-137.16
X187.96Y-139.7
X190.5Y-137.16
X190.5Y-139.7
X193.04Y-137.16
X193.04Y-139.7
X195.58Y-137.16
X195.58Y-139.7
X198.12Y-137.16
X198.12Y-139.7
X200.66Y-137.16
X200.66Y-139.7
X203.2Y-137.16
X203.2Y-139.7
X205.74Y-137.16
X205.74Y-139.7
X208.28Y-137.16
X208.28Y-139.7
X212.662Y-134.43
X212.662Y-142.05
X213.868Y-117.856
X213.868Y-120.396
X213.868Y-122.936
X214.63Y-109.855
X214.948Y-134.43
X214.948Y-142.05
X217.17Y-109.855
X217.234Y-134.43
X217.234Y-142.05
X217.424Y-116.713
X217.424Y-124.333
X219.52Y-134.43
X219.52Y-142.05
X220.345Y-116.713
X220.345Y-124.333
X227.076Y-116.713
X227.076Y-124.333
X229.997Y-116.713
X229.997Y-124.333
X231.14Y-101.6
X231.14Y-106.68
X231.14Y-136.906
X231.14Y-141.986
X232.664Y-116.713
X232.664Y-124.333
X232.918Y-129.413
X233.68Y-111.506
X235.077Y-116.713
X235.077Y-124.333
X235.204Y-135.763
X235.204Y-143.383
X235.458Y-129.413
X236.22Y-111.506
X237.49Y-116.713
X237.49Y-124.333
X237.744Y-135.763
X237.744Y-143.383
X238.76Y-101.6
X238.76Y-106.68
X239.903Y-116.713
X239.903Y-124.333
X240.284Y-135.763
X240.284Y-143.383
X240.602Y-129.476
X242.316Y-116.713
X242.316Y-124.333
X242.824Y-135.763
X242.824Y-143.383
X243.142Y-129.476
X245.364Y-135.763
X245.364Y-143.383
X245.682Y-129.476
X247.904Y-118.745
X247.904Y-122.301
X247.904Y-135.763
X247.904Y-143.383
X249.428Y-129.413
X250.444Y-118.745
X250.444Y-122.301
X250.444Y-135.763
X250.444Y-143.383
X251.968Y-129.413
X254.508Y-129.413
X255.778Y-118.745
X255.778Y-122.301
X258.318Y-118.745
X258.318Y-122.301
T3
X47.625Y-122.047
X47.625Y-124.587
X47.625Y-127.127
X96.266Y-128.143
X98.806Y-128.143
X101.346Y-128.143
X166.243Y-128.143
X168.783Y-128.143
X171.323Y-128.143
X192.786Y-128.143
X195.326Y-128.143
X197.866Y-128.143
T4
X35.687Y-103.632
X40.767Y-103.632
X45.847Y-103.632
X50.927Y-103.632
X60.071Y-103.632
X65.151Y-103.632
X70.231Y-103.632
X75.311Y-103.632
T5
X19.05Y-105.41
X31.115Y-124.587
X98.806Y-111.633
X168.783Y-111.633
X195.326Y-111.633
X260.35Y-105.41
T0
M30
