G04 (created by PCBNEW-RS274X (2011-07-08 BZR 3044)-stable) date 7/22/2013 3:39:22 PM*
G01*
G70*
G90*
%MOIN*%
G04 Gerber Fmt 3.4, Leading zero omitted, Abs format*
%FSLAX34Y34*%
G04 APERTURE LIST*
%ADD10C,0.006000*%
%ADD11C,0.015000*%
G04 APERTURE END LIST*
G54D10*
G54D11*
X52500Y-20200D02*
X52500Y-23200D01*
X116250Y-20200D02*
X52500Y-20200D01*
X136700Y-89300D02*
X123700Y-89300D01*
X137500Y-24000D02*
X137500Y-88500D01*
X116250Y-23200D02*
X136700Y-23200D01*
X116250Y-20200D02*
X116250Y-23200D01*
X37500Y-28800D02*
X37500Y-24000D01*
X52500Y-23200D02*
X38300Y-23200D01*
X117000Y-89300D02*
X123700Y-89300D01*
X37500Y-28800D02*
X37500Y-88500D01*
X117000Y-89300D02*
X38300Y-89300D01*
X136700Y-89300D02*
X136769Y-89296D01*
X136838Y-89287D01*
X136907Y-89272D01*
X136973Y-89251D01*
X137038Y-89225D01*
X137100Y-89192D01*
X137158Y-89155D01*
X137214Y-89112D01*
X137265Y-89065D01*
X137312Y-89014D01*
X137355Y-88958D01*
X137392Y-88899D01*
X137425Y-88838D01*
X137451Y-88773D01*
X137472Y-88707D01*
X137487Y-88638D01*
X137496Y-88569D01*
X137500Y-88500D01*
X37500Y-88500D02*
X37504Y-88569D01*
X37513Y-88638D01*
X37528Y-88707D01*
X37549Y-88773D01*
X37575Y-88838D01*
X37608Y-88899D01*
X37645Y-88958D01*
X37688Y-89014D01*
X37735Y-89065D01*
X37786Y-89112D01*
X37842Y-89155D01*
X37901Y-89192D01*
X37962Y-89225D01*
X38027Y-89251D01*
X38093Y-89272D01*
X38162Y-89287D01*
X38231Y-89296D01*
X38300Y-89300D01*
X137500Y-24000D02*
X137496Y-23931D01*
X137487Y-23862D01*
X137472Y-23793D01*
X137451Y-23727D01*
X137425Y-23662D01*
X137392Y-23601D01*
X137355Y-23542D01*
X137312Y-23486D01*
X137265Y-23435D01*
X137214Y-23388D01*
X137158Y-23345D01*
X137100Y-23308D01*
X137038Y-23275D01*
X136973Y-23249D01*
X136907Y-23228D01*
X136838Y-23213D01*
X136769Y-23204D01*
X136700Y-23200D01*
X38300Y-23200D02*
X38231Y-23204D01*
X38162Y-23213D01*
X38093Y-23228D01*
X38027Y-23249D01*
X37962Y-23275D01*
X37901Y-23308D01*
X37842Y-23345D01*
X37786Y-23388D01*
X37735Y-23435D01*
X37688Y-23486D01*
X37645Y-23542D01*
X37608Y-23601D01*
X37575Y-23662D01*
X37549Y-23727D01*
X37528Y-23793D01*
X37513Y-23862D01*
X37504Y-23931D01*
X37500Y-24000D01*
M02*
