G04 (created by PCBNEW-RS274X (2011-07-08 BZR 3044)-stable) date 7/22/2013 3:39:22 PM*
G01*
G70*
G90*
%MOIN*%
G04 Gerber Fmt 3.4, Leading zero omitted, Abs format*
%FSLAX34Y34*%
G04 APERTURE LIST*
%ADD10C,0.006000*%
%ADD11C,0.080000*%
%ADD12R,0.075000X0.075000*%
%ADD13C,0.075000*%
%ADD14R,0.080000X0.080000*%
%ADD15C,0.177500*%
%ADD16C,0.079100*%
%ADD17C,0.138100*%
%ADD18R,0.036000X0.070000*%
%ADD19R,0.070000X0.036000*%
%ADD20C,0.189300*%
%ADD21R,0.079000X0.071100*%
%ADD22R,0.071100X0.079000*%
%ADD23R,0.098700X0.090900*%
%ADD24R,0.067200X0.067200*%
%ADD25R,0.189300X0.086900*%
%ADD26O,0.189300X0.086900*%
%ADD27O,0.189300X0.089700*%
%ADD28O,0.188700X0.086900*%
%ADD29O,0.188700X0.089900*%
%ADD30R,0.035700X0.079000*%
%ADD31R,0.030600X0.079000*%
%ADD32R,0.079000X0.030600*%
%ADD33R,0.106600X0.043600*%
%ADD34C,0.180000*%
%ADD35R,0.130000X0.350000*%
%ADD36R,0.090000X0.350000*%
%ADD37R,0.079000X0.039600*%
%ADD38R,0.039600X0.079000*%
G04 APERTURE END LIST*
G54D10*
G54D11*
X50800Y-58200D03*
X50800Y-60200D03*
X47800Y-58200D03*
X47800Y-60200D03*
G54D12*
X116030Y-80340D03*
G54D13*
X117030Y-80340D03*
X118030Y-80340D03*
X119030Y-80340D03*
X120030Y-80340D03*
X121030Y-80340D03*
X122030Y-80340D03*
X123030Y-80340D03*
X123030Y-77340D03*
X122030Y-77340D03*
X121030Y-77340D03*
X120030Y-77340D03*
X119030Y-77340D03*
X118030Y-77340D03*
X117030Y-77340D03*
X116030Y-77340D03*
G54D12*
X121100Y-33050D03*
G54D13*
X121100Y-34050D03*
X121100Y-35050D03*
X121100Y-36050D03*
X121100Y-37050D03*
X121100Y-38050D03*
X121100Y-39050D03*
X121100Y-40050D03*
X121100Y-41050D03*
X121100Y-42050D03*
X121100Y-43050D03*
X121100Y-44050D03*
X121100Y-45050D03*
X121100Y-46050D03*
X121100Y-47050D03*
X121100Y-48050D03*
X121100Y-49050D03*
X121100Y-50050D03*
X121100Y-51050D03*
X121100Y-52050D03*
X127100Y-52050D03*
X127100Y-51050D03*
X127100Y-50050D03*
X127100Y-49050D03*
X127100Y-48050D03*
X127100Y-47050D03*
X127100Y-46050D03*
X127100Y-45050D03*
X127100Y-44050D03*
X127100Y-43050D03*
X127100Y-42050D03*
X127100Y-41050D03*
X127100Y-40050D03*
X127100Y-39050D03*
X127100Y-38050D03*
X127100Y-37050D03*
X127100Y-36050D03*
X127100Y-35050D03*
X127100Y-34050D03*
X127100Y-33050D03*
G54D12*
X130000Y-32950D03*
G54D13*
X130000Y-33950D03*
X130000Y-34950D03*
X130000Y-35950D03*
X130000Y-36950D03*
X130000Y-37950D03*
X130000Y-38950D03*
X130000Y-39950D03*
X130000Y-40950D03*
X130000Y-41950D03*
X130000Y-42950D03*
X130000Y-43950D03*
X130000Y-44950D03*
X130000Y-45950D03*
X130000Y-46950D03*
X130000Y-47950D03*
X130000Y-48950D03*
X130000Y-49950D03*
X130000Y-50950D03*
X130000Y-51950D03*
X136000Y-51950D03*
X136000Y-50950D03*
X136000Y-49950D03*
X136000Y-48950D03*
X136000Y-47950D03*
X136000Y-46950D03*
X136000Y-45950D03*
X136000Y-44950D03*
X136000Y-43950D03*
X136000Y-42950D03*
X136000Y-41950D03*
X136000Y-40950D03*
X136000Y-39950D03*
X136000Y-38950D03*
X136000Y-37950D03*
X136000Y-36950D03*
X136000Y-35950D03*
X136000Y-34950D03*
X136000Y-33950D03*
X136000Y-32950D03*
G54D12*
X118100Y-85000D03*
G54D13*
X118100Y-84000D03*
G54D12*
X112450Y-80550D03*
G54D13*
X112450Y-81550D03*
G54D12*
X117050Y-83050D03*
G54D13*
X117050Y-82050D03*
G54D12*
X114900Y-82050D03*
G54D13*
X114900Y-83050D03*
G54D12*
X115950Y-85000D03*
G54D13*
X115950Y-84000D03*
X114230Y-77740D03*
X114230Y-79740D03*
X93000Y-35300D03*
X91000Y-35300D03*
X101100Y-35300D03*
X99100Y-35300D03*
X49300Y-37400D03*
X51300Y-37400D03*
X133850Y-61500D03*
X135850Y-61500D03*
X124950Y-30250D03*
X122950Y-30250D03*
X133900Y-30250D03*
X131900Y-30250D03*
X71450Y-31000D03*
X69450Y-31000D03*
X83000Y-31000D03*
X81000Y-31000D03*
X57550Y-31000D03*
X59550Y-31000D03*
X45600Y-57600D03*
X45600Y-59600D03*
G54D14*
X123500Y-26550D03*
G54D11*
X123500Y-25550D03*
X124500Y-26550D03*
X124500Y-25550D03*
X125500Y-26550D03*
X125500Y-25550D03*
X126500Y-26550D03*
X126500Y-25550D03*
X127500Y-26550D03*
X127500Y-25550D03*
X128500Y-26550D03*
X128500Y-25550D03*
X129500Y-26550D03*
X129500Y-25550D03*
X130500Y-26550D03*
X130500Y-25550D03*
X131500Y-26550D03*
X131500Y-25550D03*
X132500Y-26550D03*
X132500Y-25550D03*
X133500Y-26550D03*
X133500Y-25550D03*
X134500Y-26550D03*
X134500Y-25550D03*
X135500Y-26550D03*
X135500Y-25550D03*
G54D14*
X121150Y-87950D03*
G54D11*
X121150Y-86950D03*
X122150Y-87950D03*
X122150Y-86950D03*
X123150Y-87950D03*
X123150Y-86950D03*
X124150Y-87950D03*
X124150Y-86950D03*
X125150Y-87950D03*
X125150Y-86950D03*
G54D13*
X46500Y-56400D03*
X49500Y-56400D03*
X49500Y-55300D03*
X46500Y-55300D03*
X46700Y-73900D03*
X46700Y-75900D03*
G54D12*
X50800Y-54400D03*
G54D13*
X51800Y-54400D03*
G54D12*
X136250Y-59300D03*
G54D13*
X136250Y-58300D03*
X136250Y-57300D03*
X136250Y-56300D03*
X133250Y-56300D03*
X133250Y-57300D03*
X133250Y-58300D03*
X133250Y-59300D03*
G54D12*
X49400Y-52100D03*
G54D13*
X50400Y-52100D03*
G54D12*
X49500Y-54100D03*
G54D13*
X46500Y-54100D03*
G54D12*
X92100Y-32700D03*
G54D13*
X93100Y-32700D03*
X94100Y-32700D03*
G54D12*
X122200Y-75200D03*
G54D13*
X122200Y-74200D03*
X122200Y-73200D03*
G54D12*
X123650Y-75200D03*
G54D13*
X123650Y-74200D03*
X123650Y-73200D03*
G54D12*
X120550Y-84800D03*
G54D13*
X120550Y-83800D03*
X120550Y-82800D03*
G54D12*
X121900Y-84800D03*
G54D13*
X121900Y-83800D03*
X121900Y-82800D03*
G54D12*
X99100Y-33400D03*
G54D13*
X100100Y-33400D03*
X101100Y-33400D03*
G54D12*
X95725Y-33400D03*
G54D13*
X96725Y-33400D03*
X97725Y-33400D03*
G54D12*
X136150Y-28250D03*
G54D13*
X136150Y-29250D03*
X136150Y-30250D03*
G54D12*
X52300Y-56400D03*
G54D13*
X51300Y-56400D03*
X117100Y-71300D03*
X120100Y-71300D03*
G54D12*
X120500Y-75200D03*
G54D13*
X120500Y-74200D03*
X120500Y-73200D03*
G54D15*
X41850Y-32200D03*
X43031Y-30350D03*
X40669Y-30350D03*
G54D12*
X48800Y-39500D03*
G54D13*
X48800Y-40500D03*
X48800Y-41500D03*
X48800Y-42500D03*
X48800Y-43500D03*
X48800Y-44500D03*
X48800Y-45500D03*
X51800Y-45500D03*
X51800Y-44500D03*
X51800Y-43500D03*
X51800Y-42500D03*
X51800Y-41500D03*
X51800Y-40500D03*
X51800Y-39500D03*
G54D14*
X39900Y-88000D03*
G54D11*
X39900Y-87000D03*
X40900Y-88000D03*
X40900Y-87000D03*
X41900Y-88000D03*
X41900Y-87000D03*
X42900Y-88000D03*
X42900Y-87000D03*
X43900Y-88000D03*
X43900Y-87000D03*
G54D16*
X133150Y-84000D03*
X132150Y-84000D03*
X131350Y-84000D03*
X130350Y-84000D03*
G54D17*
X134350Y-85050D03*
X128950Y-85050D03*
G54D13*
X52800Y-85900D03*
X52800Y-87900D03*
X49800Y-85900D03*
X49800Y-87900D03*
G54D18*
X70350Y-64400D03*
X70600Y-64400D03*
X70860Y-64400D03*
X71120Y-64400D03*
X71370Y-64400D03*
X71630Y-64400D03*
X71890Y-64400D03*
X72140Y-64400D03*
X72400Y-64400D03*
X72650Y-64400D03*
X72650Y-62300D03*
X72400Y-62300D03*
X72140Y-62300D03*
X71890Y-62300D03*
X71630Y-62300D03*
X71370Y-62300D03*
X71120Y-62300D03*
X70860Y-62300D03*
X70600Y-62300D03*
X70350Y-62300D03*
X65550Y-64400D03*
X65800Y-64400D03*
X66060Y-64400D03*
X66320Y-64400D03*
X66570Y-64400D03*
X66830Y-64400D03*
X67090Y-64400D03*
X67340Y-64400D03*
X67600Y-64400D03*
X67850Y-64400D03*
X67850Y-62300D03*
X67600Y-62300D03*
X67340Y-62300D03*
X67090Y-62300D03*
X66830Y-62300D03*
X66570Y-62300D03*
X66320Y-62300D03*
X66060Y-62300D03*
X65800Y-62300D03*
X65550Y-62300D03*
X85700Y-67000D03*
X85950Y-67000D03*
X86210Y-67000D03*
X86470Y-67000D03*
X86720Y-67000D03*
X86980Y-67000D03*
X87240Y-67000D03*
X87490Y-67000D03*
X87750Y-67000D03*
X88000Y-67000D03*
X88000Y-64900D03*
X87750Y-64900D03*
X87490Y-64900D03*
X87240Y-64900D03*
X86980Y-64900D03*
X86720Y-64900D03*
X86470Y-64900D03*
X86210Y-64900D03*
X85950Y-64900D03*
X85700Y-64900D03*
G54D19*
X60100Y-67300D03*
X60100Y-67050D03*
X60100Y-66790D03*
X60100Y-66530D03*
X60100Y-66280D03*
X60100Y-66020D03*
X60100Y-65760D03*
X60100Y-65510D03*
X60100Y-65250D03*
X60100Y-65000D03*
X58000Y-65000D03*
X58000Y-65250D03*
X58000Y-65510D03*
X58000Y-65760D03*
X58000Y-66020D03*
X58000Y-66280D03*
X58000Y-66530D03*
X58000Y-66790D03*
X58000Y-67050D03*
X58000Y-67300D03*
X59800Y-71900D03*
X59800Y-71650D03*
X59800Y-71390D03*
X59800Y-71130D03*
X59800Y-70880D03*
X59800Y-70620D03*
X59800Y-70360D03*
X59800Y-70110D03*
X59800Y-69850D03*
X59800Y-69600D03*
X57700Y-69600D03*
X57700Y-69850D03*
X57700Y-70110D03*
X57700Y-70360D03*
X57700Y-70620D03*
X57700Y-70880D03*
X57700Y-71130D03*
X57700Y-71390D03*
X57700Y-71650D03*
X57700Y-71900D03*
X59750Y-76350D03*
X59750Y-76100D03*
X59750Y-75840D03*
X59750Y-75580D03*
X59750Y-75330D03*
X59750Y-75070D03*
X59750Y-74810D03*
X59750Y-74560D03*
X59750Y-74300D03*
X59750Y-74050D03*
X57650Y-74050D03*
X57650Y-74300D03*
X57650Y-74560D03*
X57650Y-74810D03*
X57650Y-75070D03*
X57650Y-75330D03*
X57650Y-75580D03*
X57650Y-75840D03*
X57650Y-76100D03*
X57650Y-76350D03*
G54D18*
X101250Y-67000D03*
X101500Y-67000D03*
X101760Y-67000D03*
X102020Y-67000D03*
X102270Y-67000D03*
X102530Y-67000D03*
X102790Y-67000D03*
X103040Y-67000D03*
X103300Y-67000D03*
X103550Y-67000D03*
X103550Y-64900D03*
X103300Y-64900D03*
X103040Y-64900D03*
X102790Y-64900D03*
X102530Y-64900D03*
X102270Y-64900D03*
X102020Y-64900D03*
X101760Y-64900D03*
X101500Y-64900D03*
X101250Y-64900D03*
X93600Y-67000D03*
X93850Y-67000D03*
X94110Y-67000D03*
X94370Y-67000D03*
X94620Y-67000D03*
X94880Y-67000D03*
X95140Y-67000D03*
X95390Y-67000D03*
X95650Y-67000D03*
X95900Y-67000D03*
X95900Y-64900D03*
X95650Y-64900D03*
X95390Y-64900D03*
X95140Y-64900D03*
X94880Y-64900D03*
X94620Y-64900D03*
X94370Y-64900D03*
X94110Y-64900D03*
X93850Y-64900D03*
X93600Y-64900D03*
G54D19*
X104250Y-76300D03*
X104250Y-76550D03*
X104250Y-76810D03*
X104250Y-77070D03*
X104250Y-77320D03*
X104250Y-77580D03*
X104250Y-77840D03*
X104250Y-78090D03*
X104250Y-78350D03*
X104250Y-78600D03*
X106350Y-78600D03*
X106350Y-78350D03*
X106350Y-78090D03*
X106350Y-77840D03*
X106350Y-77580D03*
X106350Y-77320D03*
X106350Y-77070D03*
X106350Y-76810D03*
X106350Y-76550D03*
X106350Y-76300D03*
G54D14*
X45350Y-83900D03*
G54D11*
X45350Y-82900D03*
X46350Y-83900D03*
X46350Y-82900D03*
G54D14*
X42700Y-83900D03*
G54D11*
X42700Y-82900D03*
X43700Y-83900D03*
X43700Y-82900D03*
G54D14*
X40000Y-83900D03*
G54D11*
X40000Y-82900D03*
X41000Y-83900D03*
X41000Y-82900D03*
G54D14*
X54500Y-87700D03*
G54D11*
X55500Y-87700D03*
G54D14*
X109100Y-76800D03*
G54D11*
X110100Y-76800D03*
G54D20*
X39211Y-25840D03*
X41180Y-25840D03*
X43149Y-25840D03*
G54D21*
X42800Y-56574D03*
X42800Y-55826D03*
G54D22*
X44826Y-52500D03*
X45574Y-52500D03*
G54D21*
X44800Y-53926D03*
X44800Y-54674D03*
X42800Y-50454D03*
X42800Y-49706D03*
X41600Y-75574D03*
X41600Y-74826D03*
G54D22*
X42776Y-36050D03*
X43524Y-36050D03*
G54D21*
X46640Y-46774D03*
X46640Y-46026D03*
G54D22*
X46646Y-49520D03*
X47394Y-49520D03*
G54D21*
X41600Y-69224D03*
X41600Y-68476D03*
G54D22*
X38626Y-34550D03*
X39374Y-34550D03*
X40676Y-34550D03*
X41424Y-34550D03*
X39374Y-36050D03*
X38626Y-36050D03*
G54D21*
X45020Y-42266D03*
X45020Y-43014D03*
X41600Y-62774D03*
X41600Y-62026D03*
X76000Y-80274D03*
X76000Y-79526D03*
X75700Y-67326D03*
X75700Y-68074D03*
X74500Y-80274D03*
X74500Y-79526D03*
G54D22*
X77924Y-78500D03*
X77176Y-78500D03*
X44026Y-55800D03*
X44774Y-55800D03*
X42776Y-34550D03*
X43524Y-34550D03*
X46646Y-48600D03*
X47394Y-48600D03*
X40626Y-36050D03*
X41374Y-36050D03*
G54D21*
X45800Y-33624D03*
X45800Y-32876D03*
G54D22*
X44266Y-43880D03*
X45014Y-43880D03*
G54D21*
X47200Y-33624D03*
X47200Y-32876D03*
G54D22*
X47276Y-34700D03*
X48024Y-34700D03*
G54D23*
X76700Y-74500D03*
X76700Y-76500D03*
X78354Y-74500D03*
X78354Y-76500D03*
G54D24*
X41787Y-78800D03*
X42613Y-78800D03*
X61387Y-83100D03*
X62213Y-83100D03*
X126497Y-83460D03*
X127323Y-83460D03*
X126497Y-81860D03*
X127323Y-81860D03*
G54D25*
X55500Y-34100D03*
G54D26*
X55500Y-35100D03*
X55500Y-36100D03*
X55500Y-37100D03*
X55500Y-38100D03*
X55500Y-39100D03*
X55500Y-40100D03*
X55500Y-41100D03*
X55500Y-42100D03*
X55500Y-43100D03*
X55500Y-44100D03*
X55500Y-45100D03*
X55500Y-46100D03*
X55500Y-47100D03*
X55500Y-48100D03*
X55500Y-49100D03*
X55500Y-50100D03*
X55500Y-51100D03*
X55500Y-52100D03*
X55500Y-53100D03*
X61500Y-53100D03*
X61500Y-52100D03*
X61500Y-51100D03*
X61500Y-50100D03*
X61500Y-49100D03*
X61500Y-48100D03*
X61500Y-47100D03*
X61500Y-46100D03*
X61500Y-45100D03*
X61500Y-44100D03*
X61500Y-43100D03*
X61500Y-42100D03*
X61500Y-41100D03*
X61500Y-40100D03*
X61500Y-39100D03*
X61500Y-38100D03*
X61500Y-37100D03*
G54D27*
X61500Y-36100D03*
G54D28*
X61500Y-35100D03*
G54D29*
X61500Y-34100D03*
G54D30*
X133513Y-78573D03*
X133257Y-78573D03*
X133001Y-78573D03*
X132745Y-78573D03*
X132489Y-78573D03*
X132233Y-78573D03*
X131977Y-78573D03*
X131723Y-78573D03*
X131467Y-78573D03*
X131211Y-78573D03*
X130955Y-78573D03*
X130699Y-78573D03*
X130443Y-78573D03*
X130187Y-78573D03*
X130187Y-81427D03*
X130443Y-81427D03*
X130699Y-81427D03*
X130955Y-81427D03*
X131211Y-81427D03*
X131467Y-81427D03*
X131723Y-81427D03*
X131977Y-81427D03*
X132233Y-81427D03*
X132489Y-81427D03*
X132745Y-81427D03*
X133001Y-81427D03*
X133257Y-81427D03*
X133513Y-81427D03*
G54D31*
X65456Y-77082D03*
X65652Y-77082D03*
X65849Y-77082D03*
X66046Y-77082D03*
X66243Y-77082D03*
X66440Y-77082D03*
X66637Y-77082D03*
X66834Y-77082D03*
X67030Y-77082D03*
X67227Y-77082D03*
X67424Y-77082D03*
X67621Y-77082D03*
X67818Y-77082D03*
X68015Y-77082D03*
X68212Y-77082D03*
X68408Y-77082D03*
X68605Y-77082D03*
X68802Y-77082D03*
X68998Y-77082D03*
X69195Y-77082D03*
X69392Y-77082D03*
X69588Y-77082D03*
X69785Y-77082D03*
X69982Y-77082D03*
X70179Y-77082D03*
X70376Y-77082D03*
X70573Y-77082D03*
X70770Y-77082D03*
X70966Y-77082D03*
X71163Y-77082D03*
X71360Y-77082D03*
X71557Y-77082D03*
X71754Y-77082D03*
X71951Y-77082D03*
X72148Y-77082D03*
X72344Y-77082D03*
G54D32*
X73132Y-76294D03*
X73132Y-76098D03*
X73132Y-75901D03*
X73132Y-75704D03*
X73132Y-75507D03*
X73132Y-75310D03*
X73132Y-75113D03*
X73132Y-74916D03*
X73132Y-74720D03*
X73132Y-74523D03*
X73132Y-74326D03*
X73132Y-74129D03*
X73132Y-73932D03*
X73132Y-73735D03*
X73132Y-73538D03*
X73132Y-73342D03*
X73132Y-73145D03*
X73132Y-72948D03*
X73132Y-72752D03*
X73132Y-72555D03*
X73132Y-72358D03*
X73132Y-72162D03*
X73132Y-71965D03*
X73132Y-71768D03*
X73132Y-71571D03*
X73132Y-71374D03*
X73132Y-71177D03*
X73132Y-70980D03*
X73132Y-70784D03*
X73132Y-70587D03*
X73132Y-70390D03*
X73132Y-70193D03*
X73132Y-69996D03*
X73132Y-69799D03*
X73132Y-69602D03*
X73132Y-69406D03*
G54D31*
X72344Y-68618D03*
X72148Y-68618D03*
X71951Y-68618D03*
X71754Y-68618D03*
X71557Y-68618D03*
X71360Y-68618D03*
X71163Y-68618D03*
X70966Y-68618D03*
X70770Y-68618D03*
X70573Y-68618D03*
X70376Y-68618D03*
X70179Y-68618D03*
X69982Y-68618D03*
X69785Y-68618D03*
X69588Y-68618D03*
X69392Y-68618D03*
X69195Y-68618D03*
X68998Y-68618D03*
X68802Y-68618D03*
X68605Y-68618D03*
X68408Y-68618D03*
X68212Y-68618D03*
X68015Y-68618D03*
X67818Y-68618D03*
X67621Y-68618D03*
X67424Y-68618D03*
X67227Y-68618D03*
X67030Y-68618D03*
X66834Y-68618D03*
X66637Y-68618D03*
X66440Y-68618D03*
X66243Y-68618D03*
X66046Y-68618D03*
X65849Y-68618D03*
X65652Y-68618D03*
X65456Y-68618D03*
G54D32*
X64668Y-69406D03*
X64668Y-69602D03*
X64668Y-69799D03*
X64668Y-69996D03*
X64668Y-70193D03*
X64668Y-70390D03*
X64668Y-70587D03*
X64668Y-70784D03*
X64668Y-70980D03*
X64668Y-71177D03*
X64668Y-71374D03*
X64668Y-71571D03*
X64668Y-71768D03*
X64668Y-71965D03*
X64668Y-72162D03*
X64668Y-72358D03*
X64668Y-72555D03*
X64668Y-72752D03*
X64668Y-72948D03*
X64668Y-73145D03*
X64668Y-73342D03*
X64668Y-73538D03*
X64668Y-73735D03*
X64668Y-73932D03*
X64668Y-74129D03*
X64668Y-74326D03*
X64668Y-74523D03*
X64668Y-74720D03*
X64668Y-74916D03*
X64668Y-75113D03*
X64668Y-75310D03*
X64668Y-75507D03*
X64668Y-75704D03*
X64668Y-75901D03*
X64668Y-76098D03*
X64668Y-76294D03*
G54D31*
X91806Y-78582D03*
X92002Y-78582D03*
X92199Y-78582D03*
X92396Y-78582D03*
X92593Y-78582D03*
X92790Y-78582D03*
X92987Y-78582D03*
X93184Y-78582D03*
X93380Y-78582D03*
X93577Y-78582D03*
X93774Y-78582D03*
X93971Y-78582D03*
X94168Y-78582D03*
X94365Y-78582D03*
X94562Y-78582D03*
X94758Y-78582D03*
X94955Y-78582D03*
X95152Y-78582D03*
X95348Y-78582D03*
X95545Y-78582D03*
X95742Y-78582D03*
X95938Y-78582D03*
X96135Y-78582D03*
X96332Y-78582D03*
X96529Y-78582D03*
X96726Y-78582D03*
X96923Y-78582D03*
X97120Y-78582D03*
X97316Y-78582D03*
X97513Y-78582D03*
X97710Y-78582D03*
X97907Y-78582D03*
X98104Y-78582D03*
X98301Y-78582D03*
X98498Y-78582D03*
X98694Y-78582D03*
G54D32*
X99482Y-77794D03*
X99482Y-77598D03*
X99482Y-77401D03*
X99482Y-77204D03*
X99482Y-77007D03*
X99482Y-76810D03*
X99482Y-76613D03*
X99482Y-76416D03*
X99482Y-76220D03*
X99482Y-76023D03*
X99482Y-75826D03*
X99482Y-75629D03*
X99482Y-75432D03*
X99482Y-75235D03*
X99482Y-75038D03*
X99482Y-74842D03*
X99482Y-74645D03*
X99482Y-74448D03*
X99482Y-74252D03*
X99482Y-74055D03*
X99482Y-73858D03*
X99482Y-73662D03*
X99482Y-73465D03*
X99482Y-73268D03*
X99482Y-73071D03*
X99482Y-72874D03*
X99482Y-72677D03*
X99482Y-72480D03*
X99482Y-72284D03*
X99482Y-72087D03*
X99482Y-71890D03*
X99482Y-71693D03*
X99482Y-71496D03*
X99482Y-71299D03*
X99482Y-71102D03*
X99482Y-70906D03*
G54D31*
X98694Y-70118D03*
X98498Y-70118D03*
X98301Y-70118D03*
X98104Y-70118D03*
X97907Y-70118D03*
X97710Y-70118D03*
X97513Y-70118D03*
X97316Y-70118D03*
X97120Y-70118D03*
X96923Y-70118D03*
X96726Y-70118D03*
X96529Y-70118D03*
X96332Y-70118D03*
X96135Y-70118D03*
X95938Y-70118D03*
X95742Y-70118D03*
X95545Y-70118D03*
X95348Y-70118D03*
X95152Y-70118D03*
X94955Y-70118D03*
X94758Y-70118D03*
X94562Y-70118D03*
X94365Y-70118D03*
X94168Y-70118D03*
X93971Y-70118D03*
X93774Y-70118D03*
X93577Y-70118D03*
X93380Y-70118D03*
X93184Y-70118D03*
X92987Y-70118D03*
X92790Y-70118D03*
X92593Y-70118D03*
X92396Y-70118D03*
X92199Y-70118D03*
X92002Y-70118D03*
X91806Y-70118D03*
G54D32*
X91018Y-70906D03*
X91018Y-71102D03*
X91018Y-71299D03*
X91018Y-71496D03*
X91018Y-71693D03*
X91018Y-71890D03*
X91018Y-72087D03*
X91018Y-72284D03*
X91018Y-72480D03*
X91018Y-72677D03*
X91018Y-72874D03*
X91018Y-73071D03*
X91018Y-73268D03*
X91018Y-73465D03*
X91018Y-73662D03*
X91018Y-73858D03*
X91018Y-74055D03*
X91018Y-74252D03*
X91018Y-74448D03*
X91018Y-74645D03*
X91018Y-74842D03*
X91018Y-75038D03*
X91018Y-75235D03*
X91018Y-75432D03*
X91018Y-75629D03*
X91018Y-75826D03*
X91018Y-76023D03*
X91018Y-76220D03*
X91018Y-76416D03*
X91018Y-76613D03*
X91018Y-76810D03*
X91018Y-77007D03*
X91018Y-77204D03*
X91018Y-77401D03*
X91018Y-77598D03*
X91018Y-77794D03*
G54D14*
X95800Y-51150D03*
G54D11*
X96800Y-51150D03*
X95800Y-52150D03*
X96800Y-52150D03*
X95800Y-53150D03*
X96800Y-53150D03*
X95800Y-54150D03*
X96800Y-54150D03*
G54D33*
X41027Y-37700D03*
X41027Y-38200D03*
X41027Y-38700D03*
X41027Y-39200D03*
X43073Y-39200D03*
X43073Y-38700D03*
X43073Y-38200D03*
X43073Y-37700D03*
G54D21*
X42720Y-44334D03*
X42720Y-43586D03*
G54D24*
X94100Y-86987D03*
X94100Y-87813D03*
X95500Y-86987D03*
X95500Y-87813D03*
X97000Y-86987D03*
X97000Y-87813D03*
X98500Y-86987D03*
X98500Y-87813D03*
G54D13*
X74700Y-62200D03*
X74700Y-64200D03*
G54D12*
X76950Y-88050D03*
G54D13*
X77950Y-88050D03*
X78950Y-88050D03*
X79950Y-88050D03*
X80950Y-88050D03*
X81950Y-88050D03*
G54D12*
X76700Y-64800D03*
G54D13*
X77700Y-64800D03*
X78700Y-64800D03*
X79700Y-64800D03*
X80700Y-64800D03*
X81700Y-64800D03*
X82700Y-64800D03*
X82700Y-61800D03*
X81700Y-61800D03*
X80700Y-61800D03*
X79700Y-61800D03*
X78700Y-61800D03*
X77700Y-61800D03*
X76700Y-61800D03*
G54D12*
X69750Y-87850D03*
G54D13*
X70750Y-87850D03*
X71750Y-87850D03*
X72750Y-87850D03*
X72750Y-84850D03*
X71750Y-84850D03*
X70750Y-84850D03*
X69750Y-84850D03*
G54D25*
X67360Y-34050D03*
G54D26*
X67360Y-35050D03*
X67360Y-36050D03*
X67360Y-37050D03*
X67360Y-38050D03*
X67360Y-39050D03*
X67360Y-40050D03*
X67360Y-41050D03*
X67360Y-42050D03*
X67360Y-43050D03*
X67360Y-44050D03*
X67360Y-45050D03*
X67360Y-46050D03*
X67360Y-47050D03*
X67360Y-48050D03*
X67360Y-49050D03*
X73360Y-49050D03*
X73360Y-48050D03*
X73360Y-47050D03*
X73360Y-46050D03*
X73360Y-45050D03*
X73360Y-44050D03*
X73360Y-43050D03*
X73360Y-42050D03*
X73360Y-41050D03*
X73360Y-40050D03*
X73360Y-39050D03*
X73360Y-38050D03*
X73360Y-37050D03*
X73360Y-36050D03*
X73360Y-35050D03*
X73360Y-34050D03*
G54D25*
X79020Y-34090D03*
G54D26*
X79020Y-35090D03*
X79020Y-36090D03*
X79020Y-37090D03*
X79020Y-38090D03*
X79020Y-39090D03*
X79020Y-40090D03*
X79020Y-41090D03*
X79020Y-42090D03*
X79020Y-43090D03*
X79020Y-44090D03*
X79020Y-45090D03*
X79020Y-46090D03*
X79020Y-47090D03*
X79020Y-48090D03*
X79020Y-49090D03*
X85020Y-49090D03*
X85020Y-48090D03*
X85020Y-47090D03*
X85020Y-46090D03*
X85020Y-45090D03*
X85020Y-44090D03*
X85020Y-43090D03*
X85020Y-42090D03*
X85020Y-41090D03*
X85020Y-40090D03*
X85020Y-39090D03*
X85020Y-38090D03*
X85020Y-37090D03*
X85020Y-36090D03*
X85020Y-35090D03*
X85020Y-34090D03*
G54D12*
X100360Y-88240D03*
G54D13*
X101360Y-88240D03*
X102360Y-88240D03*
X103360Y-88240D03*
X104360Y-88240D03*
X105360Y-88240D03*
X106360Y-88240D03*
X107360Y-88240D03*
G54D12*
X108500Y-88240D03*
G54D13*
X109500Y-88240D03*
X110500Y-88240D03*
X111500Y-88240D03*
X112500Y-88240D03*
X113500Y-88240D03*
X114500Y-88240D03*
X115500Y-88240D03*
G54D21*
X106900Y-86334D03*
X106900Y-85586D03*
X114500Y-86354D03*
X114500Y-85606D03*
G54D34*
X131890Y-72835D03*
X47244Y-78740D03*
X49213Y-29528D03*
X118110Y-29528D03*
G54D35*
X53550Y-22050D03*
G54D36*
X55000Y-22050D03*
X56250Y-22050D03*
X57500Y-22050D03*
X58750Y-22050D03*
X60000Y-22050D03*
X61250Y-22050D03*
X62500Y-22050D03*
X63750Y-22050D03*
X65000Y-22050D03*
X66250Y-22050D03*
X67500Y-22050D03*
X68750Y-22050D03*
X70000Y-22050D03*
X71250Y-22050D03*
X72500Y-22050D03*
X73750Y-22050D03*
X75000Y-22050D03*
X76250Y-22050D03*
X77500Y-22050D03*
X78750Y-22050D03*
X80000Y-22050D03*
X81250Y-22050D03*
X82500Y-22050D03*
X83750Y-22050D03*
X85000Y-22050D03*
X86250Y-22050D03*
X87500Y-22050D03*
X88750Y-22050D03*
X90000Y-22050D03*
X91250Y-22050D03*
X92500Y-22050D03*
X93750Y-22050D03*
X95000Y-22050D03*
X96250Y-22050D03*
X97500Y-22050D03*
X98750Y-22050D03*
X100000Y-22050D03*
X101250Y-22050D03*
X102500Y-22050D03*
X103750Y-22050D03*
X105000Y-22050D03*
X106250Y-22050D03*
X107500Y-22050D03*
X108750Y-22050D03*
X110000Y-22050D03*
X111250Y-22050D03*
X112500Y-22050D03*
X113750Y-22050D03*
G54D35*
X115200Y-22050D03*
G54D14*
X79800Y-29975D03*
G54D11*
X78800Y-29975D03*
G54D14*
X55190Y-27530D03*
G54D11*
X56190Y-27530D03*
G54D14*
X76525Y-29975D03*
G54D11*
X77525Y-29975D03*
G54D37*
X118656Y-61226D03*
X118656Y-61541D03*
X118656Y-61856D03*
X118656Y-62171D03*
X118656Y-62486D03*
X118656Y-62800D03*
X118656Y-63114D03*
X118656Y-63429D03*
X118656Y-63744D03*
X118656Y-64059D03*
X118656Y-64374D03*
G54D38*
X119326Y-65044D03*
X119641Y-65044D03*
X119956Y-65044D03*
X120271Y-65044D03*
X120586Y-65044D03*
X120900Y-65044D03*
X121214Y-65044D03*
X121529Y-65044D03*
X121844Y-65044D03*
X122159Y-65044D03*
X122474Y-65044D03*
G54D37*
X123144Y-64374D03*
X123144Y-64059D03*
X123144Y-63744D03*
X123144Y-63429D03*
X123144Y-63114D03*
X123144Y-62800D03*
X123144Y-62486D03*
X123144Y-62171D03*
X123144Y-61856D03*
X123144Y-61541D03*
X123144Y-61226D03*
G54D38*
X122474Y-60556D03*
X122159Y-60556D03*
X121844Y-60556D03*
X121529Y-60556D03*
X121214Y-60556D03*
X120900Y-60556D03*
X120586Y-60556D03*
X120271Y-60556D03*
X119956Y-60556D03*
X119641Y-60556D03*
X119326Y-60556D03*
G54D18*
X122275Y-58650D03*
X122525Y-58650D03*
X122785Y-58650D03*
X123045Y-58650D03*
X123295Y-58650D03*
X123555Y-58650D03*
X123815Y-58650D03*
X124065Y-58650D03*
X124325Y-58650D03*
X124575Y-58650D03*
X124575Y-56550D03*
X124325Y-56550D03*
X124065Y-56550D03*
X123815Y-56550D03*
X123555Y-56550D03*
X123295Y-56550D03*
X123045Y-56550D03*
X122785Y-56550D03*
X122525Y-56550D03*
X122275Y-56550D03*
X71575Y-28625D03*
X71825Y-28625D03*
X72085Y-28625D03*
X72345Y-28625D03*
X72595Y-28625D03*
X72855Y-28625D03*
X73115Y-28625D03*
X73365Y-28625D03*
X73625Y-28625D03*
X73875Y-28625D03*
X73875Y-26525D03*
X73625Y-26525D03*
X73365Y-26525D03*
X73115Y-26525D03*
X72855Y-26525D03*
X72595Y-26525D03*
X72345Y-26525D03*
X72085Y-26525D03*
X71825Y-26525D03*
X71575Y-26525D03*
X116575Y-58650D03*
X116825Y-58650D03*
X117085Y-58650D03*
X117345Y-58650D03*
X117595Y-58650D03*
X117855Y-58650D03*
X118115Y-58650D03*
X118365Y-58650D03*
X118625Y-58650D03*
X118875Y-58650D03*
X118875Y-56550D03*
X118625Y-56550D03*
X118365Y-56550D03*
X118115Y-56550D03*
X117855Y-56550D03*
X117595Y-56550D03*
X117345Y-56550D03*
X117085Y-56550D03*
X116825Y-56550D03*
X116575Y-56550D03*
G54D19*
X116125Y-63575D03*
X116125Y-63325D03*
X116125Y-63065D03*
X116125Y-62805D03*
X116125Y-62555D03*
X116125Y-62295D03*
X116125Y-62035D03*
X116125Y-61785D03*
X116125Y-61525D03*
X116125Y-61275D03*
X114025Y-61275D03*
X114025Y-61525D03*
X114025Y-61785D03*
X114025Y-62035D03*
X114025Y-62295D03*
X114025Y-62555D03*
X114025Y-62805D03*
X114025Y-63065D03*
X114025Y-63325D03*
X114025Y-63575D03*
G54D18*
X105125Y-28275D03*
X105375Y-28275D03*
X105635Y-28275D03*
X105895Y-28275D03*
X106145Y-28275D03*
X106405Y-28275D03*
X106665Y-28275D03*
X106915Y-28275D03*
X107175Y-28275D03*
X107425Y-28275D03*
X107425Y-26175D03*
X107175Y-26175D03*
X106915Y-26175D03*
X106665Y-26175D03*
X106405Y-26175D03*
X106145Y-26175D03*
X105895Y-26175D03*
X105635Y-26175D03*
X105375Y-26175D03*
X105125Y-26175D03*
X98300Y-28275D03*
X98550Y-28275D03*
X98810Y-28275D03*
X99070Y-28275D03*
X99320Y-28275D03*
X99580Y-28275D03*
X99840Y-28275D03*
X100090Y-28275D03*
X100350Y-28275D03*
X100600Y-28275D03*
X100600Y-26175D03*
X100350Y-26175D03*
X100090Y-26175D03*
X99840Y-26175D03*
X99580Y-26175D03*
X99320Y-26175D03*
X99070Y-26175D03*
X98810Y-26175D03*
X98550Y-26175D03*
X98300Y-26175D03*
G54D14*
X133875Y-67875D03*
G54D11*
X132875Y-67875D03*
X133875Y-66875D03*
X132875Y-66875D03*
X133875Y-65875D03*
X132875Y-65875D03*
X133875Y-64875D03*
X132875Y-64875D03*
X133875Y-63875D03*
X132875Y-63875D03*
G54D14*
X54075Y-31025D03*
G54D11*
X55075Y-31025D03*
G54D22*
X98224Y-29450D03*
X97476Y-29450D03*
G54D21*
X70625Y-27226D03*
X70625Y-27974D03*
X97375Y-26951D03*
X97375Y-27699D03*
X104150Y-26901D03*
X104150Y-27649D03*
G54D22*
X113624Y-64400D03*
X112876Y-64400D03*
X115449Y-57150D03*
X114701Y-57150D03*
X121224Y-57150D03*
X120476Y-57150D03*
G54D14*
X109100Y-78510D03*
G54D11*
X110100Y-78510D03*
G54D33*
X97731Y-37850D03*
X97731Y-38350D03*
X97731Y-38850D03*
X97731Y-39350D03*
X97731Y-39850D03*
X97731Y-40350D03*
X97731Y-40850D03*
X97731Y-41350D03*
X97731Y-41850D03*
X97731Y-42350D03*
X97731Y-42850D03*
X97731Y-43350D03*
X97731Y-43850D03*
X97731Y-44350D03*
X97731Y-44850D03*
X97731Y-45350D03*
X102769Y-45350D03*
X102769Y-44850D03*
X102769Y-44350D03*
X102769Y-43850D03*
X102769Y-43350D03*
X102769Y-42850D03*
X102769Y-42350D03*
X102769Y-41850D03*
X102769Y-41350D03*
X102769Y-40850D03*
X102769Y-40350D03*
X102769Y-39850D03*
X102769Y-39350D03*
X102769Y-38850D03*
X102769Y-38350D03*
X102769Y-37850D03*
X89281Y-37850D03*
X89281Y-38350D03*
X89281Y-38850D03*
X89281Y-39350D03*
X89281Y-39850D03*
X89281Y-40350D03*
X89281Y-40850D03*
X89281Y-41350D03*
X89281Y-41850D03*
X89281Y-42350D03*
X89281Y-42850D03*
X89281Y-43350D03*
X89281Y-43850D03*
X89281Y-44350D03*
X89281Y-44850D03*
X89281Y-45350D03*
X94319Y-45350D03*
X94319Y-44850D03*
X94319Y-44350D03*
X94319Y-43850D03*
X94319Y-43350D03*
X94319Y-42850D03*
X94319Y-42350D03*
X94319Y-41850D03*
X94319Y-41350D03*
X94319Y-40850D03*
X94319Y-40350D03*
X94319Y-39850D03*
X94319Y-39350D03*
X94319Y-38850D03*
X94319Y-38350D03*
X94319Y-37850D03*
M02*
