M48
;DRILL file {PCBnew (2011-07-08 BZR 3044)-stable} date 7/22/2013 3:39:31 PM
;FORMAT={-:-/ absolute / metric / decimal}
FMAT,2
METRIC,TZ
T1C0.300
T2C0.584
T3C0.813
T4C1.001
T5C1.016
T6C2.301
T7C2.799
T8C3.000
T9C3.048
%
G90
G05
M71
T1
X100.457Y135.001
X101.092Y120.015
X101.194Y87.732
X101.448Y112.725
X101.600Y105.791
X101.600Y215.392
X101.854Y108.966
X104.648Y201.676
X105.410Y90.170
X106.375Y85.598
X107.135Y96.431
X108.204Y215.900
X109.474Y215.900
X111.252Y157.734
X111.506Y144.018
X111.887Y135.001
X112.014Y97.892
X112.014Y173.736
X112.268Y190.373
X112.776Y104.902
X113.030Y90.170
X113.284Y206.756
X113.284Y209.296
X114.046Y205.994
X114.300Y97.536
X114.300Y215.646
X115.062Y96.647
X115.443Y94.996
X115.570Y144.018
X116.332Y94.234
X116.332Y96.774
X117.399Y93.167
X118.110Y120.599
X118.491Y88.138
X119.075Y152.806
X119.634Y218.440
X119.888Y217.424
X121.412Y185.014
X121.412Y213.360
X123.190Y216.916
X124.206Y212.217
X124.206Y213.614
X124.714Y181.331
X124.816Y179.095
X124.968Y211.455
X125.222Y215.138
X128.016Y215.900
X129.667Y160.909
X140.807Y157.559
X141.089Y165.184
X141.247Y154.445
X141.331Y158.948
X141.986Y209.931
X143.172Y159.756
X143.236Y162.179
X143.320Y163.754
X143.637Y209.677
X143.998Y168.204
X144.767Y160.056
X144.780Y214.376
X144.907Y111.760
X145.390Y182.626
X145.491Y138.379
X145.542Y195.834
X145.565Y162.146
X145.745Y96.063
X145.844Y215.643
X145.857Y122.789
X146.355Y130.810
X146.855Y99.367
X147.604Y194.000
X147.866Y190.538
X147.876Y112.014
X148.793Y150.673
X149.733Y200.660
X149.911Y89.408
X149.987Y167.767
X150.063Y100.686
X150.442Y146.162
X150.749Y97.790
X150.914Y144.336
X152.044Y85.141
X152.319Y116.416
X153.027Y120.350
X153.337Y217.180
X153.518Y176.784
X153.647Y150.106
X153.675Y150.873
X153.952Y140.625
X154.450Y151.651
X154.780Y211.074
X155.067Y221.615
X155.334Y184.061
X155.344Y170.307
X156.464Y144.653
X156.558Y147.871
X156.754Y136.685
X156.754Y142.761
X157.831Y168.339
X157.907Y167.043
X158.115Y139.700
X158.232Y155.433
X158.778Y177.419
X159.007Y156.555
X159.385Y211.074
X160.274Y207.264
X160.330Y169.647
X160.482Y95.532
X160.736Y146.342
X161.254Y157.244
X161.315Y89.789
X161.491Y147.239
X161.666Y145.466
X161.671Y220.726
X161.679Y108.565
X161.798Y103.200
X161.874Y160.604
X161.925Y86.995
X162.215Y155.938
X162.331Y111.354
X162.560Y182.880
X162.560Y189.484
X162.634Y134.087
X162.641Y148.560
X162.662Y185.953
X162.954Y184.147
X162.966Y109.626
X163.068Y129.286
X163.101Y134.874
X163.350Y105.590
X163.360Y150.160
X163.881Y94.132
X164.071Y202.895
X164.282Y110.084
X164.338Y146.558
X164.465Y135.128
X164.465Y138.938
X164.516Y106.502
X164.874Y153.337
X165.367Y201.092
X165.511Y111.079
X165.524Y183.789
X165.529Y179.791
X165.539Y180.790
X165.542Y181.790
X165.585Y122.672
X165.989Y103.175
X166.116Y106.274
X166.167Y179.197
X166.205Y172.491
X166.218Y200.838
X166.233Y152.265
X166.296Y151.033
X166.510Y168.516
X166.688Y171.196
X166.688Y208.471
X166.726Y115.153
X166.756Y199.144
X166.878Y186.944
X167.107Y202.705
X167.348Y166.675
X167.513Y135.255
X167.864Y154.343
X168.166Y153.114
X168.239Y201.958
X168.298Y108.077
X168.328Y111.732
X168.402Y199.898
X168.412Y201.120
X168.440Y155.113
X168.712Y150.454
X168.740Y120.777
X168.910Y172.974
X169.631Y175.562
X169.824Y68.936
X170.129Y160.604
X171.615Y203.111
X171.704Y157.089
X172.453Y209.728
X172.466Y185.420
X173.228Y185.166
X173.292Y154.267
X173.365Y155.240
X173.380Y152.705
X173.606Y209.106
X173.667Y206.700
X173.838Y160.655
X173.990Y184.658
X174.257Y194.488
X174.285Y205.565
X174.752Y184.404
X174.752Y186.690
X174.752Y188.976
X174.879Y191.135
X175.006Y197.866
X175.260Y172.974
X175.260Y199.136
X175.321Y107.254
X175.514Y133.121
X175.527Y209.931
X176.047Y194.145
X176.098Y117.754
X176.263Y190.302
X176.644Y167.640
X176.682Y135.966
X176.710Y206.700
X176.738Y108.671
X177.038Y184.404
X177.114Y134.137
X177.292Y185.420
X177.292Y186.690
X177.622Y194.145
X177.749Y180.950
X177.800Y187.452
X177.825Y128.575
X178.308Y177.800
X178.486Y104.419
X178.664Y147.422
X178.943Y107.747
X178.994Y176.380
X179.324Y188.747
X179.781Y154.229
X179.832Y175.768
X180.086Y193.548
X180.340Y177.546
X180.365Y113.030
X180.467Y104.597
X180.492Y121.564
X180.500Y101.054
X180.518Y103.632
X180.645Y157.081
X180.650Y87.076
X180.650Y98.722
X180.754Y204.932
X181.138Y159.408
X181.229Y213.182
X181.331Y107.518
X181.409Y157.061
X181.549Y103.566
X181.605Y205.148
X182.303Y113.914
X182.372Y172.720
X182.415Y205.224
X182.499Y107.518
X182.626Y187.706
X182.728Y108.382
X182.761Y121.493
X182.880Y184.150
X182.969Y101.669
X183.388Y116.230
X183.515Y64.592
X183.642Y182.880
X183.766Y81.702
X183.899Y68.522
X184.023Y193.561
X184.023Y201.041
X184.064Y82.540
X184.214Y208.407
X184.320Y105.590
X184.353Y65.303
X184.404Y172.288
X184.404Y197.866
X184.404Y200.279
X184.478Y182.303
X184.531Y201.676
X184.661Y165.130
X185.166Y202.311
X185.293Y204.597
X185.390Y200.541
X185.674Y202.946
X186.317Y169.037
X186.360Y197.612
X186.563Y198.399
X186.855Y161.663
X187.071Y196.291
X187.300Y185.420
X187.376Y198.526
X187.414Y70.173
X187.452Y191.516
X187.693Y216.243
X187.935Y205.583
X188.036Y196.037
X188.189Y198.958
X188.214Y62.357
X188.570Y170.815
X188.570Y188.976
X188.595Y166.497
X188.976Y138.735
X189.230Y205.486
X189.281Y178.638
X189.306Y77.140
X189.794Y108.179
X190.045Y73.061
X190.119Y70.536
X190.119Y168.148
X190.170Y66.827
X190.627Y85.026
X190.729Y198.984
X190.754Y124.866
X190.906Y193.421
X190.957Y75.717
X190.983Y71.095
X191.107Y143.901
X191.237Y216.992
X191.414Y189.890
X191.414Y192.786
X191.440Y198.501
X191.491Y167.094
X191.564Y168.420
X191.567Y188.620
X191.592Y214.427
X191.765Y201.861
X192.278Y123.190
X192.278Y198.247
X192.405Y192.507
X192.443Y165.189
X192.532Y199.898
X192.936Y97.356
X193.119Y118.509
X193.576Y73.363
X194.104Y83.155
X194.640Y178.689
X194.673Y92.969
X194.831Y110.617
X195.199Y71.018
X195.252Y120.218
X195.288Y72.918
X195.669Y93.848
X196.088Y203.200
X196.367Y201.193
X196.395Y119.263
X196.797Y205.908
X197.066Y118.509
X197.129Y92.817
X197.907Y92.164
X198.130Y202.476
X198.247Y178.765
X199.034Y83.515
X199.136Y64.567
X199.898Y220.345
X199.974Y200.558
X200.241Y166.891
X201.371Y216.751
X201.930Y83.503
X202.159Y217.449
X202.682Y98.019
X202.819Y81.661
X203.357Y91.044
X203.619Y215.773
X203.810Y186.639
X203.810Y190.144
X203.835Y216.662
X204.041Y204.871
X204.114Y188.214
X204.579Y120.914
X204.673Y69.367
X205.133Y119.195
X205.511Y194.361
X205.516Y90.444
X205.613Y70.206
X205.715Y100.355
X206.248Y192.176
X206.324Y194.539
X206.350Y188.824
X206.527Y87.909
X206.654Y104.343
X206.654Y106.451
X206.883Y189.382
X206.886Y89.487
X206.959Y195.047
X207.010Y69.266
X207.119Y184.252
X207.310Y140.233
X207.467Y189.890
X207.518Y75.667
X207.546Y119.075
X207.645Y194.666
X207.721Y192.024
X208.661Y126.111
X208.661Y130.556
X208.803Y107.020
X208.991Y203.962
X208.996Y106.032
X209.235Y110.665
X209.296Y200.457
X209.550Y195.351
X209.743Y88.489
X210.104Y115.308
X210.236Y189.205
X210.304Y199.768
X210.312Y85.090
X210.464Y75.890
X210.490Y195.504
X210.541Y117.681
X210.718Y113.304
X210.873Y98.019
X211.087Y109.931
X211.353Y131.343
X211.358Y112.428
X211.564Y64.915
X211.676Y71.529
X211.963Y166.243
X212.235Y127.064
X212.535Y86.106
X212.954Y191.008
X213.411Y224.587
X213.436Y127.960
X213.665Y221.437
X213.987Y71.064
X214.033Y158.445
X214.160Y166.434
X214.224Y220.878
X214.795Y157.188
X214.897Y71.039
X215.049Y169.139
X215.290Y220.878
X215.290Y221.742
X215.430Y166.319
X215.544Y207.010
X215.595Y164.389
X215.613Y179.723
X215.900Y130.556
X216.103Y190.957
X216.256Y220.878
X216.284Y128.859
X216.342Y69.693
X216.345Y208.928
X216.352Y82.487
X216.814Y188.519
X216.911Y171.092
X217.068Y203.962
X217.221Y220.828
X217.348Y138.646
X217.424Y187.757
X217.780Y222.453
X217.805Y79.502
X218.034Y209.563
X218.135Y187.249
X218.237Y130.988
X218.326Y157.048
X218.389Y220.777
X218.694Y83.185
X218.694Y85.598
X218.745Y186.639
X219.075Y78.613
X219.151Y140.411
X219.380Y204.876
X219.502Y118.979
X219.530Y207.929
X219.550Y114.651
X219.608Y202.946
X219.862Y173.777
X219.862Y186.131
X219.926Y153.873
X220.038Y112.916
X220.152Y91.625
X220.160Y125.014
X220.264Y158.257
X220.282Y78.677
X220.421Y178.821
X220.472Y94.107
X220.472Y202.895
X220.599Y188.519
X220.624Y204.902
X220.929Y186.080
X220.955Y83.998
X221.110Y71.067
X221.234Y189.814
X221.254Y95.928
X221.361Y178.689
X221.910Y203.050
X221.920Y148.107
X222.047Y216.662
X222.250Y104.140
X222.306Y94.915
X222.326Y204.780
X222.402Y217.576
X222.677Y202.842
X223.012Y84.519
X223.048Y90.399
X223.114Y121.056
X223.142Y112.034
X223.187Y116.650
X223.215Y188.971
X223.225Y92.174
X223.230Y88.011
X223.253Y202.067
X223.319Y132.626
X223.340Y178.895
X223.370Y187.942
X223.827Y209.474
X224.130Y182.303
X224.142Y97.762
X224.208Y84.549
X224.236Y170.957
X224.409Y83.439
X224.516Y201.610
X224.536Y104.242
X224.536Y124.211
X224.559Y118.491
X224.610Y184.866
X224.612Y80.239
X224.716Y183.766
X224.884Y191.115
X224.958Y204.780
X224.968Y168.902
X225.095Y178.473
X225.158Y159.982
X225.196Y101.219
X225.588Y186.771
X225.743Y180.294
X226.162Y156.007
X226.281Y92.136
X226.360Y92.903
X226.436Y204.780
X226.436Y214.681
X226.441Y197.427
X226.492Y63.068
X226.568Y168.453
X226.632Y82.360
X226.769Y178.364
X226.967Y181.412
X226.969Y216.464
X227.279Y171.000
X227.343Y154.661
X227.467Y90.950
X227.510Y179.979
X227.559Y80.416
X228.016Y62.128
X228.029Y185.039
X228.082Y200.470
X228.237Y183.048
X228.374Y75.662
X228.384Y190.597
X228.384Y195.054
X228.397Y172.357
X228.664Y80.963
X228.676Y140.818
X228.724Y199.225
X228.864Y196.098
X229.019Y192.098
X229.057Y121.031
X229.057Y170.129
X229.108Y189.230
X229.464Y146.634
X229.489Y76.116
X229.489Y84.201
X229.591Y172.898
X229.680Y79.185
X229.751Y195.097
X230.279Y96.591
X230.281Y131.303
X230.807Y157.157
X230.886Y149.936
X231.005Y107.569
X231.036Y123.657
X231.056Y131.397
X231.064Y161.036
X231.115Y168.377
X231.140Y201.930
X231.176Y140.716
X231.264Y156.528
X231.463Y155.656
X231.465Y154.788
X231.554Y100.251
X231.668Y95.446
X231.800Y99.223
X231.927Y105.946
X232.232Y154.937
X232.390Y103.759
X232.395Y158.288
X232.448Y191.097
X232.458Y194.597
X232.537Y61.112
X232.595Y75.499
X232.598Y193.241
X232.651Y201.902
X232.674Y110.109
X232.855Y102.944
X232.870Y81.450
X233.162Y158.130
X233.324Y61.443
X233.327Y76.891
X233.413Y189.085
X233.426Y126.543
X233.429Y94.104
X233.627Y104.699
X233.627Y158.900
X233.749Y202.105
X233.832Y196.799
X233.858Y101.686
X233.883Y93.193
X234.023Y195.697
X234.058Y174.122
X234.086Y61.544
X234.239Y221.691
X234.371Y79.586
X234.556Y151.445
X234.569Y145.288
X234.643Y189.288
X234.671Y100.541
X234.696Y184.404
X234.729Y94.742
X234.732Y119.139
X234.780Y99.776
X234.823Y160.325
X234.859Y122.979
X234.876Y173.192
X234.897Y202.420
X235.006Y92.730
X235.057Y174.122
X235.270Y77.137
X235.407Y221.031
X235.522Y207.086
X235.643Y103.424
X235.687Y203.200
X235.834Y210.167
X235.890Y192.047
X236.220Y73.589
X236.223Y67.252
X236.245Y169.799
X236.322Y197.561
X236.372Y220.777
X236.385Y201.877
X236.403Y81.648
X236.423Y218.542
X236.525Y221.742
X236.677Y219.964
X236.695Y104.120
X236.733Y63.566
X236.738Y78.062
X236.786Y160.792
X236.982Y181.483
X237.183Y157.726
X237.183Y160.025
X237.266Y71.496
X237.388Y201.676
X237.388Y219.405
X237.419Y72.334
X237.663Y162.593
X237.739Y65.888
X237.846Y172.314
X237.947Y198.018
X238.316Y208.801
X238.354Y172.949
X238.506Y93.802
X238.506Y171.628
X238.531Y205.143
X238.658Y196.545
X238.760Y219.456
X238.938Y166.370
X238.961Y72.852
X239.090Y73.619
X239.090Y167.132
X239.108Y152.281
X239.319Y197.358
X239.319Y198.171
X239.512Y74.699
X239.522Y91.059
X239.608Y189.972
X239.850Y192.047
X240.030Y172.060
X240.370Y84.275
X240.497Y78.677
X240.741Y207.328
X240.843Y214.986
X240.944Y172.568
X240.960Y123.312
X240.983Y90.107
X240.995Y87.782
X241.325Y206.820
X241.463Y209.428
X241.605Y197.002
X241.618Y66.297
X241.635Y72.466
X241.673Y74.818
X241.859Y197.917
X241.917Y77.285
X242.037Y108.615
X242.037Y125.933
X242.037Y172.517
X242.113Y61.849
X242.118Y78.514
X242.123Y191.559
X242.570Y219.456
X242.735Y119.164
X242.745Y175.763
X242.926Y203.302
X242.951Y147.498
X242.976Y140.970
X243.007Y126.784
X243.015Y64.574
X243.205Y167.437
X243.619Y149.304
X243.672Y145.961
X243.738Y196.494
X243.738Y203.454
X243.779Y63.157
X243.919Y79.118
X244.094Y201.879
X244.119Y102.591
X244.124Y117.701
X244.262Y189.873
X244.348Y125.882
X244.424Y168.478
X244.450Y203.810
X244.653Y195.072
X244.721Y139.367
X244.747Y144.145
X244.785Y158.062
X244.810Y79.118
X244.864Y63.919
X244.866Y165.707
X244.978Y100.023
X245.135Y179.908
X245.364Y176.276
X245.364Y183.134
X245.364Y188.976
X245.453Y87.158
X245.567Y103.683
X245.593Y101.524
X245.593Y160.757
X245.631Y64.186
X245.669Y197.764
X245.720Y202.997
X245.745Y106.934
X245.770Y102.845
X245.821Y203.759
X245.872Y183.896
X245.923Y202.133
X245.979Y145.288
X246.045Y117.013
X246.093Y124.330
X246.380Y184.658
X246.380Y219.456
X246.456Y179.807
X246.736Y197.714
X246.845Y213.109
X246.964Y122.436
X247.104Y191.026
X247.241Y173.934
X247.294Y167.488
X247.579Y90.213
X247.843Y108.948
X247.990Y142.636
X248.082Y126.263
X248.145Y173.934
X248.206Y170.330
X248.260Y216.764
X248.564Y172.644
X248.763Y173.444
X248.793Y138.557
X248.818Y175.616
X248.973Y170.264
X249.098Y64.973
X249.197Y171.089
X249.756Y90.292
X250.099Y173.934
X250.190Y219.456
X250.444Y195.072
X250.495Y112.116
X250.520Y99.619
X250.520Y106.274
X250.596Y96.164
X250.665Y64.681
X250.698Y62.001
X250.825Y180.619
X250.911Y192.484
X250.927Y196.113
X250.952Y103.708
X251.102Y110.343
X251.214Y173.932
X251.234Y168.130
X251.404Y194.450
X251.457Y65.253
X251.460Y178.054
X251.531Y62.647
X251.658Y64.247
X251.696Y214.310
X251.790Y106.172
X251.915Y63.383
X251.917Y107.569
X251.968Y172.542
X251.968Y176.530
X252.171Y146.533
X252.247Y75.682
X252.324Y175.743
X252.679Y173.533
X252.832Y217.576
X252.852Y115.672
X252.933Y102.921
X253.111Y93.980
X253.238Y97.155
X253.746Y205.638
X253.782Y116.583
X254.091Y79.901
X254.274Y64.572
X254.401Y69.146
X254.630Y158.626
X254.650Y105.016
X254.676Y73.558
X254.686Y197.180
X254.711Y193.802
X254.716Y91.427
X254.762Y198.628
X254.925Y175.517
X255.194Y172.568
X255.265Y104.087
X255.270Y188.468
X255.334Y171.602
X255.367Y111.379
X255.676Y205.283
X255.679Y64.206
X255.712Y169.799
X255.753Y196.799
X255.773Y119.474
X256.111Y180.287
X256.520Y126.517
X256.555Y175.519
X256.560Y97.226
X256.642Y205.588
X256.990Y93.782
X257.302Y205.080
X257.358Y66.002
X257.452Y104.470
X257.556Y210.668
X257.749Y119.964
X257.790Y111.379
X257.823Y153.975
X257.914Y102.489
X258.092Y98.679
X258.115Y204.953
X258.155Y108.839
X258.186Y97.483
X258.394Y72.619
X258.420Y87.782
X258.745Y127.833
X258.801Y201.813
X258.834Y123.101
X259.184Y181.745
X259.329Y87.160
X259.740Y127.432
X259.799Y198.346
X259.956Y87.805
X260.858Y214.732
X261.452Y122.682
X261.452Y129.786
X261.658Y195.072
X261.915Y202.199
X262.136Y132.258
X262.186Y94.044
X262.446Y182.977
X262.446Y193.454
X262.745Y166.700
X262.827Y155.893
X262.979Y167.843
X263.014Y131.542
X263.347Y192.430
X263.398Y108.590
X263.444Y101.239
X263.652Y190.754
X263.771Y102.700
X263.893Y117.620
X264.615Y63.106
X264.940Y111.102
X265.377Y75.004
X265.697Y171.831
X265.941Y73.779
X266.220Y201.427
X266.273Y71.791
X266.388Y75.428
X266.535Y164.059
X266.548Y166.675
X266.776Y162.662
X266.936Y112.649
X266.964Y161.775
X266.967Y187.846
X267.025Y77.480
X267.056Y149.885
X267.132Y159.664
X267.317Y106.667
X267.335Y181.762
X267.386Y204.775
X267.462Y180.721
X267.538Y184.658
X267.698Y74.094
X267.703Y174.955
X267.917Y99.479
X267.917Y171.872
X267.922Y110.297
X268.021Y149.200
X268.021Y158.547
X268.188Y103.414
X268.265Y115.364
X268.486Y189.321
X268.978Y69.299
X268.986Y142.545
X269.164Y119.159
X269.298Y114.643
X269.385Y104.694
X269.395Y74.155
X269.606Y75.755
X269.786Y185.354
X269.799Y182.905
X270.002Y156.566
X270.053Y214.122
X270.111Y163.853
X270.152Y65.065
X270.256Y151.181
X270.332Y189.911
X270.929Y72.997
X270.975Y96.357
X270.995Y114.239
X271.120Y211.125
X271.262Y118.237
X271.369Y186.439
X271.450Y92.786
X271.729Y97.053
X271.752Y149.416
X271.755Y198.399
X272.029Y193.485
X272.059Y171.077
X272.136Y189.840
X272.237Y168.605
X272.237Y184.836
X272.357Y73.551
X272.392Y106.985
X272.821Y119.151
X272.839Y63.678
X273.101Y168.910
X273.101Y181.788
X273.220Y80.119
X273.274Y108.135
X273.411Y101.496
X273.456Y114.046
X273.482Y182.931
X273.558Y197.002
X273.599Y78.722
X273.616Y142.994
X273.863Y191.211
X273.876Y107.650
X273.876Y157.455
X273.990Y160.579
X274.008Y80.886
X274.157Y75.093
X274.244Y111.404
X274.472Y77.848
X274.676Y200.482
X274.701Y164.897
X274.930Y129.159
X274.942Y109.619
X275.209Y155.600
X275.529Y102.509
X276.479Y103.124
X277.274Y172.077
X277.292Y184.582
X277.335Y160.846
X277.470Y159.461
X277.647Y154.153
X277.693Y178.742
X278.105Y186.919
X278.460Y202.387
X278.902Y179.619
X279.400Y160.630
X279.857Y185.090
X279.895Y174.943
X280.314Y160.731
X280.378Y102.118
X280.403Y184.506
X280.505Y78.148
X280.594Y63.475
X281.280Y198.603
X281.305Y183.769
X281.483Y130.429
X281.508Y200.558
X281.737Y216.408
X282.257Y129.985
X282.575Y67.132
X282.854Y182.067
X283.083Y195.707
X283.172Y196.850
X283.820Y128.016
X284.480Y167.970
X284.531Y131.826
X284.582Y100.533
X284.632Y160.117
X285.217Y132.613
X285.953Y133.401
X285.956Y168.133
X286.649Y168.547
X286.868Y133.452
X287.833Y133.452
X287.939Y167.142
X288.925Y82.271
X289.128Y176.936
X289.281Y133.972
X289.611Y126.898
X289.916Y214.274
X290.627Y95.428
X290.754Y98.146
X291.109Y131.750
X291.363Y136.119
X291.440Y67.056
X291.465Y96.799
X291.617Y129.870
X291.719Y68.021
X291.973Y168.046
X291.998Y178.181
X292.291Y160.973
X292.318Y136.139
X292.608Y166.954
X292.633Y92.786
X292.964Y94.285
X293.053Y155.639
X293.243Y172.085
X293.472Y107.036
X294.310Y91.846
X294.335Y169.951
X294.637Y175.166
X295.173Y88.976
X295.402Y193.294
X295.504Y126.898
X296.868Y118.938
X296.868Y121.603
X296.901Y70.028
X297.688Y80.975
X298.602Y128.702
X298.704Y81.839
X299.022Y161.481
X299.822Y185.826
X299.847Y119.507
X299.923Y99.263
X299.974Y147.384
X299.974Y209.829
X300.340Y128.806
X300.764Y190.500
X301.422Y152.959
X301.435Y164.719
X301.447Y80.975
X301.562Y146.622
X301.600Y92.710
X302.070Y145.860
X302.578Y167.323
X302.641Y168.148
X303.014Y129.283
X303.467Y158.687
X303.657Y149.289
X304.038Y169.863
X304.229Y147.447
X304.229Y148.400
X305.245Y167.386
X305.626Y169.926
X306.324Y170.498
X307.670Y182.634
X307.721Y174.244
X307.848Y160.973
X308.280Y173.406
X308.293Y161.735
X309.690Y161.798
X309.753Y89.383
X310.007Y160.084
X310.769Y151.511
X311.023Y81.128
X311.175Y101.575
X311.318Y121.615
X311.404Y147.066
X312.090Y136.449
X312.191Y137.312
X312.230Y153.543
X312.506Y74.463
X313.588Y121.615
X313.690Y102.184
X313.850Y175.219
X314.310Y132.972
X314.310Y139.639
X314.495Y174.216
X314.843Y193.703
X315.427Y90.576
X315.432Y139.817
X315.458Y81.166
X315.679Y72.614
X316.916Y180.797
X316.929Y161.671
X317.650Y81.303
X318.105Y79.218
X318.262Y191.008
X318.516Y189.789
X318.935Y85.428
X319.176Y125.806
X320.599Y115.418
X320.827Y209.956
X321.386Y206.451
X321.412Y112.954
X323.266Y81.280
X326.187Y211.430
X326.263Y79.350
X326.542Y126.721
X326.746Y117.475
X326.893Y128.806
X327.508Y73.576
X328.930Y115.519
X330.017Y74.115
X330.568Y70.132
X331.597Y148.565
X331.978Y156.718
X332.638Y149.631
X332.715Y130.886
X332.979Y204.765
X333.629Y196.012
X334.010Y159.131
X335.077Y136.423
X335.222Y209.106
X336.540Y107.297
X336.550Y156.591
X336.913Y68.872
X337.693Y190.094
X337.962Y72.517
X338.887Y112.420
X338.887Y116.434
X339.674Y130.835
X340.449Y135.024
X341.122Y154.432
X341.757Y118.491
X341.757Y153.543
X342.400Y158.181
X343.126Y155.839
T2
X98.806Y218.694
X115.062Y204.978
X126.769Y192.001
X129.286Y212.725
X131.204Y147.422
X132.715Y81.534
X132.715Y86.106
X136.627Y185.877
X136.957Y83.505
X139.878Y181.788
X142.075Y147.257
X144.717Y186.715
X145.529Y175.133
X147.066Y220.167
X147.726Y164.135
X150.719Y208.369
X158.064Y186.309
X158.242Y195.570
X158.433Y159.880
X159.723Y114.521
X164.310Y124.587
X164.739Y200.144
X164.846Y219.989
X165.379Y173.152
X167.602Y198.095
X169.616Y183.388
X170.383Y176.797
X171.704Y183.642
X173.784Y179.451
X174.854Y162.077
X175.768Y184.150
X175.959Y161.569
X176.327Y152.451
X177.216Y192.037
X178.664Y194.183
X180.924Y187.757
X181.356Y189.586
X182.245Y70.358
X182.283Y176.428
X183.515Y220.068
X186.093Y159.207
X186.881Y80.201
X190.025Y127.081
X191.491Y179.680
X192.075Y185.826
X192.474Y163.068
X195.631Y191.897
X218.008Y159.080
X220.396Y149.403
X222.606Y151.613
X223.317Y159.283
X223.520Y162.192
X224.587Y197.815
X226.695Y76.708
X230.477Y115.009
X231.902Y162.103
X232.029Y163.881
X232.867Y224.549
X233.662Y169.535
X234.340Y163.220
X235.407Y185.242
X236.322Y179.959
X237.058Y172.949
X237.058Y205.486
X237.719Y182.372
X237.998Y175.971
X239.725Y181.432
X241.021Y180.162
X241.071Y201.397
X243.035Y185.984
X244.450Y111.404
X246.698Y76.327
X247.117Y158.064
X247.142Y144.094
X248.087Y115.948
X248.851Y69.840
X249.885Y196.799
X250.698Y186.436
X250.749Y149.123
X250.749Y157.836
X251.272Y115.189
X251.732Y117.218
X253.302Y68.770
X255.288Y186.047
X255.461Y69.660
X255.626Y178.524
X255.981Y162.001
X256.692Y192.596
X258.760Y182.890
X259.080Y205.105
X260.553Y159.360
X261.976Y205.080
X262.128Y94.869
X263.525Y103.734
X263.525Y202.971
X266.065Y99.060
X269.037Y220.015
X269.392Y203.505
X272.745Y141.503
X278.613Y148.006
X281.000Y176.428
X281.407Y169.875
X281.864Y164.541
X282.016Y155.651
X282.727Y163.220
X282.956Y217.627
X283.362Y153.924
X285.242Y182.423
X288.087Y220.116
X291.897Y147.320
X293.726Y153.772
X295.199Y221.564
X295.580Y151.917
X303.467Y157.417
X303.682Y143.256
X306.705Y160.338
X306.832Y142.875
X307.213Y167.323
X316.408Y141.503
X324.434Y139.167
X335.255Y73.609
X336.296Y129.413
X336.451Y203.200
T3
X115.824Y146.304
X115.824Y151.384
X118.110Y137.414
X118.110Y140.462
X118.110Y143.256
X118.618Y187.706
X118.618Y192.786
X123.952Y100.330
X123.952Y102.870
X123.952Y105.410
X123.952Y107.950
X123.952Y110.490
X123.952Y113.030
X123.952Y115.570
X125.222Y94.996
X125.476Y132.334
X125.730Y137.414
X125.730Y140.462
X125.730Y143.256
X126.492Y218.186
X126.492Y223.266
X128.016Y132.334
X129.032Y138.176
X130.302Y94.996
X130.302Y143.256
X131.572Y100.330
X131.572Y102.870
X131.572Y105.410
X131.572Y107.950
X131.572Y110.490
X131.572Y113.030
X131.572Y115.570
X131.572Y138.176
X132.842Y143.256
X134.112Y218.186
X134.112Y223.266
X146.177Y78.740
X151.257Y78.740
X176.403Y78.740
X177.165Y215.519
X177.165Y223.139
X179.705Y215.519
X179.705Y223.139
X181.483Y78.740
X182.245Y215.519
X182.245Y223.139
X184.785Y215.519
X184.785Y223.139
X189.738Y157.988
X189.738Y163.068
X194.818Y156.972
X194.818Y164.592
X195.453Y223.647
X197.358Y156.972
X197.358Y164.592
X197.993Y223.647
X199.898Y156.972
X199.898Y164.592
X200.533Y223.647
X202.438Y156.972
X202.438Y164.592
X203.073Y223.647
X204.978Y156.972
X204.978Y164.592
X205.613Y223.647
X205.740Y78.740
X207.518Y156.972
X207.518Y164.592
X208.153Y223.647
X210.058Y156.972
X210.058Y164.592
X210.820Y78.740
X231.140Y89.662
X233.934Y83.058
X236.220Y89.662
X236.474Y83.058
X239.014Y83.058
X243.142Y84.836
X245.682Y84.836
X248.222Y84.836
X251.714Y84.836
X251.714Y89.662
X254.254Y84.836
X254.914Y224.130
X256.794Y84.836
X256.794Y89.662
X257.454Y224.130
X259.994Y224.130
X262.534Y224.130
X265.074Y224.130
X267.614Y224.130
X270.154Y224.130
X272.694Y224.130
X275.590Y224.130
X278.130Y224.130
X280.670Y224.130
X283.210Y224.130
X285.623Y204.597
X285.623Y207.137
X285.750Y224.130
X288.290Y224.130
X290.144Y197.460
X290.144Y202.540
X290.830Y224.130
X291.846Y208.407
X291.846Y210.947
X293.370Y224.130
X294.513Y213.360
X294.513Y215.900
X294.716Y196.444
X294.716Y204.064
X297.256Y196.444
X297.256Y204.064
X297.307Y208.407
X297.307Y210.947
X297.434Y181.102
X299.796Y196.444
X299.796Y204.064
X299.974Y213.360
X299.974Y215.900
X302.336Y196.444
X302.336Y204.064
X304.876Y196.444
X304.876Y204.064
X305.054Y181.102
X306.070Y185.928
X306.070Y188.468
X306.070Y191.008
X306.197Y210.312
X306.197Y212.852
X306.197Y215.392
X307.416Y196.444
X307.416Y204.064
X307.594Y83.947
X307.594Y86.487
X307.594Y89.027
X307.594Y91.567
X307.594Y94.107
X307.594Y96.647
X307.594Y99.187
X307.594Y101.727
X307.594Y104.267
X307.594Y106.807
X307.594Y109.347
X307.594Y111.887
X307.594Y114.427
X307.594Y116.967
X307.594Y119.507
X307.594Y122.047
X307.594Y124.587
X307.594Y127.127
X307.594Y129.667
X307.594Y132.207
X309.626Y210.312
X309.626Y212.852
X309.626Y215.392
X309.956Y196.444
X309.956Y204.064
X310.388Y185.928
X310.388Y188.468
X310.388Y191.008
X312.293Y76.835
X312.496Y196.444
X312.496Y204.064
X313.690Y67.437
X314.071Y185.928
X314.071Y188.468
X314.071Y191.008
X317.373Y76.835
X322.834Y83.947
X322.834Y86.487
X322.834Y89.027
X322.834Y91.567
X322.834Y94.107
X322.834Y96.647
X322.834Y99.187
X322.834Y101.727
X322.834Y104.267
X322.834Y106.807
X322.834Y109.347
X322.834Y111.887
X322.834Y114.427
X322.834Y116.967
X322.834Y119.507
X322.834Y122.047
X322.834Y124.587
X322.834Y127.127
X322.834Y129.667
X322.834Y132.207
X330.200Y83.693
X330.200Y86.233
X330.200Y88.773
X330.200Y91.313
X330.200Y93.853
X330.200Y96.393
X330.200Y98.933
X330.200Y101.473
X330.200Y104.013
X330.200Y106.553
X330.200Y109.093
X330.200Y111.633
X330.200Y114.173
X330.200Y116.713
X330.200Y119.253
X330.200Y121.793
X330.200Y124.333
X330.200Y126.873
X330.200Y129.413
X330.200Y131.953
X335.026Y76.835
X338.455Y143.002
X338.455Y145.542
X338.455Y148.082
X338.455Y150.622
X339.979Y156.210
X340.106Y76.835
X345.059Y156.210
X345.440Y83.693
X345.440Y86.233
X345.440Y88.773
X345.440Y91.313
X345.440Y93.853
X345.440Y96.393
X345.440Y98.933
X345.440Y101.473
X345.440Y104.013
X345.440Y106.553
X345.440Y109.093
X345.440Y111.633
X345.440Y114.173
X345.440Y116.713
X345.440Y119.253
X345.440Y121.793
X345.440Y124.333
X345.440Y126.873
X345.440Y129.413
X345.440Y131.953
X345.821Y71.755
X345.821Y74.295
X345.821Y76.835
X346.075Y143.002
X346.075Y145.542
X346.075Y148.082
X346.075Y150.622
T4
X331.089Y213.360
X333.629Y213.360
X335.661Y213.360
X338.201Y213.360
T5
X101.346Y220.980
X101.346Y223.520
X101.600Y210.566
X101.600Y213.106
X103.886Y220.980
X103.886Y223.520
X104.140Y210.566
X104.140Y213.106
X106.426Y220.980
X106.426Y223.520
X108.458Y210.566
X108.458Y213.106
X108.966Y220.980
X108.966Y223.520
X110.998Y210.566
X110.998Y213.106
X111.506Y220.980
X111.506Y223.520
X115.189Y210.566
X115.189Y213.106
X117.729Y210.566
X117.729Y213.106
X121.412Y147.828
X121.412Y152.908
X129.032Y147.828
X129.032Y152.908
X137.351Y78.804
X138.430Y222.758
X139.891Y78.804
X140.183Y69.926
X140.970Y222.758
X142.723Y69.926
X194.374Y76.136
X196.914Y76.136
X200.152Y76.136
X202.692Y76.136
X243.332Y129.921
X243.332Y132.461
X243.332Y135.001
X243.332Y137.541
X245.872Y129.921
X245.872Y132.461
X245.872Y135.001
X245.872Y137.541
X277.114Y195.072
X277.114Y199.415
X279.654Y195.072
X279.654Y199.415
X307.721Y220.853
X307.721Y223.393
X310.261Y220.853
X310.261Y223.393
X312.801Y220.853
X312.801Y223.393
X313.690Y64.897
X315.341Y220.853
X315.341Y223.393
X316.230Y64.897
X316.230Y67.437
X317.881Y220.853
X317.881Y223.393
X318.770Y64.897
X318.770Y67.437
X321.310Y64.897
X321.310Y67.437
X323.850Y64.897
X323.850Y67.437
X326.390Y64.897
X326.390Y67.437
X328.930Y64.897
X328.930Y67.437
X331.470Y64.897
X331.470Y67.437
X334.010Y64.897
X334.010Y67.437
X336.550Y64.897
X336.550Y67.437
X337.503Y162.243
X337.503Y164.783
X337.503Y167.323
X337.503Y169.863
X337.503Y172.403
X339.090Y64.897
X339.090Y67.437
X340.043Y162.243
X340.043Y164.783
X340.043Y167.323
X340.043Y169.863
X340.043Y172.403
X341.630Y64.897
X341.630Y67.437
X344.170Y64.897
X344.170Y67.437
T6
X327.533Y216.027
X341.249Y216.027
T7
X99.596Y65.634
X104.597Y65.634
X109.598Y65.634
T8
X103.299Y77.089
X106.299Y81.788
X109.299Y77.089
T9
X120.000Y200.000
X125.001Y75.001
X299.999Y75.001
X335.001Y185.001
T4
X141.968Y86.614G85X139.972Y86.614
G05
X141.968Y89.154G85X139.972Y89.154
G05
X141.968Y91.694G85X139.972Y91.694
G05
X141.968Y94.234G85X139.972Y94.234
G05
X141.968Y96.774G85X139.972Y96.774
G05
X141.968Y99.314G85X139.972Y99.314
G05
X141.968Y101.854G85X139.972Y101.854
G05
X141.968Y104.394G85X139.972Y104.394
G05
X141.968Y106.934G85X139.972Y106.934
G05
X141.968Y109.474G85X139.972Y109.474
G05
X141.968Y112.014G85X139.972Y112.014
G05
X141.968Y114.554G85X139.972Y114.554
G05
X141.968Y117.094G85X139.972Y117.094
G05
X141.968Y119.634G85X139.972Y119.634
G05
X141.968Y122.174G85X139.972Y122.174
G05
X141.968Y124.714G85X139.972Y124.714
G05
X141.968Y127.254G85X139.972Y127.254
G05
X141.968Y129.794G85X139.972Y129.794
G05
X141.968Y132.334G85X139.972Y132.334
G05
X141.968Y134.874G85X139.972Y134.874
G05
X157.208Y86.614G85X155.212Y86.614
G05
X157.208Y89.154G85X155.212Y89.154
G05
X157.208Y91.694G85X155.212Y91.694
G05
X157.208Y94.234G85X155.212Y94.234
G05
X157.208Y96.774G85X155.212Y96.774
G05
X157.208Y99.314G85X155.212Y99.314
G05
X157.208Y101.854G85X155.212Y101.854
G05
X157.208Y104.394G85X155.212Y104.394
G05
X157.208Y106.934G85X155.212Y106.934
G05
X157.208Y109.474G85X155.212Y109.474
G05
X157.208Y112.014G85X155.212Y112.014
G05
X157.208Y114.554G85X155.212Y114.554
G05
X157.208Y117.094G85X155.212Y117.094
G05
X157.208Y119.634G85X155.212Y119.634
G05
X157.208Y122.174G85X155.212Y122.174
G05
X157.208Y124.714G85X155.212Y124.714
G05
X157.208Y127.254G85X155.212Y127.254
G05
X157.208Y129.794G85X155.212Y129.794
G05
X157.208Y132.334G85X155.212Y132.334
G05
X157.208Y134.874G85X155.212Y134.874
G05
X172.093Y86.487G85X170.096Y86.487
G05
X172.093Y89.027G85X170.096Y89.027
G05
X172.093Y91.567G85X170.096Y91.567
G05
X172.093Y94.107G85X170.096Y94.107
G05
X172.093Y96.647G85X170.096Y96.647
G05
X172.093Y99.187G85X170.096Y99.187
G05
X172.093Y101.727G85X170.096Y101.727
G05
X172.093Y104.267G85X170.096Y104.267
G05
X172.093Y106.807G85X170.096Y106.807
G05
X172.093Y109.347G85X170.096Y109.347
G05
X172.093Y111.887G85X170.096Y111.887
G05
X172.093Y114.427G85X170.096Y114.427
G05
X172.093Y116.967G85X170.096Y116.967
G05
X172.093Y119.507G85X170.096Y119.507
G05
X172.093Y122.047G85X170.096Y122.047
G05
X172.093Y124.587G85X170.096Y124.587
G05
X187.333Y86.487G85X185.336Y86.487
G05
X187.333Y89.027G85X185.336Y89.027
G05
X187.333Y91.567G85X185.336Y91.567
G05
X187.333Y94.107G85X185.336Y94.107
G05
X187.333Y96.647G85X185.336Y96.647
G05
X187.333Y99.187G85X185.336Y99.187
G05
X187.333Y101.727G85X185.336Y101.727
G05
X187.333Y104.267G85X185.336Y104.267
G05
X187.333Y106.807G85X185.336Y106.807
G05
X187.333Y109.347G85X185.336Y109.347
G05
X187.333Y111.887G85X185.336Y111.887
G05
X187.333Y114.427G85X185.336Y114.427
G05
X187.333Y116.967G85X185.336Y116.967
G05
X187.333Y119.507G85X185.336Y119.507
G05
X187.333Y122.047G85X185.336Y122.047
G05
X187.333Y124.587G85X185.336Y124.587
G05
X201.709Y86.589G85X199.713Y86.589
G05
X201.709Y89.129G85X199.713Y89.129
G05
X201.709Y91.669G85X199.713Y91.669
G05
X201.709Y94.209G85X199.713Y94.209
G05
X201.709Y96.749G85X199.713Y96.749
G05
X201.709Y99.289G85X199.713Y99.289
G05
X201.709Y101.829G85X199.713Y101.829
G05
X201.709Y104.369G85X199.713Y104.369
G05
X201.709Y106.909G85X199.713Y106.909
G05
X201.709Y109.449G85X199.713Y109.449
G05
X201.709Y111.989G85X199.713Y111.989
G05
X201.709Y114.529G85X199.713Y114.529
G05
X201.709Y117.069G85X199.713Y117.069
G05
X201.709Y119.609G85X199.713Y119.609
G05
X201.709Y122.149G85X199.713Y122.149
G05
X201.709Y124.689G85X199.713Y124.689
G05
X216.949Y86.589G85X214.953Y86.589
G05
X216.949Y89.129G85X214.953Y89.129
G05
X216.949Y91.669G85X214.953Y91.669
G05
X216.949Y94.209G85X214.953Y94.209
G05
X216.949Y96.749G85X214.953Y96.749
G05
X216.949Y99.289G85X214.953Y99.289
G05
X216.949Y101.829G85X214.953Y101.829
G05
X216.949Y104.369G85X214.953Y104.369
G05
X216.949Y106.909G85X214.953Y106.909
G05
X216.949Y109.449G85X214.953Y109.449
G05
X216.949Y111.989G85X214.953Y111.989
G05
X216.949Y114.529G85X214.953Y114.529
G05
X216.949Y117.069G85X214.953Y117.069
G05
X216.949Y119.609G85X214.953Y119.609
G05
X216.949Y122.149G85X214.953Y122.149
G05
X216.949Y124.689G85X214.953Y124.689
G05
T0
M30
