M48
;DRILL file {Pcbnew (2013-07-07 BZR 4022)-stable} date 7/29/2015 11:23:41 PM
;FORMAT={-:-/ absolute / metric / decimal}
FMAT,2
METRIC,TZ
T1C0.584
T2C0.813
T3C1.016
T4C1.143
T5C3.048
%
G90
G05
M71
T1
X178.562Y69.113
X181.102Y69.418
X181.712Y64.935
X181.877Y58.458
X185.552Y66.551
X185.79Y62.279
X187.884Y66.777
X188.548Y57.805
X190.119Y106.477
X190.155Y60.454
X190.703Y63.654
X191.122Y71.145
X191.395Y67.626
X192.087Y63.36
X194.069Y72.161
X195.275Y61.023
X195.772Y65.038
X197.296Y65.977
X199.27Y60.341
X199.53Y45.58
X199.898Y106.972
X200.127Y61.252
X201.056Y64.446
X203.924Y59.753
X205.517Y45.623
X205.87Y76.472
X206.23Y70.188
X208.379Y84.557
X209.499Y62.141
X210.691Y84.712
X210.98Y140.076
X211.176Y73.33
X211.627Y45.622
X212.075Y97.887
X212.131Y89.699
X212.483Y87.99
X212.623Y51.511
X214.224Y80.302
X214.427Y76.01
X215.585Y109.76
X215.976Y60.846
X217.409Y45.633
X217.411Y62.586
X217.538Y54.762
X217.681Y82.792
X218.409Y95.729
X219.344Y96.843
X219.764Y137.363
X219.875Y69.202
X220.771Y98.27
X222.034Y146.672
X222.377Y70.739
X222.45Y77.371
X223.166Y75.705
X223.298Y99.934
X223.672Y73.838
X224.65Y139.014
X224.665Y90.797
X224.777Y70.193
X225.095Y83.439
X225.534Y109.769
X225.627Y90.048
X227.511Y104.147
X230.124Y67.079
X230.245Y106.881
X230.893Y95.636
X233.115Y92.674
X233.693Y77.673
X234.112Y74.181
X234.499Y108.291
X237.363Y93.889
X240.487Y64.148
X242.602Y146.853
X243.867Y122.466
X244.081Y82.372
X244.111Y88.869
X245.44Y159.029
X245.529Y68.453
X247.422Y84.022
X249.58Y64.935
X249.58Y72.53
X249.764Y105.088
X250.25Y88.027
X250.52Y78.499
X250.682Y90.104
X251.282Y68.25
X251.683Y122.164
X254.559Y76.429
X254.805Y107.059
X255.172Y164.373
X255.225Y83.538
X255.708Y93.593
X255.816Y72.911
X256.845Y70.002
X259.004Y74.727
X259.337Y129.221
X259.926Y110.641
X260.195Y68.09
X260.477Y71.615
X260.577Y107.059
X261.036Y83.363
X261.557Y146.69
X261.601Y51.073
X262.966Y76.797
X263.49Y129.379
X265.306Y110.636
X266.103Y73.012
X269.127Y161.903
X269.885Y164.373
X272.376Y50.71
X272.648Y82.834
X273.494Y74.282
X273.983Y137.089
X274.657Y107.765
X276.948Y139.015
X277.227Y145.135
X278.194Y136.612
X279.385Y136.641
X279.933Y74.282
X281.456Y142.754
X282.002Y94.614
X282.806Y126.02
X282.941Y158.457
X283.248Y161.771
X284.169Y94.275
X284.554Y133.316
X285.08Y139.673
X287.074Y138.137
X287.076Y99.776
X287.833Y160.045
X288.108Y84.984
X289.451Y94.311
X290.897Y101.919
X293.454Y118.202
X293.799Y115.979
X294.019Y82.571
X294.284Y160.058
X294.515Y147.317
X295.966Y153.87
X296.037Y79.724
X296.19Y62.394
X297.215Y110.877
X297.264Y75.888
X297.39Y78.166
X298.093Y95.097
X298.945Y89.573
X299.869Y102.494
X299.979Y137.982
X300.286Y80.119
X300.594Y114.426
X300.671Y151.248
X301.05Y97.964
X302.014Y76.314
X307.34Y92.785
X307.718Y162.038
X307.791Y112.035
X307.871Y151.964
X309.7Y151.089
X309.886Y100.025
X311.429Y102.908
X311.952Y94.94
X312.159Y92.502
X312.493Y62.244
X314.143Y100.029
X314.187Y109.145
X314.245Y129.571
X314.273Y135.038
X317.736Y164.6
X317.862Y156.238
X318.169Y140.139
X319.068Y163.483
X319.114Y103.463
X319.363Y96.229
X319.803Y120.206
X321.233Y83.806
X323.359Y85.131
X324.71Y162.513
X326.018Y146.859
X326.55Y62.984
X326.695Y139.141
X326.956Y77.93
X327.476Y158.515
X327.597Y162.593
X328.991Y62.54
X329.426Y83.362
X330.883Y154.134
X331.33Y134.468
X331.375Y87.949
X331.438Y117.348
X332.118Y72.326
X332.499Y49.378
X333.333Y110.753
X335.24Y115.674
X335.271Y72.316
X335.824Y91.858
X336.525Y54.966
X336.804Y162.598
X337.516Y84.972
X338.922Y69.754
X339.686Y62.833
X342.472Y109.99
X344.434Y82.499
X344.948Y92.928
X345.099Y158.407
X345.313Y135.774
X346.811Y77.282
X346.964Y128.753
X348.229Y55.904
X348.379Y72.753
X348.982Y153.776
X350.892Y164.109
X351.596Y151.51
X351.723Y162.197
X351.73Y163.286
X352.133Y60.376
X352.19Y68.956
X354.014Y69.277
X356.34Y100.409
X356.87Y46.33
X356.894Y160.781
X359.537Y160.782
X360.632Y85.398
X362.301Y66.468
X362.448Y86.171
X362.572Y60.363
X363.524Y82.293
X363.527Y83.421
X364.014Y66.611
X365.194Y110.57
X366.69Y147.692
X366.836Y79.739
X367.284Y163.195
X367.321Y164.373
X367.445Y151.054
X367.754Y134.277
X368.948Y163.22
X368.96Y164.376
X370.778Y92.5
X373.221Y72.295
X376.403Y56.312
X378.923Y62.171
X382.158Y57.954
X384.977Y68.586
X396.662Y53.544
X397.511Y61.046
X399.567Y60.636
X406.273Y57.62
T2
X179.324Y104.394
X179.324Y109.474
X183.388Y103.378
X183.388Y110.998
X184.848Y81.724
X184.848Y84.01
X184.848Y86.296
X185.928Y103.378
X185.928Y110.998
X188.468Y103.378
X188.468Y110.998
X191.008Y103.378
X191.008Y110.998
X192.468Y81.724
X192.468Y84.01
X192.468Y86.296
X193.548Y103.378
X193.548Y110.998
X195.834Y81.28
X195.834Y86.36
X196.088Y103.378
X196.088Y110.998
X198.628Y103.378
X198.628Y110.998
X200.025Y159.893
X200.914Y66.421
X200.914Y68.961
X200.914Y71.501
X200.914Y74.041
X200.914Y76.581
X200.914Y79.121
X200.914Y81.661
X200.914Y84.201
X200.914Y86.741
X200.914Y89.281
X200.914Y91.821
X202.565Y159.893
X203.454Y63.881
X203.454Y66.421
X203.454Y68.961
X203.454Y71.501
X203.454Y74.041
X203.454Y76.581
X203.454Y79.121
X203.454Y81.661
X203.454Y84.201
X203.454Y86.741
X203.454Y89.281
X203.454Y91.821
X203.454Y94.361
X204.216Y146.558
X204.216Y149.098
X204.851Y154.432
X205.105Y122.936
X205.105Y125.476
X205.105Y130.302
X205.105Y132.842
X205.994Y63.881
X205.994Y66.421
X205.994Y91.821
X205.994Y94.361
X207.391Y154.432
X208.534Y63.881
X208.534Y66.421
X208.534Y91.821
X208.534Y94.361
X211.074Y63.881
X211.074Y66.421
X211.074Y91.821
X211.074Y94.361
X211.201Y146.558
X211.201Y149.098
X213.614Y63.881
X213.614Y66.421
X213.614Y91.821
X213.614Y94.361
X216.154Y63.881
X216.154Y66.421
X216.154Y91.821
X216.154Y94.361
X218.186Y135.001
X218.186Y140.081
X218.694Y63.881
X218.694Y66.421
X218.694Y91.821
X218.694Y94.361
X221.234Y63.881
X221.234Y66.421
X221.234Y91.821
X221.234Y94.361
X222.123Y133.858
X222.123Y141.478
X223.774Y63.881
X223.774Y66.421
X223.774Y91.821
X223.774Y94.361
X224.663Y133.858
X224.663Y141.478
X225.298Y149.098
X225.298Y156.718
X226.314Y63.881
X226.314Y66.421
X226.314Y91.821
X226.314Y94.361
X227.203Y133.858
X227.203Y141.478
X227.838Y149.098
X227.838Y156.718
X228.854Y63.881
X228.854Y66.421
X228.854Y68.961
X228.854Y71.501
X228.854Y74.041
X228.854Y76.581
X228.854Y79.121
X228.854Y81.661
X228.854Y84.201
X228.854Y86.741
X228.854Y89.281
X228.854Y91.821
X228.854Y94.361
X229.743Y133.858
X229.743Y141.478
X230.378Y149.098
X230.378Y156.718
X231.394Y66.421
X231.394Y68.961
X231.394Y71.501
X231.394Y74.041
X231.394Y76.581
X231.394Y79.121
X231.394Y81.661
X231.394Y84.201
X231.394Y86.741
X231.394Y89.281
X231.394Y91.821
X231.712Y58.268
X232.283Y133.858
X232.283Y141.478
X232.918Y149.098
X232.918Y156.718
X234.823Y133.858
X234.823Y141.478
X235.458Y49.784
X235.458Y149.098
X235.458Y156.718
X236.601Y81.28
X236.601Y86.36
X237.363Y133.858
X237.363Y141.478
X237.998Y49.784
X237.998Y149.098
X237.998Y156.718
X239.903Y133.858
X239.903Y141.478
X240.411Y79.121
X240.411Y86.741
X240.538Y49.784
X240.538Y149.098
X240.538Y156.718
X242.443Y133.858
X242.443Y141.478
X242.824Y79.121
X242.824Y86.741
X243.078Y49.784
X243.078Y149.098
X243.078Y156.718
X244.983Y133.858
X244.983Y141.478
X245.237Y79.121
X245.237Y86.741
X245.618Y49.784
X247.599Y79.134
X247.599Y86.754
X248.158Y49.784
X249.555Y150.368
X249.555Y152.908
X249.555Y155.448
X250.698Y49.784
X251.727Y81.521
X251.727Y86.601
X252.857Y61.214
X252.857Y63.754
X252.857Y66.294
X253.238Y49.784
X253.492Y135.001
X253.492Y140.081
X253.492Y150.241
X253.492Y155.321
X254.495Y80.442
X254.495Y88.062
X256.159Y61.214
X256.159Y63.754
X256.159Y66.294
X257.035Y80.442
X257.035Y88.062
X257.429Y133.858
X257.429Y141.478
X257.429Y149.098
X257.429Y156.718
X259.575Y80.442
X259.575Y88.062
X259.842Y60.96
X259.842Y66.04
X259.969Y133.858
X259.969Y141.478
X259.969Y149.098
X259.969Y156.718
X262.115Y80.442
X262.115Y88.062
X262.382Y70.231
X262.509Y133.858
X262.509Y141.478
X262.509Y149.098
X262.509Y156.718
X263.779Y49.784
X263.779Y59.817
X263.779Y67.437
X265.049Y133.858
X265.049Y141.478
X265.049Y149.098
X265.049Y156.718
X266.319Y49.784
X266.319Y59.817
X266.319Y67.437
X266.827Y81.534
X266.827Y86.614
X266.827Y99.314
X266.827Y104.394
X266.827Y115.951
X266.827Y121.031
X267.589Y133.858
X267.589Y141.478
X267.589Y149.098
X267.589Y156.718
X268.859Y49.784
X268.859Y59.817
X268.859Y67.437
X270.002Y70.231
X270.129Y133.858
X270.129Y141.478
X270.129Y149.098
X270.129Y156.718
X270.764Y80.391
X270.764Y88.011
X270.764Y98.171
X270.764Y105.791
X270.764Y114.808
X270.764Y122.428
X271.399Y49.784
X271.399Y59.817
X271.399Y67.437
X272.669Y70.231
X272.669Y133.858
X272.669Y141.478
X272.669Y149.098
X272.669Y156.718
X273.304Y80.391
X273.304Y88.011
X273.304Y98.171
X273.304Y105.791
X273.304Y114.808
X273.304Y122.428
X273.939Y49.784
X273.939Y59.817
X273.939Y67.437
X275.209Y133.858
X275.209Y141.478
X275.209Y149.098
X275.209Y156.718
X275.844Y80.391
X275.844Y88.011
X275.844Y98.171
X275.844Y105.791
X275.844Y114.808
X275.844Y122.428
X276.479Y49.784
X276.479Y59.817
X276.479Y67.437
X277.749Y133.858
X277.749Y141.478
X277.749Y149.098
X277.749Y156.718
X278.384Y80.391
X278.384Y88.011
X278.384Y98.171
X278.384Y105.791
X278.384Y114.808
X278.384Y122.428
X279.019Y49.784
X279.019Y59.817
X279.019Y67.437
X280.289Y70.231
X280.289Y133.858
X280.289Y141.478
X280.289Y149.098
X280.289Y156.718
X280.924Y80.391
X280.924Y88.011
X280.924Y98.171
X280.924Y105.791
X280.924Y114.808
X280.924Y122.428
X281.559Y49.784
X281.559Y59.817
X281.559Y67.437
X283.464Y80.391
X283.464Y88.011
X283.464Y98.171
X283.464Y105.791
X283.464Y114.808
X283.464Y122.428
X284.099Y59.817
X284.099Y67.437
X284.607Y111.633
X286.004Y80.391
X286.004Y88.011
X286.004Y91.313
X286.004Y98.171
X286.004Y105.791
X286.004Y108.839
X286.004Y114.808
X286.004Y122.428
X286.639Y59.817
X286.639Y67.437
X288.544Y80.391
X288.544Y88.011
X288.544Y98.171
X288.544Y105.791
X288.544Y114.808
X288.544Y122.428
X288.671Y150.241
X288.671Y155.321
X288.798Y135.001
X288.798Y140.081
X291.084Y80.391
X291.084Y88.011
X291.084Y98.171
X291.084Y105.791
X291.084Y114.808
X291.084Y122.428
X292.227Y111.633
X292.735Y133.858
X292.735Y141.478
X292.735Y149.098
X292.735Y156.718
X293.624Y91.313
X293.624Y108.839
X295.275Y133.858
X295.275Y141.478
X295.275Y149.098
X295.275Y156.718
X295.656Y108.839
X297.815Y133.858
X297.815Y141.478
X297.815Y149.098
X297.815Y156.718
X300.355Y133.858
X300.355Y141.478
X300.355Y149.098
X300.355Y156.718
X302.133Y81.534
X302.133Y86.614
X302.133Y99.314
X302.133Y104.394
X302.133Y115.951
X302.133Y121.031
X302.895Y133.858
X302.895Y141.478
X302.895Y149.098
X302.895Y156.718
X303.276Y108.839
X305.435Y133.858
X305.435Y141.478
X305.435Y149.098
X305.435Y156.718
X306.07Y80.391
X306.07Y88.011
X306.07Y98.171
X306.07Y105.791
X306.07Y114.808
X306.07Y122.428
X307.975Y133.858
X307.975Y141.478
X307.975Y149.098
X307.975Y156.718
X308.61Y80.391
X308.61Y88.011
X308.61Y98.171
X308.61Y105.791
X308.61Y114.808
X308.61Y122.428
X310.515Y133.858
X310.515Y141.478
X310.515Y149.098
X310.515Y156.718
X311.15Y80.391
X311.15Y88.011
X311.15Y98.171
X311.15Y105.791
X311.15Y114.808
X311.15Y122.428
X313.055Y133.858
X313.055Y141.478
X313.055Y149.098
X313.055Y156.718
X313.69Y80.391
X313.69Y88.011
X313.69Y98.171
X313.69Y105.791
X313.69Y114.808
X313.69Y122.428
X315.595Y133.858
X315.595Y141.478
X315.595Y149.098
X315.595Y156.718
X316.23Y80.391
X316.23Y88.011
X316.23Y98.171
X316.23Y105.791
X316.23Y114.808
X316.23Y122.428
X318.77Y80.391
X318.77Y88.011
X318.77Y98.171
X318.77Y105.791
X318.77Y114.808
X318.77Y122.428
X320.167Y111.506
X321.31Y80.391
X321.31Y88.011
X321.31Y91.059
X321.31Y98.171
X321.31Y105.791
X321.31Y108.839
X321.31Y114.808
X321.31Y122.428
X323.85Y80.391
X323.85Y88.011
X323.85Y98.171
X323.85Y105.791
X323.85Y114.808
X323.85Y122.428
X324.104Y150.241
X324.104Y155.321
X326.39Y80.391
X326.39Y88.011
X326.39Y98.171
X326.39Y105.791
X326.39Y114.808
X326.39Y122.428
X327.787Y111.506
X328.041Y149.098
X328.041Y156.718
X328.93Y91.059
X328.93Y108.839
X330.581Y149.098
X330.581Y156.718
X333.121Y149.098
X333.121Y156.718
X334.899Y135.001
X334.899Y140.081
X335.661Y149.098
X335.661Y156.718
X337.439Y81.534
X337.439Y86.614
X337.439Y99.314
X337.439Y104.394
X337.439Y115.951
X337.439Y121.031
X338.201Y149.098
X338.201Y156.718
X338.836Y133.858
X338.836Y141.478
X340.741Y149.098
X340.741Y156.718
X341.376Y80.391
X341.376Y88.011
X341.376Y98.171
X341.376Y105.791
X341.376Y114.808
X341.376Y122.428
X341.376Y133.858
X341.376Y141.478
X343.281Y149.098
X343.281Y156.718
X343.916Y80.391
X343.916Y88.011
X343.916Y98.171
X343.916Y105.791
X343.916Y114.808
X343.916Y122.428
X343.916Y133.858
X343.916Y141.478
X345.821Y149.098
X345.821Y156.718
X346.456Y80.391
X346.456Y88.011
X346.456Y98.171
X346.456Y105.791
X346.456Y114.808
X346.456Y122.428
X346.456Y133.858
X346.456Y141.478
X348.361Y149.098
X348.361Y156.718
X348.996Y80.391
X348.996Y88.011
X348.996Y98.171
X348.996Y105.791
X348.996Y114.808
X348.996Y122.428
X348.996Y133.858
X348.996Y141.478
X350.901Y149.098
X350.901Y156.718
X351.536Y80.391
X351.536Y88.011
X351.536Y98.171
X351.536Y105.791
X351.536Y114.808
X351.536Y122.428
X351.536Y133.858
X351.536Y141.478
X354.076Y80.391
X354.076Y88.011
X354.076Y98.171
X354.076Y105.791
X354.076Y114.808
X354.076Y122.428
X354.076Y133.858
X354.076Y141.478
X355.473Y111.633
X356.616Y80.391
X356.616Y88.011
X356.616Y91.186
X356.616Y98.171
X356.616Y105.791
X356.616Y108.966
X356.616Y114.808
X356.616Y122.428
X356.616Y133.858
X356.616Y141.478
X359.156Y80.391
X359.156Y88.011
X359.156Y98.171
X359.156Y105.791
X359.156Y114.808
X359.156Y122.428
X359.156Y133.858
X359.156Y141.478
X361.696Y80.391
X361.696Y88.011
X361.696Y98.171
X361.696Y105.791
X361.696Y114.808
X361.696Y122.428
X361.696Y133.858
X361.696Y141.478
X363.093Y111.633
X364.236Y91.186
X364.236Y108.966
X372.745Y135.001
X372.745Y140.081
X375.285Y81.534
X375.285Y86.614
X375.285Y99.314
X375.285Y104.394
X375.285Y115.951
X375.285Y121.031
X376.682Y133.858
X376.682Y141.478
X379.222Y80.391
X379.222Y88.011
X379.222Y98.171
X379.222Y105.791
X379.222Y114.808
X379.222Y122.428
X379.222Y133.858
X379.222Y141.478
X381.762Y80.391
X381.762Y88.011
X381.762Y98.171
X381.762Y105.791
X381.762Y114.808
X381.762Y122.428
X381.762Y133.858
X381.762Y141.478
X384.302Y80.391
X384.302Y88.011
X384.302Y98.171
X384.302Y105.791
X384.302Y114.808
X384.302Y122.428
X384.302Y133.858
X384.302Y141.478
X386.842Y80.391
X386.842Y88.011
X386.842Y98.171
X386.842Y105.791
X386.842Y114.808
X386.842Y122.428
X386.842Y133.858
X386.842Y141.478
X389.382Y80.391
X389.382Y88.011
X389.382Y98.171
X389.382Y105.791
X389.382Y114.808
X389.382Y122.428
X389.382Y133.858
X389.382Y141.478
X391.922Y80.391
X391.922Y88.011
X391.922Y98.171
X391.922Y105.791
X391.922Y114.808
X391.922Y122.428
X391.922Y133.858
X391.922Y141.478
X393.446Y111.379
X394.462Y80.391
X394.462Y88.011
X394.462Y91.313
X394.462Y98.171
X394.462Y105.791
X394.462Y108.712
X394.462Y114.808
X394.462Y122.428
X394.462Y133.858
X394.462Y141.478
X397.002Y80.391
X397.002Y88.011
X397.002Y98.171
X397.002Y105.791
X397.002Y114.808
X397.002Y122.428
X397.002Y133.858
X397.002Y141.478
X399.542Y80.391
X399.542Y88.011
X399.542Y98.171
X399.542Y105.791
X399.542Y114.808
X399.542Y122.428
X399.542Y133.858
X399.542Y141.478
X401.066Y111.379
X402.082Y91.313
X402.082Y108.712
T3
X178.562Y76.581
X178.562Y79.121
X178.562Y81.661
X178.562Y84.201
X178.562Y86.741
X181.102Y76.581
X181.102Y79.121
X181.102Y81.661
X181.102Y84.201
X181.102Y86.741
X217.576Y125.07
X217.576Y127.61
X220.116Y125.07
X220.116Y127.61
X222.656Y125.07
X222.656Y127.61
X225.196Y125.07
X225.196Y127.61
X227.736Y125.07
X227.736Y127.61
X230.276Y125.07
X230.276Y127.61
X231.712Y55.728
X232.816Y125.07
X232.816Y127.61
X234.251Y55.728
X234.251Y58.268
X235.356Y125.07
X235.356Y127.61
X236.791Y55.728
X236.791Y58.268
X239.331Y55.728
X239.331Y58.268
X241.871Y55.728
X241.871Y58.268
X244.411Y55.728
X244.411Y58.268
X246.951Y55.728
X246.951Y58.268
X295.275Y81.661
X295.275Y84.201
X295.275Y86.741
X295.275Y99.441
X295.275Y101.981
X295.275Y104.521
X295.275Y116.078
X295.275Y118.618
X295.275Y121.158
X297.815Y81.661
X297.815Y84.201
X297.815Y86.741
X297.815Y99.441
X297.815Y101.981
X297.815Y104.521
X297.815Y116.078
X297.815Y118.618
X297.815Y121.158
X298.196Y49.53
X298.196Y52.07
X298.196Y64.77
X298.196Y67.31
X300.736Y49.53
X300.736Y52.07
X300.736Y64.77
X300.736Y67.31
X303.276Y49.53
X303.276Y52.07
X303.276Y64.77
X303.276Y67.31
X305.816Y49.53
X305.816Y52.07
X305.816Y64.77
X305.816Y67.31
X308.356Y49.53
X308.356Y52.07
X308.356Y64.77
X308.356Y67.31
X310.896Y49.53
X310.896Y52.07
X310.896Y64.77
X310.896Y67.31
X313.436Y49.53
X313.436Y52.07
X313.436Y64.77
X313.436Y67.31
X315.976Y49.53
X315.976Y52.07
X315.976Y64.77
X315.976Y67.31
X318.516Y49.53
X318.516Y52.07
X318.516Y64.77
X318.516Y67.31
X321.056Y49.53
X321.056Y52.07
X321.056Y64.77
X321.056Y67.31
X330.581Y81.661
X330.581Y84.201
X330.581Y86.741
X330.581Y99.441
X330.581Y101.981
X330.581Y104.521
X330.708Y116.078
X330.708Y118.618
X330.708Y121.158
X333.121Y81.661
X333.121Y84.201
X333.121Y86.741
X333.121Y99.441
X333.121Y101.981
X333.121Y104.521
X333.248Y116.078
X333.248Y118.618
X333.248Y121.158
X338.201Y49.53
X338.201Y52.07
X338.201Y64.77
X338.201Y67.31
X340.741Y49.53
X340.741Y52.07
X340.741Y64.77
X340.741Y67.31
X343.281Y49.53
X343.281Y52.07
X343.281Y64.77
X343.281Y67.31
X345.821Y49.53
X345.821Y52.07
X345.821Y64.77
X345.821Y67.31
X348.361Y49.53
X348.361Y52.07
X348.361Y64.77
X348.361Y67.31
X350.901Y49.53
X350.901Y52.07
X350.901Y64.77
X350.901Y67.31
X353.441Y49.53
X353.441Y52.07
X353.441Y64.77
X353.441Y67.31
X355.981Y49.53
X355.981Y52.07
X355.981Y64.77
X355.981Y67.31
X358.521Y49.53
X358.521Y52.07
X358.521Y64.77
X358.521Y67.31
X361.061Y49.53
X361.061Y52.07
X361.061Y64.77
X361.061Y67.31
X365.887Y81.661
X365.887Y84.201
X365.887Y86.741
X365.887Y99.441
X365.887Y101.981
X365.887Y104.521
X365.887Y116.078
X365.887Y118.618
X365.887Y121.158
X368.427Y81.661
X368.427Y84.201
X368.427Y86.741
X368.427Y99.441
X368.427Y101.981
X368.427Y104.521
X368.427Y116.078
X368.427Y118.618
X368.427Y121.158
X378.206Y49.53
X378.206Y52.07
X378.206Y64.77
X378.206Y67.31
X380.746Y49.53
X380.746Y52.07
X380.746Y64.77
X380.746Y67.31
X383.286Y49.53
X383.286Y52.07
X383.286Y64.77
X383.286Y67.31
X385.826Y49.53
X385.826Y52.07
X385.826Y64.77
X385.826Y67.31
X388.366Y49.53
X388.366Y52.07
X388.366Y64.77
X388.366Y67.31
X390.906Y49.53
X390.906Y52.07
X390.906Y64.77
X390.906Y67.31
X393.446Y49.53
X393.446Y52.07
X393.446Y64.77
X393.446Y67.31
X395.986Y49.53
X395.986Y52.07
X395.986Y64.77
X395.986Y67.31
X398.526Y49.53
X398.526Y52.07
X398.526Y64.77
X398.526Y67.31
X401.066Y49.53
X401.066Y52.07
X401.066Y64.77
X401.066Y67.31
X403.733Y81.661
X403.733Y84.201
X403.733Y86.741
X403.733Y99.441
X403.733Y101.981
X403.733Y104.521
X403.733Y116.078
X403.733Y118.618
X403.733Y121.158
X406.273Y81.661
X406.273Y84.201
X406.273Y86.741
X406.273Y99.441
X406.273Y101.981
X406.273Y104.521
X406.273Y116.078
X406.273Y118.618
X406.273Y121.158
T4
X199.263Y125.984
X199.263Y128.524
X199.263Y131.064
X199.263Y149.098
X199.263Y151.638
X199.263Y154.178
T5
X175.641Y46.101
X182.753Y128.524
X182.753Y151.638
X416.941Y46.101
T0
M30
