G04 (created by PCBNEW (2013-07-07 BZR 4022)-stable) date 7/29/2015 11:23:32 PM*
%MOIN*%
G04 Gerber Fmt 3.4, Leading zero omitted, Abs format*
%FSLAX34Y34*%
G01*
G70*
G90*
G04 APERTURE LIST*
%ADD10C,0.00590551*%
%ADD11C,0.00984252*%
%ADD12C,0.00787402*%
%ADD13C,0.006*%
%ADD14C,0.002*%
%ADD15C,0.0035*%
G04 APERTURE END LIST*
G54D10*
G54D11*
X98500Y-23996D02*
X98350Y-23996D01*
X98286Y-24363D02*
X98500Y-24363D01*
X98500Y-23663D01*
X98286Y-23663D01*
X98136Y-23663D02*
X97836Y-24363D01*
X97836Y-23663D02*
X98136Y-24363D01*
X97729Y-23663D02*
X97472Y-23663D01*
X97600Y-24363D02*
X97600Y-23663D01*
X97322Y-23996D02*
X97172Y-23996D01*
X97107Y-24363D02*
X97322Y-24363D01*
X97322Y-23663D01*
X97107Y-23663D01*
X96657Y-24363D02*
X96807Y-24030D01*
X96914Y-24363D02*
X96914Y-23663D01*
X96743Y-23663D01*
X96700Y-23696D01*
X96679Y-23730D01*
X96657Y-23796D01*
X96657Y-23896D01*
X96679Y-23963D01*
X96700Y-23996D01*
X96743Y-24030D01*
X96914Y-24030D01*
X96464Y-24363D02*
X96464Y-23663D01*
X96207Y-24363D01*
X96207Y-23663D01*
X96014Y-24163D02*
X95800Y-24163D01*
X96057Y-24363D02*
X95907Y-23663D01*
X95757Y-24363D01*
X95393Y-24363D02*
X95607Y-24363D01*
X95607Y-23663D01*
X94900Y-24363D02*
X94900Y-23663D01*
X94750Y-24163D01*
X94600Y-23663D01*
X94600Y-24363D01*
X94129Y-24296D02*
X94150Y-24330D01*
X94214Y-24363D01*
X94257Y-24363D01*
X94322Y-24330D01*
X94364Y-24263D01*
X94386Y-24196D01*
X94407Y-24063D01*
X94407Y-23963D01*
X94386Y-23830D01*
X94364Y-23763D01*
X94322Y-23696D01*
X94257Y-23663D01*
X94214Y-23663D01*
X94150Y-23696D01*
X94129Y-23730D01*
X93936Y-24363D02*
X93936Y-23663D01*
X93764Y-23663D01*
X93722Y-23696D01*
X93700Y-23730D01*
X93679Y-23796D01*
X93679Y-23896D01*
X93700Y-23963D01*
X93722Y-23996D01*
X93764Y-24030D01*
X93936Y-24030D01*
X93250Y-24363D02*
X93507Y-24363D01*
X93379Y-24363D02*
X93379Y-23663D01*
X93422Y-23763D01*
X93464Y-23830D01*
X93507Y-23863D01*
X92822Y-24363D02*
X93079Y-24363D01*
X92950Y-24363D02*
X92950Y-23663D01*
X92993Y-23763D01*
X93036Y-23830D01*
X93079Y-23863D01*
X92307Y-23630D02*
X92693Y-24530D01*
X91922Y-24363D02*
X92179Y-24363D01*
X92050Y-24363D02*
X92050Y-23663D01*
X92093Y-23763D01*
X92136Y-23830D01*
X92179Y-23863D01*
X91750Y-23730D02*
X91729Y-23696D01*
X91686Y-23663D01*
X91579Y-23663D01*
X91536Y-23696D01*
X91514Y-23730D01*
X91493Y-23796D01*
X91493Y-23863D01*
X91514Y-23963D01*
X91772Y-24363D01*
X91493Y-24363D01*
X90979Y-24330D02*
X90915Y-24363D01*
X90807Y-24363D01*
X90765Y-24330D01*
X90743Y-24296D01*
X90722Y-24230D01*
X90722Y-24163D01*
X90743Y-24096D01*
X90765Y-24063D01*
X90807Y-24030D01*
X90893Y-23996D01*
X90936Y-23963D01*
X90957Y-23930D01*
X90979Y-23863D01*
X90979Y-23796D01*
X90957Y-23730D01*
X90936Y-23696D01*
X90893Y-23663D01*
X90786Y-23663D01*
X90722Y-23696D01*
X90529Y-24363D02*
X90529Y-23663D01*
X90357Y-23663D01*
X90315Y-23696D01*
X90293Y-23730D01*
X90272Y-23796D01*
X90272Y-23896D01*
X90293Y-23963D01*
X90315Y-23996D01*
X90357Y-24030D01*
X90529Y-24030D01*
X90079Y-24363D02*
X90079Y-23663D01*
X98714Y-20661D02*
X98564Y-20661D01*
X98500Y-21028D02*
X98714Y-21028D01*
X98714Y-20328D01*
X98500Y-20328D01*
X98350Y-20328D02*
X98050Y-21028D01*
X98050Y-20328D02*
X98350Y-21028D01*
X97943Y-20328D02*
X97686Y-20328D01*
X97814Y-21028D02*
X97814Y-20328D01*
X97536Y-20661D02*
X97386Y-20661D01*
X97322Y-21028D02*
X97536Y-21028D01*
X97536Y-20328D01*
X97322Y-20328D01*
X96872Y-21028D02*
X97022Y-20695D01*
X97129Y-21028D02*
X97129Y-20328D01*
X96957Y-20328D01*
X96914Y-20361D01*
X96893Y-20395D01*
X96872Y-20461D01*
X96872Y-20561D01*
X96893Y-20628D01*
X96914Y-20661D01*
X96957Y-20695D01*
X97129Y-20695D01*
X96679Y-21028D02*
X96679Y-20328D01*
X96422Y-21028D01*
X96422Y-20328D01*
X96229Y-20828D02*
X96014Y-20828D01*
X96272Y-21028D02*
X96122Y-20328D01*
X95972Y-21028D01*
X95607Y-21028D02*
X95822Y-21028D01*
X95822Y-20328D01*
X95136Y-20995D02*
X95072Y-21028D01*
X94964Y-21028D01*
X94922Y-20995D01*
X94900Y-20961D01*
X94879Y-20895D01*
X94879Y-20828D01*
X94900Y-20761D01*
X94922Y-20728D01*
X94964Y-20695D01*
X95050Y-20661D01*
X95093Y-20628D01*
X95114Y-20595D01*
X95136Y-20528D01*
X95136Y-20461D01*
X95114Y-20395D01*
X95093Y-20361D01*
X95050Y-20328D01*
X94943Y-20328D01*
X94879Y-20361D01*
X94686Y-21028D02*
X94686Y-20328D01*
X94515Y-20328D01*
X94472Y-20361D01*
X94450Y-20395D01*
X94429Y-20461D01*
X94429Y-20561D01*
X94450Y-20628D01*
X94472Y-20661D01*
X94515Y-20695D01*
X94686Y-20695D01*
X94236Y-21028D02*
X94236Y-20328D01*
X93700Y-20395D02*
X93679Y-20361D01*
X93636Y-20328D01*
X93529Y-20328D01*
X93486Y-20361D01*
X93464Y-20395D01*
X93443Y-20461D01*
X93443Y-20528D01*
X93464Y-20628D01*
X93722Y-21028D01*
X93443Y-21028D01*
X110024Y-20781D02*
X109874Y-20781D01*
X109810Y-21148D02*
X110024Y-21148D01*
X110024Y-20448D01*
X109810Y-20448D01*
X109660Y-20448D02*
X109360Y-21148D01*
X109360Y-20448D02*
X109660Y-21148D01*
X109253Y-20448D02*
X108996Y-20448D01*
X109124Y-21148D02*
X109124Y-20448D01*
X108846Y-20781D02*
X108696Y-20781D01*
X108632Y-21148D02*
X108846Y-21148D01*
X108846Y-20448D01*
X108632Y-20448D01*
X108182Y-21148D02*
X108332Y-20815D01*
X108439Y-21148D02*
X108439Y-20448D01*
X108267Y-20448D01*
X108224Y-20481D01*
X108203Y-20515D01*
X108182Y-20581D01*
X108182Y-20681D01*
X108203Y-20748D01*
X108224Y-20781D01*
X108267Y-20815D01*
X108439Y-20815D01*
X107989Y-21148D02*
X107989Y-20448D01*
X107732Y-21148D01*
X107732Y-20448D01*
X107539Y-20948D02*
X107324Y-20948D01*
X107582Y-21148D02*
X107432Y-20448D01*
X107282Y-21148D01*
X106917Y-21148D02*
X107132Y-21148D01*
X107132Y-20448D01*
X106446Y-21115D02*
X106382Y-21148D01*
X106274Y-21148D01*
X106232Y-21115D01*
X106210Y-21081D01*
X106189Y-21015D01*
X106189Y-20948D01*
X106210Y-20881D01*
X106232Y-20848D01*
X106274Y-20815D01*
X106360Y-20781D01*
X106403Y-20748D01*
X106424Y-20715D01*
X106446Y-20648D01*
X106446Y-20581D01*
X106424Y-20515D01*
X106403Y-20481D01*
X106360Y-20448D01*
X106253Y-20448D01*
X106189Y-20481D01*
X105996Y-21148D02*
X105996Y-20448D01*
X105825Y-20448D01*
X105782Y-20481D01*
X105760Y-20515D01*
X105739Y-20581D01*
X105739Y-20681D01*
X105760Y-20748D01*
X105782Y-20781D01*
X105825Y-20815D01*
X105996Y-20815D01*
X105546Y-21148D02*
X105546Y-20448D01*
X104753Y-21148D02*
X105010Y-21148D01*
X104882Y-21148D02*
X104882Y-20448D01*
X104924Y-20548D01*
X104967Y-20615D01*
X105010Y-20648D01*
X155617Y-27823D02*
X155617Y-27123D01*
X155467Y-27623D01*
X155317Y-27123D01*
X155317Y-27823D01*
X154845Y-27756D02*
X154867Y-27790D01*
X154931Y-27823D01*
X154974Y-27823D01*
X155038Y-27790D01*
X155081Y-27723D01*
X155102Y-27656D01*
X155124Y-27523D01*
X155124Y-27423D01*
X155102Y-27290D01*
X155081Y-27223D01*
X155038Y-27156D01*
X154974Y-27123D01*
X154931Y-27123D01*
X154867Y-27156D01*
X154845Y-27190D01*
X154652Y-27823D02*
X154652Y-27123D01*
X154481Y-27123D01*
X154438Y-27156D01*
X154417Y-27190D01*
X154395Y-27256D01*
X154395Y-27356D01*
X154417Y-27423D01*
X154438Y-27456D01*
X154481Y-27490D01*
X154652Y-27490D01*
X153624Y-27823D02*
X153881Y-27823D01*
X153752Y-27823D02*
X153752Y-27123D01*
X153795Y-27223D01*
X153838Y-27290D01*
X153881Y-27323D01*
X153195Y-27823D02*
X153452Y-27823D01*
X153324Y-27823D02*
X153324Y-27123D01*
X153367Y-27223D01*
X153410Y-27290D01*
X153452Y-27323D01*
X152338Y-27090D02*
X152724Y-27990D01*
X151610Y-27823D02*
X151867Y-27823D01*
X151738Y-27823D02*
X151738Y-27123D01*
X151781Y-27223D01*
X151824Y-27290D01*
X151867Y-27323D01*
X151438Y-27190D02*
X151417Y-27156D01*
X151374Y-27123D01*
X151267Y-27123D01*
X151224Y-27156D01*
X151202Y-27190D01*
X151181Y-27256D01*
X151181Y-27323D01*
X151202Y-27423D01*
X151460Y-27823D01*
X151181Y-27823D01*
X155412Y-21853D02*
X155412Y-21153D01*
X155262Y-21653D01*
X155112Y-21153D01*
X155112Y-21853D01*
X154641Y-21786D02*
X154662Y-21820D01*
X154727Y-21853D01*
X154769Y-21853D01*
X154834Y-21820D01*
X154877Y-21753D01*
X154898Y-21686D01*
X154919Y-21553D01*
X154919Y-21453D01*
X154898Y-21320D01*
X154877Y-21253D01*
X154834Y-21186D01*
X154769Y-21153D01*
X154727Y-21153D01*
X154662Y-21186D01*
X154641Y-21220D01*
X154448Y-21853D02*
X154448Y-21153D01*
X154277Y-21153D01*
X154234Y-21186D01*
X154212Y-21220D01*
X154191Y-21286D01*
X154191Y-21386D01*
X154212Y-21453D01*
X154234Y-21486D01*
X154277Y-21520D01*
X154448Y-21520D01*
X153634Y-21853D02*
X153548Y-21853D01*
X153505Y-21820D01*
X153484Y-21786D01*
X153441Y-21686D01*
X153419Y-21553D01*
X153419Y-21286D01*
X153441Y-21220D01*
X153462Y-21186D01*
X153505Y-21153D01*
X153591Y-21153D01*
X153634Y-21186D01*
X153655Y-21220D01*
X153677Y-21286D01*
X153677Y-21453D01*
X153655Y-21520D01*
X153634Y-21553D01*
X153591Y-21586D01*
X153505Y-21586D01*
X153462Y-21553D01*
X153441Y-21520D01*
X153419Y-21453D01*
X152562Y-21120D02*
X152948Y-22020D01*
X151834Y-21853D02*
X152091Y-21853D01*
X151962Y-21853D02*
X151962Y-21153D01*
X152005Y-21253D01*
X152048Y-21320D01*
X152091Y-21353D01*
X151555Y-21153D02*
X151512Y-21153D01*
X151470Y-21186D01*
X151448Y-21220D01*
X151427Y-21286D01*
X151405Y-21420D01*
X151405Y-21586D01*
X151427Y-21720D01*
X151448Y-21786D01*
X151470Y-21820D01*
X151512Y-21853D01*
X151555Y-21853D01*
X151598Y-21820D01*
X151620Y-21786D01*
X151641Y-21720D01*
X151662Y-21586D01*
X151662Y-21420D01*
X151641Y-21286D01*
X151620Y-21220D01*
X151598Y-21186D01*
X151555Y-21153D01*
X139433Y-27913D02*
X139433Y-27213D01*
X139283Y-27713D01*
X139133Y-27213D01*
X139133Y-27913D01*
X138662Y-27846D02*
X138683Y-27880D01*
X138747Y-27913D01*
X138790Y-27913D01*
X138854Y-27880D01*
X138897Y-27813D01*
X138919Y-27746D01*
X138940Y-27613D01*
X138940Y-27513D01*
X138919Y-27380D01*
X138897Y-27313D01*
X138854Y-27246D01*
X138790Y-27213D01*
X138747Y-27213D01*
X138683Y-27246D01*
X138662Y-27280D01*
X138469Y-27913D02*
X138469Y-27213D01*
X138297Y-27213D01*
X138254Y-27246D01*
X138233Y-27280D01*
X138212Y-27346D01*
X138212Y-27446D01*
X138233Y-27513D01*
X138254Y-27546D01*
X138297Y-27580D01*
X138469Y-27580D01*
X137719Y-27213D02*
X137419Y-27213D01*
X137612Y-27913D01*
X136583Y-27180D02*
X136969Y-28080D01*
X136026Y-27513D02*
X136069Y-27480D01*
X136090Y-27446D01*
X136112Y-27380D01*
X136112Y-27346D01*
X136090Y-27280D01*
X136069Y-27246D01*
X136026Y-27213D01*
X135940Y-27213D01*
X135897Y-27246D01*
X135876Y-27280D01*
X135855Y-27346D01*
X135855Y-27380D01*
X135876Y-27446D01*
X135897Y-27480D01*
X135940Y-27513D01*
X136026Y-27513D01*
X136069Y-27546D01*
X136090Y-27580D01*
X136112Y-27646D01*
X136112Y-27780D01*
X136090Y-27846D01*
X136069Y-27880D01*
X136026Y-27913D01*
X135940Y-27913D01*
X135897Y-27880D01*
X135876Y-27846D01*
X135855Y-27780D01*
X135855Y-27646D01*
X135876Y-27580D01*
X135897Y-27546D01*
X135940Y-27513D01*
X139518Y-21888D02*
X139518Y-21188D01*
X139368Y-21688D01*
X139218Y-21188D01*
X139218Y-21888D01*
X138747Y-21821D02*
X138768Y-21855D01*
X138832Y-21888D01*
X138875Y-21888D01*
X138939Y-21855D01*
X138982Y-21788D01*
X139004Y-21721D01*
X139025Y-21588D01*
X139025Y-21488D01*
X139004Y-21355D01*
X138982Y-21288D01*
X138939Y-21221D01*
X138875Y-21188D01*
X138832Y-21188D01*
X138768Y-21221D01*
X138747Y-21255D01*
X138554Y-21888D02*
X138554Y-21188D01*
X138382Y-21188D01*
X138339Y-21221D01*
X138318Y-21255D01*
X138297Y-21321D01*
X138297Y-21421D01*
X138318Y-21488D01*
X138339Y-21521D01*
X138382Y-21555D01*
X138554Y-21555D01*
X137547Y-21188D02*
X137761Y-21188D01*
X137782Y-21521D01*
X137761Y-21488D01*
X137718Y-21455D01*
X137611Y-21455D01*
X137568Y-21488D01*
X137547Y-21521D01*
X137525Y-21588D01*
X137525Y-21755D01*
X137547Y-21821D01*
X137568Y-21855D01*
X137611Y-21888D01*
X137718Y-21888D01*
X137761Y-21855D01*
X137782Y-21821D01*
X136668Y-21155D02*
X137054Y-22055D01*
X135982Y-21188D02*
X136068Y-21188D01*
X136111Y-21221D01*
X136132Y-21255D01*
X136175Y-21355D01*
X136197Y-21488D01*
X136197Y-21755D01*
X136175Y-21821D01*
X136154Y-21855D01*
X136111Y-21888D01*
X136025Y-21888D01*
X135982Y-21855D01*
X135961Y-21821D01*
X135940Y-21755D01*
X135940Y-21588D01*
X135961Y-21521D01*
X135982Y-21488D01*
X136025Y-21455D01*
X136111Y-21455D01*
X136154Y-21488D01*
X136175Y-21521D01*
X136197Y-21588D01*
X123638Y-27893D02*
X123638Y-27193D01*
X123488Y-27693D01*
X123338Y-27193D01*
X123338Y-27893D01*
X122867Y-27826D02*
X122888Y-27860D01*
X122952Y-27893D01*
X122995Y-27893D01*
X123059Y-27860D01*
X123102Y-27793D01*
X123124Y-27726D01*
X123145Y-27593D01*
X123145Y-27493D01*
X123124Y-27360D01*
X123102Y-27293D01*
X123059Y-27226D01*
X122995Y-27193D01*
X122952Y-27193D01*
X122888Y-27226D01*
X122867Y-27260D01*
X122674Y-27893D02*
X122674Y-27193D01*
X122502Y-27193D01*
X122459Y-27226D01*
X122438Y-27260D01*
X122417Y-27326D01*
X122417Y-27426D01*
X122438Y-27493D01*
X122459Y-27526D01*
X122502Y-27560D01*
X122674Y-27560D01*
X121645Y-27893D02*
X121902Y-27893D01*
X121774Y-27893D02*
X121774Y-27193D01*
X121817Y-27293D01*
X121860Y-27360D01*
X121902Y-27393D01*
X120788Y-27160D02*
X121174Y-28060D01*
X120317Y-27260D02*
X120295Y-27226D01*
X120252Y-27193D01*
X120145Y-27193D01*
X120102Y-27226D01*
X120081Y-27260D01*
X120060Y-27326D01*
X120060Y-27393D01*
X120081Y-27493D01*
X120338Y-27893D01*
X120060Y-27893D01*
X123638Y-21853D02*
X123638Y-21153D01*
X123488Y-21653D01*
X123338Y-21153D01*
X123338Y-21853D01*
X122867Y-21786D02*
X122888Y-21820D01*
X122952Y-21853D01*
X122995Y-21853D01*
X123059Y-21820D01*
X123102Y-21753D01*
X123124Y-21686D01*
X123145Y-21553D01*
X123145Y-21453D01*
X123124Y-21320D01*
X123102Y-21253D01*
X123059Y-21186D01*
X122995Y-21153D01*
X122952Y-21153D01*
X122888Y-21186D01*
X122867Y-21220D01*
X122674Y-21853D02*
X122674Y-21153D01*
X122502Y-21153D01*
X122459Y-21186D01*
X122438Y-21220D01*
X122417Y-21286D01*
X122417Y-21386D01*
X122438Y-21453D01*
X122459Y-21486D01*
X122502Y-21520D01*
X122674Y-21520D01*
X121924Y-21153D02*
X121645Y-21153D01*
X121795Y-21420D01*
X121731Y-21420D01*
X121688Y-21453D01*
X121667Y-21486D01*
X121645Y-21553D01*
X121645Y-21720D01*
X121667Y-21786D01*
X121688Y-21820D01*
X121731Y-21853D01*
X121860Y-21853D01*
X121902Y-21820D01*
X121924Y-21786D01*
X120788Y-21120D02*
X121174Y-22020D01*
X120102Y-21386D02*
X120102Y-21853D01*
X120210Y-21120D02*
X120317Y-21620D01*
X120038Y-21620D01*
G54D12*
X73549Y-23782D02*
X73549Y-24132D01*
X73533Y-24174D01*
X73516Y-24194D01*
X73482Y-24215D01*
X73414Y-24215D01*
X73381Y-24194D01*
X73364Y-24174D01*
X73347Y-24132D01*
X73347Y-23782D01*
X73026Y-23782D02*
X73094Y-23782D01*
X73128Y-23802D01*
X73145Y-23823D01*
X73178Y-23885D01*
X73195Y-23967D01*
X73195Y-24132D01*
X73178Y-24174D01*
X73161Y-24194D01*
X73128Y-24215D01*
X73060Y-24215D01*
X73026Y-24194D01*
X73010Y-24174D01*
X72993Y-24132D01*
X72993Y-24029D01*
X73010Y-23988D01*
X73026Y-23967D01*
X73060Y-23947D01*
X73128Y-23947D01*
X73161Y-23967D01*
X73178Y-23988D01*
X73195Y-24029D01*
X75594Y-25327D02*
X75594Y-25677D01*
X75578Y-25719D01*
X75561Y-25739D01*
X75527Y-25760D01*
X75459Y-25760D01*
X75426Y-25739D01*
X75409Y-25719D01*
X75392Y-25677D01*
X75392Y-25327D01*
X75055Y-25327D02*
X75223Y-25327D01*
X75240Y-25533D01*
X75223Y-25512D01*
X75190Y-25492D01*
X75105Y-25492D01*
X75071Y-25512D01*
X75055Y-25533D01*
X75038Y-25574D01*
X75038Y-25677D01*
X75055Y-25719D01*
X75071Y-25739D01*
X75105Y-25760D01*
X75190Y-25760D01*
X75223Y-25739D01*
X75240Y-25719D01*
X78814Y-24902D02*
X78814Y-25252D01*
X78798Y-25294D01*
X78781Y-25314D01*
X78747Y-25335D01*
X78679Y-25335D01*
X78646Y-25314D01*
X78629Y-25294D01*
X78612Y-25252D01*
X78612Y-24902D01*
X78393Y-25087D02*
X78426Y-25067D01*
X78443Y-25046D01*
X78460Y-25005D01*
X78460Y-24984D01*
X78443Y-24943D01*
X78426Y-24922D01*
X78393Y-24902D01*
X78325Y-24902D01*
X78291Y-24922D01*
X78275Y-24943D01*
X78258Y-24984D01*
X78258Y-25005D01*
X78275Y-25046D01*
X78291Y-25067D01*
X78325Y-25087D01*
X78393Y-25087D01*
X78426Y-25108D01*
X78443Y-25129D01*
X78460Y-25170D01*
X78460Y-25252D01*
X78443Y-25294D01*
X78426Y-25314D01*
X78393Y-25335D01*
X78325Y-25335D01*
X78291Y-25314D01*
X78275Y-25294D01*
X78258Y-25252D01*
X78258Y-25170D01*
X78275Y-25129D01*
X78291Y-25108D01*
X78325Y-25087D01*
X77384Y-27082D02*
X77384Y-27432D01*
X77368Y-27474D01*
X77351Y-27494D01*
X77317Y-27515D01*
X77249Y-27515D01*
X77216Y-27494D01*
X77199Y-27474D01*
X77182Y-27432D01*
X77182Y-27082D01*
X77047Y-27082D02*
X76811Y-27082D01*
X76963Y-27515D01*
G54D11*
X85689Y-31573D02*
X85689Y-30873D01*
X85217Y-31506D02*
X85239Y-31540D01*
X85303Y-31573D01*
X85346Y-31573D01*
X85410Y-31540D01*
X85453Y-31473D01*
X85474Y-31406D01*
X85496Y-31273D01*
X85496Y-31173D01*
X85474Y-31040D01*
X85453Y-30973D01*
X85410Y-30906D01*
X85346Y-30873D01*
X85303Y-30873D01*
X85239Y-30906D01*
X85217Y-30940D01*
X84789Y-31573D02*
X85046Y-31573D01*
X84917Y-31573D02*
X84917Y-30873D01*
X84960Y-30973D01*
X85003Y-31040D01*
X85046Y-31073D01*
X76629Y-42403D02*
X76629Y-41703D01*
X76458Y-41703D01*
X76415Y-41736D01*
X76394Y-41770D01*
X76372Y-41836D01*
X76372Y-41936D01*
X76394Y-42003D01*
X76415Y-42036D01*
X76458Y-42070D01*
X76629Y-42070D01*
X75987Y-41936D02*
X75987Y-42403D01*
X76094Y-41670D02*
X76201Y-42170D01*
X75922Y-42170D01*
X75408Y-42136D02*
X75065Y-42136D01*
X74251Y-42336D02*
X74272Y-42370D01*
X74337Y-42403D01*
X74380Y-42403D01*
X74444Y-42370D01*
X74487Y-42303D01*
X74508Y-42236D01*
X74530Y-42103D01*
X74530Y-42003D01*
X74508Y-41870D01*
X74487Y-41803D01*
X74444Y-41736D01*
X74380Y-41703D01*
X74337Y-41703D01*
X74272Y-41736D01*
X74251Y-41770D01*
X73844Y-42403D02*
X74058Y-42403D01*
X74058Y-41703D01*
X73694Y-42403D02*
X73694Y-41703D01*
X73437Y-42403D02*
X73629Y-42003D01*
X73437Y-41703D02*
X73694Y-42103D01*
X73287Y-41703D02*
X73008Y-41703D01*
X73158Y-41970D01*
X73094Y-41970D01*
X73051Y-42003D01*
X73029Y-42036D01*
X73008Y-42103D01*
X73008Y-42270D01*
X73029Y-42336D01*
X73051Y-42370D01*
X73094Y-42403D01*
X73222Y-42403D01*
X73265Y-42370D01*
X73287Y-42336D01*
X148887Y-53713D02*
X148887Y-54280D01*
X148865Y-54346D01*
X148844Y-54380D01*
X148801Y-54413D01*
X148715Y-54413D01*
X148672Y-54380D01*
X148651Y-54346D01*
X148629Y-54280D01*
X148629Y-53713D01*
X148437Y-53780D02*
X148415Y-53746D01*
X148372Y-53713D01*
X148265Y-53713D01*
X148222Y-53746D01*
X148201Y-53780D01*
X148179Y-53846D01*
X148179Y-53913D01*
X148201Y-54013D01*
X148458Y-54413D01*
X148179Y-54413D01*
X147901Y-53713D02*
X147858Y-53713D01*
X147815Y-53746D01*
X147794Y-53780D01*
X147772Y-53846D01*
X147751Y-53980D01*
X147751Y-54146D01*
X147772Y-54280D01*
X147794Y-54346D01*
X147815Y-54380D01*
X147858Y-54413D01*
X147901Y-54413D01*
X147944Y-54380D01*
X147965Y-54346D01*
X147987Y-54280D01*
X148008Y-54146D01*
X148008Y-53980D01*
X147987Y-53846D01*
X147965Y-53780D01*
X147944Y-53746D01*
X147901Y-53713D01*
X133982Y-53693D02*
X133982Y-54260D01*
X133960Y-54326D01*
X133939Y-54360D01*
X133896Y-54393D01*
X133810Y-54393D01*
X133767Y-54360D01*
X133746Y-54326D01*
X133724Y-54260D01*
X133724Y-53693D01*
X133274Y-54393D02*
X133532Y-54393D01*
X133403Y-54393D02*
X133403Y-53693D01*
X133446Y-53793D01*
X133489Y-53860D01*
X133532Y-53893D01*
X133017Y-53993D02*
X133060Y-53960D01*
X133082Y-53926D01*
X133103Y-53860D01*
X133103Y-53826D01*
X133082Y-53760D01*
X133060Y-53726D01*
X133017Y-53693D01*
X132932Y-53693D01*
X132889Y-53726D01*
X132867Y-53760D01*
X132846Y-53826D01*
X132846Y-53860D01*
X132867Y-53926D01*
X132889Y-53960D01*
X132932Y-53993D01*
X133017Y-53993D01*
X133060Y-54026D01*
X133082Y-54060D01*
X133103Y-54126D01*
X133103Y-54260D01*
X133082Y-54326D01*
X133060Y-54360D01*
X133017Y-54393D01*
X132932Y-54393D01*
X132889Y-54360D01*
X132867Y-54326D01*
X132846Y-54260D01*
X132846Y-54126D01*
X132867Y-54060D01*
X132889Y-54026D01*
X132932Y-53993D01*
X129617Y-59713D02*
X129617Y-60280D01*
X129595Y-60346D01*
X129574Y-60380D01*
X129531Y-60413D01*
X129445Y-60413D01*
X129402Y-60380D01*
X129381Y-60346D01*
X129359Y-60280D01*
X129359Y-59713D01*
X129167Y-59780D02*
X129145Y-59746D01*
X129102Y-59713D01*
X128995Y-59713D01*
X128952Y-59746D01*
X128931Y-59780D01*
X128909Y-59846D01*
X128909Y-59913D01*
X128931Y-60013D01*
X129188Y-60413D01*
X128909Y-60413D01*
X128524Y-59946D02*
X128524Y-60413D01*
X128631Y-59680D02*
X128738Y-60180D01*
X128459Y-60180D01*
X115847Y-53743D02*
X115847Y-54310D01*
X115825Y-54376D01*
X115804Y-54410D01*
X115761Y-54443D01*
X115675Y-54443D01*
X115632Y-54410D01*
X115611Y-54376D01*
X115589Y-54310D01*
X115589Y-53743D01*
X115397Y-53810D02*
X115375Y-53776D01*
X115332Y-53743D01*
X115225Y-53743D01*
X115182Y-53776D01*
X115161Y-53810D01*
X115139Y-53876D01*
X115139Y-53943D01*
X115161Y-54043D01*
X115418Y-54443D01*
X115139Y-54443D01*
X114711Y-54443D02*
X114968Y-54443D01*
X114839Y-54443D02*
X114839Y-53743D01*
X114882Y-53843D01*
X114925Y-53910D01*
X114968Y-53943D01*
X115767Y-59743D02*
X115767Y-60310D01*
X115745Y-60376D01*
X115724Y-60410D01*
X115681Y-60443D01*
X115595Y-60443D01*
X115552Y-60410D01*
X115531Y-60376D01*
X115509Y-60310D01*
X115509Y-59743D01*
X115317Y-59810D02*
X115295Y-59776D01*
X115252Y-59743D01*
X115145Y-59743D01*
X115102Y-59776D01*
X115081Y-59810D01*
X115059Y-59876D01*
X115059Y-59943D01*
X115081Y-60043D01*
X115338Y-60443D01*
X115059Y-60443D01*
X114888Y-59810D02*
X114867Y-59776D01*
X114824Y-59743D01*
X114717Y-59743D01*
X114674Y-59776D01*
X114652Y-59810D01*
X114631Y-59876D01*
X114631Y-59943D01*
X114652Y-60043D01*
X114909Y-60443D01*
X114631Y-60443D01*
X101887Y-59773D02*
X101887Y-60340D01*
X101865Y-60406D01*
X101844Y-60440D01*
X101801Y-60473D01*
X101715Y-60473D01*
X101672Y-60440D01*
X101651Y-60406D01*
X101629Y-60340D01*
X101629Y-59773D01*
X101179Y-60473D02*
X101437Y-60473D01*
X101308Y-60473D02*
X101308Y-59773D01*
X101351Y-59873D01*
X101394Y-59940D01*
X101437Y-59973D01*
X100901Y-59773D02*
X100858Y-59773D01*
X100815Y-59806D01*
X100794Y-59840D01*
X100772Y-59906D01*
X100751Y-60040D01*
X100751Y-60206D01*
X100772Y-60340D01*
X100794Y-60406D01*
X100815Y-60440D01*
X100858Y-60473D01*
X100901Y-60473D01*
X100944Y-60440D01*
X100965Y-60406D01*
X100987Y-60340D01*
X101008Y-60206D01*
X101008Y-60040D01*
X100987Y-59906D01*
X100965Y-59840D01*
X100944Y-59806D01*
X100901Y-59773D01*
X101907Y-53723D02*
X101907Y-54290D01*
X101885Y-54356D01*
X101864Y-54390D01*
X101821Y-54423D01*
X101735Y-54423D01*
X101692Y-54390D01*
X101671Y-54356D01*
X101649Y-54290D01*
X101649Y-53723D01*
X101242Y-53956D02*
X101242Y-54423D01*
X101349Y-53690D02*
X101457Y-54190D01*
X101178Y-54190D01*
X100792Y-53723D02*
X101007Y-53723D01*
X101028Y-54056D01*
X101007Y-54023D01*
X100964Y-53990D01*
X100857Y-53990D01*
X100814Y-54023D01*
X100792Y-54056D01*
X100771Y-54123D01*
X100771Y-54290D01*
X100792Y-54356D01*
X100814Y-54390D01*
X100857Y-54423D01*
X100964Y-54423D01*
X101007Y-54390D01*
X101028Y-54356D01*
X92780Y-60510D02*
X92715Y-60543D01*
X92608Y-60543D01*
X92565Y-60510D01*
X92544Y-60476D01*
X92522Y-60410D01*
X92522Y-60343D01*
X92544Y-60276D01*
X92565Y-60243D01*
X92608Y-60210D01*
X92694Y-60176D01*
X92737Y-60143D01*
X92758Y-60110D01*
X92780Y-60043D01*
X92780Y-59976D01*
X92758Y-59910D01*
X92737Y-59876D01*
X92694Y-59843D01*
X92587Y-59843D01*
X92522Y-59876D01*
X92372Y-59843D02*
X92265Y-60543D01*
X92180Y-60043D01*
X92094Y-60543D01*
X91987Y-59843D01*
X91580Y-60543D02*
X91837Y-60543D01*
X91708Y-60543D02*
X91708Y-59843D01*
X91751Y-59943D01*
X91794Y-60010D01*
X91837Y-60043D01*
X87767Y-53793D02*
X87767Y-54360D01*
X87746Y-54426D01*
X87725Y-54460D01*
X87682Y-54493D01*
X87596Y-54493D01*
X87553Y-54460D01*
X87532Y-54426D01*
X87510Y-54360D01*
X87510Y-53793D01*
X87317Y-53860D02*
X87296Y-53826D01*
X87253Y-53793D01*
X87146Y-53793D01*
X87103Y-53826D01*
X87082Y-53860D01*
X87060Y-53926D01*
X87060Y-53993D01*
X87082Y-54093D01*
X87339Y-54493D01*
X87060Y-54493D01*
X102137Y-32733D02*
X102137Y-33300D01*
X102115Y-33366D01*
X102094Y-33400D01*
X102051Y-33433D01*
X101965Y-33433D01*
X101922Y-33400D01*
X101901Y-33366D01*
X101879Y-33300D01*
X101879Y-32733D01*
X101708Y-32733D02*
X101429Y-32733D01*
X101579Y-33000D01*
X101515Y-33000D01*
X101472Y-33033D01*
X101451Y-33066D01*
X101429Y-33133D01*
X101429Y-33300D01*
X101451Y-33366D01*
X101472Y-33400D01*
X101515Y-33433D01*
X101644Y-33433D01*
X101687Y-33400D01*
X101708Y-33366D01*
X101001Y-33433D02*
X101258Y-33433D01*
X101129Y-33433D02*
X101129Y-32733D01*
X101172Y-32833D01*
X101215Y-32900D01*
X101258Y-32933D01*
X134869Y-40378D02*
X134869Y-39678D01*
X134397Y-40311D02*
X134419Y-40345D01*
X134483Y-40378D01*
X134526Y-40378D01*
X134590Y-40345D01*
X134633Y-40278D01*
X134654Y-40211D01*
X134676Y-40078D01*
X134676Y-39978D01*
X134654Y-39845D01*
X134633Y-39778D01*
X134590Y-39711D01*
X134526Y-39678D01*
X134483Y-39678D01*
X134419Y-39711D01*
X134397Y-39745D01*
X134140Y-39978D02*
X134183Y-39945D01*
X134204Y-39911D01*
X134226Y-39845D01*
X134226Y-39811D01*
X134204Y-39745D01*
X134183Y-39711D01*
X134140Y-39678D01*
X134054Y-39678D01*
X134012Y-39711D01*
X133990Y-39745D01*
X133969Y-39811D01*
X133969Y-39845D01*
X133990Y-39911D01*
X134012Y-39945D01*
X134054Y-39978D01*
X134140Y-39978D01*
X134183Y-40011D01*
X134204Y-40045D01*
X134226Y-40111D01*
X134226Y-40245D01*
X134204Y-40311D01*
X134183Y-40345D01*
X134140Y-40378D01*
X134054Y-40378D01*
X134012Y-40345D01*
X133990Y-40311D01*
X133969Y-40245D01*
X133969Y-40111D01*
X133990Y-40045D01*
X134012Y-40011D01*
X134054Y-39978D01*
X120899Y-40473D02*
X120899Y-39773D01*
X120427Y-40406D02*
X120449Y-40440D01*
X120513Y-40473D01*
X120556Y-40473D01*
X120620Y-40440D01*
X120663Y-40373D01*
X120684Y-40306D01*
X120706Y-40173D01*
X120706Y-40073D01*
X120684Y-39940D01*
X120663Y-39873D01*
X120620Y-39806D01*
X120556Y-39773D01*
X120513Y-39773D01*
X120449Y-39806D01*
X120427Y-39840D01*
X120277Y-39773D02*
X119977Y-39773D01*
X120170Y-40473D01*
X106999Y-40398D02*
X106999Y-39698D01*
X106527Y-40331D02*
X106549Y-40365D01*
X106613Y-40398D01*
X106656Y-40398D01*
X106720Y-40365D01*
X106763Y-40298D01*
X106784Y-40231D01*
X106806Y-40098D01*
X106806Y-39998D01*
X106784Y-39865D01*
X106763Y-39798D01*
X106720Y-39731D01*
X106656Y-39698D01*
X106613Y-39698D01*
X106549Y-39731D01*
X106527Y-39765D01*
X106142Y-39698D02*
X106227Y-39698D01*
X106270Y-39731D01*
X106292Y-39765D01*
X106334Y-39865D01*
X106356Y-39998D01*
X106356Y-40265D01*
X106334Y-40331D01*
X106313Y-40365D01*
X106270Y-40398D01*
X106184Y-40398D01*
X106142Y-40365D01*
X106120Y-40331D01*
X106099Y-40265D01*
X106099Y-40098D01*
X106120Y-40031D01*
X106142Y-39998D01*
X106184Y-39965D01*
X106270Y-39965D01*
X106313Y-39998D01*
X106334Y-40031D01*
X106356Y-40098D01*
X107079Y-47033D02*
X107079Y-46333D01*
X106607Y-46966D02*
X106629Y-47000D01*
X106693Y-47033D01*
X106736Y-47033D01*
X106800Y-47000D01*
X106843Y-46933D01*
X106864Y-46866D01*
X106886Y-46733D01*
X106886Y-46633D01*
X106864Y-46500D01*
X106843Y-46433D01*
X106800Y-46366D01*
X106736Y-46333D01*
X106693Y-46333D01*
X106629Y-46366D01*
X106607Y-46400D01*
X106436Y-46400D02*
X106414Y-46366D01*
X106372Y-46333D01*
X106264Y-46333D01*
X106222Y-46366D01*
X106200Y-46400D01*
X106179Y-46466D01*
X106179Y-46533D01*
X106200Y-46633D01*
X106457Y-47033D01*
X106179Y-47033D01*
X120929Y-46953D02*
X120929Y-46253D01*
X120457Y-46886D02*
X120479Y-46920D01*
X120543Y-46953D01*
X120586Y-46953D01*
X120650Y-46920D01*
X120693Y-46853D01*
X120714Y-46786D01*
X120736Y-46653D01*
X120736Y-46553D01*
X120714Y-46420D01*
X120693Y-46353D01*
X120650Y-46286D01*
X120586Y-46253D01*
X120543Y-46253D01*
X120479Y-46286D01*
X120457Y-46320D01*
X120307Y-46253D02*
X120029Y-46253D01*
X120179Y-46520D01*
X120114Y-46520D01*
X120072Y-46553D01*
X120050Y-46586D01*
X120029Y-46653D01*
X120029Y-46820D01*
X120050Y-46886D01*
X120072Y-46920D01*
X120114Y-46953D01*
X120243Y-46953D01*
X120286Y-46920D01*
X120307Y-46886D01*
X135053Y-46903D02*
X135053Y-46203D01*
X134582Y-46836D02*
X134603Y-46870D01*
X134667Y-46903D01*
X134710Y-46903D01*
X134774Y-46870D01*
X134817Y-46803D01*
X134839Y-46736D01*
X134860Y-46603D01*
X134860Y-46503D01*
X134839Y-46370D01*
X134817Y-46303D01*
X134774Y-46236D01*
X134710Y-46203D01*
X134667Y-46203D01*
X134603Y-46236D01*
X134582Y-46270D01*
X134153Y-46903D02*
X134410Y-46903D01*
X134282Y-46903D02*
X134282Y-46203D01*
X134324Y-46303D01*
X134367Y-46370D01*
X134410Y-46403D01*
X133875Y-46203D02*
X133832Y-46203D01*
X133789Y-46236D01*
X133767Y-46270D01*
X133746Y-46336D01*
X133725Y-46470D01*
X133725Y-46636D01*
X133746Y-46770D01*
X133767Y-46836D01*
X133789Y-46870D01*
X133832Y-46903D01*
X133875Y-46903D01*
X133917Y-46870D01*
X133939Y-46836D01*
X133960Y-46770D01*
X133982Y-46636D01*
X133982Y-46470D01*
X133960Y-46336D01*
X133939Y-46270D01*
X133917Y-46236D01*
X133875Y-46203D01*
X149933Y-46973D02*
X149933Y-46273D01*
X149462Y-46906D02*
X149483Y-46940D01*
X149547Y-46973D01*
X149590Y-46973D01*
X149654Y-46940D01*
X149697Y-46873D01*
X149719Y-46806D01*
X149740Y-46673D01*
X149740Y-46573D01*
X149719Y-46440D01*
X149697Y-46373D01*
X149654Y-46306D01*
X149590Y-46273D01*
X149547Y-46273D01*
X149483Y-46306D01*
X149462Y-46340D01*
X149033Y-46973D02*
X149290Y-46973D01*
X149162Y-46973D02*
X149162Y-46273D01*
X149204Y-46373D01*
X149247Y-46440D01*
X149290Y-46473D01*
X148605Y-46973D02*
X148862Y-46973D01*
X148733Y-46973D02*
X148733Y-46273D01*
X148776Y-46373D01*
X148819Y-46440D01*
X148862Y-46473D01*
X149799Y-40428D02*
X149799Y-39728D01*
X149327Y-40361D02*
X149349Y-40395D01*
X149413Y-40428D01*
X149456Y-40428D01*
X149520Y-40395D01*
X149563Y-40328D01*
X149584Y-40261D01*
X149606Y-40128D01*
X149606Y-40028D01*
X149584Y-39895D01*
X149563Y-39828D01*
X149520Y-39761D01*
X149456Y-39728D01*
X149413Y-39728D01*
X149349Y-39761D01*
X149327Y-39795D01*
X149113Y-40428D02*
X149027Y-40428D01*
X148984Y-40395D01*
X148963Y-40361D01*
X148920Y-40261D01*
X148899Y-40128D01*
X148899Y-39861D01*
X148920Y-39795D01*
X148942Y-39761D01*
X148984Y-39728D01*
X149070Y-39728D01*
X149113Y-39761D01*
X149134Y-39795D01*
X149156Y-39861D01*
X149156Y-40028D01*
X149134Y-40095D01*
X149113Y-40128D01*
X149070Y-40161D01*
X148984Y-40161D01*
X148942Y-40128D01*
X148920Y-40095D01*
X148899Y-40028D01*
X149933Y-33413D02*
X149933Y-32713D01*
X149462Y-33346D02*
X149483Y-33380D01*
X149547Y-33413D01*
X149590Y-33413D01*
X149654Y-33380D01*
X149697Y-33313D01*
X149719Y-33246D01*
X149740Y-33113D01*
X149740Y-33013D01*
X149719Y-32880D01*
X149697Y-32813D01*
X149654Y-32746D01*
X149590Y-32713D01*
X149547Y-32713D01*
X149483Y-32746D01*
X149462Y-32780D01*
X149033Y-33413D02*
X149290Y-33413D01*
X149162Y-33413D02*
X149162Y-32713D01*
X149204Y-32813D01*
X149247Y-32880D01*
X149290Y-32913D01*
X148883Y-32713D02*
X148605Y-32713D01*
X148755Y-32980D01*
X148690Y-32980D01*
X148647Y-33013D01*
X148626Y-33046D01*
X148605Y-33113D01*
X148605Y-33280D01*
X148626Y-33346D01*
X148647Y-33380D01*
X148690Y-33413D01*
X148819Y-33413D01*
X148862Y-33380D01*
X148883Y-33346D01*
X135033Y-33443D02*
X135033Y-32743D01*
X134562Y-33376D02*
X134583Y-33410D01*
X134647Y-33443D01*
X134690Y-33443D01*
X134754Y-33410D01*
X134797Y-33343D01*
X134819Y-33276D01*
X134840Y-33143D01*
X134840Y-33043D01*
X134819Y-32910D01*
X134797Y-32843D01*
X134754Y-32776D01*
X134690Y-32743D01*
X134647Y-32743D01*
X134583Y-32776D01*
X134562Y-32810D01*
X134133Y-33443D02*
X134390Y-33443D01*
X134262Y-33443D02*
X134262Y-32743D01*
X134304Y-32843D01*
X134347Y-32910D01*
X134390Y-32943D01*
X133962Y-32810D02*
X133940Y-32776D01*
X133897Y-32743D01*
X133790Y-32743D01*
X133747Y-32776D01*
X133726Y-32810D01*
X133705Y-32876D01*
X133705Y-32943D01*
X133726Y-33043D01*
X133983Y-33443D01*
X133705Y-33443D01*
X120929Y-33393D02*
X120929Y-32693D01*
X120457Y-33326D02*
X120479Y-33360D01*
X120543Y-33393D01*
X120586Y-33393D01*
X120650Y-33360D01*
X120693Y-33293D01*
X120714Y-33226D01*
X120736Y-33093D01*
X120736Y-32993D01*
X120714Y-32860D01*
X120693Y-32793D01*
X120650Y-32726D01*
X120586Y-32693D01*
X120543Y-32693D01*
X120479Y-32726D01*
X120457Y-32760D01*
X120050Y-32693D02*
X120264Y-32693D01*
X120286Y-33026D01*
X120264Y-32993D01*
X120222Y-32960D01*
X120114Y-32960D01*
X120072Y-32993D01*
X120050Y-33026D01*
X120029Y-33093D01*
X120029Y-33260D01*
X120050Y-33326D01*
X120072Y-33360D01*
X120114Y-33393D01*
X120222Y-33393D01*
X120264Y-33360D01*
X120286Y-33326D01*
X107049Y-33393D02*
X107049Y-32693D01*
X106577Y-33326D02*
X106599Y-33360D01*
X106663Y-33393D01*
X106706Y-33393D01*
X106770Y-33360D01*
X106813Y-33293D01*
X106834Y-33226D01*
X106856Y-33093D01*
X106856Y-32993D01*
X106834Y-32860D01*
X106813Y-32793D01*
X106770Y-32726D01*
X106706Y-32693D01*
X106663Y-32693D01*
X106599Y-32726D01*
X106577Y-32760D01*
X106192Y-32926D02*
X106192Y-33393D01*
X106299Y-32660D02*
X106406Y-33160D01*
X106127Y-33160D01*
X104192Y-24603D02*
X104192Y-25170D01*
X104171Y-25236D01*
X104150Y-25270D01*
X104107Y-25303D01*
X104021Y-25303D01*
X103978Y-25270D01*
X103957Y-25236D01*
X103935Y-25170D01*
X103935Y-24603D01*
X103485Y-25303D02*
X103742Y-25303D01*
X103614Y-25303D02*
X103614Y-24603D01*
X103657Y-24703D01*
X103700Y-24770D01*
X103742Y-24803D01*
G54D13*
X78083Y-25376D02*
X77217Y-25376D01*
X77217Y-25376D02*
X77217Y-24824D01*
X77217Y-24824D02*
X78083Y-24824D01*
X78083Y-24824D02*
X78083Y-25376D01*
X77435Y-24981D02*
G75*
G03X77435Y-24981I-62J0D01*
G74*
G01*
X76583Y-27576D02*
X75717Y-27576D01*
X75717Y-27576D02*
X75717Y-27024D01*
X75717Y-27024D02*
X76583Y-27024D01*
X76583Y-27024D02*
X76583Y-27576D01*
X75935Y-27181D02*
G75*
G03X75935Y-27181I-62J0D01*
G74*
G01*
X74483Y-25026D02*
X73617Y-25026D01*
X73617Y-25026D02*
X73617Y-24474D01*
X73617Y-24474D02*
X74483Y-24474D01*
X74483Y-24474D02*
X74483Y-25026D01*
X73835Y-24631D02*
G75*
G03X73835Y-24631I-62J0D01*
G74*
G01*
X76583Y-25376D02*
X75717Y-25376D01*
X75717Y-25376D02*
X75717Y-24824D01*
X75717Y-24824D02*
X76583Y-24824D01*
X76583Y-24824D02*
X76583Y-25376D01*
X75935Y-24981D02*
G75*
G03X75935Y-24981I-62J0D01*
G74*
G01*
G54D14*
X81137Y-19626D02*
X81137Y-18074D01*
X81137Y-18074D02*
X80363Y-18074D01*
X80363Y-18074D02*
X80363Y-19626D01*
X80363Y-19626D02*
X81137Y-19626D01*
X78837Y-19626D02*
X78837Y-18074D01*
X78837Y-18074D02*
X78063Y-18074D01*
X78063Y-18074D02*
X78063Y-19626D01*
X78063Y-19626D02*
X78837Y-19626D01*
X83437Y-19626D02*
X83437Y-18074D01*
X83437Y-18074D02*
X82663Y-18074D01*
X82663Y-18074D02*
X82663Y-19626D01*
X82663Y-19626D02*
X83437Y-19626D01*
X85687Y-19626D02*
X85687Y-18074D01*
X85687Y-18074D02*
X84913Y-18074D01*
X84913Y-18074D02*
X84913Y-19626D01*
X84913Y-19626D02*
X85687Y-19626D01*
X73613Y-26474D02*
X73613Y-28026D01*
X73613Y-28026D02*
X74387Y-28026D01*
X74387Y-28026D02*
X74387Y-26474D01*
X74387Y-26474D02*
X73613Y-26474D01*
X75524Y-22687D02*
X77076Y-22687D01*
X77076Y-22687D02*
X77076Y-21913D01*
X77076Y-21913D02*
X75524Y-21913D01*
X75524Y-21913D02*
X75524Y-22687D01*
X75524Y-23587D02*
X77076Y-23587D01*
X77076Y-23587D02*
X77076Y-22813D01*
X77076Y-22813D02*
X75524Y-22813D01*
X75524Y-22813D02*
X75524Y-23587D01*
X72513Y-26474D02*
X72513Y-28026D01*
X72513Y-28026D02*
X73287Y-28026D01*
X73287Y-28026D02*
X73287Y-26474D01*
X73287Y-26474D02*
X72513Y-26474D01*
X81874Y-56137D02*
X83426Y-56137D01*
X83426Y-56137D02*
X83426Y-55363D01*
X83426Y-55363D02*
X81874Y-55363D01*
X81874Y-55363D02*
X81874Y-56137D01*
G54D15*
X62119Y-24827D02*
X62119Y-25232D01*
X62142Y-25279D01*
X62166Y-25303D01*
X62214Y-25327D01*
X62309Y-25327D01*
X62357Y-25303D01*
X62380Y-25279D01*
X62404Y-25232D01*
X62404Y-24827D01*
X62666Y-25327D02*
X62761Y-25327D01*
X62809Y-25303D01*
X62833Y-25279D01*
X62880Y-25208D01*
X62904Y-25113D01*
X62904Y-24922D01*
X62880Y-24875D01*
X62857Y-24851D01*
X62809Y-24827D01*
X62714Y-24827D01*
X62666Y-24851D01*
X62642Y-24875D01*
X62619Y-24922D01*
X62619Y-25041D01*
X62642Y-25089D01*
X62666Y-25113D01*
X62714Y-25136D01*
X62809Y-25136D01*
X62857Y-25113D01*
X62880Y-25089D01*
X62904Y-25041D01*
X60780Y-28402D02*
X60780Y-27902D01*
X60947Y-28259D01*
X61114Y-27902D01*
X61114Y-28402D01*
X61328Y-27950D02*
X61352Y-27926D01*
X61400Y-27902D01*
X61519Y-27902D01*
X61566Y-27926D01*
X61590Y-27950D01*
X61614Y-27997D01*
X61614Y-28045D01*
X61590Y-28116D01*
X61304Y-28402D01*
X61614Y-28402D01*
X62066Y-27902D02*
X61828Y-27902D01*
X61804Y-28140D01*
X61828Y-28116D01*
X61876Y-28092D01*
X61995Y-28092D01*
X62042Y-28116D01*
X62066Y-28140D01*
X62090Y-28188D01*
X62090Y-28307D01*
X62066Y-28354D01*
X62042Y-28378D01*
X61995Y-28402D01*
X61876Y-28402D01*
X61828Y-28378D01*
X61804Y-28354D01*
X62304Y-28402D02*
X62304Y-27902D01*
X62495Y-27902D01*
X62542Y-27926D01*
X62566Y-27950D01*
X62590Y-27997D01*
X62590Y-28069D01*
X62566Y-28116D01*
X62542Y-28140D01*
X62495Y-28164D01*
X62304Y-28164D01*
X62876Y-28116D02*
X62828Y-28092D01*
X62804Y-28069D01*
X62780Y-28021D01*
X62780Y-27997D01*
X62804Y-27950D01*
X62828Y-27926D01*
X62876Y-27902D01*
X62971Y-27902D01*
X63019Y-27926D01*
X63042Y-27950D01*
X63066Y-27997D01*
X63066Y-28021D01*
X63042Y-28069D01*
X63019Y-28092D01*
X62971Y-28116D01*
X62876Y-28116D01*
X62828Y-28140D01*
X62804Y-28164D01*
X62780Y-28211D01*
X62780Y-28307D01*
X62804Y-28354D01*
X62828Y-28378D01*
X62876Y-28402D01*
X62971Y-28402D01*
X63019Y-28378D01*
X63042Y-28354D01*
X63066Y-28307D01*
X63066Y-28211D01*
X63042Y-28164D01*
X63019Y-28140D01*
X62971Y-28116D01*
X63376Y-27902D02*
X63423Y-27902D01*
X63471Y-27926D01*
X63495Y-27950D01*
X63519Y-27997D01*
X63542Y-28092D01*
X63542Y-28211D01*
X63519Y-28307D01*
X63495Y-28354D01*
X63471Y-28378D01*
X63423Y-28402D01*
X63376Y-28402D01*
X63328Y-28378D01*
X63304Y-28354D01*
X63280Y-28307D01*
X63257Y-28211D01*
X63257Y-28092D01*
X63280Y-27997D01*
X63304Y-27950D01*
X63328Y-27926D01*
X63376Y-27902D01*
X61666Y-36183D02*
X61666Y-35483D01*
X62400Y-36116D02*
X62366Y-36150D01*
X62266Y-36183D01*
X62200Y-36183D01*
X62100Y-36150D01*
X62033Y-36083D01*
X62000Y-36016D01*
X61966Y-35883D01*
X61966Y-35783D01*
X62000Y-35650D01*
X62033Y-35583D01*
X62100Y-35516D01*
X62200Y-35483D01*
X62266Y-35483D01*
X62366Y-35516D01*
X62400Y-35550D01*
X63066Y-36183D02*
X62666Y-36183D01*
X62866Y-36183D02*
X62866Y-35483D01*
X62800Y-35583D01*
X62733Y-35650D01*
X62666Y-35683D01*
X54866Y-42033D02*
X55333Y-42733D01*
X55333Y-42033D02*
X54866Y-42733D01*
X56000Y-42666D02*
X55966Y-42700D01*
X55866Y-42733D01*
X55800Y-42733D01*
X55700Y-42700D01*
X55633Y-42633D01*
X55600Y-42566D01*
X55566Y-42433D01*
X55566Y-42333D01*
X55600Y-42200D01*
X55633Y-42133D01*
X55700Y-42066D01*
X55800Y-42033D01*
X55866Y-42033D01*
X55966Y-42066D01*
X56000Y-42100D01*
X56333Y-42733D02*
X56466Y-42733D01*
X56533Y-42700D01*
X56566Y-42666D01*
X56633Y-42566D01*
X56666Y-42433D01*
X56666Y-42166D01*
X56633Y-42100D01*
X56600Y-42066D01*
X56533Y-42033D01*
X56400Y-42033D01*
X56333Y-42066D01*
X56300Y-42100D01*
X56266Y-42166D01*
X56266Y-42333D01*
X56300Y-42400D01*
X56333Y-42433D01*
X56400Y-42466D01*
X56533Y-42466D01*
X56600Y-42433D01*
X56633Y-42400D01*
X56666Y-42333D01*
X57300Y-42033D02*
X56966Y-42033D01*
X56933Y-42366D01*
X56966Y-42333D01*
X57033Y-42300D01*
X57200Y-42300D01*
X57266Y-42333D01*
X57300Y-42366D01*
X57333Y-42433D01*
X57333Y-42600D01*
X57300Y-42666D01*
X57266Y-42700D01*
X57200Y-42733D01*
X57033Y-42733D01*
X56966Y-42700D01*
X56933Y-42666D01*
X57566Y-42033D02*
X58033Y-42033D01*
X57733Y-42733D01*
X58266Y-42100D02*
X58300Y-42066D01*
X58366Y-42033D01*
X58533Y-42033D01*
X58600Y-42066D01*
X58633Y-42100D01*
X58666Y-42166D01*
X58666Y-42233D01*
X58633Y-42333D01*
X58233Y-42733D01*
X58666Y-42733D01*
X58966Y-42733D02*
X58966Y-42033D01*
X59233Y-42033D01*
X59300Y-42066D01*
X59333Y-42100D01*
X59366Y-42166D01*
X59366Y-42266D01*
X59333Y-42333D01*
X59300Y-42366D01*
X59233Y-42400D01*
X58966Y-42400D01*
X60066Y-42666D02*
X60033Y-42700D01*
X59933Y-42733D01*
X59866Y-42733D01*
X59766Y-42700D01*
X59700Y-42633D01*
X59666Y-42566D01*
X59633Y-42433D01*
X59633Y-42333D01*
X59666Y-42200D01*
X59700Y-42133D01*
X59766Y-42066D01*
X59866Y-42033D01*
X59933Y-42033D01*
X60033Y-42066D01*
X60066Y-42100D01*
X60466Y-42333D02*
X60400Y-42300D01*
X60366Y-42266D01*
X60333Y-42200D01*
X60333Y-42166D01*
X60366Y-42100D01*
X60400Y-42066D01*
X60466Y-42033D01*
X60600Y-42033D01*
X60666Y-42066D01*
X60700Y-42100D01*
X60733Y-42166D01*
X60733Y-42200D01*
X60700Y-42266D01*
X60666Y-42300D01*
X60600Y-42333D01*
X60466Y-42333D01*
X60400Y-42366D01*
X60366Y-42400D01*
X60333Y-42466D01*
X60333Y-42600D01*
X60366Y-42666D01*
X60400Y-42700D01*
X60466Y-42733D01*
X60600Y-42733D01*
X60666Y-42700D01*
X60700Y-42666D01*
X60733Y-42600D01*
X60733Y-42466D01*
X60700Y-42400D01*
X60666Y-42366D01*
X60600Y-42333D01*
X61333Y-42266D02*
X61333Y-42733D01*
X61166Y-42000D02*
X61000Y-42500D01*
X61433Y-42500D01*
X81002Y-20178D02*
X80764Y-20011D01*
X81002Y-19892D02*
X80502Y-19892D01*
X80502Y-20083D01*
X80526Y-20130D01*
X80550Y-20154D01*
X80597Y-20178D01*
X80669Y-20178D01*
X80716Y-20154D01*
X80740Y-20130D01*
X80764Y-20083D01*
X80764Y-19892D01*
X80550Y-20369D02*
X80526Y-20392D01*
X80502Y-20440D01*
X80502Y-20559D01*
X80526Y-20607D01*
X80550Y-20630D01*
X80597Y-20654D01*
X80645Y-20654D01*
X80716Y-20630D01*
X81002Y-20345D01*
X81002Y-20654D01*
X80502Y-21083D02*
X80502Y-20988D01*
X80526Y-20940D01*
X80550Y-20916D01*
X80621Y-20869D01*
X80716Y-20845D01*
X80907Y-20845D01*
X80954Y-20869D01*
X80978Y-20892D01*
X81002Y-20940D01*
X81002Y-21035D01*
X80978Y-21083D01*
X80954Y-21107D01*
X80907Y-21130D01*
X80788Y-21130D01*
X80740Y-21107D01*
X80716Y-21083D01*
X80692Y-21035D01*
X80692Y-20940D01*
X80716Y-20892D01*
X80740Y-20869D01*
X80788Y-20845D01*
X79752Y-13007D02*
X79752Y-13316D01*
X79942Y-13150D01*
X79942Y-13221D01*
X79966Y-13269D01*
X79990Y-13292D01*
X80038Y-13316D01*
X80157Y-13316D01*
X80204Y-13292D01*
X80228Y-13269D01*
X80252Y-13221D01*
X80252Y-13078D01*
X80228Y-13030D01*
X80204Y-13007D01*
X79752Y-13483D02*
X79752Y-13792D01*
X79942Y-13626D01*
X79942Y-13697D01*
X79966Y-13745D01*
X79990Y-13769D01*
X80038Y-13792D01*
X80157Y-13792D01*
X80204Y-13769D01*
X80228Y-13745D01*
X80252Y-13697D01*
X80252Y-13554D01*
X80228Y-13507D01*
X80204Y-13483D01*
X79752Y-14102D02*
X79752Y-14150D01*
X79776Y-14197D01*
X79800Y-14221D01*
X79847Y-14245D01*
X79942Y-14269D01*
X80061Y-14269D01*
X80157Y-14245D01*
X80204Y-14221D01*
X80228Y-14197D01*
X80252Y-14150D01*
X80252Y-14102D01*
X80228Y-14054D01*
X80204Y-14030D01*
X80157Y-14007D01*
X80061Y-13983D01*
X79942Y-13983D01*
X79847Y-14007D01*
X79800Y-14030D01*
X79776Y-14054D01*
X79752Y-14102D01*
X78652Y-20178D02*
X78414Y-20011D01*
X78652Y-19892D02*
X78152Y-19892D01*
X78152Y-20083D01*
X78176Y-20130D01*
X78200Y-20154D01*
X78247Y-20178D01*
X78319Y-20178D01*
X78366Y-20154D01*
X78390Y-20130D01*
X78414Y-20083D01*
X78414Y-19892D01*
X78200Y-20369D02*
X78176Y-20392D01*
X78152Y-20440D01*
X78152Y-20559D01*
X78176Y-20607D01*
X78200Y-20630D01*
X78247Y-20654D01*
X78295Y-20654D01*
X78366Y-20630D01*
X78652Y-20345D01*
X78652Y-20654D01*
X78152Y-21107D02*
X78152Y-20869D01*
X78390Y-20845D01*
X78366Y-20869D01*
X78342Y-20916D01*
X78342Y-21035D01*
X78366Y-21083D01*
X78390Y-21107D01*
X78438Y-21130D01*
X78557Y-21130D01*
X78604Y-21107D01*
X78628Y-21083D01*
X78652Y-21035D01*
X78652Y-20916D01*
X78628Y-20869D01*
X78604Y-20845D01*
X78052Y-12807D02*
X78052Y-13116D01*
X78242Y-12950D01*
X78242Y-13021D01*
X78266Y-13069D01*
X78290Y-13092D01*
X78338Y-13116D01*
X78457Y-13116D01*
X78504Y-13092D01*
X78528Y-13069D01*
X78552Y-13021D01*
X78552Y-12878D01*
X78528Y-12830D01*
X78504Y-12807D01*
X78052Y-13283D02*
X78052Y-13592D01*
X78242Y-13426D01*
X78242Y-13497D01*
X78266Y-13545D01*
X78290Y-13569D01*
X78338Y-13592D01*
X78457Y-13592D01*
X78504Y-13569D01*
X78528Y-13545D01*
X78552Y-13497D01*
X78552Y-13354D01*
X78528Y-13307D01*
X78504Y-13283D01*
X78052Y-13902D02*
X78052Y-13950D01*
X78076Y-13997D01*
X78100Y-14021D01*
X78147Y-14045D01*
X78242Y-14069D01*
X78361Y-14069D01*
X78457Y-14045D01*
X78504Y-14021D01*
X78528Y-13997D01*
X78552Y-13950D01*
X78552Y-13902D01*
X78528Y-13854D01*
X78504Y-13830D01*
X78457Y-13807D01*
X78361Y-13783D01*
X78242Y-13783D01*
X78147Y-13807D01*
X78100Y-13830D01*
X78076Y-13854D01*
X78052Y-13902D01*
X83302Y-20178D02*
X83064Y-20011D01*
X83302Y-19892D02*
X82802Y-19892D01*
X82802Y-20083D01*
X82826Y-20130D01*
X82850Y-20154D01*
X82897Y-20178D01*
X82969Y-20178D01*
X83016Y-20154D01*
X83040Y-20130D01*
X83064Y-20083D01*
X83064Y-19892D01*
X82850Y-20369D02*
X82826Y-20392D01*
X82802Y-20440D01*
X82802Y-20559D01*
X82826Y-20607D01*
X82850Y-20630D01*
X82897Y-20654D01*
X82945Y-20654D01*
X83016Y-20630D01*
X83302Y-20345D01*
X83302Y-20654D01*
X82969Y-21083D02*
X83302Y-21083D01*
X82778Y-20964D02*
X83135Y-20845D01*
X83135Y-21154D01*
X81852Y-13357D02*
X81852Y-13666D01*
X82042Y-13500D01*
X82042Y-13571D01*
X82066Y-13619D01*
X82090Y-13642D01*
X82138Y-13666D01*
X82257Y-13666D01*
X82304Y-13642D01*
X82328Y-13619D01*
X82352Y-13571D01*
X82352Y-13428D01*
X82328Y-13380D01*
X82304Y-13357D01*
X81852Y-13833D02*
X81852Y-14142D01*
X82042Y-13976D01*
X82042Y-14047D01*
X82066Y-14095D01*
X82090Y-14119D01*
X82138Y-14142D01*
X82257Y-14142D01*
X82304Y-14119D01*
X82328Y-14095D01*
X82352Y-14047D01*
X82352Y-13904D01*
X82328Y-13857D01*
X82304Y-13833D01*
X81852Y-14452D02*
X81852Y-14500D01*
X81876Y-14547D01*
X81900Y-14571D01*
X81947Y-14595D01*
X82042Y-14619D01*
X82161Y-14619D01*
X82257Y-14595D01*
X82304Y-14571D01*
X82328Y-14547D01*
X82352Y-14500D01*
X82352Y-14452D01*
X82328Y-14404D01*
X82304Y-14380D01*
X82257Y-14357D01*
X82161Y-14333D01*
X82042Y-14333D01*
X81947Y-14357D01*
X81900Y-14380D01*
X81876Y-14404D01*
X81852Y-14452D01*
X85602Y-20166D02*
X85364Y-20000D01*
X85602Y-19880D02*
X85102Y-19880D01*
X85102Y-20071D01*
X85126Y-20119D01*
X85150Y-20142D01*
X85197Y-20166D01*
X85269Y-20166D01*
X85316Y-20142D01*
X85340Y-20119D01*
X85364Y-20071D01*
X85364Y-19880D01*
X85316Y-20452D02*
X85292Y-20404D01*
X85269Y-20380D01*
X85221Y-20357D01*
X85197Y-20357D01*
X85150Y-20380D01*
X85126Y-20404D01*
X85102Y-20452D01*
X85102Y-20547D01*
X85126Y-20595D01*
X85150Y-20619D01*
X85197Y-20642D01*
X85221Y-20642D01*
X85269Y-20619D01*
X85292Y-20595D01*
X85316Y-20547D01*
X85316Y-20452D01*
X85340Y-20404D01*
X85364Y-20380D01*
X85411Y-20357D01*
X85507Y-20357D01*
X85554Y-20380D01*
X85578Y-20404D01*
X85602Y-20452D01*
X85602Y-20547D01*
X85578Y-20595D01*
X85554Y-20619D01*
X85507Y-20642D01*
X85411Y-20642D01*
X85364Y-20619D01*
X85340Y-20595D01*
X85316Y-20547D01*
X83802Y-12207D02*
X83802Y-12516D01*
X83992Y-12350D01*
X83992Y-12421D01*
X84016Y-12469D01*
X84040Y-12492D01*
X84088Y-12516D01*
X84207Y-12516D01*
X84254Y-12492D01*
X84278Y-12469D01*
X84302Y-12421D01*
X84302Y-12278D01*
X84278Y-12230D01*
X84254Y-12207D01*
X83802Y-12683D02*
X83802Y-12992D01*
X83992Y-12826D01*
X83992Y-12897D01*
X84016Y-12945D01*
X84040Y-12969D01*
X84088Y-12992D01*
X84207Y-12992D01*
X84254Y-12969D01*
X84278Y-12945D01*
X84302Y-12897D01*
X84302Y-12754D01*
X84278Y-12707D01*
X84254Y-12683D01*
X83802Y-13302D02*
X83802Y-13350D01*
X83826Y-13397D01*
X83850Y-13421D01*
X83897Y-13445D01*
X83992Y-13469D01*
X84111Y-13469D01*
X84207Y-13445D01*
X84254Y-13421D01*
X84278Y-13397D01*
X84302Y-13350D01*
X84302Y-13302D01*
X84278Y-13254D01*
X84254Y-13230D01*
X84207Y-13207D01*
X84111Y-13183D01*
X83992Y-13183D01*
X83897Y-13207D01*
X83850Y-13230D01*
X83826Y-13254D01*
X83802Y-13302D01*
X74202Y-28516D02*
X73964Y-28350D01*
X74202Y-28230D02*
X73702Y-28230D01*
X73702Y-28421D01*
X73726Y-28469D01*
X73750Y-28492D01*
X73797Y-28516D01*
X73869Y-28516D01*
X73916Y-28492D01*
X73940Y-28469D01*
X73964Y-28421D01*
X73964Y-28230D01*
X74202Y-28992D02*
X74202Y-28707D01*
X74202Y-28850D02*
X73702Y-28850D01*
X73773Y-28802D01*
X73821Y-28754D01*
X73845Y-28707D01*
X64602Y-24345D02*
X64602Y-24654D01*
X64792Y-24488D01*
X64792Y-24559D01*
X64816Y-24607D01*
X64840Y-24630D01*
X64888Y-24654D01*
X65007Y-24654D01*
X65054Y-24630D01*
X65078Y-24607D01*
X65102Y-24559D01*
X65102Y-24416D01*
X65078Y-24369D01*
X65054Y-24345D01*
X65102Y-24869D02*
X64602Y-24869D01*
X65102Y-25154D02*
X64816Y-24940D01*
X64602Y-25154D02*
X64888Y-24869D01*
X64602Y-25321D02*
X64602Y-25630D01*
X64792Y-25464D01*
X64792Y-25535D01*
X64816Y-25583D01*
X64840Y-25607D01*
X64888Y-25630D01*
X65007Y-25630D01*
X65054Y-25607D01*
X65078Y-25583D01*
X65102Y-25535D01*
X65102Y-25392D01*
X65078Y-25345D01*
X65054Y-25321D01*
X77733Y-22502D02*
X77900Y-22264D01*
X78019Y-22502D02*
X78019Y-22002D01*
X77828Y-22002D01*
X77780Y-22026D01*
X77757Y-22050D01*
X77733Y-22097D01*
X77733Y-22169D01*
X77757Y-22216D01*
X77780Y-22240D01*
X77828Y-22264D01*
X78019Y-22264D01*
X77542Y-22050D02*
X77519Y-22026D01*
X77471Y-22002D01*
X77352Y-22002D01*
X77304Y-22026D01*
X77280Y-22050D01*
X77257Y-22097D01*
X77257Y-22145D01*
X77280Y-22216D01*
X77566Y-22502D01*
X77257Y-22502D01*
X64895Y-23302D02*
X65180Y-23302D01*
X65038Y-23302D02*
X65038Y-22802D01*
X65085Y-22873D01*
X65133Y-22921D01*
X65180Y-22945D01*
X64585Y-22802D02*
X64538Y-22802D01*
X64490Y-22826D01*
X64466Y-22850D01*
X64442Y-22897D01*
X64419Y-22992D01*
X64419Y-23111D01*
X64442Y-23207D01*
X64466Y-23254D01*
X64490Y-23278D01*
X64538Y-23302D01*
X64585Y-23302D01*
X64633Y-23278D01*
X64657Y-23254D01*
X64680Y-23207D01*
X64704Y-23111D01*
X64704Y-22992D01*
X64680Y-22897D01*
X64657Y-22850D01*
X64633Y-22826D01*
X64585Y-22802D01*
X64204Y-23302D02*
X64204Y-22802D01*
X63919Y-23302D02*
X64133Y-23016D01*
X63919Y-22802D02*
X64204Y-23088D01*
X77783Y-23452D02*
X77950Y-23214D01*
X78069Y-23452D02*
X78069Y-22952D01*
X77878Y-22952D01*
X77830Y-22976D01*
X77807Y-23000D01*
X77783Y-23047D01*
X77783Y-23119D01*
X77807Y-23166D01*
X77830Y-23190D01*
X77878Y-23214D01*
X78069Y-23214D01*
X77616Y-22952D02*
X77307Y-22952D01*
X77473Y-23142D01*
X77402Y-23142D01*
X77354Y-23166D01*
X77330Y-23190D01*
X77307Y-23238D01*
X77307Y-23357D01*
X77330Y-23404D01*
X77354Y-23428D01*
X77402Y-23452D01*
X77545Y-23452D01*
X77592Y-23428D01*
X77616Y-23404D01*
X65245Y-24352D02*
X65530Y-24352D01*
X65388Y-24352D02*
X65388Y-23852D01*
X65435Y-23923D01*
X65483Y-23971D01*
X65530Y-23995D01*
X64935Y-23852D02*
X64888Y-23852D01*
X64840Y-23876D01*
X64816Y-23900D01*
X64792Y-23947D01*
X64769Y-24042D01*
X64769Y-24161D01*
X64792Y-24257D01*
X64816Y-24304D01*
X64840Y-24328D01*
X64888Y-24352D01*
X64935Y-24352D01*
X64983Y-24328D01*
X65007Y-24304D01*
X65030Y-24257D01*
X65054Y-24161D01*
X65054Y-24042D01*
X65030Y-23947D01*
X65007Y-23900D01*
X64983Y-23876D01*
X64935Y-23852D01*
X64554Y-24352D02*
X64554Y-23852D01*
X64269Y-24352D02*
X64483Y-24066D01*
X64269Y-23852D02*
X64554Y-24138D01*
X73202Y-28516D02*
X72964Y-28350D01*
X73202Y-28230D02*
X72702Y-28230D01*
X72702Y-28421D01*
X72726Y-28469D01*
X72750Y-28492D01*
X72797Y-28516D01*
X72869Y-28516D01*
X72916Y-28492D01*
X72940Y-28469D01*
X72964Y-28421D01*
X72964Y-28230D01*
X72869Y-28945D02*
X73202Y-28945D01*
X72678Y-28826D02*
X73035Y-28707D01*
X73035Y-29016D01*
X64552Y-25754D02*
X64552Y-25469D01*
X64552Y-25611D02*
X64052Y-25611D01*
X64123Y-25564D01*
X64171Y-25516D01*
X64195Y-25469D01*
X64052Y-26064D02*
X64052Y-26111D01*
X64076Y-26159D01*
X64100Y-26183D01*
X64147Y-26207D01*
X64242Y-26230D01*
X64361Y-26230D01*
X64457Y-26207D01*
X64504Y-26183D01*
X64528Y-26159D01*
X64552Y-26111D01*
X64552Y-26064D01*
X64528Y-26016D01*
X64504Y-25992D01*
X64457Y-25969D01*
X64361Y-25945D01*
X64242Y-25945D01*
X64147Y-25969D01*
X64100Y-25992D01*
X64076Y-26016D01*
X64052Y-26064D01*
X64552Y-26445D02*
X64052Y-26445D01*
X64552Y-26730D02*
X64266Y-26516D01*
X64052Y-26730D02*
X64338Y-26445D01*
X81321Y-55902D02*
X81488Y-55664D01*
X81607Y-55902D02*
X81607Y-55402D01*
X81416Y-55402D01*
X81369Y-55426D01*
X81345Y-55450D01*
X81321Y-55497D01*
X81321Y-55569D01*
X81345Y-55616D01*
X81369Y-55640D01*
X81416Y-55664D01*
X81607Y-55664D01*
X80845Y-55902D02*
X81130Y-55902D01*
X80988Y-55902D02*
X80988Y-55402D01*
X81035Y-55473D01*
X81083Y-55521D01*
X81130Y-55545D01*
X80559Y-55616D02*
X80607Y-55592D01*
X80630Y-55569D01*
X80654Y-55521D01*
X80654Y-55497D01*
X80630Y-55450D01*
X80607Y-55426D01*
X80559Y-55402D01*
X80464Y-55402D01*
X80416Y-55426D01*
X80392Y-55450D01*
X80369Y-55497D01*
X80369Y-55521D01*
X80392Y-55569D01*
X80416Y-55592D01*
X80464Y-55616D01*
X80559Y-55616D01*
X80607Y-55640D01*
X80630Y-55664D01*
X80654Y-55711D01*
X80654Y-55807D01*
X80630Y-55854D01*
X80607Y-55878D01*
X80559Y-55902D01*
X80464Y-55902D01*
X80416Y-55878D01*
X80392Y-55854D01*
X80369Y-55807D01*
X80369Y-55711D01*
X80392Y-55664D01*
X80416Y-55640D01*
X80464Y-55616D01*
X66202Y-55692D02*
X65893Y-55692D01*
X66060Y-55882D01*
X65988Y-55882D01*
X65940Y-55906D01*
X65917Y-55930D01*
X65893Y-55978D01*
X65893Y-56097D01*
X65917Y-56144D01*
X65940Y-56168D01*
X65988Y-56192D01*
X66131Y-56192D01*
X66179Y-56168D01*
X66202Y-56144D01*
X65726Y-55692D02*
X65417Y-55692D01*
X65583Y-55882D01*
X65512Y-55882D01*
X65464Y-55906D01*
X65440Y-55930D01*
X65417Y-55978D01*
X65417Y-56097D01*
X65440Y-56144D01*
X65464Y-56168D01*
X65512Y-56192D01*
X65655Y-56192D01*
X65702Y-56168D01*
X65726Y-56144D01*
X65107Y-55692D02*
X65060Y-55692D01*
X65012Y-55716D01*
X64988Y-55740D01*
X64964Y-55787D01*
X64940Y-55882D01*
X64940Y-56001D01*
X64964Y-56097D01*
X64988Y-56144D01*
X65012Y-56168D01*
X65060Y-56192D01*
X65107Y-56192D01*
X65155Y-56168D01*
X65179Y-56144D01*
X65202Y-56097D01*
X65226Y-56001D01*
X65226Y-55882D01*
X65202Y-55787D01*
X65179Y-55740D01*
X65155Y-55716D01*
X65107Y-55692D01*
M02*
