G04 (created by PCBNEW (2013-07-07 BZR 4022)-stable) date 7/29/2015 11:23:32 PM*
%MOIN*%
G04 Gerber Fmt 3.4, Leading zero omitted, Abs format*
%FSLAX34Y34*%
G01*
G70*
G90*
G04 APERTURE LIST*
%ADD10C,0.00590551*%
%ADD11R,0.13X0.35*%
%ADD12R,0.09X0.35*%
%ADD13R,0.08X0.08*%
%ADD14C,0.08*%
%ADD15R,0.0672X0.0672*%
%ADD16C,0.18*%
%ADD17C,0.075*%
%ADD18R,0.0436X0.1066*%
%ADD19R,0.082X0.11*%
%ADD20O,0.082X0.11*%
%ADD21C,0.09*%
%ADD22R,0.09X0.09*%
%ADD23R,0.37X0.37*%
%ADD24R,0.079X0.0711*%
%ADD25R,0.075X0.075*%
G04 APERTURE END LIST*
G54D10*
G54D11*
X82700Y-67150D03*
G54D12*
X84150Y-67150D03*
X85400Y-67150D03*
X86650Y-67150D03*
X87900Y-67150D03*
X89150Y-67150D03*
X90400Y-67150D03*
X91650Y-67150D03*
X92900Y-67150D03*
X94150Y-67150D03*
X95400Y-67150D03*
X96650Y-67150D03*
X97900Y-67150D03*
X99150Y-67150D03*
X100400Y-67150D03*
X101650Y-67150D03*
X102900Y-67150D03*
X104150Y-67150D03*
X105400Y-67150D03*
X106650Y-67150D03*
X107900Y-67150D03*
X109150Y-67150D03*
X110400Y-67150D03*
X111650Y-67150D03*
X112900Y-67150D03*
X114150Y-67150D03*
X115400Y-67150D03*
X116650Y-67150D03*
X117900Y-67150D03*
X119150Y-67150D03*
X120400Y-67150D03*
X121650Y-67150D03*
X122900Y-67150D03*
X124150Y-67150D03*
X125400Y-67150D03*
X126650Y-67150D03*
X127900Y-67150D03*
X129150Y-67150D03*
X130400Y-67150D03*
X131650Y-67150D03*
X132900Y-67150D03*
X134150Y-67150D03*
X135400Y-67150D03*
X136650Y-67150D03*
X137900Y-67150D03*
X139150Y-67150D03*
X140400Y-67150D03*
X141650Y-67150D03*
X142900Y-67150D03*
G54D11*
X144350Y-67150D03*
G54D13*
X79750Y-62950D03*
G54D14*
X78750Y-62950D03*
G54D13*
X80400Y-57700D03*
G54D14*
X80400Y-58700D03*
G54D15*
X83063Y-54650D03*
X82237Y-54650D03*
X83950Y-18363D03*
X83950Y-17537D03*
X81700Y-18363D03*
X81700Y-17537D03*
X79400Y-18363D03*
X79400Y-17537D03*
G54D16*
X164150Y-18150D03*
X69150Y-18150D03*
G54D17*
X146750Y-53150D03*
X146750Y-55150D03*
X85900Y-53150D03*
X85900Y-55150D03*
X93150Y-32000D03*
X93150Y-34000D03*
X147750Y-45650D03*
X147750Y-47650D03*
X131850Y-53150D03*
X131850Y-55150D03*
X118950Y-45650D03*
X118950Y-47650D03*
X99800Y-59150D03*
X99800Y-61150D03*
X113700Y-53150D03*
X113700Y-55150D03*
X99800Y-53150D03*
X99800Y-55150D03*
X77100Y-32000D03*
X77100Y-34000D03*
X132850Y-45650D03*
X132850Y-47650D03*
X113650Y-59150D03*
X113650Y-61150D03*
G54D15*
X86150Y-18363D03*
X86150Y-17537D03*
G54D18*
X72990Y-25473D03*
X73490Y-25473D03*
X73990Y-25473D03*
X74490Y-25473D03*
X74490Y-23427D03*
X73990Y-23427D03*
X73490Y-23427D03*
X72990Y-23427D03*
G54D13*
X70300Y-30150D03*
G54D14*
X71300Y-30150D03*
X70300Y-31150D03*
X71300Y-31150D03*
X70300Y-32150D03*
X71300Y-32150D03*
X70300Y-33150D03*
X71300Y-33150D03*
X70300Y-34150D03*
X71300Y-34150D03*
G54D19*
X120500Y-48200D03*
G54D20*
X121500Y-48200D03*
X122500Y-48200D03*
X123500Y-48200D03*
X124500Y-48200D03*
X125500Y-48200D03*
X126500Y-48200D03*
X127500Y-48200D03*
X128500Y-48200D03*
X128500Y-45200D03*
X127500Y-45200D03*
X126500Y-45200D03*
X125500Y-45200D03*
X124500Y-45200D03*
X123500Y-45200D03*
X122500Y-45200D03*
X121500Y-45200D03*
X120500Y-45200D03*
G54D19*
X106600Y-48200D03*
G54D20*
X107600Y-48200D03*
X108600Y-48200D03*
X109600Y-48200D03*
X110600Y-48200D03*
X111600Y-48200D03*
X112600Y-48200D03*
X113600Y-48200D03*
X114600Y-48200D03*
X114600Y-45200D03*
X113600Y-45200D03*
X112600Y-45200D03*
X111600Y-45200D03*
X110600Y-45200D03*
X109600Y-45200D03*
X108600Y-45200D03*
X107600Y-45200D03*
X106600Y-45200D03*
G54D19*
X72200Y-43700D03*
G54D20*
X73200Y-43700D03*
X74200Y-43700D03*
X75200Y-43700D03*
X76200Y-43700D03*
X77200Y-43700D03*
X78200Y-43700D03*
X78200Y-40700D03*
X77200Y-40700D03*
X76200Y-40700D03*
X75200Y-40700D03*
X74200Y-40700D03*
X73200Y-40700D03*
X72200Y-40700D03*
G54D17*
X127600Y-59150D03*
X127600Y-61150D03*
G54D13*
X83150Y-57700D03*
G54D14*
X83150Y-58700D03*
G54D13*
X80750Y-51300D03*
G54D14*
X80750Y-52300D03*
G54D17*
X85100Y-25150D03*
X85100Y-26150D03*
X84100Y-25150D03*
X84100Y-26150D03*
X83100Y-25150D03*
X83100Y-26150D03*
X82100Y-25150D03*
X82100Y-26150D03*
X81100Y-25150D03*
X81100Y-26150D03*
X80100Y-25150D03*
X79100Y-26150D03*
X80100Y-26150D03*
X79100Y-27150D03*
X80100Y-27150D03*
X79100Y-28150D03*
X80100Y-28150D03*
X79100Y-29150D03*
X80100Y-29150D03*
X79100Y-30150D03*
X80100Y-30150D03*
X79100Y-31150D03*
X80100Y-31150D03*
X79100Y-32150D03*
X80100Y-32150D03*
X79100Y-33150D03*
X80100Y-33150D03*
X79100Y-34150D03*
X80100Y-34150D03*
X79100Y-35150D03*
X80100Y-35150D03*
X79100Y-36150D03*
X80100Y-37150D03*
X80100Y-36150D03*
X81100Y-37150D03*
X81100Y-36150D03*
X82100Y-37150D03*
X82100Y-36150D03*
X83100Y-37150D03*
X83100Y-36150D03*
X84100Y-37150D03*
X84100Y-36150D03*
X85100Y-37150D03*
X85100Y-36150D03*
X86100Y-37150D03*
X86100Y-36150D03*
X87100Y-37150D03*
X87100Y-36150D03*
X88100Y-37150D03*
X88100Y-36150D03*
X89100Y-37150D03*
X89100Y-36150D03*
X90100Y-37150D03*
X91100Y-36150D03*
X90100Y-36150D03*
X91100Y-35150D03*
X90100Y-35150D03*
X91100Y-34150D03*
X90100Y-34150D03*
X91100Y-33150D03*
X90100Y-33150D03*
X91100Y-32150D03*
X90100Y-32150D03*
X91100Y-31150D03*
X90100Y-31150D03*
X91100Y-30150D03*
X90100Y-30150D03*
X91100Y-29150D03*
X90100Y-29150D03*
X91100Y-28150D03*
X90100Y-28150D03*
X91100Y-27150D03*
X90100Y-27150D03*
X91100Y-26150D03*
X90100Y-25150D03*
X90100Y-26150D03*
X89100Y-25150D03*
X89100Y-26150D03*
X88100Y-25150D03*
X88100Y-26150D03*
X87100Y-25150D03*
X87100Y-26150D03*
X86100Y-25150D03*
X86100Y-26150D03*
G54D19*
X100194Y-34670D03*
G54D20*
X101194Y-34670D03*
X102194Y-34670D03*
X103194Y-34670D03*
X103194Y-31670D03*
X102194Y-31670D03*
X101194Y-31670D03*
X100194Y-31670D03*
G54D21*
X78450Y-58700D03*
G54D22*
X78450Y-60700D03*
G54D21*
X78450Y-59700D03*
G54D23*
X71950Y-59700D03*
G54D19*
X129150Y-61700D03*
G54D20*
X130150Y-61700D03*
X131150Y-61700D03*
X132150Y-61700D03*
X133150Y-61700D03*
X134150Y-61700D03*
X135150Y-61700D03*
X136150Y-61700D03*
X137150Y-61700D03*
X138150Y-61700D03*
X138150Y-58700D03*
X137150Y-58700D03*
X136150Y-58700D03*
X135150Y-58700D03*
X134150Y-58700D03*
X133150Y-58700D03*
X132150Y-58700D03*
X131150Y-58700D03*
X130150Y-58700D03*
X129150Y-58700D03*
G54D19*
X148300Y-55700D03*
G54D20*
X149300Y-55700D03*
X150300Y-55700D03*
X151300Y-55700D03*
X152300Y-55700D03*
X153300Y-55700D03*
X154300Y-55700D03*
X155300Y-55700D03*
X156300Y-55700D03*
X157300Y-55700D03*
X157300Y-52700D03*
X156300Y-52700D03*
X155300Y-52700D03*
X154300Y-52700D03*
X153300Y-52700D03*
X152300Y-52700D03*
X151300Y-52700D03*
X150300Y-52700D03*
X149300Y-52700D03*
X148300Y-52700D03*
G54D19*
X115250Y-55700D03*
G54D20*
X116250Y-55700D03*
X117250Y-55700D03*
X118250Y-55700D03*
X119250Y-55700D03*
X120250Y-55700D03*
X121250Y-55700D03*
X122250Y-55700D03*
X123250Y-55700D03*
X124250Y-55700D03*
X124250Y-52700D03*
X123250Y-52700D03*
X122250Y-52700D03*
X121250Y-52700D03*
X120250Y-52700D03*
X119250Y-52700D03*
X118250Y-52700D03*
X117250Y-52700D03*
X116250Y-52700D03*
X115250Y-52700D03*
G54D19*
X115250Y-61700D03*
G54D20*
X116250Y-61700D03*
X117250Y-61700D03*
X118250Y-61700D03*
X119250Y-61700D03*
X120250Y-61700D03*
X121250Y-61700D03*
X122250Y-61700D03*
X123250Y-61700D03*
X124250Y-61700D03*
X124250Y-58700D03*
X123250Y-58700D03*
X122250Y-58700D03*
X121250Y-58700D03*
X120250Y-58700D03*
X119250Y-58700D03*
X118250Y-58700D03*
X117250Y-58700D03*
X116250Y-58700D03*
X115250Y-58700D03*
G54D19*
X101350Y-55700D03*
G54D20*
X102350Y-55700D03*
X103350Y-55700D03*
X104350Y-55700D03*
X105350Y-55700D03*
X106350Y-55700D03*
X107350Y-55700D03*
X108350Y-55700D03*
X109350Y-55700D03*
X110350Y-55700D03*
X110350Y-52700D03*
X109350Y-52700D03*
X108350Y-52700D03*
X107350Y-52700D03*
X106350Y-52700D03*
X105350Y-52700D03*
X104350Y-52700D03*
X103350Y-52700D03*
X102350Y-52700D03*
X101350Y-52700D03*
G54D19*
X133400Y-55700D03*
G54D20*
X134400Y-55700D03*
X135400Y-55700D03*
X136400Y-55700D03*
X137400Y-55700D03*
X138400Y-55700D03*
X139400Y-55700D03*
X140400Y-55700D03*
X141400Y-55700D03*
X142400Y-55700D03*
X142400Y-52700D03*
X141400Y-52700D03*
X140400Y-52700D03*
X139400Y-52700D03*
X138400Y-52700D03*
X137400Y-52700D03*
X136400Y-52700D03*
X135400Y-52700D03*
X134400Y-52700D03*
X133400Y-52700D03*
G54D13*
X80750Y-49400D03*
G54D14*
X80750Y-48400D03*
G54D19*
X87450Y-55700D03*
G54D20*
X88450Y-55700D03*
X89450Y-55700D03*
X90450Y-55700D03*
X91450Y-55700D03*
X92450Y-55700D03*
X93450Y-55700D03*
X94450Y-55700D03*
X95450Y-55700D03*
X96450Y-55700D03*
X96450Y-52700D03*
X95450Y-52700D03*
X94450Y-52700D03*
X93450Y-52700D03*
X92450Y-52700D03*
X91450Y-52700D03*
X90450Y-52700D03*
X89450Y-52700D03*
X88450Y-52700D03*
X87450Y-52700D03*
G54D22*
X78450Y-49600D03*
G54D21*
X78450Y-51600D03*
X78450Y-50600D03*
G54D23*
X71950Y-50600D03*
G54D17*
X70600Y-41100D03*
X70600Y-43100D03*
X105050Y-45650D03*
X105050Y-47650D03*
X75774Y-32175D03*
X72774Y-32175D03*
X97479Y-34155D03*
X97479Y-31155D03*
X75774Y-33075D03*
X72774Y-33075D03*
X75774Y-33975D03*
X72774Y-33975D03*
X106300Y-27650D03*
X103300Y-27650D03*
X107350Y-27650D03*
X110350Y-27650D03*
G54D13*
X117250Y-41150D03*
G54D14*
X116250Y-41150D03*
X117250Y-40150D03*
X116250Y-40150D03*
X117250Y-39150D03*
X116250Y-39150D03*
G54D13*
X159950Y-34150D03*
G54D14*
X158950Y-34150D03*
X159950Y-33150D03*
X158950Y-33150D03*
X159950Y-32150D03*
X158950Y-32150D03*
G54D13*
X145050Y-34150D03*
G54D14*
X144050Y-34150D03*
X145050Y-33150D03*
X144050Y-33150D03*
X145050Y-32150D03*
X144050Y-32150D03*
G54D13*
X159950Y-47700D03*
G54D14*
X158950Y-47700D03*
X159950Y-46700D03*
X158950Y-46700D03*
X159950Y-45700D03*
X158950Y-45700D03*
G54D13*
X145050Y-47700D03*
G54D14*
X144050Y-47700D03*
X145050Y-46700D03*
X144050Y-46700D03*
X145050Y-45700D03*
X144050Y-45700D03*
G54D13*
X159950Y-41150D03*
G54D14*
X158950Y-41150D03*
X159950Y-40150D03*
X158950Y-40150D03*
X159950Y-39150D03*
X158950Y-39150D03*
G54D13*
X145050Y-41150D03*
G54D14*
X144050Y-41150D03*
X145050Y-40150D03*
X144050Y-40150D03*
X145050Y-39150D03*
X144050Y-39150D03*
G54D13*
X131150Y-41150D03*
G54D14*
X130150Y-41150D03*
X131150Y-40150D03*
X130150Y-40150D03*
X131150Y-39150D03*
X130150Y-39150D03*
G54D13*
X131150Y-34150D03*
G54D14*
X130150Y-34150D03*
X131150Y-33150D03*
X130150Y-33150D03*
X131150Y-32150D03*
X130150Y-32150D03*
G54D13*
X117250Y-34150D03*
G54D14*
X116250Y-34150D03*
X117250Y-33150D03*
X116250Y-33150D03*
X117250Y-32150D03*
X116250Y-32150D03*
G54D13*
X131200Y-47700D03*
G54D14*
X130200Y-47700D03*
X131200Y-46700D03*
X130200Y-46700D03*
X131200Y-45700D03*
X130200Y-45700D03*
G54D13*
X117250Y-47700D03*
G54D14*
X116250Y-47700D03*
X117250Y-46700D03*
X116250Y-46700D03*
X117250Y-45700D03*
X116250Y-45700D03*
G54D19*
X120500Y-41650D03*
G54D20*
X121500Y-41650D03*
X122500Y-41650D03*
X123500Y-41650D03*
X124500Y-41650D03*
X125500Y-41650D03*
X126500Y-41650D03*
X127500Y-41650D03*
X128500Y-41650D03*
X128500Y-38650D03*
X127500Y-38650D03*
X126500Y-38650D03*
X125500Y-38650D03*
X124500Y-38650D03*
X123500Y-38650D03*
X122500Y-38650D03*
X121500Y-38650D03*
X120500Y-38650D03*
G54D19*
X134400Y-41650D03*
G54D20*
X135400Y-41650D03*
X136400Y-41650D03*
X137400Y-41650D03*
X138400Y-41650D03*
X139400Y-41650D03*
X140400Y-41650D03*
X141400Y-41650D03*
X142400Y-41650D03*
X142400Y-38650D03*
X141400Y-38650D03*
X140400Y-38650D03*
X139400Y-38650D03*
X138400Y-38650D03*
X137400Y-38650D03*
X136400Y-38650D03*
X135400Y-38650D03*
X134400Y-38650D03*
G54D19*
X149300Y-41650D03*
G54D20*
X150300Y-41650D03*
X151300Y-41650D03*
X152300Y-41650D03*
X153300Y-41650D03*
X154300Y-41650D03*
X155300Y-41650D03*
X156300Y-41650D03*
X157300Y-41650D03*
X157300Y-38650D03*
X156300Y-38650D03*
X155300Y-38650D03*
X154300Y-38650D03*
X153300Y-38650D03*
X152300Y-38650D03*
X151300Y-38650D03*
X150300Y-38650D03*
X149300Y-38650D03*
G54D19*
X106600Y-34650D03*
G54D20*
X107600Y-34650D03*
X108600Y-34650D03*
X109600Y-34650D03*
X110600Y-34650D03*
X111600Y-34650D03*
X112600Y-34650D03*
X113600Y-34650D03*
X114600Y-34650D03*
X114600Y-31650D03*
X113600Y-31650D03*
X112600Y-31650D03*
X111600Y-31650D03*
X110600Y-31650D03*
X109600Y-31650D03*
X108600Y-31650D03*
X107600Y-31650D03*
X106600Y-31650D03*
G54D19*
X106600Y-41650D03*
G54D20*
X107600Y-41650D03*
X108600Y-41650D03*
X109600Y-41650D03*
X110600Y-41650D03*
X111600Y-41650D03*
X112600Y-41650D03*
X113600Y-41650D03*
X114600Y-41650D03*
X114600Y-38650D03*
X113600Y-38650D03*
X112600Y-38650D03*
X111600Y-38650D03*
X110600Y-38650D03*
X109600Y-38650D03*
X108600Y-38650D03*
X107600Y-38650D03*
X106600Y-38650D03*
G54D19*
X134400Y-48200D03*
G54D20*
X135400Y-48200D03*
X136400Y-48200D03*
X137400Y-48200D03*
X138400Y-48200D03*
X139400Y-48200D03*
X140400Y-48200D03*
X141400Y-48200D03*
X142400Y-48200D03*
X142400Y-45200D03*
X141400Y-45200D03*
X140400Y-45200D03*
X139400Y-45200D03*
X138400Y-45200D03*
X137400Y-45200D03*
X136400Y-45200D03*
X135400Y-45200D03*
X134400Y-45200D03*
G54D19*
X149300Y-48200D03*
G54D20*
X150300Y-48200D03*
X151300Y-48200D03*
X152300Y-48200D03*
X153300Y-48200D03*
X154300Y-48200D03*
X155300Y-48200D03*
X156300Y-48200D03*
X157300Y-48200D03*
X157300Y-45200D03*
X156300Y-45200D03*
X155300Y-45200D03*
X154300Y-45200D03*
X153300Y-45200D03*
X152300Y-45200D03*
X151300Y-45200D03*
X150300Y-45200D03*
X149300Y-45200D03*
G54D19*
X134400Y-34650D03*
G54D20*
X135400Y-34650D03*
X136400Y-34650D03*
X137400Y-34650D03*
X138400Y-34650D03*
X139400Y-34650D03*
X140400Y-34650D03*
X141400Y-34650D03*
X142400Y-34650D03*
X142400Y-31650D03*
X141400Y-31650D03*
X140400Y-31650D03*
X139400Y-31650D03*
X138400Y-31650D03*
X137400Y-31650D03*
X136400Y-31650D03*
X135400Y-31650D03*
X134400Y-31650D03*
G54D19*
X149300Y-34650D03*
G54D20*
X150300Y-34650D03*
X151300Y-34650D03*
X152300Y-34650D03*
X153300Y-34650D03*
X154300Y-34650D03*
X155300Y-34650D03*
X156300Y-34650D03*
X157300Y-34650D03*
X157300Y-31650D03*
X156300Y-31650D03*
X155300Y-31650D03*
X154300Y-31650D03*
X153300Y-31650D03*
X152300Y-31650D03*
X151300Y-31650D03*
X150300Y-31650D03*
X149300Y-31650D03*
G54D19*
X120500Y-34650D03*
G54D20*
X121500Y-34650D03*
X122500Y-34650D03*
X123500Y-34650D03*
X124500Y-34650D03*
X125500Y-34650D03*
X126500Y-34650D03*
X127500Y-34650D03*
X128500Y-34650D03*
X128500Y-31650D03*
X127500Y-31650D03*
X126500Y-31650D03*
X125500Y-31650D03*
X124500Y-31650D03*
X123500Y-31650D03*
X122500Y-31650D03*
X121500Y-31650D03*
X120500Y-31650D03*
G54D17*
X119400Y-42850D03*
X116400Y-42850D03*
G54D13*
X88700Y-61700D03*
G54D14*
X89700Y-61700D03*
X90700Y-61700D03*
X91700Y-61700D03*
X92700Y-61700D03*
X93700Y-61700D03*
X94700Y-61700D03*
X95700Y-61700D03*
X95700Y-58700D03*
X94700Y-58700D03*
X93700Y-58700D03*
X92700Y-58700D03*
X91700Y-58700D03*
X90700Y-58700D03*
X89700Y-58700D03*
X88700Y-58700D03*
G54D19*
X103850Y-26550D03*
G54D20*
X104850Y-26550D03*
X105850Y-26550D03*
X106850Y-26550D03*
X107850Y-26550D03*
X108850Y-26550D03*
X109850Y-26550D03*
X110850Y-26550D03*
X111850Y-26550D03*
X112850Y-26550D03*
X112850Y-23550D03*
X111850Y-23550D03*
X110850Y-23550D03*
X109850Y-23550D03*
X108850Y-23550D03*
X107850Y-23550D03*
X106850Y-23550D03*
X105850Y-23550D03*
X104850Y-23550D03*
X103850Y-23550D03*
G54D19*
X101350Y-61700D03*
G54D20*
X102350Y-61700D03*
X103350Y-61700D03*
X104350Y-61700D03*
X105350Y-61700D03*
X106350Y-61700D03*
X107350Y-61700D03*
X108350Y-61700D03*
X109350Y-61700D03*
X110350Y-61700D03*
X110350Y-58700D03*
X109350Y-58700D03*
X108350Y-58700D03*
X107350Y-58700D03*
X106350Y-58700D03*
X105350Y-58700D03*
X104350Y-58700D03*
X103350Y-58700D03*
X102350Y-58700D03*
X101350Y-58700D03*
G54D13*
X117400Y-26500D03*
G54D14*
X117400Y-25500D03*
X118400Y-26500D03*
X118400Y-25500D03*
X119400Y-26500D03*
X119400Y-25500D03*
X120400Y-26500D03*
X120400Y-25500D03*
X121400Y-26500D03*
X121400Y-25500D03*
X122400Y-26500D03*
X122400Y-25500D03*
X123400Y-26500D03*
X123400Y-25500D03*
X124400Y-26500D03*
X124400Y-25500D03*
X125400Y-26500D03*
X125400Y-25500D03*
X126400Y-26500D03*
X126400Y-25500D03*
G54D13*
X117400Y-20500D03*
G54D14*
X117400Y-19500D03*
X118400Y-20500D03*
X118400Y-19500D03*
X119400Y-20500D03*
X119400Y-19500D03*
X120400Y-20500D03*
X120400Y-19500D03*
X121400Y-20500D03*
X121400Y-19500D03*
X122400Y-20500D03*
X122400Y-19500D03*
X123400Y-20500D03*
X123400Y-19500D03*
X124400Y-20500D03*
X124400Y-19500D03*
X125400Y-20500D03*
X125400Y-19500D03*
X126400Y-20500D03*
X126400Y-19500D03*
G54D13*
X133150Y-20500D03*
G54D14*
X133150Y-19500D03*
X134150Y-20500D03*
X134150Y-19500D03*
X135150Y-20500D03*
X135150Y-19500D03*
X136150Y-20500D03*
X136150Y-19500D03*
X137150Y-20500D03*
X137150Y-19500D03*
X138150Y-20500D03*
X138150Y-19500D03*
X139150Y-20500D03*
X139150Y-19500D03*
X140150Y-20500D03*
X140150Y-19500D03*
X141150Y-20500D03*
X141150Y-19500D03*
X142150Y-20500D03*
X142150Y-19500D03*
G54D13*
X133150Y-26500D03*
G54D14*
X133150Y-25500D03*
X134150Y-26500D03*
X134150Y-25500D03*
X135150Y-26500D03*
X135150Y-25500D03*
X136150Y-26500D03*
X136150Y-25500D03*
X137150Y-26500D03*
X137150Y-25500D03*
X138150Y-26500D03*
X138150Y-25500D03*
X139150Y-26500D03*
X139150Y-25500D03*
X140150Y-26500D03*
X140150Y-25500D03*
X141150Y-26500D03*
X141150Y-25500D03*
X142150Y-26500D03*
X142150Y-25500D03*
G54D13*
X148900Y-20500D03*
G54D14*
X148900Y-19500D03*
X149900Y-20500D03*
X149900Y-19500D03*
X150900Y-20500D03*
X150900Y-19500D03*
X151900Y-20500D03*
X151900Y-19500D03*
X152900Y-20500D03*
X152900Y-19500D03*
X153900Y-20500D03*
X153900Y-19500D03*
X154900Y-20500D03*
X154900Y-19500D03*
X155900Y-20500D03*
X155900Y-19500D03*
X156900Y-20500D03*
X156900Y-19500D03*
X157900Y-20500D03*
X157900Y-19500D03*
G54D13*
X148900Y-26500D03*
G54D14*
X148900Y-25500D03*
X149900Y-26500D03*
X149900Y-25500D03*
X150900Y-26500D03*
X150900Y-25500D03*
X151900Y-26500D03*
X151900Y-25500D03*
X152900Y-26500D03*
X152900Y-25500D03*
X153900Y-26500D03*
X153900Y-25500D03*
X154900Y-26500D03*
X154900Y-25500D03*
X155900Y-26500D03*
X155900Y-25500D03*
X156900Y-26500D03*
X156900Y-25500D03*
X157900Y-26500D03*
X157900Y-25500D03*
G54D17*
X147750Y-39100D03*
X147750Y-41100D03*
X102300Y-24000D03*
X102300Y-26000D03*
X132850Y-32100D03*
X132850Y-34100D03*
X118950Y-32100D03*
X118950Y-34100D03*
X132850Y-41100D03*
X132850Y-39100D03*
X118950Y-39100D03*
X118950Y-41100D03*
X105050Y-41100D03*
X105050Y-39100D03*
X105050Y-32100D03*
X105050Y-34100D03*
X99105Y-32095D03*
X99105Y-34095D03*
X147750Y-32100D03*
X147750Y-34100D03*
X112050Y-43950D03*
X115050Y-43950D03*
X126050Y-43900D03*
X129050Y-43900D03*
X112600Y-35950D03*
X115600Y-35950D03*
X126500Y-35850D03*
X129500Y-35850D03*
X112600Y-42850D03*
X115600Y-42850D03*
X126500Y-42850D03*
X129500Y-42850D03*
X140400Y-42900D03*
X143400Y-42900D03*
X155300Y-42800D03*
X158300Y-42800D03*
X139950Y-43950D03*
X142950Y-43950D03*
X154900Y-43850D03*
X157900Y-43850D03*
X140400Y-35900D03*
X143400Y-35900D03*
X155300Y-35950D03*
X158300Y-35950D03*
X94650Y-34150D03*
X94650Y-31150D03*
X96550Y-34150D03*
X96550Y-31150D03*
X95600Y-34150D03*
X95600Y-31150D03*
G54D24*
X71950Y-24076D03*
X71950Y-24824D03*
G54D25*
X98250Y-59200D03*
G54D17*
X98250Y-60200D03*
X98250Y-61200D03*
G54D25*
X99550Y-26100D03*
G54D17*
X99550Y-25100D03*
X99550Y-24100D03*
G54D25*
X100850Y-26100D03*
G54D17*
X100850Y-25100D03*
X100850Y-24100D03*
G54D25*
X103850Y-19600D03*
G54D17*
X104850Y-19600D03*
X105850Y-19600D03*
X106850Y-19600D03*
X107850Y-19600D03*
X108850Y-19600D03*
X109850Y-19600D03*
X110850Y-19600D03*
G54D25*
X92700Y-19600D03*
G54D17*
X93700Y-19600D03*
X94700Y-19600D03*
X95700Y-19600D03*
X96700Y-19600D03*
X97700Y-19600D03*
X98700Y-19600D03*
X99700Y-19600D03*
G54D13*
X80650Y-60800D03*
G54D14*
X81650Y-60800D03*
G54D13*
X91225Y-22940D03*
G54D14*
X91225Y-21940D03*
X96225Y-22940D03*
X92225Y-21940D03*
X97225Y-22940D03*
X93225Y-21940D03*
X94225Y-21940D03*
X95225Y-21940D03*
X96225Y-21940D03*
X97225Y-21940D03*
X92225Y-22940D03*
X93225Y-22940D03*
X94225Y-22940D03*
X95225Y-22940D03*
G54D13*
X85660Y-50240D03*
G54D14*
X85660Y-49240D03*
X86660Y-50240D03*
X86660Y-49240D03*
X87660Y-50240D03*
X87660Y-49240D03*
X88660Y-50240D03*
X88660Y-49240D03*
X89660Y-50240D03*
X89660Y-49240D03*
X90660Y-50240D03*
X90660Y-49240D03*
X91660Y-50240D03*
X91660Y-49240D03*
X92660Y-50240D03*
X92660Y-49240D03*
M02*
