G04 (created by PCBNEW (2013-07-07 BZR 4022)-stable) date 1/9/2016 1:56:05 PM*
%MOIN*%
G04 Gerber Fmt 3.4, Leading zero omitted, Abs format*
%FSLAX34Y34*%
G01*
G70*
G90*
G04 APERTURE LIST*
%ADD10C,0.00590551*%
%ADD11C,0.18*%
%ADD12C,0.075*%
%ADD13R,0.08X0.08*%
%ADD14C,0.08*%
%ADD15R,0.075X0.075*%
%ADD16R,0.082X0.11*%
%ADD17O,0.082X0.11*%
%ADD18R,0.0672X0.0672*%
%ADD19C,0.09*%
%ADD20R,0.09X0.09*%
%ADD21R,0.37X0.37*%
%ADD22R,0.13X0.35*%
%ADD23R,0.09X0.35*%
G04 APERTURE END LIST*
G54D10*
G54D11*
X102500Y-11500D03*
X7500Y-11500D03*
G54D12*
X48000Y-37450D03*
X48000Y-39450D03*
X62500Y-18850D03*
X62500Y-20850D03*
X62500Y-37600D03*
X62500Y-39600D03*
X33450Y-37550D03*
X33450Y-39550D03*
X46850Y-22550D03*
X46850Y-24550D03*
X91500Y-31250D03*
X91500Y-33250D03*
X91500Y-37550D03*
X91500Y-39550D03*
X33500Y-22500D03*
X33500Y-24500D03*
X33500Y-52500D03*
X33500Y-54500D03*
X91450Y-19000D03*
X91450Y-21000D03*
X77000Y-31300D03*
X77000Y-33300D03*
X8550Y-37550D03*
X8550Y-39550D03*
X49200Y-52500D03*
X49200Y-54500D03*
X62450Y-45000D03*
X62450Y-47000D03*
X77000Y-25100D03*
X77000Y-27100D03*
X77000Y-37500D03*
X77000Y-39500D03*
X20650Y-52500D03*
X20650Y-54500D03*
X49150Y-45000D03*
X49150Y-47000D03*
X77000Y-45050D03*
X77000Y-47050D03*
X91500Y-45050D03*
X91500Y-47050D03*
X77000Y-52500D03*
X77000Y-54500D03*
X62900Y-52500D03*
X62900Y-54500D03*
X77000Y-12000D03*
X77000Y-14000D03*
X62500Y-12050D03*
X62500Y-14050D03*
X48000Y-30050D03*
X48000Y-32050D03*
X12500Y-19650D03*
X12500Y-17650D03*
X8500Y-30050D03*
X8500Y-32050D03*
X20350Y-37550D03*
X20350Y-39550D03*
G54D13*
X90974Y-42625D03*
G54D14*
X90974Y-41625D03*
X91974Y-42625D03*
X91974Y-41625D03*
G54D12*
X78050Y-43250D03*
X81050Y-43250D03*
X78050Y-42300D03*
X81050Y-42300D03*
X86000Y-43300D03*
X83000Y-43300D03*
X86000Y-42350D03*
X83000Y-42350D03*
G54D15*
X20400Y-42050D03*
G54D12*
X21400Y-42050D03*
X22400Y-42050D03*
X23400Y-42050D03*
X24400Y-42050D03*
X25400Y-42050D03*
X26400Y-42050D03*
X27400Y-42050D03*
X28400Y-42050D03*
X29400Y-42050D03*
G54D15*
X8500Y-42000D03*
G54D12*
X9500Y-42000D03*
X10500Y-42000D03*
X11500Y-42000D03*
X12500Y-42000D03*
X13500Y-42000D03*
X14500Y-42000D03*
X15500Y-42000D03*
X16500Y-42000D03*
X17500Y-42000D03*
G54D15*
X33500Y-42050D03*
G54D12*
X34500Y-42050D03*
X35500Y-42050D03*
X36500Y-42050D03*
X37500Y-42050D03*
X38500Y-42050D03*
X39500Y-42050D03*
X40500Y-42050D03*
X41500Y-42050D03*
X42500Y-42050D03*
G54D13*
X35000Y-46500D03*
G54D14*
X36000Y-46500D03*
X37000Y-46500D03*
X38000Y-46500D03*
X39000Y-46500D03*
X40000Y-46500D03*
X41000Y-46500D03*
X42000Y-46500D03*
X42000Y-43500D03*
X41000Y-43500D03*
X40000Y-43500D03*
X39000Y-43500D03*
X38000Y-43500D03*
X37000Y-43500D03*
X36000Y-43500D03*
X35000Y-43500D03*
G54D13*
X21900Y-46500D03*
G54D14*
X22900Y-46500D03*
X23900Y-46500D03*
X24900Y-46500D03*
X25900Y-46500D03*
X26900Y-46500D03*
X27900Y-46500D03*
X28900Y-46500D03*
X28900Y-43500D03*
X27900Y-43500D03*
X26900Y-43500D03*
X25900Y-43500D03*
X24900Y-43500D03*
X23900Y-43500D03*
X22900Y-43500D03*
X21900Y-43500D03*
G54D13*
X10000Y-46500D03*
G54D14*
X11000Y-46500D03*
X12000Y-46500D03*
X13000Y-46500D03*
X14000Y-46500D03*
X15000Y-46500D03*
X16000Y-46500D03*
X17000Y-46500D03*
X17000Y-43500D03*
X16000Y-43500D03*
X15000Y-43500D03*
X14000Y-43500D03*
X13000Y-43500D03*
X12000Y-43500D03*
X11000Y-43500D03*
X10000Y-43500D03*
G54D12*
X77000Y-18950D03*
X77000Y-20950D03*
X91500Y-52500D03*
X91500Y-54500D03*
G54D15*
X63450Y-35550D03*
G54D12*
X64450Y-35550D03*
X65450Y-35550D03*
X66450Y-35550D03*
X67450Y-35550D03*
X68450Y-35550D03*
X69450Y-35550D03*
X70450Y-35550D03*
X71450Y-35550D03*
X72450Y-35550D03*
G54D15*
X34000Y-48050D03*
G54D12*
X35000Y-48050D03*
X36000Y-48050D03*
X37000Y-48050D03*
X38000Y-48050D03*
X39000Y-48050D03*
X40000Y-48050D03*
X41000Y-48050D03*
X42000Y-48050D03*
X43000Y-48050D03*
G54D15*
X77500Y-35550D03*
G54D12*
X78500Y-35550D03*
X79500Y-35550D03*
X80500Y-35550D03*
X81500Y-35550D03*
X82500Y-35550D03*
X83500Y-35550D03*
X84500Y-35550D03*
X85500Y-35550D03*
X86500Y-35550D03*
G54D13*
X98550Y-42600D03*
G54D14*
X98550Y-41600D03*
X99550Y-42600D03*
X99550Y-41600D03*
X100550Y-42600D03*
X100550Y-41600D03*
X101550Y-42600D03*
X101550Y-41600D03*
G54D13*
X19250Y-56950D03*
G54D14*
X18250Y-56950D03*
G54D13*
X17600Y-50350D03*
G54D14*
X17600Y-49350D03*
G54D13*
X94435Y-42574D03*
G54D14*
X94435Y-41574D03*
X95435Y-42574D03*
X95435Y-41574D03*
X96435Y-42574D03*
X96435Y-41574D03*
G54D15*
X11450Y-23900D03*
G54D12*
X11450Y-22900D03*
X11450Y-21900D03*
G54D15*
X72400Y-39500D03*
G54D12*
X72400Y-38500D03*
X72400Y-37500D03*
X83000Y-41400D03*
X86000Y-41400D03*
X33500Y-30000D03*
X33500Y-32000D03*
G54D16*
X79000Y-21450D03*
G54D17*
X80000Y-21450D03*
X81000Y-21450D03*
X82000Y-21450D03*
X83000Y-21450D03*
X84000Y-21450D03*
X85000Y-21450D03*
X85000Y-18450D03*
X84000Y-18450D03*
X83000Y-18450D03*
X82000Y-18450D03*
X81000Y-18450D03*
X80000Y-18450D03*
X79000Y-18450D03*
G54D16*
X79000Y-40000D03*
G54D17*
X80000Y-40000D03*
X81000Y-40000D03*
X82000Y-40000D03*
X83000Y-40000D03*
X84000Y-40000D03*
X85000Y-40000D03*
X85000Y-37000D03*
X84000Y-37000D03*
X83000Y-37000D03*
X82000Y-37000D03*
X81000Y-37000D03*
X80000Y-37000D03*
X79000Y-37000D03*
G54D16*
X64500Y-14550D03*
G54D17*
X65500Y-14550D03*
X66500Y-14550D03*
X67500Y-14550D03*
X68500Y-14550D03*
X69500Y-14550D03*
X70500Y-14550D03*
X70500Y-11550D03*
X69500Y-11550D03*
X68500Y-11550D03*
X67500Y-11550D03*
X66500Y-11550D03*
X65500Y-11550D03*
X64500Y-11550D03*
G54D16*
X93450Y-21500D03*
G54D17*
X94450Y-21500D03*
X95450Y-21500D03*
X96450Y-21500D03*
X97450Y-21500D03*
X98450Y-21500D03*
X99450Y-21500D03*
X99450Y-18500D03*
X98450Y-18500D03*
X97450Y-18500D03*
X96450Y-18500D03*
X95450Y-18500D03*
X94450Y-18500D03*
X93450Y-18500D03*
G54D16*
X64450Y-40100D03*
G54D17*
X65450Y-40100D03*
X66450Y-40100D03*
X67450Y-40100D03*
X68450Y-40100D03*
X69450Y-40100D03*
X70450Y-40100D03*
X70450Y-37100D03*
X69450Y-37100D03*
X68450Y-37100D03*
X67450Y-37100D03*
X66450Y-37100D03*
X65450Y-37100D03*
X64450Y-37100D03*
G54D16*
X49600Y-32550D03*
G54D17*
X50600Y-32550D03*
X51600Y-32550D03*
X52600Y-32550D03*
X53600Y-32550D03*
X54600Y-32550D03*
X55600Y-32550D03*
X55600Y-29550D03*
X54600Y-29550D03*
X53600Y-29550D03*
X52600Y-29550D03*
X51600Y-29550D03*
X50600Y-29550D03*
X49600Y-29550D03*
G54D16*
X93500Y-40050D03*
G54D17*
X94500Y-40050D03*
X95500Y-40050D03*
X96500Y-40050D03*
X97500Y-40050D03*
X98500Y-40050D03*
X99500Y-40050D03*
X99500Y-37050D03*
X98500Y-37050D03*
X97500Y-37050D03*
X96500Y-37050D03*
X95500Y-37050D03*
X94500Y-37050D03*
X93500Y-37050D03*
G54D16*
X50800Y-47500D03*
G54D17*
X51800Y-47500D03*
X52800Y-47500D03*
X53800Y-47500D03*
X54800Y-47500D03*
X55800Y-47500D03*
X56800Y-47500D03*
X57800Y-47500D03*
X57800Y-44500D03*
X56800Y-44500D03*
X55800Y-44500D03*
X54800Y-44500D03*
X53800Y-44500D03*
X52800Y-44500D03*
X51800Y-44500D03*
X50800Y-44500D03*
G54D16*
X78900Y-27600D03*
G54D17*
X79900Y-27600D03*
X80900Y-27600D03*
X81900Y-27600D03*
X82900Y-27600D03*
X83900Y-27600D03*
X84900Y-27600D03*
X85900Y-27600D03*
X85900Y-24600D03*
X84900Y-24600D03*
X83900Y-24600D03*
X82900Y-24600D03*
X81900Y-24600D03*
X80900Y-24600D03*
X79900Y-24600D03*
X78900Y-24600D03*
G54D16*
X10550Y-40050D03*
G54D17*
X11550Y-40050D03*
X12550Y-40050D03*
X13550Y-40050D03*
X14550Y-40050D03*
X15550Y-40050D03*
X16550Y-40050D03*
X17550Y-40050D03*
X17550Y-37050D03*
X16550Y-37050D03*
X15550Y-37050D03*
X14550Y-37050D03*
X13550Y-37050D03*
X12550Y-37050D03*
X11550Y-37050D03*
X10550Y-37050D03*
G54D16*
X22450Y-40100D03*
G54D17*
X23450Y-40100D03*
X24450Y-40100D03*
X25450Y-40100D03*
X26450Y-40100D03*
X27450Y-40100D03*
X28450Y-40100D03*
X29450Y-40100D03*
X29450Y-37100D03*
X28450Y-37100D03*
X27450Y-37100D03*
X26450Y-37100D03*
X25450Y-37100D03*
X24450Y-37100D03*
X23450Y-37100D03*
X22450Y-37100D03*
G54D16*
X35450Y-40100D03*
G54D17*
X36450Y-40100D03*
X37450Y-40100D03*
X38450Y-40100D03*
X39450Y-40100D03*
X40450Y-40100D03*
X41450Y-40100D03*
X42450Y-40100D03*
X42450Y-37100D03*
X41450Y-37100D03*
X40450Y-37100D03*
X39450Y-37100D03*
X38450Y-37100D03*
X37450Y-37100D03*
X36450Y-37100D03*
X35450Y-37100D03*
G54D16*
X93200Y-47550D03*
G54D17*
X94200Y-47550D03*
X95200Y-47550D03*
X96200Y-47550D03*
X97200Y-47550D03*
X98200Y-47550D03*
X99200Y-47550D03*
X100200Y-47550D03*
X101200Y-47550D03*
X102200Y-47550D03*
X102200Y-44550D03*
X101200Y-44550D03*
X100200Y-44550D03*
X99200Y-44550D03*
X98200Y-44550D03*
X97200Y-44550D03*
X96200Y-44550D03*
X95200Y-44550D03*
X94200Y-44550D03*
X93200Y-44550D03*
G54D16*
X35500Y-55000D03*
G54D17*
X36500Y-55000D03*
X37500Y-55000D03*
X38500Y-55000D03*
X39500Y-55000D03*
X40500Y-55000D03*
X41500Y-55000D03*
X42500Y-55000D03*
X43500Y-55000D03*
X44500Y-55000D03*
X44500Y-52000D03*
X43500Y-52000D03*
X42500Y-52000D03*
X41500Y-52000D03*
X40500Y-52000D03*
X39500Y-52000D03*
X38500Y-52000D03*
X37500Y-52000D03*
X36500Y-52000D03*
X35500Y-52000D03*
G54D16*
X22400Y-55000D03*
G54D17*
X23400Y-55000D03*
X24400Y-55000D03*
X25400Y-55000D03*
X26400Y-55000D03*
X27400Y-55000D03*
X28400Y-55000D03*
X29400Y-55000D03*
X30400Y-55000D03*
X31400Y-55000D03*
X31400Y-52000D03*
X30400Y-52000D03*
X29400Y-52000D03*
X28400Y-52000D03*
X27400Y-52000D03*
X26400Y-52000D03*
X25400Y-52000D03*
X24400Y-52000D03*
X23400Y-52000D03*
X22400Y-52000D03*
G54D16*
X64500Y-55000D03*
G54D17*
X65500Y-55000D03*
X66500Y-55000D03*
X67500Y-55000D03*
X68500Y-55000D03*
X69500Y-55000D03*
X70500Y-55000D03*
X71500Y-55000D03*
X72500Y-55000D03*
X73500Y-55000D03*
X73500Y-52000D03*
X72500Y-52000D03*
X71500Y-52000D03*
X70500Y-52000D03*
X69500Y-52000D03*
X68500Y-52000D03*
X67500Y-52000D03*
X66500Y-52000D03*
X65500Y-52000D03*
X64500Y-52000D03*
G54D16*
X79000Y-55000D03*
G54D17*
X80000Y-55000D03*
X81000Y-55000D03*
X82000Y-55000D03*
X83000Y-55000D03*
X84000Y-55000D03*
X85000Y-55000D03*
X86000Y-55000D03*
X87000Y-55000D03*
X88000Y-55000D03*
X88000Y-52000D03*
X87000Y-52000D03*
X86000Y-52000D03*
X85000Y-52000D03*
X84000Y-52000D03*
X83000Y-52000D03*
X82000Y-52000D03*
X81000Y-52000D03*
X80000Y-52000D03*
X79000Y-52000D03*
G54D16*
X79000Y-47550D03*
G54D17*
X80000Y-47550D03*
X81000Y-47550D03*
X82000Y-47550D03*
X83000Y-47550D03*
X84000Y-47550D03*
X85000Y-47550D03*
X86000Y-47550D03*
X87000Y-47550D03*
X88000Y-47550D03*
X88000Y-44550D03*
X87000Y-44550D03*
X86000Y-44550D03*
X85000Y-44550D03*
X84000Y-44550D03*
X83000Y-44550D03*
X82000Y-44550D03*
X81000Y-44550D03*
X80000Y-44550D03*
X79000Y-44550D03*
G54D16*
X93200Y-55000D03*
G54D17*
X94200Y-55000D03*
X95200Y-55000D03*
X96200Y-55000D03*
X97200Y-55000D03*
X98200Y-55000D03*
X99200Y-55000D03*
X100200Y-55000D03*
X101200Y-55000D03*
X102200Y-55000D03*
X102200Y-52000D03*
X101200Y-52000D03*
X100200Y-52000D03*
X99200Y-52000D03*
X98200Y-52000D03*
X97200Y-52000D03*
X96200Y-52000D03*
X95200Y-52000D03*
X94200Y-52000D03*
X93200Y-52000D03*
G54D16*
X50800Y-55000D03*
G54D17*
X51800Y-55000D03*
X52800Y-55000D03*
X53800Y-55000D03*
X54800Y-55000D03*
X55800Y-55000D03*
X56800Y-55000D03*
X57800Y-55000D03*
X58800Y-55000D03*
X59800Y-55000D03*
X59800Y-52000D03*
X58800Y-52000D03*
X57800Y-52000D03*
X56800Y-52000D03*
X55800Y-52000D03*
X54800Y-52000D03*
X53800Y-52000D03*
X52800Y-52000D03*
X51800Y-52000D03*
X50800Y-52000D03*
G54D16*
X35700Y-18500D03*
G54D17*
X36700Y-18500D03*
X37700Y-18500D03*
X38700Y-18500D03*
X39700Y-18500D03*
X40700Y-18500D03*
X41700Y-18500D03*
X42700Y-18500D03*
X43700Y-18500D03*
X44700Y-18500D03*
X45700Y-18500D03*
X46700Y-18500D03*
X47700Y-18500D03*
X48700Y-18500D03*
X49700Y-18500D03*
X50700Y-18500D03*
X51700Y-18500D03*
X52700Y-18500D03*
X53700Y-18500D03*
X54700Y-18500D03*
X54700Y-12500D03*
X53700Y-12500D03*
X52700Y-12500D03*
X51700Y-12500D03*
X50700Y-12500D03*
X49700Y-12500D03*
X48700Y-12500D03*
X47700Y-12500D03*
X46700Y-12500D03*
X45700Y-12500D03*
X44700Y-12500D03*
X43700Y-12500D03*
X42700Y-12500D03*
X41700Y-12500D03*
X40700Y-12500D03*
X39700Y-12500D03*
X38700Y-12500D03*
X37700Y-12500D03*
X36700Y-12500D03*
X35700Y-12500D03*
G54D16*
X10500Y-32550D03*
G54D17*
X11500Y-32550D03*
X12500Y-32550D03*
X13500Y-32550D03*
X14500Y-32550D03*
X15500Y-32550D03*
X16500Y-32550D03*
X16500Y-29550D03*
X15500Y-29550D03*
X14500Y-29550D03*
X13500Y-29550D03*
X12500Y-29550D03*
X11500Y-29550D03*
X10500Y-29550D03*
G54D18*
X89650Y-10187D03*
X89650Y-11013D03*
X92200Y-10187D03*
X92200Y-11013D03*
G54D19*
X16650Y-53300D03*
G54D20*
X16650Y-55300D03*
G54D19*
X16650Y-54300D03*
G54D21*
X10150Y-54300D03*
G54D16*
X93500Y-33750D03*
G54D17*
X94500Y-33750D03*
X95500Y-33750D03*
X96500Y-33750D03*
X97500Y-33750D03*
X98500Y-33750D03*
X99500Y-33750D03*
X100500Y-33750D03*
X100500Y-30750D03*
X99500Y-30750D03*
X98500Y-30750D03*
X97500Y-30750D03*
X96500Y-30750D03*
X95500Y-30750D03*
X94500Y-30750D03*
X93500Y-30750D03*
G54D18*
X18287Y-53550D03*
X19113Y-53550D03*
G54D12*
X48000Y-22550D03*
X48000Y-24550D03*
G54D22*
X21050Y-60150D03*
G54D23*
X23750Y-60150D03*
X35000Y-60150D03*
X36250Y-60150D03*
X38750Y-60150D03*
X40000Y-60150D03*
X41250Y-60150D03*
X42500Y-60150D03*
X43750Y-60150D03*
X47500Y-60150D03*
X48750Y-60150D03*
X50000Y-60150D03*
X51250Y-60150D03*
X52500Y-60150D03*
X56250Y-60150D03*
X57500Y-60150D03*
X58750Y-60150D03*
X60000Y-60150D03*
X61250Y-60150D03*
X62500Y-60150D03*
X63750Y-60150D03*
X65000Y-60150D03*
X66250Y-60150D03*
X67500Y-60150D03*
X68750Y-60150D03*
X70000Y-60150D03*
X71250Y-60150D03*
X72500Y-60150D03*
X73750Y-60150D03*
X75000Y-60150D03*
X76250Y-60150D03*
X77500Y-60150D03*
X78750Y-60150D03*
X80000Y-60150D03*
X81250Y-60150D03*
G54D22*
X82700Y-60150D03*
G54D15*
X89450Y-32000D03*
G54D12*
X89450Y-31000D03*
X89450Y-30000D03*
G54D16*
X49600Y-40050D03*
G54D17*
X50600Y-40050D03*
X51600Y-40050D03*
X52600Y-40050D03*
X53600Y-40050D03*
X54600Y-40050D03*
X55600Y-40050D03*
X56600Y-40050D03*
X57600Y-40050D03*
X58600Y-40050D03*
X58600Y-37050D03*
X57600Y-37050D03*
X56600Y-37050D03*
X55600Y-37050D03*
X54600Y-37050D03*
X53600Y-37050D03*
X52600Y-37050D03*
X51600Y-37050D03*
X50600Y-37050D03*
X49600Y-37050D03*
G54D16*
X35100Y-32500D03*
G54D17*
X36100Y-32500D03*
X37100Y-32500D03*
X38100Y-32500D03*
X39100Y-32500D03*
X40100Y-32500D03*
X41100Y-32500D03*
X42100Y-32500D03*
X43100Y-32500D03*
X44100Y-32500D03*
X44100Y-29500D03*
X43100Y-29500D03*
X42100Y-29500D03*
X41100Y-29500D03*
X40100Y-29500D03*
X39100Y-29500D03*
X38100Y-29500D03*
X37100Y-29500D03*
X36100Y-29500D03*
X35100Y-29500D03*
G54D12*
X12700Y-21250D03*
X12700Y-24250D03*
G54D18*
X94650Y-10187D03*
X94650Y-11013D03*
G54D16*
X22000Y-32550D03*
G54D17*
X23000Y-32550D03*
X24000Y-32550D03*
X25000Y-32550D03*
X26000Y-32550D03*
X27000Y-32550D03*
X28000Y-32550D03*
X29000Y-32550D03*
X29000Y-29550D03*
X28000Y-29550D03*
X27000Y-29550D03*
X26000Y-29550D03*
X25000Y-29550D03*
X24000Y-29550D03*
X23000Y-29550D03*
X22000Y-29550D03*
G54D16*
X35500Y-25050D03*
G54D17*
X36500Y-25050D03*
X37500Y-25050D03*
X38500Y-25050D03*
X39500Y-25050D03*
X40500Y-25050D03*
X41500Y-25050D03*
X42500Y-25050D03*
X42500Y-22050D03*
X41500Y-22050D03*
X40500Y-22050D03*
X39500Y-22050D03*
X38500Y-22050D03*
X37500Y-22050D03*
X36500Y-22050D03*
X35500Y-22050D03*
G54D16*
X93450Y-27650D03*
G54D17*
X94450Y-27650D03*
X95450Y-27650D03*
X96450Y-27650D03*
X97450Y-27650D03*
X98450Y-27650D03*
X99450Y-27650D03*
X100450Y-27650D03*
X100450Y-24650D03*
X99450Y-24650D03*
X98450Y-24650D03*
X97450Y-24650D03*
X96450Y-24650D03*
X95450Y-24650D03*
X94450Y-24650D03*
X93450Y-24650D03*
G54D16*
X49900Y-25000D03*
G54D17*
X50900Y-25000D03*
X51900Y-25000D03*
X52900Y-25000D03*
X53900Y-25000D03*
X54900Y-25000D03*
X55900Y-25000D03*
X55900Y-22000D03*
X54900Y-22000D03*
X53900Y-22000D03*
X52900Y-22000D03*
X51900Y-22000D03*
X50900Y-22000D03*
X49900Y-22000D03*
G54D16*
X64500Y-21500D03*
G54D17*
X65500Y-21500D03*
X66500Y-21500D03*
X67500Y-21500D03*
X68500Y-21500D03*
X69500Y-21500D03*
X70500Y-21500D03*
X71500Y-21500D03*
X72500Y-21500D03*
X73500Y-21500D03*
X73500Y-18500D03*
X72500Y-18500D03*
X71500Y-18500D03*
X70500Y-18500D03*
X69500Y-18500D03*
X68500Y-18500D03*
X67500Y-18500D03*
X66500Y-18500D03*
X65500Y-18500D03*
X64500Y-18500D03*
G54D16*
X64050Y-47550D03*
G54D17*
X65050Y-47550D03*
X66050Y-47550D03*
X67050Y-47550D03*
X68050Y-47550D03*
X69050Y-47550D03*
X70050Y-47550D03*
X71050Y-47550D03*
X72050Y-47550D03*
X73050Y-47550D03*
X73050Y-44550D03*
X72050Y-44550D03*
X71050Y-44550D03*
X70050Y-44550D03*
X69050Y-44550D03*
X68050Y-44550D03*
X67050Y-44550D03*
X66050Y-44550D03*
X65050Y-44550D03*
X64050Y-44550D03*
G54D13*
X8350Y-15850D03*
G54D14*
X9350Y-15850D03*
X8350Y-16850D03*
X9350Y-16850D03*
X8350Y-17850D03*
X9350Y-17850D03*
X8350Y-18850D03*
X9350Y-18850D03*
X8350Y-19850D03*
X9350Y-19850D03*
G54D12*
X91500Y-25150D03*
X91500Y-27150D03*
X20400Y-30050D03*
X20400Y-32050D03*
G54D15*
X19450Y-50700D03*
G54D12*
X20450Y-50700D03*
G54D13*
X73750Y-39500D03*
G54D14*
X73750Y-38500D03*
G54D18*
X24650Y-10813D03*
X24650Y-9987D03*
X23350Y-10813D03*
X23350Y-9987D03*
X22050Y-10813D03*
X22050Y-9987D03*
X20750Y-10813D03*
X20750Y-9987D03*
X19450Y-10813D03*
X19450Y-9987D03*
X18150Y-10813D03*
X18150Y-9987D03*
G54D12*
X29125Y-10526D03*
X29125Y-12526D03*
X26125Y-10526D03*
X26125Y-12526D03*
X58640Y-28090D03*
X58640Y-30090D03*
G54D16*
X79000Y-14500D03*
G54D17*
X80000Y-14500D03*
X81000Y-14500D03*
X82000Y-14500D03*
X83000Y-14500D03*
X84000Y-14500D03*
X85000Y-14500D03*
X85000Y-11500D03*
X84000Y-11500D03*
X83000Y-11500D03*
X82000Y-11500D03*
X81000Y-11500D03*
X80000Y-11500D03*
X79000Y-11500D03*
G54D12*
X29050Y-20550D03*
X29050Y-18550D03*
X21000Y-14650D03*
X21000Y-15650D03*
X20000Y-14650D03*
X20000Y-15650D03*
X19000Y-14650D03*
X19000Y-15650D03*
X18000Y-14650D03*
X18000Y-15650D03*
X17000Y-14650D03*
X17000Y-15650D03*
X16000Y-14650D03*
X15000Y-15650D03*
X16000Y-15650D03*
X15000Y-16650D03*
X16000Y-16650D03*
X15000Y-17650D03*
X16000Y-17650D03*
X15000Y-18650D03*
X16000Y-18650D03*
X15000Y-19650D03*
X16000Y-19650D03*
X15000Y-20650D03*
X16000Y-20650D03*
X15000Y-21650D03*
X16000Y-21650D03*
X15000Y-22650D03*
X16000Y-22650D03*
X15000Y-23650D03*
X16000Y-23650D03*
X15000Y-24650D03*
X16000Y-24650D03*
X15000Y-25650D03*
X16000Y-26650D03*
X16000Y-25650D03*
X17000Y-26650D03*
X17000Y-25650D03*
X18000Y-26650D03*
X18000Y-25650D03*
X19000Y-26650D03*
X19000Y-25650D03*
X20000Y-26650D03*
X20000Y-25650D03*
X21000Y-26650D03*
X21000Y-25650D03*
X22000Y-26650D03*
X22000Y-25650D03*
X23000Y-26650D03*
X23000Y-25650D03*
X24000Y-26650D03*
X24000Y-25650D03*
X25000Y-26650D03*
X25000Y-25650D03*
X26000Y-26650D03*
X27000Y-25650D03*
X26000Y-25650D03*
X27000Y-24650D03*
X26000Y-24650D03*
X27000Y-23650D03*
X26000Y-23650D03*
X27000Y-22650D03*
X26000Y-22650D03*
X27000Y-21650D03*
X26000Y-21650D03*
X27000Y-20650D03*
X26000Y-20650D03*
X27000Y-19650D03*
X26000Y-19650D03*
X27000Y-18650D03*
X26000Y-18650D03*
X27000Y-17650D03*
X26000Y-17650D03*
X27000Y-16650D03*
X26000Y-16650D03*
X27000Y-15650D03*
X26000Y-14650D03*
X26000Y-15650D03*
X25000Y-14650D03*
X25000Y-15650D03*
X24000Y-14650D03*
X24000Y-15650D03*
X23000Y-14650D03*
X23000Y-15650D03*
X22000Y-14650D03*
X22000Y-15650D03*
X29050Y-17000D03*
X29050Y-14000D03*
G54D15*
X87700Y-32000D03*
G54D12*
X87700Y-31000D03*
X87700Y-30000D03*
G54D16*
X79050Y-33800D03*
G54D17*
X80050Y-33800D03*
X81050Y-33800D03*
X82050Y-33800D03*
X83050Y-33800D03*
X84050Y-33800D03*
X85050Y-33800D03*
X85050Y-30800D03*
X84050Y-30800D03*
X83050Y-30800D03*
X82050Y-30800D03*
X81050Y-30800D03*
X80050Y-30800D03*
X79050Y-30800D03*
G54D13*
X8300Y-22900D03*
G54D14*
X9300Y-22900D03*
X8300Y-23900D03*
X9300Y-23900D03*
X8300Y-24900D03*
X9300Y-24900D03*
X8300Y-25900D03*
X9300Y-25900D03*
X8300Y-26900D03*
X9300Y-26900D03*
G54D13*
X11450Y-25900D03*
G54D14*
X12450Y-25900D03*
X11450Y-26900D03*
X12450Y-26900D03*
G54D12*
X60884Y-23252D03*
X63884Y-23252D03*
G54D13*
X60878Y-24222D03*
G54D14*
X61878Y-24222D03*
G54D16*
X60880Y-31960D03*
G54D17*
X61880Y-31960D03*
X62880Y-31960D03*
X63880Y-31960D03*
X64880Y-31960D03*
X65880Y-31960D03*
X66880Y-31960D03*
X67880Y-31960D03*
X68880Y-31960D03*
X69880Y-31960D03*
X70880Y-31960D03*
X71880Y-31960D03*
X72880Y-31960D03*
X73880Y-31960D03*
X73880Y-25960D03*
X72880Y-25960D03*
X71880Y-25960D03*
X70880Y-25960D03*
X69880Y-25960D03*
X68880Y-25960D03*
X67880Y-25960D03*
X66880Y-25960D03*
X65880Y-25960D03*
X64880Y-25960D03*
X63880Y-25960D03*
X62880Y-25960D03*
X61880Y-25960D03*
X60880Y-25960D03*
G54D12*
X61120Y-38430D03*
X61120Y-35430D03*
M02*
