M48
;DRILL file {Pcbnew (2013-07-07 BZR 4022)-stable} date 1/8/2016 4:19:51 PM
;FORMAT={-:-/ absolute / metric / decimal}
FMAT,2
METRIC,TZ
T1C0.350
T2C0.584
T3C0.813
T4C1.016
T5C1.143
T6C3.048
%
G90
G05
M71
T1
X22.789Y52.55
X26.7Y48.966
X33.813Y59.413
X34.099Y52.54
X34.9Y53.2
X34.962Y46.138
X35.649Y45.514
X37.074Y43.398
X37.096Y59.376
X38.105Y69.333
X42.019Y45.809
X42.203Y104.951
X42.74Y56.053
X43.121Y34.73
X43.558Y51.47
X44.386Y58.14
X44.45Y26.416
X46.18Y33.186
X46.742Y57.769
X46.812Y118.567
X47.187Y31.497
X47.311Y57.187
X47.752Y26.416
X48.407Y117.452
X48.485Y30.159
X50.266Y106.858
X50.986Y29.622
X51.054Y26.416
X51.991Y66.541
X51.995Y47.68
X52.202Y42.438
X53.797Y31.471
X54.483Y26.416
X56.213Y58.632
X57.004Y34.636
X57.133Y38.234
X57.658Y26.416
X57.658Y30.48
X57.887Y48.514
X58.148Y33.481
X59.157Y32.969
X59.584Y39.579
X60.061Y130.587
X60.4Y58.325
X60.401Y56.464
X60.93Y35.944
X60.96Y26.416
X61.198Y72.253
X62.586Y47.371
X62.911Y60.944
X63.049Y34.86
X63.5Y46.101
X63.518Y60.266
X64.095Y62.463
X64.719Y37.022
X64.815Y32.263
X65.292Y64.249
X65.856Y33.052
X66.498Y125.551
X66.933Y63.494
X68.955Y31.756
X69.537Y66.951
X70.3Y83.993
X71.033Y64.54
X71.033Y137.736
X71.102Y136.988
X71.287Y66.204
X71.639Y62.914
X72.031Y56.302
X72.314Y40.589
X72.831Y141.143
X73.446Y56.77
X73.86Y81.019
X74.533Y63.078
X76.094Y60.428
X76.605Y62.769
X76.62Y63.469
X76.95Y104.288
X77.221Y77.024
X77.318Y44.12
X77.418Y59.84
X78.245Y73.461
X78.299Y119.358
X78.468Y39.727
X78.492Y126.951
X78.518Y59.868
X78.776Y96.816
X78.969Y73.019
X79.191Y125.677
X79.24Y77.165
X79.24Y77.987
X79.35Y146.164
X80.115Y104.308
X80.277Y67.415
X80.34Y63.23
X80.536Y119.703
X80.758Y59.343
X81.292Y55.684
X82.087Y81.612
X82.282Y62.878
X83.009Y63.304
X83.018Y76.172
X83.908Y79.202
X85.04Y143.721
X85.192Y41.427
X85.776Y146.85
X86.241Y138.484
X86.589Y59.758
X86.995Y90.805
X87.473Y117.045
X87.539Y130.628
X87.593Y73.57
X87.696Y144.307
X88.9Y32.36
X88.925Y29.032
X89.738Y97.815
X90.424Y89.433
X90.576Y145.072
X91.376Y89.891
X91.89Y130.54
X95.25Y146.139
X96.181Y53.884
X96.784Y71.685
X96.887Y65.49
X97.554Y79.989
X97.578Y79.289
X97.612Y36.045
X99.661Y28.92
X100.234Y72.815
X100.617Y73.438
X100.853Y35.378
X102.064Y128.164
X102.736Y72.336
X102.789Y141.742
X103.626Y76.94
X103.979Y96.321
X105.648Y77.047
X106.959Y144.297
X107.048Y146.19
X108.489Y68.289
X108.756Y48.971
X110.062Y88.755
X110.934Y62.242
X111.025Y57.958
X111.293Y88.296
X111.752Y71.319
X112.014Y44.009
X112.357Y79.897
X112.886Y99.096
X113.104Y69.893
X113.174Y79.523
X113.789Y124.024
X114.035Y65.907
X114.224Y109.931
X114.534Y121.316
X115.102Y52.303
X115.247Y92.902
X115.885Y90.481
X115.984Y94.101
X116.919Y133.022
X117.457Y50.329
X117.498Y55.212
X117.68Y64.563
X117.735Y53.66
X118.438Y64.426
X118.694Y99.794
X118.885Y86.192
X119.361Y87.544
X119.583Y104.457
X119.864Y118.736
X120.032Y128.223
X120.135Y65.845
X120.63Y122.088
X120.68Y68.033
X121.412Y147.244
X122.276Y26.518
X123.073Y76.4
X123.083Y133.553
X123.321Y131.412
X123.359Y146.45
X123.484Y83.628
X123.497Y114.764
X123.533Y80.428
X123.931Y116.046
X124.863Y145.313
X125.266Y88.216
X125.559Y125.063
X126.187Y29.007
X126.259Y125.628
X127.154Y88.394
X127.311Y130.442
X127.634Y145.24
X128.13Y92.359
X128.257Y146.19
X128.442Y98.496
X128.75Y106.113
X129.29Y39.857
X129.794Y79.079
X130.15Y147.714
X130.805Y99.757
X130.898Y98.41
X131.039Y142.494
X131.067Y85.582
X131.619Y69.994
X132.309Y142.316
X132.513Y109.733
X132.842Y121.075
X133.472Y70.469
X133.82Y147.752
X134.552Y88.487
X135.35Y134.806
X135.683Y41.926
X136.539Y106.593
X137.068Y86.551
X137.086Y57.627
X137.144Y84.558
X137.883Y40.53
X138.042Y49.055
X138.084Y79.712
X138.195Y50.323
X138.265Y142.811
X139.86Y144.518
X140.543Y64.75
X140.751Y134.826
X141.177Y109.902
X141.449Y145.838
X141.935Y35.763
X142.137Y88.936
X142.761Y141.681
X143.55Y84.851
X143.592Y130.605
X143.703Y146.269
X144.155Y136.063
X145.538Y99.081
X146.014Y130.7
X146.016Y147.774
X146.341Y110.06
X146.547Y129.114
X148.387Y29.337
X148.474Y89.404
X148.887Y61.076
X149.114Y32.173
X149.424Y83.367
X150.622Y131.62
X151.397Y147.028
X151.662Y37.995
X153.109Y56.246
X153.116Y115.89
X153.604Y56.741
X153.605Y138.017
X154.36Y37.637
X154.511Y111.901
X154.799Y139.207
X155.5Y69.714
X156.021Y118.727
X156.223Y140.616
X156.347Y144.602
X156.583Y145.696
X156.895Y61.717
X157.497Y144.669
X157.507Y33.079
X157.534Y143.132
X157.619Y143.969
X157.856Y103.682
X157.933Y68.026
X159.097Y105.189
X159.232Y78.786
X159.371Y115.205
X160.34Y102.852
X161.322Y67.969
X161.34Y105.925
X161.543Y99.904
X162.153Y109.134
X162.646Y105.101
X162.986Y114.796
X163.134Y48.924
X163.239Y108.251
X163.302Y78.972
X163.539Y65.553
X164.986Y142.164
X165.387Y110.86
X165.631Y77.464
X165.95Y82.225
X166.069Y84.251
X166.262Y78.909
X166.798Y122.02
X167.154Y83.009
X167.679Y95.27
X167.695Y78.223
X168.224Y145.821
X168.72Y69.803
X168.937Y71.968
X170.384Y84.831
X170.598Y118.389
X170.932Y78.027
X171.552Y129.389
X172.423Y58.609
X172.498Y109.107
X172.561Y130.86
X172.815Y145.955
X173.027Y116.428
X173.224Y60.349
X173.263Y144.642
X173.279Y129.455
X173.873Y117.948
X175.039Y103.688
X175.113Y60.779
X175.127Y148.092
X175.155Y145.906
X175.172Y118.057
X176.615Y143.264
X177.438Y59.797
X178.207Y135.501
X178.524Y146.507
X180.046Y135.579
X180.177Y69.721
X180.233Y97.6
X180.469Y134.902
X180.916Y106.673
X181.275Y136.564
X181.611Y107.578
X182.664Y135.898
X183.505Y106.899
X184.69Y104.856
X185.293Y107.307
X185.736Y39.642
X186.224Y106.886
X186.733Y71.951
X186.736Y137.358
X186.781Y93.285
X186.832Y49.671
X186.862Y77.11
X187.217Y134.134
X187.325Y145.669
X187.854Y104.999
X188.079Y94.612
X188.569Y91.019
X188.792Y129.025
X188.857Y105.094
X188.961Y109.623
X189.54Y56.187
X189.762Y57.365
X190.148Y122.313
X190.344Y107.216
X191.128Y46.417
X191.55Y101.184
X191.78Y90.896
X191.933Y89.205
X191.995Y129.095
X192.532Y143.256
X192.744Y87.026
X193.297Y66.269
X193.327Y56.768
X193.505Y65.109
X193.547Y83.781
X193.802Y142.621
X193.836Y120.659
X193.992Y68.364
X194.056Y141.732
X194.086Y90.809
X194.296Y98.701
X195.122Y71.909
X195.346Y123.039
X195.358Y98.582
X195.665Y73.419
X195.892Y71.753
X196.329Y61.319
X197.005Y134.642
X197.676Y134.159
X197.747Y92.888
X198.248Y87.555
X198.33Y93.904
X198.967Y128.595
X199.034Y64.417
X199.064Y45.991
X199.07Y43.114
X199.299Y57.988
X199.807Y41.533
X200.406Y72.561
X200.863Y147.079
X201.25Y82.282
X201.841Y95.415
X202.057Y147.117
X202.319Y128.688
X202.645Y82.069
X203.925Y73.642
X204.382Y80.281
X204.905Y76.262
X205.524Y104.356
X205.537Y76.63
X205.825Y95.588
X206.771Y75.956
X206.832Y72.934
X207.281Y116.407
X207.885Y133.7
X208.156Y57.431
X209.103Y133.442
X209.155Y119.231
X209.2Y82.59
X209.214Y73.244
X209.379Y74.474
X209.983Y48.219
X209.995Y84.188
X211.583Y43.378
X211.634Y134.897
X211.957Y74.741
X212.425Y56.93
X212.573Y48.189
X213.458Y75.571
X214.53Y43.682
X215.051Y147.545
X215.623Y133.98
X216.415Y58.749
X217.16Y83.012
X217.607Y85.021
X217.863Y71.805
X219.449Y97.33
X220.573Y94.528
X220.666Y92.353
X220.751Y44.323
X220.995Y91.366
X221.203Y93.559
X221.576Y78.9
X222.047Y31.064
X222.124Y91.688
X222.527Y87.556
X223.611Y84.839
X223.871Y89.047
X224.503Y96.558
X224.767Y81.38
X224.884Y88.796
X225.07Y110.475
X225.792Y121.776
X226.729Y96.294
X227.162Y99.078
X227.515Y96.356
X227.76Y67.388
X228.175Y120.396
X228.447Y82.721
X228.718Y116.819
X228.767Y25.889
X229.362Y38.608
X229.387Y34.468
X229.94Y79.764
X230.054Y58.422
X230.572Y81.214
X230.874Y96.049
X231.116Y99.318
X231.368Y61.853
X232.122Y61.256
X232.144Y97.279
X233.119Y26.099
X233.324Y42.545
X233.623Y87.897
X233.979Y126.987
X235.852Y95.995
X236.982Y38.481
X238.122Y99.416
X238.252Y138.049
X238.993Y58.817
X239.575Y59.347
X240.152Y99.653
X240.353Y64.701
X240.785Y74.201
X240.95Y52.878
X241.473Y25.91
X241.697Y66.492
X242.272Y91.87
X243.446Y57.772
X244.198Y118.633
X244.392Y48.512
X244.856Y38.481
X245.77Y49.065
X245.828Y53.266
X248.59Y36.297
X250.806Y126.809
X253.772Y103.892
X256.439Y99.985
X258.821Y98.25
T2
X39.688Y32.842
X44.247Y29.439
X44.895Y134.861
X45.72Y58.094
X59.487Y51.257
X76.441Y31.559
X80.67Y47.168
X118.288Y134.061
X119.739Y96.772
X145.987Y46.33
X191.186Y32.487
X255.778Y135.89
X256.921Y135.89
T3
X21.59Y76.327
X21.59Y81.407
X21.59Y106.68
X21.717Y95.377
X21.717Y100.457
X24.13Y106.68
X25.4Y110.49
X25.4Y118.11
X26.67Y75.057
X26.67Y82.677
X26.67Y106.68
X26.797Y94.107
X26.797Y101.727
X27.94Y110.49
X27.94Y118.11
X29.083Y55.626
X29.083Y58.166
X29.083Y60.706
X29.21Y75.057
X29.21Y82.677
X29.21Y106.68
X29.337Y94.107
X29.337Y101.727
X30.48Y110.49
X30.48Y118.11
X31.75Y44.831
X31.75Y49.911
X31.75Y75.057
X31.75Y82.677
X31.75Y106.68
X31.877Y94.107
X31.877Y101.727
X32.258Y53.975
X32.258Y61.595
X33.02Y110.49
X33.02Y118.11
X34.29Y75.057
X34.29Y82.677
X34.29Y106.68
X34.417Y94.107
X34.417Y101.727
X35.56Y110.49
X35.56Y118.11
X36.83Y75.057
X36.83Y82.677
X36.83Y106.68
X36.957Y94.107
X36.957Y101.727
X38.1Y39.751
X38.1Y42.291
X38.1Y44.831
X38.1Y47.371
X38.1Y49.911
X38.1Y52.451
X38.1Y54.991
X38.1Y57.531
X38.1Y60.071
X38.1Y62.611
X38.1Y65.151
X38.1Y110.49
X38.1Y118.11
X39.37Y75.057
X39.37Y82.677
X39.37Y106.68
X39.497Y94.107
X39.497Y101.727
X40.64Y37.211
X40.64Y39.751
X40.64Y42.291
X40.64Y44.831
X40.64Y47.371
X40.64Y49.911
X40.64Y52.451
X40.64Y54.991
X40.64Y57.531
X40.64Y60.071
X40.64Y62.611
X40.64Y65.151
X40.64Y67.691
X40.64Y110.49
X40.64Y118.11
X41.91Y75.057
X41.91Y82.677
X41.91Y106.68
X42.037Y94.107
X42.037Y101.727
X43.18Y37.211
X43.18Y39.751
X43.18Y65.151
X43.18Y67.691
X43.18Y110.49
X43.18Y118.11
X44.45Y106.68
X44.577Y94.107
X44.577Y101.727
X44.704Y125.349
X44.704Y127.889
X45.72Y37.211
X45.72Y39.751
X45.72Y65.151
X45.72Y67.691
X46.355Y144.653
X48.26Y37.211
X48.26Y39.751
X48.26Y65.151
X48.26Y67.691
X48.895Y144.653
X49.403Y128.778
X50.8Y37.211
X50.8Y39.751
X50.8Y65.151
X50.8Y67.691
X51.689Y95.377
X51.689Y100.457
X51.816Y76.327
X51.816Y81.407
X51.816Y106.807
X51.943Y128.778
X52.451Y133.35
X52.451Y138.43
X53.34Y37.211
X53.34Y39.751
X53.34Y65.151
X53.34Y67.691
X54.356Y106.807
X55.626Y110.49
X55.626Y118.11
X55.88Y37.211
X55.88Y39.751
X55.88Y65.151
X55.88Y67.691
X55.88Y75.057
X55.88Y82.677
X56.896Y106.807
X56.896Y132.08
X56.896Y139.7
X57.023Y94.234
X57.023Y101.854
X58.166Y110.49
X58.166Y118.11
X58.42Y37.211
X58.42Y39.751
X58.42Y65.151
X58.42Y67.691
X58.42Y75.057
X58.42Y82.677
X59.436Y106.807
X59.436Y132.08
X59.436Y139.7
X59.563Y94.234
X59.563Y101.854
X60.706Y110.49
X60.706Y118.11
X60.96Y37.211
X60.96Y39.751
X60.96Y65.151
X60.96Y67.691
X60.96Y75.057
X60.96Y82.677
X61.976Y106.807
X61.976Y132.08
X61.976Y139.7
X62.103Y94.234
X62.103Y101.854
X63.246Y110.49
X63.246Y118.11
X63.5Y37.211
X63.5Y39.751
X63.5Y65.151
X63.5Y67.691
X63.5Y75.057
X63.5Y82.677
X64.516Y106.807
X64.516Y132.08
X64.516Y139.7
X64.643Y94.234
X64.643Y101.854
X65.786Y110.49
X65.786Y118.11
X66.04Y37.211
X66.04Y39.751
X66.04Y42.291
X66.04Y44.831
X66.04Y47.371
X66.04Y49.911
X66.04Y52.451
X66.04Y54.991
X66.04Y57.531
X66.04Y60.071
X66.04Y62.611
X66.04Y65.151
X66.04Y67.691
X66.04Y75.057
X66.04Y82.677
X66.358Y26.738
X66.358Y31.819
X67.056Y106.807
X67.056Y132.08
X67.056Y139.7
X67.183Y94.234
X67.183Y101.854
X68.326Y110.49
X68.326Y118.11
X68.58Y39.751
X68.58Y42.291
X68.58Y44.831
X68.58Y47.371
X68.58Y49.911
X68.58Y52.451
X68.58Y54.991
X68.58Y57.531
X68.58Y60.071
X68.58Y62.611
X68.58Y65.151
X68.58Y75.057
X68.58Y82.677
X69.596Y106.807
X69.596Y132.08
X69.596Y139.7
X69.723Y94.234
X69.723Y101.854
X70.866Y110.49
X70.866Y118.11
X71.12Y75.057
X71.12Y82.677
X72.136Y106.807
X72.136Y132.08
X72.136Y139.7
X72.263Y94.234
X72.263Y101.854
X73.406Y110.49
X73.406Y118.11
X73.66Y75.057
X73.66Y82.677
X73.787Y35.56
X73.787Y43.18
X73.787Y47.117
X73.787Y52.197
X73.978Y26.738
X73.978Y31.819
X74.676Y106.807
X74.676Y132.08
X74.676Y139.7
X74.803Y94.234
X74.803Y101.854
X77.216Y132.08
X77.216Y139.7
X79.756Y132.08
X79.756Y139.7
X84.963Y95.377
X84.963Y100.457
X85.09Y57.15
X85.09Y62.23
X85.09Y76.2
X85.09Y81.28
X85.09Y106.807
X85.09Y133.35
X85.09Y138.43
X86.36Y122.047
X87.63Y106.807
X88.9Y110.49
X88.9Y118.11
X88.9Y122.047
X89.154Y74.93
X89.154Y82.55
X90.043Y94.234
X90.043Y101.854
X90.17Y56.007
X90.17Y63.627
X90.17Y106.807
X90.17Y132.08
X90.17Y139.7
X90.678Y31.75
X90.678Y46.99
X91.44Y110.49
X91.44Y118.11
X91.44Y122.047
X91.694Y74.93
X91.694Y82.55
X92.583Y94.234
X92.583Y101.854
X92.71Y56.007
X92.71Y63.627
X92.71Y106.807
X92.71Y132.08
X92.71Y139.7
X93.218Y31.75
X93.218Y46.99
X93.98Y110.49
X93.98Y118.11
X93.98Y122.047
X94.234Y74.93
X94.234Y82.55
X95.123Y94.234
X95.123Y101.854
X95.25Y56.007
X95.25Y63.627
X95.25Y106.807
X95.25Y132.08
X95.25Y139.7
X95.758Y31.75
X95.758Y46.99
X96.52Y110.49
X96.52Y118.11
X96.52Y122.047
X96.774Y74.93
X96.774Y82.55
X97.663Y94.234
X97.663Y101.854
X97.79Y56.007
X97.79Y63.627
X97.79Y106.807
X97.79Y132.08
X97.79Y139.7
X98.298Y31.75
X98.298Y46.99
X99.06Y110.49
X99.06Y118.11
X99.06Y122.047
X99.314Y74.93
X99.314Y82.55
X100.203Y94.234
X100.203Y101.854
X100.33Y56.007
X100.33Y63.627
X100.33Y106.807
X100.33Y132.08
X100.33Y139.7
X100.838Y31.75
X100.838Y46.99
X101.6Y110.49
X101.6Y118.11
X101.6Y122.047
X101.854Y74.93
X101.854Y82.55
X102.743Y94.234
X102.743Y101.854
X102.87Y56.007
X102.87Y63.627
X102.87Y106.807
X102.87Y132.08
X102.87Y139.7
X103.378Y31.75
X103.378Y46.99
X104.14Y110.49
X104.14Y118.11
X104.14Y122.047
X104.394Y74.93
X104.394Y82.55
X105.283Y94.234
X105.283Y101.854
X105.41Y56.007
X105.41Y63.627
X105.41Y106.807
X105.41Y132.08
X105.41Y139.7
X105.918Y31.75
X105.918Y46.99
X106.68Y110.49
X106.68Y118.11
X106.68Y122.047
X106.934Y74.93
X106.934Y82.55
X107.823Y94.234
X107.823Y101.854
X107.95Y56.007
X107.95Y63.627
X107.95Y106.807
X107.95Y132.08
X107.95Y139.7
X108.458Y31.75
X108.458Y46.99
X109.22Y122.047
X109.474Y74.93
X109.474Y82.55
X110.49Y132.08
X110.49Y139.7
X110.998Y31.75
X110.998Y46.99
X112.014Y74.93
X112.014Y82.55
X113.03Y132.08
X113.03Y139.7
X113.538Y31.75
X113.538Y46.99
X116.078Y31.75
X116.078Y46.99
X118.618Y31.75
X118.618Y46.99
X118.999Y57.277
X118.999Y62.357
X121.158Y31.75
X121.158Y46.99
X121.92Y57.277
X121.92Y62.357
X121.92Y76.327
X121.92Y81.407
X121.92Y95.123
X121.92Y100.203
X123.698Y31.75
X123.698Y46.99
X124.841Y114.3
X124.841Y119.38
X124.968Y133.35
X124.968Y138.43
X125.984Y75.057
X125.984Y82.677
X125.984Y94.107
X125.984Y101.727
X126.238Y31.75
X126.238Y46.99
X126.746Y55.88
X126.746Y63.5
X128.524Y75.057
X128.524Y82.677
X128.524Y94.107
X128.524Y101.727
X128.778Y31.75
X128.778Y46.99
X129.032Y113.03
X129.032Y120.65
X129.032Y132.08
X129.032Y139.7
X129.286Y55.88
X129.286Y63.5
X131.064Y75.057
X131.064Y82.677
X131.064Y94.107
X131.064Y101.727
X131.318Y31.75
X131.318Y46.99
X131.572Y113.03
X131.572Y120.65
X131.572Y132.08
X131.572Y139.7
X131.826Y55.88
X131.826Y63.5
X133.604Y75.057
X133.604Y82.677
X133.604Y94.107
X133.604Y101.727
X133.858Y31.75
X133.858Y46.99
X134.112Y113.03
X134.112Y120.65
X134.112Y132.08
X134.112Y139.7
X134.366Y55.88
X134.366Y63.5
X136.144Y75.057
X136.144Y82.677
X136.144Y94.107
X136.144Y101.727
X136.398Y31.75
X136.398Y46.99
X136.652Y113.03
X136.652Y120.65
X136.652Y132.08
X136.652Y139.7
X136.906Y55.88
X136.906Y63.5
X138.684Y75.057
X138.684Y82.677
X138.684Y94.107
X138.684Y101.727
X138.938Y31.75
X138.938Y46.99
X139.192Y113.03
X139.192Y120.65
X139.192Y132.08
X139.192Y139.7
X139.446Y55.88
X139.446Y63.5
X141.224Y75.057
X141.224Y82.677
X141.224Y94.107
X141.224Y101.727
X141.732Y113.03
X141.732Y120.65
X141.732Y132.08
X141.732Y139.7
X141.986Y55.88
X141.986Y63.5
X143.764Y94.107
X143.764Y101.727
X144.272Y113.03
X144.272Y120.65
X144.272Y132.08
X144.272Y139.7
X146.304Y94.107
X146.304Y101.727
X146.812Y113.03
X146.812Y120.65
X146.812Y132.08
X146.812Y139.7
X148.844Y94.107
X148.844Y101.727
X149.352Y132.08
X149.352Y139.7
X151.892Y132.08
X151.892Y139.7
X156.063Y71.323
X156.063Y76.403
X158.623Y114.3
X158.623Y119.38
X158.75Y30.607
X158.75Y35.687
X158.75Y47.879
X158.75Y52.959
X158.75Y95.504
X158.75Y100.584
X159.746Y65.989
X159.746Y81.229
X159.766Y133.35
X159.766Y138.43
X161.163Y90.297
X162.286Y65.989
X162.286Y81.229
X162.687Y113.157
X162.687Y120.777
X163.703Y90.297
X163.703Y94.234
X163.703Y101.854
X163.83Y29.337
X163.83Y36.957
X163.83Y46.99
X163.83Y54.61
X163.83Y132.08
X163.83Y139.7
X164.826Y65.989
X164.826Y81.229
X165.227Y113.157
X165.227Y120.777
X166.243Y90.297
X166.243Y94.234
X166.243Y101.854
X166.37Y29.337
X166.37Y36.957
X166.37Y46.99
X166.37Y54.61
X166.37Y132.08
X166.37Y139.7
X167.366Y65.989
X167.366Y81.229
X167.767Y113.157
X167.767Y120.777
X168.783Y90.297
X168.783Y94.234
X168.783Y101.854
X168.91Y29.337
X168.91Y36.957
X168.91Y46.99
X168.91Y54.61
X168.91Y132.08
X168.91Y139.7
X169.906Y65.989
X169.906Y81.229
X170.307Y113.157
X170.307Y120.777
X171.323Y90.297
X171.323Y94.234
X171.323Y101.854
X171.45Y29.337
X171.45Y36.957
X171.45Y46.99
X171.45Y54.61
X171.45Y132.08
X171.45Y139.7
X172.446Y65.989
X172.446Y81.229
X172.847Y113.157
X172.847Y120.777
X173.863Y90.297
X173.863Y94.234
X173.863Y101.854
X173.99Y29.337
X173.99Y36.957
X173.99Y46.99
X173.99Y54.61
X173.99Y132.08
X173.99Y139.7
X174.986Y65.989
X174.986Y81.229
X175.387Y113.157
X175.387Y120.777
X176.403Y90.297
X176.403Y94.234
X176.403Y101.854
X176.53Y29.337
X176.53Y36.957
X176.53Y46.99
X176.53Y54.61
X176.53Y132.08
X176.53Y139.7
X177.526Y65.989
X177.526Y81.229
X177.927Y113.157
X177.927Y120.777
X178.943Y90.297
X178.943Y94.234
X178.943Y101.854
X179.07Y29.337
X179.07Y36.957
X179.07Y46.99
X179.07Y54.61
X179.07Y132.08
X179.07Y139.7
X180.066Y65.989
X180.066Y81.229
X180.467Y113.157
X180.467Y120.777
X181.483Y90.297
X181.61Y46.99
X181.61Y54.61
X181.61Y132.08
X181.61Y139.7
X182.606Y65.989
X182.606Y81.229
X183.007Y113.157
X183.007Y120.777
X183.896Y95.25
X183.896Y97.79
X183.896Y100.33
X184.023Y90.297
X184.15Y46.99
X184.15Y54.61
X184.15Y132.08
X184.15Y139.7
X185.146Y65.989
X185.146Y81.229
X185.547Y113.157
X185.547Y120.777
X186.69Y46.99
X186.69Y54.61
X186.69Y132.08
X186.69Y139.7
X187.686Y65.989
X187.686Y81.229
X195.58Y30.48
X195.58Y35.56
X195.58Y48.133
X195.58Y53.213
X195.58Y63.754
X195.58Y68.834
X195.58Y79.502
X195.58Y84.582
X195.58Y95.25
X195.58Y100.33
X195.58Y114.427
X195.58Y119.507
X195.58Y133.35
X195.58Y138.43
X196.85Y90.297
X198.247Y107.442
X198.247Y109.855
X199.39Y90.297
X200.406Y62.484
X200.406Y70.104
X200.66Y29.21
X200.66Y36.83
X200.66Y46.863
X200.66Y54.483
X200.66Y93.98
X200.66Y101.6
X200.66Y113.157
X200.66Y120.777
X200.66Y132.08
X200.66Y139.7
X200.787Y78.232
X200.787Y85.852
X201.93Y90.297
X202.946Y62.484
X202.946Y70.104
X203.2Y29.21
X203.2Y36.83
X203.2Y46.863
X203.2Y54.483
X203.2Y93.98
X203.2Y101.6
X203.2Y113.157
X203.2Y120.777
X203.2Y132.08
X203.2Y139.7
X203.327Y78.232
X203.327Y85.852
X204.47Y90.297
X205.486Y62.484
X205.486Y70.104
X205.74Y29.21
X205.74Y36.83
X205.74Y46.863
X205.74Y54.483
X205.74Y93.98
X205.74Y101.6
X205.74Y113.157
X205.74Y120.777
X205.74Y132.08
X205.74Y139.7
X205.867Y78.232
X205.867Y85.852
X205.867Y107.442
X205.867Y109.855
X207.01Y90.297
X208.026Y62.484
X208.026Y70.104
X208.28Y29.21
X208.28Y36.83
X208.28Y46.863
X208.28Y54.483
X208.28Y93.98
X208.28Y101.6
X208.28Y113.157
X208.28Y120.777
X208.28Y132.08
X208.28Y139.7
X208.407Y78.232
X208.407Y85.852
X209.55Y90.297
X210.566Y62.484
X210.566Y70.104
X210.82Y29.21
X210.82Y36.83
X210.82Y46.863
X210.82Y54.483
X210.82Y93.98
X210.82Y101.6
X210.82Y105.156
X210.82Y107.569
X210.82Y109.982
X210.82Y113.157
X210.82Y120.777
X210.82Y132.08
X210.82Y139.7
X210.947Y78.232
X210.947Y85.852
X212.09Y90.297
X213.106Y62.484
X213.106Y70.104
X213.36Y29.21
X213.36Y36.83
X213.36Y46.863
X213.36Y54.483
X213.36Y93.98
X213.36Y101.6
X213.36Y113.157
X213.36Y120.777
X213.36Y132.08
X213.36Y139.7
X213.487Y78.232
X213.487Y85.852
X214.63Y90.297
X215.646Y62.484
X215.646Y70.104
X215.9Y29.21
X215.9Y36.83
X215.9Y46.863
X215.9Y54.483
X215.9Y93.98
X215.9Y101.6
X215.9Y113.157
X215.9Y120.777
X215.9Y132.08
X215.9Y139.7
X216.027Y78.232
X216.027Y85.852
X217.17Y90.297
X218.186Y62.484
X218.186Y70.104
X218.44Y105.156
X218.44Y107.569
X218.44Y109.982
X218.44Y113.157
X218.44Y120.777
X218.44Y132.08
X218.44Y139.7
X219.71Y90.297
X220.98Y113.157
X220.98Y120.777
X220.98Y132.08
X220.98Y139.7
X222.758Y76.2
X222.758Y78.74
X222.758Y81.28
X223.52Y113.157
X223.52Y120.777
X223.52Y132.08
X223.52Y139.7
X227.203Y76.2
X227.203Y78.74
X227.203Y81.28
X232.283Y48.26
X232.283Y53.34
X232.41Y63.881
X232.41Y68.961
X232.41Y79.375
X232.41Y84.455
X232.41Y95.377
X232.41Y100.457
X232.41Y114.427
X232.41Y119.507
X232.41Y133.35
X232.41Y138.43
X236.728Y113.157
X236.728Y120.777
X236.728Y132.08
X236.728Y139.7
X237.363Y46.99
X237.363Y54.61
X237.363Y62.611
X237.363Y70.231
X237.49Y78.105
X237.49Y85.725
X237.49Y94.107
X237.49Y101.727
X239.268Y113.157
X239.268Y120.777
X239.268Y132.08
X239.268Y139.7
X239.903Y46.99
X239.903Y54.61
X239.903Y62.611
X239.903Y70.231
X240.03Y78.105
X240.03Y85.725
X240.03Y94.107
X240.03Y101.727
X241.808Y113.157
X241.808Y120.777
X241.808Y132.08
X241.808Y139.7
X242.443Y46.99
X242.443Y54.61
X242.443Y62.611
X242.443Y70.231
X242.57Y78.105
X242.57Y85.725
X242.57Y94.107
X242.57Y101.727
X244.348Y113.157
X244.348Y120.777
X244.348Y132.08
X244.348Y139.7
X244.983Y46.99
X244.983Y54.61
X244.983Y62.611
X244.983Y70.231
X245.11Y78.105
X245.11Y85.725
X245.11Y94.107
X245.11Y101.727
X246.888Y113.157
X246.888Y120.777
X246.888Y132.08
X246.888Y139.7
X247.523Y46.99
X247.523Y54.61
X247.523Y62.611
X247.523Y70.231
X247.65Y78.105
X247.65Y85.725
X247.65Y94.107
X247.65Y101.727
X249.428Y113.157
X249.428Y120.777
X249.428Y132.08
X249.428Y139.7
X250.063Y46.99
X250.063Y54.61
X250.063Y62.611
X250.063Y70.231
X250.19Y78.105
X250.19Y85.725
X250.19Y94.107
X250.19Y101.727
X251.968Y113.157
X251.968Y120.777
X251.968Y132.08
X251.968Y139.7
X252.603Y46.99
X252.603Y54.61
X252.603Y62.611
X252.603Y70.231
X252.73Y78.105
X252.73Y85.725
X252.73Y94.107
X252.73Y101.727
X254.508Y113.157
X254.508Y120.777
X254.508Y132.08
X254.508Y139.7
X255.143Y62.611
X255.143Y70.231
X255.27Y78.105
X255.27Y85.725
X257.048Y113.157
X257.048Y120.777
X257.048Y132.08
X257.048Y139.7
X259.588Y113.157
X259.588Y120.777
X259.588Y132.08
X259.588Y139.7
T4
X21.082Y58.166
X21.082Y60.706
X21.082Y63.246
X21.082Y65.786
X21.082Y68.326
X21.209Y40.259
X21.209Y42.799
X21.209Y45.339
X21.209Y47.879
X21.209Y50.419
X23.622Y58.166
X23.622Y60.706
X23.622Y63.246
X23.622Y65.786
X23.622Y68.326
X23.749Y40.259
X23.749Y42.799
X23.749Y45.339
X23.749Y47.879
X23.749Y50.419
X29.083Y65.786
X29.083Y68.326
X31.623Y65.786
X31.623Y68.326
X187.325Y97.79
X187.325Y100.33
X231.076Y105.728
X231.076Y108.268
X233.616Y105.728
X233.616Y108.268
X239.865Y105.6
X239.865Y108.14
X242.405Y105.6
X242.405Y108.14
X244.945Y105.6
X244.945Y108.14
X250.317Y105.664
X250.317Y108.204
X252.857Y105.664
X252.857Y108.204
X255.397Y105.664
X255.397Y108.204
X257.937Y105.664
X257.937Y108.204
T5
X42.291Y135.382
X42.291Y137.922
X42.291Y140.462
T6
X19.05Y29.21
X25.781Y137.922
X260.35Y29.21
T0
M30
