M48
;DRILL file {Pcbnew (2013-07-07 BZR 4022)-stable} date 4/16/2014 12:02:28 PM
;FORMAT={-:-/ absolute / metric / decimal}
FMAT,2
METRIC,TZ
T1C0.350
T2C0.635
T3C0.813
T4C1.016
T5C1.143
T6C3.048
%
G90
G05
M71
T1
X27.064Y33.947
X27.33Y41.377
X29.353Y74.138
X29.481Y76.742
X30.55Y74.375
X33.47Y72.048
X33.784Y28.975
X35.382Y74.549
X36.284Y40.221
X36.322Y34.566
X37.109Y60.935
X38.355Y30.354
X39.34Y36.455
X41.44Y42.393
X41.91Y34.285
X42.837Y74.612
X43.345Y70.625
X43.743Y43.593
X44.448Y36.336
X44.937Y33.319
X45.17Y51.307
X45.784Y28.992
X46.828Y43.605
X46.914Y41.465
X48.439Y70.884
X48.608Y115.622
X50.076Y50.842
X50.525Y36.883
X50.6Y33.319
X50.864Y29.001
X51.229Y42.325
X51.345Y71.501
X51.359Y68.622
X51.365Y72.943
X51.407Y49.798
X52.785Y68.893
X53.479Y77.982
X54.28Y39.052
X54.458Y48.128
X55.215Y78.035
X55.447Y66.859
X55.583Y36.844
X55.771Y58.032
X55.777Y60.483
X55.866Y70.444
X55.886Y30.962
X55.917Y79.449
X56.14Y47.954
X56.526Y41.642
X56.961Y67.695
X56.971Y58.732
X57.087Y49.621
X57.103Y70.714
X57.129Y62.974
X57.239Y59.85
X57.704Y50.534
X57.778Y51.301
X58.181Y62.957
X58.303Y58.786
X58.586Y74.492
X58.599Y33.325
X58.648Y54.753
X58.849Y67.24
X59.285Y70.386
X59.762Y79.095
X60.596Y78.449
X60.795Y39.04
X60.962Y75.987
X61.15Y62.958
X61.185Y36.772
X61.339Y83.645
X61.45Y53.211
X61.851Y44.432
X61.89Y74.721
X62.255Y41.948
X62.462Y78.886
X62.772Y28.977
X62.924Y62.941
X63.263Y57.875
X63.498Y60.3
X63.593Y74.229
X63.618Y52.608
X63.717Y62.945
X64.218Y60.497
X64.343Y44.117
X64.361Y69.064
X64.41Y95.248
X64.625Y33.476
X65.047Y82.413
X65.247Y75.737
X65.279Y52.584
X65.366Y43.733
X65.658Y62.947
X65.889Y51.504
X65.934Y39.
X66.088Y88.958
X66.116Y60.009
X66.51Y51.989
X66.557Y79.331
X66.581Y63.028
X66.611Y40.033
X66.619Y47.974
X66.841Y73.971
X67.321Y71.142
X67.551Y42.247
X67.61Y64.789
X67.746Y38.381
X68.153Y66.526
X68.365Y73.112
X68.53Y58.385
X68.664Y42.555
X68.736Y90.764
X68.803Y78.551
X69.31Y57.725
X69.804Y34.074
X70.35Y82.112
X70.592Y77.953
X70.849Y66.228
X70.917Y65.369
X71.406Y74.474
X71.702Y73.059
X72.897Y37.908
X73.236Y28.972
X73.5Y64.041
X73.535Y71.993
X74.171Y88.75
X74.917Y33.044
X74.921Y89.316
X75.73Y71.831
X75.73Y78.511
X77.948Y34.274
X78.298Y28.984
X78.335Y73.9
X79.464Y148.196
X79.845Y76.886
X80.518Y37.656
X80.567Y143.727
X81.105Y103.072
X81.631Y62.856
X82.169Y68.91
X82.423Y32.055
X83.261Y84.964
X83.628Y28.993
X83.743Y39.118
X84.103Y84.964
X84.949Y60.324
X86.066Y34.123
X87.3Y73.228
X88.558Y55.795
X89.128Y33.194
X89.261Y33.929
X90.195Y28.977
X91.916Y102.007
X93.218Y94.912
X93.596Y50.876
X93.701Y59.55
X93.819Y103.662
X95.225Y40.081
X95.382Y33.325
X95.881Y28.993
X96.089Y52.894
X97.823Y36.458
X98.71Y84.023
X100.33Y32.487
X100.668Y30.957
X100.838Y99.06
X101.613Y50.33
X101.816Y58.89
X102.158Y84.357
X102.692Y53.416
X103.303Y33.325
X103.378Y35.352
X103.607Y44.475
X103.626Y84.305
X104.724Y114.732
X105.677Y138.496
X105.954Y30.976
X106.057Y63.72
X106.137Y84.472
X107.78Y83.083
X108.267Y53.505
X108.756Y122.217
X108.814Y39.129
X108.966Y34.566
X108.966Y36.403
X110.008Y122.622
X110.306Y125.471
X110.31Y137.471
X110.328Y119.047
X110.515Y114.935
X110.609Y106.622
X110.744Y32.233
X110.919Y121.039
X111.576Y120.326
X111.883Y135.55
X112.586Y28.962
X112.773Y82.63
X113.275Y94.074
X113.704Y103.544
X114.407Y33.325
X114.668Y82.142
X115.3Y99.287
X115.837Y80.132
X115.925Y58.245
X115.932Y45.385
X116.071Y98.899
X116.665Y44.711
X116.874Y58.715
X117.049Y34.858
X117.607Y54.232
X117.888Y94.012
X118.264Y59.265
X118.855Y31.077
X119.161Y66.064
X120.564Y69.691
X120.631Y61.474
X120.636Y71.168
X121.Y110.778
X121.011Y99.976
X121.343Y52.406
X121.581Y72.959
X121.581Y77.649
X123.1Y50.234
X123.319Y33.355
X123.804Y39.121
X123.825Y37.104
X123.885Y82.675
X124.165Y48.308
X124.29Y50.429
X124.327Y39.718
X124.353Y84.775
X124.476Y82.079
X124.491Y75.456
X124.719Y77.865
X124.72Y86.521
X125.078Y54.554
X125.461Y86.146
X125.881Y128.578
X125.995Y100.082
X126.113Y53.43
X126.746Y116.079
X127.539Y49.031
X128.002Y88.687
X128.382Y81.991
X128.645Y70.662
X129.215Y71.733
X129.614Y62.109
X130.065Y79.642
X130.285Y71.665
X130.288Y66.894
X130.523Y33.847
X130.624Y38.741
X130.836Y40.111
X130.873Y77.668
X130.98Y100.317
X131.028Y143.212
X132.428Y131.107
X133.276Y52.327
X133.858Y66.294
X133.884Y133.336
X133.987Y70.31
X133.989Y72.96
X134.029Y36.452
X134.047Y78.734
X134.115Y34.666
X134.115Y38.87
X134.115Y40.617
X134.179Y80.38
X134.187Y71.457
X134.204Y57.809
X134.248Y42.12
X134.314Y58.53
X134.372Y61.343
X134.493Y143.142
X134.502Y46.055
X134.671Y43.288
X134.828Y63.052
X135.004Y61.95
X135.547Y77.205
X135.577Y74.695
X135.595Y58.785
X135.648Y37.188
X135.691Y111.259
X135.964Y73.651
X135.964Y76.133
X135.964Y101.376
X136.086Y53.724
X136.451Y78.717
X136.756Y76.018
X136.893Y53.609
X137.024Y120.14
X137.251Y62.535
X137.439Y69.76
X137.605Y75.443
X137.615Y82.06
X137.631Y47.01
X137.638Y45.769
X137.643Y72.144
X137.658Y81.34
X137.803Y37.219
X137.922Y141.389
X138.279Y62.172
X138.626Y27.766
X139.311Y27.082
X139.39Y53.139
X139.978Y112.518
X140.678Y130.696
X140.948Y24.704
X140.993Y64.962
X141.105Y32.783
X141.262Y126.454
X141.539Y63.863
X141.629Y49.373
X141.804Y31.007
X142.295Y33.924
X142.884Y39.84
X143.067Y41.091
X143.465Y80.079
X143.515Y65.594
X143.623Y39.511
X143.727Y58.406
X145.009Y57.339
X145.217Y48.797
X145.517Y141.681
X145.654Y119.856
X146.695Y44.8
X146.769Y75.293
X147.087Y69.76
X147.749Y52.793
X147.759Y65.907
X148.425Y31.447
X148.438Y75.106
X148.463Y59.508
X148.895Y125.941
X149.403Y60.267
X150.077Y49.507
X150.794Y71.374
X150.812Y149.173
X150.917Y75.763
X150.917Y137.758
X151.689Y53.562
X151.844Y49.736
X151.893Y69.463
X152.058Y62.387
X152.089Y67.771
X152.975Y50.955
X153.409Y48.824
X153.769Y56.935
X154.03Y52.323
X154.081Y132.528
X154.315Y100.552
X154.585Y31.329
X154.625Y58.428
X155.117Y146.525
X155.584Y53.24
X155.713Y128.696
X156.012Y127.429
X156.031Y110.698
X156.604Y31.09
X156.757Y133.677
X157.104Y52.926
X157.428Y57.002
X157.747Y37.16
X158.162Y42.154
X158.394Y39.688
X158.649Y72.788
X158.655Y68.282
X158.687Y46.342
X158.709Y82.169
X158.723Y146.227
X158.786Y44.375
X158.877Y79.629
X158.924Y48.012
X158.96Y66.106
X159.067Y36.542
X159.087Y71.49
X159.11Y115.378
X159.141Y33.929
X159.313Y145.573
X159.339Y34.675
X159.356Y73.57
X159.369Y47.088
X159.375Y39.053
X159.378Y77.079
X159.381Y43.345
X159.382Y80.899
X159.391Y76.359
X159.406Y41.565
X159.41Y74.549
X159.416Y78.542
X159.638Y84.281
X159.735Y53.393
X160.265Y108.754
X160.469Y145.864
X161.608Y134.96
X161.693Y63.133
X162.569Y42.304
X162.735Y62.104
X162.765Y28.735
X163.185Y66.151
X163.378Y110.4
X164.466Y61.841
X164.717Y58.518
X165.126Y70.586
X165.558Y76.454
X165.661Y54.791
X165.994Y133.292
X166.017Y80.915
X166.018Y68.171
X166.102Y32.154
X166.147Y71.374
X167.005Y148.145
X167.397Y57.953
X167.435Y51.935
X168.778Y128.872
X169.15Y73.914
X169.194Y38.211
X169.194Y30.226
X169.351Y76.508
X169.633Y71.926
X169.648Y59.644
X169.832Y139.67
X169.928Y69.773
X169.972Y30.092
X169.974Y143.286
X170.213Y72.463
X170.255Y71.497
X170.263Y66.51
X170.281Y120.552
X170.437Y70.282
X170.855Y23.921
X170.855Y38.895
X170.855Y43.86
X170.855Y73.455
X170.887Y46.375
X171.207Y75.928
X171.236Y26.013
X171.474Y71.219
X171.53Y77.804
X171.603Y75.293
X171.608Y65.646
X171.706Y36.633
X171.716Y81.955
X171.732Y40.694
X171.927Y41.76
X172.146Y45.659
X172.162Y52.189
X172.191Y78.616
X172.883Y51.96
X172.975Y23.92
X173.012Y58.985
X173.106Y26.939
X173.15Y135.748
X173.723Y128.084
X173.88Y146.794
X174.578Y54.804
X174.697Y138.093
X175.355Y65.869
X175.556Y61.095
X175.57Y143.756
X175.614Y49.204
X175.729Y144.947
X175.731Y26.766
X175.746Y39.23
X175.96Y128.859
X176.178Y64.638
X176.696Y59.729
X176.753Y40.978
X176.819Y148.019
X176.837Y122.841
X177.012Y58.811
X177.255Y76.946
X177.596Y53.803
X177.725Y31.934
X177.781Y40.321
X177.934Y74.072
X178.105Y71.974
X178.169Y59.82
X178.178Y66.606
X178.218Y82.827
X178.262Y32.416
X178.271Y84.193
X178.272Y78.532
X178.322Y110.615
X178.454Y31.226
X178.454Y65.456
X178.493Y123.605
X178.513Y80.059
X178.815Y64.111
X178.824Y122.832
X178.925Y135.009
X178.935Y116.306
X178.95Y52.447
X178.964Y59.82
X179.223Y133.584
X179.599Y144.226
X179.603Y96.85
X179.727Y54.743
X179.775Y48.779
X179.869Y108.535
X180.152Y137.068
X180.275Y147.727
X180.645Y86.589
X181.139Y113.674
X181.627Y112.99
X181.968Y82.594
X182.363Y113.073
X182.441Y144.365
X182.659Y49.327
X182.814Y29.109
X182.851Y143.756
X182.884Y148.363
X182.972Y138.511
X183.155Y39.656
X183.267Y50.532
X183.316Y46.587
X183.367Y55.036
X183.461Y112.488
X183.55Y80.694
X183.575Y108.037
X183.715Y76.832
X183.815Y143.756
X183.83Y44.658
X184.185Y76.112
X184.44Y108.537
X184.672Y137.49
X184.805Y74.402
X185.168Y139.995
X185.183Y134.228
X185.218Y144.702
X185.361Y71.867
X185.832Y71.147
X186.208Y52.668
X186.315Y57.959
X186.552Y133.88
X187.413Y125.994
X187.647Y95.311
X187.813Y138.614
X188.3Y41.565
X188.3Y48.112
X189.031Y136.185
X189.055Y114.42
X189.179Y54.023
X189.253Y99.965
X189.456Y111.395
X189.65Y135.374
X190.248Y99.857
X190.792Y41.377
X190.792Y53.017
X190.874Y120.832
X191.138Y107.694
X191.224Y127.192
X191.426Y128.806
X191.611Y110.371
X191.821Y88.697
X192.082Y100.045
X192.349Y96.678
X192.355Y126.061
X192.38Y31.142
X192.556Y33.3
X192.556Y34.666
X192.832Y61.903
X192.94Y137.38
X192.982Y46.049
X193.284Y78.616
X193.673Y83.752
X193.727Y132.741
X193.781Y68.686
X193.806Y30.282
X194.1Y38.473
X194.139Y36.412
X194.218Y34.501
X194.343Y63.407
X194.386Y124.03
X194.561Y79.307
X194.584Y73.044
X194.594Y39.243
X194.652Y42.321
X194.657Y37.157
X195.05Y134.029
X195.085Y145.999
X195.232Y60.
X195.335Y121.247
X195.579Y58.194
X195.58Y143.002
X195.586Y122.193
X195.744Y139.617
X196.137Y95.522
X196.544Y121.488
X197.243Y90.474
X197.445Y53.001
X197.526Y56.543
X197.578Y121.997
X197.624Y128.903
X197.646Y24.01
X197.93Y127.49
X198.06Y48.853
X198.069Y97.131
X198.137Y59.615
X198.238Y29.082
X198.292Y49.606
X198.624Y50.823
X198.643Y71.892
X198.878Y69.76
X199.061Y27.212
X199.932Y71.983
X200.116Y30.788
X200.466Y80.316
X200.493Y53.596
X200.613Y79.171
X200.65Y98.369
X200.662Y35.607
X200.912Y37.6
X200.919Y77.074
X201.016Y145.593
X201.072Y34.666
X202.938Y98.344
X203.048Y84.282
X203.504Y123.866
X203.709Y49.736
X203.747Y132.415
X204.015Y63.681
X204.015Y73.914
X204.466Y81.026
X204.504Y56.865
X204.804Y75.811
X204.836Y51.539
X204.904Y39.834
X205.025Y44.275
X205.113Y61.732
X205.125Y121.402
X205.244Y54.424
X205.324Y36.26
X205.608Y71.498
X205.672Y78.822
X205.689Y143.307
X205.745Y40.771
X205.745Y82.579
X205.786Y42.926
X205.867Y41.656
X205.925Y34.24
X205.966Y45.466
X205.966Y46.587
X206.083Y76.46
X206.126Y78.223
X206.166Y36.229
X206.287Y140.33
X206.409Y110.941
X206.576Y135.065
X206.618Y35.634
X207.119Y39.648
X207.272Y107.785
X207.361Y34.152
X207.507Y52.638
X207.515Y57.496
X207.518Y32.118
X208.548Y62.936
X208.773Y88.791
X208.965Y60.09
X209.178Y84.76
X209.226Y107.721
X209.385Y86.506
X209.535Y58.907
X209.867Y110.241
X210.539Y70.818
X210.58Y65.861
X210.67Y35.007
X210.733Y116.164
X210.777Y77.832
X210.91Y31.595
X211.351Y59.391
X211.628Y31.043
X212.355Y63.044
X212.659Y60.838
X213.161Y109.966
X213.197Y94.193
X213.199Y41.377
X213.249Y30.474
X213.381Y68.282
X213.56Y39.141
X213.591Y42.721
X213.615Y54.174
X213.687Y29.43
X213.885Y95.995
X215.081Y127.446
X215.492Y101.645
X215.714Y58.851
X216.526Y132.208
X216.587Y130.769
X216.894Y65.91
X217.01Y67.216
X217.032Y31.783
X217.217Y55.191
X218.033Y29.387
X218.037Y127.775
X218.109Y35.752
X218.325Y61.509
X218.441Y62.229
X218.541Y111.064
X218.919Y127.594
X219.265Y79.299
X219.289Y54.174
X219.656Y62.561
X219.787Y67.47
X219.788Y34.389
X220.11Y55.294
X220.315Y87.905
X220.699Y113.577
X220.825Y98.721
X220.878Y57.295
X221.175Y80.316
X221.339Y54.174
X221.387Y54.895
X221.436Y114.086
X221.589Y78.262
X221.714Y81.001
X222.06Y76.845
X222.235Y83.581
X222.53Y76.124
X222.898Y135.395
X223.Y74.36
X223.368Y111.76
X223.471Y73.64
X223.482Y105.804
X223.622Y90.576
X223.941Y72.009
X224.053Y131.242
X224.168Y108.839
X224.266Y57.681
X224.52Y54.837
X224.724Y112.723
X225.049Y55.473
X225.329Y57.3
X225.395Y109.24
X225.683Y46.571
X225.935Y31.008
X226.256Y107.239
X226.52Y57.779
X226.644Y84.938
X227.209Y32.185
X227.273Y48.02
X227.359Y54.156
X227.716Y71.149
X227.742Y47.338
X227.764Y115.36
X227.88Y31.432
X228.013Y117.065
X228.019Y63.202
X228.175Y135.309
X228.211Y114.752
X228.449Y27.829
X228.48Y26.789
X228.677Y36.412
X228.677Y39.08
X228.677Y41.577
X228.677Y44.074
X228.89Y48.02
X229.586Y26.188
X229.671Y79.145
X229.715Y67.37
X229.812Y69.127
X229.87Y89.662
X229.961Y37.899
X229.961Y40.411
X229.961Y42.922
X229.961Y45.433
X229.997Y33.929
X230.012Y59.109
X230.032Y35.811
X230.721Y54.391
X231.061Y61.075
X231.242Y86.525
X231.386Y27.084
X231.673Y59.836
X232.891Y113.807
X233.16Y60.811
X234.029Y98.211
X234.819Y129.922
X234.86Y64.546
X235.043Y61.426
X235.051Y77.652
X235.408Y71.107
X235.415Y85.543
X235.628Y32.075
X235.628Y73.682
X235.629Y27.678
X235.652Y26.475
X235.657Y76.065
X235.772Y77.804
X236.416Y74.001
X236.553Y98.543
X236.61Y129.638
X237.014Y56.637
X237.357Y111.238
X237.655Y84.724
X238.144Y94.843
X238.791Y55.096
X239.138Y94.146
X239.363Y60.507
X239.429Y109.166
X239.528Y79.244
X239.566Y67.655
X239.648Y82.422
X239.961Y80.951
X240.011Y40.678
X240.24Y108.433
X240.253Y55.096
X240.316Y61.625
X240.583Y90.393
X240.606Y59.401
X240.636Y38.895
X240.636Y41.377
X240.636Y128.881
X240.636Y36.412
X240.724Y46.342
X240.795Y77.629
X240.933Y64.559
X241.598Y103.944
X242.157Y49.188
X242.266Y69.136
X242.314Y53.704
X242.423Y74.571
X242.517Y130.632
X242.561Y45.856
X242.589Y43.86
X242.787Y71.168
X242.804Y78.506
X242.826Y75.928
X243.065Y134.188
X245.845Y54.11
X245.943Y66.224
X246.06Y68.531
X247.256Y58.123
X247.534Y62.482
X247.536Y44.691
X248.213Y48.706
X248.253Y45.309
X248.353Y66.743
X248.551Y68.461
X248.746Y48.062
X248.984Y45.466
X249.084Y66.78
X249.133Y116.105
X249.148Y95.542
X249.158Y46.48
X249.212Y60.259
X250.756Y90.531
X250.881Y88.884
X251.206Y26.797
X252.228Y90.23
X252.362Y74.378
X252.579Y73.201
X252.711Y68.94
X252.711Y70.765
X252.826Y41.904
X253.04Y95.45
X253.097Y31.516
X253.44Y37.328
X253.505Y38.895
X253.611Y77.284
X253.783Y36.44
X253.945Y74.767
X254.063Y39.629
X254.116Y78.528
X254.715Y97.677
X255.397Y32.766
X256.061Y120.82
X256.459Y58.999
X257.935Y46.057
X257.935Y49.037
X260.574Y100.461
T2
X21.577Y39.814
X52.872Y74.238
X55.926Y69.254
X116.21Y46.807
X165.381Y83.295
T3
X23.114Y102.108
X25.654Y102.108
X30.226Y45.72
X30.734Y102.108
X32.766Y45.72
X33.274Y102.108
X35.306Y45.72
X37.846Y45.72
X40.386Y45.72
X42.926Y45.72
X45.466Y45.72
X48.006Y45.72
X49.022Y139.319
X50.546Y45.72
X51.562Y139.319
X51.689Y125.984
X53.086Y45.72
X54.229Y125.984
X55.626Y45.72
X58.166Y45.72
X60.706Y45.72
X63.246Y45.72
X65.786Y45.72
X66.04Y106.68
X66.04Y111.76
X66.04Y132.08
X66.04Y137.16
X67.31Y94.234
X67.31Y96.774
X67.31Y99.314
X68.326Y45.72
X69.85Y94.234
X69.85Y96.774
X69.85Y99.314
X70.866Y45.72
X72.39Y94.234
X72.39Y96.774
X72.39Y99.314
X72.39Y105.41
X72.39Y113.03
X72.39Y118.11
X72.39Y125.73
X72.39Y130.81
X72.39Y138.43
X73.406Y45.72
X74.93Y94.234
X74.93Y96.774
X74.93Y99.314
X74.93Y105.41
X74.93Y113.03
X74.93Y118.11
X74.93Y125.73
X74.93Y130.81
X74.93Y138.43
X75.946Y45.72
X77.47Y94.234
X77.47Y96.774
X77.47Y99.314
X77.47Y105.41
X77.47Y113.03
X77.47Y118.11
X77.47Y125.73
X77.47Y130.81
X77.47Y138.43
X78.486Y45.72
X80.01Y94.234
X80.01Y96.774
X80.01Y99.314
X80.01Y105.41
X80.01Y113.03
X80.01Y118.11
X80.01Y125.73
X80.01Y130.81
X80.01Y138.43
X81.026Y45.72
X82.55Y94.234
X82.55Y96.774
X82.55Y99.314
X82.55Y105.41
X82.55Y113.03
X82.55Y118.11
X82.55Y125.73
X82.55Y130.81
X82.55Y138.43
X83.566Y45.72
X85.09Y94.234
X85.09Y96.774
X85.09Y99.314
X85.09Y105.41
X85.09Y113.03
X85.09Y118.11
X85.09Y125.73
X85.09Y130.81
X85.09Y138.43
X86.106Y45.72
X87.63Y105.41
X87.63Y113.03
X87.63Y118.11
X87.63Y125.73
X87.63Y130.81
X87.63Y138.43
X88.646Y45.72
X90.17Y105.41
X90.17Y113.03
X90.17Y118.11
X90.17Y125.73
X90.17Y130.81
X90.17Y138.43
X91.186Y45.72
X91.948Y94.234
X91.948Y96.774
X91.948Y99.314
X92.71Y105.41
X92.71Y113.03
X92.71Y130.81
X92.71Y138.43
X93.726Y45.72
X94.488Y94.234
X94.488Y96.774
X94.488Y99.314
X95.25Y105.41
X95.25Y113.03
X95.25Y130.81
X95.25Y138.43
X97.028Y94.234
X97.028Y96.774
X97.028Y99.314
X99.568Y94.234
X99.568Y96.774
X99.568Y99.314
X102.108Y94.234
X102.108Y96.774
X102.108Y99.314
X104.648Y94.234
X104.648Y96.774
X104.648Y99.314
X106.68Y106.68
X106.68Y111.76
X106.934Y132.08
X106.934Y137.16
X107.188Y94.234
X107.188Y96.774
X107.188Y99.314
X109.728Y94.234
X109.728Y96.774
X109.728Y99.314
X113.03Y105.41
X113.03Y113.03
X113.03Y118.11
X113.03Y125.73
X113.03Y130.81
X113.03Y138.43
X115.57Y105.41
X115.57Y113.03
X115.57Y118.11
X115.57Y125.73
X115.57Y130.81
X115.57Y138.43
X118.11Y105.41
X118.11Y113.03
X118.11Y118.11
X118.11Y125.73
X118.11Y130.81
X118.11Y138.43
X120.65Y105.41
X120.65Y113.03
X120.65Y118.11
X120.65Y125.73
X120.65Y130.81
X120.65Y138.43
X123.19Y105.41
X123.19Y113.03
X123.19Y118.11
X123.19Y125.73
X123.19Y130.81
X123.19Y138.43
X125.73Y105.41
X125.73Y113.03
X125.73Y118.11
X125.73Y125.73
X125.73Y130.81
X125.73Y138.43
X128.27Y105.41
X128.27Y113.03
X128.27Y118.11
X128.27Y125.73
X128.27Y130.81
X128.27Y138.43
X130.81Y105.41
X130.81Y113.03
X130.81Y118.11
X130.81Y125.73
X133.35Y105.41
X133.35Y113.03
X135.89Y105.41
X135.89Y113.03
X136.144Y51.181
X136.271Y86.614
X141.224Y51.181
X141.351Y86.614
X147.32Y106.68
X147.32Y111.76
X147.32Y119.38
X147.32Y124.46
X147.32Y132.08
X147.32Y137.16
X153.67Y105.41
X153.67Y113.03
X153.67Y118.11
X153.67Y125.73
X153.67Y131.064
X153.67Y138.684
X156.21Y105.41
X156.21Y113.03
X156.21Y118.11
X156.21Y125.73
X156.21Y131.064
X156.21Y138.684
X158.75Y105.41
X158.75Y113.03
X158.75Y118.11
X158.75Y125.73
X158.75Y131.064
X158.75Y138.684
X161.29Y105.41
X161.29Y113.03
X161.29Y118.11
X161.29Y125.73
X161.29Y131.064
X161.29Y138.684
X163.83Y105.41
X163.83Y113.03
X163.83Y118.11
X163.83Y125.73
X163.83Y131.064
X163.83Y138.684
X166.37Y105.41
X166.37Y113.03
X166.37Y118.11
X166.37Y125.73
X166.37Y131.064
X166.37Y138.684
X168.91Y105.41
X168.91Y113.03
X168.91Y118.11
X168.91Y125.73
X168.91Y131.064
X168.91Y138.684
X171.323Y51.181
X171.323Y86.614
X171.45Y105.41
X171.45Y113.03
X171.45Y118.11
X171.45Y125.73
X171.45Y131.064
X171.45Y138.684
X173.99Y105.41
X173.99Y113.03
X173.99Y118.11
X173.99Y125.73
X176.403Y51.181
X176.403Y86.614
X176.53Y105.41
X176.53Y113.03
X181.61Y116.078
X181.61Y118.618
X181.61Y121.158
X181.61Y123.698
X181.61Y126.238
X181.61Y128.778
X181.61Y131.318
X181.61Y133.858
X181.61Y136.398
X181.61Y138.938
X187.96Y93.98
X187.96Y99.06
X187.96Y106.68
X187.96Y111.76
X187.96Y119.38
X187.96Y124.46
X187.96Y132.08
X187.96Y137.16
X194.31Y92.71
X194.31Y100.33
X194.31Y105.41
X194.31Y113.03
X194.31Y118.11
X194.31Y125.73
X194.31Y130.81
X194.31Y138.43
X196.85Y92.71
X196.85Y100.33
X196.85Y105.41
X196.85Y113.03
X196.85Y118.11
X196.85Y125.73
X196.85Y130.81
X196.85Y138.43
X199.39Y92.71
X199.39Y100.33
X199.39Y105.41
X199.39Y113.03
X199.39Y118.11
X199.39Y125.73
X199.39Y130.81
X199.39Y138.43
X201.93Y92.71
X201.93Y100.33
X201.93Y105.41
X201.93Y113.03
X201.93Y118.11
X201.93Y125.73
X201.93Y130.81
X201.93Y138.43
X204.47Y92.71
X204.47Y100.33
X204.47Y105.41
X204.47Y113.03
X204.47Y118.11
X204.47Y125.73
X204.47Y130.81
X204.47Y138.43
X206.121Y51.181
X206.121Y86.614
X207.01Y92.71
X207.01Y100.33
X207.01Y105.41
X207.01Y113.03
X207.01Y118.11
X207.01Y125.73
X207.01Y130.81
X207.01Y138.43
X209.55Y92.71
X209.55Y100.33
X209.55Y105.41
X209.55Y113.03
X209.55Y118.11
X209.55Y125.73
X209.55Y130.81
X209.55Y138.43
X211.201Y51.181
X211.201Y86.614
X212.09Y92.71
X212.09Y100.33
X212.09Y105.41
X212.09Y113.03
X212.09Y118.11
X212.09Y125.73
X214.63Y92.71
X214.63Y100.33
X214.63Y105.41
X214.63Y113.03
X214.63Y118.11
X214.63Y125.73
X217.17Y92.71
X217.17Y100.33
X217.17Y105.41
X217.17Y113.03
X217.17Y118.11
X217.17Y125.73
X228.6Y93.98
X228.6Y99.06
X228.6Y106.68
X228.6Y111.76
X228.6Y119.38
X228.6Y124.46
X234.95Y92.71
X234.95Y100.33
X234.95Y105.41
X234.95Y113.03
X234.95Y118.11
X234.95Y125.73
X237.49Y92.71
X237.49Y100.33
X237.49Y105.41
X237.49Y113.03
X237.49Y118.11
X237.49Y125.73
X240.03Y92.71
X240.03Y100.33
X240.03Y105.41
X240.03Y113.03
X240.03Y118.11
X240.03Y125.73
X241.554Y86.614
X242.062Y51.308
X242.57Y92.71
X242.57Y100.33
X242.57Y105.41
X242.57Y113.03
X242.57Y118.11
X242.57Y125.73
X245.11Y92.71
X245.11Y100.33
X245.11Y105.41
X245.11Y113.03
X245.11Y118.11
X245.11Y125.73
X246.634Y86.614
X247.142Y51.308
X247.65Y92.71
X247.65Y100.33
X247.65Y105.41
X247.65Y113.03
X247.65Y118.11
X247.65Y125.73
X250.19Y92.71
X250.19Y100.33
X250.19Y105.41
X250.19Y113.03
X250.19Y118.11
X250.19Y125.73
X252.73Y92.71
X252.73Y100.33
X252.73Y105.41
X252.73Y113.03
X252.73Y118.11
X252.73Y125.73
X255.27Y92.71
X255.27Y100.33
X255.27Y105.41
X255.27Y113.03
X255.27Y118.11
X255.27Y125.73
X257.81Y92.71
X257.81Y100.33
X257.81Y105.41
X257.81Y113.03
X257.81Y118.11
X257.81Y125.73
T4
X20.955Y67.818
X20.955Y70.358
X20.955Y72.898
X20.955Y75.438
X20.955Y77.978
X23.495Y67.818
X23.495Y70.358
X23.495Y72.898
X23.495Y75.438
X23.495Y77.978
X60.96Y143.51
X60.96Y146.05
X82.55Y143.51
X82.55Y146.05
X111.76Y143.51
X111.76Y146.05
X114.3Y143.51
X114.3Y146.05
X139.052Y135.077
X141.592Y135.077
T5
X48.006Y128.905
X48.006Y131.445
X48.006Y133.985
T6
X19.05Y29.21
X31.496Y131.445
X260.35Y29.21
T0
M30
